<?xml version="1.0" encoding="UTF-8"?>
<svg version="1.1" viewBox="0 0 100 110" xmlns="http://www.w3.org/2000/svg" xmlns:cc="http://creativecommons.org/ns#" xmlns:dc="http://purl.org/dc/elements/1.1/" xmlns:rdf="http://www.w3.org/1999/02/22-rdf-syntax-ns#">
 <metadata>
  <rdf:RDF>
   <cc:Work rdf:about="">
    <dc:format>image/svg+xml</dc:format>
    <dc:type rdf:resource="http://purl.org/dc/dcmitype/StillImage"/>
    <dc:title/>
   </cc:Work>
  </rdf:RDF>
 </metadata>
 <text x="-52.679455" y="21.611652" fill="#000000" font-family="monospace" font-size="16px" letter-spacing="0px" word-spacing="0px" style="font-feature-settings:normal;font-variant-caps:normal;font-variant-ligatures:normal;font-variant-numeric:normal;line-height:20px" xml:space="preserve"/>
 <text x="-52.414291" y="15.998991" fill="#000000" font-family="monospace" font-size="16px" letter-spacing="0px" word-spacing="0px" style="font-feature-settings:normal;font-variant-caps:normal;font-variant-ligatures:normal;font-variant-numeric:normal;line-height:20px" xml:space="preserve"/>
 <path d="m50 5.046 2.073 5.044s0.8692 1.67 1.481 2.317c0.9077 0.9615 2.141 1.559 3.142 2.219 7.457 4.911 9.178 13.93 4.207 22.19 18.17-4.175 22.54 15.1 11 26.12-3.186 1.618-4.2 1.861-6.908 2.779 0.5489-1.721 1.356-3.066 1.644-4.411 1.437-6.709-4.156-9.761-7.231-2.981-0.7736 2.169-1.183 4.317-1.326 6.438h2.241l3.005 4.328-3.005 4.323h-1.547c0.117 0.578 0.2351 1.158 0.3712 1.731 1.165 4.904 4.37 8.915 6.934 12.92-3.945-0.5266-6.643-1.044-9.736-3.618 1.357 7.18-2.21 13.1-6.347 17.42-4.137-4.315-7.704-10.24-6.347-17.42-3.094 2.574-5.791 3.092-9.736 3.618 2.564-4.008 5.769-8.02 6.934-12.92 0.1362-0.5729 0.2543-1.153 0.3712-1.731h-1.547l-3.005-4.323 3.005-4.328h2.241c-0.143-2.121-0.5523-4.269-1.326-6.438-3.075-6.78-8.668-3.728-7.231 2.981 0.2882 1.345 1.095 2.69 1.644 4.411-2.708-0.9178-3.722-1.16-6.908-2.779-11.53-11.02-7.171-30.29 11-26.12-4.97-8.261-3.25-17.28 4.207-22.19 1.001-0.6594 2.235-1.257 3.142-2.219 0.6114-0.6475 1.481-2.317 1.481-2.317z"/>
</svg>
