<?xml version="1.0" encoding="UTF-8"?>
<svg version="1.1" viewBox="0 0 100 110" xmlns="http://www.w3.org/2000/svg" xmlns:cc="http://creativecommons.org/ns#" xmlns:dc="http://purl.org/dc/elements/1.1/" xmlns:rdf="http://www.w3.org/1999/02/22-rdf-syntax-ns#">
 <metadata>
  <rdf:RDF>
   <cc:Work rdf:about="">
    <dc:format>image/svg+xml</dc:format>
    <dc:type rdf:resource="http://purl.org/dc/dcmitype/StillImage"/>
    <dc:title/>
   </cc:Work>
  </rdf:RDF>
 </metadata>
 <text x="-52.679455" y="21.611652" fill="#000000" font-family="monospace" font-size="16px" letter-spacing="0px" word-spacing="0px" style="font-feature-settings:normal;font-variant-caps:normal;font-variant-ligatures:normal;font-variant-numeric:normal;line-height:20px" xml:space="preserve"/>
 <text x="-52.414291" y="15.998991" fill="#000000" font-family="monospace" font-size="16px" letter-spacing="0px" word-spacing="0px" style="font-feature-settings:normal;font-variant-caps:normal;font-variant-ligatures:normal;font-variant-numeric:normal;line-height:20px" xml:space="preserve"/>
 <path d="m72.12 7.465 1.19 2.895s0.4988 0.9582 0.8497 1.33c0.5209 0.5518 1.229 0.8948 1.803 1.273 4.279 2.818 5.267 7.992 2.415 12.73 10.43-2.396 12.93 8.665 6.313 14.99-1.828 0.9288-2.41 1.068-3.964 1.595 0.315-0.9877 0.7781-1.76 0.9435-2.532 0.8248-3.85-2.385-5.602-4.15-1.711-0.444 1.245-0.6789 2.477-0.7609 3.695h1.286l1.725 2.484-1.725 2.481h-0.8877c0.06713 0.3317 0.1349 0.6648 0.2131 0.9936 0.6688 2.814 2.508 5.116 3.98 7.416-2.264-0.3022-3.812-0.599-5.588-2.076 0.7789 4.12-1.268 7.52-3.642 9.996-2.374-2.476-4.421-5.875-3.642-9.996-1.775 1.477-3.323 1.774-5.588 2.076 1.472-2.3 3.311-4.602 3.98-7.416 0.07817-0.3288 0.146-0.6619 0.2131-0.9936h-0.8877l-1.725-2.481 1.725-2.484h1.286c-0.08207-1.217-0.317-2.45-0.7609-3.695-1.764-3.891-4.974-2.139-4.15 1.711 0.1654 0.772 0.6285 1.544 0.9435 2.532-1.554-0.5267-2.136-0.6658-3.964-1.595-6.62-6.323-4.116-17.38 6.313-14.99-2.852-4.741-1.865-9.914 2.415-12.73 0.5747-0.3785 1.282-0.7215 1.803-1.273 0.3509-0.3716 0.8497-1.33 0.8497-1.33z"/>
</svg>
