<?xml version="1.0" encoding="UTF-8"?>
<svg version="1.1" viewBox="0 0 100 110" xmlns="http://www.w3.org/2000/svg" xmlns:cc="http://creativecommons.org/ns#" xmlns:dc="http://purl.org/dc/elements/1.1/" xmlns:rdf="http://www.w3.org/1999/02/22-rdf-syntax-ns#" xmlns:xlink="http://www.w3.org/1999/xlink">
 <metadata>
  <rdf:RDF>
   <cc:Work rdf:about="">
    <dc:format>image/svg+xml</dc:format>
    <dc:type rdf:resource="http://purl.org/dc/dcmitype/StillImage"/>
    <dc:title/>
   </cc:Work>
  </rdf:RDF>
 </metadata>
 <text x="-52.679455" y="21.611652" fill="#000000" font-family="monospace" font-size="16px" letter-spacing="0px" word-spacing="0px" style="font-feature-settings:normal;font-variant-caps:normal;font-variant-ligatures:normal;font-variant-numeric:normal;line-height:20px" xml:space="preserve"/>
 <text x="-52.414291" y="15.998991" fill="#000000" font-family="monospace" font-size="16px" letter-spacing="0px" word-spacing="0px" style="font-feature-settings:normal;font-variant-caps:normal;font-variant-ligatures:normal;font-variant-numeric:normal;line-height:20px" xml:space="preserve"/>
 <path id="path872-3-6-8-2-11" d="m84.27 79.02 0.4912 1.195s0.2059 0.3955 0.3507 0.549c0.215 0.2278 0.5073 0.3693 0.7442 0.5255 1.766 1.163 2.174 3.299 0.9968 5.255 4.305-0.989 5.337 3.577 2.606 6.187-0.7545 0.3834-0.9948 0.4408-1.636 0.6584 0.13-0.4077 0.3212-0.7265 0.3895-1.045 0.3405-1.589-0.9845-2.312-1.713-0.7063-0.1833 0.5139-0.2802 1.022-0.3141 1.525h0.5308l0.712 1.025-0.712 1.024h-0.3664c0.02771 0.1369 0.05568 0.2744 0.08796 0.4101 0.2761 1.162 1.035 2.112 1.643 3.061-0.9345-0.1247-1.573-0.2473-2.307-0.8569 0.3215 1.701-0.5234 3.104-1.503 4.126-0.9799-1.022-1.825-2.425-1.503-4.126-0.7327 0.6097-1.372 0.7323-2.307 0.8569 0.6076-0.9494 1.367-1.9 1.643-3.061 0.03227-0.1357 0.06026-0.2732 0.08796-0.4101h-0.3664l-0.712-1.024 0.712-1.025h0.5308c-0.03388-0.5023-0.1308-1.011-0.3141-1.525-0.7281-1.606-2.053-0.8829-1.713 0.7063 0.06827 0.3187 0.2594 0.6373 0.3895 1.045-0.6414-0.2174-0.8817-0.2748-1.636-0.6584-2.733-2.61-1.699-7.174 2.606-6.187-1.177-1.957-0.7698-4.092 0.9968-5.255 0.2372-0.1562 0.5292-0.2978 0.7442-0.5255 0.1448-0.1534 0.3507-0.549 0.3507-0.549z" stroke-width=".4128"/>
 <use id="use9" transform="translate(-44.35 -49.26)" width="100%" height="100%" xlink:href="#path872-3-6-8-2-11"/>
 <use id="use878" transform="translate(-22.23 -24.32)" width="100%" height="100%" xlink:href="#use9"/>
 <use id="use932" transform="translate(21.03 25.21)" width="100%" height="100%" xlink:href="#use9"/>
 <use transform="translate(2.7 -70.77)" width="100%" height="100%" xlink:href="#path872-3-6-8-2-11"/>
 <use transform="translate(26.85 -3.693)" width="100%" height="100%" xlink:href="#use9"/>
 <use transform="translate(30.95 -2.083)" width="100%" height="100%" xlink:href="#use878"/>
 <use transform="translate(27.65 -8.963)" width="100%" height="100%" xlink:href="#use932"/>
</svg>
