<?xml version="1.0" encoding="UTF-8"?>
<svg version="1.1" viewBox="0 0 100 110" xmlns="http://www.w3.org/2000/svg" xmlns:cc="http://creativecommons.org/ns#" xmlns:dc="http://purl.org/dc/elements/1.1/" xmlns:rdf="http://www.w3.org/1999/02/22-rdf-syntax-ns#" xmlns:xlink="http://www.w3.org/1999/xlink">
 <metadata>
  <rdf:RDF>
   <cc:Work rdf:about="">
    <dc:format>image/svg+xml</dc:format>
    <dc:type rdf:resource="http://purl.org/dc/dcmitype/StillImage"/>
    <dc:title/>
   </cc:Work>
  </rdf:RDF>
 </metadata>
 <text x="-52.679455" y="21.611652" fill="#000000" font-family="monospace" font-size="16px" letter-spacing="0px" word-spacing="0px" style="font-feature-settings:normal;font-variant-caps:normal;font-variant-ligatures:normal;font-variant-numeric:normal;line-height:20px" xml:space="preserve"/>
 <text x="-52.414291" y="15.998991" fill="#000000" font-family="monospace" font-size="16px" letter-spacing="0px" word-spacing="0px" style="font-feature-settings:normal;font-variant-caps:normal;font-variant-ligatures:normal;font-variant-numeric:normal;line-height:20px" xml:space="preserve"/>
 <path id="path872-3-6-8-2-11" d="m75.66 6.354 0.9168 2.23s0.3843 0.7382 0.6546 1.025c0.4013 0.4251 0.9469 0.6894 1.389 0.9808 3.297 2.171 4.058 6.157 1.861 9.808 8.036-1.846 9.962 6.676 4.864 11.55-1.408 0.7156-1.857 0.8228-3.054 1.229 0.2427-0.761 0.5995-1.356 0.7269-1.951 0.6355-2.966-1.837-4.316-3.197-1.318-0.3421 0.9592-0.523 1.908-0.5862 2.847h0.9908l1.329 1.914-1.329 1.911h-0.6839c0.05172 0.2556 0.1039 0.5122 0.1642 0.7655 0.5153 2.168 1.932 3.942 3.066 5.714-1.744-0.2328-2.937-0.4615-4.305-1.599 0.6001 3.174-0.9769 5.794-2.806 7.701-1.829-1.908-3.406-4.526-2.806-7.701-1.368 1.138-2.56 1.367-4.305 1.599 1.134-1.772 2.551-3.546 3.066-5.714 0.06023-0.2533 0.1125-0.51 0.1642-0.7655h-0.6839l-1.329-1.911 1.329-1.914h0.9908c-0.06323-0.9376-0.2442-1.888-0.5862-2.847-1.359-2.998-3.832-1.648-3.197 1.318 0.1274 0.5948 0.4842 1.19 0.7269 1.951-1.197-0.4058-1.646-0.513-3.054-1.229-5.1-4.871-3.171-13.39 4.864-11.55-2.197-3.653-1.437-7.638 1.861-9.808 0.4428-0.2916 0.9877-0.5559 1.389-0.9808 0.2703-0.2863 0.6546-1.025 0.6546-1.025z" stroke-width=".7704"/>
 <use id="use9" transform="translate(-52.06)" width="100%" height="100%" xlink:href="#path872-3-6-8-2-11"/>
 <use transform="translate(0 46.23)" width="100%" height="100%" xlink:href="#path872-3-6-8-2-11"/>
 <use id="use844" transform="translate(0 46.23)" width="100%" height="100%" xlink:href="#use9"/>
 <use transform="translate(26,-20)" width="100%" height="100%" xlink:href="#use844"/>
</svg>
