<?xml version="1.0" encoding="UTF-8"?>
<svg version="1.1" viewBox="0 0 100 110" xmlns="http://www.w3.org/2000/svg" xmlns:cc="http://creativecommons.org/ns#" xmlns:dc="http://purl.org/dc/elements/1.1/" xmlns:rdf="http://www.w3.org/1999/02/22-rdf-syntax-ns#" xmlns:xlink="http://www.w3.org/1999/xlink">
 <metadata>
  <rdf:RDF>
   <cc:Work rdf:about="">
    <dc:format>image/svg+xml</dc:format>
    <dc:type rdf:resource="http://purl.org/dc/dcmitype/StillImage"/>
    <dc:title/>
   </cc:Work>
  </rdf:RDF>
 </metadata>
 <text x="-52.679455" y="21.611652" fill="#000000" font-family="monospace" font-size="16px" letter-spacing="0px" word-spacing="0px" style="font-feature-settings:normal;font-variant-caps:normal;font-variant-ligatures:normal;font-variant-numeric:normal;line-height:20px" xml:space="preserve"/>
 <text x="-52.414291" y="15.998991" fill="#000000" font-family="monospace" font-size="16px" letter-spacing="0px" word-spacing="0px" style="font-feature-settings:normal;font-variant-caps:normal;font-variant-ligatures:normal;font-variant-numeric:normal;line-height:20px" xml:space="preserve"/>
 <path id="path872-3-6-8-2-11" d="m85 70.78 0.682 1.659s0.2859 0.5491 0.487 0.7622c0.2985 0.3162 0.7043 0.5128 1.033 0.7296 2.452 1.615 3.018 4.58 1.384 7.296 5.977-1.373 7.41 4.966 3.618 8.591-1.048 0.5323-1.381 0.6121-2.272 0.9141 0.1805-0.566 0.4459-1.009 0.5407-1.451 0.4727-2.206-1.367-3.21-2.378-0.9806-0.2545 0.7135-0.3891 1.42-0.4361 2.118h0.737l0.9886 1.424-0.9886 1.422h-0.5087c0.03847 0.1901 0.07731 0.381 0.1221 0.5694 0.3833 1.613 1.437 2.932 2.281 4.25-1.297-0.1732-2.185-0.3433-3.202-1.19 0.4464 2.361-0.7267 4.31-2.087 5.729-1.361-1.419-2.534-3.367-2.087-5.729-1.017 0.8465-1.904 1.017-3.202 1.19 0.8436-1.318 1.898-2.637 2.281-4.25 0.0448-0.1884 0.08367-0.3793 0.1221-0.5694h-0.5087l-0.9886-1.422 0.9886-1.424h0.737c-0.04704-0.6975-0.1817-1.404-0.4361-2.118-1.011-2.23-2.851-1.226-2.378 0.9806 0.09479 0.4424 0.3602 0.8849 0.5407 1.451-0.8906-0.3018-1.224-0.3816-2.272-0.9141-3.794-3.624-2.359-9.96 3.618-8.591-1.634-2.717-1.069-5.682 1.384-7.296 0.3294-0.2169 0.7347-0.4135 1.033-0.7296 0.2011-0.213 0.487-0.7622 0.487-0.7622z" stroke-width=".5731"/>
 <use id="use9" transform="translate(-46.51 -47.23)" width="100%" height="100%" xlink:href="#path872-3-6-8-2-11"/>
 <use transform="translate(-19.04 -20.81)" width="100%" height="100%" xlink:href="#use9"/>
 <use id="use932" transform="translate(22.72 24.72)" width="100%" height="100%" xlink:href="#use9"/>
 <use transform="translate(18.88 -38.68)" width="100%" height="100%" xlink:href="#use932"/>
</svg>
