<?xml version="1.0" encoding="UTF-8"?>
<svg version="1.1" viewBox="0 0 100 110" xmlns="http://www.w3.org/2000/svg" xmlns:cc="http://creativecommons.org/ns#" xmlns:dc="http://purl.org/dc/elements/1.1/" xmlns:rdf="http://www.w3.org/1999/02/22-rdf-syntax-ns#" xmlns:xlink="http://www.w3.org/1999/xlink">
 <metadata>
  <rdf:RDF>
   <cc:Work rdf:about="">
    <dc:format>image/svg+xml</dc:format>
    <dc:type rdf:resource="http://purl.org/dc/dcmitype/StillImage"/>
    <dc:title/>
   </cc:Work>
  </rdf:RDF>
 </metadata>
 <text x="-52.679455" y="21.611652" fill="#000000" font-family="monospace" font-size="16px" letter-spacing="0px" word-spacing="0px" style="font-feature-settings:normal;font-variant-caps:normal;font-variant-ligatures:normal;font-variant-numeric:normal;line-height:20px" xml:space="preserve"/>
 <text x="-52.414291" y="15.998991" fill="#000000" font-family="monospace" font-size="16px" letter-spacing="0px" word-spacing="0px" style="font-feature-settings:normal;font-variant-caps:normal;font-variant-ligatures:normal;font-variant-numeric:normal;line-height:20px" xml:space="preserve"/>
 <path id="path872-3-6-8-2-11" d="m77.32 13.67 0.6458 1.571s0.2707 0.52 0.4612 0.7218c0.2827 0.2995 0.667 0.4856 0.9785 0.6909 2.322 1.529 2.859 4.337 1.311 6.909 5.661-1.3 7.017 4.703 3.426 8.135-0.9921 0.5041-1.308 0.5796-2.151 0.8656 0.171-0.536 0.4223-0.9552 0.5121-1.374 0.4476-2.089-1.294-3.04-2.252-0.9286-0.241 0.6757-0.3685 1.344-0.413 2.005h0.6979l0.9362 1.348-0.9362 1.346h-0.4818c0.03643 0.18 0.07321 0.3608 0.1157 0.5392 0.363 1.527 1.361 2.777 2.16 4.025-1.229-0.164-2.069-0.3251-3.033-1.127 0.4227 2.236-0.6882 4.081-1.977 5.425-1.288-1.344-2.399-3.188-1.977-5.425-0.9633 0.8016-1.803 0.9628-3.033 1.127 0.7989-1.248 1.797-2.498 2.16-4.025 0.04243-0.1784 0.07924-0.3592 0.1157-0.5392h-0.4818l-0.9362-1.346 0.9362-1.348h0.6979c-0.04454-0.6605-0.172-1.33-0.413-2.005-0.9574-2.112-2.7-1.161-2.252 0.9286 0.08977 0.419 0.3411 0.838 0.5121 1.374-0.8434-0.2859-1.159-0.3613-2.151-0.8656-3.593-3.432-2.234-9.433 3.426-8.135-1.548-2.573-1.012-5.381 1.311-6.909 0.3119-0.2054 0.6958-0.3916 0.9785-0.6909 0.1904-0.2017 0.4612-0.7218 0.4612-0.7218z" stroke-width=".5427"/>
 <use id="use9" transform="translate(-55.39)" width="100%" height="100%" xlink:href="#path872-3-6-8-2-11"/>
 <use transform="translate(0 32.56)" width="100%" height="100%" xlink:href="#path872-3-6-8-2-11"/>
 <use id="use844" transform="translate(0 32.56)" width="100%" height="100%" xlink:href="#use9"/>
 <use id="use864" transform="translate(27.67 -42.27)" width="100%" height="100%" xlink:href="#use844"/>
 <use id="use908" transform="translate(0 33.81)" width="100%" height="100%" xlink:href="#use864"/>
 <use transform="translate(0 33.59)" width="100%" height="100%" xlink:href="#use908"/>
</svg>
