<?xml version="1.0" encoding="UTF-8"?>
<svg version="1.1" viewBox="0 0 100 110" xmlns="http://www.w3.org/2000/svg" xmlns:cc="http://creativecommons.org/ns#" xmlns:dc="http://purl.org/dc/elements/1.1/" xmlns:rdf="http://www.w3.org/1999/02/22-rdf-syntax-ns#" xmlns:xlink="http://www.w3.org/1999/xlink">
 <metadata>
  <rdf:RDF>
   <cc:Work rdf:about="">
    <dc:format>image/svg+xml</dc:format>
    <dc:type rdf:resource="http://purl.org/dc/dcmitype/StillImage"/>
    <dc:title/>
   </cc:Work>
  </rdf:RDF>
 </metadata>
 <text x="-52.679455" y="21.611652" fill="#000000" font-family="monospace" font-size="16px" letter-spacing="0px" word-spacing="0px" style="font-feature-settings:normal;font-variant-caps:normal;font-variant-ligatures:normal;font-variant-numeric:normal;line-height:20px" xml:space="preserve"/>
 <text x="-52.414291" y="15.998991" fill="#000000" font-family="monospace" font-size="16px" letter-spacing="0px" word-spacing="0px" style="font-feature-settings:normal;font-variant-caps:normal;font-variant-ligatures:normal;font-variant-numeric:normal;line-height:20px" xml:space="preserve"/>
 <path id="path872-3-6-8-2-11" d="m75.46 16.42 0.769 1.871s0.3223 0.6192 0.5491 0.8595c0.3366 0.3566 0.7942 0.5783 1.165 0.8227 2.765 1.821 3.404 5.165 1.561 8.227 6.74-1.548 8.356 5.6 4.08 9.687-1.181 0.6002-1.557 0.6902-2.562 1.031 0.2036-0.6383 0.5028-1.137 0.6097-1.636 0.533-2.488-1.541-3.62-2.682-1.106-0.2869 0.8046-0.4387 1.601-0.4917 2.388h0.8311l1.115 1.605-1.115 1.603h-0.5737c0.04338 0.2144 0.08718 0.4296 0.1377 0.6421 0.4322 1.819 1.621 3.306 2.572 4.793-1.463-0.1953-2.463-0.3871-3.611-1.342 0.5034 2.663-0.8194 4.86-2.354 6.46-1.534-1.6-2.857-3.797-2.354-6.46-1.147 0.9545-2.147 1.146-3.611 1.342 0.9513-1.486 2.14-2.974 2.572-4.793 0.05052-0.2125 0.09435-0.4278 0.1377-0.6421h-0.5737l-1.115-1.603 1.115-1.605h0.8311c-0.05304-0.7865-0.2049-1.583-0.4917-2.388-1.14-2.515-3.214-1.382-2.682 1.106 0.1069 0.4989 0.4062 0.9978 0.6097 1.636-1.004-0.3404-1.38-0.4303-2.562-1.031-4.278-4.086-2.66-11.23 4.08-9.687-1.843-3.064-1.205-6.407 1.561-8.227 0.3714-0.2446 0.8285-0.4663 1.165-0.8227 0.2268-0.2401 0.5491-0.8595 0.5491-0.8595z" stroke-width=".6462"/>
 <use id="use9" transform="translate(-51.67)" width="100%" height="100%" xlink:href="#path872-3-6-8-2-11"/>
 <use transform="translate(0 38.77)" width="100%" height="100%" xlink:href="#path872-3-6-8-2-11"/>
 <use id="use844" transform="translate(0 38.77)" width="100%" height="100%" xlink:href="#use9"/>
 <use id="use864" transform="translate(25.81 -50.33)" width="100%" height="100%" xlink:href="#use844"/>
 <use transform="translate(0 40.26)" width="100%" height="100%" xlink:href="#use864"/>
</svg>
