<?xml version="1.0" encoding="UTF-8"?>
<svg version="1.1" viewBox="0 0 100 110" xmlns="http://www.w3.org/2000/svg" xmlns:cc="http://creativecommons.org/ns#" xmlns:dc="http://purl.org/dc/elements/1.1/" xmlns:rdf="http://www.w3.org/1999/02/22-rdf-syntax-ns#" xmlns:xlink="http://www.w3.org/1999/xlink">
 <metadata>
  <rdf:RDF>
   <cc:Work rdf:about="">
    <dc:format>image/svg+xml</dc:format>
    <dc:type rdf:resource="http://purl.org/dc/dcmitype/StillImage"/>
    <dc:title/>
   </cc:Work>
  </rdf:RDF>
 </metadata>
 <text x="-52.679455" y="21.611652" fill="#000000" font-family="monospace" font-size="16px" letter-spacing="0px" word-spacing="0px" style="font-feature-settings:normal;font-variant-caps:normal;font-variant-ligatures:normal;font-variant-numeric:normal;line-height:20px" xml:space="preserve"/>
 <text x="-52.414291" y="15.998991" fill="#000000" font-family="monospace" font-size="16px" letter-spacing="0px" word-spacing="0px" style="font-feature-settings:normal;font-variant-caps:normal;font-variant-ligatures:normal;font-variant-numeric:normal;line-height:20px" xml:space="preserve"/>
 <path id="path872-3-6-8-2-11" d="m81.39 10.64 0.6007 1.461s0.2518 0.4837 0.4289 0.6714c0.2629 0.2785 0.6204 0.4517 0.9101 0.6426 2.16 1.422 2.659 4.034 1.219 6.426 5.265-1.209 6.527 4.374 3.187 7.567-0.9227 0.4688-1.217 0.5391-2.001 0.8051 0.159-0.4986 0.3928-0.8884 0.4763-1.278 0.4163-1.943-1.204-2.828-2.095-0.8637-0.2241 0.6285-0.3427 1.25-0.3841 1.865h0.6491l0.8707 1.254-0.8707 1.252h-0.4481c0.03388 0.1674 0.06809 0.3356 0.1076 0.5016 0.3376 1.42 1.266 2.582 2.009 3.743-1.143-0.1525-1.924-0.3024-2.821-1.048 0.3932 2.08-0.6401 3.796-1.838 5.046-1.198-1.25-2.232-2.966-1.838-5.046-0.896 0.7456-1.677 0.8955-2.821 1.048 0.743-1.161 1.671-2.323 2.009-3.743 0.03946-0.166 0.0737-0.3341 0.1076-0.5016h-0.4481l-0.8707-1.252 0.8707-1.254h0.6491c-0.04143-0.6143-0.16-1.237-0.3841-1.865-0.8904-1.964-2.511-1.08-2.095 0.8637 0.08349 0.3897 0.3173 0.7794 0.4763 1.278-0.7844-0.2659-1.078-0.3361-2.001-0.8051-3.342-3.192-2.078-8.773 3.187-7.567-1.44-2.393-0.9414-5.004 1.219-6.426 0.2901-0.1911 0.6471-0.3642 0.9101-0.6426 0.1771-0.1876 0.4289-0.6714 0.4289-0.6714z" stroke-width=".5048"/>
 <use id="use9" transform="translate(-63.52)" width="100%" height="100%" xlink:href="#path872-3-6-8-2-11"/>
 <use id="use842" transform="translate(0 30.29)" width="100%" height="100%" xlink:href="#path872-3-6-8-2-11"/>
 <use id="use844" transform="translate(0 30.29)" width="100%" height="100%" xlink:href="#use9"/>
 <use id="use948" transform="translate(20.88 -14.88)" width="100%" height="100%" xlink:href="#use844"/>
 <use id="use952" transform="translate(-20.88 -14.88)" width="100%" height="100%" xlink:href="#use842"/>
 <use transform="translate(0 29.76)" width="100%" height="100%" xlink:href="#use842"/>
 <use transform="translate(0 29.76)" width="100%" height="100%" xlink:href="#use844"/>
 <use transform="translate(0 29.76)" width="100%" height="100%" xlink:href="#use948"/>
 <use transform="translate(0 29.76)" width="100%" height="100%" xlink:href="#use952"/>
</svg>
