<?xml version="1.0" encoding="UTF-8"?>
<svg version="1.1" viewBox="0 0 100 110" xmlns="http://www.w3.org/2000/svg" xmlns:cc="http://creativecommons.org/ns#" xmlns:dc="http://purl.org/dc/elements/1.1/" xmlns:rdf="http://www.w3.org/1999/02/22-rdf-syntax-ns#" xmlns:xlink="http://www.w3.org/1999/xlink">
 <metadata>
  <rdf:RDF>
   <cc:Work rdf:about="">
    <dc:format>image/svg+xml</dc:format>
    <dc:type rdf:resource="http://purl.org/dc/dcmitype/StillImage"/>
    <dc:title/>
   </cc:Work>
  </rdf:RDF>
 </metadata>
 <text x="-52.679455" y="21.611652" fill="#000000" font-family="monospace" font-size="16px" letter-spacing="0px" word-spacing="0px" style="font-feature-settings:normal;font-variant-caps:normal;font-variant-ligatures:normal;font-variant-numeric:normal;line-height:20px" xml:space="preserve"/>
 <text x="-52.414291" y="15.998991" fill="#000000" font-family="monospace" font-size="16px" letter-spacing="0px" word-spacing="0px" style="font-feature-settings:normal;font-variant-caps:normal;font-variant-ligatures:normal;font-variant-numeric:normal;line-height:20px" xml:space="preserve"/>
 <path id="path872-3-6-8-2-11" d="m68.17 62.75 0.4238 1.031s0.1776 0.3413 0.3026 0.4737c0.1855 0.1965 0.4377 0.3187 0.6421 0.4534 1.524 1.004 1.876 2.846 0.8601 4.534 3.715-0.8533 4.605 3.086 2.248 5.339-0.651 0.3308-0.8583 0.3804-1.412 0.5681 0.1122-0.3518 0.2771-0.6268 0.336-0.9018 0.2937-1.371-0.8494-1.995-1.478-0.6094-0.1581 0.4434-0.2418 0.8822-0.271 1.316h0.458l0.6144 0.8847-0.6144 0.8836h-0.3162c0.02391 0.1181 0.04804 0.2368 0.07589 0.3539 0.2382 1.002 0.8932 1.822 1.417 2.641-0.8063-0.1076-1.358-0.2133-1.99-0.7394 0.2774 1.467-0.4516 2.678-1.297 3.56-0.8455-0.8818-1.575-2.092-1.297-3.56-0.6322 0.526-1.183 0.6318-1.99 0.7394 0.5242-0.8191 1.179-1.639 1.417-2.641 0.02784-0.1171 0.05199-0.2357 0.07589-0.3539h-0.3161l-0.6144-0.8836 0.6144-0.8847h0.458c-0.02923-0.4334-0.1129-0.8726-0.271-1.316-0.6282-1.386-1.771-0.7618-1.478 0.6094 0.0589 0.2749 0.2238 0.5499 0.336 0.9018-0.5534-0.1876-0.7607-0.2371-1.412-0.5681-2.358-2.252-1.466-6.19 2.248-5.339-1.016-1.688-0.6642-3.531 0.8601-4.534 0.2047-0.1348 0.4566-0.257 0.6421-0.4534 0.125-0.1323 0.3026-0.4737 0.3026-0.4737z" stroke-width=".3561"/>
 <use id="use9" transform="translate(-34.86 -36.13)" width="100%" height="100%" xlink:href="#path872-3-6-8-2-11"/>
 <use id="use878" transform="translate(-18.17 -23.29)" width="100%" height="100%" xlink:href="#use9"/>
 <use id="use932" transform="translate(16.89 21.7)" width="100%" height="100%" xlink:href="#use9"/>
 <use id="use1032" transform="translate(22.59 -42.17)" width="100%" height="100%" xlink:href="#path872-3-6-8-2-11"/>
 <use transform="translate(30.84 -4.487)" width="100%" height="100%" xlink:href="#use9"/>
 <use transform="translate(29.57 .6482)" width="100%" height="100%" xlink:href="#use878"/>
 <use transform="translate(36.69 32.02)" width="100%" height="100%" xlink:href="#use932"/>
 <use transform="translate(.1496 27.63)" width="100%" height="100%" xlink:href="#use1032"/>
 <use transform="translate(-14.16 -18.56)" width="100%" height="100%" xlink:href="#use1032"/>
</svg>
