<?xml version="1.0" encoding="UTF-8" standalone="no"?>
<svg
   xmlns:dc="http://purl.org/dc/elements/1.1/"
   xmlns:cc="http://creativecommons.org/ns#"
   xmlns:rdf="http://www.w3.org/1999/02/22-rdf-syntax-ns#"
   xmlns:svg="http://www.w3.org/2000/svg"
   xmlns="http://www.w3.org/2000/svg"
   xmlns:sodipodi="http://sodipodi.sourceforge.net/DTD/sodipodi-0.dtd"
   xmlns:inkscape="http://www.inkscape.org/namespaces/inkscape"
   viewBox="0 0 100 110"
   version="1.1"
   id="svg36"
   sodipodi:docname="of_two.svg"
   inkscape:version="1.0 (4035a4fb49, 2020-05-01)">
  <metadata
     id="metadata42">
    <rdf:RDF>
      <cc:Work
         rdf:about="">
        <dc:format>image/svg+xml</dc:format>
        <dc:type
           rdf:resource="http://purl.org/dc/dcmitype/StillImage" />
        <dc:title></dc:title>
      </cc:Work>
    </rdf:RDF>
  </metadata>
  <defs
     id="defs40">
    <inkscape:path-effect
       effect="mirror_symmetry"
       start_point="-1068.7578,-662.79688"
       end_point="-1068.7578,-592.88867"
       center_point="-1068.7578,-627.84278"
       id="path-effect1071"
       is_visible="true"
       lpeversion="1"
       mode="free"
       discard_orig_path="false"
       fuse_paths="false"
       oposite_fuse="false"
       split_items="false" />
    <inkscape:path-effect
       split_items="false"
       oposite_fuse="false"
       fuse_paths="false"
       discard_orig_path="false"
       mode="free"
       lpeversion="1"
       is_visible="true"
       id="path-effect1069"
       center_point="-1068.7578,-627.84278"
       end_point="-1068.7578,-592.88867"
       start_point="-1068.7578,-662.79688"
       effect="mirror_symmetry" />
    <inkscape:path-effect
       effect="mirror_symmetry"
       start_point="-1068.7578,-662.79688"
       end_point="-1068.7578,-592.88867"
       center_point="-1068.7578,-627.84278"
       id="path-effect1045"
       is_visible="true"
       lpeversion="1"
       mode="free"
       discard_orig_path="false"
       fuse_paths="false"
       oposite_fuse="false"
       split_items="false" />
    <inkscape:path-effect
       split_items="false"
       oposite_fuse="false"
       fuse_paths="false"
       discard_orig_path="false"
       mode="free"
       lpeversion="1"
       is_visible="true"
       id="path-effect1043"
       center_point="-1068.7578,-627.84278"
       end_point="-1068.7578,-592.88867"
       start_point="-1068.7578,-662.79688"
       effect="mirror_symmetry" />
    <inkscape:path-effect
       effect="mirror_symmetry"
       start_point="-1068.7578,-662.79688"
       end_point="-1068.7578,-592.88867"
       center_point="-1068.7578,-627.84278"
       id="path-effect1041"
       is_visible="true"
       lpeversion="1"
       mode="free"
       discard_orig_path="false"
       fuse_paths="false"
       oposite_fuse="false"
       split_items="false" />
    <inkscape:path-effect
       effect="mirror_symmetry"
       start_point="-1068.7578,-662.79688"
       end_point="-1068.7578,-592.88867"
       center_point="-1068.7578,-627.84278"
       id="path-effect1012"
       is_visible="true"
       lpeversion="1"
       mode="free"
       discard_orig_path="false"
       fuse_paths="false"
       oposite_fuse="false"
       split_items="false" />
    <inkscape:path-effect
       split_items="false"
       oposite_fuse="false"
       fuse_paths="false"
       discard_orig_path="false"
       mode="free"
       lpeversion="1"
       is_visible="true"
       id="path-effect1010"
       center_point="-1068.7578,-627.84278"
       end_point="-1068.7578,-592.88867"
       start_point="-1068.7578,-662.79688"
       effect="mirror_symmetry" />
    <inkscape:path-effect
       effect="mirror_symmetry"
       start_point="-1068.7578,-662.79688"
       end_point="-1068.7578,-592.88867"
       center_point="-1068.7578,-627.84278"
       id="path-effect974"
       is_visible="true"
       lpeversion="1"
       mode="free"
       discard_orig_path="false"
       fuse_paths="false"
       oposite_fuse="false"
       split_items="false" />
    <inkscape:path-effect
       effect="mirror_symmetry"
       start_point="-1068.7578,-662.79688"
       end_point="-1068.7578,-592.88867"
       center_point="-1068.7578,-627.84278"
       id="path-effect945"
       is_visible="true"
       lpeversion="1"
       mode="free"
       discard_orig_path="false"
       fuse_paths="false"
       oposite_fuse="false"
       split_items="false" />
    <inkscape:path-effect
       split_items="false"
       oposite_fuse="false"
       fuse_paths="false"
       discard_orig_path="false"
       mode="free"
       lpeversion="1"
       is_visible="true"
       id="path-effect916"
       center_point="-1068.7578,-627.84278"
       end_point="-1068.7578,-592.88867"
       start_point="-1068.7578,-662.79688"
       effect="mirror_symmetry" />
    <inkscape:path-effect
       effect="bspline"
       id="path-effect1050"
       is_visible="true"
       lpeversion="1"
       weight="33.333333"
       steps="2"
       helper_size="0"
       apply_no_weight="true"
       apply_with_weight="true"
       only_selected="false" />
    <inkscape:path-effect
       only_selected="false"
       apply_with_weight="true"
       apply_no_weight="true"
       helper_size="0"
       steps="2"
       weight="33.333333"
       lpeversion="1"
       is_visible="true"
       id="path-effect1030"
       effect="bspline" />
    <inkscape:path-effect
       only_selected="false"
       apply_with_weight="true"
       apply_no_weight="true"
       helper_size="0"
       steps="2"
       weight="33.333333"
       lpeversion="1"
       is_visible="true"
       id="path-effect1001"
       effect="bspline" />
    <inkscape:path-effect
       effect="bspline"
       id="path-effect999"
       is_visible="true"
       lpeversion="1"
       weight="33.333333"
       steps="2"
       helper_size="0"
       apply_no_weight="true"
       apply_with_weight="true"
       only_selected="false" />
    <inkscape:path-effect
       only_selected="false"
       apply_with_weight="true"
       apply_no_weight="true"
       helper_size="0"
       steps="2"
       weight="33.333333"
       lpeversion="1"
       is_visible="true"
       id="path-effect975"
       effect="bspline" />
    <inkscape:path-effect
       effect="bspline"
       id="path-effect956"
       is_visible="true"
       lpeversion="1"
       weight="33.333333"
       steps="2"
       helper_size="0"
       apply_no_weight="true"
       apply_with_weight="true"
       only_selected="false" />
    <clipPath
       id="ordi2-0">
      <circle
         cx="204.90433"
         cy="21.921255"
         r="3.75"
         id="circle19-4" />
      <circle
         cx="204.90433"
         cy="81.921257"
         r="3.75"
         id="circle21-8" />
      <circle
         cx="174.90433"
         cy="51.921257"
         r="3.75"
         id="circle23-8" />
      <circle
         cx="234.90433"
         cy="51.921257"
         r="3.75"
         id="circle25-8" />
    </clipPath>
  </defs>
  <sodipodi:namedview
     pagecolor="#ffffff"
     bordercolor="#666666"
     borderopacity="1"
     objecttolerance="10"
     gridtolerance="10"
     guidetolerance="10"
     inkscape:pageopacity="0"
     inkscape:pageshadow="2"
     inkscape:window-width="1920"
     inkscape:window-height="1020"
     id="namedview38"
     showgrid="false"
     inkscape:zoom="2.8284271"
     inkscape:cx="-5.6222207"
     inkscape:cy="33.732164"
     inkscape:window-x="0"
     inkscape:window-y="0"
     inkscape:window-maximized="1"
     inkscape:current-layer="svg36"
     showguides="true"
     inkscape:guide-bbox="true"
     inkscape:document-rotation="0"
     inkscape:snap-bbox="true"
     inkscape:bbox-paths="true"
     inkscape:bbox-nodes="true"
     inkscape:snap-bbox-edge-midpoints="true"
     inkscape:snap-bbox-midpoints="true" />
  <clipPath
     id="escu">
    <rect
       width="100"
       height="120"
       id="rect2" />
  </clipPath>
  <text
     xml:space="preserve"
     style="font-style:normal;font-weight:normal;font-size:40px;line-height:1.25;font-family:sans-serif;fill:#000000;fill-opacity:1;stroke:none"
     x="-66.600601"
     y="42.176289"
     id="text934"><tspan
       sodipodi:role="line"
       id="tspan932"
       x="-66.600601"
       y="42.176289" /></text>
  <text
     xml:space="preserve"
     style="font-style:normal;font-weight:normal;font-size:40px;line-height:1.25;font-family:sans-serif;fill:#000000;fill-opacity:1;stroke:none"
     x="-201.93855"
     y="0.78777015"
     id="text944"><tspan
       sodipodi:role="line"
       id="tspan942"
       x="-201.93855"
       y="0.78777015" /></text>
  <text
     xml:space="preserve"
     style="font-style:normal;font-weight:normal;font-size:40px;line-height:1.25;font-family:sans-serif;fill:#000000;fill-opacity:1;stroke:none"
     x="-159.68279"
     y="-76.685295"
     id="text948"><tspan
       sodipodi:role="line"
       id="tspan946"
       x="-159.68279"
       y="-76.685295" /></text>
  <path
     d="m 50.000004,50.432756 0.921244,2.241704 c 0,0 0.386313,0.742057 0.658037,1.029848 0.403432,0.427322 0.951505,0.69298 1.396604,0.986071 3.314217,2.182576 4.079071,6.189339 1.869992,9.860734 8.076347,-1.855387 10.015684,6.710643 4.889104,11.607097 -1.415854,0.719294 -1.866696,0.826989 -3.070171,1.234893 0.243956,-0.764949 0.602622,-1.362728 0.73071,-1.960625 0.63874,-2.981591 -1.847091,-4.338283 -3.213564,-1.324749 -0.343822,0.963923 -0.525736,1.91858 -0.589287,2.861454 h 0.995898 l 1.335706,1.923763 -1.335706,1.921463 h -0.687507 c 0.05199,0.256903 0.1045,0.51487 0.165,0.769504 0.517942,2.179412 1.942343,3.962173 3.081967,5.743643 -1.753481,-0.234037 -2.952402,-0.46393 -4.327321,-1.608127 0.603216,3.191045 -0.982221,5.823439 -2.820703,7.741138 -1.838494,-1.917699 -3.423929,-4.550093 -2.820713,-7.741138 -1.374921,1.144196 -2.573841,1.374102 -4.327318,1.608127 1.139622,-1.78147 2.564023,-3.56423 3.081964,-5.743643 0.06054,-0.25463 0.113036,-0.512607 0.165,-0.769504 h -0.687495 l -1.335719,-1.921463 1.335719,-1.923763 h 0.995887 c -0.06356,-0.942874 -0.24547,-1.897529 -0.589292,-2.861454 -1.366473,-3.013534 -3.852301,-1.656842 -3.213567,1.324749 0.128106,0.597897 0.486755,1.195676 0.730715,1.960625 -1.203481,-0.407904 -1.654323,-0.515599 -3.070175,-1.234893 -5.126574,-4.896454 -3.187245,-13.462484 4.889104,-11.607097 -2.209079,-3.671395 -1.444223,-7.678158 1.869994,-9.860734 0.445097,-0.293091 0.993172,-0.558749 1.396604,-0.986071 0.271722,-0.287791 0.658037,-1.029848 0.658037,-1.029848 z"
     style="opacity:1;fill:#000000;fill-opacity:1;stroke:none;stroke-width:0.568317px;stroke-linecap:butt;stroke-linejoin:miter;stroke-opacity:1"
     id="path872-3-6-8-2-11" />
  <path
     id="path872-3-6-8-2-11-5"
     style="opacity:1;fill:#000000;fill-opacity:1;stroke:none;stroke-width:0.568317px;stroke-linecap:butt;stroke-linejoin:miter;stroke-opacity:1"
     d="m 25.000004,6.4327564 0.921244,2.2417032 c 0,0 0.386313,0.7420578 0.658037,1.0298486 0.403432,0.4273218 0.951505,0.6929798 1.396604,0.9860708 3.314217,2.182576 4.079071,6.189339 1.869992,9.860734 8.076347,-1.855387 10.015684,6.710643 4.889104,11.607097 -1.415854,0.719294 -1.866696,0.826989 -3.070171,1.234893 0.243956,-0.764949 0.602622,-1.362728 0.73071,-1.960625 0.63874,-2.981591 -1.847091,-4.338283 -3.213564,-1.324749 -0.343822,0.963923 -0.525736,1.91858 -0.589287,2.861454 h 0.995898 l 1.335706,1.923763 -1.335706,1.921463 h -0.687507 c 0.05199,0.256903 0.1045,0.51487 0.165,0.769504 0.517942,2.179412 1.942343,3.962173 3.081967,5.743643 -1.753481,-0.234037 -2.952402,-0.46393 -4.327321,-1.608127 0.603216,3.191045 -0.982221,5.823439 -2.820703,7.741138 -1.838494,-1.917699 -3.423929,-4.550093 -2.820713,-7.741138 -1.374921,1.144196 -2.573841,1.374102 -4.327318,1.608127 1.139622,-1.78147 2.564023,-3.56423 3.081964,-5.743643 0.06054,-0.25463 0.113036,-0.512607 0.165,-0.769504 h -0.687495 l -1.335719,-1.921463 1.335719,-1.923763 h 0.995887 c -0.06356,-0.942874 -0.24547,-1.897529 -0.589292,-2.861454 -1.366473,-3.013534 -3.852301,-1.656842 -3.213567,1.324749 0.128106,0.597897 0.486755,1.195676 0.730715,1.960625 -1.203481,-0.407904 -1.654323,-0.515599 -3.070175,-1.234893 -5.126574,-4.896454 -3.187245,-13.462484 4.889104,-11.607097 -2.209079,-3.671395 -1.444223,-7.678158 1.869994,-9.860734 0.445097,-0.293091 0.993172,-0.558749 1.396604,-0.9860708 0.271722,-0.2877908 0.658037,-1.0298486 0.658037,-1.0298486 z" />
  <path
     d="m 75.000004,6.4327564 0.921244,2.2417032 c 0,0 0.386313,0.7420578 0.658037,1.0298486 0.403432,0.4273218 0.951505,0.6929798 1.396604,0.9860708 3.314217,2.182576 4.079071,6.189339 1.869992,9.860734 8.076347,-1.855387 10.015684,6.710643 4.889104,11.607097 -1.415854,0.719294 -1.866696,0.826989 -3.070171,1.234893 0.243956,-0.764949 0.602622,-1.362728 0.73071,-1.960625 0.63874,-2.981591 -1.847091,-4.338283 -3.213564,-1.324749 -0.343822,0.963923 -0.525736,1.91858 -0.589287,2.861454 h 0.995898 l 1.335706,1.923763 -1.335706,1.921463 h -0.687507 c 0.05199,0.256903 0.1045,0.51487 0.165,0.769504 0.517942,2.179412 1.942343,3.962173 3.081967,5.743643 -1.753481,-0.234037 -2.952402,-0.46393 -4.327321,-1.608127 0.603216,3.191045 -0.982221,5.823439 -2.820703,7.741138 -1.838494,-1.917699 -3.423929,-4.550093 -2.820713,-7.741138 -1.374921,1.144196 -2.573841,1.374102 -4.327318,1.608127 1.139622,-1.78147 2.564023,-3.56423 3.081964,-5.743643 0.06054,-0.25463 0.113036,-0.512607 0.165,-0.769504 h -0.687495 l -1.335719,-1.921463 1.335719,-1.923763 h 0.995887 c -0.06356,-0.942874 -0.24547,-1.897529 -0.589292,-2.861454 -1.366473,-3.013534 -3.852301,-1.656842 -3.213567,1.324749 0.128106,0.597897 0.486755,1.195676 0.730715,1.960625 -1.203481,-0.407904 -1.654323,-0.515599 -3.070175,-1.234893 -5.126574,-4.896454 -3.187245,-13.462484 4.889104,-11.607097 -2.209079,-3.671395 -1.444223,-7.678158 1.869994,-9.860734 0.445097,-0.293091 0.993172,-0.558749 1.396604,-0.9860708 0.271722,-0.2877908 0.658037,-1.0298486 0.658037,-1.0298486 z"
     style="opacity:1;fill:#000000;fill-opacity:1;stroke:none;stroke-width:0.568317px;stroke-linecap:butt;stroke-linejoin:miter;stroke-opacity:1"
     id="path872-3-6-8-2-11-5-9" />
</svg>
