<?xml version="1.0" encoding="UTF-8" standalone="no"?>
<svg
   xmlns:dc="http://purl.org/dc/elements/1.1/"
   xmlns:cc="http://creativecommons.org/ns#"
   xmlns:rdf="http://www.w3.org/1999/02/22-rdf-syntax-ns#"
   xmlns:svg="http://www.w3.org/2000/svg"
   xmlns="http://www.w3.org/2000/svg"
   xmlns:sodipodi="http://sodipodi.sourceforge.net/DTD/sodipodi-0.dtd"
   xmlns:inkscape="http://www.inkscape.org/namespaces/inkscape"
   viewBox="0 0 100 110"
   version="1.1"
   id="svg17"
   sodipodi:docname="semy.svg"
   inkscape:version="0.92.4 (5da689c313, 2019-01-14)">
  <metadata
     id="metadata23">
    <rdf:RDF>
      <cc:Work
         rdf:about="">
        <dc:format>image/svg+xml</dc:format>
        <dc:type
           rdf:resource="http://purl.org/dc/dcmitype/StillImage" />
        <dc:title></dc:title>
      </cc:Work>
    </rdf:RDF>
  </metadata>
  <defs
     id="defs21" />
  <sodipodi:namedview
     pagecolor="#ffffff"
     bordercolor="#666666"
     borderopacity="1"
     objecttolerance="10"
     gridtolerance="10"
     guidetolerance="10"
     inkscape:pageopacity="0"
     inkscape:pageshadow="2"
     inkscape:window-width="1920"
     inkscape:window-height="1020"
     id="namedview19"
     showgrid="false"
     inkscape:zoom="4.2909091"
     inkscape:cx="0.24019363"
     inkscape:cy="80.58297"
     inkscape:window-x="0"
     inkscape:window-y="0"
     inkscape:window-maximized="1"
     inkscape:current-layer="svg17"
     showguides="true"
     inkscape:guide-bbox="true" />
  <clipPath
     id="escu">
    <rect
       width="100"
       height="120"
       id="rect2" />
  </clipPath>
  <path
     d="m 17,29.5 v 7.2 H 9.8 v 7.2 H 17 v 7.2 h 7.2 v -7.2 h 7.2 v -7.2 h -7.2 v -7.2 z"
     id="rect6-8-2"
     inkscape:connector-curvature="0"
     style="stroke-width:0.36000001" />
  <path
     d="m 75.8,29.5 v 7.2 h -7.2 v 7.2 h 7.2 v 7.2 H 83 v -7.2 h 7.2 V 36.7 H 83 v -7.2 z"
     id="rect6-8-2-2"
     inkscape:connector-curvature="0"
     style="stroke-width:0.36000001" />
  <path
     d="m 46.4,29.5 v 7.2 h -7.2 v 7.2 h 7.2 v 7.2 h 7.2 v -7.2 h 7.2 v -7.2 h -7.2 v -7.2 z"
     id="rect6-8-2-2-5"
     inkscape:connector-curvature="0"
     style="stroke-width:0.36000001" />
  <path
     d="M 19,74.5 V 67.3 H 11.8 V 60.1 H 19 v -7.2 h 7.2 v 7.2 h 7.2 v 7.2 h -7.2 v 7.2 z"
     id="rect6-8-2-04"
     inkscape:connector-curvature="0"
     style="stroke-width:0.36000001" />
  <path
     d="m 73.8,74.5 v -7.2 h -7.2 v -7.2 h 7.2 V 52.9 H 81 v 7.2 h 7.2 v 7.2 H 81 v 7.2 z"
     id="rect6-8-2-2-1"
     inkscape:connector-curvature="0"
     style="stroke-width:0.36000001" />
  <path
     d="m 46.4,74.5 v -7.2 h -7.2 v -7.2 h 7.2 v -7.2 h 7.2 v 7.2 h 7.2 v 7.2 h -7.2 v 7.2 z"
     id="rect6-8-2-2-5-1"
     inkscape:connector-curvature="0"
     style="stroke-width:0.36000001" />
  <path
     d="m 33.8,97.9 v -7.2 h -7.2 v -7.2 h 7.2 V 76.3 H 41 v 7.2 h 7.2 v 7.2 H 41 v 7.2 z"
     id="rect6-8-2-0-3"
     inkscape:connector-curvature="0"
     style="stroke-width:0.36000001" />
  <path
     d="M 59,97.9 V 90.7 H 51.8 V 83.5 H 59 v -7.2 h 7.2 v 7.2 h 7.2 v 7.2 h -7.2 v 7.2 z"
     id="rect6-8-2-2-8-5"
     inkscape:connector-curvature="0"
     style="stroke-width:0.36000001" />
  <path
     d="m 15,5.5 v 7.2 H 7.8 v 7.2 H 15 v 7.2 h 7.2 v -7.2 h 7.2 V 12.7 H 22.2 V 5.5 Z"
     id="rect6-8-2-9"
     inkscape:connector-curvature="0"
     style="stroke-width:0.36000001" />
  <path
     d="m 77.8,5.5 v 7.2 h -7.2 v 7.2 h 7.2 v 7.2 H 85 v -7.2 h 7.2 V 12.7 H 85 V 5.5 Z"
     id="rect6-8-2-2-3"
     inkscape:connector-curvature="0"
     style="stroke-width:0.36000001" />
  <path
     d="m 46.4,5.5 v 7.2 h -7.2 v 7.2 h 7.2 v 7.2 h 7.2 v -7.2 h 7.2 V 12.7 H 53.6 V 5.5 Z"
     id="rect6-8-2-2-5-4"
     inkscape:connector-curvature="0"
     style="stroke-width:0.36000001" />
</svg>
