<?xml version="1.0" encoding="UTF-8" standalone="no"?>
<svg
   xmlns:dc="http://purl.org/dc/elements/1.1/"
   xmlns:cc="http://creativecommons.org/ns#"
   xmlns:rdf="http://www.w3.org/1999/02/22-rdf-syntax-ns#"
   xmlns:svg="http://www.w3.org/2000/svg"
   xmlns="http://www.w3.org/2000/svg"
   xmlns:sodipodi="http://sodipodi.sourceforge.net/DTD/sodipodi-0.dtd"
   xmlns:inkscape="http://www.inkscape.org/namespaces/inkscape"
   viewBox="0 0 100 110"
   version="1.1"
   id="svg17"
   sodipodi:docname="seven.svg"
   inkscape:version="0.92.4 (5da689c313, 2019-01-14)">
  <metadata
     id="metadata23">
    <rdf:RDF>
      <cc:Work
         rdf:about="">
        <dc:format>image/svg+xml</dc:format>
        <dc:type
           rdf:resource="http://purl.org/dc/dcmitype/StillImage" />
        <dc:title></dc:title>
      </cc:Work>
    </rdf:RDF>
  </metadata>
  <defs
     id="defs21" />
  <sodipodi:namedview
     pagecolor="#ffffff"
     bordercolor="#666666"
     borderopacity="1"
     objecttolerance="10"
     gridtolerance="10"
     guidetolerance="10"
     inkscape:pageopacity="0"
     inkscape:pageshadow="2"
     inkscape:window-width="1920"
     inkscape:window-height="1020"
     id="namedview19"
     showgrid="false"
     inkscape:zoom="4.2909091"
     inkscape:cx="10.781728"
     inkscape:cy="73.73015"
     inkscape:window-x="0"
     inkscape:window-y="0"
     inkscape:window-maximized="1"
     inkscape:current-layer="svg17"
     showguides="true"
     inkscape:guide-bbox="true">
    <sodipodi:guide
       position="50.105932,90.190678"
       orientation="1,0"
       id="guide816"
       inkscape:locked="false" />
  </sodipodi:namedview>
  <clipPath
     id="escu">
    <rect
       width="100"
       height="120"
       id="rect2" />
  </clipPath>
  <path
     d="m 20,21 v 8 h -8 v 8 h 8 v 8 h 8 v -8 h 8 v -8 h -8 v -8 z"
     id="rect6-8-2"
     inkscape:connector-curvature="0"
     style="stroke-width:0.40000001" />
  <path
     d="m 46,1 v 8 h -8 v 8 h 8 v 8 h 8 v -8 h 8 V 9 H 54 V 1 Z"
     id="rect6-8-2-9"
     inkscape:connector-curvature="0"
     style="stroke-width:0.40000001" />
  <path
     d="m 72,21 v 8 h -8 v 8 h 8 v 8 h 8 v -8 h 8 v -8 h -8 v -8 z"
     id="rect6-8-2-2"
     inkscape:connector-curvature="0"
     style="stroke-width:0.40000001" />
  <path
     d="m 20,49 v 8 h -8 v 8 h 8 v 8 h 8 v -8 h 8 v -8 h -8 v -8 z"
     id="rect6-8-2-4"
     inkscape:connector-curvature="0"
     style="stroke-width:0.40000001" />
  <path
     d="m 46,69 v 8 h -8 v 8 h 8 v 8 h 8 v -8 h 8 v -8 h -8 v -8 z"
     id="rect6-8-2-9-7"
     inkscape:connector-curvature="0"
     style="stroke-width:0.40000001" />
  <path
     d="m 72,49 v 8 h -8 v 8 h 8 v 8 h 8 v -8 h 8 v -8 h -8 v -8 z"
     id="rect6-8-2-2-6"
     inkscape:connector-curvature="0"
     style="stroke-width:0.40000001" />
  <path
     d="m 46,35 v 8 h -8 v 8 h 8 v 8 h 8 v -8 h 8 v -8 h -8 v -8 z"
     id="rect6-8-2-9-7-7"
     inkscape:connector-curvature="0"
     style="stroke-width:0.40000001" />
</svg>
