<?xml version="1.0" encoding="UTF-8" standalone="no"?>
<svg
   xmlns:dc="http://purl.org/dc/elements/1.1/"
   xmlns:cc="http://creativecommons.org/ns#"
   xmlns:rdf="http://www.w3.org/1999/02/22-rdf-syntax-ns#"
   xmlns:svg="http://www.w3.org/2000/svg"
   xmlns="http://www.w3.org/2000/svg"
   xmlns:sodipodi="http://sodipodi.sourceforge.net/DTD/sodipodi-0.dtd"
   xmlns:inkscape="http://www.inkscape.org/namespaces/inkscape"
   viewBox="0 0 100 110"
   version="1.1"
   id="svg17"
   sodipodi:docname="ten.svg"
   inkscape:version="0.92.4 (5da689c313, 2019-01-14)">
  <metadata
     id="metadata23">
    <rdf:RDF>
      <cc:Work
         rdf:about="">
        <dc:format>image/svg+xml</dc:format>
        <dc:type
           rdf:resource="http://purl.org/dc/dcmitype/StillImage" />
        <dc:title></dc:title>
      </cc:Work>
    </rdf:RDF>
  </metadata>
  <defs
     id="defs21" />
  <sodipodi:namedview
     pagecolor="#ffffff"
     bordercolor="#666666"
     borderopacity="1"
     objecttolerance="10"
     gridtolerance="10"
     guidetolerance="10"
     inkscape:pageopacity="0"
     inkscape:pageshadow="2"
     inkscape:window-width="1920"
     inkscape:window-height="1020"
     id="namedview19"
     showgrid="false"
     inkscape:zoom="4.2909091"
     inkscape:cx="0.24019363"
     inkscape:cy="80.58297"
     inkscape:window-x="0"
     inkscape:window-y="0"
     inkscape:window-maximized="1"
     inkscape:current-layer="svg17"
     showguides="true"
     inkscape:guide-bbox="true">
    <sodipodi:guide
       position="50.105932,90.190678"
       orientation="1,0"
       id="guide816"
       inkscape:locked="false" />
  </sodipodi:namedview>
  <clipPath
     id="escu">
    <rect
       width="100"
       height="120"
       id="rect2" />
  </clipPath>
  <path
     d="m 21,27.5 v 7.2 h -7.2 v 7.2 H 21 v 7.2 h 7.2 v -7.2 h 7.2 v -7.2 h -7.2 v -7.2 z"
     id="rect6-8-2"
     inkscape:connector-curvature="0"
     style="stroke-width:0.36000001" />
  <path
     d="m 71.8,27.5 v 7.2 h -7.2 v 7.2 h 7.2 v 7.2 H 79 v -7.2 h 7.2 V 34.7 H 79 v -7.2 z"
     id="rect6-8-2-2"
     inkscape:connector-curvature="0"
     style="stroke-width:0.36000001" />
  <path
     d="m 46.4,27.5 v 7.2 h -7.2 v 7.2 h 7.2 v 7.2 h 7.2 v -7.2 h 7.2 v -7.2 h -7.2 v -7.2 z"
     id="rect6-8-2-2-5"
     inkscape:connector-curvature="0"
     style="stroke-width:0.36000001" />
  <path
     d="m 33.8,4.1 v 7.2 h -7.2 v 7.2 h 7.2 v 7.2 H 41 v -7.2 h 7.2 V 11.3 H 41 V 4.1 Z"
     id="rect6-8-2-0"
     inkscape:connector-curvature="0"
     style="stroke-width:0.36000001" />
  <path
     d="m 59,4.1 v 7.2 h -7.2 v 7.2 H 59 v 7.2 h 7.2 v -7.2 h 7.2 V 11.3 H 66.2 V 4.1 Z"
     id="rect6-8-2-2-8"
     inkscape:connector-curvature="0"
     style="stroke-width:0.36000001" />
  <path
     d="M 21,72.5 V 65.3 H 13.8 V 58.1 H 21 v -7.2 h 7.2 v 7.2 h 7.2 v 7.2 h -7.2 v 7.2 z"
     id="rect6-8-2-04"
     inkscape:connector-curvature="0"
     style="stroke-width:0.36000001" />
  <path
     d="m 71.8,72.5 v -7.2 h -7.2 v -7.2 h 7.2 V 50.9 H 79 v 7.2 h 7.2 v 7.2 H 79 v 7.2 z"
     id="rect6-8-2-2-1"
     inkscape:connector-curvature="0"
     style="stroke-width:0.36000001" />
  <path
     d="m 46.4,72.5 v -7.2 h -7.2 v -7.2 h 7.2 v -7.2 h 7.2 v 7.2 h 7.2 v 7.2 h -7.2 v 7.2 z"
     id="rect6-8-2-2-5-1"
     inkscape:connector-curvature="0"
     style="stroke-width:0.36000001" />
  <path
     d="m 33.8,95.9 v -7.2 h -7.2 v -7.2 h 7.2 V 74.3 H 41 v 7.2 h 7.2 v 7.2 H 41 v 7.2 z"
     id="rect6-8-2-0-3"
     inkscape:connector-curvature="0"
     style="stroke-width:0.36000001" />
  <path
     d="M 59,95.9 V 88.7 H 51.8 V 81.5 H 59 v -7.2 h 7.2 v 7.2 h 7.2 v 7.2 h -7.2 v 7.2 z"
     id="rect6-8-2-2-8-5"
     inkscape:connector-curvature="0"
     style="stroke-width:0.36000001" />
</svg>
