<?xml version="1.0" encoding="UTF-8" standalone="no"?>
<svg
   xmlns:dc="http://purl.org/dc/elements/1.1/"
   xmlns:cc="http://creativecommons.org/ns#"
   xmlns:rdf="http://www.w3.org/1999/02/22-rdf-syntax-ns#"
   xmlns:svg="http://www.w3.org/2000/svg"
   xmlns="http://www.w3.org/2000/svg"
   xmlns:sodipodi="http://sodipodi.sourceforge.net/DTD/sodipodi-0.dtd"
   xmlns:inkscape="http://www.inkscape.org/namespaces/inkscape"
   viewBox="0 0 100 110"
   version="1.1"
   id="svg23"
   sodipodi:docname="heart_nine.svg"
   inkscape:version="0.92.4 (5da689c313, 2019-01-14)">
  <metadata
     id="metadata29">
    <rdf:RDF>
      <cc:Work
         rdf:about="">
        <dc:format>image/svg+xml</dc:format>
        <dc:type
           rdf:resource="http://purl.org/dc/dcmitype/StillImage" />
        <dc:title />
      </cc:Work>
    </rdf:RDF>
  </metadata>
  <defs
     id="defs27" />
  <sodipodi:namedview
     pagecolor="#ffffff"
     bordercolor="#666666"
     borderopacity="1"
     objecttolerance="10"
     gridtolerance="10"
     guidetolerance="10"
     inkscape:pageopacity="0"
     inkscape:pageshadow="2"
     inkscape:window-width="1920"
     inkscape:window-height="1020"
     id="namedview25"
     showgrid="false"
     inkscape:zoom="4"
     inkscape:cx="-36.687262"
     inkscape:cy="67.01421"
     inkscape:window-x="0"
     inkscape:window-y="0"
     inkscape:window-maximized="1"
     inkscape:current-layer="svg23"
     showguides="true"
     inkscape:guide-bbox="true" />
  <g
     aria-label="♥"
     style="font-style:normal;font-variant:normal;font-weight:normal;font-stretch:normal;font-size:16px;line-height:1;font-family:sans-serif;-inkscape-font-specification:'sans-serif, Normal';font-variant-ligatures:normal;font-variant-position:normal;font-variant-caps:normal;font-variant-numeric:normal;font-variant-alternates:normal;text-indent:0;text-align:center;text-decoration:none;text-decoration-line:none;text-decoration-style:solid;text-decoration-color:#000000;letter-spacing:0px;word-spacing:0px;text-transform:none;writing-mode:lr-tb;direction:ltr;text-orientation:mixed;dominant-baseline:auto;baseline-shift:baseline;text-anchor:middle;white-space:normal;shape-padding:0;opacity:1;vector-effect:none;fill:#000000;fill-opacity:1;stroke:none;stroke-width:3.98128653;stroke-linecap:butt;stroke-linejoin:miter;stroke-miterlimit:4;stroke-dasharray:none;stroke-dashoffset:0;stroke-opacity:1"
     id="text1423-3"
     transform="matrix(0.20094006,0,0,0.20094006,99.44012,51.987991)">
    <path
       d="m -272.15187,-80.156249 q 15.87206,0 24.94185,18.374146 3.28394,7.271464 3.44026,11.102673 h 0.23459 q 2.7366,-12.66643 9.92988,-21.032533 8.44429,-8.444286 18.99967,-8.444286 16.34123,0 26.19285,17.514075 2.50201,6.489595 2.50201,12.197302 0,19.546959 -16.26307,37.295603 l -41.36134,49.649271 h -0.46908 l -43.94161,-53.871414 q -13.13556,-16.028511 -13.13556,-33.07346 0,-16.497628 15.55941,-26.19292 6.56777,-3.518457 13.37014,-3.518457 z"
       style="stroke:none;stroke-width:3.98128653;stroke-opacity:1"
       id="path1425-8"
       inkscape:connector-curvature="0" />
  </g>
  <g
     aria-label="♥"
     style="font-style:normal;font-variant:normal;font-weight:normal;font-stretch:normal;font-size:16px;line-height:1;font-family:sans-serif;-inkscape-font-specification:'sans-serif, Normal';font-variant-ligatures:normal;font-variant-position:normal;font-variant-caps:normal;font-variant-numeric:normal;font-variant-alternates:normal;text-indent:0;text-align:center;text-decoration:none;text-decoration-line:none;text-decoration-style:solid;text-decoration-color:#000000;letter-spacing:0px;word-spacing:0px;text-transform:none;writing-mode:lr-tb;direction:ltr;text-orientation:mixed;dominant-baseline:auto;baseline-shift:baseline;text-anchor:middle;white-space:normal;shape-padding:0;opacity:1;vector-effect:none;fill:#000000;fill-opacity:1;stroke:none;stroke-width:3.98128653;stroke-linecap:butt;stroke-linejoin:miter;stroke-miterlimit:4;stroke-dasharray:none;stroke-dashoffset:0;stroke-opacity:1"
     id="text1423-7-60"
     transform="matrix(0.20094006,0,0,0.20094006,128.01612,51.98799)">
    <path
       d="m -272.15187,-80.156249 q 15.87206,0 24.94185,18.374146 3.28394,7.271464 3.44026,11.102673 h 0.23459 q 2.7366,-12.66643 9.92988,-21.032533 8.44429,-8.444286 18.99967,-8.444286 16.34123,0 26.19285,17.514075 2.50201,6.489595 2.50201,12.197302 0,19.546959 -16.26307,37.295603 l -41.36134,49.649271 h -0.46908 l -43.94161,-53.871414 q -13.13556,-16.028511 -13.13556,-33.07346 0,-16.497628 15.55941,-26.19292 6.56777,-3.518457 13.37014,-3.518457 z"
       style="stroke:none;stroke-width:3.98128653;stroke-opacity:1"
       id="path1425-4-48"
       inkscape:connector-curvature="0" />
  </g>
  <g
     aria-label="♥"
     style="font-style:normal;font-variant:normal;font-weight:normal;font-stretch:normal;font-size:16px;line-height:1;font-family:sans-serif;-inkscape-font-specification:'sans-serif, Normal';font-variant-ligatures:normal;font-variant-position:normal;font-variant-caps:normal;font-variant-numeric:normal;font-variant-alternates:normal;text-indent:0;text-align:center;text-decoration:none;text-decoration-line:none;text-decoration-style:solid;text-decoration-color:#000000;letter-spacing:0px;word-spacing:0px;text-transform:none;writing-mode:lr-tb;direction:ltr;text-orientation:mixed;dominant-baseline:auto;baseline-shift:baseline;text-anchor:middle;white-space:normal;shape-padding:0;opacity:1;vector-effect:none;fill:#000000;fill-opacity:1;stroke:none;stroke-width:3.98128653;stroke-linecap:butt;stroke-linejoin:miter;stroke-miterlimit:4;stroke-dasharray:none;stroke-dashoffset:0;stroke-opacity:1"
     id="text1423-3-8"
     transform="matrix(0.20094006,0,0,0.20094006,69.840123,51.987991)">
    <path
       d="m -272.15187,-80.156249 q 15.87206,0 24.94185,18.374146 3.28394,7.271464 3.44026,11.102673 h 0.23459 q 2.7366,-12.66643 9.92988,-21.032533 8.44429,-8.444286 18.99967,-8.444286 16.34123,0 26.19285,17.514075 2.50201,6.489595 2.50201,12.197302 0,19.546959 -16.26307,37.295603 l -41.36134,49.649271 h -0.46908 l -43.94161,-53.871414 q -13.13556,-16.028511 -13.13556,-33.07346 0,-16.497628 15.55941,-26.19292 6.56777,-3.518457 13.37014,-3.518457 z"
       style="stroke:none;stroke-width:3.98128653;stroke-opacity:1"
       id="path1425-8-8"
       inkscape:connector-curvature="0" />
  </g>
  <g
     aria-label="♥"
     style="font-style:normal;font-variant:normal;font-weight:normal;font-stretch:normal;font-size:16px;line-height:1;font-family:sans-serif;-inkscape-font-specification:'sans-serif, Normal';font-variant-ligatures:normal;font-variant-position:normal;font-variant-caps:normal;font-variant-numeric:normal;font-variant-alternates:normal;text-indent:0;text-align:center;text-decoration:none;text-decoration-line:none;text-decoration-style:solid;text-decoration-color:#000000;letter-spacing:0px;word-spacing:0px;text-transform:none;writing-mode:lr-tb;direction:ltr;text-orientation:mixed;dominant-baseline:auto;baseline-shift:baseline;text-anchor:middle;white-space:normal;shape-padding:0;opacity:1;vector-effect:none;fill:#000000;fill-opacity:1;stroke:none;stroke-width:3.98128653;stroke-linecap:butt;stroke-linejoin:miter;stroke-miterlimit:4;stroke-dasharray:none;stroke-dashoffset:0;stroke-opacity:1"
     id="text1423-3-9"
     transform="matrix(0.20094006,0,0,0.20094006,99.44012,25.587991)">
    <path
       d="m -272.15187,-80.156249 q 15.87206,0 24.94185,18.374146 3.28394,7.271464 3.44026,11.102673 h 0.23459 q 2.7366,-12.66643 9.92988,-21.032533 8.44429,-8.444286 18.99967,-8.444286 16.34123,0 26.19285,17.514075 2.50201,6.489595 2.50201,12.197302 0,19.546959 -16.26307,37.295603 l -41.36134,49.649271 h -0.46908 l -43.94161,-53.871414 q -13.13556,-16.028511 -13.13556,-33.07346 0,-16.497628 15.55941,-26.19292 6.56777,-3.518457 13.37014,-3.518457 z"
       style="stroke:none;stroke-width:3.98128653;stroke-opacity:1"
       id="path1425-8-7"
       inkscape:connector-curvature="0" />
  </g>
  <g
     aria-label="♥"
     style="font-style:normal;font-variant:normal;font-weight:normal;font-stretch:normal;font-size:16px;line-height:1;font-family:sans-serif;-inkscape-font-specification:'sans-serif, Normal';font-variant-ligatures:normal;font-variant-position:normal;font-variant-caps:normal;font-variant-numeric:normal;font-variant-alternates:normal;text-indent:0;text-align:center;text-decoration:none;text-decoration-line:none;text-decoration-style:solid;text-decoration-color:#000000;letter-spacing:0px;word-spacing:0px;text-transform:none;writing-mode:lr-tb;direction:ltr;text-orientation:mixed;dominant-baseline:auto;baseline-shift:baseline;text-anchor:middle;white-space:normal;shape-padding:0;opacity:1;vector-effect:none;fill:#000000;fill-opacity:1;stroke:none;stroke-width:3.98128653;stroke-linecap:butt;stroke-linejoin:miter;stroke-miterlimit:4;stroke-dasharray:none;stroke-dashoffset:0;stroke-opacity:1"
     id="text1423-7-60-7"
     transform="matrix(0.20094006,0,0,0.20094006,128.01612,25.58799)">
    <path
       d="m -272.15187,-80.156249 q 15.87206,0 24.94185,18.374146 3.28394,7.271464 3.44026,11.102673 h 0.23459 q 2.7366,-12.66643 9.92988,-21.032533 8.44429,-8.444286 18.99967,-8.444286 16.34123,0 26.19285,17.514075 2.50201,6.489595 2.50201,12.197302 0,19.546959 -16.26307,37.295603 l -41.36134,49.649271 h -0.46908 l -43.94161,-53.871414 q -13.13556,-16.028511 -13.13556,-33.07346 0,-16.497628 15.55941,-26.19292 6.56777,-3.518457 13.37014,-3.518457 z"
       style="stroke:none;stroke-width:3.98128653;stroke-opacity:1"
       id="path1425-4-48-6"
       inkscape:connector-curvature="0" />
  </g>
  <g
     aria-label="♥"
     style="font-style:normal;font-variant:normal;font-weight:normal;font-stretch:normal;font-size:16px;line-height:1;font-family:sans-serif;-inkscape-font-specification:'sans-serif, Normal';font-variant-ligatures:normal;font-variant-position:normal;font-variant-caps:normal;font-variant-numeric:normal;font-variant-alternates:normal;text-indent:0;text-align:center;text-decoration:none;text-decoration-line:none;text-decoration-style:solid;text-decoration-color:#000000;letter-spacing:0px;word-spacing:0px;text-transform:none;writing-mode:lr-tb;direction:ltr;text-orientation:mixed;dominant-baseline:auto;baseline-shift:baseline;text-anchor:middle;white-space:normal;shape-padding:0;opacity:1;vector-effect:none;fill:#000000;fill-opacity:1;stroke:none;stroke-width:3.98128653;stroke-linecap:butt;stroke-linejoin:miter;stroke-miterlimit:4;stroke-dasharray:none;stroke-dashoffset:0;stroke-opacity:1"
     id="text1423-3-8-4"
     transform="matrix(0.20094006,0,0,0.20094006,69.840123,25.587991)">
    <path
       d="m -272.15187,-80.156249 q 15.87206,0 24.94185,18.374146 3.28394,7.271464 3.44026,11.102673 h 0.23459 q 2.7366,-12.66643 9.92988,-21.032533 8.44429,-8.444286 18.99967,-8.444286 16.34123,0 26.19285,17.514075 2.50201,6.489595 2.50201,12.197302 0,19.546959 -16.26307,37.295603 l -41.36134,49.649271 h -0.46908 l -43.94161,-53.871414 q -13.13556,-16.028511 -13.13556,-33.07346 0,-16.497628 15.55941,-26.19292 6.56777,-3.518457 13.37014,-3.518457 z"
       style="stroke:none;stroke-width:3.98128653;stroke-opacity:1"
       id="path1425-8-8-3"
       inkscape:connector-curvature="0" />
  </g>
  <g
     aria-label="♥"
     style="font-style:normal;font-variant:normal;font-weight:normal;font-stretch:normal;font-size:16px;line-height:1;font-family:sans-serif;-inkscape-font-specification:'sans-serif, Normal';font-variant-ligatures:normal;font-variant-position:normal;font-variant-caps:normal;font-variant-numeric:normal;font-variant-alternates:normal;text-indent:0;text-align:center;text-decoration:none;text-decoration-line:none;text-decoration-style:solid;text-decoration-color:#000000;letter-spacing:0px;word-spacing:0px;text-transform:none;writing-mode:lr-tb;direction:ltr;text-orientation:mixed;dominant-baseline:auto;baseline-shift:baseline;text-anchor:middle;white-space:normal;shape-padding:0;opacity:1;vector-effect:none;fill:#000000;fill-opacity:1;stroke:none;stroke-width:3.98128653;stroke-linecap:butt;stroke-linejoin:miter;stroke-miterlimit:4;stroke-dasharray:none;stroke-dashoffset:0;stroke-opacity:1"
     id="text1423-3-0"
     transform="matrix(0.20094006,0,0,0.20094006,99.44012,78.387991)">
    <path
       d="m -272.15187,-80.156249 q 15.87206,0 24.94185,18.374146 3.28394,7.271464 3.44026,11.102673 h 0.23459 q 2.7366,-12.66643 9.92988,-21.032533 8.44429,-8.444286 18.99967,-8.444286 16.34123,0 26.19285,17.514075 2.50201,6.489595 2.50201,12.197302 0,19.546959 -16.26307,37.295603 l -41.36134,49.649271 h -0.46908 l -43.94161,-53.871414 q -13.13556,-16.028511 -13.13556,-33.07346 0,-16.497628 15.55941,-26.19292 6.56777,-3.518457 13.37014,-3.518457 z"
       style="stroke:none;stroke-width:3.98128653;stroke-opacity:1"
       id="path1425-8-3"
       inkscape:connector-curvature="0" />
  </g>
  <g
     aria-label="♥"
     style="font-style:normal;font-variant:normal;font-weight:normal;font-stretch:normal;font-size:16px;line-height:1;font-family:sans-serif;-inkscape-font-specification:'sans-serif, Normal';font-variant-ligatures:normal;font-variant-position:normal;font-variant-caps:normal;font-variant-numeric:normal;font-variant-alternates:normal;text-indent:0;text-align:center;text-decoration:none;text-decoration-line:none;text-decoration-style:solid;text-decoration-color:#000000;letter-spacing:0px;word-spacing:0px;text-transform:none;writing-mode:lr-tb;direction:ltr;text-orientation:mixed;dominant-baseline:auto;baseline-shift:baseline;text-anchor:middle;white-space:normal;shape-padding:0;opacity:1;vector-effect:none;fill:#000000;fill-opacity:1;stroke:none;stroke-width:3.98128653;stroke-linecap:butt;stroke-linejoin:miter;stroke-miterlimit:4;stroke-dasharray:none;stroke-dashoffset:0;stroke-opacity:1"
     id="text1423-7-60-0"
     transform="matrix(0.20094006,0,0,0.20094006,128.01612,78.38799)">
    <path
       d="m -272.15187,-80.156249 q 15.87206,0 24.94185,18.374146 3.28394,7.271464 3.44026,11.102673 h 0.23459 q 2.7366,-12.66643 9.92988,-21.032533 8.44429,-8.444286 18.99967,-8.444286 16.34123,0 26.19285,17.514075 2.50201,6.489595 2.50201,12.197302 0,19.546959 -16.26307,37.295603 l -41.36134,49.649271 h -0.46908 l -43.94161,-53.871414 q -13.13556,-16.028511 -13.13556,-33.07346 0,-16.497628 15.55941,-26.19292 6.56777,-3.518457 13.37014,-3.518457 z"
       style="stroke:none;stroke-width:3.98128653;stroke-opacity:1"
       id="path1425-4-48-9"
       inkscape:connector-curvature="0" />
  </g>
  <g
     aria-label="♥"
     style="font-style:normal;font-variant:normal;font-weight:normal;font-stretch:normal;font-size:16px;line-height:1;font-family:sans-serif;-inkscape-font-specification:'sans-serif, Normal';font-variant-ligatures:normal;font-variant-position:normal;font-variant-caps:normal;font-variant-numeric:normal;font-variant-alternates:normal;text-indent:0;text-align:center;text-decoration:none;text-decoration-line:none;text-decoration-style:solid;text-decoration-color:#000000;letter-spacing:0px;word-spacing:0px;text-transform:none;writing-mode:lr-tb;direction:ltr;text-orientation:mixed;dominant-baseline:auto;baseline-shift:baseline;text-anchor:middle;white-space:normal;shape-padding:0;opacity:1;vector-effect:none;fill:#000000;fill-opacity:1;stroke:none;stroke-width:3.98128653;stroke-linecap:butt;stroke-linejoin:miter;stroke-miterlimit:4;stroke-dasharray:none;stroke-dashoffset:0;stroke-opacity:1"
     id="text1423-3-8-2"
     transform="matrix(0.20094006,0,0,0.20094006,69.840123,78.387991)">
    <path
       d="m -272.15187,-80.156249 q 15.87206,0 24.94185,18.374146 3.28394,7.271464 3.44026,11.102673 h 0.23459 q 2.7366,-12.66643 9.92988,-21.032533 8.44429,-8.444286 18.99967,-8.444286 16.34123,0 26.19285,17.514075 2.50201,6.489595 2.50201,12.197302 0,19.546959 -16.26307,37.295603 l -41.36134,49.649271 h -0.46908 l -43.94161,-53.871414 q -13.13556,-16.028511 -13.13556,-33.07346 0,-16.497628 15.55941,-26.19292 6.56777,-3.518457 13.37014,-3.518457 z"
       style="stroke:none;stroke-width:3.98128653;stroke-opacity:1"
       id="path1425-8-8-5"
       inkscape:connector-curvature="0" />
  </g>
</svg>
