<?xml version="1.0" encoding="UTF-8"?>
<svg version="1.1" viewBox="0 0 100 110" xmlns="http://www.w3.org/2000/svg" xmlns:cc="http://creativecommons.org/ns#" xmlns:dc="http://purl.org/dc/elements/1.1/" xmlns:rdf="http://www.w3.org/1999/02/22-rdf-syntax-ns#" xmlns:xlink="http://www.w3.org/1999/xlink">
 <metadata>
  <rdf:RDF>
   <cc:Work rdf:about="">
    <dc:format>image/svg+xml</dc:format>
    <dc:type rdf:resource="http://purl.org/dc/dcmitype/StillImage"/>
    <dc:title/>
   </cc:Work>
  </rdf:RDF>
 </metadata>
 <g id="g6" transform="matrix(.1393 0 0 .1393 117.9 100.1)" dominant-baseline="auto" style="font-variant-alternates:normal;font-variant-caps:normal;font-variant-ligatures:normal;font-variant-numeric:normal;font-variant-position:normal;shape-padding:0;text-decoration-color:#000000;text-decoration-line:none;text-decoration-style:solid;text-indent:0;text-orientation:mixed;text-transform:none;white-space:normal" aria-label="♥">
  <path d="m-272.2-80.16q15.87 0 24.94 18.37 3.284 7.271 3.44 11.1h0.2346q2.737-12.67 9.93-21.03 8.444-8.444 19-8.444 16.34 0 26.19 17.51 2.502 6.49 2.502 12.2 0 19.55-16.26 37.3l-41.36 49.65h-0.4691l-43.94-53.87q-13.14-16.03-13.14-33.07 0-16.5 15.56-26.19 6.568-3.518 13.37-3.518z"/>
 </g>
 <use id="use837" transform="translate(-56.6 -54.65)" width="100%" height="100%" xlink:href="#g6"/>
 <use transform="translate(-16.7 -30.32)" width="100%" height="100%" xlink:href="#use837"/>
 <use id="use877" transform="translate(12.66 -26.69)" width="100%" height="100%" xlink:href="#use837"/>
 <use id="use897" transform="translate(12.97 54.43)" width="100%" height="100%" xlink:href="#use877"/>
 <use id="use917" transform="translate(29.42 -2.936)" width="100%" height="100%" xlink:href="#use897"/>
 <use id="use937" transform="translate(-16.18 -52.69)" width="100%" height="100%" xlink:href="#use917"/>
 <use transform="translate(-25.73 -28.65)" width="100%" height="100%" xlink:href="#use917"/>
 <use id="use977" transform="translate(19.83 23.9)" width="100%" height="100%" xlink:href="#use937"/>
 <use transform="translate(4.808 -25.1)" width="100%" height="100%" xlink:href="#use977"/>
</svg>
