<svg xmlns="http://www.w3.org/2000/svg" xmlns:xlink="http://www.w3.org/1999/xlink" viewBox="0 0 100 110"> <clipPath id="escu"> <rect width="100" height="120" /> </clipPath> <path d="M 50,110 C 50,110 100,91.194469 100,43.401978 100,-4.3905136 100,0.113263 100,0.113263 H 0 V 43.401978 C 0,91.194469 50,110 50,110 Z" id="clip" /> <clipPath id="ordi"> <rect width="70" height="10" y="40" x="15"/><rect width="10" height="70" x="45" y="10"/> <circle cx="50" cy="10" r="5" /><circle cx="42.5" cy="15" r="5" /><circle cx="57.5" cy="15" r="5" /> <circle cx="50" cy="80" r="5" /><circle cx="42.5" cy="75" r="5" /><circle cx="57.5" cy="75" r="5" /> <circle cx="15" cy="45" r="5" /> <circle cx="20" cy="37.5" r="5" /> <circle cx="20" cy="52.5" r="5" /> <circle cx="85" cy="45" r="5" /> <circle cx="80" cy="37.5" r="5" /> <circle cx="80" cy="52.5" r="5" /> </clipPath> <use clip-path="url(#escu)" xlink:href="#clip" fill="black" /> <use clip-path="url(#ordi)" xlink:href="#clip" fill="yellow" /> <use clip-path="url(#escu)" xlink:href="#clip" style="fill-opacity:0;stroke:black;stroke-width:0.5;"/> </svg>