<?xml version="1.0" encoding="UTF-8" standalone="no"?>
<svg
   xmlns:dc="http://purl.org/dc/elements/1.1/"
   xmlns:cc="http://creativecommons.org/ns#"
   xmlns:rdf="http://www.w3.org/1999/02/22-rdf-syntax-ns#"
   xmlns:svg="http://www.w3.org/2000/svg"
   xmlns="http://www.w3.org/2000/svg"
   xmlns:sodipodi="http://sodipodi.sourceforge.net/DTD/sodipodi-0.dtd"
   xmlns:inkscape="http://www.inkscape.org/namespaces/inkscape"
   viewBox="0 0 100 110"
   version="1.1"
   id="svg25"
   sodipodi:docname="cross_avellane.svg"
   inkscape:version="0.92.4 (5da689c313, 2019-01-14)">
  <metadata
     id="metadata31">
    <rdf:RDF>
      <cc:Work
         rdf:about="">
        <dc:format>image/svg+xml</dc:format>
        <dc:type
           rdf:resource="http://purl.org/dc/dcmitype/StillImage" />
        <dc:title />
      </cc:Work>
    </rdf:RDF>
  </metadata>
  <defs
     id="defs29" />
  <sodipodi:namedview
     pagecolor="#ffffff"
     bordercolor="#666666"
     borderopacity="1"
     objecttolerance="10"
     gridtolerance="10"
     guidetolerance="10"
     inkscape:pageopacity="0"
     inkscape:pageshadow="2"
     inkscape:window-width="1920"
     inkscape:window-height="1020"
     id="namedview27"
     showgrid="false"
     inkscape:zoom="2.8284271"
     inkscape:cx="-107.57664"
     inkscape:cy="79.41059"
     inkscape:window-x="0"
     inkscape:window-y="0"
     inkscape:window-maximized="1"
     inkscape:current-layer="svg25"
     showguides="true"
     inkscape:guide-bbox="true" />
  <g
     id="g836"
     transform="matrix(1.25,0,0,1.25,-11.951139,-12.059642)"
     style="fill:#000000">
    <circle
       r="6"
       cy="48.491116"
       cx="49.808941"
       id="path963"
       style="opacity:1;vector-effect:none;fill:#000000;fill-opacity:1;fill-rule:nonzero;stroke:none;stroke-width:1;stroke-linecap:round;stroke-linejoin:round;stroke-miterlimit:4;stroke-dasharray:none;stroke-dashoffset:0;stroke-opacity:1;paint-order:markers stroke fill" />
    <path
       sodipodi:nodetypes="cccccccccc"
       inkscape:connector-curvature="0"
       id="path965"
       d="m 49.650804,10.854722 c -1.68695,3.47658 -0.99591,2.81734 -3.77616,0.49684 0,0 -0.70535,0.09148 -0.47941,0.78125 8.6546,12.63214 -6.89804,24.58948 3.79081,31.67187 0.06943,0.04601 0.22252,-0.12202 0.29534,-0.07812 0.07282,-0.0439 0.87322,0.12413 0.94265,0.07812 10.68885,-7.08239 -4.86379,-19.03973 3.79081,-31.67187 0.22594,-0.68977 -0.47941,-0.78125 -0.47941,-0.78125 -2.78437,2.32394 -2.08716,2.98168 -3.78366,-0.51231 -0.15542,-0.35396 -0.26495,-0.07613 -0.30097,0.01547 z"
       style="opacity:0.98717951;fill:#000000;fill-opacity:1;stroke:none;stroke-width:0.99999994px;stroke-linecap:butt;stroke-linejoin:miter;stroke-opacity:1" />
    <path
       sodipodi:nodetypes="cccccccccc"
       inkscape:connector-curvature="0"
       id="path965-2"
       d="m 49.650804,85.622412 c -1.68695,-3.47658 -0.99591,-2.81734 -3.77616,-0.49684 0,0 -0.70535,-0.09148 -0.47941,-0.78125 8.6546,-12.63214 -6.89804,-24.58948 3.79081,-31.67187 0.06943,-0.04601 0.22252,0.12202 0.29534,0.07812 0.07282,0.0439 0.87322,-0.12413 0.94265,-0.07812 10.68885,7.08239 -4.86379,19.03973 3.79081,31.67187 0.22594,0.68977 -0.47941,0.78125 -0.47941,0.78125 -2.78437,-2.32394 -2.08716,-2.98168 -3.78366,0.51231 -0.15542,0.35396 -0.26495,0.07613 -0.30097,-0.01547 z"
       style="opacity:0.98717951;fill:#000000;fill-opacity:1;stroke:none;stroke-width:0.99999994px;stroke-linecap:butt;stroke-linejoin:miter;stroke-opacity:1" />
    <path
       sodipodi:nodetypes="cccccccccc"
       inkscape:connector-curvature="0"
       id="path965-5"
       d="m 86.89528,48.32162 c -3.47658,-1.68695 -2.81734,-0.99591 -0.49684,-3.77616 0,0 -0.09148,-0.70535 -0.78125,-0.47941 -12.63214,8.6546 -24.58948,-6.89804 -31.67187,3.79081 -0.04601,0.06943 0.12202,0.22252 0.07812,0.29534 0.0439,0.07282 -0.12413,0.87322 -0.07812,0.94265 7.08239,10.68885 19.03973,-4.86379 31.67187,3.79081 0.68977,0.22594 0.78125,-0.47941 0.78125,-0.47941 -2.32394,-2.78437 -2.98168,-2.08716 0.51231,-3.78366 0.35396,-0.15542 0.07613,-0.26495 -0.01547,-0.30097 z"
       style="opacity:0.98717951;fill:#000000;fill-opacity:1;stroke:none;stroke-width:0.99999994px;stroke-linecap:butt;stroke-linejoin:miter;stroke-opacity:1" />
    <path
       sodipodi:nodetypes="cccccccccc"
       inkscape:connector-curvature="0"
       id="path965-2-4"
       d="m 12.12759,48.32162 c 3.47658,-1.68695 2.81734,-0.99591 0.49684,-3.77616 0,0 0.09148,-0.70535 0.78125,-0.47941 12.63214,8.6546 24.58948,-6.89804 31.67187,3.79081 0.04601,0.06943 -0.12202,0.22252 -0.07812,0.29534 -0.0439,0.07282 0.12413,0.87322 0.07812,0.94265 -7.08239,10.68885 -19.03973,-4.86379 -31.67187,3.79081 -0.68977,0.22594 -0.78125,-0.47941 -0.78125,-0.47941 2.32394,-2.78437 2.98168,-2.08716 -0.51231,-3.78366 -0.35396,-0.15542 -0.07613,-0.26495 0.01547,-0.30097 z"
       style="opacity:0.98717951;fill:#000000;fill-opacity:1;stroke:none;stroke-width:0.99999994px;stroke-linecap:butt;stroke-linejoin:miter;stroke-opacity:1" />
  </g>
</svg>
