<?xml version="1.0" encoding="UTF-8" standalone="no"?>
<svg
   xmlns:dc="http://purl.org/dc/elements/1.1/"
   xmlns:cc="http://creativecommons.org/ns#"
   xmlns:rdf="http://www.w3.org/1999/02/22-rdf-syntax-ns#"
   xmlns:svg="http://www.w3.org/2000/svg"
   xmlns="http://www.w3.org/2000/svg"
   xmlns:sodipodi="http://sodipodi.sourceforge.net/DTD/sodipodi-0.dtd"
   xmlns:inkscape="http://www.inkscape.org/namespaces/inkscape"
   viewBox="0 0 100 110"
   version="1.1"
   id="svg23"
   sodipodi:docname="cross_canterbury.svg"
   inkscape:version="0.92.4 (5da689c313, 2019-01-14)">
  <metadata
     id="metadata29">
    <rdf:RDF>
      <cc:Work
         rdf:about="">
        <dc:format>image/svg+xml</dc:format>
        <dc:type
           rdf:resource="http://purl.org/dc/dcmitype/StillImage" />
        <dc:title></dc:title>
      </cc:Work>
    </rdf:RDF>
  </metadata>
  <defs
     id="defs27" />
  <sodipodi:namedview
     pagecolor="#ffffff"
     bordercolor="#666666"
     borderopacity="1"
     objecttolerance="10"
     gridtolerance="10"
     guidetolerance="10"
     inkscape:pageopacity="0"
     inkscape:pageshadow="2"
     inkscape:window-width="1920"
     inkscape:window-height="1020"
     id="namedview25"
     showgrid="false"
     inkscape:zoom="1.4142136"
     inkscape:cx="-99.916595"
     inkscape:cy="130.0044"
     inkscape:window-x="0"
     inkscape:window-y="0"
     inkscape:window-maximized="1"
     inkscape:current-layer="svg23"
     showguides="true"
     inkscape:guide-bbox="true" />
  <g
     id="g937"
     transform="matrix(1.21,0,0,1.21,-10.487347,-16.688432)">
    <rect
       y="42.602318"
       x="41.3508"
       height="17.172525"
       width="17.172525"
       id="rect892"
       style="opacity:1;fill:#000000;fill-opacity:1;stroke:none;stroke-width:3.61526799;stroke-linecap:butt;stroke-linejoin:round;stroke-miterlimit:4;stroke-dasharray:none;stroke-dashoffset:0;stroke-opacity:1;paint-order:normal" />
    <path
       sodipodi:nodetypes="aaacccaaaa"
       inkscape:connector-curvature="0"
       id="path828"
       d="m 33.367189,28.797683 c -0.51781,1.07056 1.0569,2.525932 2.21484,2.796875 1.21849,0.285112 2.21112,-2.010405 3.39453,-1.603515 4.55654,1.56667 6.50977,12.90625 6.50977,12.90625 h 4.42773 4.42774 c 0,0 1.95322,-11.339579 6.50976,-12.90625 1.18341,-0.40689 2.17604,1.888626 3.39453,1.603515 1.15794,-0.270942 2.73266,-1.726313 2.21485,-2.796875 -4.80324,-9.930626 -28.2905,-9.93062 -33.09375,0 z"
       style="fill:#000000;fill-opacity:1;stroke:none;stroke-width:1px;stroke-linecap:butt;stroke-linejoin:miter;stroke-opacity:1" />
    <path
       sodipodi:nodetypes="aaacccaaaa"
       inkscape:connector-curvature="0"
       id="path828-7"
       d="m 66.460939,72.996903 c 0.51781,-1.07056 -1.0569,-2.525932 -2.21484,-2.796875 -1.21849,-0.285112 -2.21112,2.010405 -3.39453,1.603515 -4.55654,-1.56667 -6.50977,-12.90625 -6.50977,-12.90625 h -4.42773 -4.42774 c 0,0 -1.95322,11.339579 -6.50976,12.90625 -1.18341,0.40689 -2.17604,-1.888626 -3.39453,-1.603515 -1.15794,0.270942 -2.73266,1.726313 -2.21485,2.796875 4.80324,9.930626 28.2905,9.93062 33.09375,0 z"
       style="fill:#000000;fill-opacity:1;stroke:none;stroke-width:1px;stroke-linecap:butt;stroke-linejoin:miter;stroke-opacity:1" />
    <path
       sodipodi:nodetypes="aaacccaaaa"
       inkscape:connector-curvature="0"
       id="path828-7-1"
       d="m 28.179779,67.61914 c 1.07056,0.517809 2.52594,-1.056901 2.79688,-2.214841 0.28511,-1.218489 -2.01041,-2.21112 -1.60352,-3.39453 C 30.939809,57.45323 42.279389,55.5 42.279389,55.5 v -4.42773 -4.42774 c 0,0 -11.33958,-1.95322 -12.90625,-6.50976 -0.40689,-1.18341 1.88863,-2.17604 1.60352,-3.39453 -0.27094,-1.15794 -1.72631,-2.732659 -2.79688,-2.21485 -9.93062,4.80324 -9.93062,28.290499 0,33.09375 z"
       style="fill:#000000;fill-opacity:1;stroke:none;stroke-width:1px;stroke-linecap:butt;stroke-linejoin:miter;stroke-opacity:1" />
    <path
       sodipodi:nodetypes="aaacccaaaa"
       inkscape:connector-curvature="0"
       id="path828-7-1-9"
       d="m 71.699709,67.61914 c -1.07056,0.51781 -2.52594,-1.0569 -2.79688,-2.21484 -0.2851,-1.21849 2.01041,-2.21112 1.60352,-3.39453 C 68.939689,57.45323 57.600099,55.5 57.600099,55.5 v -4.42773 -4.42774 c 0,0 11.33959,-1.95322 12.90625,-6.50976 0.40689,-1.18341 -1.88862,-2.17604 -1.60352,-3.39453 0.27094,-1.15794 1.72632,-2.732659 2.79688,-2.21485 9.93063,4.80324 9.93063,28.2905 0,33.09375 z"
       style="fill:#000000;fill-opacity:1;stroke:none;stroke-width:1px;stroke-linecap:butt;stroke-linejoin:miter;stroke-opacity:1" />
  </g>
</svg>
