<?xml version="1.0" encoding="UTF-8" standalone="no"?>
<svg
   xmlns:dc="http://purl.org/dc/elements/1.1/"
   xmlns:cc="http://creativecommons.org/ns#"
   xmlns:rdf="http://www.w3.org/1999/02/22-rdf-syntax-ns#"
   xmlns:svg="http://www.w3.org/2000/svg"
   xmlns="http://www.w3.org/2000/svg"
   xmlns:sodipodi="http://sodipodi.sourceforge.net/DTD/sodipodi-0.dtd"
   xmlns:inkscape="http://www.inkscape.org/namespaces/inkscape"
   viewBox="0 0 100 110"
   version="1.1"
   id="svg24"
   sodipodi:docname="cross_coptic.svg"
   inkscape:version="0.92.4 (5da689c313, 2019-01-14)">
  <metadata
     id="metadata30">
    <rdf:RDF>
      <cc:Work
         rdf:about="">
        <dc:format>image/svg+xml</dc:format>
        <dc:type
           rdf:resource="http://purl.org/dc/dcmitype/StillImage" />
      </cc:Work>
    </rdf:RDF>
  </metadata>
  <defs
     id="defs28" />
  <sodipodi:namedview
     pagecolor="#ffffff"
     bordercolor="#666666"
     borderopacity="1"
     objecttolerance="10"
     gridtolerance="10"
     guidetolerance="10"
     inkscape:pageopacity="0"
     inkscape:pageshadow="2"
     inkscape:window-width="1868"
     inkscape:window-height="1016"
     id="namedview26"
     showgrid="false"
     inkscape:zoom="6.0682618"
     inkscape:cx="57.055925"
     inkscape:cy="56.114804"
     inkscape:window-x="52"
     inkscape:window-y="27"
     inkscape:window-maximized="1"
     inkscape:current-layer="svg24" />
  <path
     d="M 47.5 8.75 L 47.5 25.181641 A 20 20 0 0 0 30.175781 42.5 L 13.75 42.5 L 13.75 47.5 L 30.181641 47.5 A 20 20 0 0 0 47.5 64.824219 L 47.5 81.25 L 52.5 81.25 L 52.5 64.818359 A 20 20 0 0 0 69.824219 47.5 L 86.25 47.5 L 86.25 42.5 L 69.818359 42.5 A 20 20 0 0 0 52.5 25.175781 L 52.5 8.75 L 47.5 8.75 z M 50 30 A 15 15 0 0 1 65 45 A 15 15 0 0 1 50 60 A 15 15 0 0 1 35 45 A 15 15 0 0 1 50 30 z "
     id="circle6" />
</svg>
