<?xml version="1.0" encoding="UTF-8" standalone="no"?>
<svg
   xmlns:dc="http://purl.org/dc/elements/1.1/"
   xmlns:cc="http://creativecommons.org/ns#"
   xmlns:rdf="http://www.w3.org/1999/02/22-rdf-syntax-ns#"
   xmlns:svg="http://www.w3.org/2000/svg"
   xmlns="http://www.w3.org/2000/svg"
   xmlns:sodipodi="http://sodipodi.sourceforge.net/DTD/sodipodi-0.dtd"
   xmlns:inkscape="http://www.inkscape.org/namespaces/inkscape"
   viewBox="0 0 100 110"
   version="1.1"
   id="svg23"
   sodipodi:docname="cross_coldharbour.svg"
   inkscape:version="0.92.4 (5da689c313, 2019-01-14)">
  <metadata
     id="metadata29">
    <rdf:RDF>
      <cc:Work
         rdf:about="">
        <dc:format>image/svg+xml</dc:format>
        <dc:type
           rdf:resource="http://purl.org/dc/dcmitype/StillImage" />
        <dc:title></dc:title>
      </cc:Work>
    </rdf:RDF>
  </metadata>
  <defs
     id="defs27" />
  <sodipodi:namedview
     pagecolor="#ffffff"
     bordercolor="#666666"
     borderopacity="1"
     objecttolerance="10"
     gridtolerance="10"
     guidetolerance="10"
     inkscape:pageopacity="0"
     inkscape:pageshadow="2"
     inkscape:window-width="1920"
     inkscape:window-height="1020"
     id="namedview25"
     showgrid="false"
     inkscape:zoom="2.8284271"
     inkscape:cx="-25.978246"
     inkscape:cy="76.312737"
     inkscape:window-x="0"
     inkscape:window-y="0"
     inkscape:window-maximized="1"
     inkscape:current-layer="svg23"
     showguides="true"
     inkscape:guide-bbox="true" />
  <rect
     style="opacity:1;fill:#000000;fill-opacity:1;stroke:none;stroke-width:1.15892255;stroke-linecap:butt;stroke-linejoin:round;stroke-miterlimit:4;stroke-dasharray:none;stroke-dashoffset:0;stroke-opacity:1;paint-order:normal"
     id="rect960"
     width="10"
     height="110"
     x="45"
     y="0" />
  <rect
     style="opacity:1;fill:#000000;fill-opacity:1;stroke:none;stroke-width:1.15892255;stroke-linecap:butt;stroke-linejoin:round;stroke-miterlimit:4;stroke-dasharray:none;stroke-dashoffset:0;stroke-opacity:1;paint-order:normal"
     id="rect960-5"
     width="10"
     height="110"
     x="-54"
     y="-5"
     transform="rotate(-90)" />
  <path
     style="opacity:1;fill:#000000;fill-opacity:1;stroke:none;stroke-width:2;stroke-linecap:butt;stroke-linejoin:round;stroke-miterlimit:4;stroke-dasharray:none;stroke-dashoffset:0;stroke-opacity:1;paint-order:normal"
     d="M 49.983611,14.372439 A 34.648232,34.648232 0 0 0 15.335178,49.020877 34.648232,34.648232 0 0 0 49.983611,83.669314 34.648232,34.648232 0 0 0 84.632049,49.020877 34.648232,34.648232 0 0 0 49.983611,14.372439 Z m 0,8.66211 a 25.986174,25.986174 0 0 1 2.59375,0.130859 25.986174,25.986174 0 0 1 2.568359,0.388672 25.986174,25.986174 0 0 1 2.517579,0.642578 25.986174,25.986174 0 0 1 2.439453,0.890625 25.986174,25.986174 0 0 1 2.339844,1.128906 25.986174,25.986174 0 0 1 2.214843,1.357422 25.986174,25.986174 0 0 1 2.066407,1.572266 25.986174,25.986174 0 0 1 1.90039,1.771484 25.986174,25.986174 0 0 1 1.714844,1.951172 25.986174,25.986174 0 0 1 1.511719,2.113281 25.986174,25.986174 0 0 1 1.291015,2.251953 25.986174,25.986174 0 0 1 1.0625,2.371094 25.986174,25.986174 0 0 1 0.81836,2.464844 25.986174,25.986174 0 0 1 0.568359,2.535156 25.986174,25.986174 0 0 1 0.314453,2.578125 25.986174,25.986174 0 0 1 0.06445,1.837891 25.986174,25.986174 0 0 1 -0.130859,2.595703 25.986174,25.986174 0 0 1 -0.386719,2.568359 25.986174,25.986174 0 0 1 -0.642578,2.515625 25.986174,25.986174 0 0 1 -0.890625,2.439453 25.986174,25.986174 0 0 1 -1.130859,2.339844 25.986174,25.986174 0 0 1 -1.357422,2.214844 25.986174,25.986174 0 0 1 -1.572266,2.066406 25.986174,25.986174 0 0 1 -1.769531,1.902344 25.986174,25.986174 0 0 1 -1.953125,1.71289 25.986174,25.986174 0 0 1 -2.111328,1.511719 25.986174,25.986174 0 0 1 -2.253907,1.292969 25.986174,25.986174 0 0 1 -2.371093,1.060547 25.986174,25.986174 0 0 1 -2.464844,0.818359 25.986174,25.986174 0 0 1 -2.535156,0.570313 25.986174,25.986174 0 0 1 -2.578125,0.3125 25.986174,25.986174 0 0 1 -1.837891,0.06445 25.986174,25.986174 0 0 1 -2.59375,-0.128907 25.986174,25.986174 0 0 1 -2.568359,-0.388672 25.986174,25.986174 0 0 1 -2.517578,-0.642578 25.986174,25.986174 0 0 1 -2.439456,-0.890625 25.986174,25.986174 0 0 1 -2.33984,-1.130859 25.986174,25.986174 0 0 1 -2.21484,-1.357422 25.986174,25.986174 0 0 1 -2.06641,-1.572265 25.986174,25.986174 0 0 1 -1.90039,-1.769532 25.986174,25.986174 0 0 1 -1.71485,-1.951171 25.986174,25.986174 0 0 1 -1.51171,-2.113282 25.986174,25.986174 0 0 1 -1.29102,-2.253906 25.986174,25.986174 0 0 1 -1.0625,-2.371094 25.986174,25.986174 0 0 1 -0.81836,-2.464843 25.986174,25.986174 0 0 1 -0.56836,-2.533204 25.986174,25.986174 0 0 1 -0.31445,-2.580078 25.986174,25.986174 0 0 1 -0.06445,-1.83789 25.986174,25.986174 0 0 1 0.13085,-2.59375 25.986174,25.986174 0 0 1 0.38672,-2.56836 25.986174,25.986174 0 0 1 0.64258,-2.517578 25.986174,25.986174 0 0 1 0.89063,-2.439453 25.986174,25.986174 0 0 1 1.13086,-2.337891 25.986174,25.986174 0 0 1 1.35742,-2.214843 25.986174,25.986174 0 0 1 1.57226,-2.06836 25.986174,25.986174 0 0 1 1.76953,-1.90039 25.986174,25.986174 0 0 1 1.95313,-1.714844 25.986174,25.986174 0 0 1 2.11133,-1.509766 25.986174,25.986174 0 0 1 2.2539,-1.292968 25.986174,25.986174 0 0 1 2.3711,-1.060547 25.986174,25.986174 0 0 1 2.464841,-0.820313 25.986174,25.986174 0 0 1 2.535157,-0.568359 25.986174,25.986174 0 0 1 2.578124,-0.3125 25.986174,25.986174 0 0 1 1.837891,-0.06641 z"
     id="path996"
     inkscape:connector-curvature="0" />
</svg>
