<?xml version="1.0" encoding="UTF-8" standalone="no"?>
<svg
   xmlns:dc="http://purl.org/dc/elements/1.1/"
   xmlns:cc="http://creativecommons.org/ns#"
   xmlns:rdf="http://www.w3.org/1999/02/22-rdf-syntax-ns#"
   xmlns:svg="http://www.w3.org/2000/svg"
   xmlns="http://www.w3.org/2000/svg"
   xmlns:sodipodi="http://sodipodi.sourceforge.net/DTD/sodipodi-0.dtd"
   xmlns:inkscape="http://www.inkscape.org/namespaces/inkscape"
   viewBox="0 0 100 110"
   version="1.1"
   id="svg27"
   sodipodi:docname="cross_norse_sun.svg"
   inkscape:version="0.92.4 (5da689c313, 2019-01-14)">
  <metadata
     id="metadata33">
    <rdf:RDF>
      <cc:Work
         rdf:about="">
        <dc:format>image/svg+xml</dc:format>
        <dc:type
           rdf:resource="http://purl.org/dc/dcmitype/StillImage" />
      </cc:Work>
    </rdf:RDF>
  </metadata>
  <defs
     id="defs31" />
  <sodipodi:namedview
     pagecolor="#ffffff"
     bordercolor="#666666"
     borderopacity="1"
     objecttolerance="10"
     gridtolerance="10"
     guidetolerance="10"
     inkscape:pageopacity="0"
     inkscape:pageshadow="2"
     inkscape:window-width="1868"
     inkscape:window-height="1016"
     id="namedview29"
     showgrid="false"
     inkscape:zoom="2.1454545"
     inkscape:cx="62.889699"
     inkscape:cy="37.985417"
     inkscape:window-x="52"
     inkscape:window-y="27"
     inkscape:window-maximized="1"
     inkscape:current-layer="svg27" />
  <path
     style="fill:#000000;fill-opacity:1"
     d="M 50 20 A 25 25 0 0 0 25 45 A 25 25 0 0 0 50 70 A 25 25 0 0 0 75 45 A 25 25 0 0 0 50 20 z M 50 25 A 20 20 0 0 1 70 45 A 20 20 0 0 1 50 65 A 20 20 0 0 1 30 45 A 20 20 0 0 1 50 25 z "
     id="circle6" />
  <rect
     id="rect12"
     x="26.771513"
     y="42.5"
     height="5"
     width="45.728489"
     style="stroke-width:1" />
  <rect
     id="rect14"
     y="22.5"
     x="47.5"
     height="45.219067"
     width="5"
     style="stroke-width:1" />
</svg>
