<?xml version="1.0" encoding="UTF-8" standalone="no"?>
<svg
   xmlns:dc="http://purl.org/dc/elements/1.1/"
   xmlns:cc="http://creativecommons.org/ns#"
   xmlns:rdf="http://www.w3.org/1999/02/22-rdf-syntax-ns#"
   xmlns:svg="http://www.w3.org/2000/svg"
   xmlns="http://www.w3.org/2000/svg"
   xmlns:sodipodi="http://sodipodi.sourceforge.net/DTD/sodipodi-0.dtd"
   xmlns:inkscape="http://www.inkscape.org/namespaces/inkscape"
   viewBox="0 0 100 110"
   version="1.1"
   id="svg36"
   sodipodi:docname="cross_six_annulets_interlaced.svg"
   inkscape:version="0.92.4 (5da689c313, 2019-01-14)">
  <metadata
     id="metadata42">
    <rdf:RDF>
      <cc:Work
         rdf:about="">
        <dc:format>image/svg+xml</dc:format>
        <dc:type
           rdf:resource="http://purl.org/dc/dcmitype/StillImage" />
        <dc:title />
      </cc:Work>
    </rdf:RDF>
  </metadata>
  <defs
     id="defs40">
    <clipPath
       id="ordi2-0">
      <circle
         cx="204.90433"
         cy="21.921255"
         r="3.75"
         id="circle19-4" />
      <circle
         cx="204.90433"
         cy="81.921257"
         r="3.75"
         id="circle21-8" />
      <circle
         cx="174.90433"
         cy="51.921257"
         r="3.75"
         id="circle23-8" />
      <circle
         cx="234.90433"
         cy="51.921257"
         r="3.75"
         id="circle25-8" />
    </clipPath>
  </defs>
  <sodipodi:namedview
     pagecolor="#ffffff"
     bordercolor="#666666"
     borderopacity="1"
     objecttolerance="10"
     gridtolerance="10"
     guidetolerance="10"
     inkscape:pageopacity="0"
     inkscape:pageshadow="2"
     inkscape:window-width="1920"
     inkscape:window-height="1020"
     id="namedview38"
     showgrid="false"
     inkscape:zoom="3.0341309"
     inkscape:cx="-129.40498"
     inkscape:cy="107.58624"
     inkscape:window-x="0"
     inkscape:window-y="0"
     inkscape:window-maximized="1"
     inkscape:current-layer="svg36"
     showguides="true"
     inkscape:guide-bbox="true" />
  <clipPath
     id="escu">
    <rect
       width="100"
       height="120"
       id="rect2" />
  </clipPath>
  <g
     id="g983"
     transform="matrix(0.76666667,0,0,0.76666667,138.26551,47.351792)">
    <path
       id="path822"
       d="m -115.12891,-56.560547 a 20,20 0 0 0 -20,20 20,20 0 0 0 20,20 20,20 0 0 0 20.000004,-20 20,20 0 0 0 -20.000004,-20 z m 0,4 a 16,16 0 0 1 1.59766,0.08008 16,16 0 0 1 1.58008,0.240235 16,16 0 0 1 1.55078,0.394531 16,16 0 0 1 1.50195,0.548828 16,16 0 0 1 1.43946,0.695313 16,16 0 0 1 1.36328,0.835937 16,16 0 0 1 1.27343,0.96875 16,16 0 0 1 1.16993,1.089844 16,16 0 0 1 1.05664,1.201172 16,16 0 0 1 0.92968,1.300781 16,16 0 0 1 0.79688,1.386719 16,16 0 0 1 0.65234,1.460937 16,16 0 0 1 0.503909,1.517578 16,16 0 0 1 0.351563,1.560547 16,16 0 0 1 0.191406,1.587891 16,16 0 0 1 0.04102,1.130859 16,16 0 0 1 -0.08008,1.597656 16,16 0 0 1 -0.238282,1.582032 16,16 0 0 1 -0.396484,1.548828 16,16 0 0 1 -0.548832,1.501953 16,16 0 0 1 -0.69531,1.441406 16,16 0 0 1 -0.83594,1.363281 16,16 0 0 1 -0.96875,1.273438 16,16 0 0 1 -1.08984,1.169922 16,16 0 0 1 -1.20117,1.054687 16,16 0 0 1 -1.30079,0.931641 16,16 0 0 1 -1.38671,0.794922 16,16 0 0 1 -1.46094,0.652343 16,16 0 0 1 -1.51758,0.50586 16,16 0 0 1 -1.56055,0.349609 16,16 0 0 1 -1.58789,0.19336 16,16 0 0 1 -1.13086,0.03906 16,16 0 0 1 -1.59765,-0.08008 16,16 0 0 1 -1.58203,-0.238281 16,16 0 0 1 -1.54883,-0.396485 16,16 0 0 1 -1.50196,-0.546875 16,16 0 0 1 -1.4414,-0.697265 16,16 0 0 1 -1.36328,-0.835938 16,16 0 0 1 -1.27344,-0.966797 16,16 0 0 1 -1.16992,-1.089843 16,16 0 0 1 -1.05469,-1.203125 16,16 0 0 1 -0.93164,-1.300782 16,16 0 0 1 -0.79492,-1.386718 16,16 0 0 1 -0.65235,-1.458985 16,16 0 0 1 -0.50586,-1.517578 16,16 0 0 1 -0.3496,-1.560547 16,16 0 0 1 -0.19336,-1.58789 16,16 0 0 1 -0.0391,-1.132813 16,16 0 0 1 0.0801,-1.597656 16,16 0 0 1 0.23828,-1.580078 16,16 0 0 1 0.39649,-1.550781 16,16 0 0 1 0.54687,-1.501954 16,16 0 0 1 0.69727,-1.439453 16,16 0 0 1 0.83594,-1.363281 16,16 0 0 1 0.96679,-1.273438 16,16 0 0 1 1.08985,-1.169921 16,16 0 0 1 1.20312,-1.056641 16,16 0 0 1 1.30078,-0.929688 16,16 0 0 1 1.38672,-0.796874 16,16 0 0 1 1.45899,-0.652344 16,16 0 0 1 1.51757,-0.503906 16,16 0 0 1 1.56055,-0.351563 16,16 0 0 1 1.58789,-0.191406 16,16 0 0 1 1.13281,-0.04102 z"
       style="opacity:1;fill:#000000;fill-opacity:1;stroke:none;stroke-width:1.04625201;stroke-linecap:round;stroke-linejoin:round;stroke-miterlimit:4;stroke-dasharray:none;stroke-dashoffset:0;stroke-opacity:1;paint-order:normal"
       inkscape:connector-curvature="0" />
    <path
       id="path822-8"
       d="m -115.12891,-31.561 a 20,20 0 0 0 -20,20 20,20 0 0 0 20,20 20,20 0 0 0 20.000004,-20 20,20 0 0 0 -20.000004,-20 z m 0,4 a 16,16 0 0 1 1.59766,0.08008 16,16 0 0 1 1.58008,0.240235 16,16 0 0 1 1.55078,0.394531 16,16 0 0 1 1.50195,0.548828 16,16 0 0 1 1.43946,0.695313 16,16 0 0 1 1.36328,0.835937 16,16 0 0 1 1.27343,0.96875 16,16 0 0 1 1.16993,1.089844 16,16 0 0 1 1.05664,1.201172 16,16 0 0 1 0.92968,1.300781 16,16 0 0 1 0.79688,1.386719 16,16 0 0 1 0.65234,1.460937 16,16 0 0 1 0.503909,1.517578 16,16 0 0 1 0.351563,1.560547 16,16 0 0 1 0.191406,1.587891 16,16 0 0 1 0.04102,1.130859 16,16 0 0 1 -0.08008,1.597656 16,16 0 0 1 -0.238282,1.582032 16,16 0 0 1 -0.396484,1.548828 16,16 0 0 1 -0.548832,1.501953 16,16 0 0 1 -0.69531,1.441406 16,16 0 0 1 -0.83594,1.363281 16,16 0 0 1 -0.96875,1.273438 16,16 0 0 1 -1.08984,1.169922 16,16 0 0 1 -1.20117,1.054687 16,16 0 0 1 -1.30079,0.931641 16,16 0 0 1 -1.38671,0.794922 16,16 0 0 1 -1.46094,0.652343 16,16 0 0 1 -1.51758,0.50586 16,16 0 0 1 -1.56055,0.349609 16,16 0 0 1 -1.58789,0.19336 16,16 0 0 1 -1.13086,0.03906 16,16 0 0 1 -1.59765,-0.08008 16,16 0 0 1 -1.58203,-0.238281 16,16 0 0 1 -1.54883,-0.396485 16,16 0 0 1 -1.50196,-0.546875 16,16 0 0 1 -1.4414,-0.697265 16,16 0 0 1 -1.36328,-0.835938 16,16 0 0 1 -1.27344,-0.966797 16,16 0 0 1 -1.16992,-1.089843 16,16 0 0 1 -1.05469,-1.203125 16,16 0 0 1 -0.93164,-1.300782 16,16 0 0 1 -0.79492,-1.386718 16,16 0 0 1 -0.65235,-1.458985 16,16 0 0 1 -0.50586,-1.517578 16,16 0 0 1 -0.3496,-1.560547 16,16 0 0 1 -0.19336,-1.58789 16,16 0 0 1 -0.0391,-1.132813 16,16 0 0 1 0.0801,-1.597656 16,16 0 0 1 0.23828,-1.580078 16,16 0 0 1 0.39649,-1.550781 16,16 0 0 1 0.54687,-1.501954 16,16 0 0 1 0.69727,-1.439453 16,16 0 0 1 0.83594,-1.363281 16,16 0 0 1 0.96679,-1.273438 16,16 0 0 1 1.08985,-1.169921 16,16 0 0 1 1.20312,-1.056641 16,16 0 0 1 1.30078,-0.929688 16,16 0 0 1 1.38672,-0.796874 16,16 0 0 1 1.45899,-0.652344 16,16 0 0 1 1.51757,-0.503906 16,16 0 0 1 1.56055,-0.351563 16,16 0 0 1 1.58789,-0.191406 16,16 0 0 1 1.13281,-0.04102 z"
       style="opacity:1;fill:#000000;fill-opacity:1;stroke:none;stroke-width:1.04625201;stroke-linecap:round;stroke-linejoin:round;stroke-miterlimit:4;stroke-dasharray:none;stroke-dashoffset:0;stroke-opacity:1;paint-order:normal"
       inkscape:connector-curvature="0" />
    <path
       id="path822-0"
       d="m -115.12891,-6.560547 a 20,20 0 0 0 -20,20 20,20 0 0 0 20,20 20,20 0 0 0 20.000004,-20 20,20 0 0 0 -20.000004,-20 z m 0,4 a 16,16 0 0 1 1.59766,0.08008 16,16 0 0 1 1.58008,0.240235 16,16 0 0 1 1.55078,0.394531 16,16 0 0 1 1.50195,0.548828 16,16 0 0 1 1.43946,0.695313 16,16 0 0 1 1.36328,0.835937 16,16 0 0 1 1.27343,0.96875 16,16 0 0 1 1.16993,1.089844 16,16 0 0 1 1.05664,1.201172 16,16 0 0 1 0.92968,1.300781 16,16 0 0 1 0.79688,1.386719 16,16 0 0 1 0.65234,1.460937 16,16 0 0 1 0.503909,1.517578 16,16 0 0 1 0.351563,1.560547 16,16 0 0 1 0.191406,1.587891 16,16 0 0 1 0.04102,1.130859 16,16 0 0 1 -0.08008,1.597656 16,16 0 0 1 -0.238282,1.582032 16,16 0 0 1 -0.396484,1.548828 16,16 0 0 1 -0.548832,1.501953 16,16 0 0 1 -0.69531,1.441406 16,16 0 0 1 -0.83594,1.363281 16,16 0 0 1 -0.96875,1.273438 16,16 0 0 1 -1.08984,1.169922 16,16 0 0 1 -1.20117,1.054687 16,16 0 0 1 -1.30079,0.931641 16,16 0 0 1 -1.38671,0.794922 16,16 0 0 1 -1.46094,0.652343 16,16 0 0 1 -1.51758,0.50586 16,16 0 0 1 -1.56055,0.349609 16,16 0 0 1 -1.58789,0.19336 16,16 0 0 1 -1.13086,0.03906 16,16 0 0 1 -1.59765,-0.08008 16,16 0 0 1 -1.58203,-0.238281 16,16 0 0 1 -1.54883,-0.396485 16,16 0 0 1 -1.50196,-0.546875 16,16 0 0 1 -1.4414,-0.697265 16,16 0 0 1 -1.36328,-0.835938 16,16 0 0 1 -1.27344,-0.966797 16,16 0 0 1 -1.16992,-1.089843 16,16 0 0 1 -1.05469,-1.203125 16,16 0 0 1 -0.93164,-1.300782 16,16 0 0 1 -0.79492,-1.386718 16,16 0 0 1 -0.65235,-1.458985 16,16 0 0 1 -0.50586,-1.517578 16,16 0 0 1 -0.3496,-1.560547 16,16 0 0 1 -0.19336,-1.58789 16,16 0 0 1 -0.0391,-1.132813 16,16 0 0 1 0.0801,-1.597656 16,16 0 0 1 0.23828,-1.580078 16,16 0 0 1 0.39649,-1.550781 16,16 0 0 1 0.54687,-1.501954 16,16 0 0 1 0.69727,-1.439453 16,16 0 0 1 0.83594,-1.363281 16,16 0 0 1 0.96679,-1.273438 16,16 0 0 1 1.08985,-1.169921 16,16 0 0 1 1.20312,-1.056641 16,16 0 0 1 1.30078,-0.929688 16,16 0 0 1 1.38672,-0.796874 16,16 0 0 1 1.45899,-0.652344 16,16 0 0 1 1.51757,-0.503906 16,16 0 0 1 1.56055,-0.351563 16,16 0 0 1 1.58789,-0.191406 16,16 0 0 1 1.13281,-0.04102 z"
       style="opacity:1;fill:#000000;fill-opacity:1;stroke:none;stroke-width:1.04625201;stroke-linecap:round;stroke-linejoin:round;stroke-miterlimit:4;stroke-dasharray:none;stroke-dashoffset:0;stroke-opacity:1;paint-order:normal"
       inkscape:connector-curvature="0" />
    <path
       id="path822-8-2"
       d="m -115.12891,18.439 a 20,20 0 0 0 -20,20 20,20 0 0 0 20,20 20,20 0 0 0 20.000004,-20 20,20 0 0 0 -20.000004,-20 z m 0,4 a 16,16 0 0 1 1.59766,0.08008 16,16 0 0 1 1.58008,0.240235 16,16 0 0 1 1.55078,0.394531 16,16 0 0 1 1.50195,0.548828 16,16 0 0 1 1.43946,0.695313 16,16 0 0 1 1.36328,0.835937 16,16 0 0 1 1.27343,0.96875 16,16 0 0 1 1.16993,1.089844 16,16 0 0 1 1.05664,1.201172 16,16 0 0 1 0.92968,1.300781 16,16 0 0 1 0.79688,1.386719 16,16 0 0 1 0.65234,1.460937 16,16 0 0 1 0.503909,1.517578 16,16 0 0 1 0.351563,1.560547 16,16 0 0 1 0.191406,1.587891 16,16 0 0 1 0.04102,1.130859 16,16 0 0 1 -0.08008,1.597656 16,16 0 0 1 -0.238282,1.582032 16,16 0 0 1 -0.396484,1.548828 16,16 0 0 1 -0.548832,1.501953 16,16 0 0 1 -0.69531,1.441406 16,16 0 0 1 -0.83594,1.363281 16,16 0 0 1 -0.96875,1.273438 16,16 0 0 1 -1.08984,1.169922 16,16 0 0 1 -1.20117,1.054687 16,16 0 0 1 -1.30079,0.931641 16,16 0 0 1 -1.38671,0.794922 16,16 0 0 1 -1.46094,0.652343 16,16 0 0 1 -1.51758,0.50586 16,16 0 0 1 -1.56055,0.349609 16,16 0 0 1 -1.58789,0.19336 16,16 0 0 1 -1.13086,0.03906 16,16 0 0 1 -1.59765,-0.08008 16,16 0 0 1 -1.58203,-0.238281 16,16 0 0 1 -1.54883,-0.396485 16,16 0 0 1 -1.50196,-0.546875 16,16 0 0 1 -1.4414,-0.697265 16,16 0 0 1 -1.36328,-0.835938 16,16 0 0 1 -1.27344,-0.966797 16,16 0 0 1 -1.16992,-1.089843 16,16 0 0 1 -1.05469,-1.203125 16,16 0 0 1 -0.93164,-1.300782 16,16 0 0 1 -0.79492,-1.386718 16,16 0 0 1 -0.65235,-1.458985 16,16 0 0 1 -0.50586,-1.517578 16,16 0 0 1 -0.3496,-1.560547 16,16 0 0 1 -0.19336,-1.58789 16,16 0 0 1 -0.0391,-1.132813 16,16 0 0 1 0.0801,-1.597656 16,16 0 0 1 0.23828,-1.580078 16,16 0 0 1 0.39649,-1.550781 16,16 0 0 1 0.54687,-1.501954 16,16 0 0 1 0.69727,-1.439453 16,16 0 0 1 0.83594,-1.363281 16,16 0 0 1 0.96679,-1.273438 16,16 0 0 1 1.08985,-1.169921 16,16 0 0 1 1.20312,-1.056641 16,16 0 0 1 1.30078,-0.929688 16,16 0 0 1 1.38672,-0.796874 16,16 0 0 1 1.45899,-0.652344 16,16 0 0 1 1.51757,-0.503906 16,16 0 0 1 1.56055,-0.351563 16,16 0 0 1 1.58789,-0.191406 16,16 0 0 1 1.13281,-0.04102 z"
       style="opacity:1;fill:#000000;fill-opacity:1;stroke:none;stroke-width:1.04625201;stroke-linecap:round;stroke-linejoin:round;stroke-miterlimit:4;stroke-dasharray:none;stroke-dashoffset:0;stroke-opacity:1;paint-order:normal"
       inkscape:connector-curvature="0" />
    <path
       id="path822-8-0"
       d="m -140.129,-31.561 a 20,20 0 0 0 -20,20 20,20 0 0 0 20,20 20,20 0 0 0 20,-20 20,20 0 0 0 -20,-20 z m 0,4 a 16,16 0 0 1 1.59766,0.08008 16,16 0 0 1 1.58008,0.240235 16,16 0 0 1 1.55078,0.394531 16,16 0 0 1 1.50195,0.548828 16,16 0 0 1 1.43946,0.695313 16,16 0 0 1 1.36328,0.835937 16,16 0 0 1 1.27343,0.96875 16,16 0 0 1 1.16993,1.089844 16,16 0 0 1 1.05664,1.201172 16,16 0 0 1 0.92968,1.300781 16,16 0 0 1 0.79688,1.386719 16,16 0 0 1 0.65234,1.460937 16,16 0 0 1 0.50391,1.517578 16,16 0 0 1 0.35156,1.560547 16,16 0 0 1 0.19141,1.587891 16,16 0 0 1 0.041,1.130859 16,16 0 0 1 -0.0801,1.597656 16,16 0 0 1 -0.23828,1.582032 16,16 0 0 1 -0.39649,1.548828 16,16 0 0 1 -0.54883,1.501953 16,16 0 0 1 -0.69531,1.441406 16,16 0 0 1 -0.83594,1.363281 16,16 0 0 1 -0.96875,1.273438 16,16 0 0 1 -1.08984,1.169922 16,16 0 0 1 -1.20117,1.054687 16,16 0 0 1 -1.30079,0.931641 16,16 0 0 1 -1.38671,0.794922 16,16 0 0 1 -1.46094,0.652343 16,16 0 0 1 -1.51758,0.50586 16,16 0 0 1 -1.56055,0.349609 16,16 0 0 1 -1.58789,0.19336 16,16 0 0 1 -1.13086,0.03906 16,16 0 0 1 -1.59765,-0.08008 16,16 0 0 1 -1.58203,-0.238281 16,16 0 0 1 -1.54883,-0.396485 16,16 0 0 1 -1.50196,-0.546875 16,16 0 0 1 -1.4414,-0.697265 16,16 0 0 1 -1.36328,-0.835938 16,16 0 0 1 -1.27344,-0.966797 16,16 0 0 1 -1.16992,-1.089843 16,16 0 0 1 -1.05469,-1.203125 16,16 0 0 1 -0.93164,-1.300782 16,16 0 0 1 -0.79492,-1.386718 16,16 0 0 1 -0.65235,-1.458985 16,16 0 0 1 -0.50586,-1.517578 16,16 0 0 1 -0.3496,-1.560547 16,16 0 0 1 -0.19336,-1.58789 16,16 0 0 1 -0.0391,-1.132813 16,16 0 0 1 0.0801,-1.597656 16,16 0 0 1 0.23828,-1.580078 16,16 0 0 1 0.39649,-1.550781 16,16 0 0 1 0.54687,-1.501954 16,16 0 0 1 0.69727,-1.439453 16,16 0 0 1 0.83594,-1.363281 16,16 0 0 1 0.96679,-1.273438 16,16 0 0 1 1.08985,-1.169921 16,16 0 0 1 1.20312,-1.056641 16,16 0 0 1 1.30078,-0.929688 16,16 0 0 1 1.38672,-0.796874 16,16 0 0 1 1.45899,-0.652344 16,16 0 0 1 1.51757,-0.503906 16,16 0 0 1 1.56055,-0.351563 16,16 0 0 1 1.58789,-0.191406 16,16 0 0 1 1.13281,-0.04102 z"
       style="opacity:1;fill:#000000;fill-opacity:1;stroke:none;stroke-width:1.04625201;stroke-linecap:round;stroke-linejoin:round;stroke-miterlimit:4;stroke-dasharray:none;stroke-dashoffset:0;stroke-opacity:1;paint-order:normal"
       inkscape:connector-curvature="0" />
    <path
       id="path822-8-0-4"
       d="m -90.129,-31.561 a 20,20 0 0 0 -20,20 20,20 0 0 0 20,20 20,20 0 0 0 20,-20 20,20 0 0 0 -20,-20 z m 0,4 a 16,16 0 0 1 1.59766,0.08008 16,16 0 0 1 1.58008,0.240235 16,16 0 0 1 1.55078,0.394531 16,16 0 0 1 1.50195,0.548828 16,16 0 0 1 1.43946,0.695313 16,16 0 0 1 1.36328,0.835937 16,16 0 0 1 1.27343,0.96875 16,16 0 0 1 1.16993,1.089844 16,16 0 0 1 1.05664,1.201172 16,16 0 0 1 0.92968,1.300781 16,16 0 0 1 0.79688,1.386719 16,16 0 0 1 0.65234,1.460937 16,16 0 0 1 0.50391,1.517578 16,16 0 0 1 0.35156,1.560547 16,16 0 0 1 0.19141,1.587891 16,16 0 0 1 0.041,1.130859 16,16 0 0 1 -0.0801,1.597656 16,16 0 0 1 -0.23828,1.582032 16,16 0 0 1 -0.39649,1.548828 16,16 0 0 1 -0.54883,1.501953 16,16 0 0 1 -0.69531,1.441406 16,16 0 0 1 -0.83594,1.363281 16,16 0 0 1 -0.96875,1.273438 16,16 0 0 1 -1.08984,1.169922 16,16 0 0 1 -1.20117,1.054687 16,16 0 0 1 -1.30079,0.931641 16,16 0 0 1 -1.38671,0.794922 16,16 0 0 1 -1.46094,0.652343 16,16 0 0 1 -1.51758,0.50586 16,16 0 0 1 -1.56055,0.349609 16,16 0 0 1 -1.58789,0.19336 16,16 0 0 1 -1.13086,0.03906 16,16 0 0 1 -1.59765,-0.08008 16,16 0 0 1 -1.58203,-0.238281 16,16 0 0 1 -1.54883,-0.396485 16,16 0 0 1 -1.50196,-0.546875 16,16 0 0 1 -1.4414,-0.697265 16,16 0 0 1 -1.36328,-0.835938 16,16 0 0 1 -1.27344,-0.966797 16,16 0 0 1 -1.16992,-1.089843 16,16 0 0 1 -1.05469,-1.203125 16,16 0 0 1 -0.93164,-1.300782 16,16 0 0 1 -0.79492,-1.386718 16,16 0 0 1 -0.65235,-1.458985 16,16 0 0 1 -0.50586,-1.517578 16,16 0 0 1 -0.3496,-1.560547 16,16 0 0 1 -0.19336,-1.58789 16,16 0 0 1 -0.0391,-1.132813 16,16 0 0 1 0.0801,-1.597656 16,16 0 0 1 0.23828,-1.580078 16,16 0 0 1 0.39649,-1.550781 16,16 0 0 1 0.54687,-1.501954 16,16 0 0 1 0.69727,-1.439453 16,16 0 0 1 0.83594,-1.363281 16,16 0 0 1 0.96679,-1.273438 16,16 0 0 1 1.08985,-1.169921 16,16 0 0 1 1.20312,-1.056641 16,16 0 0 1 1.30078,-0.929688 16,16 0 0 1 1.38672,-0.796874 16,16 0 0 1 1.45899,-0.652344 16,16 0 0 1 1.51757,-0.503906 16,16 0 0 1 1.56055,-0.351563 16,16 0 0 1 1.58789,-0.191406 16,16 0 0 1 1.13281,-0.04102 z"
       style="opacity:1;fill:#000000;fill-opacity:1;stroke:none;stroke-width:1.04625201;stroke-linecap:round;stroke-linejoin:round;stroke-miterlimit:4;stroke-dasharray:none;stroke-dashoffset:0;stroke-opacity:1;paint-order:normal"
       inkscape:connector-curvature="0" />
  </g>
</svg>
