<?xml version="1.0" encoding="UTF-8" standalone="no"?>
<svg
   xmlns:dc="http://purl.org/dc/elements/1.1/"
   xmlns:cc="http://creativecommons.org/ns#"
   xmlns:rdf="http://www.w3.org/1999/02/22-rdf-syntax-ns#"
   xmlns:svg="http://www.w3.org/2000/svg"
   xmlns="http://www.w3.org/2000/svg"
   xmlns:sodipodi="http://sodipodi.sourceforge.net/DTD/sodipodi-0.dtd"
   xmlns:inkscape="http://www.inkscape.org/namespaces/inkscape"
   viewBox="0 0 100 110"
   version="1.1"
   id="svg36"
   sodipodi:docname="cross_annulety.svg"
   inkscape:version="0.92.4 (5da689c313, 2019-01-14)">
  <metadata
     id="metadata42">
    <rdf:RDF>
      <cc:Work
         rdf:about="">
        <dc:format>image/svg+xml</dc:format>
        <dc:type
           rdf:resource="http://purl.org/dc/dcmitype/StillImage" />
      </cc:Work>
    </rdf:RDF>
  </metadata>
  <defs
     id="defs40">
    <clipPath
       id="ordi2-0">
      <circle
         cx="204.90433"
         cy="21.921255"
         r="3.75"
         id="circle19-4" />
      <circle
         cx="204.90433"
         cy="81.921257"
         r="3.75"
         id="circle21-8" />
      <circle
         cx="174.90433"
         cy="51.921257"
         r="3.75"
         id="circle23-8" />
      <circle
         cx="234.90433"
         cy="51.921257"
         r="3.75"
         id="circle25-8" />
    </clipPath>
  </defs>
  <sodipodi:namedview
     pagecolor="#ffffff"
     bordercolor="#666666"
     borderopacity="1"
     objecttolerance="10"
     gridtolerance="10"
     guidetolerance="10"
     inkscape:pageopacity="0"
     inkscape:pageshadow="2"
     inkscape:window-width="1868"
     inkscape:window-height="1016"
     id="namedview38"
     showgrid="false"
     inkscape:zoom="3.0341309"
     inkscape:cx="29.527695"
     inkscape:cy="95.227928"
     inkscape:window-x="52"
     inkscape:window-y="27"
     inkscape:window-maximized="1"
     inkscape:current-layer="svg36" />
  <clipPath
     id="escu">
    <rect
       width="100"
       height="120"
       id="rect2" />
  </clipPath>
  <path
     style="fill:#000000;stroke:none;stroke-opacity:1"
     d="M 50 7.5 A 7.5 7.5 0 0 0 42.5 15 A 7.5 7.5 0 0 0 45 20.580078 L 45 40 L 25.578125 40 A 7.5 7.5 0 0 0 20 37.5 A 7.5 7.5 0 0 0 12.5 45 A 7.5 7.5 0 0 0 20 52.5 A 7.5 7.5 0 0 0 25.580078 50 L 45 50 L 45 69.421875 A 7.5 7.5 0 0 0 42.5 75 A 7.5 7.5 0 0 0 50 82.5 A 7.5 7.5 0 0 0 57.5 75 A 7.5 7.5 0 0 0 55 69.419922 L 55 50 L 74.421875 50 A 7.5 7.5 0 0 0 80 52.5 A 7.5 7.5 0 0 0 87.5 45 A 7.5 7.5 0 0 0 80 37.5 A 7.5 7.5 0 0 0 74.419922 40 L 55 40 L 55 20.578125 A 7.5 7.5 0 0 0 57.5 15 A 7.5 7.5 0 0 0 50 7.5 z M 50 11.25 A 3.75 3.75 0 0 1 53.75 15 A 3.75 3.75 0 0 1 50 18.75 A 3.75 3.75 0 0 1 46.25 15 A 3.75 3.75 0 0 1 50 11.25 z M 20 41.25 A 3.75 3.75 0 0 1 23.75 45 A 3.75 3.75 0 0 1 20 48.75 A 3.75 3.75 0 0 1 16.25 45 A 3.75 3.75 0 0 1 20 41.25 z M 80 41.25 A 3.75 3.75 0 0 1 83.75 45 A 3.75 3.75 0 0 1 80 48.75 A 3.75 3.75 0 0 1 76.25 45 A 3.75 3.75 0 0 1 80 41.25 z M 50 71.25 A 3.75 3.75 0 0 1 53.75 75 A 3.75 3.75 0 0 1 50 78.75 A 3.75 3.75 0 0 1 46.25 75 A 3.75 3.75 0 0 1 50 71.25 z "
     id="rect6" />
</svg>
