<?xml version="1.0" encoding="UTF-8" standalone="no"?>
<svg
   xmlns:dc="http://purl.org/dc/elements/1.1/"
   xmlns:cc="http://creativecommons.org/ns#"
   xmlns:rdf="http://www.w3.org/1999/02/22-rdf-syntax-ns#"
   xmlns:svg="http://www.w3.org/2000/svg"
   xmlns="http://www.w3.org/2000/svg"
   xmlns:sodipodi="http://sodipodi.sourceforge.net/DTD/sodipodi-0.dtd"
   xmlns:inkscape="http://www.inkscape.org/namespaces/inkscape"
   viewBox="0 0 100 110"
   version="1.1"
   id="svg23"
   sodipodi:docname="crown_eight.svg"
   inkscape:version="0.92.4 (5da689c313, 2019-01-14)">
  <metadata
     id="metadata29">
    <rdf:RDF>
      <cc:Work
         rdf:about="">
        <dc:format>image/svg+xml</dc:format>
        <dc:type
           rdf:resource="http://purl.org/dc/dcmitype/StillImage" />
        <dc:title />
      </cc:Work>
    </rdf:RDF>
  </metadata>
  <defs
     id="defs27" />
  <sodipodi:namedview
     pagecolor="#ffffff"
     bordercolor="#666666"
     borderopacity="1"
     objecttolerance="10"
     gridtolerance="10"
     guidetolerance="10"
     inkscape:pageopacity="0"
     inkscape:pageshadow="2"
     inkscape:window-width="1920"
     inkscape:window-height="1020"
     id="namedview25"
     showgrid="false"
     inkscape:zoom="2.8284271"
     inkscape:cx="-104.19167"
     inkscape:cy="97.542"
     inkscape:window-x="0"
     inkscape:window-y="0"
     inkscape:window-maximized="1"
     inkscape:current-layer="svg23"
     showguides="true"
     inkscape:guide-bbox="true"
     inkscape:lockguides="true" />
  <path
     inkscape:connector-curvature="0"
     style="fill:#000000;fill-opacity:1;stroke:none;stroke-width:0.55801296"
     id="e-23"
     d="m 13.158617,27.647795 7.971612,4.782969 3.985811,-4.782969 3.985811,4.782969 7.971611,-4.782969 -5.181552,15.146069 H 18.34017 Z" />
  <path
     inkscape:connector-curvature="0"
     style="fill:#000000;fill-opacity:1;stroke:none;stroke-width:0.55801296"
     id="e-1-7"
     d="m 62.926538,27.647795 7.971611,4.782969 3.985811,-4.782969 3.985811,4.782969 7.971612,-4.782969 -5.181555,15.146069 H 68.108091 Z" />
  <path
     inkscape:connector-curvature="0"
     style="fill:#000000;fill-opacity:1;stroke:none;stroke-width:0.55801296"
     id="e-23-8"
     d="m 16.958617,47.647795 7.971612,4.782969 3.985811,-4.782969 3.985811,4.782969 7.971611,-4.782969 -5.181552,15.146069 H 22.14017 Z" />
  <path
     inkscape:connector-curvature="0"
     style="fill:#000000;fill-opacity:1;stroke:none;stroke-width:0.55801296"
     id="e-1-7-9"
     d="m 59.126537,47.647795 7.971612,4.782969 3.985811,-4.782969 3.985811,4.782969 7.971612,-4.782969 -5.181555,15.146069 H 64.308091 Z" />
  <path
     inkscape:connector-curvature="0"
     style="fill:#000000;fill-opacity:1;stroke:none;stroke-width:0.55801296"
     id="e-23-8-7"
     d="m 20.758617,67.647795 7.971612,4.782969 3.985811,-4.782969 3.985811,4.782969 7.971612,-4.782969 -5.181553,15.146069 H 25.94017 Z" />
  <path
     inkscape:connector-curvature="0"
     style="fill:#000000;fill-opacity:1;stroke:none;stroke-width:0.55801296"
     id="e-1-7-9-3"
     d="m 55.326537,67.647795 7.971612,4.782969 3.985811,-4.782969 3.985811,4.782969 7.971612,-4.782969 -5.181555,15.146069 H 60.508091 Z" />
  <path
     inkscape:connector-curvature="0"
     style="fill:#000000;fill-opacity:1;stroke:none;stroke-width:0.55801296"
     id="e-23-7"
     d="m 11.158617,7.647795 7.971612,4.782969 3.985811,-4.782969 3.985811,4.782969 7.971611,-4.782969 -5.181552,15.146069 H 16.34017 Z" />
  <path
     inkscape:connector-curvature="0"
     style="fill:#000000;fill-opacity:1;stroke:none;stroke-width:0.55801296"
     id="e-1-7-90"
     d="m 64.926538,7.647795 7.971611,4.782969 3.985811,-4.782969 3.985811,4.782969 7.971612,-4.782969 -5.181555,15.146069 H 70.108091 Z" />
</svg>
