<?xml version="1.0" encoding="UTF-8" standalone="no"?>
<svg
   xmlns:dc="http://purl.org/dc/elements/1.1/"
   xmlns:cc="http://creativecommons.org/ns#"
   xmlns:rdf="http://www.w3.org/1999/02/22-rdf-syntax-ns#"
   xmlns:svg="http://www.w3.org/2000/svg"
   xmlns="http://www.w3.org/2000/svg"
   xmlns:sodipodi="http://sodipodi.sourceforge.net/DTD/sodipodi-0.dtd"
   xmlns:inkscape="http://www.inkscape.org/namespaces/inkscape"
   viewBox="0 0 100 110"
   version="1.1"
   id="svg23"
   sodipodi:docname="crown_ten.svg"
   inkscape:version="0.92.4 (5da689c313, 2019-01-14)">
  <metadata
     id="metadata29">
    <rdf:RDF>
      <cc:Work
         rdf:about="">
        <dc:format>image/svg+xml</dc:format>
        <dc:type
           rdf:resource="http://purl.org/dc/dcmitype/StillImage" />
        <dc:title></dc:title>
      </cc:Work>
    </rdf:RDF>
  </metadata>
  <defs
     id="defs27" />
  <sodipodi:namedview
     pagecolor="#ffffff"
     bordercolor="#666666"
     borderopacity="1"
     objecttolerance="10"
     gridtolerance="10"
     guidetolerance="10"
     inkscape:pageopacity="0"
     inkscape:pageshadow="2"
     inkscape:window-width="1920"
     inkscape:window-height="1020"
     id="namedview25"
     showgrid="false"
     inkscape:zoom="4"
     inkscape:cx="28.067066"
     inkscape:cy="56.265914"
     inkscape:window-x="0"
     inkscape:window-y="0"
     inkscape:window-maximized="1"
     inkscape:current-layer="svg23"
     showguides="true"
     inkscape:guide-bbox="true"
     inkscape:lockguides="true">
    <sodipodi:guide
       position="50,100.5"
       orientation="1,0"
       inkscape:locked="true"
       id="guide829" />
  </sodipodi:namedview>
  <path
     inkscape:connector-curvature="0"
     style="fill:#000000;fill-opacity:1;stroke:none;stroke-width:0.50221169"
     id="e-23"
     d="m 18.442755,35.685098 7.174451,4.304672 3.58723,-4.304672 3.58723,4.304672 7.17445,-4.304672 -4.663397,13.631462 H 23.106153 Z" />
  <path
     inkscape:connector-curvature="0"
     style="fill:#000000;fill-opacity:1;stroke:none;stroke-width:0.50221169"
     id="e-1-7"
     d="m 60.033884,35.685098 7.17445,4.304672 3.58723,-4.304672 3.58723,4.304672 7.174451,-4.304672 -4.6634,13.631462 H 64.697282 Z" />
  <path
     inkscape:connector-curvature="0"
     style="fill:#000000;fill-opacity:1;stroke:none;stroke-width:0.50221169"
     id="e-1-8"
     d="M 39.238319,20.819868 46.41277,25.12454 50,20.819868 53.58723,25.12454 60.76168,20.819868 56.098281,34.45133 H 43.901718 Z" />
  <path
     inkscape:connector-curvature="0"
     style="fill:#000000;fill-opacity:1;stroke:none;stroke-width:0.50221169"
     id="e-23-2"
     d="m 21.682755,4.525098 7.174451,4.304672 3.58723,-4.304672 3.58723,4.304672 7.174451,-4.304672 -4.663398,13.631462 H 26.346153 Z" />
  <path
     inkscape:connector-curvature="0"
     style="fill:#000000;fill-opacity:1;stroke:none;stroke-width:0.50221169"
     id="e-1-7-2"
     d="m 56.793883,4.525098 7.174451,4.304672 3.58723,-4.304672 3.58723,4.304672 7.17445,-4.304672 -4.663399,13.631462 H 61.457282 Z" />
  <path
     inkscape:connector-curvature="0"
     style="fill:#000000;fill-opacity:1;stroke:none;stroke-width:0.50221169"
     id="e-23-6"
     d="m 20.442755,74.285101 7.174451,4.304675 3.58723,-4.304675 3.58723,4.304675 7.17445,-4.304675 -4.663397,13.631459 H 25.106153 Z" />
  <path
     inkscape:connector-curvature="0"
     style="fill:#000000;fill-opacity:1;stroke:none;stroke-width:0.50221169"
     id="e-1-7-1"
     d="m 58.033884,74.285101 7.17445,4.304675 3.58723,-4.304675 3.58723,4.304675 7.174451,-4.304675 -4.6634,13.631459 H 62.697282 Z" />
  <path
     inkscape:connector-curvature="0"
     style="fill:#000000;fill-opacity:1;stroke:none;stroke-width:0.50221169"
     id="e-1-8-2"
     d="M 39.238319,55.125542 46.41277,59.430214 50,55.125542 53.58723,59.430214 60.76168,55.125542 56.098281,68.757 H 43.901718 Z" />
  <path
     inkscape:connector-curvature="0"
     style="fill:#000000;fill-opacity:1;stroke:none;stroke-width:0.50221169"
     id="e-23-2-9"
     d="m 3.682755,55.125101 7.174451,4.304672 3.58723,-4.304672 3.58723,4.304672 7.174451,-4.304672 -4.663398,13.631461 H 8.346153 Z" />
  <path
     inkscape:connector-curvature="0"
     style="fill:#000000;fill-opacity:1;stroke:none;stroke-width:0.50221169"
     id="e-1-7-2-3"
     d="m 74.793883,55.125101 7.174451,4.304672 3.58723,-4.304672 3.58723,4.304672 7.174451,-4.304672 -4.6634,13.631461 H 79.457282 Z" />
</svg>
