<?xml version="1.0" encoding="UTF-8" standalone="no"?>
<svg
   xmlns:dc="http://purl.org/dc/elements/1.1/"
   xmlns:cc="http://creativecommons.org/ns#"
   xmlns:rdf="http://www.w3.org/1999/02/22-rdf-syntax-ns#"
   xmlns:svg="http://www.w3.org/2000/svg"
   xmlns="http://www.w3.org/2000/svg"
   xmlns:sodipodi="http://sodipodi.sourceforge.net/DTD/sodipodi-0.dtd"
   xmlns:inkscape="http://www.inkscape.org/namespaces/inkscape"
   viewBox="0 0 100 110"
   version="1.1"
   id="svg23"
   sodipodi:docname="crown_seven.svg"
   inkscape:version="0.92.4 (5da689c313, 2019-01-14)">
  <metadata
     id="metadata29">
    <rdf:RDF>
      <cc:Work
         rdf:about="">
        <dc:format>image/svg+xml</dc:format>
        <dc:type
           rdf:resource="http://purl.org/dc/dcmitype/StillImage" />
        <dc:title></dc:title>
      </cc:Work>
    </rdf:RDF>
  </metadata>
  <defs
     id="defs27" />
  <sodipodi:namedview
     pagecolor="#ffffff"
     bordercolor="#666666"
     borderopacity="1"
     objecttolerance="10"
     gridtolerance="10"
     guidetolerance="10"
     inkscape:pageopacity="0"
     inkscape:pageshadow="2"
     inkscape:window-width="1920"
     inkscape:window-height="1020"
     id="namedview25"
     showgrid="false"
     inkscape:zoom="2.8284271"
     inkscape:cx="-32.066775"
     inkscape:cy="98.956214"
     inkscape:window-x="0"
     inkscape:window-y="0"
     inkscape:window-maximized="1"
     inkscape:current-layer="svg23"
     showguides="true"
     inkscape:guide-bbox="true"
     inkscape:lockguides="true">
    <sodipodi:guide
       position="50,100.5"
       orientation="1,0"
       inkscape:locked="true"
       id="guide829" />
  </sodipodi:namedview>
  <path
     inkscape:connector-curvature="0"
     style="fill:#000000;fill-opacity:1;stroke:none;stroke-width:0.68890494"
     id="e-7"
     d="m 8.12175,71.193908 9.841496,5.9049 4.920754,-5.9049 4.920754,5.9049 9.841496,-5.9049 -6.396979,18.698847 H 14.518729 Z" />
  <path
     inkscape:connector-curvature="0"
     style="fill:#000000;fill-opacity:1;stroke:none;stroke-width:0.68890494"
     id="e-1-9"
     d="m 62.35375,71.193908 9.841496,5.9049 4.920754,-5.9049 4.920754,5.9049 9.841496,-5.9049 -6.396981,18.698847 H 68.75073 Z" />
  <path
     inkscape:connector-curvature="0"
     style="fill:#000000;fill-opacity:1;stroke:none;stroke-width:0.68890494"
     id="e"
     d="m 12.12175,49.323908 9.841496,5.9049 4.920754,-5.9049 4.920754,5.9049 9.841496,-5.9049 -6.396979,18.69885 H 18.518729 Z" />
  <path
     inkscape:connector-curvature="0"
     style="fill:#000000;fill-opacity:1;stroke:none;stroke-width:0.68890494"
     id="e-1"
     d="m 58.35375,49.323908 9.841496,5.9049 4.920754,-5.9049 4.920754,5.9049 9.841496,-5.9049 -6.396981,18.69885 H 64.75073 Z" />
  <path
     inkscape:connector-curvature="0"
     style="fill:#000000;fill-opacity:1;stroke:none;stroke-width:0.68890494"
     id="e-23"
     d="m 16.12175,26.643905 9.841496,5.9049 4.920754,-5.9049 4.920754,5.9049 9.841496,-5.9049 -6.396979,18.69885 H 22.518729 Z" />
  <path
     inkscape:connector-curvature="0"
     style="fill:#000000;fill-opacity:1;stroke:none;stroke-width:0.68890494"
     id="e-1-7"
     d="m 54.35375,26.643905 9.841496,5.9049 4.920754,-5.9049 4.920754,5.9049 9.841496,-5.9049 -6.396981,18.69885 H 60.75073 Z" />
  <path
     inkscape:connector-curvature="0"
     style="fill:#000000;fill-opacity:1;stroke:none;stroke-width:0.68890494"
     id="e-1-8"
     d="m 35.23775,4.773905 9.841496,5.9049 L 50,4.773905 l 4.920754,5.9049 9.841496,-5.9049 -6.396981,18.69885 H 41.63473 Z" />
</svg>
