<?xml version="1.0" encoding="UTF-8" standalone="no"?>
<svg
   xmlns:dc="http://purl.org/dc/elements/1.1/"
   xmlns:cc="http://creativecommons.org/ns#"
   xmlns:rdf="http://www.w3.org/1999/02/22-rdf-syntax-ns#"
   xmlns:svg="http://www.w3.org/2000/svg"
   xmlns="http://www.w3.org/2000/svg"
   xmlns:xlink="http://www.w3.org/1999/xlink"
   xmlns:sodipodi="http://sodipodi.sourceforge.net/DTD/sodipodi-0.dtd"
   xmlns:inkscape="http://www.inkscape.org/namespaces/inkscape"
   version="1.1"
   viewBox="0 0 100 110"
   id="svg8"
   sodipodi:docname="escutcheon.svg"
   inkscape:version="1.0 (4035a4fb49, 2020-05-01)">
  <defs
     id="defs12">
    <radialGradient
       gradientUnits="userSpaceOnUse"
       gradientTransform="matrix(1,0,0,1.0981002,0,-5.3857399)"
       r="50.541832"
       fy="54.900387"
       fx="50.051975"
       cy="54.900387"
       cx="50.051975"
       id="radialGradient949"
       xlink:href="#linearGradient947"
       inkscape:collect="always" />
    <linearGradient
       id="linearGradient947"
       inkscape:collect="always">
      <stop
         id="stop943"
         offset="0"
         style="stop-color:#ffffff;stop-opacity:1;" />
      <stop
         id="stop945"
         offset="1"
         style="stop-color:#ffffff;stop-opacity:0;" />
    </linearGradient>
  </defs>
  <sodipodi:namedview
     inkscape:document-rotation="0"
     pagecolor="#ffffff"
     bordercolor="#666666"
     borderopacity="1"
     objecttolerance="10"
     gridtolerance="10"
     guidetolerance="10"
     inkscape:pageopacity="0"
     inkscape:pageshadow="2"
     inkscape:window-width="1920"
     inkscape:window-height="1020"
     id="namedview10"
     showgrid="false"
     showguides="false"
     inkscape:guide-bbox="true"
     inkscape:snap-bbox="true"
     inkscape:bbox-paths="true"
     inkscape:bbox-nodes="true"
     inkscape:snap-bbox-edge-midpoints="true"
     inkscape:snap-bbox-midpoints="true"
     inkscape:zoom="2.7802153"
     inkscape:cx="21.500937"
     inkscape:cy="58.488122"
     inkscape:window-x="0"
     inkscape:window-y="0"
     inkscape:window-maximized="1"
     inkscape:current-layer="svg8">
    <sodipodi:guide
       position="50.051974,110.09961"
       orientation="1,0"
       id="guide921" />
  </sodipodi:namedview>
  <metadata
     id="metadata2">
    <rdf:RDF>
      <cc:Work
         rdf:about="">
        <dc:format>image/svg+xml</dc:format>
        <dc:type
           rdf:resource="http://purl.org/dc/dcmitype/StillImage" />
        <dc:title />
      </cc:Work>
    </rdf:RDF>
  </metadata>
  <path
     id="rect837"
     style="opacity:1;fill:#d3d3d3;fill-rule:evenodd;stroke-width:1.83197;stroke-linecap:square;stroke-linejoin:round;paint-order:markers stroke fill;fill-opacity:1"
     d="M 0.0527234,0 H 0 V 110 H 99.979189 V 28.099609 c 0.0049,6.533003 0.07001,13.065895 -0.05858,19.601563 -0.126224,2.4875 -0.41837,4.943555 -0.865054,7.363281 -0.446684,2.419727 -1.047985,4.801563 -1.788691,7.136719 -0.740705,2.335156 -1.622025,4.623633 -2.630312,6.857422 -1.008286,2.233789 -2.142445,4.413672 -3.391872,6.529297 -1.249428,2.115625 -2.613148,4.167773 -4.077276,6.148437 -1.464129,1.980664 -3.030229,3.889844 -4.682619,5.71875 -1.65239,1.828906 -3.391735,3.57793 -5.205948,5.238281 -1.814212,1.660352 -3.701573,3.232032 -5.651167,4.707032 -3.299314,2.525 -6.748986,4.871559 -10.335739,6.976559 -3.586753,2.105 -7.310588,3.96844 -11.159787,5.52344 -0.03034,-0.013 -0.05949,-0.03 -0.08982,-0.043 -0.03033,0.013 -0.05948,0.03 -0.08983,0.043 -3.849198,-1.555 -7.574986,-3.41844 -11.161739,-5.52344 -3.586754,-2.105 -7.034473,-4.451559 -10.333786,-6.976559 -1.949595,-1.475 -3.838908,-3.04668 -5.653121,-4.707032 C 20.989636,91.033008 19.250291,89.283984 17.5979,87.455078 15.94551,85.626172 14.37941,83.716992 12.915282,81.736328 11.451151,79.755664 10.089384,77.703516 8.8399569,75.587891 7.5905294,73.472266 6.4544182,71.292383 5.446132,69.058594 4.4378458,66.824805 3.5565253,64.536328 2.8158201,62.201172 2.075115,59.866016 1.4738143,57.48418 1.02713,55.064453 0.58044559,52.644727 0.28829937,50.188672 0.16207564,47.701172 -0.07797439,35.501172 0.03344741,23.311328 0.0527234,11.111328 Z" />
  <path
     d="m0.05273-0.09961-0.0332 0.09961c0.01877 3.703 0.03905 7.405 0.0332 11.11v-11.21z"
     id="path4" />
  <path
     id="path4-6"
     d="M -139.94727,-0.09961 -139.98047,0 c 0.0188,3.703 0.0391,7.405 0.0332,11.11 V -0.1 Z" />
  <g
     transform="matrix(0.98928253,0,0,0.99100299,0.48467,0.59421469)"
     style="opacity:1"
     id="g951">
    <path
       id="path955"
       d="m 0.05273,-0.09961 v 11.21 c -0.01928,12.2 -0.1307,24.39 0.1094,36.59 1.01,19.9 12.7,37.9 28.3,49.7 6.6,5.05 13.8,9.39 21.5,12.5 0.03035,-0.013 0.0595,-0.03 0.08984,-0.043 0.03034,0.013 0.05949,0.03 0.08984,0.043 7.7,-3.11 14.9,-7.45 21.5,-12.5 15.6,-11.8 27.29,-29.8 28.3,-49.7 0.2401,-12.2 0.1287,-24.39 0.1094,-36.59 v -11.21 h -50 -50 z"
       style="color:#000000;font-style:normal;font-variant:normal;font-weight:normal;font-stretch:normal;font-size:medium;line-height:normal;font-family:sans-serif;font-variant-ligatures:normal;font-variant-position:normal;font-variant-caps:normal;font-variant-numeric:normal;font-variant-alternates:normal;font-variant-east-asian:normal;font-feature-settings:normal;font-variation-settings:normal;text-indent:0;text-align:start;text-decoration:none;text-decoration-line:none;text-decoration-style:solid;text-decoration-color:#000000;letter-spacing:normal;word-spacing:normal;text-transform:none;writing-mode:lr-tb;direction:ltr;text-orientation:mixed;dominant-baseline:auto;baseline-shift:baseline;text-anchor:start;white-space:normal;shape-padding:0;shape-margin:0;inline-size:0;clip-rule:nonzero;display:inline;overflow:visible;visibility:visible;isolation:auto;mix-blend-mode:normal;color-interpolation:sRGB;color-interpolation-filters:linearRGB;solid-color:#000000;solid-opacity:1;vector-effect:none;fill:url(#radialGradient949);fill-opacity:1;fill-rule:nonzero;stroke:none;stroke-width:1;stroke-linecap:butt;stroke-linejoin:round;stroke-miterlimit:4;stroke-dasharray:none;stroke-dashoffset:0;stroke-opacity:1;paint-order:markers stroke fill;color-rendering:auto;image-rendering:auto;shape-rendering:auto;text-rendering:auto;enable-background:accumulate;stop-color:#000000;stop-opacity:1;opacity:0.33" />
    <path
       id="path953"
       d="M 0.05078125,-0.59960938 A 0.50005,0.50005 0 0 0 -0.44140625,-0.09375 l -0.005859,-0.0058594 V 11.111328 c -0.0192848,12.196831 -0.13090098,24.390668 0.109375,36.59961 a 0.50005,0.50005 0 0 0 0,0.01562 C 0.68123564,67.806377 12.460893,85.923744 28.160156,97.798828 c 6.628991,5.071932 13.866656,9.434832 21.615235,12.564452 a 0.50005,0.50005 0 0 0 0.27539,0.0273 0.50005,0.50005 0 0 0 0.277344,-0.0273 c 7.748578,-3.12962 14.986243,-7.49252 21.615234,-12.564452 l 0.002,-0.002 C 87.643483,85.921763 99.422327,67.805444 100.44141,47.726562 a 0.50005,0.50005 0 0 0 0,-0.01562 c 0.24029,-12.209593 0.12867,-24.40408 0.10937,-36.601563 V -0.09960937 a 0.50005,0.50005 0 0 0 -0.5,-0.50000001 H 50.050781 0.06445312 Z m 0.50195313,1 h 49.49804662 49.5 V 11.111328 c 0.0193,12.202517 0.130536,24.389671 -0.109375,36.580078 -1.006281,19.713919 -12.604977,37.588771 -28.101562,49.310547 a 0.50005,0.50005 0 0 0 -0.002,0.002 c -6.525225,4.992787 -13.63919,9.271917 -21.230469,12.357427 a 0.50005,0.50005 0 0 0 -0.111328,0 C 42.404815,106.27582 35.290849,101.99669 28.765625,97.003906 a 0.50005,0.50005 0 0 0 -0.002,-0.002 C 13.262936,85.277037 1.6629831,67.395967 0.66210938,47.675781 0.4226005,35.490585 0.53345863,23.308634 0.55273438,11.111328 Z"
       style="color:#000000;font-style:normal;font-variant:normal;font-weight:normal;font-stretch:normal;font-size:medium;line-height:normal;font-family:sans-serif;font-variant-ligatures:normal;font-variant-position:normal;font-variant-caps:normal;font-variant-numeric:normal;font-variant-alternates:normal;font-variant-east-asian:normal;font-feature-settings:normal;font-variation-settings:normal;text-indent:0;text-align:start;text-decoration:none;text-decoration-line:none;text-decoration-style:solid;text-decoration-color:#000000;letter-spacing:normal;word-spacing:normal;text-transform:none;writing-mode:lr-tb;direction:ltr;text-orientation:mixed;dominant-baseline:auto;baseline-shift:baseline;text-anchor:start;white-space:normal;shape-padding:0;shape-margin:0;inline-size:0;clip-rule:nonzero;display:inline;overflow:visible;visibility:visible;isolation:auto;mix-blend-mode:normal;color-interpolation:sRGB;color-interpolation-filters:linearRGB;solid-color:#000000;solid-opacity:1;vector-effect:none;fill:#000000;fill-opacity:1;fill-rule:nonzero;stroke:none;stroke-width:1;stroke-linecap:butt;stroke-linejoin:round;stroke-miterlimit:4;stroke-dasharray:none;stroke-dashoffset:0;stroke-opacity:1;paint-order:markers stroke fill;color-rendering:auto;image-rendering:auto;shape-rendering:auto;text-rendering:auto;enable-background:accumulate;stop-color:#000000;stop-opacity:1" />
  </g>
</svg>
