<?xml version="1.0" encoding="UTF-8"?>
<svg version="1.1" viewBox="0 0 100 110" xmlns="http://www.w3.org/2000/svg" xmlns:cc="http://creativecommons.org/ns#" xmlns:dc="http://purl.org/dc/elements/1.1/" xmlns:rdf="http://www.w3.org/1999/02/22-rdf-syntax-ns#" xmlns:xlink="http://www.w3.org/1999/xlink">
 <defs>
  <radialGradient id="radialGradient949" cx="50.05" cy="54.9" r="50.54" gradientTransform="matrix(1 0 0 1.098 0 -5.386)" gradientUnits="userSpaceOnUse">
   <stop stop-color="#fff" offset="0"/>
   <stop stop-color="#fff" stop-opacity="0" offset="1"/>
  </radialGradient>
 </defs>
 <metadata>
  <rdf:RDF>
   <cc:Work rdf:about="">
    <dc:format>image/svg+xml</dc:format>
    <dc:type rdf:resource="http://purl.org/dc/dcmitype/StillImage"/>
    <dc:title/>
   </cc:Work>
  </rdf:RDF>
 </metadata>
 <path d="m-139.9-0.09961-0.0332 0.09961c0.0188 3.703 0.0391 7.405 0.0332 11.11v-11.21z"/>
 <path d="m0.05272 0h-0.05272v110h99.98v-81.9c0.0049 6.533 0.07001 13.07-0.05858 19.6-0.1262 2.488-0.4184 4.944-0.8651 7.363-0.4467 2.42-1.048 4.802-1.789 7.137-0.7407 2.335-1.622 4.624-2.63 6.857-1.008 2.234-2.142 4.414-3.392 6.529-1.249 2.116-2.613 4.168-4.077 6.148-1.464 1.981-3.03 3.89-4.683 5.719s-3.392 3.578-5.206 5.238c-1.814 1.66-3.702 3.232-5.651 4.707-3.299 2.525-6.749 4.872-10.34 6.977s-7.311 3.968-11.16 5.523c-0.03034-0.013-0.05949-0.03-0.08982-0.043-0.03033 0.013-0.05948 0.03-0.08983 0.043-3.849-1.555-7.575-3.418-11.16-5.523-3.587-2.105-7.034-4.452-10.33-6.977-1.95-1.475-3.839-3.047-5.653-4.707-1.814-1.66-3.554-3.409-5.206-5.238-1.652-1.829-3.218-3.738-4.683-5.719-1.464-1.981-2.826-4.033-4.075-6.148-1.249-2.116-2.386-4.296-3.394-6.529s-1.89-4.522-2.63-6.857c-0.7407-2.335-1.342-4.717-1.789-7.137-0.4467-2.42-0.7388-4.876-0.8651-7.363-0.2401-12.2-0.1286-24.39-0.1094-36.59z" fill="#d3d3d3" fill-rule="evenodd" stroke-linecap="square" stroke-linejoin="round" stroke-width="1.832" style="paint-order:markers stroke fill"/>
 <path d="m0.05273-0.09961-0.0332 0.09961c0.01877 3.703 0.03905 7.405 0.0332 11.11v-11.21z"/>
 <g transform="matrix(.9893 0 0 .991 .4847 .5942)" shape-rendering="auto">
  <path d="m0.05273-0.09961v11.21c-0.01928 12.2-0.1307 24.39 0.1094 36.59 1.01 19.9 12.7 37.9 28.3 49.7 6.6 5.05 13.8 9.39 21.5 12.5 0.03035-0.013 0.0595-0.03 0.08984-0.043 0.03034 0.013 0.05949 0.03 0.08984 0.043 7.7-3.11 14.9-7.45 21.5-12.5 15.6-11.8 27.29-29.8 28.3-49.7 0.2401-12.2 0.1287-24.39 0.1094-36.59v-11.21h-100z" color="#000000" color-rendering="auto" dominant-baseline="auto" fill="url(#radialGradient949)" image-rendering="auto" opacity=".33" solid-color="#000000" stop-color="#000000" style="font-feature-settings:normal;font-variant-alternates:normal;font-variant-caps:normal;font-variant-east-asian:normal;font-variant-ligatures:normal;font-variant-numeric:normal;font-variant-position:normal;font-variation-settings:normal;inline-size:0;isolation:auto;mix-blend-mode:normal;paint-order:markers stroke fill;shape-margin:0;shape-padding:0;text-decoration-color:#000000;text-decoration-line:none;text-decoration-style:solid;text-indent:0;text-orientation:mixed;text-transform:none;white-space:normal"/>
  <path d="m0.05078-0.5996a0.5 0.5 0 0 0-0.4922 0.5059l-0.005859-0.005859v11.21c-0.01928 12.2-0.1309 24.39 0.1094 36.6a0.5 0.5 0 0 0 0 0.01562c1.019 20.08 12.8 38.2 28.5 50.07 6.629 5.072 13.87 9.435 21.62 12.56a0.5 0.5 0 0 0 0.2754 0.0273 0.5 0.5 0 0 0 0.2773-0.0273c7.749-3.13 14.99-7.493 21.62-12.56l2e-3 -2e-3c15.7-11.88 27.48-29.99 28.5-50.07a0.5 0.5 0 0 0 0-0.01562c0.2403-12.21 0.1287-24.4 0.1094-36.6v-11.21a0.5 0.5 0 0 0-0.5-0.5h-99.99zm0.502 1h99v10.71c0.0193 12.2 0.1305 24.39-0.1094 36.58-1.006 19.71-12.6 37.59-28.1 49.31a0.5 0.5 0 0 0-2e-3 2e-3c-6.525 4.993-13.64 9.272-21.23 12.36a0.5 0.5 0 0 0-0.1113 0c-7.591-3.086-14.71-7.365-21.23-12.36a0.5 0.5 0 0 0-2e-3 -2e-3c-15.5-11.72-27.1-29.61-28.1-49.33-0.2395-12.19-0.1287-24.37-0.1094-36.56z" color="#000000" color-rendering="auto" dominant-baseline="auto" image-rendering="auto" solid-color="#000000" stop-color="#000000" style="font-feature-settings:normal;font-variant-alternates:normal;font-variant-caps:normal;font-variant-east-asian:normal;font-variant-ligatures:normal;font-variant-numeric:normal;font-variant-position:normal;font-variation-settings:normal;inline-size:0;isolation:auto;mix-blend-mode:normal;paint-order:markers stroke fill;shape-margin:0;shape-padding:0;text-decoration-color:#000000;text-decoration-line:none;text-decoration-style:solid;text-indent:0;text-orientation:mixed;text-transform:none;white-space:normal"/>
 </g>
</svg>
