<?xml version="1.0" encoding="UTF-8" standalone="no"?>
<svg
   xmlns:dc="http://purl.org/dc/elements/1.1/"
   xmlns:cc="http://creativecommons.org/ns#"
   xmlns:rdf="http://www.w3.org/1999/02/22-rdf-syntax-ns#"
   xmlns:svg="http://www.w3.org/2000/svg"
   xmlns="http://www.w3.org/2000/svg"
   xmlns:sodipodi="http://sodipodi.sourceforge.net/DTD/sodipodi-0.dtd"
   xmlns:inkscape="http://www.inkscape.org/namespaces/inkscape"
   viewBox="0 0 100 110"
   version="1.1"
   id="svg23"
   sodipodi:docname="heart_ten.svg"
   inkscape:version="0.92.4 (5da689c313, 2019-01-14)">
  <metadata
     id="metadata29">
    <rdf:RDF>
      <cc:Work
         rdf:about="">
        <dc:format>image/svg+xml</dc:format>
        <dc:type
           rdf:resource="http://purl.org/dc/dcmitype/StillImage" />
        <dc:title></dc:title>
      </cc:Work>
    </rdf:RDF>
  </metadata>
  <defs
     id="defs27" />
  <sodipodi:namedview
     pagecolor="#ffffff"
     bordercolor="#666666"
     borderopacity="1"
     objecttolerance="10"
     gridtolerance="10"
     guidetolerance="10"
     inkscape:pageopacity="0"
     inkscape:pageshadow="2"
     inkscape:window-width="1868"
     inkscape:window-height="1016"
     id="namedview25"
     showgrid="false"
     inkscape:zoom="4"
     inkscape:cx="4.7410103"
     inkscape:cy="45.095486"
     inkscape:window-x="52"
     inkscape:window-y="27"
     inkscape:window-maximized="1"
     inkscape:current-layer="svg23"
     showguides="true"
     inkscape:guide-bbox="true" />
  <g
     aria-label="♥"
     style="font-style:normal;font-variant:normal;font-weight:normal;font-stretch:normal;font-size:16px;line-height:1;font-family:sans-serif;-inkscape-font-specification:'sans-serif, Normal';font-variant-ligatures:normal;font-variant-position:normal;font-variant-caps:normal;font-variant-numeric:normal;font-variant-alternates:normal;text-indent:0;text-align:center;text-decoration:none;text-decoration-line:none;text-decoration-style:solid;text-decoration-color:#000000;letter-spacing:0px;word-spacing:0px;text-transform:none;writing-mode:lr-tb;direction:ltr;text-orientation:mixed;dominant-baseline:auto;baseline-shift:baseline;text-anchor:middle;white-space:normal;shape-padding:0;opacity:1;vector-effect:none;fill:#000000;fill-opacity:1;stroke:none;stroke-width:4.97660828;stroke-linecap:butt;stroke-linejoin:miter;stroke-miterlimit:4;stroke-dasharray:none;stroke-dashoffset:0;stroke-opacity:1"
     id="text1423-3"
     transform="matrix(0.20094006,0,0,0.20094006,112.09012,45.937991)">
    <path
       d="M -272.15187,-80.156249 Q -256.27981,-80.156249 -247.21002,-61.782103 -243.92608,-54.510639 -243.76976,-50.67943 H -243.53517 Q -240.79857,-63.34586 -233.60529,-71.711963 -225.161,-80.156249 -214.60562,-80.156249 -198.26439,-80.156249 -188.41277,-62.642174 -185.91076,-56.152579 -185.91076,-50.444872 -185.91076,-30.897913 -202.17383,-13.149269 L -243.53517,36.500002 H -244.00425 L -287.94586,-17.371412 Q -301.08142,-33.399923 -301.08142,-50.444872 -301.08142,-66.9425 -285.52201,-76.637792 -278.95424,-80.156249 -272.15187,-80.156249 Z"
       style="stroke:none;stroke-width:4.97660828;stroke-opacity:1"
       id="path1425-8"
       inkscape:connector-curvature="0" />
  </g>
  <g
     aria-label="♥"
     style="font-style:normal;font-variant:normal;font-weight:normal;font-stretch:normal;font-size:16px;line-height:1;font-family:sans-serif;-inkscape-font-specification:'sans-serif, Normal';font-variant-ligatures:normal;font-variant-position:normal;font-variant-caps:normal;font-variant-numeric:normal;font-variant-alternates:normal;text-indent:0;text-align:center;text-decoration:none;text-decoration-line:none;text-decoration-style:solid;text-decoration-color:#000000;letter-spacing:0px;word-spacing:0px;text-transform:none;writing-mode:lr-tb;direction:ltr;text-orientation:mixed;dominant-baseline:auto;baseline-shift:baseline;text-anchor:middle;white-space:normal;shape-padding:0;opacity:1;vector-effect:none;fill:#000000;fill-opacity:1;stroke:none;stroke-width:4.97660828;stroke-linecap:butt;stroke-linejoin:miter;stroke-miterlimit:4;stroke-dasharray:none;stroke-dashoffset:0;stroke-opacity:1"
     id="text1423-3-8"
     transform="matrix(0.20094006,0,0,0.20094006,86.490123,45.937991)">
    <path
       d="M -272.15187,-80.156249 Q -256.27981,-80.156249 -247.21002,-61.782103 -243.92608,-54.510639 -243.76976,-50.67943 H -243.53517 Q -240.79857,-63.34586 -233.60529,-71.711963 -225.161,-80.156249 -214.60562,-80.156249 -198.26439,-80.156249 -188.41277,-62.642174 -185.91076,-56.152579 -185.91076,-50.444872 -185.91076,-30.897913 -202.17383,-13.149269 L -243.53517,36.500002 H -244.00425 L -287.94586,-17.371412 Q -301.08142,-33.399923 -301.08142,-50.444872 -301.08142,-66.9425 -285.52201,-76.637792 -278.95424,-80.156249 -272.15187,-80.156249 Z"
       style="stroke:none;stroke-width:4.97660828;stroke-opacity:1"
       id="path1425-8-8"
       inkscape:connector-curvature="0" />
  </g>
  <g
     aria-label="♥"
     style="font-style:normal;font-variant:normal;font-weight:normal;font-stretch:normal;font-size:16px;line-height:1;font-family:sans-serif;-inkscape-font-specification:'sans-serif, Normal';font-variant-ligatures:normal;font-variant-position:normal;font-variant-caps:normal;font-variant-numeric:normal;font-variant-alternates:normal;text-indent:0;text-align:center;text-decoration:none;text-decoration-line:none;text-decoration-style:solid;text-decoration-color:#000000;letter-spacing:0px;word-spacing:0px;text-transform:none;writing-mode:lr-tb;direction:ltr;text-orientation:mixed;dominant-baseline:auto;baseline-shift:baseline;text-anchor:middle;white-space:normal;shape-padding:0;opacity:1;vector-effect:none;fill:#000000;fill-opacity:1;stroke:none;stroke-width:4.97660828;stroke-linecap:butt;stroke-linejoin:miter;stroke-miterlimit:4;stroke-dasharray:none;stroke-dashoffset:0;stroke-opacity:1"
     id="text1423-3-9"
     transform="matrix(0.20094006,0,0,0.20094006,99.44012,23.537991)">
    <path
       d="M -272.15187,-80.156249 Q -256.27981,-80.156249 -247.21002,-61.782103 -243.92608,-54.510639 -243.76976,-50.67943 H -243.53517 Q -240.79857,-63.34586 -233.60529,-71.711963 -225.161,-80.156249 -214.60562,-80.156249 -198.26439,-80.156249 -188.41277,-62.642174 -185.91076,-56.152579 -185.91076,-50.444872 -185.91076,-30.897913 -202.17383,-13.149269 L -243.53517,36.500002 H -244.00425 L -287.94586,-17.371412 Q -301.08142,-33.399923 -301.08142,-50.444872 -301.08142,-66.9425 -285.52201,-76.637792 -278.95424,-80.156249 -272.15187,-80.156249 Z"
       style="stroke:none;stroke-width:4.97660828;stroke-opacity:1"
       id="path1425-8-7"
       inkscape:connector-curvature="0" />
  </g>
  <g
     aria-label="♥"
     style="font-style:normal;font-variant:normal;font-weight:normal;font-stretch:normal;font-size:16px;line-height:1;font-family:sans-serif;-inkscape-font-specification:'sans-serif, Normal';font-variant-ligatures:normal;font-variant-position:normal;font-variant-caps:normal;font-variant-numeric:normal;font-variant-alternates:normal;text-indent:0;text-align:center;text-decoration:none;text-decoration-line:none;text-decoration-style:solid;text-decoration-color:#000000;letter-spacing:0px;word-spacing:0px;text-transform:none;writing-mode:lr-tb;direction:ltr;text-orientation:mixed;dominant-baseline:auto;baseline-shift:baseline;text-anchor:middle;white-space:normal;shape-padding:0;opacity:1;vector-effect:none;fill:#000000;fill-opacity:1;stroke:none;stroke-width:4.97660828;stroke-linecap:butt;stroke-linejoin:miter;stroke-miterlimit:4;stroke-dasharray:none;stroke-dashoffset:0;stroke-opacity:1"
     id="text1423-7-60-7"
     transform="matrix(0.20094006,0,0,0.20094006,124.01612,23.53799)">
    <path
       d="M -272.15187,-80.156249 Q -256.27981,-80.156249 -247.21002,-61.782103 -243.92608,-54.510639 -243.76976,-50.67943 H -243.53517 Q -240.79857,-63.34586 -233.60529,-71.711963 -225.161,-80.156249 -214.60562,-80.156249 -198.26439,-80.156249 -188.41277,-62.642174 -185.91076,-56.152579 -185.91076,-50.444872 -185.91076,-30.897913 -202.17383,-13.149269 L -243.53517,36.500002 H -244.00425 L -287.94586,-17.371412 Q -301.08142,-33.399923 -301.08142,-50.444872 -301.08142,-66.9425 -285.52201,-76.637792 -278.95424,-80.156249 -272.15187,-80.156249 Z"
       style="stroke:none;stroke-width:4.97660828;stroke-opacity:1"
       id="path1425-4-48-6"
       inkscape:connector-curvature="0" />
  </g>
  <g
     aria-label="♥"
     style="font-style:normal;font-variant:normal;font-weight:normal;font-stretch:normal;font-size:16px;line-height:1;font-family:sans-serif;-inkscape-font-specification:'sans-serif, Normal';font-variant-ligatures:normal;font-variant-position:normal;font-variant-caps:normal;font-variant-numeric:normal;font-variant-alternates:normal;text-indent:0;text-align:center;text-decoration:none;text-decoration-line:none;text-decoration-style:solid;text-decoration-color:#000000;letter-spacing:0px;word-spacing:0px;text-transform:none;writing-mode:lr-tb;direction:ltr;text-orientation:mixed;dominant-baseline:auto;baseline-shift:baseline;text-anchor:middle;white-space:normal;shape-padding:0;opacity:1;vector-effect:none;fill:#000000;fill-opacity:1;stroke:none;stroke-width:4.97660828;stroke-linecap:butt;stroke-linejoin:miter;stroke-miterlimit:4;stroke-dasharray:none;stroke-dashoffset:0;stroke-opacity:1"
     id="text1423-3-8-4"
     transform="matrix(0.20094006,0,0,0.20094006,73.840123,23.537991)">
    <path
       d="M -272.15187,-80.156249 Q -256.27981,-80.156249 -247.21002,-61.782103 -243.92608,-54.510639 -243.76976,-50.67943 H -243.53517 Q -240.79857,-63.34586 -233.60529,-71.711963 -225.161,-80.156249 -214.60562,-80.156249 -198.26439,-80.156249 -188.41277,-62.642174 -185.91076,-56.152579 -185.91076,-50.444872 -185.91076,-30.897913 -202.17383,-13.149269 L -243.53517,36.500002 H -244.00425 L -287.94586,-17.371412 Q -301.08142,-33.399923 -301.08142,-50.444872 -301.08142,-66.9425 -285.52201,-76.637792 -278.95424,-80.156249 -272.15187,-80.156249 Z"
       style="stroke:none;stroke-width:4.97660828;stroke-opacity:1"
       id="path1425-8-8-3"
       inkscape:connector-curvature="0" />
  </g>
  <g
     aria-label="♥"
     style="font-style:normal;font-variant:normal;font-weight:normal;font-stretch:normal;font-size:16px;line-height:1;font-family:sans-serif;-inkscape-font-specification:'sans-serif, Normal';font-variant-ligatures:normal;font-variant-position:normal;font-variant-caps:normal;font-variant-numeric:normal;font-variant-alternates:normal;text-indent:0;text-align:center;text-decoration:none;text-decoration-line:none;text-decoration-style:solid;text-decoration-color:#000000;letter-spacing:0px;word-spacing:0px;text-transform:none;writing-mode:lr-tb;direction:ltr;text-orientation:mixed;dominant-baseline:auto;baseline-shift:baseline;text-anchor:middle;white-space:normal;shape-padding:0;opacity:1;vector-effect:none;fill:#000000;fill-opacity:1;stroke:none;stroke-width:4.97660828;stroke-linecap:butt;stroke-linejoin:miter;stroke-miterlimit:4;stroke-dasharray:none;stroke-dashoffset:0;stroke-opacity:1"
     id="text1423-3-4"
     transform="matrix(0.20094006,0,0,0.20094006,112.09012,93.93799)">
    <path
       d="M -272.15187,-80.156249 Q -256.27981,-80.156249 -247.21002,-61.782103 -243.92608,-54.510639 -243.76976,-50.67943 H -243.53517 Q -240.79857,-63.34586 -233.60529,-71.711963 -225.161,-80.156249 -214.60562,-80.156249 -198.26439,-80.156249 -188.41277,-62.642174 -185.91076,-56.152579 -185.91076,-50.444872 -185.91076,-30.897913 -202.17383,-13.149269 L -243.53517,36.500002 H -244.00425 L -287.94586,-17.371412 Q -301.08142,-33.399923 -301.08142,-50.444872 -301.08142,-66.9425 -285.52201,-76.637792 -278.95424,-80.156249 -272.15187,-80.156249 Z"
       style="stroke:none;stroke-width:4.97660828;stroke-opacity:1"
       id="path1425-8-0"
       inkscape:connector-curvature="0" />
  </g>
  <g
     aria-label="♥"
     style="font-style:normal;font-variant:normal;font-weight:normal;font-stretch:normal;font-size:16px;line-height:1;font-family:sans-serif;-inkscape-font-specification:'sans-serif, Normal';font-variant-ligatures:normal;font-variant-position:normal;font-variant-caps:normal;font-variant-numeric:normal;font-variant-alternates:normal;text-indent:0;text-align:center;text-decoration:none;text-decoration-line:none;text-decoration-style:solid;text-decoration-color:#000000;letter-spacing:0px;word-spacing:0px;text-transform:none;writing-mode:lr-tb;direction:ltr;text-orientation:mixed;dominant-baseline:auto;baseline-shift:baseline;text-anchor:middle;white-space:normal;shape-padding:0;opacity:1;vector-effect:none;fill:#000000;fill-opacity:1;stroke:none;stroke-width:4.97660828;stroke-linecap:butt;stroke-linejoin:miter;stroke-miterlimit:4;stroke-dasharray:none;stroke-dashoffset:0;stroke-opacity:1"
     id="text1423-3-8-5"
     transform="matrix(0.20094006,0,0,0.20094006,86.490123,93.93799)">
    <path
       d="M -272.15187,-80.156249 Q -256.27981,-80.156249 -247.21002,-61.782103 -243.92608,-54.510639 -243.76976,-50.67943 H -243.53517 Q -240.79857,-63.34586 -233.60529,-71.711963 -225.161,-80.156249 -214.60562,-80.156249 -198.26439,-80.156249 -188.41277,-62.642174 -185.91076,-56.152579 -185.91076,-50.444872 -185.91076,-30.897913 -202.17383,-13.149269 L -243.53517,36.500002 H -244.00425 L -287.94586,-17.371412 Q -301.08142,-33.399923 -301.08142,-50.444872 -301.08142,-66.9425 -285.52201,-76.637792 -278.95424,-80.156249 -272.15187,-80.156249 Z"
       style="stroke:none;stroke-width:4.97660828;stroke-opacity:1"
       id="path1425-8-8-9"
       inkscape:connector-curvature="0" />
  </g>
  <g
     aria-label="♥"
     style="font-style:normal;font-variant:normal;font-weight:normal;font-stretch:normal;font-size:16px;line-height:1;font-family:sans-serif;-inkscape-font-specification:'sans-serif, Normal';font-variant-ligatures:normal;font-variant-position:normal;font-variant-caps:normal;font-variant-numeric:normal;font-variant-alternates:normal;text-indent:0;text-align:center;text-decoration:none;text-decoration-line:none;text-decoration-style:solid;text-decoration-color:#000000;letter-spacing:0px;word-spacing:0px;text-transform:none;writing-mode:lr-tb;direction:ltr;text-orientation:mixed;dominant-baseline:auto;baseline-shift:baseline;text-anchor:middle;white-space:normal;shape-padding:0;opacity:1;vector-effect:none;fill:#000000;fill-opacity:1;stroke:none;stroke-width:4.97660828;stroke-linecap:butt;stroke-linejoin:miter;stroke-miterlimit:4;stroke-dasharray:none;stroke-dashoffset:0;stroke-opacity:1"
     id="text1423-3-9-4"
     transform="matrix(0.20094006,0,0,0.20094006,99.44012,71.537991)">
    <path
       d="M -272.15187,-80.156249 Q -256.27981,-80.156249 -247.21002,-61.782103 -243.92608,-54.510639 -243.76976,-50.67943 H -243.53517 Q -240.79857,-63.34586 -233.60529,-71.711963 -225.161,-80.156249 -214.60562,-80.156249 -198.26439,-80.156249 -188.41277,-62.642174 -185.91076,-56.152579 -185.91076,-50.444872 -185.91076,-30.897913 -202.17383,-13.149269 L -243.53517,36.500002 H -244.00425 L -287.94586,-17.371412 Q -301.08142,-33.399923 -301.08142,-50.444872 -301.08142,-66.9425 -285.52201,-76.637792 -278.95424,-80.156249 -272.15187,-80.156249 Z"
       style="stroke:none;stroke-width:4.97660828;stroke-opacity:1"
       id="path1425-8-7-6"
       inkscape:connector-curvature="0" />
  </g>
  <g
     aria-label="♥"
     style="font-style:normal;font-variant:normal;font-weight:normal;font-stretch:normal;font-size:16px;line-height:1;font-family:sans-serif;-inkscape-font-specification:'sans-serif, Normal';font-variant-ligatures:normal;font-variant-position:normal;font-variant-caps:normal;font-variant-numeric:normal;font-variant-alternates:normal;text-indent:0;text-align:center;text-decoration:none;text-decoration-line:none;text-decoration-style:solid;text-decoration-color:#000000;letter-spacing:0px;word-spacing:0px;text-transform:none;writing-mode:lr-tb;direction:ltr;text-orientation:mixed;dominant-baseline:auto;baseline-shift:baseline;text-anchor:middle;white-space:normal;shape-padding:0;opacity:1;vector-effect:none;fill:#000000;fill-opacity:1;stroke:none;stroke-width:4.97660828;stroke-linecap:butt;stroke-linejoin:miter;stroke-miterlimit:4;stroke-dasharray:none;stroke-dashoffset:0;stroke-opacity:1"
     id="text1423-7-60-7-9"
     transform="matrix(0.20094006,0,0,0.20094006,124.01612,71.53799)">
    <path
       d="M -272.15187,-80.156249 Q -256.27981,-80.156249 -247.21002,-61.782103 -243.92608,-54.510639 -243.76976,-50.67943 H -243.53517 Q -240.79857,-63.34586 -233.60529,-71.711963 -225.161,-80.156249 -214.60562,-80.156249 -198.26439,-80.156249 -188.41277,-62.642174 -185.91076,-56.152579 -185.91076,-50.444872 -185.91076,-30.897913 -202.17383,-13.149269 L -243.53517,36.500002 H -244.00425 L -287.94586,-17.371412 Q -301.08142,-33.399923 -301.08142,-50.444872 -301.08142,-66.9425 -285.52201,-76.637792 -278.95424,-80.156249 -272.15187,-80.156249 Z"
       style="stroke:none;stroke-width:4.97660828;stroke-opacity:1"
       id="path1425-4-48-6-2"
       inkscape:connector-curvature="0" />
  </g>
  <g
     aria-label="♥"
     style="font-style:normal;font-variant:normal;font-weight:normal;font-stretch:normal;font-size:16px;line-height:1;font-family:sans-serif;-inkscape-font-specification:'sans-serif, Normal';font-variant-ligatures:normal;font-variant-position:normal;font-variant-caps:normal;font-variant-numeric:normal;font-variant-alternates:normal;text-indent:0;text-align:center;text-decoration:none;text-decoration-line:none;text-decoration-style:solid;text-decoration-color:#000000;letter-spacing:0px;word-spacing:0px;text-transform:none;writing-mode:lr-tb;direction:ltr;text-orientation:mixed;dominant-baseline:auto;baseline-shift:baseline;text-anchor:middle;white-space:normal;shape-padding:0;opacity:1;vector-effect:none;fill:#000000;fill-opacity:1;stroke:none;stroke-width:4.97660828;stroke-linecap:butt;stroke-linejoin:miter;stroke-miterlimit:4;stroke-dasharray:none;stroke-dashoffset:0;stroke-opacity:1"
     id="text1423-3-8-4-2"
     transform="matrix(0.20094006,0,0,0.20094006,73.840123,71.537991)">
    <path
       d="M -272.15187,-80.156249 Q -256.27981,-80.156249 -247.21002,-61.782103 -243.92608,-54.510639 -243.76976,-50.67943 H -243.53517 Q -240.79857,-63.34586 -233.60529,-71.711963 -225.161,-80.156249 -214.60562,-80.156249 -198.26439,-80.156249 -188.41277,-62.642174 -185.91076,-56.152579 -185.91076,-50.444872 -185.91076,-30.897913 -202.17383,-13.149269 L -243.53517,36.500002 H -244.00425 L -287.94586,-17.371412 Q -301.08142,-33.399923 -301.08142,-50.444872 -301.08142,-66.9425 -285.52201,-76.637792 -278.95424,-80.156249 -272.15187,-80.156249 Z"
       style="stroke:none;stroke-width:4.97660828;stroke-opacity:1"
       id="path1425-8-8-3-4"
       inkscape:connector-curvature="0" />
  </g>
</svg>
