<?xml version="1.0" encoding="UTF-8" standalone="no"?>
<svg
   xmlns:dc="http://purl.org/dc/elements/1.1/"
   xmlns:cc="http://creativecommons.org/ns#"
   xmlns:rdf="http://www.w3.org/1999/02/22-rdf-syntax-ns#"
   xmlns:svg="http://www.w3.org/2000/svg"
   xmlns="http://www.w3.org/2000/svg"
   xmlns:sodipodi="http://sodipodi.sourceforge.net/DTD/sodipodi-0.dtd"
   xmlns:inkscape="http://www.inkscape.org/namespaces/inkscape"
   viewBox="0 0 100 110"
   version="1.1"
   id="svg4"
   sodipodi:docname="orle.svg"
   inkscape:version="0.92.4 (5da689c313, 2019-01-14)">
  <metadata
     id="metadata10">
    <rdf:RDF>
      <cc:Work
         rdf:about="">
        <dc:format>image/svg+xml</dc:format>
        <dc:type
           rdf:resource="http://purl.org/dc/dcmitype/StillImage" />
        <dc:title></dc:title>
      </cc:Work>
    </rdf:RDF>
  </metadata>
  <defs
     id="defs8" />
  <sodipodi:namedview
     pagecolor="#ffffff"
     bordercolor="#666666"
     borderopacity="1"
     objecttolerance="10"
     gridtolerance="10"
     guidetolerance="10"
     inkscape:pageopacity="0"
     inkscape:pageshadow="2"
     inkscape:window-width="1868"
     inkscape:window-height="1016"
     id="namedview6"
     showgrid="false"
     inkscape:zoom="2.1454545"
     inkscape:cx="50"
     inkscape:cy="55"
     inkscape:window-x="52"
     inkscape:window-y="27"
     inkscape:window-maximized="1"
     inkscape:current-layer="svg4" />
  <path
     d="M 10 11.089844 L 10 45.720703 C 10 48.110328 10.15625 50.40869 10.449219 52.619141 C 10.742188 54.829592 11.171875 56.953027 11.71875 58.988281 C 12.265625 61.023535 12.929688 62.971905 13.691406 64.835938 C 14.453125 66.69997 15.3125 68.478993 16.25 70.175781 C 17.1875 71.872569 18.203125 73.486012 19.277344 75.019531 C 20.351562 76.553051 21.484375 78.006632 22.65625 79.380859 C 25 82.129314 27.5 84.562122 30 86.697266 C 32.5 88.832409 35 90.669014 37.34375 92.222656 C 39.6875 93.776299 41.875 95.048783 43.75 96.052734 C 47.5 98.060638 50 99 50 99 C 50 99 52.5 98.060638 56.25 96.052734 C 58.125 95.048783 60.3125 93.776299 62.65625 92.222656 C 65 90.669014 67.5 88.832409 70 86.697266 C 72.5 84.562122 75 82.129314 77.34375 79.380859 C 78.515625 78.006632 79.648438 76.553051 80.722656 75.019531 C 81.796875 73.486012 82.8125 71.872569 83.75 70.175781 C 84.6875 68.478993 85.546875 66.69997 86.308594 64.835938 C 87.070312 62.971905 87.734375 61.023535 88.28125 58.988281 C 88.828125 56.953027 89.257812 54.829592 89.550781 52.619141 C 89.84375 50.40869 90 48.110328 90 45.720703 L 90 11.089844 L 10 11.089844 z M 18 19.873047 L 82 19.873047 L 82 47.578125 C 82 49.489825 81.875 51.327347 81.640625 53.095703 C 81.40625 54.864059 81.0625 56.563213 80.625 58.191406 C 80.1875 59.8196 79.65625 61.377928 79.046875 62.869141 C 78.4375 64.360354 77.75 65.783211 77 67.140625 C 75.5 69.855453 73.75 72.307137 71.875 74.505859 C 70 76.704582 68 78.651304 66 80.359375 C 64 82.067446 62 83.536424 60.125 84.779297 C 58.25 86.02217 56.5 87.038669 55 87.841797 C 52 89.448054 50 90.199219 50 90.199219 C 50 90.199219 48 89.448054 45 87.841797 C 43.5 87.038669 41.75 86.02217 39.875 84.779297 C 38 83.536424 36 82.067446 34 80.359375 C 32 78.651304 30 76.704582 28.125 74.505859 C 26.25 72.307137 24.5 69.855453 23 67.140625 C 22.25 65.783211 21.5625 64.360354 20.953125 62.869141 C 20.34375 61.377928 19.8125 59.8196 19.375 58.191406 C 18.9375 56.563213 18.59375 54.864059 18.359375 53.095703 C 18.125 51.327347 18 49.489825 18 47.578125 L 18 19.873047 z "
     id="path869" />
</svg>
