<?xml version="1.0" encoding="UTF-8" standalone="no"?>
<svg
   xmlns:dc="http://purl.org/dc/elements/1.1/"
   xmlns:cc="http://creativecommons.org/ns#"
   xmlns:rdf="http://www.w3.org/1999/02/22-rdf-syntax-ns#"
   xmlns:svg="http://www.w3.org/2000/svg"
   xmlns="http://www.w3.org/2000/svg"
   xmlns:sodipodi="http://sodipodi.sourceforge.net/DTD/sodipodi-0.dtd"
   xmlns:inkscape="http://www.inkscape.org/namespaces/inkscape"
   viewBox="0 0 100 110"
   version="1.1"
   id="svg23"
   sodipodi:docname="three.svg"
   inkscape:version="0.92.4 (5da689c313, 2019-01-14)">
  <metadata
     id="metadata29">
    <rdf:RDF>
      <cc:Work
         rdf:about="">
        <dc:format>image/svg+xml</dc:format>
        <dc:type
           rdf:resource="http://purl.org/dc/dcmitype/StillImage" />
        <dc:title />
      </cc:Work>
    </rdf:RDF>
  </metadata>
  <defs
     id="defs27" />
  <sodipodi:namedview
     pagecolor="#ffffff"
     bordercolor="#666666"
     borderopacity="1"
     objecttolerance="10"
     gridtolerance="10"
     guidetolerance="10"
     inkscape:pageopacity="0"
     inkscape:pageshadow="2"
     inkscape:window-width="1920"
     inkscape:window-height="1020"
     id="namedview25"
     showgrid="false"
     inkscape:zoom="4.2909091"
     inkscape:cx="10.391784"
     inkscape:cy="79.793473"
     inkscape:window-x="0"
     inkscape:window-y="0"
     inkscape:window-maximized="1"
     inkscape:current-layer="svg23"
     inkscape:snap-bbox="true"
     inkscape:bbox-paths="true"
     inkscape:bbox-nodes="true" />
  <path
     style="opacity:1;vector-effect:none;fill:#000000;fill-opacity:1;fill-rule:nonzero;stroke:none;stroke-width:0.17727548;stroke-linecap:round;stroke-linejoin:round;stroke-miterlimit:4;stroke-dasharray:none;stroke-dashoffset:0;stroke-opacity:1;paint-order:markers stroke fill"
     d="m -4.9999986,15.716007 v 10.476001 c 4.44961235,0 7.0383435,5.237999 11.0000002,5.237999 3.9616572,0 6.5503874,-5.237999 10.9999994,-5.237999 4.449612,0 7.038343,5.237999 11.000001,5.237999 3.961655,0 6.550386,-5.237999 11.000001,-5.237999 4.449611,0 7.038343,5.237999 10.999998,5.237999 3.961657,0 6.550389,-5.237999 11,-5.237999 4.449614,0 7.038344,5.237999 11,5.237999 3.961658,0 6.550389,-5.237999 11.000001,-5.237999 4.449612,0 7.038344,5.237999 11,5.237999 3.961661,0 6.550388,-5.237999 10.999998,-5.237999 V 15.716007 c -4.44961,0 -7.015228,5.237999 -10.999998,5.237999 -3.984766,0 -6.550388,-5.237999 -11,-5.237999 -4.449612,0 -7.015234,5.237999 -11.000001,5.237999 -3.984765,0 -6.550386,-5.237999 -11,-5.237999 -4.449611,0 -7.015232,5.237999 -11,5.237999 -3.984766,0 -6.550387,-5.237999 -10.999998,-5.237999 -4.449615,0 -7.015235,5.237999 -11.000001,5.237999 -3.984768,0 -6.550389,-5.237999 -11.000001,-5.237999 -4.449612,0 -7.0152333,5.237999 -10.9999994,5.237999 -3.9847667,0 -6.55038785,-5.237999 -11.0000002,-5.237999 z"
     id="rect819-5-8-0-64"
     inkscape:connector-curvature="0" />
  <path
     style="opacity:1;vector-effect:none;fill:#000000;fill-opacity:1;fill-rule:nonzero;stroke:none;stroke-width:0.17727548;stroke-linecap:round;stroke-linejoin:round;stroke-miterlimit:4;stroke-dasharray:none;stroke-dashoffset:0;stroke-opacity:1;paint-order:markers stroke fill"
     d="m -4.9999986,47.144005 v 10.476001 c 4.44961233,0 7.0383435,5.237999 11,5.237999 3.961657,0 6.5503876,-5.237999 10.9999996,-5.237999 4.449612,0 7.038343,5.237999 11.000001,5.237999 3.961655,0 6.550386,-5.237999 11.000001,-5.237999 4.449611,0 7.038343,5.237999 10.999998,5.237999 3.961657,0 6.550389,-5.237999 11,-5.237999 4.449614,0 7.038344,5.237999 11,5.237999 3.961658,0 6.550389,-5.237999 11.000001,-5.237999 4.449612,0 7.038344,5.237999 11,5.237999 3.961659,0 6.550388,-5.237999 10.999998,-5.237999 V 47.144005 c -4.44961,0 -7.015229,5.237999 -10.999998,5.237999 -3.984766,0 -6.550388,-5.237999 -11,-5.237999 -4.449612,0 -7.015234,5.237999 -11.000001,5.237999 -3.984765,0 -6.550386,-5.237999 -11,-5.237999 -4.449611,0 -7.015232,5.237999 -11,5.237999 -3.984766,0 -6.550387,-5.237999 -10.999998,-5.237999 -4.449615,0 -7.015235,5.237999 -11.000001,5.237999 -3.984768,0 -6.550389,-5.237999 -11.000001,-5.237999 -4.449612,0 -7.0152336,5.237999 -10.9999996,5.237999 -3.9847665,0 -6.55038757,-5.237999 -11,-5.237999 z"
     id="rect819-5-8-0-64-6"
     inkscape:connector-curvature="0" />
  <path
     style="opacity:1;vector-effect:none;fill:#000000;fill-opacity:1;fill-rule:nonzero;stroke:none;stroke-width:0.17727548;stroke-linecap:round;stroke-linejoin:round;stroke-miterlimit:4;stroke-dasharray:none;stroke-dashoffset:0;stroke-opacity:1;paint-order:markers stroke fill"
     d="m -4.9999986,78.571998 v 10.476001 c 4.44961233,0 7.0383435,5.237999 11,5.237999 3.961657,0 6.5503876,-5.237999 10.9999996,-5.237999 4.449612,0 7.038343,5.237999 11.000001,5.237999 3.961655,0 6.550386,-5.237999 11.000001,-5.237999 4.449611,0 7.038343,5.237999 10.999998,5.237999 3.961657,0 6.550389,-5.237999 11,-5.237999 4.449614,0 7.038344,5.237999 11,5.237999 3.961658,0 6.550389,-5.237999 11.000001,-5.237999 4.449612,0 7.038344,5.237999 11,5.237999 3.961659,0 6.550388,-5.237999 10.999998,-5.237999 V 78.571998 c -4.44961,0 -7.015229,5.237999 -10.999998,5.237999 -3.984766,0 -6.550388,-5.237999 -11,-5.237999 -4.449612,0 -7.015234,5.237999 -11.000001,5.237999 -3.984765,0 -6.550386,-5.237999 -11,-5.237999 -4.449611,0 -7.015232,5.237999 -11,5.237999 -3.984766,0 -6.550387,-5.237999 -10.999998,-5.237999 -4.449615,0 -7.015235,5.237999 -11.000001,5.237999 -3.984768,0 -6.550389,-5.237999 -11.000001,-5.237999 -4.449612,0 -7.0152336,5.237999 -10.9999996,5.237999 -3.9847665,0 -6.55038757,-5.237999 -11,-5.237999 z"
     id="rect819-5-8-0-64-6-0"
     inkscape:connector-curvature="0" />
</svg>
