<?xml version="1.0" encoding="UTF-8"?>
<svg version="1.1" viewBox="0 0 100 110" xmlns="http://www.w3.org/2000/svg" xmlns:cc="http://creativecommons.org/ns#" xmlns:dc="http://purl.org/dc/elements/1.1/" xmlns:rdf="http://www.w3.org/1999/02/22-rdf-syntax-ns#" xmlns:xlink="http://www.w3.org/1999/xlink">
 <metadata>
  <rdf:RDF>
   <cc:Work rdf:about="">
    <dc:format>image/svg+xml</dc:format>
    <dc:type rdf:resource="http://purl.org/dc/dcmitype/StillImage"/>
    <dc:title/>
   </cc:Work>
  </rdf:RDF>
 </metadata>
 <path id="use844" d="m19.51 8.316 4.489 9.093 10.04 1.458-7.263 7.08 1.715 9.999-8.975-4.72-8.975 4.72 1.715-9.999-7.263-7.08 10.04-1.458z" stroke-width=".7368" style="paint-order:markers fill stroke"/>
 <path id="use1073" d="m19.51 38.68 4.489 9.093 10.04 1.458-7.263 7.08 1.715 9.999-8.975-4.72-8.975 4.72 1.715-9.999-7.263-7.08 10.04-1.458z" stroke-width=".7368" style="paint-order:markers fill stroke"/>
 <use id="use1081" transform="matrix(-1 0 0 1 100.1 0)" width="100%" height="100%" xlink:href="#use844"/>
 <use transform="matrix(-1 0 0 1 100.1 0)" width="100%" height="100%" xlink:href="#use1073"/>
 <use id="use1133" transform="translate(30,32)" width="100%" height="100%" xlink:href="#use844"/>
 <use id="use1183" transform="translate(0,-30)" width="100%" height="100%" xlink:href="#use1133"/>
 <use transform="translate(0,60)" width="100%" height="100%" xlink:href="#use844"/>
 <use transform="translate(0,60)" width="100%" height="100%" xlink:href="#use1081"/>
 <use transform="translate(0,60)" width="100%" height="100%" xlink:href="#use1183"/>
</svg>
