<?xml version="1.0" encoding="UTF-8"?>
<svg version="1.1" viewBox="0 0 100 110" xmlns="http://www.w3.org/2000/svg" xmlns:cc="http://creativecommons.org/ns#" xmlns:dc="http://purl.org/dc/elements/1.1/" xmlns:rdf="http://www.w3.org/1999/02/22-rdf-syntax-ns#" xmlns:xlink="http://www.w3.org/1999/xlink">
 <metadata>
  <rdf:RDF>
   <cc:Work rdf:about="">
    <dc:format>image/svg+xml</dc:format>
    <dc:type rdf:resource="http://purl.org/dc/dcmitype/StillImage"/>
    <dc:title/>
   </cc:Work>
  </rdf:RDF>
 </metadata>
 <g id="g10" transform="matrix(.2597 0 0 .2597 15.94 6.131)">
  <text x="-52.679455" y="21.611652" fill="#000000" font-family="monospace" font-size="16px" letter-spacing="0px" word-spacing="0px" style="font-feature-settings:normal;font-variant-caps:normal;font-variant-ligatures:normal;font-variant-numeric:normal;line-height:20px" xml:space="preserve"/>
  <text x="-52.414291" y="15.998991" fill="#000000" font-family="monospace" font-size="16px" letter-spacing="0px" word-spacing="0px" style="font-feature-settings:normal;font-variant-caps:normal;font-variant-ligatures:normal;font-variant-numeric:normal;line-height:20px" xml:space="preserve"/>
  <path d="m-6.108-8.794 12.18 24.69 27.25 3.959-19.71 19.22 4.654 27.14-24.37-12.81-24.37 12.81 4.654-27.14-19.71-19.22 27.25-3.959z" style="paint-order:markers fill stroke"/>
 </g>
 <use id="use975" transform="translate(14.92 23.6)" width="100%" height="100%" xlink:href="#g10"/>
 <use transform="translate(56.88 55.93)" width="100%" height="100%" xlink:href="#use975"/>
 <use id="use1049" transform="translate(54.8 25.23)" width="100%" height="100%" xlink:href="#use975"/>
 <use transform="translate(21.4 -24.59)" width="100%" height="100%" xlink:href="#use975"/>
 <use id="use1107" transform="translate(-1.333 -51.66)" width="100%" height="100%" xlink:href="#use1049"/>
 <use transform="translate(-39.42 -3.591)" width="100%" height="100%" xlink:href="#use1049"/>
 <use transform="translate(-21.27 27.74)" width="100%" height="100%" xlink:href="#use1107"/>
 <use transform="translate(4.939 24.84)" width="100%" height="100%" xlink:href="#use1107"/>
 <use transform="translate(-19.32 15.83)" width="100%" height="100%" xlink:href="#use1049"/>
</svg>
