<?xml version="1.0" encoding="UTF-8"?>
<svg version="1.1" viewBox="0 0 100 110" xmlns="http://www.w3.org/2000/svg" xmlns:cc="http://creativecommons.org/ns#" xmlns:dc="http://purl.org/dc/elements/1.1/" xmlns:rdf="http://www.w3.org/1999/02/22-rdf-syntax-ns#">
 <metadata>
  <rdf:RDF>
   <cc:Work rdf:about="">
    <dc:format>image/svg+xml</dc:format>
    <dc:type rdf:resource="http://purl.org/dc/dcmitype/StillImage"/>
    <dc:title/>
   </cc:Work>
  </rdf:RDF>
 </metadata>
 <clipPath id="escu">
  <rect width="100" height="120"/>
 </clipPath>
 <path d="m50 7.5a7.5 7.5 0 0 0-7.5 7.5 7.5 7.5 0 0 0 2.5 5.58v19.42h-19.42a7.5 7.5 0 0 0-5.578-2.5 7.5 7.5 0 0 0-7.5 7.5 7.5 7.5 0 0 0 7.5 7.5 7.5 7.5 0 0 0 5.58-2.5h19.42v19.42a7.5 7.5 0 0 0-2.5 5.578 7.5 7.5 0 0 0 7.5 7.5 7.5 7.5 0 0 0 7.5-7.5 7.5 7.5 0 0 0-2.5-5.58v-19.42h19.42a7.5 7.5 0 0 0 5.578 2.5 7.5 7.5 0 0 0 7.5-7.5 7.5 7.5 0 0 0-7.5-7.5 7.5 7.5 0 0 0-5.58 2.5h-19.42v-19.42a7.5 7.5 0 0 0 2.5-5.578 7.5 7.5 0 0 0-7.5-7.5zm0 3.75a3.75 3.75 0 0 1 3.75 3.75 3.75 3.75 0 0 1-3.75 3.75 3.75 3.75 0 0 1-3.75-3.75 3.75 3.75 0 0 1 3.75-3.75zm-30 30a3.75 3.75 0 0 1 3.75 3.75 3.75 3.75 0 0 1-3.75 3.75 3.75 3.75 0 0 1-3.75-3.75 3.75 3.75 0 0 1 3.75-3.75zm60 0a3.75 3.75 0 0 1 3.75 3.75 3.75 3.75 0 0 1-3.75 3.75 3.75 3.75 0 0 1-3.75-3.75 3.75 3.75 0 0 1 3.75-3.75zm-30 30a3.75 3.75 0 0 1 3.75 3.75 3.75 3.75 0 0 1-3.75 3.75 3.75 3.75 0 0 1-3.75-3.75 3.75 3.75 0 0 1 3.75-3.75z"/>
</svg>
