<?xml version="1.0" encoding="UTF-8"?>
<svg version="1.1" viewBox="0 0 100 110" xmlns="http://www.w3.org/2000/svg" xmlns:cc="http://creativecommons.org/ns#" xmlns:dc="http://purl.org/dc/elements/1.1/" xmlns:rdf="http://www.w3.org/1999/02/22-rdf-syntax-ns#">
 <metadata>
  <rdf:RDF>
   <cc:Work rdf:about="">
    <dc:format>image/svg+xml</dc:format>
    <dc:type rdf:resource="http://purl.org/dc/dcmitype/StillImage"/>
    <dc:title/>
   </cc:Work>
  </rdf:RDF>
 </metadata>
 <clipPath id="escu">
  <rect width="100" height="120"/>
 </clipPath>
 <path d="m68.72 7.815a4.475 4.475 0 0 0-4.475 4.475 4.475 4.475 0 0 0 1.492 3.329v11.59h-11.59a4.475 4.475 0 0 0-3.328-1.492 4.475 4.475 0 0 0-4.475 4.475 4.475 4.475 0 0 0 4.475 4.475 4.475 4.475 0 0 0 3.329-1.492h11.59v11.59a4.475 4.475 0 0 0-1.492 3.328 4.475 4.475 0 0 0 4.475 4.475 4.475 4.475 0 0 0 4.475-4.475 4.475 4.475 0 0 0-1.492-3.329v-11.59h11.59a4.475 4.475 0 0 0 3.328 1.492 4.475 4.475 0 0 0 4.475-4.475 4.475 4.475 0 0 0-4.475-4.475 4.475 4.475 0 0 0-3.329 1.492h-11.59v-11.59a4.475 4.475 0 0 0 1.492-3.328 4.475 4.475 0 0 0-4.475-4.475zm0 2.237a2.237 2.237 0 0 1 2.237 2.237 2.237 2.237 0 0 1-2.237 2.237 2.237 2.237 0 0 1-2.237-2.237 2.237 2.237 0 0 1 2.237-2.237zm-17.9 17.9a2.237 2.237 0 0 1 2.237 2.237 2.237 2.237 0 0 1-2.237 2.237 2.237 2.237 0 0 1-2.237-2.237 2.237 2.237 0 0 1 2.237-2.237zm35.8 0a2.237 2.237 0 0 1 2.237 2.237 2.237 2.237 0 0 1-2.237 2.237 2.237 2.237 0 0 1-2.237-2.237 2.237 2.237 0 0 1 2.237-2.237zm-17.9 17.9a2.237 2.237 0 0 1 2.237 2.237 2.237 2.237 0 0 1-2.237 2.237 2.237 2.237 0 0 1-2.237-2.237 2.237 2.237 0 0 1 2.237-2.237z"/>
</svg>
