<?xml version="1.0" encoding="UTF-8"?>
<svg version="1.1" viewBox="0 0 100 110" xmlns="http://www.w3.org/2000/svg" xmlns:cc="http://creativecommons.org/ns#" xmlns:dc="http://purl.org/dc/elements/1.1/" xmlns:rdf="http://www.w3.org/1999/02/22-rdf-syntax-ns#" xmlns:xlink="http://www.w3.org/1999/xlink">
 <metadata>
  <rdf:RDF>
   <cc:Work rdf:about="">
    <dc:format>image/svg+xml</dc:format>
    <dc:type rdf:resource="http://purl.org/dc/dcmitype/StillImage"/>
    <dc:title/>
   </cc:Work>
  </rdf:RDF>
 </metadata>
 <circle cx="50.31" cy="48.55" r="7.5" style="paint-order:markers stroke fill"/>
 <path id="path965" d="m50.5 7.347c2.109 4.346 1.245 3.522 4.72 0.621 0 0 0.8817 0.1144 0.5993 0.9766-10.82 15.79 8.623 30.74-4.739 39.59-0.08679 0.05751-0.2782-0.1525-0.3692-0.09765-0.09103-0.05488-1.092 0.1552-1.178 0.09765-13.36-8.853 6.08-23.8-4.739-39.59-0.2824-0.8622 0.5993-0.9766 0.5993-0.9766 3.48 2.905 2.609 3.727 4.73-0.6404 0.1943-0.4424 0.3312-0.09516 0.3762 0.01934z" opacity=".9872"/>
 <use id="use835" transform="matrix(1 0 0 -1 0 96.98)" width="100%" height="100%" fill="#000000" xlink:href="#path965"/>
 <use transform="rotate(-90 50.31 48.49)" width="100%" height="100%" xlink:href="#path965"/>
 <use transform="rotate(-90 50.31 48.49)" width="100%" height="100%" xlink:href="#use835"/>
</svg>
