<?xml version="1.0" encoding="UTF-8" standalone="no"?>
<svg
   xmlns:dc="http://purl.org/dc/elements/1.1/"
   xmlns:cc="http://creativecommons.org/ns#"
   xmlns:rdf="http://www.w3.org/1999/02/22-rdf-syntax-ns#"
   xmlns:svg="http://www.w3.org/2000/svg"
   xmlns="http://www.w3.org/2000/svg"
   xmlns:sodipodi="http://sodipodi.sourceforge.net/DTD/sodipodi-0.dtd"
   xmlns:inkscape="http://www.inkscape.org/namespaces/inkscape"
   id="svg36"
   version="1.1"
   viewBox="0 0 100 110"
   sodipodi:docname="cross_bowen.svg"
   inkscape:version="0.92.4 (5da689c313, 2019-01-14)">
  <defs
     id="defs825" />
  <sodipodi:namedview
     pagecolor="#ffffff"
     bordercolor="#666666"
     borderopacity="1"
     objecttolerance="10"
     gridtolerance="10"
     guidetolerance="10"
     inkscape:pageopacity="0"
     inkscape:pageshadow="2"
     inkscape:window-width="1920"
     inkscape:window-height="1020"
     id="namedview823"
     showgrid="false"
     showguides="true"
     inkscape:guide-bbox="true"
     inkscape:lockguides="false"
     inkscape:zoom="2"
     inkscape:cx="-8.9370003"
     inkscape:cy="55.02618"
     inkscape:window-x="0"
     inkscape:window-y="0"
     inkscape:window-maximized="1"
     inkscape:current-layer="svg36" />
  <metadata
     id="metadata42">
    <rdf:RDF>
      <cc:Work
         rdf:about="">
        <dc:format>image/svg+xml</dc:format>
        <dc:type
           rdf:resource="http://purl.org/dc/dcmitype/StillImage" />
        <dc:title />
      </cc:Work>
    </rdf:RDF>
  </metadata>
  <clipPath
     id="escu">
    <rect
       id="rect2"
       width="100"
       height="120" />
  </clipPath>
  <path
     style="opacity:1;vector-effect:none;fill:#000000;fill-opacity:1;fill-rule:nonzero;stroke:none;stroke-width:1.24999988;stroke-linecap:round;stroke-linejoin:round;stroke-miterlimit:4;stroke-dasharray:none;stroke-dashoffset:0;stroke-opacity:1;paint-order:markers stroke fill"
     d="M 49.988418,4.3693846 34.054355,20.303447 46.574571,32.823667 37.468196,41.930043 24.94798,29.409825 9.0139146,45.343885 24.94798,61.279625 37.468196,48.759408 46.574571,57.86411 34.054355,70.384325 49.988418,86.320068 65.924157,70.384325 53.403933,57.86411 l 9.1047,-9.104702 12.520225,12.520217 15.93574,-15.93574 -15.93574,-15.93406 -12.520225,12.520218 -9.1047,-9.1047 12.520224,-12.521896 z m 0,6.8293624 9.106375,9.1047 -9.106375,9.106378 -9.104698,-9.106378 z m -25.040438,25.04044 9.106375,9.104698 -9.106375,9.106375 -9.1047,-9.106375 z m 25.040438,0 9.106375,9.104698 -9.106375,9.106375 -9.104698,-9.106375 z m 25.04044,0 9.106375,9.104698 -9.106375,9.106375 -9.104701,-9.106375 z m -25.04044,25.040438 9.106375,9.1047 -9.106375,9.106378 -9.104698,-9.106378 z"
     id="rect827-3"
     inkscape:connector-curvature="0" />
</svg>
