<?xml version="1.0" encoding="UTF-8"?>
<svg version="1.1" viewBox="0 0 100 110" xmlns="http://www.w3.org/2000/svg" xmlns:cc="http://creativecommons.org/ns#" xmlns:dc="http://purl.org/dc/elements/1.1/" xmlns:rdf="http://www.w3.org/1999/02/22-rdf-syntax-ns#">
 <metadata>
  <rdf:RDF>
   <cc:Work rdf:about="">
    <dc:format>image/svg+xml</dc:format>
    <dc:type rdf:resource="http://purl.org/dc/dcmitype/StillImage"/>
    <dc:title/>
   </cc:Work>
  </rdf:RDF>
 </metadata>
 <clipPath id="escu">
  <rect width="100" height="120"/>
 </clipPath>
 <path d="m70.54 7.451-8.506 8.506 6.684 6.684-4.861 4.861-6.684-6.684-8.506 8.506 8.506 8.507 6.684-6.684 4.861 4.86-6.684 6.684 8.506 8.507 8.507-8.507-6.684-6.684 4.86-4.86 6.684 6.684 8.507-8.507-8.507-8.506-6.684 6.684-4.86-4.86 6.684-6.685zm0 3.646 4.861 4.86-4.861 4.861-4.86-4.861zm-13.37 13.37 4.861 4.86-4.861 4.861-4.86-4.861zm13.37 0 4.861 4.86-4.861 4.861-4.86-4.861zm13.37 0 4.861 4.86-4.861 4.861-4.86-4.861zm-13.37 13.37 4.861 4.86-4.861 4.861-4.86-4.861z" style="paint-order:markers stroke fill"/>
</svg>
