<?xml version="1.0" encoding="UTF-8"?>
<svg version="1.1" viewBox="0 0 100 110" xmlns="http://www.w3.org/2000/svg" xmlns:cc="http://creativecommons.org/ns#" xmlns:dc="http://purl.org/dc/elements/1.1/" xmlns:rdf="http://www.w3.org/1999/02/22-rdf-syntax-ns#">
 <metadata>
  <rdf:RDF>
   <cc:Work rdf:about="">
    <dc:format>image/svg+xml</dc:format>
    <dc:type rdf:resource="http://purl.org/dc/dcmitype/StillImage"/>
    <dc:title/>
   </cc:Work>
  </rdf:RDF>
 </metadata>
 <clipPath id="escu">
  <rect width="100" height="120"/>
 </clipPath>
 <path d="m49.99 4.369-15.93 15.93 12.52 12.52-9.106 9.106-12.52-12.52-15.93 15.93 15.93 15.94 12.52-12.52 9.106 9.105-12.52 12.52 15.93 15.94 15.94-15.94-12.52-12.52 9.105-9.105 12.52 12.52 15.94-15.94-15.94-15.93-12.52 12.52-9.105-9.105 12.52-12.52zm0 6.829 9.106 9.105-9.106 9.106-9.105-9.106zm-25.04 25.04 9.106 9.105-9.106 9.106-9.105-9.106zm25.04 0 9.106 9.105-9.106 9.106-9.105-9.106zm25.04 0 9.106 9.105-9.106 9.106-9.105-9.106zm-25.04 25.04 9.106 9.105-9.106 9.106-9.105-9.106z" style="paint-order:markers stroke fill"/>
</svg>
