<?xml version="1.0" encoding="UTF-8"?>
<svg version="1.1" viewBox="0 0 100 110" xmlns="http://www.w3.org/2000/svg" xmlns:cc="http://creativecommons.org/ns#" xmlns:dc="http://purl.org/dc/elements/1.1/" xmlns:rdf="http://www.w3.org/1999/02/22-rdf-syntax-ns#">
 <metadata>
  <rdf:RDF>
   <cc:Work rdf:about="">
    <dc:format>image/svg+xml</dc:format>
    <dc:type rdf:resource="http://purl.org/dc/dcmitype/StillImage"/>
    <dc:title/>
   </cc:Work>
  </rdf:RDF>
 </metadata>
 <g transform="matrix(1.21 0 0 1.21 -10.49 -16.69)">
  <rect x="41.35" y="42.6" width="17.17" height="17.17" style="paint-order:normal"/>
  <path d="m33.37 28.8c-0.5178 1.071 1.057 2.526 2.215 2.797 1.218 0.2851 2.211-2.01 3.395-1.604 4.557 1.567 6.51 12.91 6.51 12.91h8.855s1.953-11.34 6.51-12.91c1.183-0.4069 2.176 1.889 3.395 1.604 1.158-0.2709 2.733-1.726 2.215-2.797-4.803-9.931-28.29-9.931-33.09 0z"/>
  <path d="m66.46 73c0.5178-1.071-1.057-2.526-2.215-2.797-1.218-0.2851-2.211 2.01-3.395 1.604-4.557-1.567-6.51-12.91-6.51-12.91h-8.855s-1.953 11.34-6.51 12.91c-1.183 0.4069-2.176-1.889-3.395-1.604-1.158 0.2709-2.733 1.726-2.215 2.797 4.803 9.931 28.29 9.931 33.09 0z"/>
  <path d="m28.18 67.62c1.071 0.5178 2.526-1.057 2.797-2.215 0.2851-1.218-2.01-2.211-1.604-3.395 1.567-4.557 12.91-6.51 12.91-6.51v-8.855s-11.34-1.953-12.91-6.51c-0.4069-1.183 1.889-2.176 1.604-3.395-0.2709-1.158-1.726-2.733-2.797-2.215-9.931 4.803-9.931 28.29 0 33.09z"/>
  <path d="m71.7 67.62c-1.071 0.5178-2.526-1.057-2.797-2.215-0.2851-1.218 2.01-2.211 1.604-3.395-1.567-4.557-12.91-6.51-12.91-6.51v-8.855s11.34-1.953 12.91-6.51c0.4069-1.183-1.889-2.176-1.604-3.395 0.2709-1.158 1.726-2.733 2.797-2.215 9.931 4.803 9.931 28.29 0 33.09z"/>
 </g>
</svg>
