<?xml version="1.0" encoding="UTF-8"?>
<svg version="1.1" viewBox="0 0 100 110" xmlns="http://www.w3.org/2000/svg" xmlns:cc="http://creativecommons.org/ns#" xmlns:dc="http://purl.org/dc/elements/1.1/" xmlns:rdf="http://www.w3.org/1999/02/22-rdf-syntax-ns#">
 <metadata>
  <rdf:RDF>
   <cc:Work rdf:about="">
    <dc:format>image/svg+xml</dc:format>
    <dc:type rdf:resource="http://purl.org/dc/dcmitype/StillImage"/>
    <dc:title/>
   </cc:Work>
  </rdf:RDF>
 </metadata>
 <path d="m67.18 8.722v10.55a12.84 12.84 0 0 0-11.13 11.12h-10.55v3.211h10.55a12.84 12.84 0 0 0 11.12 11.13v10.55h3.211v-10.55a12.84 12.84 0 0 0 11.13-11.12h10.55v-3.211h-10.55a12.84 12.84 0 0 0-11.12-11.13v-10.55zm1.606 13.65a9.633 9.633 0 0 1 9.633 9.633 9.633 9.633 0 0 1-9.633 9.633 9.633 9.633 0 0 1-9.633-9.633 9.633 9.633 0 0 1 9.633-9.633z" stroke-width=".6422"/>
</svg>
