<?xml version="1.0" encoding="UTF-8"?>
<svg version="1.1" viewBox="0 0 100 110" xmlns="http://www.w3.org/2000/svg" xmlns:cc="http://creativecommons.org/ns#" xmlns:dc="http://purl.org/dc/elements/1.1/" xmlns:rdf="http://www.w3.org/1999/02/22-rdf-syntax-ns#">
 <metadata>
  <rdf:RDF>
   <cc:Work rdf:about="">
    <dc:format>image/svg+xml</dc:format>
    <dc:type rdf:resource="http://purl.org/dc/dcmitype/StillImage"/>
    <dc:title/>
   </cc:Work>
  </rdf:RDF>
 </metadata>
 <path d="m64.09 12.91a5.298 5.298 0 0 0-3.296 4.901 5.298 5.298 0 0 0 2.145 4.25v11.52h-11.52a5.298 5.298 0 0 0-4.25-2.145 5.298 5.298 0 0 0-4.936 3.373 3.153 3.153 0 0 1 2.571-1.332 3.153 3.153 0 0 1 3.153 3.153 3.153 3.153 0 0 1-3.153 3.153 3.153 3.153 0 0 1-2.715-1.558 5.298 5.298 0 0 0 5.08 3.806 5.298 5.298 0 0 0 4.25-2.145h11.52v11.52a5.298 5.298 0 0 0-2.145 4.25 5.298 5.298 0 0 0 3.996 5.13 3.153 3.153 0 0 1-1.851-2.869 3.153 3.153 0 0 1 3.153-3.153 3.153 3.153 0 0 1 3.153 3.153 3.153 3.153 0 0 1-1.849 2.866 5.298 5.298 0 0 0 3.993-5.128 5.298 5.298 0 0 0-2.145-4.25v-11.52h11.52a5.298 5.298 0 0 0 4.25 2.145 5.298 5.298 0 0 0 5.079-3.801 3.153 3.153 0 0 1-2.714 1.553 3.153 3.153 0 0 1-3.153-3.153 3.153 3.153 0 0 1 3.153-3.153 3.153 3.153 0 0 1 2.562 1.323 5.298 5.298 0 0 0-4.927-3.364 5.298 5.298 0 0 0-4.25 2.145h-11.52v-11.52a5.298 5.298 0 0 0 2.145-4.25 5.298 5.298 0 0 0-3.29-4.898 3.153 3.153 0 0 1 1.146 2.429 3.153 3.153 0 0 1-3.153 3.153 3.153 3.153 0 0 1-3.153-3.153 3.153 3.153 0 0 1 1.152-2.433z" stroke-width=".6307"/>
</svg>
