<?xml version="1.0" encoding="UTF-8" standalone="no"?>
<svg
   xmlns:dc="http://purl.org/dc/elements/1.1/"
   xmlns:cc="http://creativecommons.org/ns#"
   xmlns:rdf="http://www.w3.org/1999/02/22-rdf-syntax-ns#"
   xmlns:svg="http://www.w3.org/2000/svg"
   xmlns="http://www.w3.org/2000/svg"
   xmlns:sodipodi="http://sodipodi.sourceforge.net/DTD/sodipodi-0.dtd"
   xmlns:inkscape="http://www.inkscape.org/namespaces/inkscape"
   viewBox="0 0 100 110"
   version="1.1"
   id="svg36"
   sodipodi:docname="cross_crescenty.svg"
   inkscape:version="0.92.4 (5da689c313, 2019-01-14)">
  <metadata
     id="metadata42">
    <rdf:RDF>
      <cc:Work
         rdf:about="">
        <dc:format>image/svg+xml</dc:format>
        <dc:type
           rdf:resource="http://purl.org/dc/dcmitype/StillImage" />
      </cc:Work>
    </rdf:RDF>
  </metadata>
  <defs
     id="defs40" />
  <sodipodi:namedview
     pagecolor="#ffffff"
     bordercolor="#666666"
     borderopacity="1"
     objecttolerance="10"
     gridtolerance="10"
     guidetolerance="10"
     inkscape:pageopacity="0"
     inkscape:pageshadow="2"
     inkscape:window-width="1868"
     inkscape:window-height="1016"
     id="namedview38"
     showgrid="false"
     inkscape:zoom="4.2909091"
     inkscape:cx="24.416001"
     inkscape:cy="51.877268"
     inkscape:window-x="52"
     inkscape:window-y="27"
     inkscape:window-maximized="1"
     inkscape:current-layer="svg36" />
  <path
     d="M 46.826172 7.3925781 A 8.3999996 8.3999996 0 0 0 41.599609 15.164062 A 8.3999996 8.3999996 0 0 0 45 21.902344 L 45 40.164062 L 26.738281 40.164062 A 8.3999996 8.3999996 0 0 0 20 36.763672 A 8.3999996 8.3999996 0 0 0 12.173828 42.111328 A 5 5 0 0 1 16.25 40 A 5 5 0 0 1 21.25 45 A 5 5 0 0 1 16.25 50 A 5 5 0 0 1 11.945312 47.529297 A 8.3999996 8.3999996 0 0 0 20 53.564453 A 8.3999996 8.3999996 0 0 0 26.738281 50.164062 L 45 50.164062 L 45 68.425781 A 8.3999996 8.3999996 0 0 0 41.599609 75.164062 A 8.3999996 8.3999996 0 0 0 47.935547 83.298828 A 5 5 0 0 1 45 78.75 A 5 5 0 0 1 50 73.75 A 5 5 0 0 1 55 78.75 A 5 5 0 0 1 52.068359 83.294922 A 8.3999996 8.3999996 0 0 0 58.400391 75.164062 A 8.3999996 8.3999996 0 0 0 55 68.425781 L 55 50.164062 L 73.261719 50.164062 A 8.3999996 8.3999996 0 0 0 80 53.564453 A 8.3999996 8.3999996 0 0 0 88.052734 47.537109 A 5 5 0 0 1 83.75 50 A 5 5 0 0 1 78.75 45 A 5 5 0 0 1 83.75 40 A 5 5 0 0 1 87.8125 42.097656 A 8.3999996 8.3999996 0 0 0 80 36.763672 A 8.3999996 8.3999996 0 0 0 73.261719 40.164062 L 55 40.164062 L 55 21.902344 A 8.3999996 8.3999996 0 0 0 58.400391 15.164062 A 8.3999996 8.3999996 0 0 0 53.183594 7.3984375 A 5 5 0 0 1 55 11.25 A 5 5 0 0 1 50 16.25 A 5 5 0 0 1 45 11.25 A 5 5 0 0 1 46.826172 7.3925781 z "
     id="circle16" />
  <g
     id="g881"
     style="fill:#5fd35f" />
</svg>
