<?xml version="1.0" encoding="UTF-8"?>
<svg version="1.1" viewBox="0 0 100 110" xmlns="http://www.w3.org/2000/svg" xmlns:cc="http://creativecommons.org/ns#" xmlns:dc="http://purl.org/dc/elements/1.1/" xmlns:rdf="http://www.w3.org/1999/02/22-rdf-syntax-ns#">
 <metadata>
  <rdf:RDF>
   <cc:Work rdf:about="">
    <dc:format>image/svg+xml</dc:format>
    <dc:type rdf:resource="http://purl.org/dc/dcmitype/StillImage"/>
    <dc:title/>
   </cc:Work>
  </rdf:RDF>
 </metadata>
 <path d="m46.83 7.393a8.4 8.4 0 0 0-5.227 7.771 8.4 8.4 0 0 0 3.4 6.738v18.26h-18.26a8.4 8.4 0 0 0-6.738-3.4 8.4 8.4 0 0 0-7.826 5.348 5 5 0 0 1 4.076-2.111 5 5 0 0 1 5 5 5 5 0 0 1-5 5 5 5 0 0 1-4.305-2.471 8.4 8.4 0 0 0 8.055 6.035 8.4 8.4 0 0 0 6.738-3.4h18.26v18.26a8.4 8.4 0 0 0-3.4 6.738 8.4 8.4 0 0 0 6.336 8.135 5 5 0 0 1-2.936-4.549 5 5 0 0 1 5-5 5 5 0 0 1 5 5 5 5 0 0 1-2.932 4.545 8.4 8.4 0 0 0 6.332-8.131 8.4 8.4 0 0 0-3.4-6.738v-18.26h18.26a8.4 8.4 0 0 0 6.738 3.4 8.4 8.4 0 0 0 8.053-6.027 5 5 0 0 1-4.303 2.463 5 5 0 0 1-5-5 5 5 0 0 1 5-5 5 5 0 0 1 4.062 2.098 8.4 8.4 0 0 0-7.812-5.334 8.4 8.4 0 0 0-6.738 3.4h-18.26v-18.26a8.4 8.4 0 0 0 3.4-6.738 8.4 8.4 0 0 0-5.217-7.766 5 5 0 0 1 1.816 3.852 5 5 0 0 1-5 5 5 5 0 0 1-5-5 5 5 0 0 1 1.826-3.857z"/>
</svg>
