<?xml version="1.0" encoding="UTF-8" standalone="no"?>
<svg
   xmlns:dc="http://purl.org/dc/elements/1.1/"
   xmlns:cc="http://creativecommons.org/ns#"
   xmlns:rdf="http://www.w3.org/1999/02/22-rdf-syntax-ns#"
   xmlns:svg="http://www.w3.org/2000/svg"
   xmlns="http://www.w3.org/2000/svg"
   xmlns:sodipodi="http://sodipodi.sourceforge.net/DTD/sodipodi-0.dtd"
   xmlns:inkscape="http://www.inkscape.org/namespaces/inkscape"
   id="svg36"
   version="1.1"
   viewBox="0 0 100 110"
   sodipodi:docname="cross_formerly_fitchy.svg"
   inkscape:version="0.92.4 (5da689c313, 2019-01-14)">
  <defs
     id="defs9" />
  <sodipodi:namedview
     pagecolor="#ffffff"
     bordercolor="#666666"
     borderopacity="1"
     objecttolerance="10"
     gridtolerance="10"
     guidetolerance="10"
     inkscape:pageopacity="0"
     inkscape:pageshadow="2"
     inkscape:window-width="1868"
     inkscape:window-height="1016"
     id="namedview7"
     showgrid="false"
     inkscape:zoom="4.2909091"
     inkscape:cx="18.158161"
     inkscape:cy="10.249923"
     inkscape:window-x="52"
     inkscape:window-y="27"
     inkscape:window-maximized="1"
     inkscape:current-layer="svg36" />
  <metadata
     id="metadata42">
    <rdf:RDF>
      <cc:Work
         rdf:about="">
        <dc:format>image/svg+xml</dc:format>
        <dc:type
           rdf:resource="http://purl.org/dc/dcmitype/StillImage" />
        <dc:title />
      </cc:Work>
    </rdf:RDF>
  </metadata>
  <clipPath
     id="escu">
    <rect
       id="rect2"
       width="100"
       height="120" />
  </clipPath>
  <path
     id="path961"
     d="M 36.45,11.18 39.451,15.242 C 43.096,20.896 45.858,25.972 46.481,32.922 V 33.0509 H 46.3521 C 39.4021,32.4279 34.5521,29.6659 28.9021,26.0209 L 24.8401,23.0199 V 50.1099 L 28.9021,47.1089 C 34.5561,43.4639 39.4021,40.7019 46.3521,40.0789 H 46.481 V 40.2078 L 49.45,89.238 50,99.4331 50.544,89.238 53.513,40.2078 V 40.0789 H 53.6419 C 60.5919,40.7019 65.4419,43.4639 71.0919,47.1089 L 75.1539,50.1099 V 23.0199 L 71.0919,26.0209 C 65.4379,29.6659 60.5919,32.4279 53.6419,33.0509 H 53.513 V 32.922 C 54.136,25.972 56.898,20.892 60.543,15.242 L 63.544,11.18 H 49.994 Z"
     inkscape:connector-curvature="0"
     sodipodi:nodetypes="ccccccccccccccccccccccccccccc" />
</svg>
