<?xml version="1.0" encoding="UTF-8"?>
<svg version="1.1" viewBox="0 0 100 110" xmlns="http://www.w3.org/2000/svg" xmlns:cc="http://creativecommons.org/ns#" xmlns:dc="http://purl.org/dc/elements/1.1/" xmlns:rdf="http://www.w3.org/1999/02/22-rdf-syntax-ns#">
 <metadata>
  <rdf:RDF>
   <cc:Work rdf:about="">
    <dc:format>image/svg+xml</dc:format>
    <dc:type rdf:resource="http://purl.org/dc/dcmitype/StillImage"/>
    <dc:title/>
   </cc:Work>
  </rdf:RDF>
 </metadata>
 <clipPath id="escu">
  <rect width="100" height="120"/>
 </clipPath>
 <path d="m36.45 11.18 3.001 4.062c3.645 5.654 6.407 10.73 7.03 17.68v0.1289h-0.1289c-6.95-0.623-11.8-3.385-17.45-7.03l-4.062-3.001v27.09l4.062-3.001c5.654-3.645 10.5-6.407 17.45-7.03h0.1289v0.1289l2.969 49.03 0.55 10.2 0.544-10.2 2.969-49.03v-0.1289h0.1289c6.95 0.623 11.8 3.385 17.45 7.03l4.062 3.001v-27.09l-4.062 3.001c-5.654 3.645-10.5 6.407-17.45 7.03h-0.1289v-0.1289c0.623-6.95 3.385-12.03 7.03-17.68l3.001-4.062h-13.55z"/>
</svg>
