<?xml version="1.0" encoding="UTF-8"?>
<svg version="1.1" viewBox="0 0 100 110" xmlns="http://www.w3.org/2000/svg" xmlns:cc="http://creativecommons.org/ns#" xmlns:dc="http://purl.org/dc/elements/1.1/" xmlns:rdf="http://www.w3.org/1999/02/22-rdf-syntax-ns#">
 <metadata>
  <rdf:RDF>
   <cc:Work rdf:about="">
    <dc:format>image/svg+xml</dc:format>
    <dc:type rdf:resource="http://purl.org/dc/dcmitype/StillImage"/>
    <dc:title/>
   </cc:Work>
  </rdf:RDF>
 </metadata>
 <clipPath id="escu">
  <rect width="100" height="120"/>
 </clipPath>
 <path d="m53.56 10.36 2.652 3.589c3.22 4.995 5.66 9.277 6.211 15.42v0.1139h-0.1139c-6.14-0.5504-10.42-2.99-15.42-6.211l-3.589-2.652v23.93l3.589-2.652c4.995-3.22 9.277-5.66 15.42-6.211h0.1139v0.1139c-0.5504 6.14-2.99 10.42-6.211 15.42l-2.652 3.589h23.93l-2.652-3.589c-3.22-4.995-5.66-9.277-6.211-15.42v-0.1139h0.1139c6.14 0.5504 10.42 2.99 15.42 6.211l3.589 2.652v-23.93l-3.589 2.652c-4.995 3.22-9.277 5.66-15.42 6.211h-0.1139v-0.1139c0.5504-6.14 2.99-10.42 6.211-15.42l2.652-3.589h-11.97z" stroke-width=".6626"/>
</svg>
