<?xml version="1.0" encoding="UTF-8"?>
<svg version="1.1" viewBox="0 0 100 110" xmlns="http://www.w3.org/2000/svg" xmlns:cc="http://creativecommons.org/ns#" xmlns:dc="http://purl.org/dc/elements/1.1/" xmlns:rdf="http://www.w3.org/1999/02/22-rdf-syntax-ns#">
 <metadata>
  <rdf:RDF>
   <cc:Work rdf:about="">
    <dc:format>image/svg+xml</dc:format>
    <dc:type rdf:resource="http://purl.org/dc/dcmitype/StillImage"/>
    <dc:title/>
   </cc:Work>
  </rdf:RDF>
 </metadata>
 <g transform="matrix(.711 0 0 .711 197.1 -8.81)">
  <path d="m-185.2 20.58-12.5 15 12.5 15 12.5-15zm0 6 7.5 9-7.5 9-7.5-9z" style="paint-order:normal"/>
  <path d="m-185.2 50.58-12.5 15 12.5 15 12.5-15zm0 6 7.5 9-7.5 9-7.5-9z" style="paint-order:normal"/>
  <path d="m-185.2 80.58-12.5 15 12.5 15 12.5-15zm0 6 7.5 9-7.5 9-7.5-9z" style="paint-order:normal"/>
  <path d="m-210.2 50.58-12.5 15 12.5 15 12.5-15zm0 6 7.5 9-7.5 9-7.5-9z" style="paint-order:normal"/>
  <path d="m-160.2 50.58-12.5 15 12.5 15 12.5-15zm0 6 7.5 9-7.5 9-7.5-9z" style="paint-order:normal"/>
 </g>
</svg>
