<?xml version="1.0" encoding="UTF-8"?>
<svg version="1.1" viewBox="0 0 100 110" xmlns="http://www.w3.org/2000/svg" xmlns:cc="http://creativecommons.org/ns#" xmlns:dc="http://purl.org/dc/elements/1.1/" xmlns:rdf="http://www.w3.org/1999/02/22-rdf-syntax-ns#">
 <metadata>
  <rdf:RDF>
   <cc:Work rdf:about="">
    <dc:format>image/svg+xml</dc:format>
    <dc:type rdf:resource="http://purl.org/dc/dcmitype/StillImage"/>
    <dc:title/>
   </cc:Work>
  </rdf:RDF>
 </metadata>
 <path d="M 50,13.75 A 31.25,31.25 0 0 0 18.75,45 31.25,31.25 0 0 0 50,76.25 31.25,31.25 0 0 0 81.25,45 31.25,31.25 0 0 0 50,13.75 Z M 50,20 A 25,25 0 0 1 75,45 25,25 0 0 1 50,70 25,25 0 0 1 25,45 25,25 0 0 1 50,20 Z"/>
 <rect x="20.96" y="41.88" width="57.16" height="6.25"/>
 <rect x="46.88" y="16.88" width="6.25" height="56.52"/>
</svg>
