<?xml version="1.0" encoding="UTF-8"?>
<svg version="1.1" viewBox="0 0 100 110" xmlns="http://www.w3.org/2000/svg" xmlns:cc="http://creativecommons.org/ns#" xmlns:dc="http://purl.org/dc/elements/1.1/" xmlns:rdf="http://www.w3.org/1999/02/22-rdf-syntax-ns#">
 <metadata>
  <rdf:RDF>
   <cc:Work rdf:about="">
    <dc:format>image/svg+xml</dc:format>
    <dc:type rdf:resource="http://purl.org/dc/dcmitype/StillImage"/>
    <dc:title/>
   </cc:Work>
  </rdf:RDF>
 </metadata>
 <clipPath id="escu">
  <rect width="100" height="120"/>
 </clipPath>
 <path d="m31.93 11.18 4.002 5.416c4.86 7.539 8.542 14 9.373 23.27v0.1719h-0.1719c-9.267-0.8307-15.73-4.513-23.27-9.373l-5.416-4.002s3.737 7.908 2.5 11.56c-0.8799 2.596-7.5 6.527-7.5 6.527s6.62 3.908 7.5 6.495c1.24 3.642-2.5 11.54-2.5 11.54l5.416-4.002c7.539-4.86 14-8.542 23.27-9.373h0.1719v0.1719c-0.8307 9.267-4.513 15.73-9.373 23.27l-4.002 5.416s8.611-3.252 11.52-2.5c3.333 0.8607 6.537 7.5 6.537 7.5s3.207-6.639 6.542-7.5c2.911-0.7512 11.52 2.5 11.52 2.5l-4.002-5.416c-4.86-7.539-8.542-14-9.373-23.27v-0.1719h0.1719c9.267 0.8307 15.73 4.513 23.27 9.373l5.416 4.002s-3.739-7.9-2.5-11.54c0.8803-2.587 7.5-6.495 7.5-6.495s-6.62-3.931-7.5-6.527c-1.237-3.648 2.5-11.56 2.5-11.56l-5.416 4.002c-7.539 4.86-14 8.542-23.27 9.373h-0.1719v-0.1719c0.8307-9.267 4.513-15.73 9.373-23.27l4.002-5.416s-8.608 3.251-11.52 2.5c-3.335-0.8606-6.542-7.5-6.542-7.5s-3.204 6.639-6.538 7.5c-2.912 0.7519-11.52-2.5-11.52-2.5z"/>
</svg>
