<?xml version="1.0" encoding="UTF-8"?>
<svg version="1.1" viewBox="0 0 100 110" xmlns="http://www.w3.org/2000/svg" xmlns:cc="http://creativecommons.org/ns#" xmlns:dc="http://purl.org/dc/elements/1.1/" xmlns:rdf="http://www.w3.org/1999/02/22-rdf-syntax-ns#">
 <metadata>
  <rdf:RDF>
   <cc:Work rdf:about="">
    <dc:format>image/svg+xml</dc:format>
    <dc:type rdf:resource="http://purl.org/dc/dcmitype/StillImage"/>
    <dc:title/>
   </cc:Work>
  </rdf:RDF>
 </metadata>
 <clipPath id="escu">
  <rect width="100" height="120"/>
 </clipPath>
 <path d="m51.29 12.08 2.58 3.492c3.134 4.861 5.508 9.027 6.043 15v0.1108h-0.1108c-5.975-0.5356-10.14-2.91-15-6.043l-3.492-2.58s2.409 5.099 1.612 7.451c-0.5674 1.674-4.836 4.208-4.836 4.208s4.268 2.52 4.836 4.188c0.7992 2.348-1.612 7.442-1.612 7.442l3.492-2.58c4.861-3.134 9.027-5.508 15-6.043h0.1108v0.1108c-0.5356 5.975-2.91 10.14-6.043 15l-2.58 3.492s5.552-2.097 7.43-1.612c2.149 0.555 4.215 4.836 4.215 4.836s2.068-4.281 4.218-4.836c1.877-0.4843 7.426 1.612 7.426 1.612l-2.58-3.492c-3.134-4.861-5.508-9.027-6.043-15v-0.1108h0.1108c5.975 0.5356 10.14 2.91 15 6.043l3.492 2.58s-2.411-5.094-1.612-7.442c0.5676-1.668 4.836-4.188 4.836-4.188s-4.268-2.535-4.836-4.208c-0.7974-2.352 1.612-7.451 1.612-7.451l-3.492 2.58c-4.861 3.134-9.027 5.508-15 6.043h-0.1108v-0.1108c0.5356-5.975 2.91-10.14 6.043-15l2.58-3.492s-5.55 2.096-7.427 1.612c-2.15-0.5549-4.218-4.836-4.218-4.836s-2.066 4.281-4.215 4.836c-1.878 0.4848-7.429-1.612-7.429-1.612z" stroke-width=".6448"/>
</svg>
