<?xml version="1.0" encoding="UTF-8"?>
<svg version="1.1" viewBox="0 0 100 110" xmlns="http://www.w3.org/2000/svg" xmlns:cc="http://creativecommons.org/ns#" xmlns:dc="http://purl.org/dc/elements/1.1/" xmlns:rdf="http://www.w3.org/1999/02/22-rdf-syntax-ns#" xmlns:xlink="http://www.w3.org/1999/xlink">
 <metadata>
  <rdf:RDF>
   <cc:Work rdf:about="">
    <dc:format>image/svg+xml</dc:format>
    <dc:type rdf:resource="http://purl.org/dc/dcmitype/StillImage"/>
    <dc:title/>
   </cc:Work>
  </rdf:RDF>
 </metadata>
 <clipPath id="escu">
  <rect width="100" height="120"/>
 </clipPath>
 <path id="path822-8" d="m50 23.16a15.33 15.33 0 0 0-15.33 15.33 15.33 15.33 0 0 0 15.33 15.33 15.33 15.33 0 0 0 15.33-15.33 15.33 15.33 0 0 0-15.33-15.33zm0 3.067a12.27 12.27 0 0 1 1.225 0.06139 12.27 12.27 0 0 1 1.211 0.1842 12.27 12.27 0 0 1 1.189 0.3025 12.27 12.27 0 0 1 1.151 0.4208 12.27 12.27 0 0 1 1.104 0.5331 12.27 12.27 0 0 1 1.045 0.6409 12.27 12.27 0 0 1 0.9763 0.7427 12.27 12.27 0 0 1 0.8969 0.8355 12.27 12.27 0 0 1 0.8101 0.9209 12.27 12.27 0 0 1 0.7128 0.9973 12.27 12.27 0 0 1 0.6109 1.063 12.27 12.27 0 0 1 0.5001 1.12 12.27 12.27 0 0 1 0.3863 1.163 12.27 12.27 0 0 1 0.2695 1.196 12.27 12.27 0 0 1 0.1467 1.217 12.27 12.27 0 0 1 0.03145 0.867 12.27 12.27 0 0 1-0.0614 1.225 12.27 12.27 0 0 1-0.1827 1.213 12.27 12.27 0 0 1-0.304 1.187 12.27 12.27 0 0 1-0.4208 1.151 12.27 12.27 0 0 1-0.5331 1.105 12.27 12.27 0 0 1-0.6409 1.045 12.27 12.27 0 0 1-0.7427 0.9763 12.27 12.27 0 0 1-0.8355 0.8969 12.27 12.27 0 0 1-0.9209 0.8086 12.27 12.27 0 0 1-0.9973 0.7143 12.27 12.27 0 0 1-1.063 0.6094 12.27 12.27 0 0 1-1.12 0.5001 12.27 12.27 0 0 1-1.163 0.3878 12.27 12.27 0 0 1-1.196 0.268 12.27 12.27 0 0 1-1.217 0.1482 12.27 12.27 0 0 1-0.867 0.02995 12.27 12.27 0 0 1-1.225-0.06139 12.27 12.27 0 0 1-1.213-0.1827 12.27 12.27 0 0 1-1.187-0.304 12.27 12.27 0 0 1-1.152-0.4193 12.27 12.27 0 0 1-1.105-0.5346 12.27 12.27 0 0 1-1.045-0.6409 12.27 12.27 0 0 1-0.9763-0.7412 12.27 12.27 0 0 1-0.8969-0.8355 12.27 12.27 0 0 1-0.8086-0.9224 12.27 12.27 0 0 1-0.7143-0.9973 12.27 12.27 0 0 1-0.6094-1.063 12.27 12.27 0 0 1-0.5001-1.119 12.27 12.27 0 0 1-0.3878-1.163 12.27 12.27 0 0 1-0.268-1.196 12.27 12.27 0 0 1-0.1482-1.217 12.27 12.27 0 0 1-0.02998-0.8685 12.27 12.27 0 0 1 0.06141-1.225 12.27 12.27 0 0 1 0.1827-1.211 12.27 12.27 0 0 1 0.304-1.189 12.27 12.27 0 0 1 0.4193-1.151 12.27 12.27 0 0 1 0.5346-1.104 12.27 12.27 0 0 1 0.6409-1.045 12.27 12.27 0 0 1 0.7412-0.9763 12.27 12.27 0 0 1 0.8356-0.8969 12.27 12.27 0 0 1 0.9224-0.8101 12.27 12.27 0 0 1 0.9973-0.7128 12.27 12.27 0 0 1 1.063-0.6109 12.27 12.27 0 0 1 1.119-0.5001 12.27 12.27 0 0 1 1.163-0.3863 12.27 12.27 0 0 1 1.196-0.2695 12.27 12.27 0 0 1 1.217-0.1467 12.27 12.27 0 0 1 0.8685-0.03145z" style="paint-order:normal"/>
 <use id="use849" transform="translate(0,-20)" width="100%" height="100%" xlink:href="#path822-8"/>
 <use id="use851" transform="translate(0,40)" width="100%" height="100%" xlink:href="#use849"/>
 <use id="use853" transform="translate(-20,-20)" width="100%" height="100%" xlink:href="#use851"/>
 <use transform="translate(40)" width="100%" height="100%" xlink:href="#use853"/>
 <use transform="translate(0,20)" width="100%" height="100%" xlink:href="#use851"/>
</svg>
