<?xml version="1.0" encoding="UTF-8" standalone="no"?>
<svg
   xmlns:dc="http://purl.org/dc/elements/1.1/"
   xmlns:cc="http://creativecommons.org/ns#"
   xmlns:rdf="http://www.w3.org/1999/02/22-rdf-syntax-ns#"
   xmlns:svg="http://www.w3.org/2000/svg"
   xmlns="http://www.w3.org/2000/svg"
   xmlns:sodipodi="http://sodipodi.sourceforge.net/DTD/sodipodi-0.dtd"
   xmlns:inkscape="http://www.inkscape.org/namespaces/inkscape"
   inkscape:version="1.0 (4035a4fb49, 2020-05-01)"
   sodipodi:docname="ace.svg"
   id="svg23"
   version="1.1"
   viewBox="0 0 100 110">
  <metadata
     id="metadata29">
    <rdf:RDF>
      <cc:Work
         rdf:about="">
        <dc:format>image/svg+xml</dc:format>
        <dc:type
           rdf:resource="http://purl.org/dc/dcmitype/StillImage" />
        <dc:title></dc:title>
      </cc:Work>
    </rdf:RDF>
  </metadata>
  <defs
     id="defs27" />
  <sodipodi:namedview
     inkscape:snap-bbox-midpoints="true"
     inkscape:snap-bbox-edge-midpoints="true"
     inkscape:bbox-paths="true"
     inkscape:bbox-nodes="true"
     inkscape:snap-bbox="true"
     inkscape:document-rotation="0"
     inkscape:guide-bbox="true"
     showguides="true"
     inkscape:current-layer="svg23"
     inkscape:window-maximized="1"
     inkscape:window-y="0"
     inkscape:window-x="0"
     inkscape:cy="28.358257"
     inkscape:cx="12.248831"
     inkscape:zoom="4"
     showgrid="false"
     id="namedview25"
     inkscape:window-height="1020"
     inkscape:window-width="1920"
     inkscape:pageshadow="2"
     inkscape:pageopacity="0"
     guidetolerance="10"
     gridtolerance="10"
     objecttolerance="10"
     borderopacity="1"
     bordercolor="#666666"
     pagecolor="#ffffff" />
  <path
     sodipodi:nodetypes="aacaaaacccccccaaaacaaaaa"
     d="M 49.480468,6.8282318 C 41.949222,10.209489 34.182615,17.162376 33.023437,25.336045 c -1.194003,8.419233 7.000408,15.361173 10.982421,23.02539 -7.160626,-4.579811 -11.694376,-10.269031 -18.925781,-12.43164 -0.02058,-0.0062 -0.04438,-0.0077 -0.06445,0 C 17.316858,38.865249 6.5651293,44.147416 6.5722673,52.386826 6.5794193,60.642279 16.86316,68.047125 25.08008,68.843857 33.534614,69.663629 40.197099,57.471333 47.021486,55.884873 l -5.171875,23.927734 c -2.826767,6.11656 -7.500707,7.314104 -10.046875,7.501953 H 49.999999 68.197265 C 65.651097,87.126711 60.977157,85.929167 58.15039,79.812607 L 52.978515,55.884873 c 6.824387,1.58646 13.486872,13.778756 21.941406,12.958984 8.21692,-0.796732 18.50066,-8.201578 18.507812,-16.457031 0.0071,-8.23941 -10.74459,-13.521577 -18.443359,-16.457031 -0.02007,-0.0077 -0.04387,-0.0062 -0.06445,0 -7.231405,2.162609 -11.765155,7.851829 -18.925781,12.43164 3.982013,-7.664217 12.176424,-14.606157 10.982421,-23.02539 -1.159178,-8.173669 -8.894329,-15.197511 -16.457031,-18.5078132 -0.158673,-0.069453 -0.346323,0.00977 -0.519531,0.00977 -0.173208,0 -0.346331,-0.00814 -0.519531,-0.00977 -1e-6,0 -2e-6,-4e-7 -3e-6,0 z"
     style="fill:#000000;fill-rule:evenodd;stroke-width:5;stroke-linecap:square;stroke-linejoin:round;paint-order:fill markers stroke"
     id="path833" />
  <g
     style="fill:#501616"
     transform="matrix(0,1,1,0,45.343786,60.257881)"
     id="g989" />
</svg>
