<?xml version="1.0" encoding="UTF-8"?>
<svg version="1.1" viewBox="0 0 100 110" xmlns="http://www.w3.org/2000/svg" xmlns:cc="http://creativecommons.org/ns#" xmlns:dc="http://purl.org/dc/elements/1.1/" xmlns:rdf="http://www.w3.org/1999/02/22-rdf-syntax-ns#">
 <metadata>
  <rdf:RDF>
   <cc:Work rdf:about="">
    <dc:format>image/svg+xml</dc:format>
    <dc:type rdf:resource="http://purl.org/dc/dcmitype/StillImage"/>
    <dc:title/>
   </cc:Work>
  </rdf:RDF>
 </metadata>
 <path d="m49.48 6.828c-7.531 3.381-15.3 10.33-16.46 18.51-1.194 8.419 7 15.36 10.98 23.03-7.161-4.58-11.69-10.27-18.93-12.43-0.02058-0.0062-0.04438-0.0077-0.06445 0-7.699 2.935-18.45 8.218-18.44 16.46 0.007152 8.255 10.29 15.66 18.51 16.46 8.455 0.8198 15.12-11.37 21.94-12.96l-5.172 23.93c-2.827 6.117-7.501 7.314-10.05 7.502h36.39c-2.546-0.1878-7.22-1.385-10.05-7.502l-5.172-23.93c6.824 1.586 13.49 13.78 21.94 12.96 8.217-0.7967 18.5-8.202 18.51-16.46 0.0071-8.239-10.74-13.52-18.44-16.46-0.02007-0.0077-0.04387-0.0062-0.06445 0-7.231 2.163-11.77 7.852-18.93 12.43 3.982-7.664 12.18-14.61 10.98-23.03-1.159-8.174-8.894-15.2-16.46-18.51-0.1587-0.06945-0.3463 0.00977-0.5195 0.00977s-0.3463-0.00814-0.5195-0.00977c-1e-6 0-2e-6 -4e-7 -3e-6 0z" fill-rule="evenodd" stroke-linecap="square" stroke-linejoin="round" stroke-width="5" style="paint-order:fill markers stroke"/>
</svg>
