<?xml version="1.0" encoding="UTF-8"?>
<svg version="1.1" viewBox="0 0 100 110" xmlns="http://www.w3.org/2000/svg" xmlns:cc="http://creativecommons.org/ns#" xmlns:dc="http://purl.org/dc/elements/1.1/" xmlns:rdf="http://www.w3.org/1999/02/22-rdf-syntax-ns#" xmlns:xlink="http://www.w3.org/1999/xlink">
 <path id="path833-3-0" d="m65.13 11.51c-1.579 0.7087-3.206 2.166-3.449 3.879-0.2503 1.765 1.467 3.22 2.302 4.826-1.501-0.9599-2.451-2.152-3.967-2.606-0.0043-0.0013-0.0093-0.0016-0.01351 0-1.614 0.6153-3.867 1.722-3.866 3.449 0.0015 1.73 2.157 3.282 3.879 3.449 1.772 0.1718 3.169-2.384 4.599-2.716l-1.084 5.015c-0.5925 1.282-1.572 1.533-2.106 1.572h7.628c-0.5337-0.03937-1.513-0.2904-2.106-1.572l-1.084-5.015c1.43 0.3325 2.827 2.888 4.599 2.716 1.722-0.167 3.878-1.719 3.879-3.449 0.0015-1.727-2.252-2.834-3.866-3.449-0.0042-0.0016-0.0092-0.0013-0.01351 0-1.516 0.4533-2.466 1.646-3.967 2.606 0.8346-1.606 2.552-3.061 2.302-4.826-0.243-1.713-1.864-3.185-3.449-3.879-0.03326-0.01456-0.07259 0.0021-0.1089 0.0021-0.0363 0-0.07259-0.0017-0.1089-0.0021v0z" fill-rule="evenodd" stroke-linecap="square" stroke-linejoin="round" stroke-width="1.048" style="paint-order:fill markers stroke"/>
 <use id="use835" transform="translate(-30.88 -2.052)" width="100%" height="100%" xlink:href="#path833-3-0"/>
 <use id="use837" transform="translate(50 26.95)" width="100%" height="100%" xlink:href="#use835"/>
 <use id="use839" transform="translate(-4.341 30.24)" width="100%" height="100%" xlink:href="#use837"/>
 <use transform="translate(-27.12 -23.11)" width="100%" height="100%" xlink:href="#use839"/>
 <metadata>
  <rdf:RDF>
   <cc:Work rdf:about="">
    <dc:format>image/svg+xml</dc:format>
    <dc:type rdf:resource="http://purl.org/dc/dcmitype/StillImage"/>
    <dc:title/>
   </cc:Work>
  </rdf:RDF>
 </metadata>
</svg>
