<?xml version="1.0" encoding="UTF-8"?>
<svg version="1.1" viewBox="0 0 100 110" xmlns="http://www.w3.org/2000/svg" xmlns:cc="http://creativecommons.org/ns#" xmlns:dc="http://purl.org/dc/elements/1.1/" xmlns:rdf="http://www.w3.org/1999/02/22-rdf-syntax-ns#" xmlns:xlink="http://www.w3.org/1999/xlink">
 <metadata>
  <rdf:RDF>
   <cc:Work rdf:about="">
    <dc:format>image/svg+xml</dc:format>
    <dc:type rdf:resource="http://purl.org/dc/dcmitype/StillImage"/>
    <dc:title/>
   </cc:Work>
  </rdf:RDF>
 </metadata>
 <path id="path833" d="m30.77 5.564c-1.853 0.832-3.764 2.543-4.049 4.554-0.2938 2.072 1.723 3.78 2.702 5.666-1.762-1.127-2.878-2.527-4.657-3.059-0.0051-0.0016-0.01092-0.0019-0.01586 0-1.894 0.7223-4.54 2.022-4.538 4.049 0.0018 2.031 2.532 3.853 4.554 4.049 2.08 0.2017 3.72-2.798 5.399-3.189l-1.273 5.888c-0.6956 1.505-1.846 1.8-2.472 1.846h8.955c-0.6265-0.04622-1.777-0.3409-2.472-1.846l-1.273-5.888c1.679 0.3904 3.319 3.39 5.399 3.189 2.022-0.196 4.552-2.018 4.554-4.049 0.0018-2.027-2.644-3.327-4.538-4.049-0.0049-0.0019-0.01079-0.0016-0.01586 0-1.779 0.5321-2.895 1.932-4.657 3.059 0.9798-1.886 2.996-3.594 2.702-5.666-0.2852-2.011-2.189-3.74-4.049-4.554-0.03905-0.01709-0.08522 0.0024-0.1278 0.0024-0.04262 0-0.08522-2e-3 -0.1278-0.0024v0z" fill-rule="evenodd" stroke-linecap="square" stroke-linejoin="round" stroke-width="1.23" style="paint-order:fill markers stroke"/>
 <use transform="translate(19.73 32.17)" width="100%" height="100%" xlink:href="#path833"/>
 <use id="use836" transform="translate(45.74 11.4)" width="100%" height="100%" xlink:href="#path833"/>
 <use transform="translate(5.509 47.81)" width="100%" height="100%" xlink:href="#use836"/>
</svg>
