<?xml version="1.0" encoding="UTF-8" standalone="no"?>
<svg
   xmlns:dc="http://purl.org/dc/elements/1.1/"
   xmlns:cc="http://creativecommons.org/ns#"
   xmlns:rdf="http://www.w3.org/1999/02/22-rdf-syntax-ns#"
   xmlns:svg="http://www.w3.org/2000/svg"
   xmlns="http://www.w3.org/2000/svg"
   xmlns:sodipodi="http://sodipodi.sourceforge.net/DTD/sodipodi-0.dtd"
   xmlns:inkscape="http://www.inkscape.org/namespaces/inkscape"
   inkscape:version="1.0 (4035a4fb49, 2020-05-01)"
   sodipodi:docname="four.svg"
   id="svg23"
   version="1.1"
   viewBox="0 0 100 110">
  <metadata
     id="metadata29">
    <rdf:RDF>
      <cc:Work
         rdf:about="">
        <dc:format>image/svg+xml</dc:format>
        <dc:type
           rdf:resource="http://purl.org/dc/dcmitype/StillImage" />
        <dc:title></dc:title>
      </cc:Work>
    </rdf:RDF>
  </metadata>
  <defs
     id="defs27" />
  <sodipodi:namedview
     inkscape:snap-bbox-midpoints="true"
     inkscape:snap-bbox-edge-midpoints="true"
     inkscape:bbox-paths="true"
     inkscape:bbox-nodes="true"
     inkscape:snap-bbox="true"
     inkscape:document-rotation="0"
     inkscape:guide-bbox="true"
     showguides="true"
     inkscape:current-layer="svg23"
     inkscape:window-maximized="1"
     inkscape:window-y="0"
     inkscape:window-x="0"
     inkscape:cy="22.152872"
     inkscape:cx="42.623009"
     inkscape:zoom="4"
     showgrid="false"
     id="namedview25"
     inkscape:window-height="1020"
     inkscape:window-width="1920"
     inkscape:pageshadow="2"
     inkscape:pageopacity="0"
     guidetolerance="10"
     gridtolerance="10"
     objecttolerance="10"
     borderopacity="1"
     bordercolor="#666666"
     pagecolor="#ffffff" />
  <g
     style="fill:#501616"
     transform="matrix(0,1,1,0,45.343786,60.257881)"
     id="g989" />
  <path
     id="path833"
     style="fill:#000000;fill-rule:evenodd;stroke-width:1.8225;stroke-linecap:square;stroke-linejoin:round;paint-order:fill markers stroke"
     d="m 29.398625,12.270445 c -2.745139,1.232468 -5.576066,3.766795 -5.998587,6.746098 -0.435215,3.06881 2.551648,5.599147 4.003092,8.392754 -2.610048,-1.66934 -4.2626,-3.743061 -6.898448,-4.531332 -0.0076,-0.0023 -0.01617,-0.0028 -0.02349,0 -2.8062,1.069973 -6.725206,2.995322 -6.722604,5.998588 0.0026,3.009111 3.75103,5.708178 6.746098,5.998586 3.081678,0.298808 5.510154,-4.145284 7.997642,-4.723548 l -1.885152,8.721659 c -1.030356,2.229485 -2.734007,2.665991 -3.662085,2.734462 h 6.632903 6.632902 C 35.292818,41.539242 33.589168,41.102735 32.55881,38.87325 l -1.885148,-8.721659 c 2.487489,0.578264 4.915965,5.022356 7.997643,4.723548 2.995068,-0.290408 6.74349,-2.989475 6.746097,-5.998586 0.0026,-3.003266 -3.916403,-4.928615 -6.722604,-5.998588 -0.0073,-0.0028 -0.01599,-0.0023 -0.0235,0 -2.635848,0.788271 -4.288399,2.861992 -6.898447,4.531332 1.451442,-2.793607 4.438306,-5.323944 4.003092,-8.392754 -0.422521,-2.979303 -3.241983,-5.539492 -5.998588,-6.746098 -0.05784,-0.02532 -0.126235,0.0036 -0.18937,0.0036 -0.06313,0 -0.126236,-0.003 -0.189368,-0.0036 -1e-6,0 -1e-6,0 -1e-6,0 z"
     sodipodi:nodetypes="aacaaaacccccccaaaacaaaaa" />
  <path
     sodipodi:nodetypes="aacaaaacccccccaaaacaaaaa"
     d="m 70.222623,12.270445 c -2.745137,1.232468 -5.576063,3.766795 -5.998584,6.746098 -0.435213,3.06881 2.551646,5.599147 4.003092,8.392754 -2.610046,-1.66934 -4.262601,-3.743061 -6.898448,-4.531332 -0.0076,-0.0023 -0.01617,-0.0028 -0.02349,0 -2.806201,1.069973 -6.725206,2.995322 -6.722605,5.998588 0.0026,3.009111 3.75103,5.708178 6.746098,5.998586 3.081677,0.298808 5.51015,-4.145284 7.997644,-4.723548 l -1.88515,8.721659 c -1.030361,2.229485 -2.734013,2.665991 -3.662088,2.734462 h 6.632902 6.632901 C 76.116819,41.53924 74.413168,41.102735 73.382807,38.87325 l -1.885143,-8.721659 c 2.487486,0.578264 4.915961,5.022356 7.99764,4.723548 2.995068,-0.290408 6.743496,-2.989475 6.746106,-5.998586 0.0029,-3.003266 -3.916412,-4.928615 -6.72261,-5.998588 -0.0073,-0.0028 -0.01597,-0.0023 -0.02347,0 -2.635845,0.788271 -4.288401,2.861992 -6.898447,4.531332 1.451439,-2.793607 4.438305,-5.323944 4.003092,-8.392754 -0.422521,-2.979303 -3.241987,-5.539492 -5.998591,-6.746098 -0.05781,-0.02532 -0.126234,0.0036 -0.189365,0.0036 -0.06314,0 -0.126241,-0.003 -0.189373,-0.0036 0,0 0,0 0,0 z"
     style="fill:#000000;fill-rule:evenodd;stroke-width:1.8225;stroke-linecap:square;stroke-linejoin:round;paint-order:fill markers stroke"
     id="path833-0" />
  <path
     sodipodi:nodetypes="aacaaaacccccccaaaacaaaaa"
     d="m 29.398625,44.670445 c -2.745139,1.232468 -5.576066,3.766795 -5.998587,6.746098 -0.435215,3.06881 2.551648,5.599147 4.003092,8.392754 -2.610048,-1.66934 -4.2626,-3.743061 -6.898448,-4.531332 -0.0076,-0.0023 -0.01617,-0.0028 -0.02349,0 -2.8062,1.069973 -6.725206,2.995322 -6.722604,5.998588 0.0026,3.009111 3.75103,5.708178 6.746098,5.998586 3.081678,0.298808 5.510154,-4.145284 7.997642,-4.723548 l -1.885152,8.721659 c -1.030356,2.229485 -2.734007,2.665991 -3.662085,2.734462 h 6.632903 6.632902 C 35.292818,73.939242 33.589168,73.502735 32.55881,71.27325 l -1.885148,-8.721659 c 2.487489,0.578264 4.915965,5.022356 7.997643,4.723548 2.995068,-0.290408 6.74349,-2.989475 6.746097,-5.998586 0.0026,-3.003266 -3.916403,-4.928615 -6.722604,-5.998588 -0.0073,-0.0028 -0.01599,-0.0023 -0.0235,0 -2.635848,0.788271 -4.288399,2.861992 -6.898447,4.531332 1.451442,-2.793607 4.438306,-5.323944 4.003092,-8.392754 -0.422521,-2.979303 -3.241983,-5.539492 -5.998588,-6.746098 -0.05784,-0.02532 -0.126235,0.0036 -0.18937,0.0036 -0.06313,0 -0.126236,-0.003 -0.189368,-0.0036 -1e-6,0 -1e-6,0 -1e-6,0 z"
     style="fill:#000000;fill-rule:evenodd;stroke-width:1.8225;stroke-linecap:square;stroke-linejoin:round;paint-order:fill markers stroke"
     id="path833-3" />
  <path
     id="path833-0-6"
     style="fill:#000000;fill-rule:evenodd;stroke-width:1.8225;stroke-linecap:square;stroke-linejoin:round;paint-order:fill markers stroke"
     d="m 70.222623,44.670445 c -2.745137,1.232468 -5.576063,3.766795 -5.998584,6.746098 -0.435213,3.06881 2.551646,5.599147 4.003092,8.392754 -2.610046,-1.66934 -4.262601,-3.743061 -6.898448,-4.531332 -0.0076,-0.0023 -0.01617,-0.0028 -0.02349,0 -2.806201,1.069973 -6.725206,2.995322 -6.722605,5.998588 0.0026,3.009111 3.75103,5.708178 6.746098,5.998586 3.081677,0.298808 5.51015,-4.145284 7.997644,-4.723548 l -1.88515,8.721659 c -1.030361,2.229485 -2.734013,2.665991 -3.662088,2.734462 h 6.632902 6.632901 C 76.116819,73.93924 74.413168,73.502735 73.382807,71.27325 l -1.885143,-8.721659 c 2.487486,0.578264 4.915961,5.022356 7.99764,4.723548 2.995068,-0.290408 6.743496,-2.989475 6.746106,-5.998586 0.0029,-3.003266 -3.916412,-4.928615 -6.72261,-5.998588 -0.0073,-0.0028 -0.01597,-0.0023 -0.02347,0 -2.635845,0.788271 -4.288401,2.861992 -6.898447,4.531332 1.451439,-2.793607 4.438305,-5.323944 4.003092,-8.392754 -0.422521,-2.979303 -3.241987,-5.539492 -5.998591,-6.746098 -0.05781,-0.02532 -0.126234,0.0036 -0.189365,0.0036 -0.06314,0 -0.126241,-0.003 -0.189373,-0.0036 0,0 0,0 0,0 z"
     sodipodi:nodetypes="aacaaaacccccccaaaacaaaaa" />
</svg>
