<?xml version="1.0" encoding="UTF-8"?>
<svg version="1.1" viewBox="0 0 100 110" xmlns="http://www.w3.org/2000/svg" xmlns:cc="http://creativecommons.org/ns#" xmlns:dc="http://purl.org/dc/elements/1.1/" xmlns:rdf="http://www.w3.org/1999/02/22-rdf-syntax-ns#" xmlns:xlink="http://www.w3.org/1999/xlink">
 <metadata>
  <rdf:RDF>
   <cc:Work rdf:about="">
    <dc:format>image/svg+xml</dc:format>
    <dc:type rdf:resource="http://purl.org/dc/dcmitype/StillImage"/>
    <dc:title/>
   </cc:Work>
  </rdf:RDF>
 </metadata>
 <path id="path833" d="m29.4 12.27c-2.745 1.232-5.576 3.767-5.999 6.746-0.4352 3.069 2.552 5.599 4.003 8.393-2.61-1.669-4.263-3.743-6.898-4.531-0.0076-0.0023-0.01617-0.0028-0.02349 0-2.806 1.07-6.725 2.995-6.723 5.999 0.0026 3.009 3.751 5.708 6.746 5.999 3.082 0.2988 5.51-4.145 7.998-4.724l-1.885 8.722c-1.03 2.229-2.734 2.666-3.662 2.734h13.27c-0.9281-0.06847-2.632-0.505-3.662-2.734l-1.885-8.722c2.487 0.5783 4.916 5.022 7.998 4.724 2.995-0.2904 6.743-2.989 6.746-5.999 0.0026-3.003-3.916-4.929-6.723-5.999-0.0073-0.0028-0.01599-0.0023-0.0235 0-2.636 0.7883-4.288 2.862-6.898 4.531 1.451-2.794 4.438-5.324 4.003-8.393-0.4225-2.979-3.242-5.539-5.999-6.746-0.05784-0.02532-0.1262 0.0036-0.1894 0.0036-0.06313 0-0.1262-3e-3 -0.1894-0.0036h-1e-6z" fill-rule="evenodd" stroke-linecap="square" stroke-linejoin="round" stroke-width="1.822" style="paint-order:fill markers stroke"/>
 <use transform="translate(40)" width="100%" height="100%" xlink:href="#path833"/>
 <use id="use836" transform="translate(0,40)" width="100%" height="100%" xlink:href="#path833"/>
 <use transform="translate(40)" width="100%" height="100%" xlink:href="#use836"/>
</svg>
