<?xml version="1.0" encoding="UTF-8"?>
<svg version="1.1" viewBox="0 0 100 110" xmlns="http://www.w3.org/2000/svg" xmlns:cc="http://creativecommons.org/ns#" xmlns:dc="http://purl.org/dc/elements/1.1/" xmlns:rdf="http://www.w3.org/1999/02/22-rdf-syntax-ns#" xmlns:xlink="http://www.w3.org/1999/xlink">
 <metadata>
  <rdf:RDF>
   <cc:Work rdf:about="">
    <dc:format>image/svg+xml</dc:format>
    <dc:type rdf:resource="http://purl.org/dc/dcmitype/StillImage"/>
    <dc:title/>
   </cc:Work>
  </rdf:RDF>
 </metadata>
 <path id="path833-3-0-2" d="m49.88 41.16c-1.801 0.8086-3.658 2.471-3.936 4.426-0.2855 2.013 1.674 3.674 2.626 5.506-1.712-1.095-2.797-2.456-4.526-2.973-5e-3 -0.0015-0.0106-0.0018-0.01542 0-1.841 0.702-4.412 1.965-4.411 3.936 0.0017 1.974 2.461 3.745 4.426 3.936 2.022 0.196 3.615-2.72 5.247-3.099l-1.237 5.722c-0.676 1.463-1.794 1.749-2.403 1.794h8.704c-0.6089-0.04492-1.727-0.3313-2.403-1.794l-1.237-5.722c1.632 0.3794 3.225 3.295 5.247 3.099 1.965-0.1905 4.424-1.961 4.426-3.936 0.0017-1.97-2.57-3.234-4.411-3.936-0.0048-0.0018-0.01048-0.0015-0.01542 0-1.729 0.5172-2.814 1.878-4.526 2.973 0.9523-1.833 2.912-3.493 2.626-5.506-0.2772-1.955-2.127-3.634-3.936-4.426-0.03794-0.01661-0.08282 0.0023-0.1242 0.0023-0.04143 0-0.08283-2e-3 -0.1242-0.0023h-1e-6z" fill-rule="evenodd" stroke-linecap="square" stroke-linejoin="round" stroke-width="1.196" style="paint-order:fill markers stroke"/>
 <use id="use839" transform="translate(-18,-18)" width="100%" height="100%" xlink:href="#path833-3-0-2"/>
 <use id="use841" transform="translate(-18,-18)" width="100%" height="100%" xlink:href="#use839"/>
 <use id="use843" transform="translate(54,18)" width="100%" height="100%" xlink:href="#use841"/>
 <use id="use845" transform="translate(18,-18)" width="100%" height="100%" xlink:href="#use843"/>
 <use transform="translate(-54,54)" width="100%" height="100%" xlink:href="#use843"/>
 <use transform="translate(-54,54)" width="100%" height="100%" xlink:href="#use845"/>
 <use transform="translate(54,54)" width="100%" height="100%" xlink:href="#use839"/>
 <use transform="translate(54,54)" width="100%" height="100%" xlink:href="#use841"/>
</svg>
