<?xml version="1.0" encoding="UTF-8"?>
<svg version="1.1" viewBox="0 0 100 110" xmlns="http://www.w3.org/2000/svg" xmlns:cc="http://creativecommons.org/ns#" xmlns:dc="http://purl.org/dc/elements/1.1/" xmlns:rdf="http://www.w3.org/1999/02/22-rdf-syntax-ns#" xmlns:xlink="http://www.w3.org/1999/xlink">
 <metadata>
  <rdf:RDF>
   <cc:Work rdf:about="">
    <dc:format>image/svg+xml</dc:format>
    <dc:type rdf:resource="http://purl.org/dc/dcmitype/StillImage"/>
    <dc:title/>
   </cc:Work>
  </rdf:RDF>
 </metadata>
 <path id="path833-3-0-2" d="m52.02 47.81c-1.373 0.6165-2.789 1.884-3.001 3.375-0.2177 1.535 1.276 2.801 2.003 4.199-1.306-0.8351-2.132-1.872-3.451-2.267-0.0038-0.0011-0.0081-0.0014-0.01176 0-1.404 0.5353-3.364 1.498-3.363 3.001 0.0013 1.505 1.876 2.856 3.375 3.001 1.542 0.1495 2.756-2.074 4.001-2.363l-0.9431 4.363c-0.5154 1.115-1.368 1.334-1.832 1.368h6.636c-0.4643-0.03425-1.317-0.2526-1.832-1.368l-0.9431-4.363c1.244 0.2893 2.459 2.512 4.001 2.363 1.498-0.1453 3.373-1.495 3.375-3.001 0.0013-1.502-1.959-2.466-3.363-3.001-0.0037-0.0014-8e-3 -0.0011-0.01176 0-1.319 0.3943-2.145 1.432-3.451 2.267 0.7261-1.398 2.22-2.663 2.003-4.199-0.2114-1.49-1.622-2.771-3.001-3.375-0.02893-0.01266-0.06315 0.0018-0.09473 0.0018-0.03159 0-0.06315-0.0015-0.09473-0.0018v0z" fill-rule="evenodd" stroke-linecap="square" stroke-linejoin="round" stroke-width=".9117" style="paint-order:fill markers stroke"/>
 <use id="use839" transform="translate(-15.43 -22.58)" width="100%" height="100%" xlink:href="#path833-3-0-2"/>
 <use id="use841" transform="translate(-12.09 -21.56)" width="100%" height="100%" xlink:href="#use839"/>
 <use id="use843" transform="translate(28.83 2.741)" width="100%" height="100%" xlink:href="#use841"/>
 <use id="use845" transform="translate(16.35 23.02)" width="100%" height="100%" xlink:href="#use843"/>
 <use transform="translate(32.7 5.484)" width="100%" height="100%" xlink:href="#use843"/>
 <use transform="translate(17.78 20.19)" width="100%" height="100%" xlink:href="#use845"/>
 <use transform="translate(50.5 60.52)" width="100%" height="100%" xlink:href="#use839"/>
 <use transform="translate(43.93 65.07)" width="100%" height="100%" xlink:href="#use841"/>
</svg>
