<?xml version="1.0" encoding="UTF-8" standalone="no"?>
<svg
   xmlns:dc="http://purl.org/dc/elements/1.1/"
   xmlns:cc="http://creativecommons.org/ns#"
   xmlns:rdf="http://www.w3.org/1999/02/22-rdf-syntax-ns#"
   xmlns:svg="http://www.w3.org/2000/svg"
   xmlns="http://www.w3.org/2000/svg"
   xmlns:sodipodi="http://sodipodi.sourceforge.net/DTD/sodipodi-0.dtd"
   xmlns:inkscape="http://www.inkscape.org/namespaces/inkscape"
   inkscape:version="1.0 (4035a4fb49, 2020-05-01)"
   sodipodi:docname="seven.svg"
   id="svg23"
   version="1.1"
   viewBox="0 0 100 110">
  <metadata
     id="metadata29">
    <rdf:RDF>
      <cc:Work
         rdf:about="">
        <dc:format>image/svg+xml</dc:format>
        <dc:type
           rdf:resource="http://purl.org/dc/dcmitype/StillImage" />
        <dc:title></dc:title>
      </cc:Work>
    </rdf:RDF>
  </metadata>
  <defs
     id="defs27" />
  <sodipodi:namedview
     inkscape:snap-bbox-midpoints="true"
     inkscape:snap-bbox-edge-midpoints="true"
     inkscape:bbox-paths="true"
     inkscape:bbox-nodes="true"
     inkscape:snap-bbox="true"
     inkscape:document-rotation="0"
     inkscape:guide-bbox="true"
     showguides="true"
     inkscape:current-layer="svg23"
     inkscape:window-maximized="1"
     inkscape:window-y="0"
     inkscape:window-x="0"
     inkscape:cy="22.152872"
     inkscape:cx="42.623009"
     inkscape:zoom="4"
     showgrid="false"
     id="namedview25"
     inkscape:window-height="1020"
     inkscape:window-width="1920"
     inkscape:pageshadow="2"
     inkscape:pageopacity="0"
     guidetolerance="10"
     gridtolerance="10"
     objecttolerance="10"
     borderopacity="1"
     bordercolor="#666666"
     pagecolor="#ffffff" />
  <g
     style="fill:#501616"
     transform="matrix(0,1,1,0,45.343786,60.257881)"
     id="g989" />
  <path
     id="path833"
     style="fill:#000000;fill-rule:evenodd;stroke-width:1.32861;stroke-linecap:square;stroke-linejoin:round;paint-order:fill markers stroke"
     d="m 35.281955,10.816926 c -2.001207,0.898469 -4.064952,2.745994 -4.37297,4.917906 -0.317272,2.237163 1.860151,4.081777 2.918254,6.118318 -1.902725,-1.216949 -3.107436,-2.728692 -5.028968,-3.303341 -0.0055,-0.0017 -0.01178,-0.0021 -0.01713,0 -2.04572,0.780009 -4.902676,2.18359 -4.900779,4.37297 0.0019,2.193642 2.7345,4.161262 4.917905,4.372969 2.246544,0.217832 4.016902,-3.021912 5.830281,-3.443467 l -1.374276,6.35809 c -0.751129,1.625295 -1.99309,1.943508 -2.669659,1.993423 h 4.835386 4.835385 c -0.676569,-0.04991 -1.918529,-0.368128 -2.66966,-1.993423 l -1.374274,-6.35809 c 1.813379,0.421555 3.583739,3.661299 5.830282,3.443467 2.183404,-0.211707 4.916003,-2.179327 4.917905,-4.372969 0.0019,-2.18938 -2.855058,-3.592961 -4.900779,-4.37297 -0.0053,-0.0021 -0.01165,-0.0017 -0.01713,0 -1.921533,0.574649 -3.126243,2.086392 -5.028968,3.303341 1.058102,-2.036541 3.235525,-3.881155 2.918255,-6.118318 -0.308018,-2.171912 -2.363406,-4.03829 -4.372972,-4.917906 -0.04217,-0.01846 -0.09202,0.0026 -0.138051,0.0026 -0.04603,0 -0.09202,-0.0022 -0.138049,-0.0026 0,0 0,0 0,0 z"
     sodipodi:nodetypes="aacaaaacccccccaaaacaaaaa" />
  <path
     sodipodi:nodetypes="aacaaaacccccccaaaacaaaaa"
     d="m 65.04265,10.816926 c -2.001206,0.898469 -4.06495,2.745994 -4.372969,4.917906 -0.31727,2.237163 1.86015,4.081777 2.918255,6.118318 -1.902725,-1.216949 -3.107437,-2.728692 -5.028969,-3.303341 -0.0055,-0.0017 -0.01179,-0.0021 -0.01713,0 -2.04572,0.780009 -4.902675,2.18359 -4.900779,4.37297 0.0019,2.193642 2.7345,4.161262 4.917905,4.372969 2.246543,0.217832 4.0169,-3.021912 5.830283,-3.443467 l -1.374274,6.35809 c -0.751134,1.625295 -1.993096,1.943508 -2.669662,1.993423 h 4.835385 4.835384 c -0.676568,-0.04991 -1.918529,-0.368128 -2.669663,-1.993423 l -1.374268,-6.35809 c 1.813376,0.421555 3.583735,3.661299 5.83028,3.443467 2.183403,-0.211707 4.916008,-2.179327 4.91791,-4.372969 0.0021,-2.18938 -2.855064,-3.592961 -4.900782,-4.37297 -0.0053,-0.0021 -0.01164,-0.0017 -0.01711,0 -1.921532,0.574649 -3.126245,2.086392 -5.028968,3.303341 1.058099,-2.036541 3.235524,-3.881155 2.918254,-6.118318 -0.308017,-2.171912 -2.363409,-4.03829 -4.372973,-4.917906 -0.04215,-0.01846 -0.09203,0.0026 -0.138047,0.0026 -0.04604,0 -0.09203,-0.0022 -0.138053,-0.0026 0,0 0,0 0,0 z"
     style="fill:#000000;fill-rule:evenodd;stroke-width:1.32861;stroke-linecap:square;stroke-linejoin:round;paint-order:fill markers stroke"
     id="path833-0" />
  <path
     sodipodi:nodetypes="aacaaaacccccccaaaacaaaaa"
     d="m 35.281955,63.596526 c -2.001207,0.898469 -4.064952,2.745994 -4.37297,4.917906 -0.317272,2.237163 1.860151,4.081777 2.918254,6.118318 -1.902725,-1.216949 -3.107436,-2.728692 -5.028968,-3.303341 -0.0055,-0.0017 -0.01178,-0.0021 -0.01713,0 -2.04572,0.780009 -4.902676,2.18359 -4.900779,4.37297 0.0019,2.193642 2.7345,4.161262 4.917905,4.372969 2.246544,0.217832 4.016902,-3.021912 5.830281,-3.443467 l -1.374276,6.35809 c -0.751129,1.625291 -1.99309,1.943507 -2.669659,1.993422 h 4.835386 4.835385 c -0.676569,-0.04994 -1.918529,-0.368131 -2.66966,-1.993422 l -1.374274,-6.35809 c 1.813379,0.421555 3.583739,3.661299 5.830282,3.443467 2.183404,-0.211707 4.916003,-2.179327 4.917905,-4.372969 0.0019,-2.18938 -2.855058,-3.592961 -4.900779,-4.37297 -0.0053,-0.0021 -0.01165,-0.0017 -0.01713,0 -1.921533,0.574649 -3.126243,2.086392 -5.028968,3.303341 1.058102,-2.036541 3.235525,-3.881155 2.918255,-6.118318 -0.308018,-2.171912 -2.363406,-4.03829 -4.372972,-4.917906 -0.04217,-0.01846 -0.09202,0.0026 -0.138051,0.0026 -0.04603,0 -0.09202,-0.0022 -0.138049,-0.0026 0,0 0,0 0,0 z"
     style="fill:#000000;fill-rule:evenodd;stroke-width:1.32861;stroke-linecap:square;stroke-linejoin:round;paint-order:fill markers stroke"
     id="path833-3" />
  <path
     id="path833-0-6"
     style="fill:#000000;fill-rule:evenodd;stroke-width:1.32861;stroke-linecap:square;stroke-linejoin:round;paint-order:fill markers stroke"
     d="m 65.04265,63.596526 c -2.001206,0.898469 -4.06495,2.745994 -4.372969,4.917906 -0.31727,2.237163 1.86015,4.081777 2.918255,6.118318 -1.902725,-1.216949 -3.107437,-2.728692 -5.028969,-3.303341 -0.0055,-0.0017 -0.01179,-0.0021 -0.01713,0 -2.04572,0.780009 -4.902675,2.18359 -4.900779,4.37297 0.0019,2.193642 2.7345,4.161262 4.917905,4.372969 2.246543,0.217832 4.0169,-3.021912 5.830283,-3.443467 l -1.374274,6.35809 c -0.751134,1.625291 -1.993096,1.943507 -2.669662,1.993422 h 4.835385 4.835384 c -0.676567,-0.04994 -1.918528,-0.368131 -2.669662,-1.993422 l -1.374269,-6.35809 c 1.813376,0.421555 3.583735,3.661299 5.83028,3.443467 2.183403,-0.211707 4.916008,-2.179327 4.91791,-4.372969 0.0021,-2.18938 -2.855064,-3.592961 -4.900782,-4.37297 -0.0053,-0.0021 -0.01164,-0.0017 -0.01711,0 -1.921532,0.574649 -3.126245,2.086392 -5.028968,3.303341 1.058099,-2.036541 3.235524,-3.881155 2.918254,-6.118318 -0.308017,-2.171912 -2.363409,-4.03829 -4.372973,-4.917906 -0.04215,-0.01846 -0.09203,0.0026 -0.138047,0.0026 -0.04604,0 -0.09203,-0.0022 -0.138053,-0.0026 0,0 0,0 0,0 z"
     sodipodi:nodetypes="aacaaaacccccccaaaacaaaaa" />
  <path
     id="path833-3-0"
     style="fill:#000000;fill-rule:evenodd;stroke-width:1.32861;stroke-linecap:square;stroke-linejoin:round;paint-order:fill markers stroke"
     d="m 13.861955,38.319305 c -2.001207,0.898469 -4.0649522,2.745993 -4.37297,4.917905 -0.3172716,2.237163 1.860151,4.081779 2.918254,6.118317 -1.902725,-1.216948 -3.1074358,-2.72869 -5.0289682,-3.30334 -0.00549,-0.0017 -0.011781,-0.002 -0.017127,0 -2.0457198,0.78001 -4.9026762,2.183589 -4.900779,4.372971 0.00189,2.193642 2.7345006,4.161261 4.9179051,4.372969 2.246544,0.217831 4.0169021,-3.021912 5.8302811,-3.443466 l -1.374276,6.358089 c -0.751129,1.625295 -1.9930903,1.943507 -2.669659,1.993423 h 4.835386 4.835385 c -0.676569,-0.04991 -1.918529,-0.368128 -2.66966,-1.993423 l -1.374273,-6.358089 c 1.813379,0.421554 3.583738,3.661297 5.830281,3.443466 2.183405,-0.211708 4.916004,-2.179327 4.917906,-4.372969 0.0019,-2.189382 -2.855058,-3.592961 -4.900779,-4.372971 -0.0053,-0.002 -0.01166,-0.0017 -0.01713,0 -1.921533,0.57465 -3.126243,2.086392 -5.028968,3.30334 1.058101,-2.036538 3.235525,-3.881154 2.918255,-6.118317 -0.308018,-2.171912 -2.363407,-4.03829 -4.372972,-4.917905 -0.04217,-0.01846 -0.09203,0.0026 -0.138051,0.0026 -0.04603,0 -0.09203,-0.0022 -0.138049,-0.0026 -1e-6,0 -1e-6,0 -1e-6,0 z"
     sodipodi:nodetypes="aacaaaacccccccaaaacaaaaa" />
  <path
     sodipodi:nodetypes="aacaaaacccccccaaaacaaaaa"
     d="m 85.861955,38.319305 c -2.001207,0.898469 -4.064952,2.745993 -4.37297,4.917905 -0.317272,2.237163 1.860151,4.081779 2.918254,6.118317 -1.902725,-1.216948 -3.107436,-2.72869 -5.028968,-3.30334 -0.0055,-0.0017 -0.01178,-0.002 -0.01713,0 -2.04572,0.78001 -4.902676,2.183589 -4.900779,4.372971 0.0019,2.193642 2.7345,4.161261 4.917905,4.372969 2.246544,0.217831 4.016902,-3.021912 5.830281,-3.443466 l -1.374276,6.358089 c -0.751129,1.625295 -1.99309,1.943507 -2.669659,1.993423 h 4.835386 4.835385 c -0.676569,-0.04991 -1.918529,-0.368128 -2.66966,-1.993423 l -1.374273,-6.358089 c 1.813379,0.421554 3.583738,3.661297 5.830281,3.443466 2.183405,-0.211708 4.916004,-2.179327 4.917903,-4.372969 0.0018,-2.189382 -2.855055,-3.592961 -4.900776,-4.372971 -0.0053,-0.002 -0.01166,-0.0017 -0.01713,0 -1.921533,0.57465 -3.126243,2.086392 -5.028968,3.30334 1.058101,-2.036538 3.235525,-3.881154 2.918255,-6.118317 -0.308018,-2.171912 -2.363407,-4.03829 -4.372972,-4.917905 -0.04216,-0.01846 -0.09203,0.0026 -0.138051,0.0026 -0.04603,0 -0.09203,-0.0022 -0.138049,-0.0026 -10e-7,0 -10e-7,0 -10e-7,0 z"
     style="fill:#000000;fill-rule:evenodd;stroke-width:1.32861;stroke-linecap:square;stroke-linejoin:round;paint-order:fill markers stroke"
     id="path833-3-0-6" />
  <path
     sodipodi:nodetypes="aacaaaacccccccaaaacaaaaa"
     d="m 49.861955,38.319305 c -2.001207,0.898469 -4.064952,2.745993 -4.37297,4.917905 -0.317272,2.237163 1.860151,4.081779 2.918254,6.118317 -1.902725,-1.216948 -3.107436,-2.72869 -5.028968,-3.30334 -0.0055,-0.0017 -0.01178,-0.002 -0.01713,0 -2.04572,0.78001 -4.902676,2.183589 -4.900779,4.372971 0.0019,2.193642 2.7345,4.161261 4.917905,4.372969 2.246544,0.217831 4.016902,-3.021912 5.830281,-3.443466 l -1.374276,6.358089 c -0.751129,1.625295 -1.99309,1.943507 -2.669659,1.993423 h 4.835386 4.835385 c -0.676569,-0.04991 -1.918529,-0.368128 -2.66966,-1.993423 l -1.374273,-6.358089 c 1.813379,0.421554 3.583738,3.661297 5.830281,3.443466 2.183405,-0.211708 4.916004,-2.179327 4.917906,-4.372969 0.0019,-2.189382 -2.855058,-3.592961 -4.900779,-4.372971 -0.0053,-0.002 -0.01165,-0.0017 -0.01713,0 -1.921533,0.57465 -3.126243,2.086392 -5.028968,3.30334 1.058101,-2.036538 3.235525,-3.881154 2.918255,-6.118317 -0.308018,-2.171912 -2.363407,-4.03829 -4.372972,-4.917905 -0.04216,-0.01846 -0.09202,0.0026 -0.138051,0.0026 -0.04603,0 -0.09203,-0.0022 -0.138049,-0.0026 -1e-6,0 -1e-6,0 -1e-6,0 z"
     style="fill:#000000;fill-rule:evenodd;stroke-width:1.32861;stroke-linecap:square;stroke-linejoin:round;paint-order:fill markers stroke"
     id="path833-3-0-2" />
</svg>
