<?xml version="1.0" encoding="UTF-8" standalone="no"?>
<svg
   xmlns:dc="http://purl.org/dc/elements/1.1/"
   xmlns:cc="http://creativecommons.org/ns#"
   xmlns:rdf="http://www.w3.org/1999/02/22-rdf-syntax-ns#"
   xmlns:svg="http://www.w3.org/2000/svg"
   xmlns="http://www.w3.org/2000/svg"
   xmlns:sodipodi="http://sodipodi.sourceforge.net/DTD/sodipodi-0.dtd"
   xmlns:inkscape="http://www.inkscape.org/namespaces/inkscape"
   inkscape:version="1.0 (4035a4fb49, 2020-05-01)"
   sodipodi:docname="six.svg"
   id="svg23"
   version="1.1"
   viewBox="0 0 100 110">
  <metadata
     id="metadata29">
    <rdf:RDF>
      <cc:Work
         rdf:about="">
        <dc:format>image/svg+xml</dc:format>
        <dc:type
           rdf:resource="http://purl.org/dc/dcmitype/StillImage" />
        <dc:title></dc:title>
      </cc:Work>
    </rdf:RDF>
  </metadata>
  <defs
     id="defs27" />
  <sodipodi:namedview
     inkscape:snap-bbox-midpoints="true"
     inkscape:snap-bbox-edge-midpoints="true"
     inkscape:bbox-paths="true"
     inkscape:bbox-nodes="true"
     inkscape:snap-bbox="true"
     inkscape:document-rotation="0"
     inkscape:guide-bbox="true"
     showguides="true"
     inkscape:current-layer="svg23"
     inkscape:window-maximized="1"
     inkscape:window-y="0"
     inkscape:window-x="0"
     inkscape:cy="22.152872"
     inkscape:cx="42.623009"
     inkscape:zoom="4"
     showgrid="false"
     id="namedview25"
     inkscape:window-height="1020"
     inkscape:window-width="1920"
     inkscape:pageshadow="2"
     inkscape:pageopacity="0"
     guidetolerance="10"
     gridtolerance="10"
     objecttolerance="10"
     borderopacity="1"
     bordercolor="#666666"
     pagecolor="#ffffff" />
  <g
     style="fill:#501616"
     transform="matrix(0,1,1,0,45.343786,60.257881)"
     id="g989" />
  <path
     id="path833"
     style="fill:#000000;fill-rule:evenodd;stroke-width:1.47623;stroke-linecap:square;stroke-linejoin:round;paint-order:fill markers stroke"
     d="m 33.312886,9.0723998 c -2.223563,0.9982992 -4.516613,3.0511042 -4.858855,5.4643402 -0.352524,2.485736 2.066834,4.535308 3.242504,6.798131 -2.114138,-1.352166 -3.452706,-3.03188 -5.587742,-3.670379 -0.0061,-0.0019 -0.01309,-0.0023 -0.01903,0 -2.273022,0.866677 -5.447418,2.426211 -5.44531,4.858856 0.0021,2.43738 3.038334,4.623624 5.464339,4.858854 2.49616,0.242035 4.463225,-3.35768 6.47809,-3.826074 l -1.526973,7.064544 c -0.834588,1.805883 -2.214545,2.159453 -2.966288,2.214914 h 5.372651 5.37265 c -0.751743,-0.05546 -2.131699,-0.409031 -2.966289,-2.214914 l -1.526971,-7.064544 c 2.014866,0.468394 3.981932,4.068109 6.478091,3.826074 2.426005,-0.23523 5.462226,-2.421474 5.464339,-4.858854 0.0021,-2.432645 -3.172287,-3.992179 -5.44531,-4.858856 -0.0059,-0.0023 -0.01295,-0.0019 -0.01903,0 -2.135037,0.638499 -3.473603,2.318213 -5.587742,3.670379 1.175669,-2.262823 3.595028,-4.312395 3.242505,-6.798131 -0.342242,-2.413236 -2.626006,-4.486989 -4.858857,-5.4643402 -0.04685,-0.02051 -0.10225,0.0029 -0.15339,0.0029 -0.05114,0 -0.10225,-0.0024 -0.153388,-0.0029 0,0 0,0 0,0 z"
     sodipodi:nodetypes="aacaaaacccccccaaaacaaaaa" />
  <path
     sodipodi:nodetypes="aacaaaacccccccaaaacaaaaa"
     d="m 66.380325,9.0723998 c -2.223562,0.9982992 -4.516611,3.0511042 -4.858854,5.4643402 -0.352522,2.485736 2.066833,4.535308 3.242505,6.798131 -2.114138,-1.352166 -3.452707,-3.03188 -5.587743,-3.670379 -0.0061,-0.0019 -0.0131,-0.0023 -0.01903,0 -2.273022,0.866677 -5.447417,2.426211 -5.44531,4.858856 0.0021,2.43738 3.038334,4.623624 5.464339,4.858854 2.496159,0.242035 4.463222,-3.35768 6.478092,-3.826074 l -1.526971,7.064544 c -0.834593,1.805883 -2.214551,2.159453 -2.966291,2.214914 h 5.37265 5.372649 c -0.751742,-0.05546 -2.131699,-0.409031 -2.966292,-2.214914 l -1.526965,-7.064544 c 2.014863,0.468394 3.981928,4.068109 6.478089,3.826074 2.426004,-0.23523 5.462231,-2.421474 5.464345,-4.858854 0.0023,-2.432645 -3.172294,-3.992179 -5.445314,-4.858856 -0.0059,-0.0023 -0.01293,-0.0019 -0.01901,0 -2.135035,0.638499 -3.473605,2.318213 -5.587742,3.670379 1.175666,-2.262823 3.595027,-4.312395 3.242504,-6.798131 -0.342241,-2.413236 -2.626009,-4.486989 -4.858858,-5.4643402 -0.04683,-0.02051 -0.10225,0.0029 -0.153386,0.0029 -0.05115,0 -0.102255,-0.0024 -0.153392,-0.0029 0,0 0,0 0,0 z"
     style="fill:#000000;fill-rule:evenodd;stroke-width:1.47623;stroke-linecap:square;stroke-linejoin:round;paint-order:fill markers stroke"
     id="path833-0" />
  <path
     sodipodi:nodetypes="aacaaaacccccccaaaacaaaaa"
     d="m 33.312886,67.7164 c -2.223563,0.998299 -4.516613,3.051104 -4.858855,5.46434 -0.352524,2.485736 2.066834,4.535308 3.242504,6.798131 -2.114138,-1.352166 -3.452706,-3.03188 -5.587742,-3.670379 -0.0061,-0.0019 -0.01309,-0.0023 -0.01903,0 -2.273022,0.866677 -5.447418,2.426211 -5.44531,4.858856 0.0021,2.43738 3.038334,4.623624 5.464339,4.858854 2.49616,0.242035 4.463225,-3.35768 6.47809,-3.826074 l -1.526973,7.064544 c -0.834588,1.805879 -2.214545,2.159452 -2.966288,2.214913 h 5.372651 5.37265 c -0.751743,-0.05549 -2.131699,-0.409034 -2.966289,-2.214913 l -1.526971,-7.064544 c 2.014866,0.468394 3.981932,4.068109 6.478091,3.826074 2.426005,-0.23523 5.462226,-2.421474 5.464339,-4.858854 0.0021,-2.432645 -3.172287,-3.992179 -5.44531,-4.858856 -0.0059,-0.0023 -0.01295,-0.0019 -0.01903,0 -2.135037,0.638499 -3.473603,2.318213 -5.587742,3.670379 1.175669,-2.262823 3.595028,-4.312395 3.242505,-6.798131 -0.342242,-2.413236 -2.626006,-4.486989 -4.858857,-5.46434 -0.04685,-0.02051 -0.10225,0.0029 -0.15339,0.0029 -0.05114,0 -0.10225,-0.0024 -0.153388,-0.0029 0,0 0,0 0,0 z"
     style="fill:#000000;fill-rule:evenodd;stroke-width:1.47623;stroke-linecap:square;stroke-linejoin:round;paint-order:fill markers stroke"
     id="path833-3" />
  <path
     id="path833-0-6"
     style="fill:#000000;fill-rule:evenodd;stroke-width:1.47623;stroke-linecap:square;stroke-linejoin:round;paint-order:fill markers stroke"
     d="m 66.380325,67.7164 c -2.223562,0.998299 -4.516611,3.051104 -4.858854,5.46434 -0.352522,2.485736 2.066833,4.535308 3.242505,6.798131 -2.114138,-1.352166 -3.452707,-3.03188 -5.587743,-3.670379 -0.0061,-0.0019 -0.0131,-0.0023 -0.01903,0 -2.273022,0.866677 -5.447417,2.426211 -5.44531,4.858856 0.0021,2.43738 3.038334,4.623624 5.464339,4.858854 2.496159,0.242035 4.463222,-3.35768 6.478092,-3.826074 l -1.526971,7.064544 c -0.834593,1.805879 -2.214551,2.159452 -2.966291,2.214913 h 5.37265 5.372649 C 71.15462,91.424095 69.774663,91.070551 68.94007,89.264672 l -1.526966,-7.064544 c 2.014863,0.468394 3.981928,4.068109 6.478089,3.826074 2.426004,-0.23523 5.462231,-2.421474 5.464345,-4.858854 0.0023,-2.432645 -3.172294,-3.992179 -5.445314,-4.858856 -0.0059,-0.0023 -0.01293,-0.0019 -0.01901,0 -2.135035,0.638499 -3.473605,2.318213 -5.587742,3.670379 1.175666,-2.262823 3.595027,-4.312395 3.242504,-6.798131 -0.342241,-2.413236 -2.626009,-4.486989 -4.858858,-5.46434 -0.04683,-0.02051 -0.10225,0.0029 -0.153386,0.0029 -0.05115,0 -0.102255,-0.0024 -0.153392,-0.0029 0,0 0,0 0,0 z"
     sodipodi:nodetypes="aacaaaacccccccaaaacaaaaa" />
  <path
     id="path833-3-0"
     style="fill:#000000;fill-rule:evenodd;stroke-width:1.47623;stroke-linecap:square;stroke-linejoin:round;paint-order:fill markers stroke"
     d="m 29.512886,39.630599 c -2.223563,0.998299 -4.516613,3.051103 -4.858855,5.464339 -0.352524,2.485736 2.066834,4.535309 3.242504,6.79813 -2.114138,-1.352165 -3.452706,-3.031878 -5.587742,-3.670378 -0.0061,-0.0019 -0.01309,-0.0022 -0.01903,0 -2.273022,0.866678 -5.447418,2.42621 -5.44531,4.858856 0.0021,2.43738 3.038334,4.623624 5.464339,4.858855 2.49616,0.242034 4.463225,-3.35768 6.47809,-3.826074 l -1.526973,7.064544 c -0.834588,1.805883 -2.214545,2.159452 -2.966288,2.214914 h 5.372651 5.37265 c -0.751743,-0.05546 -2.131699,-0.409031 -2.966289,-2.214914 l -1.52697,-7.064544 c 2.014866,0.468394 3.981931,4.068108 6.47809,3.826074 2.426006,-0.235231 5.462227,-2.421475 5.46434,-4.858855 0.0021,-2.432646 -3.172287,-3.992178 -5.44531,-4.858856 -0.0059,-0.0022 -0.01295,-0.0019 -0.01903,0 -2.135037,0.6385 -3.473603,2.318213 -5.587742,3.670378 1.175668,-2.262821 3.595028,-4.312394 3.242505,-6.79813 -0.342242,-2.413236 -2.626007,-4.486989 -4.858857,-5.464339 -0.04685,-0.02051 -0.10225,0.0029 -0.15339,0.0029 -0.05114,0 -0.102251,-0.0024 -0.153388,-0.0029 -1e-6,0 -1e-6,0 -1e-6,0 z"
     sodipodi:nodetypes="aacaaaacccccccaaaacaaaaa" />
  <path
     sodipodi:nodetypes="aacaaaacccccccaaaacaaaaa"
     d="m 69.512886,39.630599 c -2.223563,0.998299 -4.516613,3.051103 -4.858855,5.464339 -0.352524,2.485736 2.066834,4.535309 3.242504,6.79813 -2.114138,-1.352165 -3.452706,-3.031878 -5.587742,-3.670378 -0.0061,-0.0019 -0.01309,-0.0022 -0.01903,0 -2.273022,0.866678 -5.447418,2.42621 -5.44531,4.858856 0.0021,2.43738 3.038334,4.623624 5.464339,4.858855 2.49616,0.242034 4.463225,-3.35768 6.47809,-3.826074 l -1.526973,7.064544 c -0.834588,1.805883 -2.214545,2.159452 -2.966288,2.214914 h 5.372651 5.37265 c -0.751743,-0.05546 -2.131699,-0.409031 -2.966289,-2.214914 l -1.52697,-7.064544 c 2.014866,0.468394 3.981931,4.068108 6.47809,3.826074 2.426006,-0.235231 5.462227,-2.421475 5.46434,-4.858855 0.0021,-2.432646 -3.172287,-3.992178 -5.44531,-4.858856 -0.0059,-0.0022 -0.01295,-0.0019 -0.01903,0 -2.135037,0.6385 -3.473603,2.318213 -5.587742,3.670378 1.175668,-2.262821 3.595028,-4.312394 3.242505,-6.79813 -0.342242,-2.413236 -2.626007,-4.486989 -4.858857,-5.464339 -0.04685,-0.02051 -0.10225,0.0029 -0.15339,0.0029 -0.05114,0 -0.102251,-0.0024 -0.153388,-0.0029 -10e-7,0 -10e-7,0 -10e-7,0 z"
     style="fill:#000000;fill-rule:evenodd;stroke-width:1.47623;stroke-linecap:square;stroke-linejoin:round;paint-order:fill markers stroke"
     id="path833-3-0-6" />
</svg>
