<?xml version="1.0" encoding="UTF-8"?>
<svg version="1.1" viewBox="0 0 100 110" xmlns="http://www.w3.org/2000/svg" xmlns:cc="http://creativecommons.org/ns#" xmlns:dc="http://purl.org/dc/elements/1.1/" xmlns:rdf="http://www.w3.org/1999/02/22-rdf-syntax-ns#" xmlns:xlink="http://www.w3.org/1999/xlink">
 <metadata>
  <rdf:RDF>
   <cc:Work rdf:about="">
    <dc:format>image/svg+xml</dc:format>
    <dc:type rdf:resource="http://purl.org/dc/dcmitype/StillImage"/>
    <dc:title/>
   </cc:Work>
  </rdf:RDF>
 </metadata>
 <path id="path833-3-0" d="m45.4 34.03c-1.635 0.7342-3.322 2.244-3.574 4.019-0.2593 1.828 1.52 3.336 2.385 5-1.555-0.9945-2.539-2.23-4.11-2.699-0.0045-0.0014-0.0096-0.0016-0.014 0-1.672 0.6374-4.006 1.784-4.005 3.574 0.0015 1.793 2.235 3.401 4.019 3.574 1.836 0.178 3.283-2.469 4.764-2.814l-1.123 5.196c-0.6138 1.328-1.629 1.588-2.182 1.629h7.903c-0.5529-0.04079-1.568-0.3008-2.182-1.629l-1.123-5.196c1.482 0.3445 2.929 2.992 4.764 2.814 1.784-0.173 4.017-1.781 4.019-3.574 0.0015-1.789-2.333-2.936-4.005-3.574-0.0043-0.0016-0.0095-0.0014-0.014 0-1.57 0.4696-2.555 1.705-4.11 2.699 0.8647-1.664 2.644-3.172 2.385-5-0.2517-1.775-1.931-3.3-3.574-4.019-0.03446-0.01508-0.0752 0.0021-0.1128 0.0021-0.03761 0-0.0752-0.0018-0.1128-0.0021h-1e-6z" fill-rule="evenodd" stroke-linecap="square" stroke-linejoin="round" stroke-width="1.086" style="paint-order:fill markers stroke"/>
 <use transform="translate(17.24 27.1)" width="100%" height="100%" xlink:href="#path833-3-0"/>
 <use id="use838" transform="translate(-22.33 -30.3)" width="100%" height="100%" xlink:href="#path833-3-0"/>
 <use id="use840" transform="translate(38.1 4.299)" width="100%" height="100%" xlink:href="#use838"/>
 <use id="use842" transform="translate(23.88 76.14)" width="100%" height="100%" xlink:href="#use840"/>
 <use transform="translate(1.591 -44.36)" width="100%" height="100%" xlink:href="#use842"/>
</svg>
