<?xml version="1.0" encoding="UTF-8" standalone="no"?>
<svg
   xmlns:dc="http://purl.org/dc/elements/1.1/"
   xmlns:cc="http://creativecommons.org/ns#"
   xmlns:rdf="http://www.w3.org/1999/02/22-rdf-syntax-ns#"
   xmlns:svg="http://www.w3.org/2000/svg"
   xmlns="http://www.w3.org/2000/svg"
   xmlns:sodipodi="http://sodipodi.sourceforge.net/DTD/sodipodi-0.dtd"
   xmlns:inkscape="http://www.inkscape.org/namespaces/inkscape"
   inkscape:version="1.0 (4035a4fb49, 2020-05-01)"
   sodipodi:docname="ten.svg"
   id="svg23"
   version="1.1"
   viewBox="0 0 100 110">
  <metadata
     id="metadata29">
    <rdf:RDF>
      <cc:Work
         rdf:about="">
        <dc:format>image/svg+xml</dc:format>
        <dc:type
           rdf:resource="http://purl.org/dc/dcmitype/StillImage" />
        <dc:title></dc:title>
      </cc:Work>
    </rdf:RDF>
  </metadata>
  <defs
     id="defs27" />
  <sodipodi:namedview
     inkscape:snap-bbox-midpoints="true"
     inkscape:snap-bbox-edge-midpoints="true"
     inkscape:bbox-paths="true"
     inkscape:bbox-nodes="true"
     inkscape:snap-bbox="true"
     inkscape:document-rotation="0"
     inkscape:guide-bbox="true"
     showguides="true"
     inkscape:current-layer="svg23"
     inkscape:window-maximized="1"
     inkscape:window-y="0"
     inkscape:window-x="0"
     inkscape:cy="44.41921"
     inkscape:cx="6.193792"
     inkscape:zoom="4"
     showgrid="false"
     id="namedview25"
     inkscape:window-height="1020"
     inkscape:window-width="1920"
     inkscape:pageshadow="2"
     inkscape:pageopacity="0"
     guidetolerance="10"
     gridtolerance="10"
     objecttolerance="10"
     borderopacity="1"
     bordercolor="#666666"
     pagecolor="#ffffff" />
  <g
     style="fill:#501616"
     transform="matrix(0,1,1,0,45.343786,60.257881)"
     id="g989" />
  <path
     id="path833-3-8"
     style="fill:#000000;fill-rule:evenodd;stroke-width:1.19575;stroke-linecap:square;stroke-linejoin:round;paint-order:fill markers stroke"
     d="m 36.753763,7.1126964 c -1.801086,0.808622 -3.658456,2.471395 -3.935673,4.4261156 -0.285544,2.013446 1.674136,3.673599 2.626429,5.506486 -1.712452,-1.095254 -2.796692,-2.455823 -4.526071,-2.973007 -0.005,-0.0015 -0.0106,-0.0019 -0.01542,0 -1.841148,0.702008 -4.412409,1.965231 -4.410701,3.935673 0.0017,1.974278 2.46105,3.745136 4.426114,3.935672 2.02189,0.196049 3.615212,-2.719721 5.247253,-3.09912 l -1.236848,5.722281 c -0.676016,1.462762 -1.793781,1.749156 -2.402693,1.79408 H 36.878 41.229847 c -0.608913,-0.04495 -1.726677,-0.331318 -2.402694,-1.79408 l -1.236847,-5.722281 c 1.632041,0.379399 3.225365,3.295169 5.247254,3.09912 1.965063,-0.190536 4.424402,-1.961394 4.426114,-3.935672 0.0017,-1.970442 -2.569552,-3.233665 -4.410701,-3.935673 -0.0048,-0.0019 -0.01049,-0.0015 -0.01542,0 -1.72938,0.517184 -2.813619,1.877753 -4.526071,2.973007 0.952292,-1.832887 2.911972,-3.49304 2.626429,-5.506486 -0.277216,-1.9547206 -2.127065,-3.6344606 -3.935674,-4.4261156 -0.03795,-0.01661 -0.08282,0.0023 -0.124246,0.0023 -0.04143,0 -0.08282,-0.002 -0.124244,-0.0023 0,0 0,0 0,0 z"
     sodipodi:nodetypes="aacaaaacccccccaaaacaaaaa" />
  <path
     sodipodi:nodetypes="aacaaaacccccccaaaacaaaaa"
     d="m 63.538389,7.1126964 c -1.801085,0.808622 -3.658455,2.471395 -3.935672,4.4261156 -0.285543,2.013446 1.674135,3.673599 2.626429,5.506486 -1.712452,-1.095254 -2.796693,-2.455823 -4.526072,-2.973007 -0.0049,-0.0015 -0.01061,-0.0019 -0.01542,0 -1.841148,0.702008 -4.412407,1.965231 -4.410701,3.935673 0.0017,1.974278 2.46105,3.745136 4.426115,3.935672 2.021888,0.196049 3.61521,-2.719721 5.247254,-3.09912 l -1.236846,5.722281 c -0.676021,1.462762 -1.793787,1.749156 -2.402696,1.79408 h 4.351846 4.351846 c -0.60891,-0.04495 -1.726675,-0.331318 -2.402696,-1.79408 l -1.236842,-5.722281 c 1.632039,0.379399 3.225362,3.295169 5.247252,3.09912 1.965063,-0.190536 4.424407,-1.961394 4.426119,-3.935672 0.0019,-1.970442 -2.569557,-3.233665 -4.410704,-3.935673 -0.0048,-0.0019 -0.01048,-0.0015 -0.0154,0 -1.729378,0.517184 -2.81362,1.877753 -4.526071,2.973007 0.952289,-1.832887 2.911972,-3.49304 2.626429,-5.506486 -0.277216,-1.9547206 -2.127068,-3.6344606 -3.935676,-4.4261156 -0.03794,-0.01661 -0.08283,0.0023 -0.124242,0.0023 -0.04144,0 -0.08283,-0.002 -0.124248,-0.0023 0,0 0,0 0,0 z"
     style="fill:#000000;fill-rule:evenodd;stroke-width:1.19575;stroke-linecap:square;stroke-linejoin:round;paint-order:fill markers stroke"
     id="path833-0-6-7" />
  <path
     id="path833-3-0"
     style="fill:#000000;fill-rule:evenodd;stroke-width:1.19575;stroke-linecap:square;stroke-linejoin:round;paint-order:fill markers stroke"
     d="m 50.000017,27.857687 c -1.801087,0.808622 -3.658458,2.471394 -3.935673,4.426115 -0.285545,2.013446 1.674136,3.673601 2.626428,5.506485 -1.712452,-1.095253 -2.796692,-2.455821 -4.526072,-2.973006 -0.005,-0.0015 -0.0106,-0.0018 -0.01542,0 -1.841147,0.702009 -4.412409,1.96523 -4.410701,3.935674 0.0017,1.974279 2.461051,3.745137 4.426116,3.935676 2.021889,0.196047 3.615211,-2.719725 5.247252,-3.099123 l -1.236848,5.722282 c -0.676016,1.462766 -1.793782,1.749156 -2.402693,1.794076 h 4.351847 4.351847 c -0.608912,-0.0449 -1.726676,-0.33131 -2.402694,-1.794076 L 50.83656,39.589508 c 1.632041,0.379398 3.225364,3.29517 5.247253,3.099123 1.965065,-0.190539 4.424404,-1.961397 4.426115,-3.935676 0.0017,-1.970444 -2.569552,-3.233665 -4.410701,-3.935674 -0.0048,-0.0018 -0.01049,-0.0015 -0.01542,0 -1.729379,0.517185 -2.813618,1.877753 -4.526071,2.973006 0.952291,-1.832884 2.911973,-3.493039 2.62643,-5.506485 -0.277217,-1.954721 -2.127067,-3.634461 -3.935675,-4.426115 -0.03795,-0.01661 -0.08283,0.0023 -0.124246,0.0023 -0.04143,0 -0.08283,-0.002 -0.124244,-0.0023 -10e-7,0 -10e-7,0 -10e-7,0 z"
     sodipodi:nodetypes="aacaaaacccccccaaaacaaaaa" />
  <path
     sodipodi:nodetypes="aacaaaacccccccaaaacaaaaa"
     d="m 18.753757,25.112696 c -1.801087,0.808622 -3.658458,2.471394 -3.935673,4.426115 -0.285545,2.013446 1.674136,3.673601 2.626428,5.506485 -1.712452,-1.095253 -2.796692,-2.455821 -4.526072,-2.973006 -0.005,-0.0015 -0.0106,-0.0018 -0.01542,0 -1.841147,0.702009 -4.4124081,1.96523 -4.4107008,3.935674 0.00171,1.974279 2.4610508,3.745137 4.4261158,3.935676 2.021889,0.196047 3.615211,-2.719725 5.247252,-3.099123 l -1.236848,5.722282 c -0.676016,1.462766 -1.793782,1.749156 -2.402693,1.794076 h 4.351847 4.351847 c -0.608912,-0.0449 -1.726676,-0.33131 -2.402694,-1.794076 L 19.5903,36.844517 c 1.632041,0.379398 3.225364,3.29517 5.247253,3.099123 1.965065,-0.190539 4.424404,-1.961397 4.426115,-3.935676 0.0017,-1.970444 -2.569552,-3.233665 -4.410701,-3.935674 -0.0048,-0.0018 -0.01049,-0.0015 -0.01542,0 -1.729379,0.517185 -2.813618,1.877753 -4.526071,2.973006 0.952291,-1.832884 2.911973,-3.493039 2.62643,-5.506485 -0.277217,-1.954721 -2.127067,-3.634461 -3.935675,-4.426115 -0.03795,-0.01661 -0.08283,0.0023 -0.124246,0.0023 -0.04143,0 -0.08283,-0.002 -0.124244,-0.0023 -1e-6,0 -1e-6,0 -1e-6,0 z"
     style="fill:#000000;fill-rule:evenodd;stroke-width:1.19575;stroke-linecap:square;stroke-linejoin:round;paint-order:fill markers stroke"
     id="path833-3-0-9" />
  <path
     id="path833-0-6-6-2"
     style="fill:#000000;fill-rule:evenodd;stroke-width:1.19575;stroke-linecap:square;stroke-linejoin:round;paint-order:fill markers stroke"
     d="m 81.538385,25.112696 c -1.801085,0.808622 -3.658455,2.471395 -3.935672,4.426116 -0.285543,2.013446 1.674135,3.673599 2.626429,5.506486 -1.712452,-1.095254 -2.796693,-2.455823 -4.526072,-2.973007 -0.0049,-0.0015 -0.01061,-0.0019 -0.01542,0 -1.841148,0.702008 -4.412407,1.965231 -4.410701,3.935673 0.0017,1.974279 2.46105,3.745137 4.426115,3.935676 2.021888,0.196047 3.61521,-2.719725 5.247254,-3.099124 l -1.236846,5.722283 c -0.676021,1.462756 -1.793787,1.749156 -2.402696,1.794076 h 4.351846 4.351846 c -0.60891,-0.0449 -1.726675,-0.33132 -2.402696,-1.794076 L 82.37493,36.844516 c 1.632039,0.379399 3.225362,3.295171 5.247252,3.099124 1.965063,-0.190539 4.424407,-1.961397 4.426119,-3.935676 0.0019,-1.970442 -2.569557,-3.233665 -4.410704,-3.935673 -0.0048,-0.0019 -0.01048,-0.0015 -0.0154,0 -1.729378,0.517184 -2.81362,1.877753 -4.526071,2.973007 0.952289,-1.832887 2.911972,-3.49304 2.626429,-5.506486 -0.277216,-1.954721 -2.127068,-3.634461 -3.935676,-4.426116 -0.03794,-0.01661 -0.08283,0.0023 -0.124242,0.0023 -0.04144,0 -0.08283,-0.002 -0.124248,-0.0023 0,0 0,0 0,0 z"
     sodipodi:nodetypes="aacaaaacccccccaaaacaaaaa" />
  <path
     sodipodi:nodetypes="aacaaaacccccccaaaacaaaaa"
     d="m 64.309741,66.367707 c -1.801087,0.808622 -3.658458,2.471394 -3.935673,4.426115 -0.285545,2.013446 1.674136,3.673601 2.626428,5.506485 -1.712452,-1.095253 -2.796692,-2.455821 -4.526072,-2.973006 -0.005,-0.0015 -0.0106,-0.0018 -0.01542,0 -1.841147,0.702009 -4.412408,1.96523 -4.410701,3.935674 0.0017,1.974279 2.461051,3.745137 4.426116,3.935676 2.021889,0.196047 3.615211,-2.719725 5.247252,-3.099123 l -1.236848,5.722277 c -0.676016,1.46277 -1.793782,1.74916 -2.402693,1.79408 h 4.351847 4.351847 c -0.608912,-0.0449 -1.726676,-0.33131 -2.402694,-1.79408 l -1.236846,-5.722277 c 1.632041,0.379398 3.225364,3.29517 5.247253,3.099123 1.965065,-0.190539 4.424404,-1.961397 4.426115,-3.935676 0.0017,-1.970444 -2.569552,-3.233665 -4.410701,-3.935674 -0.0048,-0.0018 -0.01049,-0.0015 -0.01542,0 -1.729379,0.517185 -2.813618,1.877753 -4.526071,2.973006 0.952291,-1.832884 2.911973,-3.493039 2.62643,-5.506485 -0.277217,-1.954721 -2.127067,-3.634461 -3.935675,-4.426115 -0.03795,-0.01661 -0.08283,0.0023 -0.124246,0.0023 -0.04143,0 -0.08283,-0.002 -0.124244,-0.0023 -10e-7,0 -10e-7,0 -10e-7,0 z"
     style="fill:#000000;fill-rule:evenodd;stroke-width:1.19575;stroke-linecap:square;stroke-linejoin:round;paint-order:fill markers stroke"
     id="path833-3-0-0" />
  <path
     id="path833-3-0-0-2"
     style="fill:#000000;fill-rule:evenodd;stroke-width:1.19575;stroke-linecap:square;stroke-linejoin:round;paint-order:fill markers stroke"
     d="m 35.98241,66.367707 c -1.801087,0.808622 -3.658458,2.471394 -3.935673,4.426115 -0.285545,2.013446 1.674136,3.673601 2.626428,5.506485 -1.712452,-1.095253 -2.796692,-2.455821 -4.526072,-2.973006 -0.005,-0.0015 -0.0106,-0.0018 -0.01542,0 -1.841147,0.702009 -4.412408,1.96523 -4.410701,3.935674 0.0017,1.974279 2.461051,3.745137 4.426116,3.935676 2.021889,0.196047 3.615211,-2.719725 5.247252,-3.099123 l -1.236848,5.722277 c -0.676016,1.46277 -1.793782,1.74916 -2.402693,1.79408 h 4.351847 4.351847 c -0.608912,-0.0449 -1.726676,-0.33131 -2.402694,-1.79408 l -1.236846,-5.722277 c 1.632041,0.379398 3.225364,3.29517 5.247253,3.099123 1.965065,-0.190539 4.424404,-1.961397 4.426115,-3.935676 0.0017,-1.970444 -2.569552,-3.233665 -4.410701,-3.935674 -0.0048,-0.0018 -0.01049,-0.0015 -0.01542,0 -1.729379,0.517185 -2.813618,1.877753 -4.526071,2.973006 0.952291,-1.832884 2.911973,-3.493039 2.62643,-5.506485 -0.277217,-1.954721 -2.127067,-3.634461 -3.935675,-4.426115 -0.03795,-0.01661 -0.08283,0.0023 -0.124246,0.0023 -0.04143,0 -0.08283,-0.002 -0.124244,-0.0023 -10e-7,0 -10e-7,0 -10e-7,0 z"
     sodipodi:nodetypes="aacaaaacccccccaaaacaaaaa" />
  <path
     id="path833-3-0-9-7"
     style="fill:#000000;fill-rule:evenodd;stroke-width:1.19575;stroke-linecap:square;stroke-linejoin:round;paint-order:fill markers stroke"
     d="m 18.753757,45.112696 c -1.801087,0.808622 -3.658458,2.471394 -3.935673,4.426115 -0.285545,2.013446 1.674136,3.673601 2.626428,5.506485 -1.712452,-1.095253 -2.796692,-2.455821 -4.526072,-2.973006 -0.005,-0.0015 -0.0106,-0.0018 -0.01542,0 -1.841147,0.702009 -4.4124081,1.96523 -4.4107008,3.935674 0.00171,1.974279 2.4610508,3.745137 4.4261158,3.935676 2.021889,0.196047 3.615211,-2.719725 5.247252,-3.099123 l -1.236848,5.722282 c -0.676016,1.462766 -1.793782,1.749156 -2.402693,1.794076 h 4.351847 4.351847 c -0.608912,-0.0449 -1.726676,-0.33131 -2.402694,-1.794076 L 19.5903,56.844517 c 1.632041,0.379398 3.225364,3.29517 5.247253,3.099123 1.965065,-0.190539 4.424404,-1.961397 4.426115,-3.935676 0.0017,-1.970444 -2.569552,-3.233665 -4.410701,-3.935674 -0.0048,-0.0018 -0.01049,-0.0015 -0.01542,0 -1.729379,0.517185 -2.813618,1.877753 -4.526071,2.973006 0.952291,-1.832884 2.911973,-3.493039 2.62643,-5.506485 -0.277217,-1.954721 -2.127067,-3.634461 -3.935675,-4.426115 -0.03795,-0.01661 -0.08283,0.0023 -0.124246,0.0023 -0.04143,0 -0.08283,-0.002 -0.124244,-0.0023 -1e-6,0 -1e-6,0 -1e-6,0 z"
     sodipodi:nodetypes="aacaaaacccccccaaaacaaaaa" />
  <path
     sodipodi:nodetypes="aacaaaacccccccaaaacaaaaa"
     d="m 81.538385,45.112696 c -1.801085,0.808622 -3.658455,2.471395 -3.935672,4.426116 -0.285543,2.013446 1.674135,3.673599 2.626429,5.506486 -1.712452,-1.095254 -2.796693,-2.455823 -4.526072,-2.973007 -0.0049,-0.0015 -0.01061,-0.0019 -0.01542,0 -1.841148,0.702008 -4.412407,1.965231 -4.410701,3.935673 0.0017,1.974279 2.46105,3.745137 4.426115,3.935676 2.021888,0.196047 3.61521,-2.719725 5.247254,-3.099124 l -1.236846,5.722283 c -0.676021,1.462756 -1.793787,1.749156 -2.402696,1.794076 h 4.351846 4.351846 c -0.60891,-0.0449 -1.726675,-0.33132 -2.402696,-1.794076 L 82.37493,56.844516 c 1.632039,0.379399 3.225362,3.295171 5.247252,3.099124 1.965063,-0.190539 4.424407,-1.961397 4.426119,-3.935676 0.0019,-1.970442 -2.569557,-3.233665 -4.410704,-3.935673 -0.0048,-0.0019 -0.01048,-0.0015 -0.0154,0 -1.729378,0.517184 -2.81362,1.877753 -4.526071,2.973007 0.952289,-1.832887 2.911972,-3.49304 2.626429,-5.506486 -0.277216,-1.954721 -2.127068,-3.634461 -3.935676,-4.426116 -0.03794,-0.01661 -0.08283,0.0023 -0.124242,0.0023 -0.04144,0 -0.08283,-0.002 -0.124248,-0.0023 0,0 0,0 0,0 z"
     style="fill:#000000;fill-rule:evenodd;stroke-width:1.19575;stroke-linecap:square;stroke-linejoin:round;paint-order:fill markers stroke"
     id="path833-0-6-6-2-5" />
  <path
     sodipodi:nodetypes="aacaaaacccccccaaaacaaaaa"
     d="m 50.000017,47.857687 c -1.801087,0.808622 -3.658458,2.471394 -3.935673,4.426115 -0.285545,2.013446 1.674136,3.673601 2.626428,5.506485 -1.712452,-1.095253 -2.796692,-2.455821 -4.526072,-2.973006 -0.005,-0.0015 -0.0106,-0.0018 -0.01542,0 -1.841147,0.702009 -4.412409,1.96523 -4.410701,3.935674 0.0017,1.974279 2.461051,3.745137 4.426116,3.935676 2.021889,0.196047 3.615211,-2.719725 5.247252,-3.099123 l -1.236848,5.722282 c -0.676016,1.462766 -1.793782,1.749156 -2.402693,1.794076 h 4.351847 4.351847 c -0.608912,-0.0449 -1.726676,-0.33131 -2.402694,-1.794076 L 50.83656,59.589508 c 1.632041,0.379398 3.225364,3.29517 5.247253,3.099123 1.965065,-0.190539 4.424404,-1.961397 4.426115,-3.935676 0.0017,-1.970444 -2.569552,-3.233665 -4.410701,-3.935674 -0.0048,-0.0018 -0.01049,-0.0015 -0.01542,0 -1.729379,0.517185 -2.813618,1.877753 -4.526071,2.973006 0.952291,-1.832884 2.911973,-3.493039 2.62643,-5.506485 -0.277217,-1.954721 -2.127067,-3.634461 -3.935675,-4.426115 -0.03795,-0.01661 -0.08283,0.0023 -0.124246,0.0023 -0.04143,0 -0.08283,-0.002 -0.124244,-0.0023 -10e-7,0 -10e-7,0 -10e-7,0 z"
     style="fill:#000000;fill-rule:evenodd;stroke-width:1.19575;stroke-linecap:square;stroke-linejoin:round;paint-order:fill markers stroke"
     id="path833-3-0-92" />
</svg>
