<?xml version="1.0" encoding="UTF-8"?>
<svg version="1.1" viewBox="0 0 100 110" xmlns="http://www.w3.org/2000/svg" xmlns:cc="http://creativecommons.org/ns#" xmlns:dc="http://purl.org/dc/elements/1.1/" xmlns:rdf="http://www.w3.org/1999/02/22-rdf-syntax-ns#" xmlns:xlink="http://www.w3.org/1999/xlink">
 <metadata>
  <rdf:RDF>
   <cc:Work rdf:about="">
    <dc:format>image/svg+xml</dc:format>
    <dc:type rdf:resource="http://purl.org/dc/dcmitype/StillImage"/>
    <dc:title/>
   </cc:Work>
  </rdf:RDF>
 </metadata>
 <path id="path833-9" d="m52.82 42.81c-2.112 0.948-4.289 2.897-4.614 5.189-0.3348 2.361 1.963 4.307 3.079 6.456-2.008-1.284-3.279-2.879-5.306-3.486-0.0058-0.0017-0.01244-0.0021-0.01807 0-2.159 0.823-5.173 2.304-5.171 4.614 2e-3 2.315 2.885 4.391 5.189 4.614 2.37 0.2298 4.238-3.189 6.152-3.633l-1.45 6.709c-0.7926 1.715-2.103 2.051-2.817 2.103h10.2c-0.7139-0.05267-2.024-0.3884-2.817-2.103l-1.45-6.709c1.913 0.4448 3.781 3.863 6.152 3.633 2.304-0.2234 5.187-2.3 5.189-4.614 2e-3 -2.31-3.013-3.791-5.171-4.614-0.0056-0.0021-0.0123-0.0017-0.01807 0-2.028 0.6063-3.299 2.201-5.306 3.486 1.116-2.149 3.414-4.095 3.079-6.456-0.325-2.292-2.494-4.261-4.614-5.189-0.04449-0.01948-0.0971 0.0027-0.1457 0.0027-0.04856 0-0.0971-0.0023-0.1457-0.0027h-2e-6z" fill-rule="evenodd" stroke-linecap="square" stroke-linejoin="round" stroke-width="1.402" style="paint-order:fill markers stroke"/>
 <use id="use833" transform="translate(-21.78 -33.8)" width="100%" height="100%" xlink:href="#path833-9"/>
 <use transform="translate(49.96 64.8)" width="100%" height="100%" xlink:href="#use833"/>
</svg>
