<?xml version="1.0" encoding="UTF-8"?>
<svg version="1.1" viewBox="0 0 100 110" xmlns="http://www.w3.org/2000/svg" xmlns:cc="http://creativecommons.org/ns#" xmlns:dc="http://purl.org/dc/elements/1.1/" xmlns:rdf="http://www.w3.org/1999/02/22-rdf-syntax-ns#" xmlns:xlink="http://www.w3.org/1999/xlink">
 <metadata>
  <rdf:RDF>
   <cc:Work rdf:about="">
    <dc:format>image/svg+xml</dc:format>
    <dc:type rdf:resource="http://purl.org/dc/dcmitype/StillImage"/>
    <dc:title/>
   </cc:Work>
  </rdf:RDF>
 </metadata>
 <path id="path833-9" d="m49.77 48.01c-3.389 1.522-6.884 4.65-7.406 8.329-0.5373 3.789 3.15 6.913 4.942 10.36-3.222-2.061-5.262-4.621-8.517-5.594-0.0093-0.0028-0.01997-0.0034-0.029 0-3.464 1.321-8.303 3.698-8.3 7.406 0.0032 3.715 4.631 7.047 8.329 7.406 3.805 0.3689 6.803-5.118 9.874-5.832l-2.327 10.77c-1.272 2.752-3.375 3.291-4.521 3.376h16.38c-1.146-0.08453-3.249-0.6234-4.521-3.376l-2.327-10.77c3.071 0.7139 6.069 6.2 9.874 5.832 3.698-0.3585 8.325-3.691 8.329-7.406 0.0032-3.708-4.835-6.085-8.3-7.406-9e-3 -0.0034-0.01974-0.0028-0.02901 0-3.254 0.9732-5.294 3.533-8.517 5.594 1.792-3.449 5.479-6.573 4.942-10.36-0.5216-3.678-4.002-6.839-7.406-8.329-0.07141-0.03126-0.1558 0.0044-0.2338 0.0044-0.07794 0-0.1558-0.0037-0.2338-0.0044h-2e-6z" fill-rule="evenodd" stroke-linecap="square" stroke-linejoin="round" stroke-width="2.25" style="paint-order:fill markers stroke"/>
 <use id="use833" transform="translate(-26,-40)" width="100%" height="100%" xlink:href="#path833-9"/>
 <use transform="translate(52)" width="100%" height="100%" xlink:href="#use833"/>
</svg>
