<?xml version="1.0" encoding="UTF-8" standalone="no"?>
<svg
   xmlns:dc="http://purl.org/dc/elements/1.1/"
   xmlns:cc="http://creativecommons.org/ns#"
   xmlns:rdf="http://www.w3.org/1999/02/22-rdf-syntax-ns#"
   xmlns:svg="http://www.w3.org/2000/svg"
   xmlns="http://www.w3.org/2000/svg"
   xmlns:sodipodi="http://sodipodi.sourceforge.net/DTD/sodipodi-0.dtd"
   xmlns:inkscape="http://www.inkscape.org/namespaces/inkscape"
   inkscape:version="1.0 (4035a4fb49, 2020-05-01)"
   sodipodi:docname="three.svg"
   id="svg23"
   version="1.1"
   viewBox="0 0 100 110">
  <metadata
     id="metadata29">
    <rdf:RDF>
      <cc:Work
         rdf:about="">
        <dc:format>image/svg+xml</dc:format>
        <dc:type
           rdf:resource="http://purl.org/dc/dcmitype/StillImage" />
        <dc:title></dc:title>
      </cc:Work>
    </rdf:RDF>
  </metadata>
  <defs
     id="defs27" />
  <sodipodi:namedview
     inkscape:snap-bbox-midpoints="true"
     inkscape:snap-bbox-edge-midpoints="true"
     inkscape:bbox-paths="true"
     inkscape:bbox-nodes="true"
     inkscape:snap-bbox="true"
     inkscape:document-rotation="0"
     inkscape:guide-bbox="true"
     showguides="true"
     inkscape:current-layer="svg23"
     inkscape:window-maximized="1"
     inkscape:window-y="0"
     inkscape:window-x="0"
     inkscape:cy="22.152872"
     inkscape:cx="42.623009"
     inkscape:zoom="4"
     showgrid="false"
     id="namedview25"
     inkscape:window-height="1020"
     inkscape:window-width="1920"
     inkscape:pageshadow="2"
     inkscape:pageopacity="0"
     guidetolerance="10"
     gridtolerance="10"
     objecttolerance="10"
     borderopacity="1"
     bordercolor="#666666"
     pagecolor="#ffffff" />
  <g
     style="fill:#501616"
     transform="matrix(0,1,1,0,45.343786,60.257881)"
     id="g989" />
  <path
     id="path833"
     style="fill:#000000;fill-rule:evenodd;stroke-width:2.25;stroke-linecap:square;stroke-linejoin:round;paint-order:fill markers stroke"
     d="m 24.566204,13.030874 c -3.38906,1.521565 -6.884033,4.650364 -7.405663,8.328515 -0.537302,3.788655 3.150183,6.912528 4.942089,10.361426 -3.222282,-2.060915 -5.262469,-4.621064 -8.516602,-5.594238 -0.0093,-0.0028 -0.01997,-0.0034 -0.029,0 -3.464446,1.320954 -8.3027237,3.697929 -8.2995116,7.405664 0.00324,3.714953 4.6309013,7.047134 8.3285156,7.405663 3.804541,0.368898 6.802659,-5.117635 9.873633,-5.831542 l -2.327348,10.76748 c -1.272045,2.752452 -3.375318,3.291347 -4.521094,3.375879 h 8.188769 8.188769 c -1.145775,-0.08453 -3.249048,-0.623427 -4.521094,-3.375879 l -2.327343,-10.76748 c 3.070974,0.713907 6.069092,6.20044 9.873633,5.831542 3.697614,-0.358529 8.325297,-3.69071 8.328515,-7.405663 0.0032,-3.707735 -4.835065,-6.08471 -8.299512,-7.405664 -0.009,-0.0034 -0.01974,-0.0028 -0.02901,0 -3.254132,0.973174 -5.294319,3.533323 -8.516601,5.594238 1.791905,-3.448898 5.479391,-6.572771 4.942089,-10.361426 -0.52163,-3.678151 -4.002448,-6.838879 -7.405663,-8.328515 -0.07141,-0.03126 -0.155846,0.0044 -0.23379,0.0044 -0.07794,0 -0.155848,-0.0037 -0.233788,-0.0044 -10e-7,0 -10e-7,0 -2e-6,0 z"
     sodipodi:nodetypes="aacaaaacccccccaaaacaaaaa" />
  <path
     sodipodi:nodetypes="aacaaaacccccccaaaacaaaaa"
     d="m 74.966201,13.030874 c -3.389058,1.521565 -6.884028,4.650364 -7.405659,8.328515 -0.5373,3.788655 3.15018,6.912528 4.942089,10.361426 -3.222279,-2.060915 -5.262471,-4.621064 -8.516602,-5.594238 -0.0093,-0.0028 -0.01997,-0.0034 -0.029,0 -3.464447,1.320954 -8.302724,3.697929 -8.299512,7.405664 0.0032,3.714953 4.630901,7.047134 8.328515,7.405663 3.804539,0.368898 6.802655,-5.117635 9.873635,-5.831542 l -2.327346,10.76748 c -1.272051,2.752452 -3.375324,3.291347 -4.521096,3.375879 h 8.188767 8.188767 c -1.145772,-0.08453 -3.249045,-0.623427 -4.521096,-3.375879 l -2.327337,-10.76748 c 3.070971,0.713907 6.069087,6.20044 9.87363,5.831542 3.697614,-0.358529 8.325303,-3.69071 8.328525,-7.405663 0.0036,-3.707735 -4.835076,-6.08471 -8.299518,-7.405664 -0.009,-0.0034 -0.01971,-0.0028 -0.02898,0 -3.25413,0.973174 -5.294322,3.533323 -8.516601,5.594238 1.7919,-3.448898 5.479389,-6.572771 4.942089,-10.361426 -0.521631,-3.678151 -4.002453,-6.838879 -7.405668,-8.328515 -0.07137,-0.03126 -0.155844,0.0044 -0.233784,0.0044 -0.07794,0 -0.155853,-0.0037 -0.233793,-0.0044 0,0 0,0 0,0 z"
     style="fill:#000000;fill-rule:evenodd;stroke-width:2.25;stroke-linecap:square;stroke-linejoin:round;paint-order:fill markers stroke"
     id="path833-0" />
  <path
     sodipodi:nodetypes="aacaaaacccccccaaaacaaaaa"
     d="m 49.766208,48.013307 c -3.389061,1.521564 -6.884033,4.650364 -7.405664,8.328514 -0.537301,3.788655 3.150184,6.912528 4.942089,10.361426 -3.222281,-2.060915 -5.262469,-4.621064 -8.516601,-5.594238 -0.0093,-0.0028 -0.01997,-0.0034 -0.029,0 -3.464447,1.320954 -8.302725,3.69793 -8.299512,7.405664 0.0032,3.714953 4.630901,7.047134 8.328515,7.405664 3.804541,0.368897 6.80266,-5.117636 9.873634,-5.831543 l -2.327348,10.76748 c -1.272044,2.752452 -3.375317,3.291347 -4.521092,3.375879 h 8.188768 8.18877 c -1.145776,-0.08453 -3.249049,-0.623427 -4.521094,-3.375879 L 51.34033,70.088794 c 3.070973,0.713907 6.069092,6.20044 9.873632,5.831543 3.697614,-0.35853 8.325297,-3.690711 8.328516,-7.405664 0.0032,-3.707734 -4.835066,-6.08471 -8.299512,-7.405664 -0.009,-0.0034 -0.01974,-0.0028 -0.02901,0 -3.254132,0.973174 -5.29432,3.533323 -8.516601,5.594238 1.791905,-3.448898 5.47939,-6.572771 4.942089,-10.361426 -0.52163,-3.67815 -4.002448,-6.838879 -7.405664,-8.328515 -0.07141,-0.03126 -0.155846,0.0044 -0.233789,0.0044 -0.07794,0 -0.155849,-0.0037 -0.233789,-0.0044 -10e-7,0 -10e-7,0 -2e-6,0 z"
     style="fill:#000000;fill-rule:evenodd;stroke-width:2.25;stroke-linecap:square;stroke-linejoin:round;paint-order:fill markers stroke"
     id="path833-9" />
</svg>
