<?xml version="1.0" encoding="UTF-8" standalone="no"?>
<svg
   xmlns:dc="http://purl.org/dc/elements/1.1/"
   xmlns:cc="http://creativecommons.org/ns#"
   xmlns:rdf="http://www.w3.org/1999/02/22-rdf-syntax-ns#"
   xmlns:svg="http://www.w3.org/2000/svg"
   xmlns="http://www.w3.org/2000/svg"
   xmlns:sodipodi="http://sodipodi.sourceforge.net/DTD/sodipodi-0.dtd"
   xmlns:inkscape="http://www.inkscape.org/namespaces/inkscape"
   inkscape:version="1.0 (4035a4fb49, 2020-05-01)"
   sodipodi:docname="two.svg"
   id="svg23"
   version="1.1"
   viewBox="0 0 100 110">
  <metadata
     id="metadata29">
    <rdf:RDF>
      <cc:Work
         rdf:about="">
        <dc:format>image/svg+xml</dc:format>
        <dc:type
           rdf:resource="http://purl.org/dc/dcmitype/StillImage" />
        <dc:title></dc:title>
      </cc:Work>
    </rdf:RDF>
  </metadata>
  <defs
     id="defs27" />
  <sodipodi:namedview
     inkscape:snap-bbox-midpoints="true"
     inkscape:snap-bbox-edge-midpoints="true"
     inkscape:bbox-paths="true"
     inkscape:bbox-nodes="true"
     inkscape:snap-bbox="true"
     inkscape:document-rotation="0"
     inkscape:guide-bbox="true"
     showguides="true"
     inkscape:current-layer="svg23"
     inkscape:window-maximized="1"
     inkscape:window-y="0"
     inkscape:window-x="0"
     inkscape:cy="22.152872"
     inkscape:cx="42.623009"
     inkscape:zoom="4"
     showgrid="false"
     id="namedview25"
     inkscape:window-height="1020"
     inkscape:window-width="1920"
     inkscape:pageshadow="2"
     inkscape:pageopacity="0"
     guidetolerance="10"
     gridtolerance="10"
     objecttolerance="10"
     borderopacity="1"
     bordercolor="#666666"
     pagecolor="#ffffff" />
  <g
     style="fill:#501616"
     transform="matrix(0,1,1,0,45.343786,60.257881)"
     id="g989" />
  <path
     id="path833"
     style="fill:#000000;fill-rule:evenodd;stroke-width:2.5;stroke-linecap:square;stroke-linejoin:round;paint-order:fill markers stroke"
     d="m 49.740231,53.897067 c -3.765623,1.690628 -7.648926,5.167072 -8.228515,9.253906 -0.597002,4.209617 3.500204,7.680587 5.49121,11.512695 -3.580313,-2.289905 -5.847188,-5.134515 -9.46289,-6.21582 -0.01029,-0.0031 -0.02219,-0.0038 -0.03222,0 -3.849385,1.467727 -9.225249,4.108811 -9.22168,8.228516 0.0036,4.127726 5.145446,7.830149 9.253906,8.228515 4.227267,0.409886 7.55851,-5.686262 10.970703,-6.479492 l -2.585942,11.963867 c -1.413384,3.05828 -3.750354,3.657052 -5.023438,3.750977 h 9.098632 9.098633 c -1.273084,-0.09392 -3.610054,-0.692697 -5.023438,-3.750977 L 51.489255,78.425387 c 3.412193,0.79323 6.743436,6.889378 10.970703,6.479492 4.10846,-0.398366 9.25033,-4.100789 9.253906,-8.228515 0.0036,-4.119705 -5.372295,-6.760789 -9.22168,-8.228516 -0.01004,-0.0038 -0.02193,-0.0031 -0.03223,0 -3.615702,1.081305 -5.882577,3.925915 -9.46289,6.21582 1.991006,-3.832108 6.088212,-7.303078 5.49121,-11.512695 -0.579589,-4.086834 -4.447164,-7.598755 -8.228515,-9.253906 -0.07934,-0.03473 -0.173162,0.0049 -0.259766,0.0049 -0.0866,0 -0.173165,-0.0041 -0.259765,-0.0049 -1e-6,0 -1e-6,0 -2e-6,0 z"
     sodipodi:nodetypes="aacaaaacccccccaaaacaaaaa" />
  <path
     sodipodi:nodetypes="aacaaaacccccccaaaacaaaaa"
     d="m 49.740222,5.8605519 c -3.76562,1.690628 -7.64892,5.1670721 -8.22851,9.2539061 -0.597,4.209617 3.5002,7.680587 5.49121,11.512695 -3.58031,-2.289905 -5.84719,-5.134515 -9.462891,-6.21582 -0.01029,-0.0031 -0.02219,-0.0038 -0.03222,0 -3.849385,1.467727 -9.225249,4.108811 -9.22168,8.228516 0.0036,4.127726 5.145446,7.830149 9.253906,8.228515 4.227265,0.409886 7.558505,-5.686262 10.970705,-6.479492 l -2.58594,11.963867 c -1.41339,3.05828 -3.75036,3.657052 -5.02344,3.750977 h 9.09863 9.09863 c -1.27308,-0.09392 -3.61005,-0.692697 -5.02344,-3.750977 l -2.58593,-11.963867 c 3.41219,0.79323 6.74343,6.889378 10.9707,6.479492 4.10846,-0.398366 9.250337,-4.100789 9.253917,-8.228515 0.004,-4.119705 -5.372307,-6.760789 -9.221687,-8.228516 -0.01,-0.0038 -0.0219,-0.0031 -0.0322,0 -3.6157,1.081305 -5.88258,3.925915 -9.46289,6.21582 1.991,-3.832108 6.08821,-7.303078 5.49121,-11.512695 -0.57959,-4.086834 -4.44717,-7.5987551 -8.22852,-9.2539061 -0.0793,-0.03473 -0.17316,0.0049 -0.25976,0.0049 -0.0866,0 -0.17317,-0.0041 -0.25977,-0.0049 0,0 0,0 0,0 z"
     style="fill:#000000;fill-rule:evenodd;stroke-width:2.5;stroke-linecap:square;stroke-linejoin:round;paint-order:fill markers stroke"
     id="path833-0" />
</svg>
