<?xml version="1.0" encoding="UTF-8"?>
<svg version="1.1" viewBox="0 0 100 110" xmlns="http://www.w3.org/2000/svg" xmlns:cc="http://creativecommons.org/ns#" xmlns:dc="http://purl.org/dc/elements/1.1/" xmlns:rdf="http://www.w3.org/1999/02/22-rdf-syntax-ns#">
 <metadata>
  <rdf:RDF>
   <cc:Work rdf:about="">
    <dc:format>image/svg+xml</dc:format>
    <dc:type rdf:resource="http://purl.org/dc/dcmitype/StillImage"/>
    <dc:title/>
   </cc:Work>
  </rdf:RDF>
 </metadata>
 <path d="m55.51 10.66a32.39 32.39 0 0 0-32.26 32.39 32.39 32.39 0 0 0 32.39 32.39 32.39 32.39 0 0 0 6.994-0.7633 32.39 32.39 0 0 1-0.01055-0.0035 32.39 32.39 0 0 1-0.6227-0.1442 32.39 32.39 0 0 1-0.6227-0.1583 32.39 32.39 0 0 1-0.6227-0.1689 32.39 32.39 0 0 1-0.6156-0.183 32.39 32.39 0 0 1-0.612-0.1935 32.39 32.39 0 0 1-0.6086-0.2075 32.39 32.39 0 0 1-0.6016-0.2181 32.39 32.39 0 0 1-0.6016-0.2322 32.39 32.39 0 0 1-0.5946-0.2392 32.39 32.39 0 0 1-0.5875-0.2568 32.39 32.39 0 0 1-0.5875-0.2639 32.39 32.39 0 0 1-0.5769-0.2779 32.39 32.39 0 0 1-0.5769-0.2885 32.39 32.39 0 0 1-0.5665-0.299 32.39 32.39 0 0 1-0.5629-0.313 32.39 32.39 0 0 1-0.5558-0.3201 32.39 32.39 0 0 1-0.5488-0.3341 32.39 32.39 0 0 1-0.5418-0.3447 32.39 32.39 0 0 1-0.5348-0.3518 32.39 32.39 0 0 1-0.5277-0.3658 32.39 32.39 0 0 1-0.5241-0.3764 32.39 32.39 0 0 1-0.5137-0.3869 32.39 32.39 0 0 1-0.5031-0.3941 32.39 32.39 0 0 1-0.4995-0.4081 32.39 32.39 0 0 1-0.489-0.4152 32.39 32.39 0 0 1-0.482-0.4256 32.39 32.39 0 0 1-0.4714-0.4326 32.39 32.39 0 0 1-0.4643-0.4467 32.39 32.39 0 0 1-0.4539-0.4503 32.39 32.39 0 0 1-0.4467-0.4643 32.39 32.39 0 0 1-0.4362-0.4714 32.39 32.39 0 0 1-0.4292-0.4784 32.39 32.39 0 0 1-0.4186-0.489 32.39 32.39 0 0 1-0.4081-0.496 32.39 32.39 0 0 1-0.3975-0.5031 32.39 32.39 0 0 1-0.3869-0.5101 32.39 32.39 0 0 1-0.3799-0.5207 32.39 32.39 0 0 1-0.3658-0.5277 32.39 32.39 0 0 1-0.3588-0.5312 32.39 32.39 0 0 1-0.3447-0.5418 32.39 32.39 0 0 1-0.3341-0.5488 32.39 32.39 0 0 1-0.3271-0.5522 32.39 32.39 0 0 1-0.313-0.5629 32.39 32.39 0 0 1-0.3026-0.5665 32.39 32.39 0 0 1-0.2885-0.5735 32.39 32.39 0 0 1-0.2813-0.5769 32.39 32.39 0 0 1-0.2673-0.5839 32.39 32.39 0 0 1-0.2568-0.5875 32.39 32.39 0 0 1-0.2462-0.5946 32.39 32.39 0 0 1-0.2322-0.598 32.39 32.39 0 0 1-0.2215-0.605 32.39 32.39 0 0 1-0.2075-0.605 32.39 32.39 0 0 1-0.197-0.612 32.39 32.39 0 0 1-0.1864-0.6156 32.39 32.39 0 0 1-0.1724-0.6192 32.39 32.39 0 0 1-0.1583-0.6227 32.39 32.39 0 0 1-0.1478-0.6227 32.39 32.39 0 0 1-0.1372-0.6297 32.39 32.39 0 0 1-0.1231-0.6297 32.39 32.39 0 0 1-0.1091-0.6333 32.39 32.39 0 0 1-0.09851-0.6333 32.39 32.39 0 0 1-0.08444-0.6367 32.39 32.39 0 0 1-0.07388-0.6403 32.39 32.39 0 0 1-0.0598-0.6403 32.39 32.39 0 0 1-0.04924-0.6403 32.39 32.39 0 0 1-0.03167-0.6403 32.39 32.39 0 0 1-0.02462-0.6403 32.39 32.39 0 0 1-7e-3 -0.6437 32.39 32.39 0 0 1 0-0.1407 32.39 32.39 0 0 1 7e-3 -0.6437 32.39 32.39 0 0 1 0.01759-0.6403 32.39 32.39 0 0 1 0.03166-0.6403 32.39 32.39 0 0 1 0.04573-0.6437 32.39 32.39 0 0 1 0.05629-0.6367 32.39 32.39 0 0 1 0.07035-0.6403 32.39 32.39 0 0 1 0.08091-0.6367 32.39 32.39 0 0 1 0.09499-0.6367 32.39 32.39 0 0 1 0.1091-0.6333 32.39 32.39 0 0 1 0.1196-0.6297 32.39 32.39 0 0 1 0.1337-0.6297 32.39 32.39 0 0 1 0.1442-0.6227 32.39 32.39 0 0 1 0.1583-0.6227 32.39 32.39 0 0 1 0.1689-0.6192 32.39 32.39 0 0 1 0.183-0.6192 32.39 32.39 0 0 1 0.1934-0.612 32.39 32.39 0 0 1 0.2075-0.6086 32.39 32.39 0 0 1 0.2181-0.6016 32.39 32.39 0 0 1 0.2287-0.6016 32.39 32.39 0 0 1 0.2428-0.5946 32.39 32.39 0 0 1 0.2568-0.5875 32.39 32.39 0 0 1 0.2639-0.5875 32.39 32.39 0 0 1 0.2779-0.5769 32.39 32.39 0 0 1 0.2885-0.5769 32.39 32.39 0 0 1 0.299-0.5665 32.39 32.39 0 0 1 0.313-0.5629 32.39 32.39 0 0 1 0.3201-0.5558 32.39 32.39 0 0 1 0.3341-0.5488 32.39 32.39 0 0 1 0.3447-0.5418 32.39 32.39 0 0 1 0.3518-0.5348 32.39 32.39 0 0 1 0.3658-0.5277 32.39 32.39 0 0 1 0.3764-0.5241 32.39 32.39 0 0 1 0.3869-0.5101 32.39 32.39 0 0 1 0.3941-0.5065 32.39 32.39 0 0 1 0.4081-0.4995 32.39 32.39 0 0 1 0.4152-0.489 32.39 32.39 0 0 1 0.4256-0.482 32.39 32.39 0 0 1 0.4326-0.4714 32.39 32.39 0 0 1 0.4467-0.4643 32.39 32.39 0 0 1 0.4503-0.4539 32.39 32.39 0 0 1 0.4643-0.4467 32.39 32.39 0 0 1 0.4714-0.4362 32.39 32.39 0 0 1 0.4784-0.4292 32.39 32.39 0 0 1 0.489-0.4186 32.39 32.39 0 0 1 0.496-0.4081 32.39 32.39 0 0 1 0.5031-0.3975 32.39 32.39 0 0 1 0.5101-0.3869 32.39 32.39 0 0 1 0.5207-0.3799 32.39 32.39 0 0 1 0.5277-0.3658 32.39 32.39 0 0 1 0.5312-0.3588 32.39 32.39 0 0 1 0.5418-0.3447 32.39 32.39 0 0 1 0.5488-0.3341 32.39 32.39 0 0 1 0.5522-0.3271 32.39 32.39 0 0 1 0.5629-0.313 32.39 32.39 0 0 1 0.5665-0.3026 32.39 32.39 0 0 1 0.5735-0.2885 32.39 32.39 0 0 1 0.5769-0.2813 32.39 32.39 0 0 1 0.5839-0.2673 32.39 32.39 0 0 1 0.5875-0.2568 32.39 32.39 0 0 1 0.5946-0.2462 32.39 32.39 0 0 1 0.598-0.2322 32.39 32.39 0 0 1 0.605-0.2215 32.39 32.39 0 0 1 0.605-0.2075 32.39 32.39 0 0 1 0.612-0.197 32.39 32.39 0 0 1 0.6156-0.1864 32.39 32.39 0 0 1 0.6192-0.1724 32.39 32.39 0 0 1 0.6227-0.1583 32.39 32.39 0 0 1 0.6227-0.1478 32.39 32.39 0 0 1 0.1548-0.03518 32.39 32.39 0 0 0-7.001-0.7633 32.39 32.39 0 0 0-0.1407 0z" fill-rule="evenodd" stroke-linejoin="round" style="paint-order:markers stroke fill"/>
</svg>
