<?xml version="1.0" encoding="UTF-8"?>
<svg version="1.1" viewBox="0 0 100 110" xmlns="http://www.w3.org/2000/svg" xmlns:cc="http://creativecommons.org/ns#" xmlns:dc="http://purl.org/dc/elements/1.1/" xmlns:rdf="http://www.w3.org/1999/02/22-rdf-syntax-ns#">
 <metadata>
  <rdf:RDF>
   <cc:Work rdf:about="">
    <dc:format>image/svg+xml</dc:format>
    <dc:type rdf:resource="http://purl.org/dc/dcmitype/StillImage"/>
    <dc:title/>
   </cc:Work>
  </rdf:RDF>
 </metadata>
 <path d="m73.12 13.23a17.98 17.98 0 0 0-17.91 17.98 17.98 17.98 0 0 0 17.98 17.98 17.98 17.98 0 0 0 3.883-0.4238 17.98 17.98 0 0 1-0.0059-2e-3 17.98 17.98 0 0 1-0.3457-0.08008 17.98 17.98 0 0 1-0.3457-0.08789 17.98 17.98 0 0 1-0.3457-0.0937 17.98 17.98 0 0 1-0.3418-0.1016 17.98 17.98 0 0 1-0.3398-0.1074 17.98 17.98 0 0 1-0.3379-0.1152 17.98 17.98 0 0 1-0.334-0.1211 17.98 17.98 0 0 1-0.334-0.1289 17.98 17.98 0 0 1-0.3301-0.1328 17.98 17.98 0 0 1-0.3262-0.1426 17.98 17.98 0 0 1-0.3262-0.1465 17.98 17.98 0 0 1-0.3203-0.1543 17.98 17.98 0 0 1-0.3203-0.1602 17.98 17.98 0 0 1-0.3145-0.166 17.98 17.98 0 0 1-0.3125-0.1738 17.98 17.98 0 0 1-0.3086-0.1777 17.98 17.98 0 0 1-0.3047-0.1855 17.98 17.98 0 0 1-0.3008-0.1914 17.98 17.98 0 0 1-0.2969-0.1953 17.98 17.98 0 0 1-0.293-0.2031 17.98 17.98 0 0 1-0.291-0.209 17.98 17.98 0 0 1-0.2852-0.2148 17.98 17.98 0 0 1-0.2793-0.2188 17.98 17.98 0 0 1-0.2773-0.2266 17.98 17.98 0 0 1-0.2715-0.2305 17.98 17.98 0 0 1-0.2676-0.2363 17.98 17.98 0 0 1-0.2617-0.2402 17.98 17.98 0 0 1-0.2578-0.248 17.98 17.98 0 0 1-0.252-0.25 17.98 17.98 0 0 1-0.248-0.2578 17.98 17.98 0 0 1-0.2422-0.2617 17.98 17.98 0 0 1-0.2383-0.2656 17.98 17.98 0 0 1-0.2324-0.2715 17.98 17.98 0 0 1-0.2266-0.2754 17.98 17.98 0 0 1-0.2207-0.2793 17.98 17.98 0 0 1-0.2148-0.2832 17.98 17.98 0 0 1-0.2109-0.2891 17.98 17.98 0 0 1-0.2031-0.293 17.98 17.98 0 0 1-0.1992-0.2949 17.98 17.98 0 0 1-0.1914-0.3008 17.98 17.98 0 0 1-0.1855-0.3047 17.98 17.98 0 0 1-0.1816-0.3066 17.98 17.98 0 0 1-0.1738-0.3125 17.98 17.98 0 0 1-0.168-0.3145 17.98 17.98 0 0 1-0.1602-0.3184 17.98 17.98 0 0 1-0.1562-0.3203 17.98 17.98 0 0 1-0.1484-0.3242 17.98 17.98 0 0 1-0.1426-0.3262 17.98 17.98 0 0 1-0.1367-0.3301 17.98 17.98 0 0 1-0.1289-0.332 17.98 17.98 0 0 1-0.123-0.3359 17.98 17.98 0 0 1-0.1152-0.3359 17.98 17.98 0 0 1-0.1094-0.3398 17.98 17.98 0 0 1-0.1035-0.3418 17.98 17.98 0 0 1-0.0957-0.3438 17.98 17.98 0 0 1-0.08789-0.3457 17.98 17.98 0 0 1-0.08203-0.3457 17.98 17.98 0 0 1-0.07617-0.3496 17.98 17.98 0 0 1-0.06836-0.3496 17.98 17.98 0 0 1-0.06055-0.3516 17.98 17.98 0 0 1-0.05469-0.3516 17.98 17.98 0 0 1-0.04687-0.3535 17.98 17.98 0 0 1-0.04102-0.3555 17.98 17.98 0 0 1-0.0332-0.3555 17.98 17.98 0 0 1-0.02734-0.3555 17.98 17.98 0 0 1-0.01758-0.3555 17.98 17.98 0 0 1-0.01367-0.3555 17.98 17.98 0 0 1-0.0039-0.3574 17.98 17.98 0 0 1 0-0.07813 17.98 17.98 0 0 1 0.0039-0.3574 17.98 17.98 0 0 1 0.0098-0.3555 17.98 17.98 0 0 1 0.01758-0.3555 17.98 17.98 0 0 1 0.02539-0.3574 17.98 17.98 0 0 1 0.03125-0.3535 17.98 17.98 0 0 1 0.03906-0.3555 17.98 17.98 0 0 1 0.04492-0.3535 17.98 17.98 0 0 1 0.05273-0.3535 17.98 17.98 0 0 1 0.06055-0.3516 17.98 17.98 0 0 1 0.06641-0.3496 17.98 17.98 0 0 1 0.07422-0.3496 17.98 17.98 0 0 1 0.08008-0.3457 17.98 17.98 0 0 1 0.08789-0.3457 17.98 17.98 0 0 1 0.09375-0.3438 17.98 17.98 0 0 1 0.1016-0.3438 17.98 17.98 0 0 1 0.1074-0.3398 17.98 17.98 0 0 1 0.1152-0.3379 17.98 17.98 0 0 1 0.1211-0.334 17.98 17.98 0 0 1 0.127-0.334 17.98 17.98 0 0 1 0.1348-0.3301 17.98 17.98 0 0 1 0.1426-0.3262 17.98 17.98 0 0 1 0.1465-0.3262 17.98 17.98 0 0 1 0.1543-0.3203 17.98 17.98 0 0 1 0.1602-0.3203 17.98 17.98 0 0 1 0.166-0.3145 17.98 17.98 0 0 1 0.1738-0.3125 17.98 17.98 0 0 1 0.1777-0.3086 17.98 17.98 0 0 1 0.1855-0.3047 17.98 17.98 0 0 1 0.1914-0.3008 17.98 17.98 0 0 1 0.1953-0.2969 17.98 17.98 0 0 1 0.2031-0.293 17.98 17.98 0 0 1 0.209-0.291 17.98 17.98 0 0 1 0.2148-0.2832 17.98 17.98 0 0 1 0.2188-0.2812 17.98 17.98 0 0 1 0.2266-0.2773 17.98 17.98 0 0 1 0.2305-0.2715 17.98 17.98 0 0 1 0.2363-0.2676 17.98 17.98 0 0 1 0.2402-0.2617 17.98 17.98 0 0 1 0.248-0.2578 17.98 17.98 0 0 1 0.25-0.252 17.98 17.98 0 0 1 0.2578-0.248 17.98 17.98 0 0 1 0.2617-0.2422 17.98 17.98 0 0 1 0.2656-0.2383 17.98 17.98 0 0 1 0.2715-0.2324 17.98 17.98 0 0 1 0.2754-0.2266 17.98 17.98 0 0 1 0.2793-0.2207 17.98 17.98 0 0 1 0.2832-0.2148 17.98 17.98 0 0 1 0.2891-0.2109 17.98 17.98 0 0 1 0.293-0.2031 17.98 17.98 0 0 1 0.2949-0.1992 17.98 17.98 0 0 1 0.3008-0.1914 17.98 17.98 0 0 1 0.3047-0.1855 17.98 17.98 0 0 1 0.3066-0.1816 17.98 17.98 0 0 1 0.3125-0.1738 17.98 17.98 0 0 1 0.3145-0.168 17.98 17.98 0 0 1 0.3184-0.1602 17.98 17.98 0 0 1 0.3203-0.1562 17.98 17.98 0 0 1 0.3242-0.1484 17.98 17.98 0 0 1 0.3262-0.1426 17.98 17.98 0 0 1 0.3301-0.1367 17.98 17.98 0 0 1 0.332-0.1289 17.98 17.98 0 0 1 0.3359-0.123 17.98 17.98 0 0 1 0.3359-0.1152 17.98 17.98 0 0 1 0.3398-0.1094 17.98 17.98 0 0 1 0.3418-0.1035 17.98 17.98 0 0 1 0.3438-0.0957 17.98 17.98 0 0 1 0.3457-0.08789 17.98 17.98 0 0 1 0.3457-0.08203 17.98 17.98 0 0 1 0.08594-0.01953 17.98 17.98 0 0 0-3.887-0.4238 17.98 17.98 0 0 0-0.07813 0z" fill-rule="evenodd" stroke-linejoin="round" stroke-width=".5554" style="paint-order:markers stroke fill"/>
</svg>
