<?xml version="1.0" encoding="UTF-8"?>
<svg version="1.1" viewBox="0 0 100 110" xmlns="http://www.w3.org/2000/svg" xmlns:cc="http://creativecommons.org/ns#" xmlns:dc="http://purl.org/dc/elements/1.1/" xmlns:rdf="http://www.w3.org/1999/02/22-rdf-syntax-ns#" xmlns:xlink="http://www.w3.org/1999/xlink">
 <metadata>
  <rdf:RDF>
   <cc:Work rdf:about="">
    <dc:format>image/svg+xml</dc:format>
    <dc:type rdf:resource="http://purl.org/dc/dcmitype/StillImage"/>
    <dc:title/>
   </cc:Work>
  </rdf:RDF>
 </metadata>
 <path id="path954" d="m74.78 78c-4.85 0-7.613 7.5-12.46 7.5-4.848 0-7.611-7.492-12.46-7.498h-0.0059c-4.85 0-7.611 7.5-12.46 7.5-4.85 0-7.615-7.5-12.46-7.5-4.85 0-7.611 7.5-12.46 7.5-4.85 0-12.46-7.5-12.46-7.5v7.5s1.903 1.875 4.412 3.75c1.255 0.9375 2.661 1.875 4.057 2.578 0.6978 0.3516 1.392 0.6445 2.064 0.8496 0.6723 0.2051 1.323 0.3223 1.93 0.3223s1.179-0.1172 1.729-0.3223c0.5492-0.2051 1.074-0.498 1.582-0.8496 1.017-0.7031 1.968-1.641 2.92-2.578 0.9516-0.9375 1.903-1.875 2.92-2.578 0.5084-0.3516 1.033-0.6445 1.582-0.8496 0.5492-0.2051 1.122-0.3223 1.729-0.3223 0.6062 0 1.181 0.1172 1.73 0.3223 0.5492 0.2051 1.074 0.498 1.582 0.8496 1.017 0.7031 1.968 1.641 2.92 2.578 0.9516 0.9375 1.903 1.875 2.92 2.578 0.5084 0.3516 1.033 0.6445 1.582 0.8496 0.5492 0.2051 1.124 0.3223 1.73 0.3223s1.179-0.1172 1.729-0.3223c0.5492-0.2051 1.074-0.498 1.582-0.8496 1.017-0.7031 1.968-1.641 2.92-2.578 0.9516-0.9375 1.903-1.875 2.92-2.578 0.5084-0.3516 1.033-0.6445 1.582-0.8496 0.5492-0.2051 1.122-0.3223 1.729-0.3223h0.0059c0.6039 8.03e-4 1.177 0.1159 1.725 0.3203 0.5492 0.2051 1.074 0.498 1.582 0.8496 1.017 0.7031 1.966 1.641 2.918 2.578 0.9516 0.9375 1.903 1.875 2.92 2.578 0.5084 0.3516 1.033 0.6445 1.582 0.8496 0.5492 0.2051 1.124 0.3223 1.73 0.3223 0.6062 0 1.179-0.1172 1.729-0.3223 0.5492-0.2051 1.074-0.498 1.582-0.8496 1.017-0.7031 1.968-1.641 2.92-2.578 0.9516-0.9375 1.905-1.875 2.922-2.578 0.5084-0.3516 1.033-0.6445 1.582-0.8496 0.5492-0.2051 1.122-0.3223 1.729-0.3223 0.6062 0 1.179 0.1178 1.729 0.3223 0.5492 0.2044 1.074 0.4971 1.582 0.8477 1.017 0.7011 1.968 1.636 2.92 2.572 0.9516 0.9359 1.903 1.872 2.92 2.576 0.5084 0.3522 1.033 0.6467 1.582 0.8535 0.5492 0.2068 1.122 0.325 1.729 0.3281 0.617 0.0032 1.278-0.1092 1.965-0.3125 0.6864-0.2033 1.399-0.4967 2.113-0.8477 1.428-0.7019 2.867-1.641 4.154-2.58 2.574-1.878 4.531-3.76 4.531-3.76v-7.5s-7.828 7.526-12.76 7.5c-4.85-0.02535-7.611-7.5-12.46-7.5z" style="paint-order:markers stroke fill"/>
 <use id="use848" transform="translate(0,20)" width="100%" height="100%" xlink:href="#path954"/>
 <use id="use6" transform="translate(0,-10)" width="100%" height="100%" xlink:href="#use848"/>
 <use transform="translate(0,-30)" width="100%" height="100%" xlink:href="#path954"/>
 <use transform="translate(0,-30)" width="100%" height="100%" xlink:href="#use848"/>
 <use transform="translate(0,-30)" width="100%" height="100%" xlink:href="#use6"/>
</svg>
