<?xml version="1.0" encoding="UTF-8"?>
<svg version="1.1" viewBox="0 0 100 110" xmlns="http://www.w3.org/2000/svg" xmlns:cc="http://creativecommons.org/ns#" xmlns:dc="http://purl.org/dc/elements/1.1/" xmlns:rdf="http://www.w3.org/1999/02/22-rdf-syntax-ns#">
 <metadata>
  <rdf:RDF>
   <cc:Work rdf:about="">
    <dc:format>image/svg+xml</dc:format>
    <dc:type rdf:resource="http://purl.org/dc/dcmitype/StillImage"/>
    <dc:title/>
   </cc:Work>
  </rdf:RDF>
 </metadata>
 <g transform="matrix(.7296 0 0 .7296 29.83 -7.69)" fill-rule="evenodd" stroke-linejoin="round">
  <g stroke-width=".5145">
   <path d="m43.42 34.7a21.38 21.38 0 0 1 0.202-0.06509 21.38 21.38 0 0 1 0.3105-0.09492 21.38 21.38 0 0 1 0.3105-0.08949 21.38 21.38 0 0 1 0.3132-0.08543 21.38 21.38 0 0 1 0.3132-0.08 21.38 21.38 0 0 1 0.3159-0.07458 21.38 21.38 0 0 1 0.3159-0.07051 21.38 21.38 0 0 1 0.03119-0.0068 34.71 1.388 75 0 0-4.514-12.62 34.71 1.388 75 0 0 2.401 13.19z" style="paint-order:markers stroke fill"/>
   <path d="m38.37 37.1a21.38 21.38 0 0 1 0.2563-0.1641 21.38 21.38 0 0 1 0.2753-0.1695 21.38 21.38 0 0 1 0.278-0.1668 21.38 21.38 0 0 1 0.282-0.1614 21.38 21.38 0 0 1 0.282-0.1573 21.38 21.38 0 0 1 0.2861-0.1532 21.38 21.38 0 0 1 0.2373-0.1234 34.71 1.388 60 0 0-7.627-11.02 34.71 1.388 60 0 0 5.73 12.12z" style="paint-order:markers stroke fill"/>
   <path d="m34.13 40.72a21.38 21.38 0 0 1 0.0461-0.05288 21.38 21.38 0 0 1 0.2197-0.2373 21.38 21.38 0 0 1 0.2237-0.2346 21.38 21.38 0 0 1 0.2264-0.2319 21.38 21.38 0 0 1 0.2305-0.2278 21.38 21.38 0 0 1 0.2332-0.2251 21.38 21.38 0 0 1 0.2373-0.2197 21.38 21.38 0 0 1 0.1302-0.1193 34.71 1.388 45 0 0-10.22-8.671 34.71 1.388 45 0 0 8.671 10.22z" style="paint-order:markers stroke fill"/>
   <path d="m30.96 45.32a21.38 21.38 0 0 1 0.07322-0.1424 21.38 21.38 0 0 1 0.1519-0.2861 21.38 21.38 0 0 1 0.1559-0.2848 21.38 21.38 0 0 1 0.16-0.2807 21.38 21.38 0 0 1 0.1654-0.2793 21.38 21.38 0 0 1 0.1681-0.2766 21.38 21.38 0 0 1 0.1736-0.2739 21.38 21.38 0 0 1 0.04746-0.07187 34.71 1.388 30 0 0-12.12-5.732 34.71 1.388 30 0 0 11.02 7.627z" style="paint-order:markers stroke fill"/>
   <path d="m29.09 50.58a21.38 21.38 0 0 1 0.05288-0.2441 21.38 21.38 0 0 1 0.07322-0.3159 21.38 21.38 0 0 1 0.07864-0.3146 21.38 21.38 0 0 1 0.08407-0.3132 21.38 21.38 0 0 1 0.08814-0.3119 21.38 21.38 0 0 1 0.09221-0.3105 21.38 21.38 0 0 1 0.09627-0.3051 34.71 1.388 15 0 0-13.19-2.4 34.71 1.388 15 0 0 12.62 4.515z" style="paint-order:markers stroke fill"/>
   <path d="m28.65 56.14a21.38 21.38 0 0 1-0.0068-0.122 21.38 21.38 0 0 1-0.0122-0.3241 21.38 21.38 0 0 1-0.0068-0.3241 21.38 21.38 0 0 1-0.0027-0.3241 21.38 21.38 0 0 1 0.0014-0.217 21.38 21.38 0 0 1 0.0054-0.3241 21.38 21.38 0 0 1 0.01085-0.3241 21.38 21.38 0 0 1 0.01085-0.2305 34.71 1.388 0 0 0-13.36 1.096 34.71 1.388 0 0 0 13.36 1.094z" style="paint-order:markers stroke fill"/>
   <path d="m29.66 61.63a21.38 21.38 0 0 1-0.06508-0.202 21.38 21.38 0 0 1-0.09492-0.3105 21.38 21.38 0 0 1-0.08949-0.3105 21.38 21.38 0 0 1-0.08543-0.3132 21.38 21.38 0 0 1-0.08-0.3132 21.38 21.38 0 0 1-0.07458-0.3159 21.38 21.38 0 0 1-0.07051-0.3159 21.38 21.38 0 0 1-0.0068-0.03119 1.388 34.71 75 0 0-12.62 4.514 1.388 34.71 75 0 0 13.19-2.401z" style="paint-order:markers stroke fill"/>
   <path d="m32.05 66.67a21.38 21.38 0 0 1-0.1641-0.2563 21.38 21.38 0 0 1-0.1695-0.2753 21.38 21.38 0 0 1-0.1668-0.278 21.38 21.38 0 0 1-0.1614-0.282 21.38 21.38 0 0 1-0.1573-0.282 21.38 21.38 0 0 1-0.1532-0.2861 21.38 21.38 0 0 1-0.1234-0.2373 1.388 34.71 60 0 0-11.02 7.627 1.388 34.71 60 0 0 12.12-5.73z" style="paint-order:markers stroke fill"/>
   <path d="m35.67 70.92a21.38 21.38 0 0 1-0.05288-0.0461 21.38 21.38 0 0 1-0.2373-0.2197 21.38 21.38 0 0 1-0.2346-0.2237 21.38 21.38 0 0 1-0.2319-0.2264 21.38 21.38 0 0 1-0.2278-0.2305 21.38 21.38 0 0 1-0.2251-0.2332 21.38 21.38 0 0 1-0.2197-0.2373 21.38 21.38 0 0 1-0.1193-0.1302 1.388 34.71 45 0 0-8.671 10.22 1.388 34.71 45 0 0 10.22-8.671z" style="paint-order:markers stroke fill"/>
   <path d="m40.27 74.09a21.38 21.38 0 0 1-0.1424-0.07322 21.38 21.38 0 0 1-0.2861-0.1519 21.38 21.38 0 0 1-0.2848-0.1559 21.38 21.38 0 0 1-0.2807-0.16 21.38 21.38 0 0 1-0.2793-0.1654 21.38 21.38 0 0 1-0.2766-0.1681 21.38 21.38 0 0 1-0.2739-0.1736 21.38 21.38 0 0 1-0.07187-0.04746 1.388 34.71 30 0 0-5.732 12.12 1.388 34.71 30 0 0 7.627-11.02z" style="paint-order:markers stroke fill"/>
   <path d="m45.53 75.96a21.38 21.38 0 0 1-0.2441-0.05288 21.38 21.38 0 0 1-0.3159-0.07322 21.38 21.38 0 0 1-0.3146-0.07865 21.38 21.38 0 0 1-0.3132-0.08407 21.38 21.38 0 0 1-0.3119-0.08814 21.38 21.38 0 0 1-0.3105-0.09221 21.38 21.38 0 0 1-0.3051-0.09627 1.388 34.71 15 0 0-2.4 13.19 1.388 34.71 15 0 0 4.515-12.62z" style="paint-order:markers stroke fill"/>
   <path d="m51.09 76.4a21.38 21.38 0 0 1-0.122 0.0068 21.38 21.38 0 0 1-0.3241 0.0122 21.38 21.38 0 0 1-0.3241 0.0068 21.38 21.38 0 0 1-0.3241 0.002674 21.38 21.38 0 0 1-0.217-0.001355 21.38 21.38 0 0 1-0.3241-0.005424 21.38 21.38 0 0 1-0.3241-0.01085 21.38 21.38 0 0 1-0.2305-0.01085 1.388 34.71 0 0 0 1.096 13.36 1.388 34.71 0 0 0 1.094-13.36z" style="paint-order:markers stroke fill"/>
   <path d="m56.58 75.39a21.38 21.38 0 0 1-0.202 0.06509 21.38 21.38 0 0 1-0.3105 0.09492 21.38 21.38 0 0 1-0.3105 0.08949 21.38 21.38 0 0 1-0.3132 0.08543 21.38 21.38 0 0 1-0.3132 0.08 21.38 21.38 0 0 1-0.3159 0.07458 21.38 21.38 0 0 1-0.3159 0.07051 21.38 21.38 0 0 1-0.03119 0.0068 34.71 1.388 75 0 0 4.514 12.62 34.71 1.388 75 0 0-2.401-13.19z" style="paint-order:markers stroke fill"/>
   <path d="m61.63 72.99a21.38 21.38 0 0 1-0.2563 0.1641 21.38 21.38 0 0 1-0.2753 0.1695 21.38 21.38 0 0 1-0.278 0.1668 21.38 21.38 0 0 1-0.282 0.1614 21.38 21.38 0 0 1-0.282 0.1573 21.38 21.38 0 0 1-0.2861 0.1532 21.38 21.38 0 0 1-0.2373 0.1234 34.71 1.388 60 0 0 7.627 11.02 34.71 1.388 60 0 0-5.73-12.12z" style="paint-order:markers stroke fill"/>
   <path d="m65.87 69.37a21.38 21.38 0 0 1-0.0461 0.05288 21.38 21.38 0 0 1-0.2197 0.2373 21.38 21.38 0 0 1-0.2237 0.2346 21.38 21.38 0 0 1-0.2264 0.2319 21.38 21.38 0 0 1-0.2305 0.2278 21.38 21.38 0 0 1-0.2332 0.2251 21.38 21.38 0 0 1-0.2373 0.2197 21.38 21.38 0 0 1-0.1302 0.1193 34.71 1.388 45 0 0 10.22 8.671 34.71 1.388 45 0 0-8.671-10.22z" style="paint-order:markers stroke fill"/>
   <path d="m69.04 64.77a21.38 21.38 0 0 1-0.07322 0.1424 21.38 21.38 0 0 1-0.1519 0.2861 21.38 21.38 0 0 1-0.1559 0.2848 21.38 21.38 0 0 1-0.16 0.2807 21.38 21.38 0 0 1-0.1654 0.2793 21.38 21.38 0 0 1-0.1681 0.2766 21.38 21.38 0 0 1-0.1736 0.2739 21.38 21.38 0 0 1-0.04746 0.07187 34.71 1.388 30 0 0 12.12 5.732 34.71 1.388 30 0 0-11.02-7.627z" style="paint-order:markers stroke fill"/>
   <path d="m70.91 59.51a21.38 21.38 0 0 1-0.05288 0.2441 21.38 21.38 0 0 1-0.07322 0.3159 21.38 21.38 0 0 1-0.07864 0.3146 21.38 21.38 0 0 1-0.08407 0.3132 21.38 21.38 0 0 1-0.08814 0.3119 21.38 21.38 0 0 1-0.09221 0.3105 21.38 21.38 0 0 1-0.09627 0.3051 34.71 1.388 15 0 0 13.19 2.4 34.71 1.388 15 0 0-12.62-4.515z" style="paint-order:markers stroke fill"/>
   <path d="m71.35 53.95a21.38 21.38 0 0 1 0.0068 0.122 21.38 21.38 0 0 1 0.0122 0.3241 21.38 21.38 0 0 1 0.0068 0.3241 21.38 21.38 0 0 1 0.0027 0.3241 21.38 21.38 0 0 1-0.0014 0.217 21.38 21.38 0 0 1-0.0054 0.3241 21.38 21.38 0 0 1-0.01085 0.3241 21.38 21.38 0 0 1-0.01085 0.2305 34.71 1.388 0 0 0 13.36-1.096 34.71 1.388 0 0 0-13.36-1.094z" style="paint-order:markers stroke fill"/>
   <path d="m70.34 48.46a21.38 21.38 0 0 1 0.06508 0.202 21.38 21.38 0 0 1 0.09492 0.3105 21.38 21.38 0 0 1 0.08949 0.3105 21.38 21.38 0 0 1 0.08543 0.3132 21.38 21.38 0 0 1 0.08 0.3132 21.38 21.38 0 0 1 0.07458 0.3159 21.38 21.38 0 0 1 0.07051 0.3159 21.38 21.38 0 0 1 0.0068 0.03119 1.388 34.71 75 0 0 12.62-4.514 1.388 34.71 75 0 0-13.19 2.401z" style="paint-order:markers stroke fill"/>
   <path d="m67.95 43.42a21.38 21.38 0 0 1 0.1641 0.2563 21.38 21.38 0 0 1 0.1695 0.2753 21.38 21.38 0 0 1 0.1668 0.278 21.38 21.38 0 0 1 0.1614 0.282 21.38 21.38 0 0 1 0.1573 0.282 21.38 21.38 0 0 1 0.1532 0.2861 21.38 21.38 0 0 1 0.1234 0.2373 1.388 34.71 60 0 0 11.02-7.627 1.388 34.71 60 0 0-12.12 5.73z" style="paint-order:markers stroke fill"/>
   <path d="m64.33 39.17a21.38 21.38 0 0 1 0.05288 0.0461 21.38 21.38 0 0 1 0.2373 0.2197 21.38 21.38 0 0 1 0.2346 0.2237 21.38 21.38 0 0 1 0.2319 0.2264 21.38 21.38 0 0 1 0.2278 0.2305 21.38 21.38 0 0 1 0.2251 0.2332 21.38 21.38 0 0 1 0.2197 0.2373 21.38 21.38 0 0 1 0.1193 0.1302 1.388 34.71 45 0 0 8.671-10.22 1.388 34.71 45 0 0-10.22 8.671z" style="paint-order:markers stroke fill"/>
   <path d="m59.73 36a21.38 21.38 0 0 1 0.1424 0.07322 21.38 21.38 0 0 1 0.2861 0.1519 21.38 21.38 0 0 1 0.2848 0.1559 21.38 21.38 0 0 1 0.2807 0.16 21.38 21.38 0 0 1 0.2793 0.1654 21.38 21.38 0 0 1 0.2766 0.1681 21.38 21.38 0 0 1 0.2739 0.1736 21.38 21.38 0 0 1 0.07187 0.04746 1.388 34.71 30 0 0 5.732-12.12 1.388 34.71 30 0 0-7.627 11.02z" style="paint-order:markers stroke fill"/>
   <path d="m54.47 34.13a21.38 21.38 0 0 1 0.2441 0.05288 21.38 21.38 0 0 1 0.3159 0.07322 21.38 21.38 0 0 1 0.3146 0.07865 21.38 21.38 0 0 1 0.3132 0.08407 21.38 21.38 0 0 1 0.3119 0.08814 21.38 21.38 0 0 1 0.3105 0.0922 21.38 21.38 0 0 1 0.3051 0.09627 1.388 34.71 15 0 0 2.4-13.19 1.388 34.71 15 0 0-4.515 12.62z" style="paint-order:markers stroke fill"/>
   <path d="m50 20.33a1.388 34.71 0 0 0-1.092 13.36 21.38 21.38 0 0 1 0.122-0.0068 21.38 21.38 0 0 1 0.3241-0.01221 21.38 21.38 0 0 1 0.3241-0.0068 21.38 21.38 0 0 1 0.3241-0.002665 21.38 21.38 0 0 1 0.217 0.0014 21.38 21.38 0 0 1 0.3241 0.0054 21.38 21.38 0 0 1 0.3241 0.01085 21.38 21.38 0 0 1 0.2305 0.01085 1.388 34.71 0 0 0-1.096-13.36 1.388 34.71 0 0 0-0.0027 0z" style="paint-order:markers stroke fill"/>
  </g>
  <circle cx="50" cy="55.04" r="17.98" stroke-width=".5554" style="paint-order:markers stroke fill"/>
 </g>
</svg>
