<?xml version="1.0" encoding="UTF-8"?>
<svg version="1.1" viewBox="0 0 100 110" xmlns="http://www.w3.org/2000/svg" xmlns:cc="http://creativecommons.org/ns#" xmlns:dc="http://purl.org/dc/elements/1.1/" xmlns:rdf="http://www.w3.org/1999/02/22-rdf-syntax-ns#">
 <metadata>
  <rdf:RDF>
   <cc:Work rdf:about="">
    <dc:format>image/svg+xml</dc:format>
    <dc:type rdf:resource="http://purl.org/dc/dcmitype/StillImage"/>
    <dc:title/>
   </cc:Work>
  </rdf:RDF>
 </metadata>
 <text x="-52.679455" y="21.611652" fill="#000000" font-family="monospace" font-size="16px" letter-spacing="0px" word-spacing="0px" style="font-feature-settings:normal;font-variant-caps:normal;font-variant-ligatures:normal;font-variant-numeric:normal;line-height:20px" xml:space="preserve"/>
 <text x="-52.414291" y="15.998991" fill="#000000" font-family="monospace" font-size="16px" letter-spacing="0px" word-spacing="0px" style="font-feature-settings:normal;font-variant-caps:normal;font-variant-ligatures:normal;font-variant-numeric:normal;line-height:20px" xml:space="preserve"/>
 <path d="m52.11 1.645c0.7085 3.503 3.283 4.979 5.73 7.125 2.641 2.792 2.748 6.954 0.9631 10.21 12.66 0.3543 12.52 11.96 4.642 16.6-4.064 2.477-0.7884-2.823-2.07-4.712-2.444-2.887-6.539 4.05-3.562 5.098 4.069 2.432-1.008 4.476-0.6569 7.346-0.5904 4.004-0.5233 8.18 0.2164 12.1 2.806 1.694 2.401 4.51-0.2758 5.972-1.33 3.454-0.07778 7.275-0.1273 10.87-0.787 3.467 5.103 5.961 0.6619 8.576-2.615 3.812-0.09263 9.491-0.4999 13.95 1.569 1.717 3.654 3.843 0.8952 5.875-1.971 5e-3 -3.941 0.0106-5.913 8e-3 -1.971 1e-3 -3.942-4e-3 -5.913-8e-3 -2.759-2.031-0.6746-4.156 0.8952-5.875-0.408-4.463 2.115-10.14-0.4999-13.95-4.442-2.615 1.448-5.11 0.6619-8.576-0.0502-3.591 1.203-7.413-0.1273-10.87-2.677-1.462-3.082-4.278-0.2758-5.972 0.7396-3.917 0.8061-8.092 0.2164-12.1 0.3507-2.871-4.726-4.914-0.6569-7.346 2.976-1.049-1.118-7.985-3.562-5.098-1.282 1.889 1.994 7.19-2.07 4.712-7.88-4.636-8.022-16.25 4.642-16.6-1.785-3.256-1.679-7.416 0.9631-10.21 2.448-2.147 5.022-3.623 5.73-7.125z"/>
</svg>
