<?xml version="1.0" encoding="UTF-8" standalone="no"?>
<svg
   xmlns:dc="http://purl.org/dc/elements/1.1/"
   xmlns:cc="http://creativecommons.org/ns#"
   xmlns:rdf="http://www.w3.org/1999/02/22-rdf-syntax-ns#"
   xmlns:svg="http://www.w3.org/2000/svg"
   xmlns="http://www.w3.org/2000/svg"
   xmlns:sodipodi="http://sodipodi.sourceforge.net/DTD/sodipodi-0.dtd"
   xmlns:inkscape="http://www.inkscape.org/namespaces/inkscape"
   inkscape:version="1.0 (4035a4fb49, 2020-05-01)"
   sodipodi:docname="eight.svg"
   id="svg23"
   version="1.1"
   viewBox="0 0 100 110">
  <metadata
     id="metadata29">
    <rdf:RDF>
      <cc:Work
         rdf:about="">
        <dc:format>image/svg+xml</dc:format>
        <dc:type
           rdf:resource="http://purl.org/dc/dcmitype/StillImage" />
        <dc:title></dc:title>
      </cc:Work>
    </rdf:RDF>
  </metadata>
  <defs
     id="defs27" />
  <sodipodi:namedview
     inkscape:snap-bbox-midpoints="true"
     inkscape:snap-bbox-edge-midpoints="true"
     inkscape:bbox-paths="true"
     inkscape:bbox-nodes="true"
     inkscape:snap-bbox="true"
     inkscape:document-rotation="0"
     inkscape:guide-bbox="true"
     showguides="true"
     inkscape:current-layer="svg23"
     inkscape:window-maximized="1"
     inkscape:window-y="0"
     inkscape:window-x="0"
     inkscape:cy="46.197325"
     inkscape:cx="13.696884"
     inkscape:zoom="4"
     showgrid="false"
     id="namedview25"
     inkscape:window-height="1020"
     inkscape:window-width="1920"
     inkscape:pageshadow="2"
     inkscape:pageopacity="0"
     guidetolerance="10"
     gridtolerance="10"
     objecttolerance="10"
     borderopacity="1"
     bordercolor="#666666"
     pagecolor="#ffffff" />
  <g
     style="fill:#501616"
     transform="matrix(0,1,1,0,45.343786,60.257881)"
     id="g989" />
  <path
     d="m 50.032295,5.2141589 c -0.263829,1.3043401 -1.22245,1.8539482 -2.133825,2.6534608 -0.983637,1.0398318 -1.023133,2.5895333 -0.358533,3.8017153 -4.713954,0.131991 -4.662287,4.454285 -1.727909,6.180352 1.513324,0.922362 0.293487,-1.051525 0.770768,-1.754759 0.910337,-1.075156 2.434954,1.508141 1.32673,1.898489 -1.515149,0.905619 0.375348,1.666703 0.244814,2.735592 0.219704,1.491044 0.194799,3.045834 -0.08055,4.504565 -1.044873,0.630895 -0.894374,1.67935 0.102667,2.223852 0.495282,1.286368 0.02883,2.70904 0.04738,4.046529 0.292946,1.29094 -1.900321,2.219876 -0.246393,3.19363 0.973902,1.419678 0.03457,3.53446 0.186374,5.196361 -0.584509,0.639578 -1.360637,1.431234 -0.33326,2.187525 0.733747,0.0018 1.467614,0.0039 2.201739,0.003 0.734126,7.4e-4 1.467992,-0.0011 2.201741,-0.003 1.027378,-0.756291 0.251247,-1.547947 -0.333261,-2.187525 0.151803,-1.661901 -0.787527,-3.776683 0.186374,-5.196361 1.653927,-0.973754 -0.539338,-1.90269 -0.246394,-3.19363 0.01857,-1.337489 -0.447896,-2.760161 0.0474,-4.046529 0.997038,-0.544502 1.147535,-1.592957 0.102667,-2.223852 -0.27535,-1.458731 -0.300256,-3.013521 -0.08055,-4.504565 -0.13054,-1.068889 1.759955,-1.829973 0.244806,-2.735592 -1.108224,-0.390348 0.416394,-2.973645 1.326731,-1.898489 0.477281,0.703234 -0.742557,2.677121 0.770767,1.754759 2.93437,-1.726067 2.986035,-6.048361 -1.727917,-6.180352 C 53.18926,10.457153 53.149765,8.9074515 52.166128,7.8676197 51.254752,7.0681071 50.29613,6.518499 50.032302,5.2141589 Z"
     style="fill:#000000;fill-opacity:1;stroke:none;stroke-width:0.27421px;stroke-linecap:butt;stroke-linejoin:miter;stroke-opacity:1"
     id="path872-3-6-8-2-11-5-5-1" />
  <path
     id="path872-3-6-8-2-11-5-5-1-4"
     style="fill:#000000;fill-opacity:1;stroke:none;stroke-width:0.27421px;stroke-linecap:butt;stroke-linejoin:miter;stroke-opacity:1"
     d="m 30.032295,5.2141587 c -0.263829,1.3043401 -1.22245,1.8539482 -2.133825,2.6534608 -0.983637,1.0398318 -1.023133,2.5895335 -0.358533,3.8017145 -4.713954,0.131992 -4.662287,4.454286 -1.727909,6.180353 1.513324,0.922362 0.293487,-1.051525 0.770768,-1.754759 0.910337,-1.075156 2.434954,1.508141 1.32673,1.898489 -1.515149,0.905619 0.375348,1.666703 0.244814,2.735592 0.219704,1.491044 0.194799,3.045834 -0.08055,4.504565 -1.044873,0.630895 -0.894374,1.67935 0.102667,2.223852 0.495282,1.286368 0.02883,2.70904 0.04738,4.046529 0.292946,1.29094 -1.900321,2.219876 -0.246393,3.19363 0.973902,1.419678 0.03457,3.53446 0.186374,5.196361 -0.584509,0.639578 -1.360637,1.431234 -0.33326,2.187525 0.733747,0.0018 1.467614,0.0039 2.201739,0.003 0.734126,7.4e-4 1.467992,-0.0011 2.201741,-0.003 1.027378,-0.756291 0.251247,-1.547947 -0.333261,-2.187525 0.151803,-1.661901 -0.787527,-3.776683 0.186374,-5.196361 1.653927,-0.973754 -0.539338,-1.90269 -0.246394,-3.19363 0.01857,-1.337489 -0.447896,-2.760161 0.0474,-4.046529 0.997038,-0.544502 1.147535,-1.592957 0.102667,-2.223852 -0.27535,-1.458731 -0.300256,-3.013521 -0.08055,-4.504565 -0.13054,-1.068889 1.759955,-1.829973 0.244806,-2.735592 -1.108224,-0.390348 0.416394,-2.973645 1.326731,-1.898489 0.477281,0.703234 -0.742557,2.677121 0.770767,1.754759 2.93437,-1.726067 2.986035,-6.048361 -1.727917,-6.180353 C 33.18926,10.457153 33.149765,8.9074513 32.166128,7.8676195 31.254752,7.0681069 30.29613,6.5184988 30.032302,5.2141587 Z" />
  <path
     d="m 70.032295,5.2141587 c -0.263829,1.3043401 -1.22245,1.8539482 -2.133825,2.6534608 -0.983637,1.0398318 -1.023133,2.5895335 -0.358533,3.8017145 -4.713954,0.131992 -4.662287,4.454286 -1.727909,6.180353 1.513324,0.922362 0.293487,-1.051525 0.770768,-1.754759 0.910337,-1.075156 2.434954,1.508141 1.32673,1.898489 -1.515149,0.905619 0.375348,1.666703 0.244814,2.735592 0.219704,1.491044 0.194799,3.045834 -0.08055,4.504565 -1.044873,0.630895 -0.894374,1.67935 0.102667,2.223852 0.495282,1.286368 0.02883,2.70904 0.04738,4.046529 0.292946,1.29094 -1.900321,2.219876 -0.246393,3.19363 0.973902,1.419678 0.03457,3.53446 0.186374,5.196361 -0.584509,0.639578 -1.360637,1.431234 -0.33326,2.187525 0.733747,0.0018 1.467614,0.0039 2.201739,0.003 0.734126,7.4e-4 1.467992,-0.0011 2.201741,-0.003 1.027378,-0.756291 0.251247,-1.547947 -0.333261,-2.187525 0.151803,-1.661901 -0.787527,-3.776683 0.186374,-5.196361 1.653927,-0.973754 -0.539338,-1.90269 -0.246394,-3.19363 0.01857,-1.337489 -0.447896,-2.760161 0.0474,-4.046529 0.997038,-0.544502 1.147535,-1.592957 0.102667,-2.223852 -0.27535,-1.458731 -0.300256,-3.013521 -0.08055,-4.504565 -0.13054,-1.068889 1.759955,-1.829973 0.244806,-2.735592 -1.108224,-0.390348 0.416394,-2.973645 1.326731,-1.898489 0.477281,0.703234 -0.742557,2.677121 0.770767,1.754759 2.93437,-1.726067 2.986035,-6.048361 -1.727917,-6.180353 C 73.18926,10.457153 73.149765,8.9074513 72.166128,7.8676195 71.254752,7.0681069 70.29613,6.5184988 70.032302,5.2141587 Z"
     style="fill:#000000;fill-opacity:1;stroke:none;stroke-width:0.27421px;stroke-linecap:butt;stroke-linejoin:miter;stroke-opacity:1"
     id="path872-3-6-8-2-11-5-5-1-4-5" />
  <path
     id="path872-3-6-8-2-11-5-5-1-4-5-0"
     style="fill:#000000;fill-opacity:1;stroke:none;stroke-width:0.27421px;stroke-linecap:butt;stroke-linejoin:miter;stroke-opacity:1"
     d="m 70.032295,45.214159 c -0.263829,1.30434 -1.22245,1.853948 -2.133825,2.65346 -0.983637,1.039832 -1.023133,2.589534 -0.358533,3.801715 -4.713954,0.131992 -4.662287,4.454286 -1.727909,6.180353 1.513324,0.922362 0.293487,-1.051525 0.770768,-1.754759 0.910337,-1.075156 2.434954,1.508141 1.32673,1.898489 -1.515149,0.905619 0.375348,1.666703 0.244814,2.735592 0.219704,1.491044 0.194799,3.045834 -0.08055,4.504565 -1.044873,0.630895 -0.894374,1.67935 0.102667,2.223852 0.495282,1.286368 0.02883,2.70904 0.04738,4.046529 0.292946,1.29094 -1.900321,2.219876 -0.246393,3.19363 0.973902,1.419678 0.03457,3.53446 0.186374,5.196361 -0.584509,0.639578 -1.360637,1.431234 -0.33326,2.187525 0.733747,0.0018 1.467614,0.0039 2.201739,0.003 0.734126,7.4e-4 1.467992,-0.0011 2.201741,-0.003 1.027378,-0.756291 0.251247,-1.547947 -0.333261,-2.187525 0.151803,-1.661901 -0.787527,-3.776683 0.186374,-5.196361 1.653927,-0.973754 -0.539338,-1.90269 -0.246394,-3.19363 0.01857,-1.337489 -0.447896,-2.760161 0.0474,-4.046529 0.997038,-0.544502 1.147535,-1.592957 0.102667,-2.223852 -0.27535,-1.458731 -0.300256,-3.013521 -0.08055,-4.504565 -0.13054,-1.068889 1.759955,-1.829973 0.244806,-2.735592 -1.108224,-0.390348 0.416394,-2.973645 1.326731,-1.898489 0.477281,0.703234 -0.742557,2.677121 0.770767,1.754759 2.93437,-1.726067 2.986035,-6.048361 -1.727917,-6.180353 0.664599,-1.212181 0.625104,-2.761883 -0.358533,-3.801715 -0.911376,-0.799512 -1.869998,-1.34912 -2.133826,-2.65346 z" />
  <path
     d="m 50.032295,45.214159 c -0.263829,1.30434 -1.22245,1.853948 -2.133825,2.65346 -0.983637,1.039832 -1.023133,2.589534 -0.358533,3.801715 -4.713954,0.131992 -4.662287,4.454286 -1.727909,6.180353 1.513324,0.922362 0.293487,-1.051525 0.770768,-1.754759 0.910337,-1.075156 2.434954,1.508141 1.32673,1.898489 -1.515149,0.905619 0.375348,1.666703 0.244814,2.735592 0.219704,1.491044 0.194799,3.045834 -0.08055,4.504565 -1.044873,0.630895 -0.894374,1.67935 0.102667,2.223852 0.495282,1.286368 0.02883,2.70904 0.04738,4.046529 0.292946,1.29094 -1.900321,2.219876 -0.246393,3.19363 0.973902,1.419678 0.03457,3.53446 0.186374,5.196361 -0.584509,0.639578 -1.360637,1.431234 -0.33326,2.187525 0.733747,0.0018 1.467614,0.0039 2.201739,0.003 0.734126,7.4e-4 1.467992,-0.0011 2.201741,-0.003 1.027378,-0.756291 0.251247,-1.547947 -0.333261,-2.187525 0.151803,-1.661901 -0.787527,-3.776683 0.186374,-5.196361 1.653927,-0.973754 -0.539338,-1.90269 -0.246394,-3.19363 0.01857,-1.337489 -0.447896,-2.760161 0.0474,-4.046529 0.997038,-0.544502 1.147535,-1.592957 0.102667,-2.223852 -0.27535,-1.458731 -0.300256,-3.013521 -0.08055,-4.504565 -0.13054,-1.068889 1.759955,-1.829973 0.244806,-2.735592 -1.108224,-0.390348 0.416394,-2.973645 1.326731,-1.898489 0.477281,0.703234 -0.742557,2.677121 0.770767,1.754759 2.93437,-1.726067 2.986035,-6.048361 -1.727917,-6.180353 0.664599,-1.212181 0.625104,-2.761883 -0.358533,-3.801715 -0.911376,-0.799512 -1.869998,-1.34912 -2.133826,-2.65346 z"
     style="fill:#000000;fill-opacity:1;stroke:none;stroke-width:0.27421px;stroke-linecap:butt;stroke-linejoin:miter;stroke-opacity:1"
     id="path872-3-6-8-2-11-5-5-1-4-5-0-3" />
  <path
     id="path872-3-6-8-2-11-5-5-1-4-5-0-3-6"
     style="fill:#000000;fill-opacity:1;stroke:none;stroke-width:0.27421px;stroke-linecap:butt;stroke-linejoin:miter;stroke-opacity:1"
     d="m 30.032295,45.214159 c -0.263829,1.30434 -1.22245,1.853948 -2.133825,2.65346 -0.983637,1.039832 -1.023133,2.589534 -0.358533,3.801715 -4.713954,0.131992 -4.662287,4.454286 -1.727909,6.180353 1.513324,0.922362 0.293487,-1.051525 0.770768,-1.754759 0.910337,-1.075156 2.434954,1.508141 1.32673,1.898489 -1.515149,0.905619 0.375348,1.666703 0.244814,2.735592 0.219704,1.491044 0.194799,3.045834 -0.08055,4.504565 -1.044873,0.630895 -0.894374,1.67935 0.102667,2.223852 0.495282,1.286368 0.02883,2.70904 0.04738,4.046529 0.292946,1.29094 -1.900321,2.219876 -0.246393,3.19363 0.973902,1.419678 0.03457,3.53446 0.186374,5.196361 -0.584509,0.639578 -1.360637,1.431234 -0.33326,2.187525 0.733747,0.0018 1.467614,0.0039 2.201739,0.003 0.734126,7.4e-4 1.467992,-0.0011 2.201741,-0.003 1.027378,-0.756291 0.251247,-1.547947 -0.333261,-2.187525 0.151803,-1.661901 -0.787527,-3.776683 0.186374,-5.196361 1.653927,-0.973754 -0.539338,-1.90269 -0.246394,-3.19363 0.01857,-1.337489 -0.447896,-2.760161 0.0474,-4.046529 0.997038,-0.544502 1.147535,-1.592957 0.102667,-2.223852 -0.27535,-1.458731 -0.300256,-3.013521 -0.08055,-4.504565 -0.13054,-1.068889 1.759955,-1.829973 0.244806,-2.735592 -1.108224,-0.390348 0.416394,-2.973645 1.326731,-1.898489 0.477281,0.703234 -0.742557,2.677121 0.770767,1.754759 2.93437,-1.726067 2.986035,-6.048361 -1.727917,-6.180353 0.664599,-1.212181 0.625104,-2.761883 -0.358533,-3.801715 -0.911376,-0.799512 -1.869998,-1.34912 -2.133826,-2.65346 z" />
  <path
     d="m 10.032295,25.214159 c -0.263829,1.30434 -1.22245,1.853948 -2.133825,2.65346 -0.983637,1.039832 -1.023133,2.589534 -0.358533,3.801715 -4.713954,0.131992 -4.662287,4.454286 -1.727909,6.180353 1.513324,0.922362 0.293487,-1.051525 0.770768,-1.754759 0.910337,-1.075156 2.434954,1.508141 1.32673,1.898489 -1.515149,0.905619 0.375348,1.666703 0.244814,2.735592 0.219704,1.491044 0.194799,3.045834 -0.08055,4.504565 -1.044873,0.630895 -0.894374,1.67935 0.102667,2.223852 0.495282,1.286368 0.02883,2.70904 0.04738,4.046529 0.292946,1.29094 -1.900321,2.219876 -0.246393,3.19363 0.973902,1.419678 0.03457,3.53446 0.186374,5.196361 -0.584509,0.639578 -1.360637,1.431234 -0.33326,2.187525 0.733747,0.0018 1.467614,0.0039 2.201739,0.003 0.734126,7.4e-4 1.467992,-0.0011 2.201741,-0.003 1.027378,-0.756291 0.251247,-1.547947 -0.333261,-2.187525 0.151803,-1.661901 -0.787527,-3.776683 0.186374,-5.196361 1.653927,-0.973754 -0.539338,-1.90269 -0.246394,-3.19363 0.01857,-1.337489 -0.447896,-2.760161 0.0474,-4.046529 0.997038,-0.544502 1.147535,-1.592957 0.102667,-2.223852 -0.27535,-1.458731 -0.300256,-3.013521 -0.08055,-4.504565 -0.13054,-1.068889 1.759955,-1.829973 0.244806,-2.735592 -1.108224,-0.390348 0.416394,-2.973645 1.326731,-1.898489 0.477281,0.703234 -0.742557,2.677121 0.770767,1.754759 2.93437,-1.726067 2.986035,-6.048361 -1.727917,-6.180353 0.664599,-1.212181 0.625104,-2.761883 -0.358533,-3.801715 -0.911376,-0.799512 -1.869998,-1.34912 -2.133826,-2.65346 z"
     style="fill:#000000;fill-opacity:1;stroke:none;stroke-width:0.27421px;stroke-linecap:butt;stroke-linejoin:miter;stroke-opacity:1"
     id="path872-3-6-8-2-11-5-5-1-4-5-0-3-6-1" />
  <path
     id="path872-3-6-8-2-11-5-5-1-4-5-0-3-6-1-0"
     style="fill:#000000;fill-opacity:1;stroke:none;stroke-width:0.27421px;stroke-linecap:butt;stroke-linejoin:miter;stroke-opacity:1"
     d="m 90.032295,25.214159 c -0.263829,1.30434 -1.22245,1.853948 -2.133825,2.65346 -0.983637,1.039832 -1.023133,2.589534 -0.358533,3.801715 -4.713954,0.131992 -4.662287,4.454286 -1.727909,6.180353 1.513324,0.922362 0.293487,-1.051525 0.770768,-1.754759 0.910337,-1.075156 2.434954,1.508141 1.32673,1.898489 -1.515149,0.905619 0.375348,1.666703 0.244814,2.735592 0.219704,1.491044 0.194799,3.045834 -0.08055,4.504565 -1.044873,0.630895 -0.894374,1.67935 0.102667,2.223852 0.495282,1.286368 0.02883,2.70904 0.04738,4.046529 0.292946,1.29094 -1.900321,2.219876 -0.246393,3.19363 0.973902,1.419678 0.03457,3.53446 0.186374,5.196361 -0.584509,0.639578 -1.360637,1.431234 -0.33326,2.187525 0.733747,0.0018 1.467614,0.0039 2.201739,0.003 0.734126,7.4e-4 1.467992,-0.0011 2.201741,-0.003 1.027378,-0.756291 0.251247,-1.547947 -0.333261,-2.187525 0.151803,-1.661901 -0.787527,-3.776683 0.186374,-5.196361 1.653927,-0.973754 -0.539338,-1.90269 -0.246394,-3.19363 0.01857,-1.337489 -0.447896,-2.760161 0.0474,-4.046529 0.997038,-0.544502 1.147535,-1.592957 0.102667,-2.223852 -0.27535,-1.458731 -0.300256,-3.013521 -0.08055,-4.504565 -0.13054,-1.068889 1.759955,-1.829973 0.244806,-2.735592 -1.108224,-0.390348 0.416394,-2.973645 1.326731,-1.898489 0.477281,0.703234 -0.742557,2.677121 0.770767,1.754759 2.93437,-1.726067 2.986035,-6.048361 -1.727917,-6.180353 0.664599,-1.212181 0.625104,-2.761883 -0.358533,-3.801715 -0.911376,-0.799512 -1.869998,-1.34912 -2.133826,-2.65346 z" />
</svg>
