<?xml version="1.0" encoding="UTF-8"?>
<svg version="1.1" viewBox="0 0 100 110" xmlns="http://www.w3.org/2000/svg" xmlns:cc="http://creativecommons.org/ns#" xmlns:dc="http://purl.org/dc/elements/1.1/" xmlns:rdf="http://www.w3.org/1999/02/22-rdf-syntax-ns#" xmlns:xlink="http://www.w3.org/1999/xlink">
 <metadata>
  <rdf:RDF>
   <cc:Work rdf:about="">
    <dc:format>image/svg+xml</dc:format>
    <dc:type rdf:resource="http://purl.org/dc/dcmitype/StillImage"/>
    <dc:title/>
   </cc:Work>
  </rdf:RDF>
 </metadata>
 <path id="path872-3-6-8-2-11-5-5-1" d="m50.03 5.214c-0.2638 1.304-1.222 1.854-2.134 2.653-0.9836 1.04-1.023 2.59-0.3585 3.802-4.714 0.132-4.662 4.454-1.728 6.18 1.513 0.9224 0.2935-1.052 0.7708-1.755 0.9103-1.075 2.435 1.508 1.327 1.898-1.515 0.9056 0.3753 1.667 0.2448 2.736 0.2197 1.491 0.1948 3.046-0.08055 4.505-1.045 0.6309-0.8944 1.679 0.1027 2.224 0.4953 1.286 0.02883 2.709 0.04738 4.047 0.2929 1.291-1.9 2.22-0.2464 3.194 0.9739 1.42 0.03457 3.534 0.1864 5.196-0.5845 0.6396-1.361 1.431-0.3333 2.188 0.7337 0.0018 1.468 0.0039 2.202 3e-3 0.7341 7.4e-4 1.468-0.0011 2.202-3e-3 1.027-0.7563 0.2512-1.548-0.3333-2.188 0.1518-1.662-0.7875-3.777 0.1864-5.196 1.654-0.9738-0.5393-1.903-0.2464-3.194 0.01857-1.337-0.4479-2.76 0.0474-4.047 0.997-0.5445 1.148-1.593 0.1027-2.224-0.2754-1.459-0.3003-3.014-0.08055-4.505-0.1305-1.069 1.76-1.83 0.2448-2.736-1.108-0.3903 0.4164-2.974 1.327-1.898 0.4773 0.7032-0.7426 2.677 0.7708 1.755 2.934-1.726 2.986-6.048-1.728-6.18 0.6646-1.212 0.6251-2.762-0.3585-3.802-0.9114-0.7995-1.87-1.349-2.134-2.653z"/>
 <use id="use838" transform="translate(0,40)" width="100%" height="100%" xlink:href="#path872-3-6-8-2-11-5-5-1"/>
 <use id="use840" transform="translate(-20)" width="100%" height="100%" xlink:href="#path872-3-6-8-2-11-5-5-1"/>
 <use id="use842" transform="translate(-20)" width="100%" height="100%" xlink:href="#use838"/>
 <use transform="translate(40)" width="100%" height="100%" xlink:href="#use840"/>
 <use transform="translate(40)" width="100%" height="100%" xlink:href="#use842"/>
 <use id="use848" transform="translate(-20,20)" width="100%" height="100%" xlink:href="#use840"/>
 <use transform="translate(80)" width="100%" height="100%" xlink:href="#use848"/>
</svg>
