<?xml version="1.0" encoding="UTF-8"?>
<svg version="1.1" viewBox="0 0 100 110" xmlns="http://www.w3.org/2000/svg" xmlns:cc="http://creativecommons.org/ns#" xmlns:dc="http://purl.org/dc/elements/1.1/" xmlns:rdf="http://www.w3.org/1999/02/22-rdf-syntax-ns#" xmlns:xlink="http://www.w3.org/1999/xlink">
 <metadata>
  <rdf:RDF>
   <cc:Work rdf:about="">
    <dc:format>image/svg+xml</dc:format>
    <dc:type rdf:resource="http://purl.org/dc/dcmitype/StillImage"/>
    <dc:title/>
   </cc:Work>
  </rdf:RDF>
 </metadata>
 <path id="path872-3-6-8-2-11-5-5-1" d="m50 2.994c-0.3916 1.936-1.815 2.752-3.167 3.939-1.46 1.543-1.519 3.844-0.5322 5.643-6.997 0.1959-6.921 6.612-2.565 9.174 2.246 1.369 0.4356-1.561 1.144-2.605 1.351-1.596 3.614 2.239 1.969 2.818-2.249 1.344 0.5572 2.474 0.3634 4.061 0.3261 2.213 0.2892 4.521-0.1196 6.686-1.551 0.9365-1.328 2.493 0.1524 3.301 0.7352 1.909 0.04279 4.021 0.07034 6.007 0.4348 1.916-2.821 3.295-0.3657 4.74 1.446 2.107 0.05132 5.246 0.2766 7.713-0.8676 0.9494-2.02 2.124-0.4947 3.247 1.089 0.0028 2.178 0.0058 3.268 0.0044 1.09 0.0011 2.179-0.0017 3.268-0.0044 1.525-1.123 0.3729-2.298-0.4947-3.247 0.2253-2.467-1.169-5.606 0.2766-7.713 2.455-1.445-0.8006-2.824-0.3657-4.74 0.02755-1.985-0.6648-4.097 0.07034-6.007 1.48-0.8082 1.703-2.365 0.1524-3.301-0.4087-2.165-0.4457-4.473-0.1196-6.686-0.1938-1.587 2.612-2.716 0.3634-4.061-1.645-0.5794 0.6181-4.414 1.969-2.818 0.7085 1.044-1.102 3.974 1.144 2.605 4.356-2.562 4.432-8.978-2.565-9.174 0.9865-1.799 0.9279-4.1-0.5322-5.643-1.353-1.187-2.776-2.003-3.167-3.939z"/>
 <use id="use835" transform="rotate(-22.5 40 80.63)" width="100%" height="100%" xlink:href="#path872-3-6-8-2-11-5-5-1"/>
 <use id="use837" transform="matrix(-1 0 0 1 99.77 0)" width="100%" height="100%" xlink:href="#use835"/>
 <use transform="translate(0,40)" width="100%" height="100%" xlink:href="#use835"/>
 <use transform="translate(0,40)" width="100%" height="100%" xlink:href="#use837"/>
</svg>
