<?xml version="1.0" encoding="UTF-8" standalone="no"?>
<svg
   xmlns:dc="http://purl.org/dc/elements/1.1/"
   xmlns:cc="http://creativecommons.org/ns#"
   xmlns:rdf="http://www.w3.org/1999/02/22-rdf-syntax-ns#"
   xmlns:svg="http://www.w3.org/2000/svg"
   xmlns="http://www.w3.org/2000/svg"
   xmlns:sodipodi="http://sodipodi.sourceforge.net/DTD/sodipodi-0.dtd"
   xmlns:inkscape="http://www.inkscape.org/namespaces/inkscape"
   inkscape:version="1.0 (4035a4fb49, 2020-05-01)"
   sodipodi:docname="five.svg"
   id="svg23"
   version="1.1"
   viewBox="0 0 100 110">
  <metadata
     id="metadata29">
    <rdf:RDF>
      <cc:Work
         rdf:about="">
        <dc:format>image/svg+xml</dc:format>
        <dc:type
           rdf:resource="http://purl.org/dc/dcmitype/StillImage" />
        <dc:title></dc:title>
      </cc:Work>
    </rdf:RDF>
  </metadata>
  <defs
     id="defs27" />
  <sodipodi:namedview
     inkscape:snap-bbox-midpoints="true"
     inkscape:snap-bbox-edge-midpoints="true"
     inkscape:bbox-paths="true"
     inkscape:bbox-nodes="true"
     inkscape:snap-bbox="true"
     inkscape:document-rotation="0"
     inkscape:guide-bbox="true"
     showguides="true"
     inkscape:current-layer="svg23"
     inkscape:window-maximized="1"
     inkscape:window-y="0"
     inkscape:window-x="0"
     inkscape:cy="39.768571"
     inkscape:cx="13.696884"
     inkscape:zoom="4"
     showgrid="false"
     id="namedview25"
     inkscape:window-height="1020"
     inkscape:window-width="1920"
     inkscape:pageshadow="2"
     inkscape:pageopacity="0"
     guidetolerance="10"
     gridtolerance="10"
     objecttolerance="10"
     borderopacity="1"
     bordercolor="#666666"
     pagecolor="#ffffff" />
  <g
     style="fill:#501616"
     transform="matrix(0,1,1,0,45.343786,60.257881)"
     id="g989" />
  <path
     id="path872-3-6-8-2-11-5-5-3"
     style="fill:#000000;fill-opacity:1;stroke:none;stroke-width:0.407027px;stroke-linecap:butt;stroke-linejoin:miter;stroke-opacity:1"
     d="m 17.807479,46.718593 c 0.628907,1.872531 -0.195488,3.290518 -0.773672,4.994692 -0.492716,2.066734 0.60667,4.088179 2.360666,5.153179 -5.961798,3.668278 -2.68746,9.186216 2.36572,9.227227 2.629928,0.06253 -0.403148,-1.56955 -0.311531,-2.82778 0.372272,-2.057742 4.249432,0.131531 3.114524,1.455822 -1.275582,2.288682 1.719502,1.863962 2.34501,3.334891 1.389053,1.75367 2.510971,3.770828 3.239652,5.850377 -0.87494,1.586496 0.09667,2.822582 1.782473,2.782555 1.591397,1.286029 2.047651,3.461059 3.064165,5.166622 1.334689,1.442077 -0.795303,4.264018 2.053512,4.288259 2.305602,1.102178 2.667649,4.517871 4.096221,6.541573 -0.2767,1.255986 -0.686858,2.849685 1.195132,3.059392 0.944632,-0.542148 1.88949,-1.084251 2.832522,-1.63028 C 46.116118,93.571181 47.058134,93.024159 48,92.47722 c 0.759384,-1.734709 -0.825878,-2.176347 -2.051943,-2.564713 -1.038288,-2.249026 -3.815343,-4.270414 -3.617054,-6.818214 1.403413,-2.479266 -2.105455,-2.045609 -2.686986,-3.922522 -0.968804,-1.733109 -2.624309,-3.215752 -2.942344,-5.236956 0.877566,-1.439937 0.292889,-2.899418 -1.518526,-2.934946 -1.436603,-1.670829 -2.622553,-3.651019 -3.44675,-5.730809 -0.961107,-1.27717 0.904252,-3.658628 -1.715595,-3.698284 -1.714324,0.320715 -1.671709,-4.131641 0.296484,-3.425168 1.135468,0.549773 1.032353,3.992535 2.293163,1.683684 2.491075,-4.396688 -0.650432,-9.991316 -6.808153,-6.662387 -0.04532,-2.051505 -1.246248,-4.014325 -3.282451,-4.620986 -1.76495,-0.351364 -3.40516,-0.346412 -4.712366,-1.827326 z" />
  <path
     d="m 82.39046,46.718593 c -0.628907,1.872531 0.195488,3.290518 0.773672,4.994692 0.492716,2.066734 -0.606669,4.088179 -2.360666,5.153179 5.961802,3.668278 2.68746,9.186216 -2.365719,9.227227 -2.629929,0.06253 0.403147,-1.56955 0.31153,-2.82778 -0.372272,-2.057742 -4.249432,0.131531 -3.114524,1.455822 1.275582,2.288682 -1.719502,1.863962 -2.345009,3.334891 -1.389054,1.75367 -2.510972,3.770828 -3.239653,5.850377 0.87494,1.586496 -0.09667,2.822582 -1.782473,2.782555 -1.591397,1.286029 -2.047651,3.461059 -3.064165,5.166622 -1.334689,1.442077 0.795303,4.264018 -2.053512,4.288259 -2.305601,1.102178 -2.667649,4.517871 -4.09622,6.541573 0.2767,1.255986 0.686858,2.849685 -1.195132,3.059392 -0.944633,-0.542148 -1.889491,-1.084251 -2.832523,-1.63028 -0.944244,-0.543941 -1.886261,-1.090963 -2.828126,-1.637902 -0.759384,-1.734709 0.825878,-2.176347 2.051943,-2.564713 1.038287,-2.249026 3.815342,-4.270414 3.617054,-6.818214 -1.403413,-2.479266 2.105455,-2.045609 2.686986,-3.922522 0.968804,-1.733109 2.624308,-3.215752 2.942343,-5.236956 -0.877566,-1.439937 -0.292889,-2.899418 1.518527,-2.934946 1.436602,-1.670829 2.622553,-3.651019 3.446749,-5.730809 0.961108,-1.27717 -0.904251,-3.658628 1.715595,-3.698284 1.714325,0.320715 1.671709,-4.131641 -0.296483,-3.425168 -1.135469,0.549773 -1.032353,3.992535 -2.293164,1.683684 -2.491074,-4.396688 0.650432,-9.991316 6.808154,-6.662387 0.04532,-2.051505 1.246248,-4.014325 3.28245,-4.620986 1.76495,-0.351364 3.40516,-0.346412 4.712366,-1.827326 z"
     style="fill:#000000;fill-opacity:1;stroke:none;stroke-width:0.407027px;stroke-linecap:butt;stroke-linejoin:miter;stroke-opacity:1"
     id="path872-3-6-8-2-11-5-5-3-6" />
  <path
     id="path872-3-6-8-2-11-5-5-1"
     style="fill:#000000;fill-opacity:1;stroke:none;stroke-width:0.407027px;stroke-linecap:butt;stroke-linejoin:miter;stroke-opacity:1"
     d="m 50,2.9938279 c -0.391616,1.936112 -1.814557,2.751928 -3.167366,3.938694 -1.460072,1.543485 -1.518698,3.8438011 -0.532193,5.6431161 -6.997207,0.195923 -6.920516,6.611767 -2.56484,9.173874 2.246319,1.369118 0.435639,-1.560844 1.144097,-2.604696 1.351268,-1.59592 3.614351,2.238626 1.969346,2.818042 -2.249027,1.344265 0.557152,2.473989 0.363392,4.060605 0.326121,2.213249 0.289152,4.521118 -0.119567,6.686401 -1.550968,0.936476 -1.327574,2.492762 0.152389,3.301 0.735176,1.909433 0.04279,4.021191 0.07034,6.006509 0.434835,1.91622 -2.820763,3.295096 -0.365737,4.740497 1.445621,2.107315 0.05132,5.246416 0.276646,7.713276 -0.867622,0.949365 -2.019677,2.124468 -0.49468,3.247075 1.089149,0.0028 2.17847,0.0058 3.268178,0.0044 1.089707,0.0011 2.179029,-0.0017 3.268177,-0.0044 1.524999,-1.122607 0.372942,-2.29771 -0.49468,-3.247075 0.225331,-2.46686 -1.168975,-5.605961 0.276648,-7.713276 2.455024,-1.445401 -0.800573,-2.824277 -0.365738,-4.740497 0.02755,-1.985318 -0.664841,-4.097076 0.07034,-6.006509 1.479963,-0.808238 1.703357,-2.364524 0.152389,-3.301 -0.408719,-2.165283 -0.445688,-4.473152 -0.119567,-6.686401 -0.193759,-1.586616 2.612419,-2.71634 0.363392,-4.060605 -1.645005,-0.579416 0.618079,-4.413962 1.969347,-2.818042 0.708458,1.043852 -1.102223,3.973814 1.144096,2.604696 4.355677,-2.562107 4.432367,-8.977951 -2.56484,-9.173874 0.986505,-1.799315 0.927879,-4.0996311 -0.532193,-5.6431161 -1.35281,-1.186766 -2.775749,-2.002582 -3.167366,-3.938694 z" />
  <path
     d="m 17.807479,16.794528 c 0.628907,1.872531 -0.195488,3.290518 -0.773672,4.994692 -0.492716,2.066734 0.60667,4.08818 2.360666,5.153179 -5.961798,3.668279 -2.68746,9.186217 2.36572,9.227227 2.629928,0.06253 -0.403148,-1.56955 -0.311531,-2.827779 0.372272,-2.057742 4.249432,0.131531 3.114524,1.455821 -1.275582,2.288683 1.719502,1.863962 2.34501,3.334891 1.389053,1.753671 2.510971,3.770828 3.239652,5.850377 -0.87494,1.586496 0.09667,2.822582 1.782473,2.782556 1.591397,1.286029 2.047651,3.461059 3.064165,5.166622 1.334689,1.442077 -0.795303,4.264018 2.053512,4.288259 2.305602,1.102177 2.667649,4.517871 4.096221,6.541573 -0.2767,1.255986 -0.686858,2.849684 1.195132,3.059391 0.944632,-0.542148 1.88949,-1.08425 2.832522,-1.63028 0.944245,-0.54394 1.886261,-1.090962 2.828127,-1.637901 0.759384,-1.734709 -0.825878,-2.176347 -2.051943,-2.564713 -1.038288,-2.249026 -3.815343,-4.270414 -3.617054,-6.818214 1.403413,-2.479266 -2.105455,-2.045609 -2.686986,-3.922522 -0.968804,-1.733109 -2.624309,-3.215752 -2.942344,-5.236956 0.877566,-1.439937 0.292889,-2.899418 -1.518526,-2.934946 -1.436603,-1.670829 -2.622553,-3.651019 -3.44675,-5.730809 -0.961107,-1.27717 0.904252,-3.658628 -1.715595,-3.698284 -1.714324,0.320715 -1.671709,-4.131641 0.296484,-3.425168 1.135468,0.549773 1.032353,3.992535 2.293163,1.683684 2.491075,-4.396688 -0.650432,-9.991316 -6.808153,-6.662387 -0.04532,-2.051505 -1.246248,-4.014325 -3.282451,-4.620986 -1.76495,-0.351364 -3.40516,-0.346412 -4.712366,-1.827327 z"
     style="fill:#000000;fill-opacity:1;stroke:none;stroke-width:0.407027px;stroke-linecap:butt;stroke-linejoin:miter;stroke-opacity:1"
     id="path872-3-6-8-2-11-5-5-3-2" />
  <path
     id="path872-3-6-8-2-11-5-5-3-6-9"
     style="fill:#000000;fill-opacity:1;stroke:none;stroke-width:0.407027px;stroke-linecap:butt;stroke-linejoin:miter;stroke-opacity:1"
     d="m 82.39046,16.794528 c -0.628907,1.872531 0.195488,3.290518 0.773672,4.994692 0.492716,2.066734 -0.606669,4.08818 -2.360666,5.153179 5.961802,3.668279 2.68746,9.186217 -2.365719,9.227227 -2.629929,0.06253 0.403147,-1.56955 0.31153,-2.827779 -0.372272,-2.057742 -4.249432,0.131531 -3.114524,1.455821 1.275582,2.288683 -1.719502,1.863962 -2.345009,3.334891 -1.389054,1.753671 -2.510972,3.770828 -3.239653,5.850377 0.87494,1.586496 -0.09667,2.822582 -1.782473,2.782556 -1.591397,1.286029 -2.047651,3.461059 -3.064165,5.166622 -1.334689,1.442077 0.795303,4.264018 -2.053512,4.288259 -2.305601,1.102177 -2.667649,4.517871 -4.09622,6.541573 0.2767,1.255986 0.686858,2.849684 -1.195132,3.059391 -0.944633,-0.542148 -1.889491,-1.08425 -2.832523,-1.63028 -0.944244,-0.54394 -1.886261,-1.090962 -2.828126,-1.637901 -0.759384,-1.734709 0.825878,-2.176347 2.051943,-2.564713 1.038287,-2.249026 3.815342,-4.270414 3.617054,-6.818214 -1.403413,-2.479266 2.105455,-2.045609 2.686986,-3.922522 0.968804,-1.733109 2.624308,-3.215752 2.942343,-5.236956 -0.877566,-1.439937 -0.292889,-2.899418 1.518527,-2.934946 1.436602,-1.670829 2.622553,-3.651019 3.446749,-5.730809 0.961108,-1.27717 -0.904251,-3.658628 1.715595,-3.698284 1.714325,0.320715 1.671709,-4.131641 -0.296483,-3.425168 -1.135469,0.549773 -1.032353,3.992535 -2.293164,1.683684 -2.491074,-4.396688 0.650432,-9.991316 6.808154,-6.662387 0.04532,-2.051505 1.246248,-4.014325 3.28245,-4.620986 1.76495,-0.351364 3.40516,-0.346412 4.712366,-1.827327 z" />
</svg>
