<?xml version="1.0" encoding="UTF-8" standalone="no"?>
<svg
   xmlns:dc="http://purl.org/dc/elements/1.1/"
   xmlns:cc="http://creativecommons.org/ns#"
   xmlns:rdf="http://www.w3.org/1999/02/22-rdf-syntax-ns#"
   xmlns:svg="http://www.w3.org/2000/svg"
   xmlns="http://www.w3.org/2000/svg"
   xmlns:sodipodi="http://sodipodi.sourceforge.net/DTD/sodipodi-0.dtd"
   xmlns:inkscape="http://www.inkscape.org/namespaces/inkscape"
   inkscape:version="1.0 (4035a4fb49, 2020-05-01)"
   sodipodi:docname="four.svg"
   id="svg23"
   version="1.1"
   viewBox="0 0 100 110">
  <metadata
     id="metadata29">
    <rdf:RDF>
      <cc:Work
         rdf:about="">
        <dc:format>image/svg+xml</dc:format>
        <dc:type
           rdf:resource="http://purl.org/dc/dcmitype/StillImage" />
        <dc:title></dc:title>
      </cc:Work>
    </rdf:RDF>
  </metadata>
  <defs
     id="defs27" />
  <sodipodi:namedview
     inkscape:snap-bbox-midpoints="true"
     inkscape:snap-bbox-edge-midpoints="true"
     inkscape:bbox-paths="true"
     inkscape:bbox-nodes="true"
     inkscape:snap-bbox="true"
     inkscape:document-rotation="0"
     inkscape:guide-bbox="true"
     showguides="true"
     inkscape:current-layer="svg23"
     inkscape:window-maximized="1"
     inkscape:window-y="0"
     inkscape:window-x="0"
     inkscape:cy="52.408028"
     inkscape:cx="26.730348"
     inkscape:zoom="4"
     showgrid="false"
     id="namedview25"
     inkscape:window-height="1020"
     inkscape:window-width="1920"
     inkscape:pageshadow="2"
     inkscape:pageopacity="0"
     guidetolerance="10"
     gridtolerance="10"
     objecttolerance="10"
     borderopacity="1"
     bordercolor="#666666"
     pagecolor="#ffffff" />
  <g
     style="fill:#501616"
     transform="matrix(0,1,1,0,45.343786,60.257881)"
     id="g989" />
  <path
     d="m 37.415544,1.7486193 c -0.516647,2.554255 -2.393891,3.630536 -4.178612,5.1962021 -1.926229,2.036274 -2.003573,5.0710116 -0.702106,7.4447946 -9.231208,0.258476 -9.130032,8.722708 -3.383717,12.102819 2.963502,1.806237 0.574725,-2.059175 1.509373,-3.436297 1.782687,-2.10545 4.768306,2.953352 2.5981,3.717758 -2.967075,1.77345 0.735033,3.263861 0.479412,5.357036 0.430242,2.919874 0.381469,5.964577 -0.157741,8.82117 -2.046146,1.235465 -1.751429,3.288627 0.201042,4.354912 0.969896,2.519057 0.05645,5.305037 0.09279,7.924208 0.573666,2.528012 -3.721348,4.347123 -0.482505,6.253997 1.907165,2.780118 0.0677,6.921441 0.364971,10.175896 -1.144628,1.252469 -2.6645,2.802747 -0.652617,4.283769 1.436882,0.0037 2.873991,0.0076 4.31161,0.0058 1.437618,0.0014 2.874728,-0.0022 4.311609,-0.0058 2.011885,-1.481022 0.492011,-3.0313 -0.652617,-4.283769 0.297272,-3.254455 -1.542194,-7.395778 0.364973,-10.175896 3.238841,-1.906874 -1.056172,-3.725985 -0.482506,-6.253997 0.03634,-2.619171 -0.877106,-5.405151 0.09279,-7.924208 1.952471,-1.066285 2.247189,-3.119447 0.201043,-4.354912 -0.539211,-2.856593 -0.587983,-5.901296 -0.157742,-8.82117 -0.25562,-2.093175 3.446487,-3.583586 0.479413,-5.357036 -2.170207,-0.764406 0.815413,-5.823208 2.5981,-3.717758 0.934648,1.377122 -1.45413,5.242534 1.509373,3.436297 C 51.426295,23.112324 51.52747,14.648092 42.296262,14.389616 43.597729,12.015833 43.520386,8.9810954 41.594156,6.9448214 39.809434,5.3791553 37.932192,4.3028743 37.415544,1.7486193 Z"
     style="fill:#000000;fill-opacity:1;stroke:none;stroke-width:0.536979px;stroke-linecap:butt;stroke-linejoin:miter;stroke-opacity:1"
     id="path872-3-6-8-2-11-5-5" />
  <path
     id="path872-3-6-8-2-11-5-5-9"
     style="fill:#000000;fill-opacity:1;stroke:none;stroke-width:0.536979px;stroke-linecap:butt;stroke-linejoin:miter;stroke-opacity:1"
     d="m 62.584457,1.7486203 c -0.516649,2.554256 -2.39389,3.630537 -4.178613,5.1962011 -1.926228,2.036275 -2.003572,5.0710136 -0.702105,7.4447966 -9.231208,0.258476 -9.130033,8.722708 -3.383717,12.102819 2.963502,1.806237 0.574724,-2.059175 1.509374,-3.436297 1.782686,-2.10545 4.768305,2.953351 2.5981,3.717757 -2.967076,1.773451 0.735033,3.263861 0.479412,5.357037 0.430242,2.919874 0.381469,5.964577 -0.157742,8.82117 -2.046145,1.235464 -1.751428,3.288626 0.201043,4.354911 0.969896,2.519057 0.05645,5.305036 0.09279,7.924207 0.573665,2.528012 -3.721348,4.347123 -0.482505,6.253997 1.907164,2.780118 0.0677,6.921441 0.364971,10.175896 -1.144628,1.252469 -2.664502,2.802754 -0.652618,4.283769 1.436882,0.0037 2.873991,0.0076 4.31161,0.0058 1.437618,0.0014 2.874728,-0.0022 4.31161,-0.0058 2.011883,-1.481015 0.492011,-3.0313 -0.652618,-4.283769 0.297273,-3.254455 -1.542193,-7.395778 0.364971,-10.175896 3.238843,-1.906874 -1.056171,-3.725985 -0.482505,-6.253997 0.03634,-2.619171 -0.877106,-5.40515 0.09279,-7.924207 1.952471,-1.066285 2.247188,-3.119447 0.201043,-4.354911 -0.539211,-2.856593 -0.587984,-5.901296 -0.157742,-8.82117 -0.255621,-2.093176 3.446487,-3.583586 0.479411,-5.357037 -2.170205,-0.764406 0.815414,-5.823207 2.598101,-3.717757 0.934651,1.377122 -1.454129,5.242534 1.509374,3.436297 5.746311,-3.380111 5.84749,-11.844343 -3.383718,-12.102819 C 68.766642,12.015835 68.689298,8.9810964 66.763069,6.9448214 64.978347,5.3791573 63.101105,4.3028763 62.584457,1.7486203 Z" />
  <path
     id="path872-3-6-8-2-11-5-5-3"
     style="fill:#000000;fill-opacity:1;stroke:none;stroke-width:0.536979px;stroke-linecap:butt;stroke-linejoin:miter;stroke-opacity:1"
     d="m 4.1787436,37.849878 c 0.829698,2.470374 -0.257902,4.341082 -1.020683,6.589349 -0.650026,2.72658 0.800361,5.393412 3.114356,6.798435 -7.865223,4.83945 -3.545486,12.119102 3.121024,12.173207 3.4695864,0.0825 -0.531861,-2.070661 -0.410993,-3.730607 0.491127,-2.714717 5.6061494,0.173525 4.1088994,1.920623 -1.682838,3.01939 2.268488,2.45907 3.093701,4.399623 1.832537,2.313564 3.31265,4.974741 4.273977,7.718228 -1.154282,2.093017 0.127532,3.723749 2.351564,3.670943 2.099483,1.696619 2.701405,4.566072 4.042462,6.816171 1.760815,1.902489 -1.04922,5.625392 2.709137,5.657372 3.041712,1.454071 3.51935,5.960293 5.404022,8.630103 -0.365042,1.656985 -0.906151,3.759505 1.576702,4.036165 1.246226,-0.71524 2.492749,-1.43042 3.736863,-2.15078 1.245714,-0.717605 2.488488,-1.439275 3.731063,-2.160835 1.001833,-2.28855 -1.089556,-2.87119 -2.707067,-3.38355 -1.369782,-2.967073 -5.033468,-5.633831 -4.771872,-8.995067 1.851481,-3.270822 -2.777664,-2.698712 -3.544861,-5.174867 -1.278114,-2.286439 -3.462172,-4.242446 -3.881746,-6.908961 1.157747,-1.899665 0.3864,-3.825115 -2.003347,-3.871986 -1.895267,-2.204276 -3.459856,-4.816681 -4.547194,-7.560486 -1.267961,-1.684933 1.192952,-4.82672 -2.263334,-4.879036 -2.261657,0.423109 -2.205436,-5.450752 0.391142,-4.518723 1.49799,0.725299 1.361953,5.267233 3.025303,2.221234 3.2864,-5.800419 -0.858096,-13.181246 -8.981795,-8.789489 -0.05979,-2.70649 -1.644138,-5.295979 -4.330439,-6.096329 C 8.0671816,39.79707 5.9033016,39.803604 4.1787436,37.849878 Z" />
  <path
     d="m 95.821255,37.849878 c -0.829698,2.470374 0.257902,4.341082 1.020683,6.589349 0.650026,2.72658 -0.800361,5.393412 -3.114356,6.798435 7.865228,4.83945 3.545486,12.119102 -3.121024,12.173207 -3.469586,0.0825 0.531861,-2.070661 0.410993,-3.730607 -0.491127,-2.714717 -5.606149,0.173525 -4.108899,1.920623 1.682838,3.01939 -2.268488,2.45907 -3.093701,4.399623 -1.832537,2.313564 -3.31265,4.974741 -4.273977,7.718228 1.154282,2.093017 -0.127532,3.723749 -2.351564,3.670943 -2.099483,1.696619 -2.701405,4.566072 -4.042462,6.816171 -1.760815,1.902489 1.04922,5.625392 -2.709137,5.657372 -3.041712,1.454071 -3.51935,5.960293 -5.404022,8.630103 0.365042,1.656985 0.906151,3.759505 -1.576702,4.036165 -1.246226,-0.71524 -2.492749,-1.43042 -3.736863,-2.15078 -1.245714,-0.717605 -2.488488,-1.439275 -3.731063,-2.160835 -1.001833,-2.28855 1.089556,-2.87119 2.707067,-3.38355 1.369782,-2.967073 5.033468,-5.633831 4.771872,-8.995067 -1.851481,-3.270822 2.777664,-2.698712 3.544861,-5.174867 1.278114,-2.286439 3.462172,-4.242446 3.881746,-6.908961 -1.157747,-1.899665 -0.3864,-3.825115 2.003347,-3.871986 1.895267,-2.204276 3.459856,-4.816681 4.547194,-7.560486 1.267961,-1.684933 -1.192952,-4.82672 2.263334,-4.879036 2.261657,0.423109 2.205436,-5.450752 -0.391142,-4.518723 -1.49799,0.725299 -1.361953,5.267233 -3.025303,2.221234 -3.2864,-5.800419 0.858096,-13.181246 8.981795,-8.789489 0.05979,-2.70649 1.644138,-5.295979 4.330439,-6.096329 2.328446,-0.463545 4.492326,-0.457011 6.216884,-2.410737 z"
     style="fill:#000000;fill-opacity:1;stroke:none;stroke-width:0.536979px;stroke-linecap:butt;stroke-linejoin:miter;stroke-opacity:1"
     id="path872-3-6-8-2-11-5-5-3-6" />
</svg>
