<?xml version="1.0" encoding="UTF-8"?>
<svg version="1.1" viewBox="0 0 100 110" xmlns="http://www.w3.org/2000/svg" xmlns:cc="http://creativecommons.org/ns#" xmlns:dc="http://purl.org/dc/elements/1.1/" xmlns:rdf="http://www.w3.org/1999/02/22-rdf-syntax-ns#" xmlns:xlink="http://www.w3.org/1999/xlink">
 <metadata>
  <rdf:RDF>
   <cc:Work rdf:about="">
    <dc:format>image/svg+xml</dc:format>
    <dc:type rdf:resource="http://purl.org/dc/dcmitype/StillImage"/>
    <dc:title/>
   </cc:Work>
  </rdf:RDF>
 </metadata>
 <path id="use834" d="m40 10.16c-0.3963 1.959-1.836 2.785-3.206 3.986-1.478 1.562-1.537 3.89-0.5386 5.711-7.082 0.1983-7.004 6.691-2.596 9.284 2.273 1.386 0.4409-1.58 1.158-2.636 1.368-1.615 3.658 2.266 1.993 2.852-2.276 1.36 0.5639 2.504 0.3678 4.11 0.3301 2.24 0.2926 4.576-0.121 6.767-1.57 0.9478-1.344 2.523 0.1542 3.341 0.744 1.932 0.0433 4.07 0.07118 6.079 0.4401 1.939-2.855 3.335-0.3701 4.798 1.463 2.133 0.05194 5.31 0.28 7.806-0.8781 0.9608-2.044 2.15-0.5006 3.286 1.102 0.0028 2.205 0.0058 3.308 0.0044 1.103 0.0011 2.205-0.0017 3.308-0.0044 1.543-1.136 0.3774-2.325-0.5006-3.286 0.228-2.497-1.183-5.674 0.28-7.806 2.485-1.463-0.8102-2.858-0.3701-4.798 0.02788-2.009-0.6729-4.146 0.07118-6.079 1.498-0.818 1.724-2.393 0.1542-3.341-0.4136-2.191-0.4511-4.527-0.121-6.767-0.1961-1.606 2.644-2.749 0.3678-4.11-1.665-0.5864 0.6255-4.467 1.993-2.852 0.717 1.056-1.116 4.022 1.158 2.636 4.408-2.593 4.486-9.086-2.596-9.284 0.9984-1.821 0.9391-4.149-0.5386-5.711-1.369-1.201-2.809-2.027-3.206-3.986z"/>
 <use transform="translate(20)" width="100%" height="100%" xlink:href="#use834"/>
 <use id="use844" transform="rotate(-22.5 83.28 83.04)" width="100%" height="100%" xlink:href="#use834"/>
 <use transform="matrix(-1 0 0 1 99.77 0)" width="100%" height="100%" xlink:href="#use844"/>
</svg>
