<?xml version="1.0" encoding="UTF-8"?>
<svg version="1.1" viewBox="0 0 100 110" xmlns="http://www.w3.org/2000/svg" xmlns:cc="http://creativecommons.org/ns#" xmlns:dc="http://purl.org/dc/elements/1.1/" xmlns:rdf="http://www.w3.org/1999/02/22-rdf-syntax-ns#" xmlns:xlink="http://www.w3.org/1999/xlink">
 <metadata>
  <rdf:RDF>
   <cc:Work rdf:about="">
    <dc:format>image/svg+xml</dc:format>
    <dc:type rdf:resource="http://purl.org/dc/dcmitype/StillImage"/>
    <dc:title/>
   </cc:Work>
  </rdf:RDF>
 </metadata>
 <path id="use844" d="m4.235 12.3c0.743 1.12 0.4509 2.197 0.371 3.418 0.04013 1.445 1.118 2.58 2.459 2.971-3.272 3.46-0.1485 6.51 3.179 5.647 1.739-0.422-0.5413-0.9604-0.7026-1.803-0.1177-1.418 2.815-0.6618 2.303 0.4083-0.4352 1.729 1.458 0.9221 2.128 1.778 1.222 0.9078 2.314 2.036 3.159 3.274-0.2956 1.197 0.5605 1.838 1.661 1.515 1.272 0.5649 1.955 1.914 2.923 2.856 1.131 0.7126 0.2282 2.942 2.104 2.456 1.709 0.3183 2.548 2.499 3.843 3.577 0.03932 0.874 0.05041 1.993 1.324 1.8 0.5253-0.5226 1.051-1.045 1.574-1.57 0.5247-0.5237 1.047-1.049 1.57-1.574 0.1936-1.274-0.9259-1.285-1.8-1.324-1.078-1.295-3.259-2.134-3.577-3.843 0.4857-1.876-1.744-0.9735-2.456-2.104-0.9418-0.9683-2.291-1.651-2.856-2.923 0.3231-1.101-0.318-1.957-1.515-1.661-1.238-0.845-2.366-1.937-3.274-3.159-0.8564-0.67-0.04999-2.563-1.778-2.128-1.07 0.5126-1.826-2.421-0.4083-2.303 0.8429 0.1613 1.381 2.442 1.803 0.7026 0.8628-3.328-2.187-6.451-5.647-3.179-0.391-1.34-1.526-2.418-2.971-2.459-1.222 0.07987-2.299 0.3719-3.418-0.371z"/>
 <use id="use877" transform="translate(28.97 30.55)" width="100%" height="100%" xlink:href="#use844"/>
 <use transform="translate(32.47 30.53)" width="100%" height="100%" xlink:href="#use877"/>
 <use transform="translate(20,-20)" width="100%" height="100%" xlink:href="#use877"/>
</svg>
