<?xml version="1.0" encoding="UTF-8" standalone="no"?>
<svg
   xmlns:dc="http://purl.org/dc/elements/1.1/"
   xmlns:cc="http://creativecommons.org/ns#"
   xmlns:rdf="http://www.w3.org/1999/02/22-rdf-syntax-ns#"
   xmlns:svg="http://www.w3.org/2000/svg"
   xmlns="http://www.w3.org/2000/svg"
   xmlns:sodipodi="http://sodipodi.sourceforge.net/DTD/sodipodi-0.dtd"
   xmlns:inkscape="http://www.inkscape.org/namespaces/inkscape"
   inkscape:version="1.0 (4035a4fb49, 2020-05-01)"
   sodipodi:docname="nine.svg"
   id="svg23"
   version="1.1"
   viewBox="0 0 100 110">
  <metadata
     id="metadata29">
    <rdf:RDF>
      <cc:Work
         rdf:about="">
        <dc:format>image/svg+xml</dc:format>
        <dc:type
           rdf:resource="http://purl.org/dc/dcmitype/StillImage" />
        <dc:title></dc:title>
      </cc:Work>
    </rdf:RDF>
  </metadata>
  <defs
     id="defs27" />
  <sodipodi:namedview
     inkscape:snap-bbox-midpoints="true"
     inkscape:snap-bbox-edge-midpoints="true"
     inkscape:bbox-paths="true"
     inkscape:bbox-nodes="true"
     inkscape:snap-bbox="true"
     inkscape:document-rotation="0"
     inkscape:guide-bbox="true"
     showguides="true"
     inkscape:current-layer="svg23"
     inkscape:window-maximized="1"
     inkscape:window-y="0"
     inkscape:window-x="0"
     inkscape:cy="46.197325"
     inkscape:cx="13.696884"
     inkscape:zoom="4"
     showgrid="false"
     id="namedview25"
     inkscape:window-height="1020"
     inkscape:window-width="1920"
     inkscape:pageshadow="2"
     inkscape:pageopacity="0"
     guidetolerance="10"
     gridtolerance="10"
     objecttolerance="10"
     borderopacity="1"
     bordercolor="#666666"
     pagecolor="#ffffff" />
  <g
     style="fill:#501616"
     transform="matrix(0,1,1,0,45.343786,60.257881)"
     id="g989" />
  <path
     id="path872-3-6-8-2-11-5-5-1-4-5-0-3"
     style="fill:#000000;fill-opacity:1;stroke:none;stroke-width:0.27421px;stroke-linecap:butt;stroke-linejoin:miter;stroke-opacity:1"
     d="m 50.032295,47.214159 c -0.263829,1.30434 -1.22245,1.853948 -2.133825,2.65346 -0.983637,1.039832 -1.023133,2.589534 -0.358533,3.801715 -4.713954,0.131992 -4.662287,4.454286 -1.727909,6.180353 1.513324,0.922362 0.293487,-1.051525 0.770768,-1.754759 0.910337,-1.075156 2.434954,1.508141 1.32673,1.898489 -1.515149,0.905619 0.375348,1.666703 0.244814,2.735592 0.219704,1.491044 0.194799,3.045834 -0.08055,4.504565 -1.044873,0.630895 -0.894374,1.67935 0.102667,2.223852 0.495282,1.286368 0.02883,2.70904 0.04738,4.046529 0.292946,1.29094 -1.900321,2.219876 -0.246393,3.19363 0.973902,1.419678 0.03457,3.53446 0.186374,5.196361 -0.584509,0.639574 -1.360637,1.431234 -0.33326,2.187524 0.733747,0.002 1.467614,0.004 2.201739,0.003 0.734126,7.4e-4 1.467992,-10e-4 2.201741,-0.003 1.027378,-0.75629 0.251247,-1.54795 -0.333261,-2.187524 0.151803,-1.661901 -0.787527,-3.776683 0.186374,-5.196361 1.653927,-0.973754 -0.539338,-1.90269 -0.246394,-3.19363 0.01857,-1.337489 -0.447896,-2.760161 0.0474,-4.046529 0.997038,-0.544502 1.147535,-1.592957 0.102667,-2.223852 -0.27535,-1.458731 -0.300256,-3.013521 -0.08055,-4.504565 -0.13054,-1.068889 1.759955,-1.829973 0.244806,-2.735592 -1.108224,-0.390348 0.416394,-2.973645 1.326731,-1.898489 0.477281,0.703234 -0.742557,2.677121 0.770767,1.754759 2.93437,-1.726067 2.986035,-6.048361 -1.727917,-6.180353 0.664599,-1.212181 0.625104,-2.761883 -0.358533,-3.801715 -0.911376,-0.799512 -1.869998,-1.34912 -2.133826,-2.65346 z" />
  <path
     inkscape:transform-center-y="-16.560242"
     inkscape:transform-center-x="-10.72435"
     d="m 11.299334,51.214159 c 0.880653,0.997677 1.985647,0.994341 3.174677,1.231051 1.37177,0.408703 2.180826,1.731036 2.211356,3.113116 4.1484,-2.242669 6.264802,1.526381 4.586589,4.488388 -0.849396,1.555451 -0.779929,-0.763904 -1.544884,-1.134282 -1.325953,-0.475944 -1.354661,2.523565 -0.199737,2.307505 1.764967,0.02671 0.508291,1.631081 1.155781,2.491499 0.555253,1.401134 1.354216,2.735169 2.322041,3.860793 1.220334,0.02393 1.614225,1.007172 1.023013,1.977245 0.214258,1.361669 1.329553,2.360513 1.982233,3.528087 0.391771,1.26446 2.755664,0.972309 1.810197,2.642569 -0.133585,1.716428 1.737292,3.078217 2.436776,4.593367 0.825988,0.261637 1.893963,0.559167 1.382374,1.727822 -0.634544,0.368433 -1.269041,0.737185 -1.905262,1.103468 -0.635401,0.367704 -1.271868,0.733043 -1.908263,1.098272 -1.267881,-0.141278 -0.99156,-1.214937 -0.80515,-2.061082 -0.962416,-1.363347 -1.206323,-3.664467 -2.759585,-4.406994 -1.91922,-0.01633 -0.484265,-1.917447 -1.383432,-2.888962 -0.684827,-1.149014 -0.992191,-2.614317 -2.064314,-3.480697 -1.135711,0.02697 -1.790273,-0.805773 -1.200838,-1.874578 -0.490906,-1.400973 -1.246732,-2.759914 -2.182524,-3.941343 -0.421394,-0.990955 -2.439153,-0.704826 -1.579805,-2.246689 0.764576,-0.892164 -1.84743,-2.367055 -2.098227,-0.980774 -0.06172,0.847659 1.981634,1.947176 0.209876,1.905049 -3.404273,-0.02763 -5.6101627,-3.745017 -1.593757,-6.216301 -1.18165,-0.71748 -1.922297,-2.079309 -1.590359,-3.471649 0.389519,-1.148085 0.944906,-2.103371 0.521218,-3.364876 z"
     style="fill:#000000;fill-opacity:1;stroke:none;stroke-width:0.27421px;stroke-linecap:butt;stroke-linejoin:miter;stroke-opacity:1"
     id="path872-3-6-8-2-11-5-5-1-4-5-0-3-6" />
  <path
     id="path872-3-6-8-2-11-5-5-1-4-5-0-3-6-2"
     style="fill:#000000;fill-opacity:1;stroke:none;stroke-width:0.27421px;stroke-linecap:butt;stroke-linejoin:miter;stroke-opacity:1"
     d="m 11.299334,31.214159 c 0.880653,0.997677 1.985647,0.994341 3.174677,1.231051 1.37177,0.408703 2.180826,1.731036 2.211356,3.113116 4.1484,-2.242669 6.264802,1.526381 4.586589,4.488388 -0.849396,1.555451 -0.779929,-0.763904 -1.544884,-1.134282 -1.325953,-0.475944 -1.354661,2.523565 -0.199737,2.307505 1.764967,0.02671 0.508291,1.631081 1.155781,2.491499 0.555253,1.401134 1.354216,2.735169 2.322041,3.860793 1.220334,0.02393 1.614225,1.007172 1.023013,1.977245 0.214258,1.361669 1.329553,2.360513 1.982233,3.528087 0.391771,1.26446 2.755664,0.972309 1.810197,2.642569 -0.133585,1.716428 1.737292,3.078217 2.436776,4.593367 0.825988,0.261637 1.893963,0.559167 1.382374,1.727822 -0.634544,0.368433 -1.269041,0.737185 -1.905262,1.103468 -0.635401,0.367704 -1.271868,0.733043 -1.908263,1.098272 -1.267881,-0.141278 -0.99156,-1.214937 -0.80515,-2.061082 -0.962416,-1.363347 -1.206323,-3.664467 -2.759585,-4.406994 -1.91922,-0.01633 -0.484265,-1.917447 -1.383432,-2.888962 -0.684827,-1.149014 -0.992191,-2.614317 -2.064314,-3.480697 -1.135711,0.02697 -1.790273,-0.805773 -1.200838,-1.874578 -0.490906,-1.400973 -1.246732,-2.759914 -2.182524,-3.941343 -0.421394,-0.990955 -2.439153,-0.704826 -1.579805,-2.246689 0.764576,-0.892164 -1.84743,-2.367055 -2.098227,-0.980774 -0.06172,0.847659 1.981634,1.947176 0.209876,1.905049 -3.404273,-0.02763 -5.6101627,-3.745017 -1.593757,-6.216301 -1.18165,-0.71748 -1.922297,-2.079309 -1.590359,-3.471649 0.389519,-1.148085 0.944906,-2.103371 0.521218,-3.364876 z"
     inkscape:transform-center-x="-10.72435"
     inkscape:transform-center-y="-16.560242" />
  <path
     inkscape:transform-center-y="-16.560242"
     inkscape:transform-center-x="-10.72435"
     d="m 11.299334,11.214159 c 0.880653,0.997677 1.985647,0.994341 3.174677,1.231051 1.37177,0.408703 2.180826,1.731036 2.211356,3.113116 4.1484,-2.242669 6.264802,1.526381 4.586589,4.488388 -0.849396,1.555451 -0.779929,-0.763904 -1.544884,-1.134282 -1.325953,-0.475944 -1.354661,2.523565 -0.199737,2.307505 1.764967,0.02671 0.508291,1.631081 1.155781,2.491499 0.555253,1.401134 1.354216,2.735169 2.322041,3.860793 1.220334,0.02393 1.614225,1.007172 1.023013,1.977245 0.214258,1.361669 1.329553,2.360513 1.982233,3.528087 0.391771,1.26446 2.755664,0.972309 1.810197,2.642569 -0.133585,1.716428 1.737292,3.078217 2.436776,4.593367 0.825988,0.261637 1.893963,0.559167 1.382374,1.727822 -0.634544,0.368433 -1.269041,0.737185 -1.905262,1.103468 -0.635401,0.367704 -1.271868,0.733043 -1.908263,1.098272 -1.267881,-0.141278 -0.99156,-1.214937 -0.80515,-2.061082 -0.962416,-1.363347 -1.206323,-3.664467 -2.759585,-4.406994 -1.91922,-0.01633 -0.484265,-1.917447 -1.383432,-2.888962 -0.684827,-1.149014 -0.992191,-2.614317 -2.064314,-3.480697 -1.135711,0.02697 -1.790273,-0.805773 -1.200838,-1.874578 -0.490906,-1.400973 -1.246732,-2.759914 -2.182524,-3.941343 -0.421394,-0.990955 -2.439153,-0.704826 -1.579805,-2.246689 0.764576,-0.892164 -1.84743,-2.367055 -2.098227,-0.980774 -0.06172,0.847659 1.981634,1.947176 0.209876,1.905049 -3.404273,-0.02763 -5.6101627,-3.745017 -1.593757,-6.216301 -1.18165,-0.71748 -1.922297,-2.079309 -1.590359,-3.471649 0.389519,-1.148085 0.944906,-2.103371 0.521218,-3.364876 z"
     style="fill:#000000;fill-opacity:1;stroke:none;stroke-width:0.27421px;stroke-linecap:butt;stroke-linejoin:miter;stroke-opacity:1"
     id="path872-3-6-8-2-11-5-5-1-4-5-0-3-6-2-6" />
  <path
     id="path872-3-6-8-2-11-5-5-1-4-5-0-3-6-7"
     style="fill:#000000;fill-opacity:1;stroke:none;stroke-width:0.27421px;stroke-linecap:butt;stroke-linejoin:miter;stroke-opacity:1"
     d="m 88.765272,51.214159 c -0.880653,0.997677 -1.985647,0.994341 -3.174677,1.231051 -1.37177,0.408703 -2.180826,1.731036 -2.211356,3.113116 -4.1484,-2.242669 -6.264802,1.526381 -4.586589,4.488388 0.849396,1.555451 0.779929,-0.763904 1.544884,-1.134282 1.325953,-0.475944 1.354661,2.523565 0.199737,2.307505 -1.764967,0.02671 -0.508291,1.631081 -1.155781,2.491499 -0.555253,1.401134 -1.354216,2.735169 -2.322041,3.860793 -1.220334,0.02393 -1.614225,1.007172 -1.023013,1.977245 -0.214258,1.361669 -1.329553,2.360513 -1.982233,3.528087 -0.391771,1.26446 -2.755664,0.972309 -1.810197,2.642569 0.133585,1.716428 -1.737292,3.078217 -2.436776,4.593367 -0.825988,0.261637 -1.893963,0.559167 -1.382374,1.727822 0.634544,0.368433 1.269041,0.737185 1.905262,1.103468 0.635401,0.367704 1.271868,0.733043 1.908263,1.098272 1.267881,-0.141278 0.99156,-1.214937 0.80515,-2.061082 0.962416,-1.363347 1.206323,-3.664467 2.759585,-4.406994 1.91922,-0.01633 0.484265,-1.917447 1.383432,-2.888962 0.684827,-1.149014 0.992191,-2.614317 2.064314,-3.480697 1.135711,0.02697 1.790273,-0.805773 1.200838,-1.874578 0.490906,-1.400973 1.246732,-2.759914 2.182524,-3.941343 0.421394,-0.990955 2.439153,-0.704826 1.579805,-2.246689 -0.764576,-0.892164 1.84743,-2.367055 2.098227,-0.980774 0.06172,0.847659 -1.981634,1.947176 -0.209876,1.905049 3.404273,-0.02763 5.610162,-3.745017 1.593757,-6.216301 1.18165,-0.71748 1.922297,-2.079309 1.590359,-3.471649 -0.389519,-1.148085 -0.944906,-2.103371 -0.521218,-3.364876 z"
     inkscape:transform-center-x="10.72435"
     inkscape:transform-center-y="-16.560242" />
  <path
     inkscape:transform-center-y="-16.560242"
     inkscape:transform-center-x="10.72435"
     d="m 88.765272,31.214159 c -0.880653,0.997677 -1.985647,0.994341 -3.174677,1.231051 -1.37177,0.408703 -2.180826,1.731036 -2.211356,3.113116 -4.1484,-2.242669 -6.264802,1.526381 -4.586589,4.488388 0.849396,1.555451 0.779929,-0.763904 1.544884,-1.134282 1.325953,-0.475944 1.354661,2.523565 0.199737,2.307505 -1.764967,0.02671 -0.508291,1.631081 -1.155781,2.491499 -0.555253,1.401134 -1.354216,2.735169 -2.322041,3.860793 -1.220334,0.02393 -1.614225,1.007172 -1.023013,1.977245 -0.214258,1.361669 -1.329553,2.360513 -1.982233,3.528087 -0.391771,1.26446 -2.755664,0.972309 -1.810197,2.642569 0.133585,1.716428 -1.737292,3.078217 -2.436776,4.593367 -0.825988,0.261637 -1.893963,0.559167 -1.382374,1.727822 0.634544,0.368433 1.269041,0.737185 1.905262,1.103468 0.635401,0.367704 1.271868,0.733043 1.908263,1.098272 1.267881,-0.141278 0.99156,-1.214937 0.80515,-2.061082 0.962416,-1.363347 1.206323,-3.664467 2.759585,-4.406994 1.91922,-0.01633 0.484265,-1.917447 1.383432,-2.888962 0.684827,-1.149014 0.992191,-2.614317 2.064314,-3.480697 1.135711,0.02697 1.790273,-0.805773 1.200838,-1.874578 0.490906,-1.400973 1.246732,-2.759914 2.182524,-3.941343 0.421394,-0.990955 2.439153,-0.704826 1.579805,-2.246689 -0.764576,-0.892164 1.84743,-2.367055 2.098227,-0.980774 0.06172,0.847659 -1.981634,1.947176 -0.209876,1.905049 3.404273,-0.02763 5.610162,-3.745017 1.593757,-6.216301 1.18165,-0.71748 1.922297,-2.079309 1.590359,-3.471649 -0.389519,-1.148085 -0.944906,-2.103371 -0.521218,-3.364876 z"
     style="fill:#000000;fill-opacity:1;stroke:none;stroke-width:0.27421px;stroke-linecap:butt;stroke-linejoin:miter;stroke-opacity:1"
     id="path872-3-6-8-2-11-5-5-1-4-5-0-3-6-2-65" />
  <path
     id="path872-3-6-8-2-11-5-5-1-4-5-0-3-6-2-6-6"
     style="fill:#000000;fill-opacity:1;stroke:none;stroke-width:0.27421px;stroke-linecap:butt;stroke-linejoin:miter;stroke-opacity:1"
     d="m 88.765272,11.214159 c -0.880653,0.997677 -1.985647,0.994341 -3.174677,1.231051 -1.37177,0.408703 -2.180826,1.731036 -2.211356,3.113116 -4.1484,-2.242669 -6.264802,1.526381 -4.586589,4.488388 0.849396,1.555451 0.779929,-0.763904 1.544884,-1.134282 1.325953,-0.475944 1.354661,2.523565 0.199737,2.307505 -1.764967,0.02671 -0.508291,1.631081 -1.155781,2.491499 -0.555253,1.401134 -1.354216,2.735169 -2.322041,3.860793 -1.220334,0.02393 -1.614225,1.007172 -1.023013,1.977245 -0.214258,1.361669 -1.329553,2.360513 -1.982233,3.528087 -0.391771,1.26446 -2.755664,0.972309 -1.810197,2.642569 0.133585,1.716428 -1.737292,3.078217 -2.436776,4.593367 -0.825988,0.261637 -1.893963,0.559167 -1.382374,1.727822 0.634544,0.368433 1.269041,0.737185 1.905262,1.103468 0.635401,0.367704 1.271868,0.733043 1.908263,1.098272 1.267881,-0.141278 0.99156,-1.214937 0.80515,-2.061082 0.962416,-1.363347 1.206323,-3.664467 2.759585,-4.406994 1.91922,-0.01633 0.484265,-1.917447 1.383432,-2.888962 0.684827,-1.149014 0.992191,-2.614317 2.064314,-3.480697 1.135711,0.02697 1.790273,-0.805773 1.200838,-1.874578 0.490906,-1.400973 1.246732,-2.759914 2.182524,-3.941343 0.421394,-0.990955 2.439153,-0.704826 1.579805,-2.246689 -0.764576,-0.892164 1.84743,-2.367055 2.098227,-0.980774 0.06172,0.847659 -1.981634,1.947176 -0.209876,1.905049 3.404273,-0.02763 5.610162,-3.745017 1.593757,-6.216301 1.18165,-0.71748 1.922297,-2.079309 1.590359,-3.471649 -0.389519,-1.148085 -0.944906,-2.103371 -0.521218,-3.364876 z"
     inkscape:transform-center-x="10.72435"
     inkscape:transform-center-y="-16.560242" />
  <path
     id="path872-3-6-8-2-11-5-5-1-4-5-0-3-6-2-6-9"
     style="fill:#000000;fill-opacity:1;stroke:none;stroke-width:0.27421px;stroke-linecap:butt;stroke-linejoin:miter;stroke-opacity:1"
     d="m 27.299334,11.214159 c 0.880653,0.997677 1.985647,0.994341 3.174677,1.231051 1.37177,0.408703 2.180826,1.731036 2.211356,3.113116 4.1484,-2.242669 6.264802,1.526381 4.586589,4.488388 -0.849396,1.555451 -0.779929,-0.763904 -1.544884,-1.134282 -1.325953,-0.475944 -1.354661,2.523565 -0.199737,2.307505 1.764967,0.02671 0.508291,1.631081 1.155781,2.491499 0.555253,1.401134 1.354216,2.735169 2.322041,3.860793 1.220334,0.02393 1.614225,1.007172 1.023013,1.977245 0.214258,1.361669 1.329553,2.360513 1.982233,3.528087 0.391771,1.26446 2.755664,0.972309 1.810197,2.642569 -0.133585,1.716428 1.737292,3.078217 2.436776,4.593367 0.825988,0.261637 1.893963,0.559167 1.382374,1.727822 -0.634544,0.368433 -1.269041,0.737185 -1.905262,1.103468 -0.635401,0.367704 -1.271868,0.733043 -1.908263,1.098272 -1.267881,-0.141278 -0.99156,-1.214937 -0.80515,-2.061082 -0.962416,-1.363347 -1.206323,-3.664467 -2.759585,-4.406994 -1.91922,-0.01633 -0.484265,-1.917447 -1.383432,-2.888962 -0.684827,-1.149014 -0.992191,-2.614317 -2.064314,-3.480697 -1.135711,0.02697 -1.790273,-0.805773 -1.200838,-1.874578 -0.490906,-1.400973 -1.246732,-2.759914 -2.182524,-3.941343 -0.421394,-0.990955 -2.439153,-0.704826 -1.579805,-2.246689 0.764576,-0.892164 -1.84743,-2.367055 -2.098227,-0.980774 -0.06172,0.847659 1.981634,1.947176 0.209876,1.905049 -3.404273,-0.02763 -5.610162,-3.745017 -1.593757,-6.216301 -1.18165,-0.71748 -1.922297,-2.079309 -1.590359,-3.471649 0.389519,-1.148085 0.944906,-2.103371 0.521218,-3.364876 z"
     inkscape:transform-center-x="-10.72435"
     inkscape:transform-center-y="-16.560242" />
  <path
     inkscape:transform-center-y="-16.560242"
     inkscape:transform-center-x="10.72435"
     d="m 72.765272,11.214159 c -0.880653,0.997677 -1.985647,0.994341 -3.174677,1.231051 -1.37177,0.408703 -2.180826,1.731036 -2.211356,3.113116 -4.1484,-2.242669 -6.264802,1.526381 -4.586589,4.488388 0.849396,1.555451 0.779929,-0.763904 1.544884,-1.134282 1.325953,-0.475944 1.354661,2.523565 0.199737,2.307505 -1.764967,0.02671 -0.508291,1.631081 -1.155781,2.491499 -0.555253,1.401134 -1.354216,2.735169 -2.322041,3.860793 -1.220334,0.02393 -1.614225,1.007172 -1.023013,1.977245 -0.214258,1.361669 -1.329553,2.360513 -1.982233,3.528087 -0.391771,1.26446 -2.755664,0.972309 -1.810197,2.642569 0.133585,1.716428 -1.737292,3.078217 -2.436776,4.593367 -0.825988,0.261637 -1.893963,0.559167 -1.382374,1.727822 0.634544,0.368433 1.269041,0.737185 1.905262,1.103468 0.635401,0.367704 1.271868,0.733043 1.908263,1.098272 1.267881,-0.141278 0.99156,-1.214937 0.80515,-2.061082 0.962416,-1.363347 1.206323,-3.664467 2.759585,-4.406994 1.91922,-0.01633 0.484265,-1.917447 1.383432,-2.888962 0.684827,-1.149014 0.992191,-2.614317 2.064314,-3.480697 1.135711,0.02697 1.790273,-0.805773 1.200838,-1.874578 0.490906,-1.400973 1.246732,-2.759914 2.182524,-3.941343 0.421394,-0.990955 2.439153,-0.704826 1.579805,-2.246689 -0.764576,-0.892164 1.84743,-2.367055 2.098227,-0.980774 0.06172,0.847659 -1.981634,1.947176 -0.209876,1.905049 3.404273,-0.02763 5.610162,-3.745017 1.593757,-6.216301 1.18165,-0.71748 1.922297,-2.079309 1.590359,-3.471649 -0.389519,-1.148085 -0.944906,-2.103371 -0.521218,-3.364876 z"
     style="fill:#000000;fill-opacity:1;stroke:none;stroke-width:0.27421px;stroke-linecap:butt;stroke-linejoin:miter;stroke-opacity:1"
     id="path872-3-6-8-2-11-5-5-1-4-5-0-3-6-2-6-6-3" />
</svg>
