<?xml version="1.0" encoding="UTF-8" standalone="no"?>
<svg
   xmlns:dc="http://purl.org/dc/elements/1.1/"
   xmlns:cc="http://creativecommons.org/ns#"
   xmlns:rdf="http://www.w3.org/1999/02/22-rdf-syntax-ns#"
   xmlns:svg="http://www.w3.org/2000/svg"
   xmlns="http://www.w3.org/2000/svg"
   xmlns:sodipodi="http://sodipodi.sourceforge.net/DTD/sodipodi-0.dtd"
   xmlns:inkscape="http://www.inkscape.org/namespaces/inkscape"
   inkscape:version="1.0 (4035a4fb49, 2020-05-01)"
   sodipodi:docname="seven.svg"
   id="svg23"
   version="1.1"
   viewBox="0 0 100 110">
  <metadata
     id="metadata29">
    <rdf:RDF>
      <cc:Work
         rdf:about="">
        <dc:format>image/svg+xml</dc:format>
        <dc:type
           rdf:resource="http://purl.org/dc/dcmitype/StillImage" />
        <dc:title></dc:title>
      </cc:Work>
    </rdf:RDF>
  </metadata>
  <defs
     id="defs27" />
  <sodipodi:namedview
     inkscape:snap-bbox-midpoints="true"
     inkscape:snap-bbox-edge-midpoints="true"
     inkscape:bbox-paths="true"
     inkscape:bbox-nodes="true"
     inkscape:snap-bbox="true"
     inkscape:document-rotation="0"
     inkscape:guide-bbox="true"
     showguides="true"
     inkscape:current-layer="svg23"
     inkscape:window-maximized="1"
     inkscape:window-y="0"
     inkscape:window-x="0"
     inkscape:cy="46.197325"
     inkscape:cx="13.696884"
     inkscape:zoom="4"
     showgrid="false"
     id="namedview25"
     inkscape:window-height="1020"
     inkscape:window-width="1920"
     inkscape:pageshadow="2"
     inkscape:pageopacity="0"
     guidetolerance="10"
     gridtolerance="10"
     objecttolerance="10"
     borderopacity="1"
     bordercolor="#666666"
     pagecolor="#ffffff" />
  <g
     style="fill:#501616"
     transform="matrix(0,1,1,0,45.343786,60.257881)"
     id="g989" />
  <path
     d="m 22.954969,46.153476 c 0.42369,1.261506 -0.131698,2.216791 -0.521215,3.364876 -0.331937,1.39234 0.408707,2.754168 1.590359,3.471649 -4.016408,2.471285 -1.810518,6.188668 1.593763,6.216297 1.771757,0.04213 -0.271597,-1.057391 -0.209875,-1.905049 0.250796,-1.386281 2.862802,0.08861 2.098225,0.980774 -0.859348,1.541863 1.158413,1.255734 1.579811,2.246685 0.935793,1.181431 1.691618,2.540372 2.182523,3.941344 -0.589437,1.068808 0.06512,1.901547 1.200836,1.874582 1.07211,0.866385 1.379484,2.331682 2.064299,3.480705 0.899168,0.971513 -0.535787,2.872627 1.383432,2.88896 1.553263,0.742526 1.797171,3.043646 2.759586,4.406995 -0.18641,0.846146 -0.462729,1.919807 0.805149,2.061085 0.63639,-0.365241 1.272931,-0.73045 1.908244,-1.098304 0.636128,-0.366449 1.270757,-0.734972 1.905282,-1.10344 0.51159,-1.168657 -0.556386,-1.466185 -1.382374,-1.727824 -0.699485,-1.515147 -2.570361,-2.876937 -2.436776,-4.593366 0.945466,-1.670258 -1.418425,-1.378107 -1.810197,-2.642567 -0.652674,-1.16758 -1.767973,-2.166421 -1.982231,-3.528088 0.59121,-0.970072 0.197318,-1.95331 -1.023015,-1.977245 -0.967826,-1.125623 -1.76679,-2.459658 -2.322044,-3.860792 -0.647489,-0.860418 0.609187,-2.464784 -1.15578,-2.491501 -1.154924,0.216064 -1.126215,-2.783448 0.199739,-2.307503 0.764953,0.370376 0.695486,2.689733 1.544882,1.134283 1.678213,-2.962009 -0.438189,-6.731057 -4.586589,-4.488388 -0.03053,-1.38208 -0.839586,-2.704414 -2.211357,-3.113115 -1.18903,-0.236712 -2.294024,-0.233375 -3.174677,-1.231053 z"
     style="fill:#000000;fill-opacity:1;stroke:none;stroke-width:0.27421px;stroke-linecap:butt;stroke-linejoin:miter;stroke-opacity:1"
     id="path872-3-6-8-2-11-5-5-3" />
  <path
     id="path872-3-6-8-2-11-5-5-3-6"
     style="fill:#000000;fill-opacity:1;stroke:none;stroke-width:0.27421px;stroke-linecap:butt;stroke-linejoin:miter;stroke-opacity:1"
     d="m 77.242969,46.153476 c -0.423688,1.261506 0.1317,2.216791 0.521217,3.364876 0.331938,1.39234 -0.408708,2.754168 -1.590359,3.471649 4.016411,2.471285 1.810516,6.188668 -1.593763,6.216297 -1.771759,0.04213 0.271597,-1.057391 0.209875,-1.905049 -0.250796,-1.386281 -2.862802,0.08861 -2.098225,0.980774 0.859348,1.541863 -1.158412,1.255734 -1.579811,2.246685 -0.935793,1.181431 -1.691618,2.540372 -2.182524,3.941344 0.589439,1.068808 -0.06512,1.901547 -1.200835,1.874582 -1.07211,0.866385 -1.379484,2.331682 -2.0643,3.480705 -0.899167,0.971513 0.535789,2.872627 -1.383431,2.88896 -1.553262,0.742526 -1.797171,3.043646 -2.759585,4.406995 0.18641,0.846146 0.462728,1.919807 -0.80515,2.061085 -0.63639,-0.365241 -1.272933,-0.73045 -1.908244,-1.098304 -0.636128,-0.366449 -1.270756,-0.734972 -1.905282,-1.10344 -0.51159,-1.168657 0.556386,-1.466185 1.382374,-1.727824 0.699484,-1.515147 2.570361,-2.876937 2.436777,-4.593366 -0.945467,-1.670258 1.418424,-1.378107 1.810197,-2.642567 0.652674,-1.16758 1.767971,-2.166421 1.982228,-3.528088 -0.591208,-0.970072 -0.197316,-1.95331 1.023017,-1.977245 0.967826,-1.125623 1.76679,-2.459658 2.322043,-3.860792 0.64749,-0.860418 -0.609185,-2.464784 1.155781,-2.491501 1.154924,0.216064 1.126214,-2.783448 -0.199738,-2.307503 -0.764955,0.370376 -0.695487,2.689733 -1.544883,1.134283 -1.678213,-2.962009 0.43819,-6.731057 4.586589,-4.488388 0.03053,-1.38208 0.839586,-2.704414 2.211357,-3.113115 1.189029,-0.236712 2.294024,-0.233375 3.174675,-1.231053 z" />
  <path
     d="M 50.032295,1.2141589 C 49.768466,2.518499 48.809845,3.0681071 47.89847,3.8676197 46.914833,4.9074515 46.875337,6.457153 47.539937,7.6693345 42.825983,7.8013262 42.87765,12.12362 45.812028,13.849687 c 1.513324,0.922362 0.293487,-1.051525 0.770768,-1.754759 0.910337,-1.075156 2.434954,1.508141 1.32673,1.898489 -1.515149,0.905619 0.375348,1.666703 0.244814,2.735592 0.219704,1.491044 0.194799,3.045834 -0.08055,4.504565 -1.044873,0.630895 -0.894374,1.67935 0.102667,2.223852 0.495282,1.286368 0.02883,2.70904 0.04738,4.046529 0.292946,1.29094 -1.900321,2.219876 -0.246393,3.19363 0.973902,1.419678 0.03457,3.53446 0.186374,5.196361 -0.584509,0.639578 -1.360637,1.431234 -0.33326,2.187525 0.733747,0.0018 1.467614,0.0039 2.201739,0.003 0.734126,7.4e-4 1.467992,-0.0011 2.201741,-0.003 1.027378,-0.756291 0.251247,-1.547947 -0.333261,-2.187525 0.151803,-1.661901 -0.787527,-3.776683 0.186374,-5.196361 1.653927,-0.973754 -0.539338,-1.90269 -0.246394,-3.19363 0.01857,-1.337489 -0.447896,-2.760161 0.0474,-4.046529 0.997038,-0.544502 1.147535,-1.592957 0.102667,-2.223852 -0.27535,-1.458731 -0.300256,-3.013521 -0.08055,-4.504565 -0.13054,-1.068889 1.759955,-1.829973 0.244806,-2.735592 -1.108224,-0.390348 0.416394,-2.973645 1.326731,-1.898489 0.477281,0.703234 -0.742557,2.677121 0.770767,1.754759 C 57.186948,12.12362 57.238613,7.8013262 52.524661,7.6693345 53.18926,6.457153 53.149765,4.9074515 52.166128,3.8676197 51.254752,3.0681071 50.29613,2.518499 50.032302,1.2141589 Z"
     style="fill:#000000;fill-opacity:1;stroke:none;stroke-width:0.27421px;stroke-linecap:butt;stroke-linejoin:miter;stroke-opacity:1"
     id="path872-3-6-8-2-11-5-5-1" />
  <path
     id="path872-3-6-8-2-11-5-5-3-2"
     style="fill:#000000;fill-opacity:1;stroke:none;stroke-width:0.27421px;stroke-linecap:butt;stroke-linejoin:miter;stroke-opacity:1"
     d="m 28.344494,25.993913 c 0.42369,1.261507 -0.131697,2.216792 -0.521215,3.364877 -0.331938,1.39234 0.408708,2.754169 1.590359,3.471648 -4.016408,2.471286 -1.810518,6.188669 1.593763,6.216297 1.771759,0.04212 -0.271597,-1.057391 -0.209875,-1.905048 0.250796,-1.386282 2.862802,0.08861 2.098225,0.980772 -0.859348,1.541866 1.158412,1.255735 1.579812,2.246687 0.935792,1.181431 1.691617,2.540371 2.182524,3.941343 -0.589439,1.068808 0.06512,1.901547 1.200834,1.874582 1.07211,0.866386 1.379483,2.331684 2.064299,3.480705 0.899168,0.971514 -0.535787,2.872629 1.383432,2.888961 1.553262,0.742526 1.797171,3.043647 2.759586,4.406996 -0.18641,0.846146 -0.462729,1.919806 0.805149,2.061083 0.63639,-0.36524 1.272933,-0.73045 1.908244,-1.098305 0.63613,-0.366447 1.270756,-0.73497 1.905282,-1.103438 0.51159,-1.168657 -0.556386,-1.466185 -1.382374,-1.727823 -0.699485,-1.515148 -2.570361,-2.876939 -2.436775,-4.593368 0.945465,-1.670258 -1.418426,-1.378108 -1.810198,-2.642566 -0.652674,-1.167579 -1.767973,-2.166423 -1.982229,-3.528088 0.591208,-0.970072 0.197316,-1.953311 -1.023017,-1.977246 -0.967826,-1.125622 -1.76679,-2.459657 -2.322044,-3.860793 -0.647489,-0.860417 0.609187,-2.464783 -1.155779,-2.491499 -1.154925,0.216064 -1.126216,-2.783448 0.199737,-2.307503 0.764954,0.370376 0.695487,2.689734 1.544883,1.134282 1.678215,-2.962008 -0.438189,-6.731056 -4.586589,-4.488388 -0.03053,-1.382079 -0.839585,-2.704413 -2.211357,-3.113114 -1.189029,-0.236711 -2.294024,-0.233376 -3.174677,-1.231054 z" />
  <path
     d="m 71.853444,25.993913 c -0.423688,1.261507 0.131699,2.216792 0.521216,3.364877 0.331939,1.39234 -0.408707,2.754169 -1.590358,3.471648 4.01641,2.471286 1.810516,6.188669 -1.593763,6.216297 -1.771759,0.04212 0.271597,-1.057391 0.209875,-1.905048 -0.250796,-1.386282 -2.862802,0.08861 -2.098226,0.980772 0.859348,1.541866 -1.158411,1.255735 -1.57981,2.246687 -0.935793,1.181431 -1.691618,2.540371 -2.182525,3.941343 0.58944,1.068808 -0.06512,1.901547 -1.200834,1.874582 -1.07211,0.866386 -1.379484,2.331684 -2.0643,3.480705 -0.899168,0.971514 0.535788,2.872629 -1.383431,2.888961 -1.553263,0.742526 -1.797171,3.043647 -2.759587,4.406996 0.186412,0.846146 0.462731,1.919806 -0.805148,2.061083 -0.63639,-0.36524 -1.272933,-0.73045 -1.908244,-1.098305 -0.636129,-0.366447 -1.270757,-0.73497 -1.905282,-1.103438 -0.511591,-1.168657 0.556386,-1.466185 1.382374,-1.727823 0.699485,-1.515148 2.570361,-2.876939 2.436777,-4.593368 -0.945467,-1.670258 1.418424,-1.378108 1.810197,-2.642566 0.652674,-1.167579 1.767971,-2.166423 1.982228,-3.528088 -0.591208,-0.970072 -0.197316,-1.953311 1.023017,-1.977246 0.967826,-1.125622 1.76679,-2.459657 2.322043,-3.860793 0.64749,-0.860417 -0.609185,-2.464783 1.155781,-2.491499 1.154924,0.216064 1.126214,-2.783448 -0.199738,-2.307503 -0.764956,0.370376 -0.695487,2.689734 -1.544883,1.134282 -1.678214,-2.962008 0.438189,-6.731056 4.586589,-4.488388 0.03053,-1.382079 0.839586,-2.704413 2.211356,-3.113114 1.18903,-0.236711 2.294025,-0.233376 3.174676,-1.231054 z"
     style="fill:#000000;fill-opacity:1;stroke:none;stroke-width:0.27421px;stroke-linecap:butt;stroke-linejoin:miter;stroke-opacity:1"
     id="path872-3-6-8-2-11-5-5-3-6-9" />
  <path
     id="path872-3-6-8-2-11-5-5-3-1"
     style="fill:#000000;fill-opacity:1;stroke:none;stroke-width:0.27421px;stroke-linecap:butt;stroke-linejoin:miter;stroke-opacity:1"
     d="m 7.4726178,61.635827 c 0.4236882,1.261508 -0.131699,2.216792 -0.5212161,3.364878 -0.3319376,1.392339 0.4087072,2.754168 1.5903588,3.471649 -4.0164079,2.471285 -1.8105177,6.188668 1.5937625,6.216297 1.771759,0.04212 -0.2715965,-1.057392 -0.2098746,-1.905049 0.2507956,-1.386282 2.8628016,0.08861 2.0982256,0.980773 -0.859348,1.541864 1.158413,1.255735 1.579812,2.246685 0.935791,1.18143 1.691617,2.540371 2.182523,3.941345 -0.589439,1.068806 0.06512,1.901547 1.200835,1.87458 1.072109,0.866387 1.379483,2.331684 2.064298,3.480705 0.899168,0.971514 -0.535787,2.872629 1.383433,2.88896 1.553263,0.742528 1.79717,3.043648 2.759586,4.406999 -0.186411,0.846141 -0.46273,1.919803 0.805148,2.061079 0.63639,-0.365236 1.272933,-0.730449 1.908245,-1.098302 0.636129,-0.366444 1.270756,-0.734971 1.905282,-1.103435 0.511591,-1.168662 -0.556386,-1.466188 -1.382374,-1.727827 -0.699485,-1.515148 -2.570362,-2.876938 -2.436776,-4.593367 0.945466,-1.670258 -1.418425,-1.378108 -1.810197,-2.642566 -0.652674,-1.16758 -1.767972,-2.166423 -1.98223,-3.528088 0.591208,-0.970073 0.197317,-1.953312 -1.023017,-1.977246 -0.967826,-1.125622 -1.766789,-2.459658 -2.322043,-3.860793 -0.647489,-0.860418 0.609186,-2.464783 -1.15578,-2.491499 -1.154925,0.216062 -1.126215,-2.783448 0.199738,-2.307504 0.764955,0.370377 0.695486,2.689734 1.544882,1.134282 C 19.123454,67.506376 17.00705,63.737327 12.85865,65.979996 12.828121,64.597916 12.019065,63.275583 10.647295,62.86688 9.4582642,62.63017 8.3532696,62.633506 7.4726178,61.635827 Z" />
  <path
     d="m 92.725323,61.635827 c -0.42369,1.261508 0.1317,2.216792 0.521213,3.364878 0.331942,1.392339 -0.408703,2.754168 -1.590354,3.471649 4.016408,2.471285 1.810513,6.188668 -1.593769,6.216297 -1.771755,0.04212 0.271598,-1.057392 0.209878,-1.905049 -0.250798,-1.386282 -2.862802,0.08861 -2.098225,0.980773 0.85935,1.541864 -1.158413,1.255735 -1.579811,2.246685 -0.935793,1.18143 -1.691618,2.540371 -2.182524,3.941345 0.589439,1.068806 -0.06512,1.901547 -1.200836,1.87458 -1.072109,0.866387 -1.379482,2.331684 -2.064299,3.480705 -0.899168,0.971514 0.535789,2.872629 -1.383432,2.88896 -1.553261,0.742528 -1.79717,3.043648 -2.759585,4.406999 0.186411,0.846141 0.46273,1.919803 -0.805149,2.061079 -0.636389,-0.365236 -1.272932,-0.730449 -1.908244,-1.098302 -0.636128,-0.366444 -1.270756,-0.734971 -1.905282,-1.103435 -0.51159,-1.168662 0.556386,-1.466188 1.382375,-1.727827 0.699484,-1.515148 2.57036,-2.876938 2.436775,-4.593367 -0.945466,-1.670258 1.418425,-1.378108 1.810197,-2.642566 0.652674,-1.16758 1.767972,-2.166423 1.98223,-3.528088 -0.591208,-0.970073 -0.197317,-1.953312 1.023017,-1.977246 0.967825,-1.125622 1.766789,-2.459658 2.322042,-3.860793 0.64749,-0.860418 -0.609186,-2.464783 1.155782,-2.491499 1.154924,0.216062 1.126213,-2.783448 -0.199738,-2.307504 -0.764956,0.370377 -0.695487,2.689734 -1.544884,1.134282 -1.678213,-2.962007 0.43819,-6.731056 4.58659,-4.488387 0.03053,-1.38208 0.839586,-2.704413 2.211354,-3.113116 1.189028,-0.23671 2.294027,-0.233374 3.174679,-1.231053 z"
     style="fill:#000000;fill-opacity:1;stroke:none;stroke-width:0.27421px;stroke-linecap:butt;stroke-linejoin:miter;stroke-opacity:1"
     id="path872-3-6-8-2-11-5-5-3-6-94" />
</svg>
