<?xml version="1.0" encoding="UTF-8" standalone="no"?>
<svg
   xmlns:dc="http://purl.org/dc/elements/1.1/"
   xmlns:cc="http://creativecommons.org/ns#"
   xmlns:rdf="http://www.w3.org/1999/02/22-rdf-syntax-ns#"
   xmlns:svg="http://www.w3.org/2000/svg"
   xmlns="http://www.w3.org/2000/svg"
   xmlns:sodipodi="http://sodipodi.sourceforge.net/DTD/sodipodi-0.dtd"
   xmlns:inkscape="http://www.inkscape.org/namespaces/inkscape"
   inkscape:version="1.0 (4035a4fb49, 2020-05-01)"
   sodipodi:docname="six.svg"
   id="svg23"
   version="1.1"
   viewBox="0 0 100 110">
  <metadata
     id="metadata29">
    <rdf:RDF>
      <cc:Work
         rdf:about="">
        <dc:format>image/svg+xml</dc:format>
        <dc:type
           rdf:resource="http://purl.org/dc/dcmitype/StillImage" />
        <dc:title></dc:title>
      </cc:Work>
    </rdf:RDF>
  </metadata>
  <defs
     id="defs27" />
  <sodipodi:namedview
     inkscape:snap-bbox-midpoints="true"
     inkscape:snap-bbox-edge-midpoints="true"
     inkscape:bbox-paths="true"
     inkscape:bbox-nodes="true"
     inkscape:snap-bbox="true"
     inkscape:document-rotation="0"
     inkscape:guide-bbox="true"
     showguides="true"
     inkscape:current-layer="svg23"
     inkscape:window-maximized="1"
     inkscape:window-y="0"
     inkscape:window-x="0"
     inkscape:cy="46.197325"
     inkscape:cx="13.696884"
     inkscape:zoom="4"
     showgrid="false"
     id="namedview25"
     inkscape:window-height="1020"
     inkscape:window-width="1920"
     inkscape:pageshadow="2"
     inkscape:pageopacity="0"
     guidetolerance="10"
     gridtolerance="10"
     objecttolerance="10"
     borderopacity="1"
     bordercolor="#666666"
     pagecolor="#ffffff" />
  <g
     style="fill:#501616"
     transform="matrix(0,1,1,0,45.343786,60.257881)"
     id="g989" />
  <path
     d="m 15.03453,41.097415 c 0.547318,1.629606 -0.170127,2.863636 -0.673303,4.346726 -0.428795,1.798615 0.527966,3.557816 2.054415,4.484653 -5.188369,3.192389 -2.338814,7.99448 2.058813,8.030171 2.288745,0.05442 -0.350847,-1.365931 -0.271116,-2.46093 0.323977,-1.790789 3.698149,0.114467 2.710474,1.266957 -1.1101,1.991769 1.49643,1.622149 2.04079,2.902253 1.20885,1.526164 2.18522,3.281635 2.819369,5.091402 -0.761433,1.380678 0.08413,2.456406 1.551231,2.421572 1.384944,1.119191 1.782008,3.012052 2.666648,4.496351 1.161539,1.254995 -0.692127,3.710843 1.787108,3.73194 2.006495,0.959191 2.321573,3.931763 3.564815,5.692928 -0.240804,1.093046 -0.597751,2.479993 1.040086,2.662495 0.822084,-0.471815 1.644365,-0.94359 2.465057,-1.418782 0.821747,-0.473376 1.641555,-0.949432 2.461231,-1.425416 0.660869,-1.509664 -0.718736,-1.894008 -1.785742,-2.231991 -0.90359,-1.957257 -3.320375,-3.716409 -3.147811,-5.933681 1.221347,-2.157628 -1.832312,-1.78023 -2.338401,-3.413649 -0.84312,-1.508272 -2.283855,-2.79857 -2.560631,-4.557561 0.763719,-1.253133 0.254893,-2.523274 -1.321526,-2.554193 -1.250231,-1.454071 -2.282327,-3.177369 -2.9996,-4.987346 -0.836422,-1.111482 0.786943,-3.183991 -1.493029,-3.218503 -1.491924,0.279109 -1.454837,-3.595639 0.258021,-2.980818 0.988162,0.478451 0.898424,3.47458 1.995668,1.465259 2.167906,-3.826302 -0.56605,-8.695134 -5.924925,-5.79807 -0.03944,-1.785361 -1.084571,-3.493543 -2.856615,-4.021501 -1.535982,-0.305782 -2.963406,-0.301472 -4.101027,-1.590266 z"
     style="fill:#000000;fill-opacity:1;stroke:none;stroke-width:0.354223px;stroke-linecap:butt;stroke-linejoin:miter;stroke-opacity:1"
     id="path872-3-6-8-2-11-5-5-3" />
  <path
     id="path872-3-6-8-2-11-5-5-3-6"
     style="fill:#000000;fill-opacity:1;stroke:none;stroke-width:0.354223px;stroke-linecap:butt;stroke-linejoin:miter;stroke-opacity:1"
     d="m 85.163409,41.097415 c -0.547318,1.629606 0.170127,2.863636 0.673303,4.346726 0.428796,1.798615 -0.527965,3.557816 -2.054415,4.484653 5.188373,3.192389 2.338814,7.99448 -2.058812,8.030171 -2.288746,0.05442 0.350847,-1.365931 0.271115,-2.46093 -0.323977,-1.790789 -3.698149,0.114467 -2.710474,1.266957 1.1101,1.991769 -1.496429,1.622149 -2.040789,2.902253 -1.208851,1.526164 -2.185221,3.281635 -2.81937,5.091402 0.761434,1.380678 -0.08413,2.456406 -1.551231,2.421572 -1.384944,1.119191 -1.782007,3.012052 -2.666648,4.496351 -1.161539,1.254995 0.692128,3.710843 -1.787108,3.73194 -2.006493,0.959191 -2.321573,3.931763 -3.564814,5.692928 0.240804,1.093046 0.597751,2.479993 -1.040086,2.662495 -0.822085,-0.471815 -1.644366,-0.94359 -2.465058,-1.418782 -0.821746,-0.473376 -1.641554,-0.949432 -2.46123,-1.425416 -0.660869,-1.509664 0.718736,-1.894008 1.785742,-2.231991 0.903589,-1.957257 3.320375,-3.716409 3.147811,-5.933681 -1.221347,-2.157628 1.832312,-1.78023 2.338401,-3.413649 0.84312,-1.508272 2.283854,-2.79857 2.56063,-4.557561 -0.763719,-1.253133 -0.254892,-2.523274 1.321527,-2.554193 1.25023,-1.454071 2.282327,-3.177369 2.999599,-4.987346 0.836423,-1.111482 -0.786942,-3.183991 1.49303,-3.218503 1.491924,0.279109 1.454836,-3.595639 -0.25802,-2.980818 -0.988164,0.478451 -0.898425,3.47458 -1.99567,1.465259 -2.167905,-3.826302 0.566051,-8.695134 5.924926,-5.79807 0.03944,-1.785361 1.084571,-3.493543 2.856615,-4.021501 1.535981,-0.305782 2.963405,-0.301472 4.101026,-1.590266 z" />
  <path
     d="m 50.01284,3.0451027 c -0.340812,1.684938 -1.579153,2.394918 -2.756461,3.427723 -1.270656,1.3432481 -1.321676,3.3451421 -0.463151,4.9110303 -6.089454,0.170506 -6.022712,5.754017 -2.232101,7.983739 1.954902,1.191501 0.379123,-1.358354 0.995672,-2.266786 1.175967,-1.38888 3.145458,1.948207 1.713861,2.452455 -1.957259,1.169872 0.484872,2.153036 0.316249,3.533819 0.283813,1.926122 0.25164,3.934589 -0.104056,5.818968 -1.349759,0.814986 -1.155346,2.169374 0.13262,2.872758 0.639801,1.661721 0.03724,3.499519 0.06121,5.22728 0.378424,1.667627 -2.454823,2.86762 -0.318289,4.125508 1.258079,1.833931 0.04466,4.565794 0.240756,6.712626 -0.755064,0.826203 -1.757662,1.848859 -0.430504,2.825829 0.947852,0.0024 1.895855,0.005 2.844194,0.0038 0.948338,9.57e-4 1.896342,-0.0015 2.844193,-0.0038 1.32716,-0.97697 0.32456,-1.999626 -0.430504,-2.825829 0.196098,-2.146832 -1.017323,-4.878695 0.240758,-6.712626 2.136531,-1.257888 -0.696714,-2.457881 -0.318291,-4.125508 0.02398,-1.727761 -0.57859,-3.565559 0.06122,-5.22728 1.287966,-0.703384 1.482379,-2.057772 0.13262,-2.872758 -0.355696,-1.884379 -0.387869,-3.892846 -0.104056,-5.818968 -0.168622,-1.380783 2.273508,-2.363947 0.316249,-3.533819 -1.431597,-0.504248 0.537895,-3.841335 1.713862,-2.452455 0.616549,0.908432 -0.959231,3.458287 0.995671,2.266786 3.790611,-2.229722 3.857352,-7.813233 -2.232101,-7.983739 C 54.090986,9.8179678 54.039966,7.8160738 52.76931,6.4728257 51.592,5.4400207 50.35366,4.7300407 50.012848,3.0451027 Z"
     style="fill:#000000;fill-opacity:1;stroke:none;stroke-width:0.354223px;stroke-linecap:butt;stroke-linejoin:miter;stroke-opacity:1"
     id="path872-3-6-8-2-11-5-5-1" />
  <path
     id="path872-3-6-8-2-11-5-5-3-2"
     style="fill:#000000;fill-opacity:1;stroke:none;stroke-width:0.354223px;stroke-linecap:butt;stroke-linejoin:miter;stroke-opacity:1"
     d="m 21.996683,15.055426 c 0.547318,1.629606 -0.170127,2.863636 -0.673303,4.346726 -0.428796,1.798615 0.527966,3.557817 2.054415,4.484652 -5.188369,3.19239 -2.338814,7.994481 2.058813,8.030171 2.288745,0.05442 -0.350848,-1.365931 -0.271116,-2.460929 0.323977,-1.790789 3.698149,0.114468 2.710474,1.266956 -1.1101,1.991771 1.496429,1.622149 2.04079,2.902253 1.20885,1.526166 2.18522,3.281635 2.819369,5.091402 -0.761433,1.380679 0.08413,2.456406 1.551231,2.421573 1.384944,1.119191 1.782007,3.012053 2.666648,4.496352 1.161539,1.254995 -0.692127,3.710843 1.787108,3.731939 2.006494,0.959191 2.321573,3.931764 3.564815,5.692929 -0.240804,1.093046 -0.597751,2.479992 1.040086,2.662493 0.822084,-0.471814 1.644365,-0.943589 2.465057,-1.418782 0.821747,-0.473374 1.641554,-0.949431 2.461231,-1.425415 0.660869,-1.509663 -0.718736,-1.894007 -1.785742,-2.23199 -0.90359,-1.957258 -3.320375,-3.71641 -3.147811,-5.933681 1.221347,-2.157629 -1.832312,-1.780231 -2.338401,-3.41365 -0.84312,-1.508271 -2.283855,-2.79857 -2.560631,-4.557561 0.763719,-1.253133 0.254893,-2.523274 -1.321526,-2.554193 -1.250231,-1.454071 -2.282327,-3.177369 -2.9996,-4.987346 -0.836422,-1.111481 0.786943,-3.183991 -1.493029,-3.218502 -1.491924,0.279108 -1.454837,-3.59564 0.25802,-2.980818 0.988163,0.47845 0.898425,3.47458 1.995669,1.465258 2.167906,-3.826302 -0.56605,-8.695134 -5.924925,-5.79807 -0.03944,-1.785361 -1.084571,-3.493543 -2.856616,-4.021501 -1.535981,-0.305781 -2.963405,-0.301472 -4.101026,-1.590266 z" />
  <path
     d="m 78.201256,15.055426 c -0.547318,1.629606 0.170128,2.863636 0.673303,4.346726 0.428796,1.798615 -0.527965,3.557817 -2.054414,4.484652 5.188372,3.19239 2.338813,7.994481 -2.058813,8.030171 -2.288746,0.05442 0.350847,-1.365931 0.271115,-2.460929 -0.323977,-1.790789 -3.698149,0.114468 -2.710474,1.266956 1.1101,1.991771 -1.496429,1.622149 -2.040789,2.902253 -1.20885,1.526166 -2.185221,3.281635 -2.81937,5.091402 0.761434,1.380679 -0.08413,2.456406 -1.551231,2.421573 -1.384943,1.119191 -1.782007,3.012053 -2.666648,4.496352 -1.161539,1.254995 0.692128,3.710843 -1.787108,3.731939 -2.006493,0.959191 -2.321573,3.931764 -3.564814,5.692929 0.240804,1.093046 0.597752,2.479992 -1.040086,2.662493 -0.822085,-0.471814 -1.644366,-0.943589 -2.465057,-1.418782 -0.821747,-0.473374 -1.641555,-0.949431 -2.461231,-1.425415 -0.660869,-1.509663 0.718736,-1.894007 1.785742,-2.23199 0.90359,-1.957258 3.320375,-3.71641 3.147811,-5.933681 -1.221347,-2.157629 1.832312,-1.780231 2.338401,-3.41365 0.84312,-1.508271 2.283854,-2.79857 2.56063,-4.557561 -0.763719,-1.253133 -0.254892,-2.523274 1.321527,-2.554193 1.25023,-1.454071 2.282327,-3.177369 2.999599,-4.987346 0.836423,-1.111481 -0.786941,-3.183991 1.49303,-3.218502 1.491924,0.279108 1.454836,-3.59564 -0.25802,-2.980818 -0.988164,0.47845 -0.898425,3.47458 -1.99567,1.465258 -2.167905,-3.826302 0.566051,-8.695134 5.924926,-5.79807 0.03944,-1.785361 1.084571,-3.493543 2.856615,-4.021501 1.535981,-0.305781 2.963405,-0.301472 4.101026,-1.590266 z"
     style="fill:#000000;fill-opacity:1;stroke:none;stroke-width:0.354223px;stroke-linecap:butt;stroke-linejoin:miter;stroke-opacity:1"
     id="path872-3-6-8-2-11-5-5-3-6-9" />
  <path
     id="path872-3-6-8-2-11-5-5-1-3"
     style="fill:#000000;fill-opacity:1;stroke:none;stroke-width:0.354223px;stroke-linecap:butt;stroke-linejoin:miter;stroke-opacity:1"
     d="m 50.01284,53.137558 c -0.340812,1.684938 -1.579153,2.394918 -2.756461,3.427724 -1.270656,1.343247 -1.321676,3.345141 -0.463151,4.911029 -6.089454,0.170506 -6.022712,5.754017 -2.232101,7.983739 1.954902,1.191502 0.379123,-1.358354 0.995672,-2.266786 1.175967,-1.38888 3.145458,1.948207 1.713861,2.452455 -1.957259,1.169872 0.484872,2.153036 0.316249,3.533819 0.283813,1.926122 0.25164,3.934589 -0.104056,5.818968 -1.349759,0.814986 -1.155346,2.169374 0.13262,2.872759 0.639801,1.66172 0.03724,3.499518 0.06121,5.227279 0.378424,1.667624 -2.454823,2.867621 -0.318289,4.125508 1.258079,1.833932 0.04466,4.565802 0.240756,6.712623 -0.755064,0.8262 -1.757662,1.84885 -0.430504,2.825815 0.947852,0.003 1.895855,0.005 2.844194,0.003 0.948338,8.7e-4 1.896342,-0.002 2.844193,-0.003 1.32716,-0.976965 0.32456,-1.999615 -0.430504,-2.825815 0.196098,-2.146821 -1.017323,-4.878691 0.240758,-6.712623 2.136531,-1.257887 -0.696714,-2.457884 -0.318291,-4.125508 0.02398,-1.727761 -0.57859,-3.565559 0.06122,-5.227279 1.287966,-0.703385 1.482379,-2.057773 0.13262,-2.872759 -0.355696,-1.884379 -0.387869,-3.892846 -0.104056,-5.818968 -0.168622,-1.380783 2.273508,-2.363947 0.316249,-3.533819 -1.431597,-0.504248 0.537895,-3.841335 1.713862,-2.452455 0.616549,0.908432 -0.959231,3.458288 0.995671,2.266786 3.790611,-2.229722 3.857352,-7.813233 -2.232101,-7.983739 0.858525,-1.565888 0.807505,-3.567782 -0.463151,-4.911029 -1.17731,-1.032806 -2.41565,-1.742786 -2.756462,-3.427724 z" />
</svg>
