<?xml version="1.0" encoding="UTF-8"?>
<svg version="1.1" viewBox="0 0 100 110" xmlns="http://www.w3.org/2000/svg" xmlns:cc="http://creativecommons.org/ns#" xmlns:dc="http://purl.org/dc/elements/1.1/" xmlns:rdf="http://www.w3.org/1999/02/22-rdf-syntax-ns#" xmlns:xlink="http://www.w3.org/1999/xlink">
 <metadata>
  <rdf:RDF>
   <cc:Work rdf:about="">
    <dc:format>image/svg+xml</dc:format>
    <dc:type rdf:resource="http://purl.org/dc/dcmitype/StillImage"/>
    <dc:title/>
   </cc:Work>
  </rdf:RDF>
 </metadata>
 <path id="use844" d="m0.9509 2.172c0.5853 0.8822 0.3552 1.731 0.2922 2.692 0.03161 1.138 0.8807 2.032 1.937 2.34-2.577 2.725-0.117 5.128 2.504 4.448 1.37-0.3324-0.4264-0.7565-0.5534-1.42-0.09271-1.117 2.217-0.5213 1.814 0.3216-0.3428 1.362 1.148 0.7263 1.676 1.401 0.9626 0.7151 1.823 1.604 2.488 2.579-0.2328 0.9429 0.4415 1.448 1.308 1.193 1.002 0.445 1.54 1.508 2.302 2.25 0.8909 0.5613 0.1798 2.317 1.657 1.935 1.346 0.2507 2.007 1.968 3.027 2.818 0.03097 0.6885 0.03971 1.57 1.043 1.418 0.4138-0.4117 0.8279-0.8232 1.24-1.237 0.4133-0.4125 0.8247-0.8263 1.237-1.24 0.1525-1.004-0.7293-1.012-1.418-1.043-0.8492-1.02-2.567-1.681-2.818-3.027 0.3826-1.478-1.374-0.7668-1.935-1.657-0.7419-0.7627-1.805-1.301-2.25-2.302 0.2545-0.8673-0.2505-1.542-1.193-1.308-0.9752-0.6656-1.864-1.526-2.579-2.488-0.6746-0.5278-0.03938-2.019-1.401-1.676-0.8429 0.4038-1.438-1.907-0.3216-1.814 0.664 0.1271 1.088 1.924 1.42 0.5534 0.6796-2.622-1.723-5.082-4.448-2.504-0.308-1.056-1.202-1.905-2.34-1.937-0.9626 0.06291-1.811 0.2929-2.692-0.2922z" stroke-width=".7877"/>
 <use id="use877" transform="translate(50 51.92)" width="100%" height="100%" xlink:href="#use844"/>
 <use transform="translate(26.1 27.08)" width="100%" height="100%" xlink:href="#use877"/>
 <use id="use911" transform="translate(-24.2 -25.06)" width="100%" height="100%" xlink:href="#use877"/>
 <use id="use915" transform="translate(14,-20)" width="100%" height="100%" xlink:href="#use911"/>
 <use transform="translate(26,26)" width="100%" height="100%" xlink:href="#use915"/>
</svg>
