<?xml version="1.0" encoding="UTF-8"?>
<svg version="1.1" viewBox="0 0 100 110" xmlns="http://www.w3.org/2000/svg" xmlns:cc="http://creativecommons.org/ns#" xmlns:dc="http://purl.org/dc/elements/1.1/" xmlns:rdf="http://www.w3.org/1999/02/22-rdf-syntax-ns#" xmlns:xlink="http://www.w3.org/1999/xlink">
 <metadata>
  <rdf:RDF>
   <cc:Work rdf:about="">
    <dc:format>image/svg+xml</dc:format>
    <dc:type rdf:resource="http://purl.org/dc/dcmitype/StillImage"/>
    <dc:title/>
   </cc:Work>
  </rdf:RDF>
 </metadata>
 <path id="use839" d="m14.98 32.62c0.2554 1.306-0.4199 2.181-0.956 3.268-0.5108 1.337 0.04572 2.784 1.124 3.65-4.305 1.926-2.603 5.899 0.7687 6.371 1.751 0.273-0.1313-1.084 0.04058-1.916 0.4296-1.342 2.827 0.4615 1.952 1.246-1.053 1.417 0.9846 1.396 1.273 2.434 0.7736 1.293 1.346 2.739 1.649 4.193-0.7239 0.9827-0.1836 1.894 0.9459 2.015 0.9499 0.9989 1.063 2.492 1.592 3.72 0.7647 1.081-0.9062 2.778 0.9945 3.045 1.443 0.9389 1.385 3.252 2.161 4.729-0.2953 0.8146-0.7094 1.843 0.5292 2.149 0.6787-0.2789 1.357-0.5579 2.035-0.8398 0.6785-0.2803 1.356-0.5627 2.033-0.8453 0.6598-1.092-0.3603-1.526-1.145-1.893-0.4957-1.593-2.173-3.188-1.816-4.872 1.155-1.533-1.226-1.551-1.45-2.856-0.4947-1.243-1.47-2.379-1.505-3.757 0.7128-0.8846 0.4506-1.911-0.7562-2.094-0.8126-1.242-1.431-2.669-1.798-4.131-0.5296-0.9376 0.9257-2.364-0.8207-2.621-1.173 0.06346-0.7533-2.907 0.4992-2.262 0.7101 0.4671 0.3385 2.758 1.384 1.326 2.05-2.718 0.4441-6.731-3.962-5.049 0.1501-1.374-0.4794-2.791-1.786-3.375-1.148-0.3899-2.244-0.5308-2.987-1.635z"/>
 <use id="use841" transform="translate(2,-24)" width="100%" height="100%" xlink:href="#use839"/>
 <use id="use843" transform="translate(14)" width="100%" height="100%" xlink:href="#use841"/>
 <use id="use845" transform="translate(-22,40)" width="100%" height="100%" xlink:href="#use843"/>
 <use transform="matrix(-1 0 0 1 99.91 0)" width="100%" height="100%" xlink:href="#use839"/>
 <use transform="matrix(-1 0 0 1 99.91 0)" width="100%" height="100%" xlink:href="#use841"/>
 <use id="use851" transform="matrix(-1 0 0 1 99.91 0)" width="100%" height="100%" xlink:href="#use843"/>
 <use transform="matrix(-1 0 0 1 99.91 0)" width="100%" height="100%" xlink:href="#use845"/>
 <use transform="translate(0,60)" width="100%" height="100%" xlink:href="#use843"/>
 <use transform="translate(0,60)" width="100%" height="100%" xlink:href="#use851"/>
</svg>
