<?xml version="1.0" encoding="UTF-8" standalone="no"?>
<svg
   xmlns:dc="http://purl.org/dc/elements/1.1/"
   xmlns:cc="http://creativecommons.org/ns#"
   xmlns:rdf="http://www.w3.org/1999/02/22-rdf-syntax-ns#"
   xmlns:svg="http://www.w3.org/2000/svg"
   xmlns="http://www.w3.org/2000/svg"
   xmlns:sodipodi="http://sodipodi.sourceforge.net/DTD/sodipodi-0.dtd"
   xmlns:inkscape="http://www.inkscape.org/namespaces/inkscape"
   inkscape:version="1.0 (4035a4fb49, 2020-05-01)"
   sodipodi:docname="ten.svg"
   id="svg23"
   version="1.1"
   viewBox="0 0 100 110">
  <metadata
     id="metadata29">
    <rdf:RDF>
      <cc:Work
         rdf:about="">
        <dc:format>image/svg+xml</dc:format>
        <dc:type
           rdf:resource="http://purl.org/dc/dcmitype/StillImage" />
        <dc:title></dc:title>
      </cc:Work>
    </rdf:RDF>
  </metadata>
  <defs
     id="defs27" />
  <sodipodi:namedview
     inkscape:snap-bbox-midpoints="true"
     inkscape:snap-bbox-edge-midpoints="true"
     inkscape:bbox-paths="true"
     inkscape:bbox-nodes="true"
     inkscape:snap-bbox="true"
     inkscape:document-rotation="0"
     inkscape:guide-bbox="true"
     showguides="true"
     inkscape:current-layer="svg23"
     inkscape:window-maximized="1"
     inkscape:window-y="0"
     inkscape:window-x="0"
     inkscape:cy="46.197325"
     inkscape:cx="13.696884"
     inkscape:zoom="4"
     showgrid="false"
     id="namedview25"
     inkscape:window-height="1020"
     inkscape:window-width="1920"
     inkscape:pageshadow="2"
     inkscape:pageopacity="0"
     guidetolerance="10"
     gridtolerance="10"
     objecttolerance="10"
     borderopacity="1"
     bordercolor="#666666"
     pagecolor="#ffffff" />
  <g
     style="fill:#501616"
     transform="matrix(0,1,1,0,45.343786,60.257881)"
     id="g989" />
  <path
     inkscape:transform-center-y="-16.560242"
     inkscape:transform-center-x="-10.72435"
     d="m 11.299334,51.214159 c 0.880653,0.997677 1.985647,0.994341 3.174677,1.231051 1.37177,0.408703 2.180826,1.731036 2.211356,3.113116 4.1484,-2.242669 6.264802,1.526381 4.586589,4.488388 -0.849396,1.555451 -0.779929,-0.763904 -1.544884,-1.134282 -1.325953,-0.475944 -1.354661,2.523565 -0.199737,2.307505 1.764967,0.02671 0.508291,1.631081 1.155781,2.491499 0.555253,1.401134 1.354216,2.735169 2.322041,3.860793 1.220334,0.02393 1.614225,1.007172 1.023013,1.977245 0.214258,1.361669 1.329553,2.360513 1.982233,3.528087 0.391771,1.26446 2.755664,0.972309 1.810197,2.642569 -0.133585,1.716428 1.737292,3.078217 2.436776,4.593367 0.825988,0.261637 1.893963,0.559167 1.382374,1.727822 -0.634544,0.368433 -1.269041,0.737185 -1.905262,1.103468 -0.635401,0.367704 -1.271868,0.733043 -1.908263,1.098272 -1.267881,-0.141278 -0.99156,-1.214937 -0.80515,-2.061082 -0.962416,-1.363347 -1.206323,-3.664467 -2.759585,-4.406994 -1.91922,-0.01633 -0.484265,-1.917447 -1.383432,-2.888962 -0.684827,-1.149014 -0.992191,-2.614317 -2.064314,-3.480697 -1.135711,0.02697 -1.790273,-0.805773 -1.200838,-1.874578 -0.490906,-1.400973 -1.246732,-2.759914 -2.182524,-3.941343 -0.421394,-0.990955 -2.439153,-0.704826 -1.579805,-2.246689 0.764576,-0.892164 -1.84743,-2.367055 -2.098227,-0.980774 -0.06172,0.847659 1.981634,1.947176 0.209876,1.905049 -3.404273,-0.02763 -5.6101627,-3.745017 -1.593757,-6.216301 -1.18165,-0.71748 -1.922297,-2.079309 -1.590359,-3.471649 0.389519,-1.148085 0.944906,-2.103371 0.521218,-3.364876 z"
     style="fill:#000000;fill-opacity:1;stroke:none;stroke-width:0.27421px;stroke-linecap:butt;stroke-linejoin:miter;stroke-opacity:1"
     id="path872-3-6-8-2-11-5-5-1-4-5-0-3-6" />
  <path
     id="path872-3-6-8-2-11-5-5-1-4-5-0-3-6-2"
     style="fill:#000000;fill-opacity:1;stroke:none;stroke-width:0.27421px;stroke-linecap:butt;stroke-linejoin:miter;stroke-opacity:1"
     d="m 11.299334,31.214159 c 0.880653,0.997677 1.985647,0.994341 3.174677,1.231051 1.37177,0.408703 2.180826,1.731036 2.211356,3.113116 4.1484,-2.242669 6.264802,1.526381 4.586589,4.488388 -0.849396,1.555451 -0.779929,-0.763904 -1.544884,-1.134282 -1.325953,-0.475944 -1.354661,2.523565 -0.199737,2.307505 1.764967,0.02671 0.508291,1.631081 1.155781,2.491499 0.555253,1.401134 1.354216,2.735169 2.322041,3.860793 1.220334,0.02393 1.614225,1.007172 1.023013,1.977245 0.214258,1.361669 1.329553,2.360513 1.982233,3.528087 0.391771,1.26446 2.755664,0.972309 1.810197,2.642569 -0.133585,1.716428 1.737292,3.078217 2.436776,4.593367 0.825988,0.261637 1.893963,0.559167 1.382374,1.727822 -0.634544,0.368433 -1.269041,0.737185 -1.905262,1.103468 -0.635401,0.367704 -1.271868,0.733043 -1.908263,1.098272 -1.267881,-0.141278 -0.99156,-1.214937 -0.80515,-2.061082 -0.962416,-1.363347 -1.206323,-3.664467 -2.759585,-4.406994 -1.91922,-0.01633 -0.484265,-1.917447 -1.383432,-2.888962 -0.684827,-1.149014 -0.992191,-2.614317 -2.064314,-3.480697 -1.135711,0.02697 -1.790273,-0.805773 -1.200838,-1.874578 -0.490906,-1.400973 -1.246732,-2.759914 -2.182524,-3.941343 -0.421394,-0.990955 -2.439153,-0.704826 -1.579805,-2.246689 0.764576,-0.892164 -1.84743,-2.367055 -2.098227,-0.980774 -0.06172,0.847659 1.981634,1.947176 0.209876,1.905049 -3.404273,-0.02763 -5.6101627,-3.745017 -1.593757,-6.216301 -1.18165,-0.71748 -1.922297,-2.079309 -1.590359,-3.471649 0.389519,-1.148085 0.944906,-2.103371 0.521218,-3.364876 z"
     inkscape:transform-center-x="-10.72435"
     inkscape:transform-center-y="-16.560242" />
  <path
     inkscape:transform-center-y="-16.560242"
     inkscape:transform-center-x="-10.72435"
     d="m 11.299334,11.214159 c 0.880653,0.997677 1.985647,0.994341 3.174677,1.231051 1.37177,0.408703 2.180826,1.731036 2.211356,3.113116 4.1484,-2.242669 6.264802,1.526381 4.586589,4.488388 -0.849396,1.555451 -0.779929,-0.763904 -1.544884,-1.134282 -1.325953,-0.475944 -1.354661,2.523565 -0.199737,2.307505 1.764967,0.02671 0.508291,1.631081 1.155781,2.491499 0.555253,1.401134 1.354216,2.735169 2.322041,3.860793 1.220334,0.02393 1.614225,1.007172 1.023013,1.977245 0.214258,1.361669 1.329553,2.360513 1.982233,3.528087 0.391771,1.26446 2.755664,0.972309 1.810197,2.642569 -0.133585,1.716428 1.737292,3.078217 2.436776,4.593367 0.825988,0.261637 1.893963,0.559167 1.382374,1.727822 -0.634544,0.368433 -1.269041,0.737185 -1.905262,1.103468 -0.635401,0.367704 -1.271868,0.733043 -1.908263,1.098272 -1.267881,-0.141278 -0.99156,-1.214937 -0.80515,-2.061082 -0.962416,-1.363347 -1.206323,-3.664467 -2.759585,-4.406994 -1.91922,-0.01633 -0.484265,-1.917447 -1.383432,-2.888962 -0.684827,-1.149014 -0.992191,-2.614317 -2.064314,-3.480697 -1.135711,0.02697 -1.790273,-0.805773 -1.200838,-1.874578 -0.490906,-1.400973 -1.246732,-2.759914 -2.182524,-3.941343 -0.421394,-0.990955 -2.439153,-0.704826 -1.579805,-2.246689 0.764576,-0.892164 -1.84743,-2.367055 -2.098227,-0.980774 -0.06172,0.847659 1.981634,1.947176 0.209876,1.905049 -3.404273,-0.02763 -5.6101627,-3.745017 -1.593757,-6.216301 -1.18165,-0.71748 -1.922297,-2.079309 -1.590359,-3.471649 0.389519,-1.148085 0.944906,-2.103371 0.521218,-3.364876 z"
     style="fill:#000000;fill-opacity:1;stroke:none;stroke-width:0.27421px;stroke-linecap:butt;stroke-linejoin:miter;stroke-opacity:1"
     id="path872-3-6-8-2-11-5-5-1-4-5-0-3-6-2-6" />
  <path
     id="path872-3-6-8-2-11-5-5-1-4-5-0-3-6-7"
     style="fill:#000000;fill-opacity:1;stroke:none;stroke-width:0.27421px;stroke-linecap:butt;stroke-linejoin:miter;stroke-opacity:1"
     d="m 88.765272,51.214159 c -0.880653,0.997677 -1.985647,0.994341 -3.174677,1.231051 -1.37177,0.408703 -2.180826,1.731036 -2.211356,3.113116 -4.1484,-2.242669 -6.264802,1.526381 -4.586589,4.488388 0.849396,1.555451 0.779929,-0.763904 1.544884,-1.134282 1.325953,-0.475944 1.354661,2.523565 0.199737,2.307505 -1.764967,0.02671 -0.508291,1.631081 -1.155781,2.491499 -0.555253,1.401134 -1.354216,2.735169 -2.322041,3.860793 -1.220334,0.02393 -1.614225,1.007172 -1.023013,1.977245 -0.214258,1.361669 -1.329553,2.360513 -1.982233,3.528087 -0.391771,1.26446 -2.755664,0.972309 -1.810197,2.642569 0.133585,1.716428 -1.737292,3.078217 -2.436776,4.593367 -0.825988,0.261637 -1.893963,0.559167 -1.382374,1.727822 0.634544,0.368433 1.269041,0.737185 1.905262,1.103468 0.635401,0.367704 1.271868,0.733043 1.908263,1.098272 1.267881,-0.141278 0.99156,-1.214937 0.80515,-2.061082 0.962416,-1.363347 1.206323,-3.664467 2.759585,-4.406994 1.91922,-0.01633 0.484265,-1.917447 1.383432,-2.888962 0.684827,-1.149014 0.992191,-2.614317 2.064314,-3.480697 1.135711,0.02697 1.790273,-0.805773 1.200838,-1.874578 0.490906,-1.400973 1.246732,-2.759914 2.182524,-3.941343 0.421394,-0.990955 2.439153,-0.704826 1.579805,-2.246689 -0.764576,-0.892164 1.84743,-2.367055 2.098227,-0.980774 0.06172,0.847659 -1.981634,1.947176 -0.209876,1.905049 3.404273,-0.02763 5.610162,-3.745017 1.593757,-6.216301 1.18165,-0.71748 1.922297,-2.079309 1.590359,-3.471649 -0.389519,-1.148085 -0.944906,-2.103371 -0.521218,-3.364876 z"
     inkscape:transform-center-x="10.72435"
     inkscape:transform-center-y="-16.560242" />
  <path
     inkscape:transform-center-y="-16.560242"
     inkscape:transform-center-x="10.72435"
     d="m 88.765272,31.214159 c -0.880653,0.997677 -1.985647,0.994341 -3.174677,1.231051 -1.37177,0.408703 -2.180826,1.731036 -2.211356,3.113116 -4.1484,-2.242669 -6.264802,1.526381 -4.586589,4.488388 0.849396,1.555451 0.779929,-0.763904 1.544884,-1.134282 1.325953,-0.475944 1.354661,2.523565 0.199737,2.307505 -1.764967,0.02671 -0.508291,1.631081 -1.155781,2.491499 -0.555253,1.401134 -1.354216,2.735169 -2.322041,3.860793 -1.220334,0.02393 -1.614225,1.007172 -1.023013,1.977245 -0.214258,1.361669 -1.329553,2.360513 -1.982233,3.528087 -0.391771,1.26446 -2.755664,0.972309 -1.810197,2.642569 0.133585,1.716428 -1.737292,3.078217 -2.436776,4.593367 -0.825988,0.261637 -1.893963,0.559167 -1.382374,1.727822 0.634544,0.368433 1.269041,0.737185 1.905262,1.103468 0.635401,0.367704 1.271868,0.733043 1.908263,1.098272 1.267881,-0.141278 0.99156,-1.214937 0.80515,-2.061082 0.962416,-1.363347 1.206323,-3.664467 2.759585,-4.406994 1.91922,-0.01633 0.484265,-1.917447 1.383432,-2.888962 0.684827,-1.149014 0.992191,-2.614317 2.064314,-3.480697 1.135711,0.02697 1.790273,-0.805773 1.200838,-1.874578 0.490906,-1.400973 1.246732,-2.759914 2.182524,-3.941343 0.421394,-0.990955 2.439153,-0.704826 1.579805,-2.246689 -0.764576,-0.892164 1.84743,-2.367055 2.098227,-0.980774 0.06172,0.847659 -1.981634,1.947176 -0.209876,1.905049 3.404273,-0.02763 5.610162,-3.745017 1.593757,-6.216301 1.18165,-0.71748 1.922297,-2.079309 1.590359,-3.471649 -0.389519,-1.148085 -0.944906,-2.103371 -0.521218,-3.364876 z"
     style="fill:#000000;fill-opacity:1;stroke:none;stroke-width:0.27421px;stroke-linecap:butt;stroke-linejoin:miter;stroke-opacity:1"
     id="path872-3-6-8-2-11-5-5-1-4-5-0-3-6-2-65" />
  <path
     id="path872-3-6-8-2-11-5-5-1-4-5-0-3-6-2-6-6"
     style="fill:#000000;fill-opacity:1;stroke:none;stroke-width:0.27421px;stroke-linecap:butt;stroke-linejoin:miter;stroke-opacity:1"
     d="m 88.765272,11.214159 c -0.880653,0.997677 -1.985647,0.994341 -3.174677,1.231051 -1.37177,0.408703 -2.180826,1.731036 -2.211356,3.113116 -4.1484,-2.242669 -6.264802,1.526381 -4.586589,4.488388 0.849396,1.555451 0.779929,-0.763904 1.544884,-1.134282 1.325953,-0.475944 1.354661,2.523565 0.199737,2.307505 -1.764967,0.02671 -0.508291,1.631081 -1.155781,2.491499 -0.555253,1.401134 -1.354216,2.735169 -2.322041,3.860793 -1.220334,0.02393 -1.614225,1.007172 -1.023013,1.977245 -0.214258,1.361669 -1.329553,2.360513 -1.982233,3.528087 -0.391771,1.26446 -2.755664,0.972309 -1.810197,2.642569 0.133585,1.716428 -1.737292,3.078217 -2.436776,4.593367 -0.825988,0.261637 -1.893963,0.559167 -1.382374,1.727822 0.634544,0.368433 1.269041,0.737185 1.905262,1.103468 0.635401,0.367704 1.271868,0.733043 1.908263,1.098272 1.267881,-0.141278 0.99156,-1.214937 0.80515,-2.061082 0.962416,-1.363347 1.206323,-3.664467 2.759585,-4.406994 1.91922,-0.01633 0.484265,-1.917447 1.383432,-2.888962 0.684827,-1.149014 0.992191,-2.614317 2.064314,-3.480697 1.135711,0.02697 1.790273,-0.805773 1.200838,-1.874578 0.490906,-1.400973 1.246732,-2.759914 2.182524,-3.941343 0.421394,-0.990955 2.439153,-0.704826 1.579805,-2.246689 -0.764576,-0.892164 1.84743,-2.367055 2.098227,-0.980774 0.06172,0.847659 -1.981634,1.947176 -0.209876,1.905049 3.404273,-0.02763 5.610162,-3.745017 1.593757,-6.216301 1.18165,-0.71748 1.922297,-2.079309 1.590359,-3.471649 -0.389519,-1.148085 -0.944906,-2.103371 -0.521218,-3.364876 z"
     inkscape:transform-center-x="10.72435"
     inkscape:transform-center-y="-16.560242" />
  <path
     id="path872-3-6-8-2-11-5-5-1-4-5-0-3-6-2-6-9"
     style="fill:#000000;fill-opacity:1;stroke:none;stroke-width:0.27421px;stroke-linecap:butt;stroke-linejoin:miter;stroke-opacity:1"
     d="m 27.299334,11.214159 c 0.880653,0.997677 1.985647,0.994341 3.174677,1.231051 1.37177,0.408703 2.180826,1.731036 2.211356,3.113116 4.1484,-2.242669 6.264802,1.526381 4.586589,4.488388 -0.849396,1.555451 -0.779929,-0.763904 -1.544884,-1.134282 -1.325953,-0.475944 -1.354661,2.523565 -0.199737,2.307505 1.764967,0.02671 0.508291,1.631081 1.155781,2.491499 0.555253,1.401134 1.354216,2.735169 2.322041,3.860793 1.220334,0.02393 1.614225,1.007172 1.023013,1.977245 0.214258,1.361669 1.329553,2.360513 1.982233,3.528087 0.391771,1.26446 2.755664,0.972309 1.810197,2.642569 -0.133585,1.716428 1.737292,3.078217 2.436776,4.593367 0.825988,0.261637 1.893963,0.559167 1.382374,1.727822 -0.634544,0.368433 -1.269041,0.737185 -1.905262,1.103468 -0.635401,0.367704 -1.271868,0.733043 -1.908263,1.098272 -1.267881,-0.141278 -0.99156,-1.214937 -0.80515,-2.061082 -0.962416,-1.363347 -1.206323,-3.664467 -2.759585,-4.406994 -1.91922,-0.01633 -0.484265,-1.917447 -1.383432,-2.888962 -0.684827,-1.149014 -0.992191,-2.614317 -2.064314,-3.480697 -1.135711,0.02697 -1.790273,-0.805773 -1.200838,-1.874578 -0.490906,-1.400973 -1.246732,-2.759914 -2.182524,-3.941343 -0.421394,-0.990955 -2.439153,-0.704826 -1.579805,-2.246689 0.764576,-0.892164 -1.84743,-2.367055 -2.098227,-0.980774 -0.06172,0.847659 1.981634,1.947176 0.209876,1.905049 -3.404273,-0.02763 -5.610162,-3.745017 -1.593757,-6.216301 -1.18165,-0.71748 -1.922297,-2.079309 -1.590359,-3.471649 0.389519,-1.148085 0.944906,-2.103371 0.521218,-3.364876 z"
     inkscape:transform-center-x="-10.72435"
     inkscape:transform-center-y="-16.560242" />
  <path
     inkscape:transform-center-y="-16.560242"
     inkscape:transform-center-x="10.72435"
     d="m 72.765272,11.214159 c -0.880653,0.997677 -1.985647,0.994341 -3.174677,1.231051 -1.37177,0.408703 -2.180826,1.731036 -2.211356,3.113116 -4.1484,-2.242669 -6.264802,1.526381 -4.586589,4.488388 0.849396,1.555451 0.779929,-0.763904 1.544884,-1.134282 1.325953,-0.475944 1.354661,2.523565 0.199737,2.307505 -1.764967,0.02671 -0.508291,1.631081 -1.155781,2.491499 -0.555253,1.401134 -1.354216,2.735169 -2.322041,3.860793 -1.220334,0.02393 -1.614225,1.007172 -1.023013,1.977245 -0.214258,1.361669 -1.329553,2.360513 -1.982233,3.528087 -0.391771,1.26446 -2.755664,0.972309 -1.810197,2.642569 0.133585,1.716428 -1.737292,3.078217 -2.436776,4.593367 -0.825988,0.261637 -1.893963,0.559167 -1.382374,1.727822 0.634544,0.368433 1.269041,0.737185 1.905262,1.103468 0.635401,0.367704 1.271868,0.733043 1.908263,1.098272 1.267881,-0.141278 0.99156,-1.214937 0.80515,-2.061082 0.962416,-1.363347 1.206323,-3.664467 2.759585,-4.406994 1.91922,-0.01633 0.484265,-1.917447 1.383432,-2.888962 0.684827,-1.149014 0.992191,-2.614317 2.064314,-3.480697 1.135711,0.02697 1.790273,-0.805773 1.200838,-1.874578 0.490906,-1.400973 1.246732,-2.759914 2.182524,-3.941343 0.421394,-0.990955 2.439153,-0.704826 1.579805,-2.246689 -0.764576,-0.892164 1.84743,-2.367055 2.098227,-0.980774 0.06172,0.847659 -1.981634,1.947176 -0.209876,1.905049 3.404273,-0.02763 5.610162,-3.745017 1.593757,-6.216301 1.18165,-0.71748 1.922297,-2.079309 1.590359,-3.471649 -0.389519,-1.148085 -0.944906,-2.103371 -0.521218,-3.364876 z"
     style="fill:#000000;fill-opacity:1;stroke:none;stroke-width:0.27421px;stroke-linecap:butt;stroke-linejoin:miter;stroke-opacity:1"
     id="path872-3-6-8-2-11-5-5-1-4-5-0-3-6-2-6-6-3" />
  <path
     inkscape:transform-center-y="-13.590036"
     inkscape:transform-center-x="-13.687006"
     d="m 32.861861,44.243059 c 0.592428,1.191612 1.660633,1.474383 2.747883,2.010771 1.219248,0.749817 1.658491,2.236492 1.330272,3.57938 4.587492,-1.092567 5.656278,3.095821 3.268625,5.522547 -1.223034,1.28261 -0.555641,-0.939735 -1.19867,-1.495478 -1.157589,-0.802908 -1.961649,2.086965 -0.790157,2.177183 1.697914,0.482607 0.06882,1.707059 0.471551,2.705741 0.173693,1.497102 0.600158,2.992468 1.243673,4.330228 1.172558,0.338961 1.298546,1.390646 0.476406,2.174648 -0.145469,1.370725 0.673304,2.624194 1.001554,3.92091 0.05116,1.322772 2.410115,1.652396 1.064568,3.021039 -0.573277,1.623368 0.881395,3.422973 1.164894,5.067536 0.730127,0.466503 1.684705,1.030307 0.888078,2.026732 -0.70828,0.191647 -1.416597,0.383614 -2.12594,0.57275 -0.708919,0.190721 -1.418256,0.378882 -2.127495,0.566955 -1.188113,-0.464616 -0.643324,-1.430174 -0.244267,-2.199241 -0.576763,-1.565983 -0.216785,-3.851822 -1.524941,-4.971062 -1.849598,-0.512504 0.02851,-1.977449 -0.588574,-3.148582 -0.364106,-1.287108 -0.281748,-2.782034 -1.093104,-3.896379 -1.103993,-0.267892 -1.520721,-1.241673 -0.674744,-2.121503 -0.11158,-1.480291 -0.489932,-2.98855 -1.088061,-4.371923 -0.150558,-1.066254 -2.173619,-1.312109 -0.944489,-2.579019 0.969433,-0.663877 -1.171841,-2.76455 -1.772889,-1.490416 -0.279007,0.802801 1.410146,2.393712 -0.290338,1.894456 -3.281124,-0.907779 -4.449718,-5.069425 0.06945,-6.41698 -0.955689,-0.998866 -1.318631,-2.505986 -0.63764,-3.764971 0.673393,-1.00815 1.457102,-1.787141 1.374352,-3.115319 z"
     style="fill:#000000;fill-opacity:1;stroke:none;stroke-width:0.27421px;stroke-linecap:butt;stroke-linejoin:miter;stroke-opacity:1"
     id="path872-3-6-8-2-11-5-5-1-4-5-0-3-6-2-6-9-7" />
  <path
     id="path872-3-6-8-2-11-5-5-1-4-5-0-3-6-2-6-9-7-5"
     style="fill:#000000;fill-opacity:1;stroke:none;stroke-width:0.27421px;stroke-linecap:butt;stroke-linejoin:miter;stroke-opacity:1"
     d="m 64.261365,44.243059 c -0.592428,1.191612 -1.660633,1.474383 -2.747883,2.010771 -1.219248,0.749817 -1.658491,2.236492 -1.330272,3.57938 -4.587492,-1.092567 -5.656278,3.095821 -3.268625,5.522547 1.223034,1.28261 0.555641,-0.939735 1.19867,-1.495478 1.157589,-0.802908 1.961649,2.086965 0.790157,2.177183 -1.697914,0.482607 -0.06882,1.707059 -0.471551,2.705741 -0.173693,1.497102 -0.600158,2.992468 -1.243673,4.330228 -1.172558,0.338961 -1.298546,1.390646 -0.476406,2.174648 0.145469,1.370725 -0.673304,2.624194 -1.001554,3.92091 -0.05116,1.322772 -2.410115,1.652396 -1.064568,3.021039 0.573277,1.623368 -0.881395,3.422973 -1.164894,5.067536 -0.730127,0.466503 -1.684705,1.030307 -0.888078,2.026732 0.70828,0.191647 1.416597,0.383614 2.12594,0.57275 0.708919,0.190721 1.418256,0.378882 2.127495,0.566955 1.188113,-0.464616 0.643324,-1.430174 0.244267,-2.199241 0.576763,-1.565983 0.216785,-3.851822 1.524941,-4.971062 1.849598,-0.512504 -0.02851,-1.977449 0.588574,-3.148582 0.364106,-1.287108 0.281748,-2.782034 1.093104,-3.896379 1.103993,-0.267892 1.520721,-1.241673 0.674744,-2.121503 0.11158,-1.480291 0.489932,-2.98855 1.088061,-4.371923 0.150558,-1.066254 2.173619,-1.312109 0.944489,-2.579019 -0.969433,-0.663877 1.171841,-2.76455 1.772889,-1.490416 0.279007,0.802801 -1.410146,2.393712 0.290338,1.894456 3.281124,-0.907779 4.449718,-5.069425 -0.06945,-6.41698 0.955689,-0.998866 1.318631,-2.505986 0.63764,-3.764971 -0.673393,-1.00815 -1.457102,-1.787141 -1.374352,-3.115319 z"
     inkscape:transform-center-x="13.687006"
     inkscape:transform-center-y="-13.590036" />
</svg>
