<?xml version="1.0" encoding="UTF-8"?>
<svg version="1.1" viewBox="0 0 100 110" xmlns="http://www.w3.org/2000/svg" xmlns:cc="http://creativecommons.org/ns#" xmlns:dc="http://purl.org/dc/elements/1.1/" xmlns:rdf="http://www.w3.org/1999/02/22-rdf-syntax-ns#" xmlns:xlink="http://www.w3.org/1999/xlink">
 <metadata>
  <rdf:RDF>
   <cc:Work rdf:about="">
    <dc:format>image/svg+xml</dc:format>
    <dc:type rdf:resource="http://purl.org/dc/dcmitype/StillImage"/>
    <dc:title/>
   </cc:Work>
  </rdf:RDF>
 </metadata>
 <path id="use844" d="m6.443 9.874c0.4605 0.6941 0.2794 1.362 0.2299 2.118 0.02487 0.8955 0.6929 1.599 1.524 1.841-2.028 2.144-0.09203 4.034 1.97 3.5 1.078-0.2615-0.3355-0.5952-0.4354-1.117-0.07294-0.8788 1.745-0.4101 1.427 0.253-0.2697 1.072 0.9036 0.5715 1.319 1.102 0.7573 0.5626 1.434 1.262 1.958 2.029-0.1832 0.7418 0.3474 1.139 1.029 0.9389 0.7883 0.3501 1.212 1.186 1.811 1.77 0.7009 0.4416 0.1414 1.823 1.304 1.522 1.059 0.1973 1.579 1.549 2.382 2.217 0.02437 0.5416 0.03124 1.235 0.8205 1.116 0.3255-0.3239 0.6513-0.6476 0.9755-0.973 0.3252-0.3246 0.6489-0.6501 0.973-0.9755 0.12-0.7895-0.5738-0.7964-1.116-0.8205-0.6681-0.8026-2.02-1.323-2.217-2.382 0.301-1.163-1.081-0.6033-1.522-1.304-0.5837-0.6001-1.42-1.023-1.77-1.811 0.2002-0.6823-0.1971-1.213-0.9389-1.029-0.7672-0.5237-1.466-1.2-2.029-1.958-0.5307-0.4152-0.03098-1.588-1.102-1.319-0.6631 0.3177-1.132-1.5-0.253-1.427 0.5224 0.09996 0.8559 1.513 1.117 0.4354 0.5347-2.062-1.355-3.998-3.5-1.97-0.2423-0.8304-0.9457-1.499-1.841-1.524-0.7573 0.0495-1.425 0.2305-2.118-0.2299z" stroke-width=".6197"/>
 <use id="use877" transform="translate(45.34 48.85)" width="100%" height="100%" xlink:href="#use844"/>
 <use transform="translate(24.54 23.3)" width="100%" height="100%" xlink:href="#use877"/>
 <use id="use911" transform="translate(-23.04 -23.72)" width="100%" height="100%" xlink:href="#use877"/>
 <use transform="translate(21.74 -5.868)" width="100%" height="100%" xlink:href="#use844"/>
 <use id="use1008" transform="translate(27.74 -34.19)" width="100%" height="100%" xlink:href="#use877"/>
 <use id="use1010" transform="translate(25.74 -1.868)" width="100%" height="100%" xlink:href="#use911"/>
 <use transform="translate(25.47 23.47)" width="100%" height="100%" xlink:href="#use1010"/>
 <use transform="translate(-20,-20)" width="100%" height="100%" xlink:href="#use1008"/>
</svg>
