<?xml version="1.0" encoding="UTF-8"?>
<svg version="1.1" viewBox="0 0 100 110" xmlns="http://www.w3.org/2000/svg" xmlns:cc="http://creativecommons.org/ns#" xmlns:dc="http://purl.org/dc/elements/1.1/" xmlns:rdf="http://www.w3.org/1999/02/22-rdf-syntax-ns#" xmlns:xlink="http://www.w3.org/1999/xlink">
 <metadata>
  <rdf:RDF>
   <cc:Work rdf:about="">
    <dc:format>image/svg+xml</dc:format>
    <dc:type rdf:resource="http://purl.org/dc/dcmitype/StillImage"/>
    <dc:title/>
   </cc:Work>
  </rdf:RDF>
 </metadata>
 <path id="use844" d="m2.408 8.563c0.7733 1.166 0.4694 2.286 0.3862 3.558 0.04177 1.504 1.164 2.685 2.559 3.092-3.405 3.602-0.1546 6.776 3.309 5.878 1.81-0.4392-0.5634-0.9997-0.7313-1.877-0.1225-1.476 2.931-0.6888 2.397 0.425-0.453 1.799 1.518 0.9598 2.215 1.851 1.271 0.9449 2.409 2.119 3.288 3.408-0.3077 1.245 0.5834 1.913 1.729 1.577 1.324 0.588 2.035 1.992 3.043 2.972 1.177 0.7417 0.2375 3.062 2.19 2.557 1.779 0.3313 2.653 2.601 4.001 3.724 0.04093 0.9098 0.05247 2.075 1.378 1.874 0.5467-0.544 1.094-1.088 1.639-1.634 0.5462-0.5451 1.09-1.092 1.634-1.639 0.2015-1.326-0.9638-1.337-1.874-1.378-1.122-1.348-3.392-2.222-3.724-4.001 0.5055-1.953-1.815-1.013-2.557-2.19-0.9803-1.008-2.384-1.719-2.972-3.043 0.3363-1.146-0.3311-2.037-1.577-1.729-1.289-0.8795-2.463-2.017-3.408-3.288-0.8915-0.6974-0.05204-2.668-1.851-2.215-1.114 0.5336-1.901-2.52-0.425-2.397 0.8774 0.1679 1.438 2.542 1.877 0.7313 0.8981-3.464-2.276-6.715-5.878-3.309-0.407-1.395-1.588-2.517-3.092-2.559-1.272 0.08314-2.393 0.3871-3.558-0.3862z"/>
 <use id="use877" transform="translate(30.15 31.8)" width="100%" height="100%" xlink:href="#use844"/>
 <use transform="translate(33.8 31.78)" width="100%" height="100%" xlink:href="#use877"/>
</svg>
