<?xml version="1.0" encoding="UTF-8"?>
<svg version="1.1" viewBox="0 0 100 110" xmlns="http://www.w3.org/2000/svg" xmlns:cc="http://creativecommons.org/ns#" xmlns:dc="http://purl.org/dc/elements/1.1/" xmlns:rdf="http://www.w3.org/1999/02/22-rdf-syntax-ns#" xmlns:xlink="http://www.w3.org/1999/xlink">
 <metadata>
  <rdf:RDF>
   <cc:Work rdf:about="">
    <dc:format>image/svg+xml</dc:format>
    <dc:type rdf:resource="http://purl.org/dc/dcmitype/StillImage"/>
    <dc:title/>
   </cc:Work>
  </rdf:RDF>
 </metadata>
 <path id="path872-3-6-8-2-11-5-5-7" d="m17.52 87.46c2.298 0.4648 3.266 2.154 4.675 3.759 1.832 1.733 4.562 1.802 6.698 0.6316 0.2325 8.305 7.847 8.214 10.89 3.044 1.625-2.666-1.853-0.517-3.091-1.358-1.894-1.604 2.657-4.29 3.345-2.337 1.595 2.669 2.936-0.6613 4.819-0.4313 2.627-0.3871 5.366-0.3432 7.936 0.1419 1.111 1.841 2.959 1.576 3.918-0.1809 2.266-0.8726 4.773-0.05081 7.129-0.08348 2.274-0.5161 3.911 3.348 5.626 0.4341 2.501-1.716 6.227-0.06091 9.155-0.3283 1.127 1.03 2.521 2.397 3.854 0.5871 0.0033-1.293 0.0068-2.586 0.0052-3.879 0.0013-1.293-2e-3 -2.586-0.0052-3.879-1.332-1.81-2.727-0.4426-3.854 0.5871-2.928-0.2674-6.654 1.387-9.155-0.3283-1.715-2.914-3.352 0.9502-5.626 0.4341-2.356-0.03269-4.863 0.7891-7.129-0.08348-0.9593-1.757-2.806-2.022-3.918-0.1809-2.57 0.4851-5.309 0.529-7.936 0.1419-1.883 0.23-3.224-3.101-4.819-0.4313-0.6877 1.952-5.239-0.7336-3.345-2.337 1.239-0.8408 4.716 1.308 3.091-1.358-3.041-5.17-10.66-5.261-10.89 3.044-2.136-1.171-4.866-1.101-6.698 0.6316-1.409 1.606-2.377 3.294-4.675 3.759z"/>
 <use id="use833" transform="translate(0 -35.99)" width="100%" height="100%" xlink:href="#path872-3-6-8-2-11-5-5-7"/>
 <use transform="translate(0 -35.99)" width="100%" height="100%" xlink:href="#use833"/>
</svg>
