<?xml version="1.0" encoding="UTF-8" standalone="no"?>
<svg
   xmlns:dc="http://purl.org/dc/elements/1.1/"
   xmlns:cc="http://creativecommons.org/ns#"
   xmlns:rdf="http://www.w3.org/1999/02/22-rdf-syntax-ns#"
   xmlns:svg="http://www.w3.org/2000/svg"
   xmlns="http://www.w3.org/2000/svg"
   xmlns:sodipodi="http://sodipodi.sourceforge.net/DTD/sodipodi-0.dtd"
   xmlns:inkscape="http://www.inkscape.org/namespaces/inkscape"
   inkscape:version="1.0 (4035a4fb49, 2020-05-01)"
   sodipodi:docname="three.svg"
   id="svg23"
   version="1.1"
   viewBox="0 0 100 110">
  <metadata
     id="metadata29">
    <rdf:RDF>
      <cc:Work
         rdf:about="">
        <dc:format>image/svg+xml</dc:format>
        <dc:type
           rdf:resource="http://purl.org/dc/dcmitype/StillImage" />
        <dc:title></dc:title>
      </cc:Work>
    </rdf:RDF>
  </metadata>
  <defs
     id="defs27" />
  <sodipodi:namedview
     inkscape:snap-bbox-midpoints="true"
     inkscape:snap-bbox-edge-midpoints="true"
     inkscape:bbox-paths="true"
     inkscape:bbox-nodes="true"
     inkscape:snap-bbox="true"
     inkscape:document-rotation="0"
     inkscape:guide-bbox="true"
     showguides="true"
     inkscape:current-layer="svg23"
     inkscape:window-maximized="1"
     inkscape:window-y="0"
     inkscape:window-x="0"
     inkscape:cy="52.408028"
     inkscape:cx="26.730348"
     inkscape:zoom="4"
     showgrid="false"
     id="namedview25"
     inkscape:window-height="1020"
     inkscape:window-width="1920"
     inkscape:pageshadow="2"
     inkscape:pageopacity="0"
     guidetolerance="10"
     gridtolerance="10"
     objecttolerance="10"
     borderopacity="1"
     bordercolor="#666666"
     pagecolor="#ffffff" />
  <g
     style="fill:#501616"
     transform="matrix(0,1,1,0,45.343786,60.257881)"
     id="g989" />
  <path
     d="m 13.898726,46.886603 c 2.554255,0.516648 3.630536,2.393891 5.196202,4.178612 2.036274,1.926229 5.071012,2.003573 7.444795,0.702106 0.258476,9.231208 8.722708,9.130032 12.102819,3.383717 1.806237,-2.963502 -2.059175,-0.574725 -3.436297,-1.509373 -2.10545,-1.782687 2.953352,-4.768306 3.717758,-2.5981 1.77345,2.967075 3.263861,-0.735033 5.357036,-0.479412 2.919874,-0.430242 5.964577,-0.381469 8.82117,0.157741 1.235465,2.046146 3.288627,1.751429 4.354912,-0.201042 2.519057,-0.969896 5.305037,-0.05645 7.924208,-0.09279 2.528012,-0.573666 4.347123,3.721348 6.253997,0.482505 2.780118,-1.907165 6.921441,-0.0677 10.175896,-0.364971 1.252469,1.144628 2.802747,2.6645 4.283769,0.652617 0.0037,-1.436882 0.0076,-2.873991 0.0058,-4.31161 0.0014,-1.437618 -0.0022,-2.874727 -0.0058,-4.311609 -1.481022,-2.011885 -3.0313,-0.492011 -4.283769,0.652617 -3.254455,-0.297272 -7.395778,1.542194 -10.175896,-0.364972 -1.906874,-3.238842 -3.725985,1.056171 -6.253997,0.482506 -2.619171,-0.03634 -5.405151,0.877106 -7.924208,-0.09279 -1.066285,-1.952471 -3.119447,-2.247188 -4.354912,-0.201043 -2.856593,0.539211 -5.901296,0.587984 -8.82117,0.157742 -2.093175,0.255621 -3.583586,-3.446487 -5.357036,-0.479412 -0.764406,2.170206 -5.823208,-0.815414 -3.717758,-2.5981 1.377122,-0.934649 5.242534,1.454129 3.436297,-1.509373 -3.380111,-5.746316 -11.844343,-5.847491 -12.102819,3.383717 -2.373783,-1.301467 -5.408521,-1.224124 -7.444795,0.702105 -1.565666,1.784722 -2.641947,3.661964 -5.196202,4.178612 z"
     style="opacity:1;fill:#000000;fill-opacity:1;stroke:none;stroke-width:0.536979px;stroke-linecap:butt;stroke-linejoin:miter;stroke-opacity:1"
     id="path872-3-6-8-2-11-5-5" />
  <path
     id="path872-3-6-8-2-11-5-5-9"
     style="opacity:1;fill:#000000;fill-opacity:1;stroke:none;stroke-width:0.536979px;stroke-linecap:butt;stroke-linejoin:miter;stroke-opacity:1"
     d="m 13.898727,17.717691 c 2.554256,0.516648 3.630537,2.39389 5.196201,4.178612 2.036275,1.926228 5.071014,2.003572 7.444797,0.702105 0.258476,9.231208 8.722708,9.130033 12.102819,3.383717 1.806237,-2.963502 -2.059175,-0.574724 -3.436297,-1.509373 -2.10545,-1.782686 2.953351,-4.768306 3.717757,-2.5981 1.773451,2.967075 3.263861,-0.735033 5.357037,-0.479412 2.919874,-0.430242 5.964577,-0.381469 8.82117,0.157742 1.235464,2.046145 3.288626,1.751428 4.354911,-0.201043 2.519057,-0.969896 5.305036,-0.05645 7.924207,-0.09279 2.528012,-0.573665 4.347123,3.721348 6.253997,0.482505 2.780118,-1.907165 6.921441,-0.0677 10.175896,-0.364971 1.252469,1.144628 2.802754,2.664502 4.283769,0.652617 0.0037,-1.436882 0.0076,-2.873991 0.0058,-4.311609 0.0014,-1.437619 -0.0022,-2.874728 -0.0058,-4.31161 -1.481015,-2.011884 -3.0313,-0.492011 -4.283769,0.652617 -3.254455,-0.297272 -7.395778,1.542194 -10.175896,-0.364971 -1.906874,-3.238843 -3.725985,1.056171 -6.253997,0.482505 -2.619171,-0.03634 -5.40515,0.877106 -7.924207,-0.09279 -1.066285,-1.952471 -3.119447,-2.247188 -4.354911,-0.201043 -2.856593,0.539211 -5.901296,0.587984 -8.82117,0.157742 -2.093176,0.255621 -3.583586,-3.446487 -5.357037,-0.479411 -0.764406,2.170205 -5.823207,-0.815414 -3.717757,-2.598101 1.377122,-0.934651 5.242534,1.454129 3.436297,-1.5093737 C 35.262433,3.7069437 26.798201,3.6057647 26.539725,12.836973 24.165942,11.535506 21.131203,11.61285 19.094928,13.539079 17.529264,15.3238 16.452983,17.201043 13.898727,17.717691 Z" />
  <path
     id="path872-3-6-8-2-11-5-5-7"
     style="opacity:1;fill:#000000;fill-opacity:1;stroke:none;stroke-width:0.536979px;stroke-linecap:butt;stroke-linejoin:miter;stroke-opacity:1"
     d="m 13.898726,78.9332 c 2.554255,0.516647 3.630536,2.393888 5.196202,4.178612 2.036274,1.926234 5.071012,2.003574 7.444795,0.702108 0.258476,9.231206 8.722708,9.130026 12.102819,3.383716 1.806237,-2.9635 -2.059175,-0.57473 -3.436297,-1.50937 -2.10545,-1.78269 2.953352,-4.768306 3.717758,-2.598102 1.77345,2.967072 3.263861,-0.735037 5.357036,-0.479409 2.919874,-0.43025 5.964577,-0.381475 8.82117,0.157741 1.235465,2.04614 3.288627,1.75143 4.354912,-0.201044 2.519057,-0.969898 5.305037,-0.05648 7.924208,-0.09279 2.528012,-0.573666 4.347123,3.721344 6.253997,0.482502 2.780118,-1.907165 6.921441,-0.0677 10.175896,-0.364971 1.252469,1.144632 2.802747,2.664493 4.283769,0.652621 0.0037,-1.436881 0.0076,-2.873995 0.0058,-4.311613 0.0014,-1.437619 -0.0022,-2.874726 -0.0058,-4.311608 -1.481022,-2.011885 -3.0313,-0.492012 -4.283769,0.652617 -3.254455,-0.297272 -7.395778,1.542193 -10.175896,-0.364972 -1.906874,-3.238842 -3.725985,1.056171 -6.253997,0.482506 -2.619171,-0.03634 -5.405151,0.877106 -7.924208,-0.09279 -1.066285,-1.952471 -3.119447,-2.247189 -4.354912,-0.201043 -2.856593,0.53921 -5.901296,0.587984 -8.82117,0.157741 -2.093175,0.255622 -3.583586,-3.446486 -5.357036,-0.479411 -0.764406,2.170207 -5.823208,-0.815414 -3.717758,-2.5981 1.377122,-0.934649 5.242534,1.454128 3.436297,-1.509373 -3.380111,-5.746316 -11.844343,-5.847491 -12.102819,3.383716 -2.373783,-1.301466 -5.408521,-1.224123 -7.444795,0.702106 -1.565666,1.784722 -2.641947,3.661963 -5.196202,4.178611 z" />
</svg>
