<?xml version="1.0" encoding="UTF-8"?>
<svg version="1.1" viewBox="0 0 100 110" xmlns="http://www.w3.org/2000/svg" xmlns:cc="http://creativecommons.org/ns#" xmlns:dc="http://purl.org/dc/elements/1.1/" xmlns:rdf="http://www.w3.org/1999/02/22-rdf-syntax-ns#" xmlns:xlink="http://www.w3.org/1999/xlink">
 <metadata>
  <rdf:RDF>
   <cc:Work rdf:about="">
    <dc:format>image/svg+xml</dc:format>
    <dc:type rdf:resource="http://purl.org/dc/dcmitype/StillImage"/>
    <dc:title/>
   </cc:Work>
  </rdf:RDF>
 </metadata>
 <path id="path872-3-6-8-2-11-5-5" d="m29.54 6.428c-0.6449 3.188-2.988 4.532-5.216 6.486-2.404 2.542-2.501 6.33-0.8764 9.292-11.52 0.3226-11.4 10.89-4.223 15.11 3.699 2.255 0.7174-2.57 1.884-4.289 2.225-2.628 5.952 3.686 3.243 4.64-3.703 2.214 0.9175 4.074 0.5984 6.687 0.537 3.645 0.4761 7.445-0.1969 11.01-2.554 1.542-2.186 4.105 0.2509 5.436 1.211 3.144 0.07046 6.622 0.1158 9.891 0.716 3.155-4.645 5.426-0.6023 7.806 2.38 3.47 0.0845 8.639 0.4556 12.7-1.429 1.563-3.326 3.498-0.8146 5.347 1.793 5e-3 3.587 0.01 5.382 7e-3 1.794 2e-3 3.588-3e-3 5.382-7e-3 2.511-1.849 0.6141-3.784-0.8146-5.347 0.371-4.062-1.925-9.231 0.4556-12.7 4.043-2.38-1.318-4.651-0.6023-7.806 0.04536-3.269-1.095-6.747 0.1158-9.891 2.437-1.331 2.805-3.894 0.2509-5.436-0.673-3.566-0.7339-7.366-0.1969-11.01-0.3191-2.613 4.302-4.473 0.5984-6.687-2.709-0.9541 1.018-7.268 3.243-4.64 1.167 1.719-1.815 6.544 1.884 4.289 7.172-4.219 7.299-14.78-4.223-15.11 1.624-2.963 1.528-6.751-0.8764-9.292-2.228-1.954-4.571-3.298-5.216-6.486z"/>
 <use transform="translate(40)" width="100%" height="100%" xlink:href="#path872-3-6-8-2-11-5-5"/>
</svg>
