<?xml version="1.0" encoding="UTF-8" standalone="no"?>
<svg
   xmlns:dc="http://purl.org/dc/elements/1.1/"
   xmlns:cc="http://creativecommons.org/ns#"
   xmlns:rdf="http://www.w3.org/1999/02/22-rdf-syntax-ns#"
   xmlns:svg="http://www.w3.org/2000/svg"
   xmlns="http://www.w3.org/2000/svg"
   xmlns:sodipodi="http://sodipodi.sourceforge.net/DTD/sodipodi-0.dtd"
   xmlns:inkscape="http://www.inkscape.org/namespaces/inkscape"
   inkscape:version="1.0 (4035a4fb49, 2020-05-01)"
   sodipodi:docname="two.svg"
   id="svg23"
   version="1.1"
   viewBox="0 0 100 110">
  <metadata
     id="metadata29">
    <rdf:RDF>
      <cc:Work
         rdf:about="">
        <dc:format>image/svg+xml</dc:format>
        <dc:type
           rdf:resource="http://purl.org/dc/dcmitype/StillImage" />
        <dc:title></dc:title>
      </cc:Work>
    </rdf:RDF>
  </metadata>
  <defs
     id="defs27" />
  <sodipodi:namedview
     inkscape:snap-bbox-midpoints="true"
     inkscape:snap-bbox-edge-midpoints="true"
     inkscape:bbox-paths="true"
     inkscape:bbox-nodes="true"
     inkscape:snap-bbox="true"
     inkscape:document-rotation="0"
     inkscape:guide-bbox="true"
     showguides="true"
     inkscape:current-layer="svg23"
     inkscape:window-maximized="1"
     inkscape:window-y="0"
     inkscape:window-x="0"
     inkscape:cy="46.735781"
     inkscape:cx="26.730348"
     inkscape:zoom="4"
     showgrid="false"
     id="namedview25"
     inkscape:window-height="1020"
     inkscape:window-width="1920"
     inkscape:pageshadow="2"
     inkscape:pageopacity="0"
     guidetolerance="10"
     gridtolerance="10"
     objecttolerance="10"
     borderopacity="1"
     bordercolor="#666666"
     pagecolor="#ffffff" />
  <g
     style="fill:#501616"
     transform="matrix(0,1,1,0,45.343786,60.257881)"
     id="g989" />
  <path
     d="m 4.9390243,62.644682 c 3.1881766,0.644871 4.5315717,2.988012 6.4858077,5.21567 2.541642,2.404285 6.329549,2.500824 9.292463,0.876356 0.322625,11.522231 10.887531,11.395945 15.106526,4.223496 2.254513,-3.698991 -2.570226,-0.717361 -4.289126,-1.883973 -2.627985,-2.225118 3.686322,-5.951716 4.64044,-3.242903 2.21359,3.703451 4.073894,-0.917455 6.686559,-0.598393 3.644535,-0.537021 7.44488,-0.476143 11.010429,0.19689 1.542085,2.553963 4.104806,2.186102 5.435724,-0.250938 3.144243,-1.210607 6.621654,-0.07046 9.890857,-0.115819 3.15542,-0.716039 5.426003,4.644921 7.80613,0.602255 3.470094,-2.38049 8.63922,-0.0845 12.701374,-0.455551 1.56331,1.428705 3.498339,3.325783 5.346925,0.814585 0.0046,-1.793491 0.0095,-3.587265 0.0073,-5.381675 0.0018,-1.79441 -0.0027,-3.588184 -0.0073,-5.381675 -1.848586,-2.511199 -3.783615,-0.61412 -5.346925,0.814585 -4.062154,-0.37105 -9.23128,1.924939 -12.701374,-0.455551 -2.380127,-4.042666 -4.65071,1.318294 -7.80613,0.602255 -3.269203,-0.04536 -6.746614,1.094788 -9.890857,-0.115819 -1.330918,-2.43704 -3.893639,-2.804901 -5.435724,-0.250938 -3.565549,0.673033 -7.365894,0.733911 -11.010429,0.19689 -2.612665,0.319062 -4.472969,-4.301844 -6.686559,-0.598393 -0.954118,2.708813 -7.268425,-1.017785 -4.64044,-3.242903 1.7189,-1.166612 6.543639,1.815018 4.289126,-1.883973 -4.218995,-7.17245 -14.783901,-7.298735 -15.106526,4.223496 -2.962914,-1.624468 -6.750821,-1.527929 -9.292463,0.876356 -1.954236,2.227658 -3.2976311,4.570799 -6.4858077,5.21567 z"
     style="opacity:1;fill:#000000;fill-opacity:1;stroke:none;stroke-width:0.670248px;stroke-linecap:butt;stroke-linejoin:miter;stroke-opacity:1"
     id="path872-3-6-8-2-11-5-5" />
  <path
     id="path872-3-6-8-2-11-5-5-9"
     style="opacity:1;fill:#000000;fill-opacity:1;stroke:none;stroke-width:0.670248px;stroke-linecap:butt;stroke-linejoin:miter;stroke-opacity:1"
     d="m 4.9390261,26.236558 c 3.1881766,0.644871 4.5315717,2.988012 6.4858069,5.21567 2.541642,2.404285 6.32955,2.500824 9.292464,0.876356 0.322625,11.522231 10.887531,11.395946 15.106526,4.223496 2.254513,-3.698991 -2.570226,-0.717361 -4.289126,-1.883973 -2.627985,-2.225118 3.686322,-5.951716 4.64044,-3.242903 2.21359,3.703451 4.073893,-0.917455 6.686559,-0.598393 3.644535,-0.537021 7.44488,-0.476143 11.010429,0.19689 1.542085,2.553963 4.104805,2.186102 5.435724,-0.250938 3.144242,-1.210607 6.621652,-0.07046 9.890855,-0.115819 3.15542,-0.716039 5.426003,4.644921 7.80613,0.602255 3.470094,-2.38049 8.63922,-0.0845 12.701374,-0.455551 1.56331,1.428705 3.498348,3.325784 5.346925,0.814585 0.0046,-1.793491 0.0095,-3.587265 0.0073,-5.381675 0.0018,-1.79441 -0.0027,-3.588184 -0.0073,-5.381675 -1.848577,-2.511198 -3.783615,-0.61412 -5.346925,0.814585 -4.062154,-0.37105 -9.23128,1.924939 -12.701374,-0.455551 -2.380127,-4.042666 -4.65071,1.318294 -7.80613,0.602255 -3.269203,-0.04536 -6.746613,1.094788 -9.890855,-0.115819 -1.330919,-2.43704 -3.893639,-2.804901 -5.435724,-0.250938 -3.565549,0.673033 -7.365894,0.733911 -11.010429,0.19689 -2.612666,0.319062 -4.472969,-4.301844 -6.686559,-0.598392 -0.954118,2.708812 -7.268425,-1.017786 -4.64044,-3.242904 1.7189,-1.166615 6.543639,1.815018 4.289126,-1.883974 -4.218995,-7.1724457 -14.783901,-7.2987357 -15.106526,4.223497 -2.962914,-1.624468 -6.750822,-1.527929 -9.292464,0.876356 -1.9542352,2.227658 -3.2976303,4.570799 -6.4858069,5.21567 z" />
</svg>
