<?xml version="1.0" encoding="UTF-8"?>
<svg version="1.1" viewBox="0 0 100 110" xmlns="http://www.w3.org/2000/svg" xmlns:cc="http://creativecommons.org/ns#" xmlns:dc="http://purl.org/dc/elements/1.1/" xmlns:rdf="http://www.w3.org/1999/02/22-rdf-syntax-ns#" xmlns:xlink="http://www.w3.org/1999/xlink">
 <metadata>
  <rdf:RDF>
   <cc:Work rdf:about="">
    <dc:format>image/svg+xml</dc:format>
    <dc:type rdf:resource="http://purl.org/dc/dcmitype/StillImage"/>
    <dc:title/>
   </cc:Work>
  </rdf:RDF>
 </metadata>
 <path id="use844" d="m7.154 8.903c1.037 1.563 0.6292 3.065 0.5178 4.77 0.056 2.016 1.561 3.6 3.431 4.145-4.566 4.829-0.2073 9.084 4.436 7.88 2.427-0.5888-0.7553-1.34-0.9805-2.516-0.1642-1.978 3.929-0.9235 3.214 0.5697-0.6073 2.412 2.035 1.287 2.97 2.482 1.705 1.267 3.229 2.841 4.408 4.569-0.4125 1.67 0.7822 2.564 2.318 2.114 1.775 0.7882 2.728 2.671 4.079 3.985 1.578 0.9944 0.3184 4.105 2.937 3.428 2.385 0.4442 3.556 3.487 5.363 4.992 0.05487 1.22 0.07034 2.782 1.848 2.512 0.733-0.7293 1.466-1.459 2.197-2.191 0.7322-0.7308 1.462-1.464 2.191-2.197 0.2701-1.777-1.292-1.793-2.512-1.848-1.505-1.807-4.548-2.978-4.992-5.363 0.6777-2.618-2.433-1.358-3.428-2.937-1.314-1.351-3.197-2.304-3.985-4.079 0.4509-1.536-0.4438-2.731-2.114-2.318-1.728-1.179-3.302-2.704-4.569-4.408-1.195-0.935-0.06976-3.577-2.482-2.97-1.493 0.7153-2.548-3.378-0.5697-3.214 1.176 0.2251 1.928 3.407 2.516 0.9805 1.204-4.644-3.051-9.002-7.88-4.436-0.5456-1.87-2.129-3.375-4.145-3.431-1.705 0.1115-3.208 0.519-4.77-0.5178z"/>
 <use transform="translate(44.16 47.87)" width="100%" height="100%" xlink:href="#use844"/>
</svg>
