<?xml version="1.0" encoding="UTF-8"?>
<svg version="1.1" viewBox="0 0 100 110" xmlns="http://www.w3.org/2000/svg" xmlns:cc="http://creativecommons.org/ns#" xmlns:dc="http://purl.org/dc/elements/1.1/" xmlns:rdf="http://www.w3.org/1999/02/22-rdf-syntax-ns#">
 <metadata>
  <rdf:RDF>
   <cc:Work rdf:about="">
    <dc:format>image/svg+xml</dc:format>
    <dc:type rdf:resource="http://purl.org/dc/dcmitype/StillImage"/>
    <dc:title/>
   </cc:Work>
  </rdf:RDF>
 </metadata>
 <text x="-52.679455" y="21.611652" fill="#000000" font-family="monospace" font-size="16px" letter-spacing="0px" word-spacing="0px" style="font-feature-settings:normal;font-variant-caps:normal;font-variant-ligatures:normal;font-variant-numeric:normal;line-height:20px" xml:space="preserve"/>
 <text x="-52.414291" y="15.998991" fill="#000000" font-family="monospace" font-size="16px" letter-spacing="0px" word-spacing="0px" style="font-feature-settings:normal;font-variant-caps:normal;font-variant-ligatures:normal;font-variant-numeric:normal;line-height:20px" xml:space="preserve"/>
 <path d="m50.76 12.75c-2.767 7.8e-4 -5.01 2.244-5.01 5.012 1e-3 1.341 0.5403 2.626 1.496 3.566v7.387h-9.088v6.99h8.389c0 9.447 3.713 28.82-5.127 35.19-2.269 1.193-5.21 0.6496-7.689 0-2.759-0.7227-5.703-1.948-7.459-4.195-1.984-2.539-2.562-9.322-2.562-9.322l5.594 3.963-8.391-16.78-4.195 17.01 3.963-3.729s-0.131 9.185 1.631 13.28c1.591 3.701 4.271 7.195 7.691 9.322 6.032 3.751 13.64-2.68 20.74-2.68 7.104 7e-5 14.71 6.431 20.74 2.68 3.421-2.127 6.1-5.621 7.691-9.322 1.762-4.099 1.631-13.28 1.631-13.28l3.961 3.729-4.195-17.01-8.389 16.78 5.594-3.963s-0.58 6.783-2.564 9.322c-1.756 2.247-4.698 3.473-7.457 4.195-2.48 0.6496-5.423 1.193-7.691 0-8.84-6.372-5.127-25.74-5.127-35.19h8.391v-6.99h-9.09v-7.346c0.9797-0.9444 1.533-2.247 1.533-3.607 2.9e-4 -2.768-2.244-5.012-5.012-5.012zm-0.0977 2.203c0.4388-0.0155 0.8791 0.0631 1.279 0.2383 0.4002 0.1752 0.7585 0.4473 1.029 0.8164 0.3939 0.4938 0.6148 1.122 0.6133 1.754 0.0174 0.4576-0.0961 0.8934-0.3008 1.279-0.2047 0.3859-0.502 0.722-0.8555 0.9824-0.3535 0.2605-0.7622 0.444-1.191 0.5254-0.4292 0.0814-0.879 0.0614-1.311-0.0898-0.442-0.1187-0.8246-0.3545-1.133-0.6641-0.3082-0.3095-0.541-0.6928-0.6856-1.107-0.1446-0.4146-0.1994-0.8609-0.1504-1.295 0.049-0.434 0.2021-0.8569 0.4746-1.225 0.244-0.3873 0.582-0.6837 0.9688-0.8867 0.3868-0.203 0.8229-0.3126 1.262-0.3281z"/>
</svg>
