<?xml version="1.0" encoding="UTF-8"?>
<svg version="1.1" viewBox="0 0 100 110" xmlns="http://www.w3.org/2000/svg" xmlns:cc="http://creativecommons.org/ns#" xmlns:dc="http://purl.org/dc/elements/1.1/" xmlns:rdf="http://www.w3.org/1999/02/22-rdf-syntax-ns#">
 <metadata>
  <rdf:RDF>
   <cc:Work rdf:about="">
    <dc:format>image/svg+xml</dc:format>
    <dc:type rdf:resource="http://purl.org/dc/dcmitype/StillImage"/>
    <dc:title/>
   </cc:Work>
  </rdf:RDF>
 </metadata>
 <text x="-52.679455" y="21.611652" fill="#000000" font-family="monospace" font-size="16px" letter-spacing="0px" word-spacing="0px" style="font-feature-settings:normal;font-variant-caps:normal;font-variant-ligatures:normal;font-variant-numeric:normal;line-height:20px" xml:space="preserve"/>
 <text x="-52.414291" y="15.998991" fill="#000000" font-family="monospace" font-size="16px" letter-spacing="0px" word-spacing="0px" style="font-feature-settings:normal;font-variant-caps:normal;font-variant-ligatures:normal;font-variant-numeric:normal;line-height:20px" xml:space="preserve"/>
 <path d="m90.12 11.17c-1.641-1.64-4.301-1.64-5.942 8.4e-4 -0.7946 0.7958-1.236 1.877-1.228 3.002l-4.38 4.38-5.388-5.388-4.145 4.145 4.974 4.974c-5.601 5.601-14.89 19.29-23.91 17.83-2.053-0.6376-3.474-2.704-4.559-4.559-1.207-2.064-2.226-4.536-1.935-6.91 0.3289-2.682 4.008-7.047 4.008-7.047l0.967 5.666 4.974-14.92-12.57 7.599 4.56 0.139s-5.523 5.368-6.909 8.843c-1.251 3.138-1.734 6.798-0.967 10.09 1.352 5.801 9.674 6.497 13.89 10.71 4.212 4.212 4.909 12.53 10.71 13.89 3.29 0.7669 6.95 0.284 10.09-0.967 3.475-1.385 8.843-6.909 8.843-6.909l0.1378 4.559 7.599-12.57-14.92 4.975 5.666 0.967s-4.366 3.678-7.048 4.007c-2.374 0.2911-4.844-0.7266-6.909-1.934-1.856-1.085-3.923-2.508-4.56-4.56-1.464-9.019 12.22-18.3 17.83-23.91l4.975 4.975 4.145-4.145-5.39-5.39 4.355-4.355c1.141 0.0209 2.241-0.4231 3.048-1.23 1.641-1.641 1.641-4.302-1e-5 -5.943zm-1.364 1.248c0.2694 0.251 0.4838 0.5587 0.6172 0.8998 0.1334 0.3411 0.1845 0.7149 0.1262 1.094-0.0592 0.5264-0.3009 1.03-0.6763 1.404-0.261 0.2816-0.5867 0.4728-0.9369 0.5802-0.3501 0.1074-0.7257 0.1304-1.09 0.0753-0.364-0.0552-0.7152-0.1887-1.018-0.3949-0.3027-0.2062-0.5576-0.4848-0.7238-0.8303-0.1917-0.3325-0.2787-0.6991-0.2779-1.065 7.7e-4 -0.3663 0.09-0.7315 0.2501-1.063 0.1601-0.3316 0.3922-0.6287 0.6786-0.857 0.2864-0.2283 0.6278-0.3882 1.007-0.4447 0.3743-0.085 0.7504-0.0603 1.1 0.0486 0.3497 0.109 0.6732 0.3026 0.9426 0.5535z"/>
</svg>
