<?xml version="1.0" encoding="UTF-8"?>
<svg version="1.1" viewBox="0 0 100 110" xmlns="http://www.w3.org/2000/svg" xmlns:cc="http://creativecommons.org/ns#" xmlns:dc="http://purl.org/dc/elements/1.1/" xmlns:rdf="http://www.w3.org/1999/02/22-rdf-syntax-ns#">
 <metadata>
  <rdf:RDF>
   <cc:Work rdf:about="">
    <dc:format>image/svg+xml</dc:format>
    <dc:type rdf:resource="http://purl.org/dc/dcmitype/StillImage"/>
    <dc:title/>
   </cc:Work>
  </rdf:RDF>
 </metadata>
 <text x="-52.679455" y="21.611652" fill="#000000" font-family="monospace" font-size="16px" letter-spacing="0px" word-spacing="0px" style="font-feature-settings:normal;font-variant-caps:normal;font-variant-ligatures:normal;font-variant-numeric:normal;line-height:20px" xml:space="preserve"/>
 <text x="-52.414291" y="15.998991" fill="#000000" font-family="monospace" font-size="16px" letter-spacing="0px" word-spacing="0px" style="font-feature-settings:normal;font-variant-caps:normal;font-variant-ligatures:normal;font-variant-numeric:normal;line-height:20px" xml:space="preserve"/>
 <path d="m42.06 39.25c-4.903-0.3182-10.15-0.5138-14.43-3.197-3.596-2.28-3.991-8.01-0.6634-10.71 2.381-2.256 6.826-2.526 8.709 0.5052 2.664 4.129 3.081 9.201 3.716 13.95 0.677 7.682 1.113 15.61-0.9625 23.13-0.9622 3.499-3.327 7.438-7.355 7.658-3.429 0.3949-7.345-2.774-6.28-6.416 1.228-3.4 4.851-5.074 7.918-6.479 8.402-3.39 17.68-3.721 26.62-3.162 4.73 0.487 9.922 0.9272 13.78 4.003 2.642 1.993 3.09 6.176 0.6747 8.525-3.165 3.67-9.674 3.745-12.56-0.2945-3.303-4.642-3.707-10.59-4.039-16.1-0.1876-6.803-0.0624-13.7 1.449-20.36 0.7218-3.358 2.959-6.751 6.607-7.293 3.116-0.8049 6.749 0.7868 7.733 3.968 1.182 2.511-0.1216 5.356-2.205 6.931-5.121 4.197-12.05 4.794-18.41 5.267-3.432 0.1996-6.874 0.223-10.31 0.0759z" fill="none" stroke="#000" stroke-width="4.466"/>
</svg>
