<?xml version="1.0" encoding="UTF-8"?>
<svg version="1.1" viewBox="0 0 100 110" xmlns="http://www.w3.org/2000/svg" xmlns:cc="http://creativecommons.org/ns#" xmlns:dc="http://purl.org/dc/elements/1.1/" xmlns:rdf="http://www.w3.org/1999/02/22-rdf-syntax-ns#">
 <metadata>
  <rdf:RDF>
   <cc:Work rdf:about="">
    <dc:format>image/svg+xml</dc:format>
    <dc:type rdf:resource="http://purl.org/dc/dcmitype/StillImage"/>
    <dc:title/>
   </cc:Work>
  </rdf:RDF>
 </metadata>
 <text x="-52.679455" y="21.611652" fill="#000000" font-family="monospace" font-size="16px" letter-spacing="0px" word-spacing="0px" style="font-feature-settings:normal;font-variant-caps:normal;font-variant-ligatures:normal;font-variant-numeric:normal;line-height:20px" xml:space="preserve"/>
 <text x="-52.414291" y="15.998991" fill="#000000" font-family="monospace" font-size="16px" letter-spacing="0px" word-spacing="0px" style="font-feature-settings:normal;font-variant-caps:normal;font-variant-ligatures:normal;font-variant-numeric:normal;line-height:20px" xml:space="preserve"/>
 <circle transform="scale(-1)" cx="-50.44" cy="-51.79" r="3.75" fill="none" stroke="#000" stroke-linejoin="bevel" stroke-width="1.875" style="paint-order:markers stroke fill"/>
 <g transform="matrix(.75 0 0 .75 12.61 9.744)">
  <path d="m50.44 121.9 0.7334-1.782s0.3075-0.5914 0.5236-0.8204c0.3209-0.34 0.7569-0.5499 1.111-0.7831 2.637-1.736 3.244-4.924 1.487-7.845 6.425 1.476 7.967-5.339 3.889-9.234-1.126-0.5722-1.485-0.6575-2.443-0.982 0.1941 0.6086 0.4808 1.084 0.5827 1.56 0.5081 2.372-1.47 3.451-2.558 1.053-0.2735-0.7668-0.4187-1.526-0.4692-2.276h0.7924l1.063-1.53-1.063-1.529h-0.5469c0.04134-0.2044 0.08392-0.4096 0.1321-0.6122 0 0-0.2758-1.921-0.418-3.967 0.1422-2.046 0.418-3.968 0.418-3.968-0.04816-0.2026-0.09074-0.4078-0.1321-0.6122h0.5469l1.063-1.529-1.063-1.53h-0.5469c-0.9066-1.417 0.1321-8.547 0.1321-8.547-0.04816-0.2026-0.09074-0.4078-0.1321-0.6122h0.5469l1.063-1.527-1.063-1.53h-0.5469c-0.9066-1.417 0.1321-8.547 0.1321-8.547-0.04816-0.2026-0.09074-0.4078-0.1321-0.6122h0.5469l1.063-1.529-1.063-1.53h-7.3l-1.063 1.53 1.063 1.529h0.5469c-0.04136 0.2044-0.08394 0.4096-0.1321 0.6122 0 0 1.039 7.13 0.1321 8.547h-0.5469l-1.063 1.53 1.063 1.527h0.5469c-0.04136 0.2044-0.08394 0.4096-0.1321 0.6122 0 0 1.039 7.13 0.1321 8.547h-0.5469l-1.063 1.53 1.063 1.529h0.5469c-0.04136 0.2044-0.08394 0.4096-0.1321 0.6122 0 0 0.2758 1.922 0.418 3.968-0.1422 2.046-0.418 3.967-0.418 3.967 0.04814 0.2026 0.09072 0.4078 0.1321 0.6122h-0.5469l-1.063 1.529 1.063 1.53h0.7924c-0.05056 0.7501-0.1957 1.509-0.4692 2.276-1.087 2.397-3.066 1.318-2.558-1.053 0.1019-0.4756 0.3886-0.9514 0.5827-1.56-0.9574 0.3245-1.316 0.4098-2.443 0.982-4.078 3.895-2.536 10.71 3.889 9.234-1.757 2.921-1.15 6.109 1.487 7.845 0.3541 0.2332 0.79 0.4432 1.111 0.7831 0.2162 0.229 0.5236 0.8204 0.5236 0.8204z"/>
  <path d="m116.3 56.06-1.782-0.7334s-0.5914-0.3075-0.8204-0.5236c-0.34-0.3209-0.5499-0.7569-0.7831-1.111-1.736-2.637-4.924-3.244-7.845-1.487 1.476-6.425-5.339-7.967-9.234-3.889-0.5722 1.126-0.6575 1.485-0.982 2.443 0.6085-0.1941 1.084-0.4808 1.56-0.5827 2.372-0.5081 3.451 1.47 1.053 2.558-0.7668 0.2735-1.526 0.4187-2.276 0.4692v-0.7924l-1.53-1.063-1.529 1.063v0.5469c-0.2044-0.04134-0.4096-0.08392-0.6122-0.1321 0 0-1.921 0.2758-3.967 0.418-2.046-0.1422-3.968-0.418-3.968-0.418-0.2026 0.04816-0.4078 0.09074-0.6122 0.1321v-0.5469l-1.529-1.063-1.53 1.063v0.5469c-1.417 0.9066-8.547-0.1321-8.547-0.1321-0.2026 0.04816-0.4078 0.09074-0.6122 0.1321v-0.5469l-1.527-1.063-1.53 1.063v0.5469c-1.417 0.9066-8.547-0.1321-8.547-0.1321-0.2026 0.04816-0.4078 0.09074-0.6122 0.1321v-0.5469l-1.529-1.063-1.53 1.063v7.3l1.53 1.063 1.529-1.063v-0.5469c0.2044 0.04136 0.4096 0.08394 0.6122 0.1321 0 0 7.13-1.039 8.547-0.1321v0.5469l1.53 1.063 1.527-1.063v-0.5469c0.2044 0.04136 0.4096 0.08394 0.6122 0.1321 0 0 7.13-1.039 8.547-0.1321v0.5469l1.53 1.063 1.529-1.063v-0.5469c0.2044 0.04136 0.4096 0.08394 0.6122 0.1321 0 0 1.922-0.2758 3.968-0.418 2.046 0.1422 3.967 0.418 3.967 0.418 0.2026-0.04814 0.4078-0.09072 0.6122-0.1321v0.5469l1.529 1.063 1.53-1.063v-0.7924c0.7501 0.05056 1.509 0.1957 2.276 0.4692 2.397 1.087 1.318 3.066-1.053 2.558-0.4756-0.1019-0.9514-0.3886-1.56-0.5827 0.3245 0.9574 0.4098 1.316 0.982 2.443 3.895 4.078 10.71 2.536 9.234-3.889 2.921 1.757 6.109 1.15 7.845-1.487 0.2332-0.3541 0.4432-0.79 0.7831-1.111 0.229-0.2162 0.8204-0.5236 0.8204-0.5236z"/>
  <path d="m-15.38 56.06 1.782-0.7334s0.5914-0.3075 0.8204-0.5236c0.34-0.3209 0.5499-0.7569 0.7831-1.111 1.736-2.637 4.924-3.244 7.845-1.487-1.476-6.425 5.339-7.967 9.234-3.889 0.5722 1.126 0.6575 1.485 0.982 2.443-0.6085-0.1941-1.084-0.4808-1.56-0.5827-2.372-0.5081-3.451 1.47-1.053 2.558 0.7668 0.2735 1.526 0.4187 2.276 0.4692v-0.7924l1.53-1.063 1.529 1.063v0.5469c0.2044-0.04134 0.4096-0.08392 0.6122-0.1321 0 0 1.921 0.2758 3.967 0.418 2.046-0.1422 3.968-0.418 3.968-0.418 0.2026 0.04816 0.4078 0.09074 0.6122 0.1321v-0.5469l1.529-1.063 1.53 1.063v0.5469c1.417 0.9066 8.547-0.1321 8.547-0.1321 0.2026 0.04816 0.4078 0.09074 0.6122 0.1321v-0.5469l1.527-1.063 1.53 1.063v0.5469c1.417 0.9066 8.547-0.1321 8.547-0.1321 0.2026 0.04816 0.4078 0.09074 0.6122 0.1321v-0.5469l1.529-1.063 1.53 1.063v7.3l-1.53 1.063-1.529-1.063v-0.5469c-0.2044 0.04136-0.4096 0.08394-0.6122 0.1321 0 0-7.13-1.039-8.547-0.1321v0.5469l-1.53 1.063-1.527-1.063v-0.5469c-0.2044 0.04136-0.4096 0.08394-0.6122 0.1321 0 0-7.13-1.039-8.547-0.1321v0.5469l-1.53 1.063-1.529-1.063v-0.5469c-0.2044 0.04136-0.4096 0.08394-0.6122 0.1321 0 0-1.922-0.2758-3.968-0.418-2.046 0.1422-3.967 0.418-3.967 0.418-0.2026-0.04814-0.4078-0.09072-0.6122-0.1321v0.5469l-1.529 1.063-1.53-1.063v-0.7924c-0.7501 0.05056-1.509 0.1957-2.276 0.4692-2.397 1.087-1.318 3.066 1.053 2.558 0.4756-0.1019 0.9514-0.3886 1.56-0.5827-0.3245 0.9574-0.4098 1.316-0.982 2.443-3.895 4.078-10.71 2.536-9.234-3.889-2.921 1.757-6.109 1.15-7.845-1.487-0.2332-0.3541-0.4432-0.79-0.7831-1.111-0.229-0.2162-0.8204-0.5236-0.8204-0.5236z"/>
  <path d="m50.44-9.764-0.7334 1.782s-0.3075 0.5914-0.5236 0.8204c-0.3209 0.3399-0.7569 0.5499-1.111 0.7831-2.637 1.736-3.244 4.924-1.487 7.845-6.425-1.476-7.967 5.339-3.889 9.234 1.126 0.5722 1.485 0.6575 2.443 0.982-0.1941-0.6085-0.4808-1.084-0.5827-1.56-0.5081-2.372 1.47-3.451 2.558-1.053 0.2735 0.7668 0.4187 1.526 0.4692 2.276h-0.7924l-1.063 1.53 1.063 1.529h0.5469c-0.04134 0.2044-0.08392 0.4096-0.1321 0.6122 0 0 0.2758 1.921 0.418 3.967-0.1422 2.046-0.418 3.968-0.418 3.968 0.04816 0.2026 0.09074 0.4078 0.1321 0.6122h-0.5469l-1.063 1.529 1.063 1.53h0.5469c0.9066 1.417-0.1321 8.547-0.1321 8.547 0.04816 0.2026 0.09074 0.4078 0.1321 0.6122h-0.5469l-1.063 1.527 1.063 1.53h0.5469c0.9066 1.417-0.1321 8.547-0.1321 8.547 0.04816 0.2026 0.09074 0.4078 0.1321 0.6122h-0.5469l-1.063 1.529 1.063 1.53h7.3l1.063-1.53-1.063-1.529h-0.5469c0.04136-0.2044 0.08394-0.4096 0.1321-0.6122 0 0-1.039-7.13-0.1321-8.547h0.5469l1.063-1.53-1.063-1.527h-0.5469c0.04136-0.2044 0.08394-0.4096 0.1321-0.6122 0 0-1.039-7.13-0.1321-8.547h0.5469l1.063-1.53-1.063-1.529h-0.5469c0.04136-0.2044 0.08394-0.4096 0.1321-0.6122 0 0-0.2758-1.922-0.418-3.968 0.1422-2.046 0.418-3.967 0.418-3.967-0.04814-0.2026-0.09072-0.4078-0.1321-0.6122h0.5469l1.063-1.529-1.063-1.53h-0.7924c0.05056-0.7501 0.1957-1.509 0.4692-2.276 1.087-2.397 3.066-1.318 2.558 1.053-0.1019 0.4756-0.3886 0.9514-0.5827 1.56 0.9574-0.3245 1.316-0.4098 2.443-0.982 4.078-3.895 2.536-10.71-3.889-9.234 1.757-2.921 1.15-6.109-1.487-7.845-0.3541-0.2332-0.79-0.4432-1.111-0.7831-0.2162-0.229-0.5236-0.8204-0.5236-0.8204z"/>
  <path d="m3.9 102.6 1.779-0.7416s0.6356-0.2008 0.9504-0.2098c0.4673-0.0134 0.924 0.1463 1.339 0.2318 3.092 0.6366 5.776-1.188 6.599-4.496 3.499 5.587 9.409 1.859 9.28-3.779-0.3918-1.201-0.5852-1.515-1.033-2.422-0.2931 0.5675-0.4268 1.107-0.6911 1.515-1.318 2.037-3.48 1.4-2.553-1.064 0.3488-0.7356 0.7831-1.375 1.278-1.941l0.5603 0.5603 1.834-0.3307 0.3296-1.833-0.3867-0.3867c0.1738-0.1153 0.349-0.2303 0.5263-0.3395 0 0 1.163-1.553 2.509-3.1 1.548-1.347 3.102-2.51 3.102-2.51 0.1092-0.1773 0.2242-0.3525 0.3395-0.5263l0.3867 0.3867 1.833-0.3296 0.3307-1.834-0.3867-0.3867c0.3611-1.643 6.137-5.95 6.137-5.95 0.1092-0.1773 0.2242-0.3525 0.3395-0.5263l0.3867 0.3867 1.832-0.3285 0.3307-1.834-0.3867-0.3867c0.3611-1.643 6.137-5.95 6.137-5.95 0.1092-0.1773 0.2242-0.3525 0.3395-0.5263l0.3867 0.3867 1.833-0.3296 0.3307-1.834-5.162-5.162-1.834 0.3307-0.3296 1.833 0.3867 0.3867c-0.1738 0.1153-0.349 0.2303-0.5263 0.3395 0 0-4.307 5.776-5.95 6.137l-0.3867-0.3867-1.834 0.3307-0.3285 1.832 0.3867 0.3867c-0.1738 0.1153-0.349 0.2303-0.5263 0.3395 0 0-4.307 5.776-5.95 6.137l-0.3867-0.3867-1.834 0.3307-0.3296 1.833 0.3867 0.3867c-0.1738 0.1153-0.349 0.2303-0.5263 0.3395 0 0-1.164 1.554-2.51 3.102-1.547 1.346-3.1 2.509-3.1 2.509-0.1092 0.1773-0.2242 0.3525-0.3395 0.5263l-0.3867-0.3867-1.833 0.3296-0.3307 1.834 0.5603 0.5603c-0.5662 0.4946-1.206 0.9289-1.941 1.278-2.464 0.9265-3.1-1.235-1.064-2.553 0.4084-0.2643 0.9476-0.398 1.515-0.6911-0.9064-0.4475-1.22-0.6409-2.422-1.033-5.638-0.1295-9.366 5.78-3.779 9.28-3.308 0.8226-5.132 3.507-4.496 6.599 0.0855 0.4153 0.2453 0.872 0.2318 1.339-9e-3 0.3147-0.2098 0.9504-0.2098 0.9504z"/>
  <path d="m96.99 102.6-0.7416-1.779s-0.2008-0.6356-0.2098-0.9504c-0.0134-0.4673 0.1463-0.924 0.2318-1.339 0.6366-3.092-1.188-5.776-4.496-6.599 5.587-3.499 1.859-9.409-3.779-9.28-1.201 0.3918-1.515 0.5852-2.422 1.033 0.5675 0.2931 1.107 0.4268 1.515 0.6911 2.037 1.318 1.4 3.48-1.064 2.553-0.7356-0.3488-1.375-0.7831-1.941-1.278l0.5603-0.5603-0.3307-1.834-1.833-0.3296-0.3867 0.3867c-0.1153-0.1737-0.2303-0.349-0.3395-0.5263 0 0-1.553-1.163-3.1-2.509-1.347-1.548-2.51-3.102-2.51-3.102-0.1773-0.1092-0.3525-0.2242-0.5263-0.3395l0.3867-0.3867-0.3296-1.833-1.834-0.3307-0.3867 0.3867c-1.643-0.3611-5.95-6.137-5.95-6.137-0.1773-0.1092-0.3525-0.2242-0.5263-0.3395l0.3867-0.3867-0.3285-1.832-1.834-0.3307-0.3867 0.3867c-1.643-0.3611-5.95-6.137-5.95-6.137-0.1773-0.1092-0.3525-0.2242-0.5263-0.3395l0.3867-0.3867-0.3296-1.833-1.834-0.3307-5.162 5.162 0.3307 1.834 1.833 0.3296 0.3867-0.3867c0.1153 0.1738 0.2303 0.349 0.3395 0.5263 0 0 5.776 4.307 6.137 5.95l-0.3867 0.3867 0.3307 1.834 1.832 0.3285 0.3867-0.3867c0.1153 0.1738 0.2303 0.349 0.3395 0.5263 0 0 5.776 4.307 6.137 5.95l-0.3867 0.3867 0.3307 1.834 1.833 0.3296 0.3867-0.3867c0.1153 0.1738 0.2303 0.349 0.3395 0.5263 0 0 1.554 1.164 3.102 2.511 1.346 1.547 2.509 3.1 2.509 3.1 0.1773 0.1092 0.3525 0.2242 0.5263 0.3395l-0.3867 0.3867 0.3296 1.833 1.834 0.3307 0.5603-0.5603c0.4946 0.5661 0.929 1.206 1.278 1.941 0.9265 2.464-1.235 3.1-2.553 1.064-0.2643-0.4084-0.398-0.9476-0.6911-1.515-0.4475 0.9064-0.6409 1.22-1.033 2.422-0.1295 5.638 5.78 9.366 9.28 3.779 0.8226 3.308 3.507 5.132 6.599 4.496 0.4152-0.0855 0.872-0.2453 1.339-0.2318 0.3147 9e-3 0.9504 0.2098 0.9504 0.2098z"/>
  <path d="m3.9 9.515 1.779 0.7416s0.6356 0.2008 0.9504 0.2098c0.4673 0.0134 0.924-0.1463 1.339-0.2318 3.092-0.6366 5.776 1.188 6.599 4.496 3.499-5.587 9.409-1.859 9.28 3.779-0.3918 1.201-0.5852 1.515-1.033 2.422-0.2931-0.5675-0.4268-1.107-0.6911-1.515-1.318-2.037-3.48-1.4-2.553 1.064 0.3488 0.7356 0.7831 1.375 1.278 1.941l0.5603-0.5603 1.834 0.3307 0.3296 1.833-0.3867 0.3867c0.1738 0.1153 0.349 0.2303 0.5263 0.3395 0 0 1.163 1.553 2.509 3.1 1.548 1.347 3.102 2.51 3.102 2.51 0.1092 0.1773 0.2242 0.3525 0.3395 0.5263l0.3867-0.3867 1.833 0.3296 0.3307 1.834-0.3867 0.3867c0.3611 1.643 6.137 5.95 6.137 5.95 0.1092 0.1773 0.2242 0.3525 0.3395 0.5263l0.3867-0.3867 1.832 0.3285 0.3307 1.834-0.3867 0.3867c0.3611 1.643 6.137 5.95 6.137 5.95 0.1092 0.1773 0.2242 0.3525 0.3395 0.5263l0.3867-0.3867 1.833 0.3296 0.3307 1.834-5.162 5.162-1.834-0.3307-0.3296-1.833 0.3867-0.3867c-0.1738-0.1153-0.349-0.2303-0.5263-0.3395 0 0-4.307-5.776-5.951-6.137l-0.3867 0.3867-1.834-0.3307-0.3285-1.832 0.3867-0.3867c-0.1738-0.1153-0.349-0.2303-0.5263-0.3395 0 0-4.307-5.776-5.95-6.137l-0.3867 0.3867-1.834-0.3307-0.3296-1.833 0.3867-0.3867c-0.1738-0.1153-0.349-0.2303-0.5263-0.3395 0 0-1.164-1.554-2.51-3.102-1.547-1.346-3.1-2.509-3.1-2.509-0.1092-0.1773-0.2242-0.3525-0.3395-0.5263l-0.3867 0.3867-1.833-0.3296-0.3307-1.834 0.5603-0.5603c-0.5661-0.4946-1.206-0.929-1.941-1.278-2.464-0.9265-3.1 1.235-1.064 2.553 0.4084 0.2643 0.9476 0.398 1.515 0.6911-0.9064 0.4475-1.22 0.6409-2.422 1.033-5.638 0.1295-9.366-5.78-3.779-9.28-3.308-0.8226-5.132-3.507-4.496-6.599 0.0855-0.4152 0.2453-0.872 0.2318-1.339-9e-3 -0.3147-0.2098-0.9504-0.2098-0.9504z"/>
  <path d="m96.99 9.515-1.779 0.7416s-0.6356 0.2008-0.9504 0.2098c-0.4673 0.0134-0.924-0.1463-1.339-0.2318-3.092-0.6366-5.776 1.188-6.599 4.496-3.499-5.587-9.409-1.859-9.28 3.779 0.3918 1.201 0.5852 1.515 1.033 2.422 0.2931-0.5675 0.4268-1.107 0.6911-1.515 1.318-2.037 3.48-1.4 2.553 1.064-0.3488 0.7356-0.7831 1.375-1.278 1.941l-0.5603-0.5603-1.834 0.3307-0.3296 1.833 0.3867 0.3867c-0.1738 0.1153-0.349 0.2303-0.5263 0.3395 0 0-1.163 1.553-2.509 3.1-1.548 1.347-3.102 2.51-3.102 2.51-0.1092 0.1773-0.2242 0.3525-0.3395 0.5263l-0.3867-0.3867-1.833 0.3296-0.3307 1.834 0.3867 0.3867c-0.3611 1.643-6.137 5.95-6.137 5.95-0.1092 0.1773-0.2242 0.3525-0.3395 0.5263l-0.3867-0.3867-1.832 0.3285-0.3307 1.834 0.3867 0.3867c-0.3611 1.643-6.137 5.95-6.137 5.95-0.1092 0.1773-0.2242 0.3525-0.3395 0.5263l-0.3867-0.3867-1.833 0.3296-0.3307 1.834 5.162 5.162 1.834-0.3307 0.3296-1.833-0.3867-0.3867c0.1738-0.1153 0.349-0.2303 0.5263-0.3395 0 0 4.307-5.776 5.95-6.137l0.3867 0.3867 1.834-0.3307 0.3285-1.832-0.3867-0.3867c0.1738-0.1153 0.349-0.2303 0.5263-0.3395 0 0 4.307-5.776 5.95-6.137l0.3867 0.3867 1.834-0.3307 0.3296-1.833-0.3867-0.3867c0.1738-0.1153 0.349-0.2303 0.5263-0.3395 0 0 1.164-1.554 2.51-3.102 1.547-1.346 3.1-2.509 3.1-2.509 0.1092-0.1773 0.2242-0.3525 0.3395-0.5263l0.3867 0.3867 1.833-0.3296 0.3307-1.834-0.5603-0.5603c0.5661-0.4946 1.206-0.929 1.941-1.278 2.464-0.9265 3.1 1.235 1.064 2.553-0.4084 0.2643-0.9476 0.398-1.515 0.6911 0.9064 0.4475 1.22 0.6409 2.422 1.033 5.638 0.1294 9.366-5.78 3.779-9.28 3.308-0.8226 5.132-3.507 4.496-6.599-0.0855-0.4152-0.2453-0.872-0.2318-1.339 9e-3 -0.3147 0.2098-0.9504 0.2098-0.9504z"/>
 </g>
</svg>
