<?xml version="1.0" encoding="UTF-8" standalone="no"?>
<svg
   xmlns:dc="http://purl.org/dc/elements/1.1/"
   xmlns:cc="http://creativecommons.org/ns#"
   xmlns:rdf="http://www.w3.org/1999/02/22-rdf-syntax-ns#"
   xmlns:svg="http://www.w3.org/2000/svg"
   xmlns="http://www.w3.org/2000/svg"
   xmlns:sodipodi="http://sodipodi.sourceforge.net/DTD/sodipodi-0.dtd"
   xmlns:inkscape="http://www.inkscape.org/namespaces/inkscape"
   inkscape:version="1.0 (4035a4fb49, 2020-05-01)"
   sodipodi:docname="carbuncle.svg"
   id="svg36"
   version="1.1"
   viewBox="0 0 100 110">
  <metadata
     id="metadata42">
    <rdf:RDF>
      <cc:Work
         rdf:about="">
        <dc:format>image/svg+xml</dc:format>
        <dc:type
           rdf:resource="http://purl.org/dc/dcmitype/StillImage" />
        <dc:title></dc:title>
      </cc:Work>
    </rdf:RDF>
  </metadata>
  <defs
     id="defs40">
    <inkscape:path-effect
       split_items="false"
       oposite_fuse="false"
       fuse_paths="false"
       discard_orig_path="false"
       mode="free"
       lpeversion="1"
       is_visible="true"
       id="path-effect1071"
       center_point="-1068.7578,-627.84278"
       end_point="-1068.7578,-592.88867"
       start_point="-1068.7578,-662.79688"
       effect="mirror_symmetry" />
    <inkscape:path-effect
       effect="mirror_symmetry"
       start_point="-1068.7578,-662.79688"
       end_point="-1068.7578,-592.88867"
       center_point="-1068.7578,-627.84278"
       id="path-effect1069"
       is_visible="true"
       lpeversion="1"
       mode="free"
       discard_orig_path="false"
       fuse_paths="false"
       oposite_fuse="false"
       split_items="false" />
    <inkscape:path-effect
       split_items="false"
       oposite_fuse="false"
       fuse_paths="false"
       discard_orig_path="false"
       mode="free"
       lpeversion="1"
       is_visible="true"
       id="path-effect1045"
       center_point="-1068.7578,-627.84278"
       end_point="-1068.7578,-592.88867"
       start_point="-1068.7578,-662.79688"
       effect="mirror_symmetry" />
    <inkscape:path-effect
       effect="mirror_symmetry"
       start_point="-1068.7578,-662.79688"
       end_point="-1068.7578,-592.88867"
       center_point="-1068.7578,-627.84278"
       id="path-effect1043"
       is_visible="true"
       lpeversion="1"
       mode="free"
       discard_orig_path="false"
       fuse_paths="false"
       oposite_fuse="false"
       split_items="false" />
    <inkscape:path-effect
       split_items="false"
       oposite_fuse="false"
       fuse_paths="false"
       discard_orig_path="false"
       mode="free"
       lpeversion="1"
       is_visible="true"
       id="path-effect1041"
       center_point="-1068.7578,-627.84278"
       end_point="-1068.7578,-592.88867"
       start_point="-1068.7578,-662.79688"
       effect="mirror_symmetry" />
    <inkscape:path-effect
       split_items="false"
       oposite_fuse="false"
       fuse_paths="false"
       discard_orig_path="false"
       mode="free"
       lpeversion="1"
       is_visible="true"
       id="path-effect1012"
       center_point="-1068.7578,-627.84278"
       end_point="-1068.7578,-592.88867"
       start_point="-1068.7578,-662.79688"
       effect="mirror_symmetry" />
    <inkscape:path-effect
       effect="mirror_symmetry"
       start_point="-1068.7578,-662.79688"
       end_point="-1068.7578,-592.88867"
       center_point="-1068.7578,-627.84278"
       id="path-effect1010"
       is_visible="true"
       lpeversion="1"
       mode="free"
       discard_orig_path="false"
       fuse_paths="false"
       oposite_fuse="false"
       split_items="false" />
    <inkscape:path-effect
       split_items="false"
       oposite_fuse="false"
       fuse_paths="false"
       discard_orig_path="false"
       mode="free"
       lpeversion="1"
       is_visible="true"
       id="path-effect974"
       center_point="-1068.7578,-627.84278"
       end_point="-1068.7578,-592.88867"
       start_point="-1068.7578,-662.79688"
       effect="mirror_symmetry" />
    <inkscape:path-effect
       split_items="false"
       oposite_fuse="false"
       fuse_paths="false"
       discard_orig_path="false"
       mode="free"
       lpeversion="1"
       is_visible="true"
       id="path-effect945"
       center_point="-1068.7578,-627.84278"
       end_point="-1068.7578,-592.88867"
       start_point="-1068.7578,-662.79688"
       effect="mirror_symmetry" />
    <inkscape:path-effect
       effect="mirror_symmetry"
       start_point="-1068.7578,-662.79688"
       end_point="-1068.7578,-592.88867"
       center_point="-1068.7578,-627.84278"
       id="path-effect916"
       is_visible="true"
       lpeversion="1"
       mode="free"
       discard_orig_path="false"
       fuse_paths="false"
       oposite_fuse="false"
       split_items="false" />
    <inkscape:path-effect
       only_selected="false"
       apply_with_weight="true"
       apply_no_weight="true"
       helper_size="0"
       steps="2"
       weight="33.333333"
       lpeversion="1"
       is_visible="true"
       id="path-effect1050"
       effect="bspline" />
    <inkscape:path-effect
       effect="bspline"
       id="path-effect1030"
       is_visible="true"
       lpeversion="1"
       weight="33.333333"
       steps="2"
       helper_size="0"
       apply_no_weight="true"
       apply_with_weight="true"
       only_selected="false" />
    <inkscape:path-effect
       effect="bspline"
       id="path-effect1001"
       is_visible="true"
       lpeversion="1"
       weight="33.333333"
       steps="2"
       helper_size="0"
       apply_no_weight="true"
       apply_with_weight="true"
       only_selected="false" />
    <inkscape:path-effect
       only_selected="false"
       apply_with_weight="true"
       apply_no_weight="true"
       helper_size="0"
       steps="2"
       weight="33.333333"
       lpeversion="1"
       is_visible="true"
       id="path-effect999"
       effect="bspline" />
    <inkscape:path-effect
       effect="bspline"
       id="path-effect975"
       is_visible="true"
       lpeversion="1"
       weight="33.333333"
       steps="2"
       helper_size="0"
       apply_no_weight="true"
       apply_with_weight="true"
       only_selected="false" />
    <inkscape:path-effect
       only_selected="false"
       apply_with_weight="true"
       apply_no_weight="true"
       helper_size="0"
       steps="2"
       weight="33.333333"
       lpeversion="1"
       is_visible="true"
       id="path-effect956"
       effect="bspline" />
    <clipPath
       id="ordi2-0">
      <circle
         id="circle19-4"
         r="3.75"
         cy="21.921255"
         cx="204.90433" />
      <circle
         id="circle21-8"
         r="3.75"
         cy="81.921257"
         cx="204.90433" />
      <circle
         id="circle23-8"
         r="3.75"
         cy="51.921257"
         cx="174.90433" />
      <circle
         id="circle25-8"
         r="3.75"
         cy="51.921257"
         cx="234.90433" />
    </clipPath>
  </defs>
  <sodipodi:namedview
     inkscape:snap-bbox-midpoints="true"
     inkscape:snap-bbox-edge-midpoints="true"
     inkscape:bbox-nodes="true"
     inkscape:bbox-paths="true"
     inkscape:snap-bbox="true"
     inkscape:document-rotation="0"
     inkscape:guide-bbox="true"
     showguides="true"
     inkscape:current-layer="svg36"
     inkscape:window-maximized="1"
     inkscape:window-y="0"
     inkscape:window-x="0"
     inkscape:cy="32.102637"
     inkscape:cx="25.307235"
     inkscape:zoom="4"
     showgrid="false"
     id="namedview38"
     inkscape:window-height="1020"
     inkscape:window-width="1920"
     inkscape:pageshadow="2"
     inkscape:pageopacity="0"
     guidetolerance="10"
     gridtolerance="10"
     objecttolerance="10"
     borderopacity="1"
     bordercolor="#666666"
     pagecolor="#ffffff" />
  <clipPath
     id="escu">
    <rect
       id="rect2"
       height="120"
       width="100" />
  </clipPath>
  <text
     id="text934"
     y="42.176289"
     x="-66.600601"
     style="font-style:normal;font-weight:normal;font-size:40px;line-height:1.25;font-family:sans-serif;fill:#000000;fill-opacity:1;stroke:none"
     xml:space="preserve"><tspan
       y="42.176289"
       x="-66.600601"
       id="tspan932"
       sodipodi:role="line" /></text>
  <text
     id="text944"
     y="0.78777015"
     x="-201.93855"
     style="font-style:normal;font-weight:normal;font-size:40px;line-height:1.25;font-family:sans-serif;fill:#000000;fill-opacity:1;stroke:none"
     xml:space="preserve"><tspan
       y="0.78777015"
       x="-201.93855"
       id="tspan942"
       sodipodi:role="line" /></text>
  <text
     id="text948"
     y="-76.685295"
     x="-159.68279"
     style="font-style:normal;font-weight:normal;font-size:40px;line-height:1.25;font-family:sans-serif;fill:#000000;fill-opacity:1;stroke:none"
     xml:space="preserve"><tspan
       y="-76.685295"
       x="-159.68279"
       id="tspan946"
       sodipodi:role="line" /></text>
  <circle
     r="3.75"
     transform="scale(-1)"
     cy="-51.788776"
     cx="-50.444618"
     id="path923"
     style="opacity:1;fill:none;fill-rule:evenodd;stroke:#000000;stroke-width:1.875;stroke-linejoin:bevel;stroke-miterlimit:4;stroke-dasharray:none;stroke-opacity:1;paint-order:markers stroke fill" />
  <g
     transform="matrix(0.75,0,0,0.75,12.611154,9.7437187)"
     id="g989">
    <path
       id="path872-3-6-8-2-11"
       style="opacity:1;fill:#000000;fill-opacity:1;stroke:none;stroke-width:0.452116px;stroke-linecap:butt;stroke-linejoin:miter;stroke-opacity:1"
       d="m 50.444619,121.8843 0.733384,-1.78218 c 0,0 0.30746,-0.59145 0.523624,-0.8204 0.320944,-0.33995 0.756862,-0.54994 1.11095,-0.7831 2.636576,-1.73632 3.244366,-4.92431 1.486968,-7.84503 6.425016,1.47602 7.967476,-5.33881 3.889108,-9.23411 -1.12636,-0.57222 -1.48513,-0.65749 -2.44254,-0.98199 0.19408,0.60855 0.480754,1.08435 0.582666,1.56 0.508136,2.37196 -1.470442,3.45083 -2.557518,1.05346 -0.273524,-0.76684 -0.418678,-1.5262 -0.469242,-2.27629 h 0.792428 l 1.062784,-1.53047 -1.062784,-1.528918 h -0.546932 c 0.04134,-0.20437 0.08392,-0.409622 0.13208,-0.612188 0,0 -0.275768,-1.92092 -0.417966,-3.966798 0.14216,-2.046456 0.417966,-3.96835 0.417966,-3.96835 -0.04816,-0.202568 -0.09074,-0.407818 -0.13208,-0.61219 h 0.546932 l 1.062784,-1.528918 -1.062784,-1.530472 h -0.546932 c -0.906608,-1.41722 0.13208,-8.547336 0.13208,-8.547336 -0.04816,-0.202568 -0.09074,-0.407818 -0.13208,-0.61219 h 0.546932 l 1.062784,-1.527364 -1.062784,-1.530472 h -0.546932 c -0.906608,-1.41722 0.13208,-8.547336 0.13208,-8.547336 -0.04816,-0.202568 -0.09074,-0.407818 -0.13208,-0.61219 h 0.546932 l 1.062784,-1.528918 -1.062784,-1.530472 h -0.792428 -5.714798 -0.792428 l -1.062784,1.530472 1.062784,1.528918 h 0.54693 c -0.04136,0.204376 -0.08394,0.40962 -0.13206,0.61219 0,0 1.03868,7.130116 0.13206,8.547336 h -0.54693 l -1.062784,1.530472 1.062784,1.527364 h 0.54693 c -0.04136,0.204376 -0.08394,0.40962 -0.13206,0.61219 0,0 1.03868,7.130116 0.13206,8.547336 h -0.54693 l -1.062784,1.530472 1.062784,1.528918 h 0.54693 c -0.04136,0.204376 -0.08394,0.40962 -0.13206,0.61219 0,0 0.2758,1.921894 0.417966,3.96835 -0.1422,2.045878 -0.417966,3.966798 -0.417966,3.966798 0.04814,0.20257 0.09072,0.407814 0.13206,0.612188 h -0.54693 l -1.062784,1.528918 1.062784,1.53047 h 0.792428 c -0.05056,0.75009 -0.19572,1.50945 -0.469242,2.27629 -1.087076,2.39737 -3.065658,1.3185 -2.55752,-1.05346 0.1019,-0.47565 0.388592,-0.95145 0.582668,-1.56 -0.957406,0.3245 -1.31618,0.40977 -2.44254,0.98199 -4.078372,3.8953 -2.535906,10.71013 3.889108,9.23411 -1.7574,2.92072 -1.149608,6.10871 1.486966,7.84503 0.354092,0.23316 0.790008,0.44315 1.110952,0.7831 0.216166,0.22895 0.523622,0.8204 0.523622,0.8204 z" />
    <path
       d="m 116.26884,56.060077 -1.78218,-0.733384 c 0,0 -0.59145,-0.30746 -0.8204,-0.523624 -0.33995,-0.320944 -0.54994,-0.756862 -0.7831,-1.11095 -1.73632,-2.636576 -4.92431,-3.244366 -7.84503,-1.486968 1.47602,-6.425016 -5.33881,-7.967476 -9.23411,-3.889108 -0.572222,1.12636 -0.657486,1.48513 -0.981988,2.44254 0.608544,-0.19408 1.084346,-0.480754 1.559994,-0.582666 2.37196,-0.508136 3.450834,1.470442 1.053462,2.557518 -0.766836,0.273524 -1.526196,0.418678 -2.276286,0.469242 v -0.792428 l -1.530472,-1.062784 -1.528918,1.062784 v 0.546932 c -0.20437,-0.04134 -0.409622,-0.08392 -0.612188,-0.13208 0,0 -1.92092,0.275768 -3.966798,0.417966 -2.046456,-0.14216 -3.96835,-0.417966 -3.96835,-0.417966 -0.202568,0.04816 -0.407818,0.09074 -0.61219,0.13208 v -0.546932 l -1.528918,-1.062784 -1.530472,1.062784 v 0.546932 c -1.41722,0.906608 -8.547336,-0.13208 -8.547336,-0.13208 -0.202568,0.04816 -0.407818,0.09074 -0.61219,0.13208 v -0.546932 l -1.527364,-1.062784 -1.530472,1.062784 v 0.546932 c -1.41722,0.906608 -8.547336,-0.13208 -8.547336,-0.13208 -0.202568,0.04816 -0.407818,0.09074 -0.61219,0.13208 v -0.546932 l -1.528918,-1.062784 -1.530472,1.062784 v 0.792428 5.714798 0.792428 l 1.530472,1.062784 1.528918,-1.062784 v -0.54693 c 0.204376,0.04136 0.40962,0.08394 0.61219,0.13206 0,0 7.130116,-1.03868 8.547336,-0.13206 v 0.54693 l 1.530472,1.062784 1.527364,-1.062784 v -0.54693 c 0.204376,0.04136 0.40962,0.08394 0.61219,0.13206 0,0 7.130116,-1.03868 8.547336,-0.13206 v 0.54693 l 1.530472,1.062784 1.528918,-1.062784 v -0.54693 c 0.204376,0.04136 0.40962,0.08394 0.61219,0.13206 0,0 1.921894,-0.2758 3.96835,-0.417966 2.045878,0.1422 3.966798,0.417966 3.966798,0.417966 0.20257,-0.04814 0.407814,-0.09072 0.612188,-0.13206 v 0.54693 l 1.528918,1.062784 1.530472,-1.062784 v -0.792428 c 0.75009,0.05056 1.509452,0.19572 2.276286,0.469242 2.397372,1.087076 1.318498,3.065658 -1.053462,2.55752 -0.475648,-0.1019 -0.95145,-0.388592 -1.559994,-0.582668 0.324502,0.957406 0.409766,1.31618 0.981988,2.44254 3.8953,4.078372 10.71013,2.535906 9.23411,-3.889108 2.92072,1.7574 6.10871,1.149608 7.84503,-1.486966 0.23316,-0.354092 0.44315,-0.790008 0.7831,-1.110952 0.22895,-0.216166 0.8204,-0.523622 0.8204,-0.523622 z"
       style="opacity:1;fill:#000000;fill-opacity:1;stroke:none;stroke-width:0.452116px;stroke-linecap:butt;stroke-linejoin:miter;stroke-opacity:1"
       id="path872-3-6-8-2-11-5" />
    <path
       d="m -15.379608,56.060077 1.78218,-0.733384 c 0,0 0.59145,-0.30746 0.8204,-0.523624 0.33995,-0.320944 0.54994,-0.756862 0.7831,-1.11095 1.73632,-2.636576 4.92431,-3.244366 7.84503,-1.486968 -1.47602,-6.425016 5.338808,-7.967476 9.234109,-3.889108 0.572222,1.12636 0.657486,1.48513 0.981988,2.44254 -0.608544,-0.19408 -1.084346,-0.480754 -1.559994,-0.582666 -2.371961,-0.508136 -3.450835,1.470442 -1.053463,2.557518 0.766836,0.273524 1.526197,0.418678 2.276287,0.469242 v -0.792428 l 1.530472,-1.062784 1.528918,1.062784 v 0.546932 c 0.20437,-0.04134 0.409622,-0.08392 0.612188,-0.13208 0,0 1.92092,0.275768 3.966798,0.417966 2.046456,-0.14216 3.96835,-0.417966 3.96835,-0.417966 0.202568,0.04816 0.407818,0.09074 0.61219,0.13208 v -0.546932 l 1.528918,-1.062784 1.530472,1.062784 v 0.546932 c 1.41722,0.906608 8.547333,-0.13208 8.547333,-0.13208 0.20257,0.04816 0.40782,0.09074 0.61219,0.13208 v -0.546932 l 1.52737,-1.062784 1.53047,1.062784 v 0.546932 c 1.41722,0.906608 8.54734,-0.13208 8.54734,-0.13208 0.20256,0.04816 0.40781,0.09074 0.61219,0.13208 v -0.546932 l 1.52891,-1.062784 1.53048,1.062784 v 0.792428 5.714798 0.792428 l -1.53048,1.062784 -1.52891,-1.062784 v -0.54693 c -0.20438,0.04136 -0.40962,0.08394 -0.61219,0.13206 0,0 -7.13012,-1.03868 -8.54734,-0.13206 v 0.54693 l -1.53047,1.062784 -1.52737,-1.062784 v -0.54693 c -0.20437,0.04136 -0.40962,0.08394 -0.61219,0.13206 0,0 -7.130113,-1.03868 -8.547333,-0.13206 v 0.54693 l -1.530472,1.062784 -1.528918,-1.062784 v -0.54693 c -0.204376,0.04136 -0.40962,0.08394 -0.61219,0.13206 0,0 -1.921894,-0.2758 -3.96835,-0.417966 -2.045878,0.1422 -3.966798,0.417966 -3.966798,0.417966 -0.20257,-0.04814 -0.407814,-0.09072 -0.612188,-0.13206 v 0.54693 L 7.260501,60.772687 5.730029,59.709903 v -0.792428 c -0.75009,0.05056 -1.509453,0.19572 -2.276287,0.469242 -2.397372,1.087076 -1.318498,3.065658 1.053463,2.55752 0.475648,-0.1019 0.95145,-0.388592 1.559994,-0.582668 -0.324502,0.957406 -0.409766,1.31618 -0.981988,2.44254 -3.895301,4.078371 -10.710129,2.535906 -9.234109,-3.889108 -2.92072,1.7574 -6.10871,1.149608 -7.84503,-1.486966 -0.23316,-0.354092 -0.44315,-0.790008 -0.7831,-1.110952 -0.22895,-0.216166 -0.8204,-0.523622 -0.8204,-0.523622 z"
       style="opacity:1;fill:#000000;fill-opacity:1;stroke:none;stroke-width:0.452116px;stroke-linecap:butt;stroke-linejoin:miter;stroke-opacity:1"
       id="path872-3-6-8-2-11-3" />
    <path
       id="path872-3-6-8-2-11-5-5"
       style="opacity:1;fill:#000000;fill-opacity:1;stroke:none;stroke-width:0.452116px;stroke-linecap:butt;stroke-linejoin:miter;stroke-opacity:1"
       d="m 50.444618,-9.7641421 -0.733384,1.78218 c 0,0 -0.30746,0.59145 -0.523624,0.8204 -0.320944,0.33994 -0.756862,0.54994 -1.11095,0.7831 -2.636576,1.73631 -3.244366,4.92431 -1.486968,7.84503 -6.425016,-1.47603 -7.967476,5.33881 -3.889108,9.2341101 1.12636,0.57222 1.48513,0.65748 2.44254,0.98198 -0.19408,-0.60854 -0.480754,-1.08434 -0.582666,-1.55999 -0.508136,-2.3719601 1.470442,-3.4508301 2.557518,-1.0534601 0.273524,0.76683 0.418678,1.5261901 0.469242,2.2762801 H 46.79479 l -1.062784,1.530477 1.062784,1.528918 h 0.546932 c -0.04134,0.20437 -0.08392,0.409622 -0.13208,0.612188 0,0 0.275768,1.92092 0.417966,3.966798 -0.14216,2.046456 -0.417966,3.96835 -0.417966,3.96835 0.04816,0.202568 0.09074,0.407818 0.13208,0.61219 H 46.79479 l -1.062784,1.528918 1.062784,1.530472 h 0.546932 c 0.906608,1.41722 -0.13208,8.547336 -0.13208,8.547336 0.04816,0.202568 0.09074,0.407818 0.13208,0.61219 H 46.79479 l -1.062784,1.527364 1.062784,1.530472 h 0.546932 c 0.906608,1.41722 -0.13208,8.547336 -0.13208,8.547336 0.04816,0.202568 0.09074,0.407818 0.13208,0.61219 H 46.79479 l -1.062784,1.528918 1.062784,1.530472 h 0.792428 5.714798 0.792428 l 1.062784,-1.530472 -1.062784,-1.528918 h -0.54693 c 0.04136,-0.204376 0.08394,-0.40962 0.13206,-0.61219 0,0 -1.03868,-7.130116 -0.13206,-8.547336 h 0.54693 l 1.062784,-1.530472 -1.062784,-1.527364 h -0.54693 c 0.04136,-0.204376 0.08394,-0.40962 0.13206,-0.61219 0,0 -1.03868,-7.130116 -0.13206,-8.547336 h 0.54693 l 1.062784,-1.530472 -1.062784,-1.528918 h -0.54693 c 0.04136,-0.204376 0.08394,-0.40962 0.13206,-0.61219 0,0 -0.2758,-1.921894 -0.417966,-3.96835 0.1422,-2.045878 0.417966,-3.966798 0.417966,-3.966798 -0.04814,-0.20257 -0.09072,-0.407814 -0.13206,-0.612188 h 0.54693 l 1.062784,-1.528918 -1.062784,-1.530477 h -0.792428 c 0.05056,-0.75009 0.19572,-1.5094501 0.469242,-2.2762801 1.087076,-2.39737 3.065658,-1.3185 2.55752,1.0534601 -0.1019,0.47565 -0.388592,0.95145 -0.582668,1.55999 0.957406,-0.3245 1.31618,-0.40976 2.44254,-0.98198 4.078372,-3.8953001 2.535906,-10.7101401 -3.889108,-9.2341101 1.7574,-2.92072 1.149608,-6.10872 -1.486966,-7.84503 -0.354092,-0.23316 -0.790008,-0.44316 -1.110952,-0.7831 -0.216166,-0.22895 -0.523622,-0.8204 -0.523622,-0.8204 z" />
    <path
       d="m 3.89986,102.60483 1.77878,-0.74161 c 0,0 0.63562,-0.20081 0.95036,-0.20985 0.46733,-0.0134 0.92405,0.14631 1.3393,0.23182 3.0921,0.63658 5.77613,-1.1879 6.59872,-4.495826 3.49947,5.586876 9.40896,1.858749 9.27951,-3.779486 -0.39183,-1.201079 -0.58523,-1.515058 -1.03276,-2.421507 -0.29307,0.567541 -0.42681,1.106693 -0.69108,1.515089 -1.31792,2.036536 -3.47986,1.400349 -2.55335,-1.063528 0.34883,-0.735645 0.78314,-1.375233 1.27778,-1.941381 l 0.56033,0.560331 1.83371,-0.330705 0.3296,-1.83261 -0.38674,-0.38674 c 0.17375,-0.115279 0.34899,-0.230306 0.52628,-0.339487 0,0 1.1633,-1.553293 2.5094,-3.100497 1.54759,-1.34654 3.1016,-2.5105 3.1016,-2.5105 0.10918,-0.177292 0.22421,-0.352534 0.33949,-0.526279 l 0.386738,0.38674 1.83261,-0.329607 0.330705,-1.833709 -0.386739,-0.386739 c 0.361057,-1.643195 6.137274,-5.950485 6.137274,-5.950485 0.109183,-0.177291 0.224208,-0.352534 0.339489,-0.526278 l 0.386739,0.386739 1.831511,-0.328507 0.330706,-1.833709 -0.38674,-0.38674 c 0.361057,-1.643194 6.137274,-5.950484 6.137274,-5.950484 0.109183,-0.177292 0.224208,-0.352534 0.339489,-0.526279 l 0.38674,0.38674 1.83261,-0.329607 0.330705,-1.833709 -0.560331,-0.560331 -4.040973,-4.040972 -0.560331,-0.560332 -1.833709,0.330706 -0.329606,1.83261 0.386738,0.386738 c -0.173762,0.115269 -0.349,0.23029 -0.526265,0.339503 0,0 -4.307295,5.776211 -5.950498,6.13726 l -0.386738,-0.386738 -1.833709,0.330705 -0.328508,1.831511 0.386738,0.386738 c -0.173761,0.11527 -0.349,0.230291 -0.526264,0.339503 0,0 -4.307295,5.776211 -5.950495,6.13726 l -0.38674,-0.386738 -1.83371,0.330706 -0.32961,1.83261 0.38674,0.386738 c -0.17376,0.115269 -0.349,0.23029 -0.52626,0.339503 0,0 -1.16397,1.554004 -2.5105,3.101594 -1.54721,1.346103 -3.1005,2.509403 -3.1005,2.509403 -0.1092,0.177279 -0.22422,0.352517 -0.3395,0.526263 l -0.38674,-0.386738 -1.83261,0.329606 -0.33071,1.833709 0.56034,0.560331 c -0.56615,0.494643 -1.20574,0.928949 -1.94139,1.277773 -2.46387,0.92652 -3.10006,-1.235428 -1.06352,-2.55335 0.40838,-0.264279 0.94755,-0.398 1.51509,-0.691073 C 14.40988,83.243397 14.0959,83.049996 12.89482,82.658161 7.25658,82.52871 3.52846,88.438212 9.11533,91.937676 5.8074,92.760269 3.98292,95.444294 4.6195,98.536393 c 0.0855,0.415252 0.24527,0.871978 0.23183,1.3393 -0.009,0.314747 -0.20985,0.950367 -0.20985,0.950367 z"
       style="fill:#000000;fill-opacity:1;stroke:none;stroke-width:0.452116px;stroke-linecap:butt;stroke-linejoin:miter;stroke-opacity:1"
       id="path872-3-6-8-2-11-6" />
    <path
       id="path872-3-6-8-2-11-5-2"
       style="fill:#000000;fill-opacity:1;stroke:none;stroke-width:0.452116px;stroke-linecap:butt;stroke-linejoin:miter;stroke-opacity:1"
       d="m 96.989377,102.60483 -0.74162,-1.77878 c 0,0 -0.20081,-0.63562 -0.20985,-0.95036 -0.0134,-0.467322 0.14632,-0.924049 0.23183,-1.339299 0.63658,-3.0921 -1.1879,-5.776123 -4.49583,-6.598717 5.58688,-3.499466 1.85875,-9.408964 -3.77949,-9.279515 -1.20108,0.391834 -1.51506,0.585232 -2.4215,1.032766 0.56754,0.29307 1.10669,0.426804 1.51509,0.691075 2.03653,1.317923 1.40034,3.479868 -1.06353,2.553349 -0.73565,-0.348825 -1.37524,-0.783134 -1.94138,-1.277774 l 0.56033,-0.560331 -0.33071,-1.833709 -1.83261,-0.329606 -0.38674,0.386739 c -0.11528,-0.173743 -0.2303,-0.348987 -0.33949,-0.526277 0,0 -1.55329,-1.163298 -3.10049,-2.509403 -1.34654,-1.547585 -2.5105,-3.101594 -2.5105,-3.101594 -0.17729,-0.109183 -0.35254,-0.224208 -0.52628,-0.339489 l 0.38674,-0.386739 -0.32961,-1.83261 -1.83371,-0.330706 -0.38674,0.38674 c -1.64319,-0.361057 -5.950484,-6.137274 -5.950484,-6.137274 -0.17729,-0.109183 -0.35253,-0.224208 -0.52628,-0.339489 l 0.38674,-0.386739 -0.32851,-1.831512 -1.83371,-0.330705 -0.38674,0.386739 c -1.64319,-0.361057 -5.95048,-6.137274 -5.95048,-6.137274 -0.177291,-0.109183 -0.352534,-0.224208 -0.526278,-0.339489 l 0.386739,-0.386739 -0.329606,-1.83261 -1.833709,-0.330705 -0.560331,0.560331 -4.040973,4.040972 -0.560331,0.560331 0.330705,1.833709 1.83261,0.329607 0.386738,-0.386738 c 0.11527,0.173762 0.230291,0.349 0.339503,0.526264 0,0 5.776211,4.307296 6.13726,5.950499 l -0.386738,0.386738 0.330706,1.833709 1.831511,0.328507 0.386738,-0.386738 c 0.115269,0.173762 0.23029,0.349 0.339503,0.526265 0,0 5.776213,4.307295 6.137263,5.950498 l -0.38674,0.386738 0.3307,1.833709 1.83261,0.329607 0.386744,-0.386738 c 0.11527,0.173761 0.23029,0.348999 0.3395,0.526264 0,0 1.55401,1.163964 3.1016,2.510501 1.3461,1.547204 2.5094,3.100496 2.5094,3.100496 0.17728,0.109198 0.35252,0.224219 0.52626,0.339502 l -0.38673,0.386738 0.3296,1.83261 1.83371,0.330705 0.56033,-0.560331 c 0.49465,0.566145 0.92895,1.205739 1.27778,1.941381 0.92652,2.463877 -1.23543,3.100067 -2.55335,1.06353 -0.26428,-0.408388 -0.398,-0.947553 -0.69108,-1.515091 -0.44753,0.906446 -0.64093,1.220428 -1.03276,2.421507 -0.12946,5.638238 5.78005,9.366365 9.27951,3.779486 0.82259,3.307929 3.50662,5.132409 6.59872,4.495829 0.41525,-0.0855 0.87198,-0.24526 1.3393,-0.23182 0.31474,0.009 0.95036,0.20985 0.95036,0.20985 z" />
    <path
       id="path872-3-6-8-2-11-3-9"
       style="fill:#000000;fill-opacity:1;stroke:none;stroke-width:0.452116px;stroke-linecap:butt;stroke-linejoin:miter;stroke-opacity:1"
       d="m 3.89986,9.515321 1.77877,0.74161 c 0,0 0.63563,0.20081 0.95037,0.20985 0.46732,0.0134 0.92405,-0.14632 1.3393,-0.23183 3.0921,-0.63657 5.77612,1.1879 6.59872,4.495834 3.49946,-5.586874 9.40896,-1.85875 9.27951,3.77949 -0.39183,1.20108 -0.58523,1.51506 -1.03276,2.42151 -0.29307,-0.56754 -0.42681,-1.1067 -0.69108,-1.51509 -1.31793,-2.03654 -3.47987,-1.40035 -2.55335,1.06352 0.34883,0.73565 0.78314,1.37524 1.27778,1.94139 l 0.56033,-0.56033 1.8337,0.3307 0.32961,1.83261 -0.38674,0.38674 c 0.17375,0.11528 0.34899,0.2303 0.52628,0.33949 0,0 1.1633,1.55329 2.50941,3.1005 1.54758,1.34653 3.10159,2.51049 3.10159,2.51049 0.10918,0.1773 0.2242,0.35254 0.33949,0.52628 l 0.386734,-0.38674 1.83261,0.32961 0.330706,1.83371 -0.38674,0.38674 c 0.361057,1.64319 6.137272,5.95048 6.137272,5.95048 0.109184,0.17729 0.224209,0.35254 0.339489,0.526279 l 0.386739,-0.386739 1.831516,0.328511 0.330704,1.833708 -0.38674,0.386739 c 0.361058,1.643194 6.137277,5.950487 6.137277,5.950487 0.109177,0.177286 0.224202,0.352528 0.339489,0.526279 l 0.38674,-0.38674 1.832604,0.329601 0.330711,1.833715 -0.560331,0.560331 -4.040973,4.040972 -0.560331,0.560332 -1.833715,-0.330711 -0.3296,-1.832605 0.386738,-0.386738 c -0.173765,-0.115272 -0.349,-0.23029 -0.526265,-0.339503 0,0 -4.307298,-5.776214 -5.950501,-6.137262 l -0.386738,0.386737 -1.833708,-0.330704 -0.328512,-1.831515 0.386738,-0.386738 c -0.173757,-0.115265 -0.348999,-0.23029 -0.526264,-0.339503 0,0 -4.307289,-5.776213 -5.950499,-6.137253 l -0.38674,0.38673 -1.8337,-0.3307 -0.32961,-1.83261 0.38674,-0.38674 c -0.17376,-0.11527 -0.349,-0.23029 -0.52627,-0.3395 0,0 -1.16396,-1.55401 -2.51049,-3.10159 -1.54721,-1.34611 -3.1005,-2.50941 -3.1005,-2.50941 -0.1092,-0.17728 -0.22423,-0.35252 -0.33951,-0.52626 l -0.38673,0.38674 -1.83261,-0.32961 -0.33071,-1.83371 0.56033,-0.56033 c -0.56614,-0.49464 -1.20573,-0.92895 -1.94138,-1.27778 -2.46388,-0.92651 -3.10007,1.23543 -1.06353,2.55336 0.40839,0.26427 0.94755,0.39799 1.51509,0.69107 -0.90644,0.44753 -1.22043,0.64093 -2.42151,1.03276 -5.63823,0.12946 -9.36636,-5.78004 -3.77948,-9.27951 -3.30793,-0.82259 -5.13241,-3.50662 -4.49583,-6.59872 0.0855,-0.41525 0.24526,-0.87197 0.23182,-1.3393 -0.009,-0.31474 -0.20985,-0.950364 -0.20985,-0.950364 z" />
    <path
       d="m 96.989367,9.515321 -1.77877,0.74161 c 0,0 -0.63562,0.20081 -0.95037,0.20985 -0.46731,0.0134 -0.92405,-0.14631 -1.33929,-0.23182 -3.0921,-0.63658 -5.77613,1.1879 -6.59872,4.495834 -3.49946,-5.586884 -9.40897,-1.85875 -9.27952,3.77949 0.39184,1.20107 0.58524,1.51505 1.03277,2.4215 0.29307,-0.56754 0.4268,-1.10669 0.69108,-1.51509 1.31792,-2.03654 3.47986,-1.40035 2.55334,1.06353 -0.34882,0.73564 -0.78313,1.37523 -1.27777,1.94138 l -0.56033,-0.56033 -1.8337,0.3307 -0.32961,1.83261 0.38674,0.38674 c -0.17375,0.11528 -0.34899,0.23031 -0.52628,0.33949 0,0 -1.1633,1.55329 -2.50941,3.1005 -1.54758,1.34653 -3.10159,2.5105 -3.10159,2.5105 -0.10918,0.17729 -0.22421,0.35253 -0.33949,0.52628 l -0.386744,-0.38674 -1.83261,0.3296 -0.3307,1.83371 0.38674,0.38674 c -0.36106,1.6432 -6.137277,5.95049 -6.137277,5.95049 -0.109183,0.17729 -0.224208,0.35253 -0.339489,0.526274 l -0.38674,-0.386744 -1.831511,0.328513 -0.330705,1.833708 0.386739,0.38674 c -0.361057,1.643194 -6.137274,5.950484 -6.137274,5.950484 -0.109183,0.177292 -0.224208,0.352534 -0.339489,0.526279 l -0.386739,-0.38674 -1.83261,0.329607 -0.330706,1.833709 0.560332,0.560331 4.040972,4.040972 0.560331,0.560332 1.833709,-0.330706 0.329607,-1.83261 -0.386738,-0.386738 c 0.173761,-0.115269 0.348999,-0.23029 0.526264,-0.339503 0,0 4.307296,-5.776211 5.950494,-6.13726 l 0.38674,0.386738 1.83371,-0.330705 0.32851,-1.831511 -0.38674,-0.386738 c 0.17376,-0.11527 0.349,-0.230291 0.52627,-0.339503 0,0 4.307294,-5.776209 5.950494,-6.137259 l 0.38674,0.38674 1.83371,-0.33071 0.32961,-1.83261 -0.38674,-0.38674 c 0.17376,-0.11527 0.349,-0.23029 0.52626,-0.3395 0,0 1.16397,-1.55401 2.5105,-3.10159 1.54721,-1.34611 3.1005,-2.50941 3.1005,-2.50941 0.1092,-0.17728 0.22422,-0.35251 0.3395,-0.52626 l 0.38674,0.38674 1.83261,-0.32961 0.33071,-1.83371 -0.56033,-0.56033 c 0.56614,-0.49464 1.20573,-0.92895 1.94137,-1.27777 2.46388,-0.92652 3.10007,1.23543 1.06353,2.55335 -0.40838,0.26428 -0.94755,0.398 -1.51508,0.69107 0.90644,0.44753 1.22042,0.64094 2.4215,1.03277 5.63824,0.12945 9.36637,-5.78005 3.77949,-9.27951 3.30793,-0.8226 5.13241,-3.50663 4.49583,-6.59872 -0.0855,-0.41525 -0.24526,-0.87198 -0.23183,-1.3393 0.009,-0.31474 0.20985,-0.950374 0.20985,-0.950374 z"
       style="fill:#000000;fill-opacity:1;stroke:none;stroke-width:0.452116px;stroke-linecap:butt;stroke-linejoin:miter;stroke-opacity:1"
       id="path872-3-6-8-2-11-5-5-1" />
  </g>
</svg>
