<?xml version="1.0" encoding="UTF-8"?>
<svg version="1.1" viewBox="0 0 100 110" xmlns="http://www.w3.org/2000/svg" xmlns:cc="http://creativecommons.org/ns#" xmlns:dc="http://purl.org/dc/elements/1.1/" xmlns:rdf="http://www.w3.org/1999/02/22-rdf-syntax-ns#" xmlns:xlink="http://www.w3.org/1999/xlink">
 <metadata>
  <rdf:RDF>
   <cc:Work rdf:about="">
    <dc:format>image/svg+xml</dc:format>
    <dc:type rdf:resource="http://purl.org/dc/dcmitype/StillImage"/>
    <dc:title/>
   </cc:Work>
  </rdf:RDF>
 </metadata>
 <text x="-52.679455" y="21.611652" fill="#000000" font-family="monospace" font-size="16px" letter-spacing="0px" word-spacing="0px" style="font-feature-settings:normal;font-variant-caps:normal;font-variant-ligatures:normal;font-variant-numeric:normal;line-height:20px" xml:space="preserve"/>
 <text x="-52.414291" y="15.998991" fill="#000000" font-family="monospace" font-size="16px" letter-spacing="0px" word-spacing="0px" style="font-feature-settings:normal;font-variant-caps:normal;font-variant-ligatures:normal;font-variant-numeric:normal;line-height:20px" xml:space="preserve"/>
 <g id="g1241" transform="matrix(.8222 0 0 .9707 521.2 -206.4)">
  <rect id="rect1016" transform="rotate(45)" x="-215" y="508.4" width="10.33" height="21.18" rx="5.164" ry="5.459" fill="none" stroke="#000" stroke-linecap="round" stroke-linejoin="round" stroke-width="2" style="paint-order:stroke fill markers"/>
  <use id="use1203" transform="translate(-13.14 7.124)" width="100%" height="100%" xlink:href="#rect1016"/>
  <use id="use1209" transform="translate(-6.437 13.41)" width="100%" height="100%" xlink:href="#use1203"/>
  <use id="use1211" transform="translate(-32.07 28.74)" width="100%" height="100%" xlink:href="#rect1016"/>
  <use id="use1213" transform="translate(-32.07 28.74)" width="100%" height="100%" xlink:href="#use1203"/>
  <use id="use1215" transform="translate(-32.07 28.74)" width="100%" height="100%" xlink:href="#use1209"/>
  <use transform="translate(-64.89 58.01)" width="100%" height="100%" xlink:href="#rect1016"/>
  <use transform="translate(-64.89 58.01)" width="100%" height="100%" xlink:href="#use1203"/>
  <use transform="translate(-64.89 58.01)" width="100%" height="100%" xlink:href="#use1209"/>
  <use transform="translate(-64.89 58.01)" width="100%" height="100%" xlink:href="#use1211"/>
  <use transform="translate(-64.89 58.01)" width="100%" height="100%" xlink:href="#use1213"/>
  <use transform="translate(-64.89 58.01)" width="100%" height="100%" xlink:href="#use1215"/>
 </g>
 <use transform="matrix(-1 0 0 1 99.17 -1.179e-8)" width="100%" height="100%" xlink:href="#g1241"/>
</svg>
