<?xml version="1.0" encoding="UTF-8"?>
<svg version="1.1" viewBox="0 0 100 110" xmlns="http://www.w3.org/2000/svg" xmlns:cc="http://creativecommons.org/ns#" xmlns:dc="http://purl.org/dc/elements/1.1/" xmlns:rdf="http://www.w3.org/1999/02/22-rdf-syntax-ns#">
 <metadata>
  <rdf:RDF>
   <cc:Work rdf:about="">
    <dc:format>image/svg+xml</dc:format>
    <dc:type rdf:resource="http://purl.org/dc/dcmitype/StillImage"/>
    <dc:title/>
   </cc:Work>
  </rdf:RDF>
 </metadata>
 <text x="-52.679455" y="21.611652" fill="#000000" font-family="monospace" font-size="16px" letter-spacing="0px" word-spacing="0px" style="font-feature-settings:normal;font-variant-caps:normal;font-variant-ligatures:normal;font-variant-numeric:normal;line-height:20px" xml:space="preserve"/>
 <text x="-52.414291" y="15.998991" fill="#000000" font-family="monospace" font-size="16px" letter-spacing="0px" word-spacing="0px" style="font-feature-settings:normal;font-variant-caps:normal;font-variant-ligatures:normal;font-variant-numeric:normal;line-height:20px" xml:space="preserve"/>
 <g transform="matrix(.6788 0 0 .6788 139.5 52.53)">
  <path d="m-109.4-59.52a36.96 36.96 0 0 0-36.96 36.96 36.96 36.96 0 0 0 36.96 36.96 36.96 36.96 0 0 0 36.96-36.96 36.96 36.96 0 0 0-36.96-36.96zm0 9.242a27.72 27.72 0 0 1 2.768 0.1387 27.72 27.72 0 0 1 2.74 0.4141 27.72 27.72 0 0 1 2.684 0.6855 27.72 27.72 0 0 1 2.604 0.9492 27.72 27.72 0 0 1 2.496 1.205 27.72 27.72 0 0 1 2.361 1.449 27.72 27.72 0 0 1 2.207 1.678 27.72 27.72 0 0 1 2.027 1.889 27.72 27.72 0 0 1 1.828 2.082 27.72 27.72 0 0 1 1.613 2.254 27.72 27.72 0 0 1 1.379 2.404 27.72 27.72 0 0 1 1.131 2.529 27.72 27.72 0 0 1 0.875 2.629 27.72 27.72 0 0 1 0.6055 2.703 27.72 27.72 0 0 1 0.334 2.752 27.72 27.72 0 0 1 0.07031 1.961 27.72 27.72 0 0 1-0.1387 2.768 27.72 27.72 0 0 1-0.4141 2.74 27.72 27.72 0 0 1-0.6855 2.686 27.72 27.72 0 0 1-0.9492 2.602 27.72 27.72 0 0 1-1.207 2.496 27.72 27.72 0 0 1-1.447 2.363 27.72 27.72 0 0 1-1.678 2.205 27.72 27.72 0 0 1-1.889 2.027 27.72 27.72 0 0 1-2.082 1.83 27.72 27.72 0 0 1-2.254 1.611 27.72 27.72 0 0 1-2.404 1.379 27.72 27.72 0 0 1-2.529 1.133 27.72 27.72 0 0 1-2.629 0.873 27.72 27.72 0 0 1-2.705 0.6074 27.72 27.72 0 0 1-2.75 0.334 27.72 27.72 0 0 1-1.961 0.06836 27.72 27.72 0 0 1-2.768-0.1387 27.72 27.72 0 0 1-2.74-0.4141 27.72 27.72 0 0 1-2.686-0.6855 27.72 27.72 0 0 1-2.604-0.9492 27.72 27.72 0 0 1-2.494-1.205 27.72 27.72 0 0 1-2.363-1.449 27.72 27.72 0 0 1-2.205-1.678 27.72 27.72 0 0 1-2.029-1.889 27.72 27.72 0 0 1-1.828-2.082 27.72 27.72 0 0 1-1.611-2.254 27.72 27.72 0 0 1-1.379-2.404 27.72 27.72 0 0 1-1.133-2.529 27.72 27.72 0 0 1-0.873-2.629 27.72 27.72 0 0 1-0.6074-2.703 27.72 27.72 0 0 1-0.334-2.752 27.72 27.72 0 0 1-0.0684-1.961 27.72 27.72 0 0 1 0.1367-2.768 27.72 27.72 0 0 1 0.4141-2.74 27.72 27.72 0 0 1 0.6855-2.686 27.72 27.72 0 0 1 0.9512-2.604 27.72 27.72 0 0 1 1.205-2.494 27.72 27.72 0 0 1 1.449-2.363 27.72 27.72 0 0 1 1.676-2.205 27.72 27.72 0 0 1 1.891-2.027 27.72 27.72 0 0 1 2.08-1.83 27.72 27.72 0 0 1 2.256-1.611 27.72 27.72 0 0 1 2.402-1.379 27.72 27.72 0 0 1 2.529-1.133 27.72 27.72 0 0 1 2.631-0.873 27.72 27.72 0 0 1 2.703-0.6074 27.72 27.72 0 0 1 2.752-0.334 27.72 27.72 0 0 1 1.961-0.06836z"/>
  <path d="m-87.7-46.65-18.39 18.39c0.5341 0.3042 1.029 0.6786 1.457 1.123 0.3453 0.3434 0.6386 0.7282 0.8887 1.139l18.35-18.35zm-27.35 27.35-18.28 18.28 2.303 2.305 18.22-18.22c-0.9396-0.5756-1.704-1.404-2.248-2.359z"/>
  <path d="m-131-46.65-2.303 2.305 18.36 18.36c0.5799-0.93 1.394-1.714 2.342-2.266zm27.38 27.38c-0.0874 0.1491-0.1802 0.2957-0.2812 0.4375-0.5147 0.7838-1.218 1.404-2.01 1.879l18.24 18.24 2.303-2.305z"/>
  <path d="m-141.6-24.31v3.256h25.89c-0.2215-0.9137-0.2715-1.868-0.0644-2.799 0.0284-0.1547 0.067-0.3061 0.1074-0.457zm38.59 0c0.2881 1.06 0.3123 2.185 0.0723 3.256h25.86v-3.256z"/>
  <path d="m-111-54.95v26.02c0.5303-0.1385 1.079-0.2101 1.635-0.1992 0.5487-0.0021 1.093 0.07526 1.623 0.2109v-26.03zm3.258 38.75c-1.065 0.2733-2.191 0.3002-3.258 0.02539v25.75h3.258z"/>
  <path d="m-109.4-31.32c-4.058-0.07647-7.863 3.04-8.598 7.029-0.8784 3.962 1.413 8.311 5.182 9.822 3.707 1.643 8.428 0.2681 10.66-3.127 2.354-3.307 1.927-8.206-0.9473-11.06-1.627-1.687-3.948-2.671-6.293-2.66zm0 2.193c3.344-0.07715 6.402 2.77 6.562 6.113 0.3021 3.259-2.202 6.464-5.445 6.947-3.22 0.6341-6.647-1.55-7.457-4.723-0.9472-3.141 0.8766-6.769 3.955-7.893 0.7581-0.2939 1.572-0.4458 2.385-0.4453z"/>
 </g>
</svg>
