<?xml version="1.0" encoding="UTF-8" standalone="no"?>
<svg
   xmlns:dc="http://purl.org/dc/elements/1.1/"
   xmlns:cc="http://creativecommons.org/ns#"
   xmlns:rdf="http://www.w3.org/1999/02/22-rdf-syntax-ns#"
   xmlns:svg="http://www.w3.org/2000/svg"
   xmlns="http://www.w3.org/2000/svg"
   xmlns:sodipodi="http://sodipodi.sourceforge.net/DTD/sodipodi-0.dtd"
   xmlns:inkscape="http://www.inkscape.org/namespaces/inkscape"
   viewBox="0 0 100 110"
   version="1.1"
   id="svg23"
   sodipodi:docname="ford.svg"
   inkscape:version="0.92.4 (5da689c313, 2019-01-14)">
  <metadata
     id="metadata29">
    <rdf:RDF>
      <cc:Work
         rdf:about="">
        <dc:format>image/svg+xml</dc:format>
        <dc:type
           rdf:resource="http://purl.org/dc/dcmitype/StillImage" />
        <dc:title />
      </cc:Work>
    </rdf:RDF>
  </metadata>
  <defs
     id="defs27" />
  <sodipodi:namedview
     pagecolor="#ffffff"
     bordercolor="#666666"
     borderopacity="1"
     objecttolerance="10"
     gridtolerance="10"
     guidetolerance="10"
     inkscape:pageopacity="0"
     inkscape:pageshadow="2"
     inkscape:window-width="1920"
     inkscape:window-height="1020"
     id="namedview25"
     showgrid="false"
     inkscape:zoom="5.6568543"
     inkscape:cx="46.148916"
     inkscape:cy="18.973629"
     inkscape:window-x="0"
     inkscape:window-y="0"
     inkscape:window-maximized="1"
     inkscape:current-layer="svg23"
     showguides="true"
     inkscape:guide-bbox="true" />
  <path
     style="opacity:1;vector-effect:none;fill:#000000;fill-opacity:1;fill-rule:nonzero;stroke:none;stroke-width:0.99999994;stroke-linecap:round;stroke-linejoin:round;stroke-miterlimit:4;stroke-dasharray:none;stroke-dashoffset:0;stroke-opacity:1;paint-order:markers stroke fill"
     d="M 74.775391 78 C 69.925671 78 67.16222 85.5 62.3125 85.5 C 57.464866 85.5 54.7013 78.008405 49.855469 78.001953 L 49.849609 78.001953 C 44.999888 78.001953 42.238392 85.501953 37.388672 85.501953 C 32.538951 85.501953 29.773548 78.001953 24.923828 78.001953 C 20.074107 78.001953 17.312612 85.501953 12.462891 85.501953 C 7.6131699 85.501953 -2.3684758e-15 78.001953 0 78.001953 L 0 85.501953 C 0 85.501953 1.9026908 87.376952 4.4121094 89.251953 C 5.6668187 90.189454 7.0730564 91.126953 8.46875 91.830078 C 9.1665965 92.181641 9.8609073 92.474609 10.533203 92.679688 C 11.205499 92.884766 11.856676 93.001953 12.462891 93.001953 C 13.069106 93.001953 13.642247 92.884765 14.191406 92.679688 C 14.740565 92.474609 15.265033 92.181641 15.773438 91.830078 C 16.790247 91.126953 17.741756 90.189454 18.693359 89.251953 C 19.64496 88.314453 20.596472 87.376954 21.613281 86.673828 C 22.121685 86.322266 22.646155 86.029297 23.195312 85.824219 C 23.744473 85.61914 24.317612 85.501953 24.923828 85.501953 C 25.530042 85.501953 26.105139 85.61914 26.654297 85.824219 C 27.203457 86.029297 27.727924 86.322266 28.236328 86.673828 C 29.253137 87.376954 30.204648 88.314453 31.15625 89.251953 C 32.107851 90.189454 33.059363 91.126953 34.076172 91.830078 C 34.584577 92.181641 35.109044 92.474609 35.658203 92.679688 C 36.207362 92.884766 36.782457 93.001953 37.388672 93.001953 C 37.994887 93.001953 38.568028 92.884765 39.117188 92.679688 C 39.666347 92.474609 40.190813 92.181641 40.699219 91.830078 C 41.716027 91.126953 42.667539 90.189454 43.619141 89.251953 C 44.570743 88.314453 45.522255 87.376954 46.539062 86.673828 C 47.047467 86.322266 47.571936 86.029297 48.121094 85.824219 C 48.670254 85.61914 49.243393 85.501953 49.849609 85.501953 L 49.855469 85.501953 C 50.459383 85.502756 51.0328 85.617892 51.580078 85.822266 C 52.129233 86.027344 52.653705 86.320313 53.162109 86.671875 C 54.178917 87.375001 55.128474 88.3125 56.080078 89.25 C 57.031683 90.187501 57.983193 91.125 59 91.828125 C 59.508404 92.179688 60.032876 92.472655 60.582031 92.677734 C 61.131193 92.882812 61.706287 93 62.3125 93 C 62.918719 93 63.491853 92.882812 64.041016 92.677734 C 64.59017 92.472655 65.114643 92.179688 65.623047 91.828125 C 66.639855 91.125 67.591364 90.187501 68.542969 89.25 C 69.494574 88.3125 70.448036 87.375001 71.464844 86.671875 C 71.973248 86.320313 72.497713 86.027344 73.046875 85.822266 C 73.59603 85.617187 74.169179 85.5 74.775391 85.5 C 75.381604 85.5 75.954736 85.617831 76.503906 85.822266 C 77.053061 86.0267 77.577527 86.319349 78.085938 86.669922 C 79.102754 87.371067 80.054254 88.306272 81.005859 89.242188 C 81.957463 90.178105 82.90898 91.114046 83.925781 91.818359 C 84.434184 92.170517 84.958658 92.465064 85.507812 92.671875 C 86.056967 92.878686 86.630123 92.996832 87.236328 93 C 87.853283 93.003225 88.514786 92.890815 89.201172 92.6875 C 89.88755 92.484187 90.600514 92.190803 91.314453 91.839844 C 92.742329 91.137928 94.181881 90.19888 95.46875 89.259766 C 98.042504 87.38154 100 85.5 100 85.5 L 100 78 C 100 78 92.171995 85.5258 87.236328 85.5 C 82.386675 85.474648 79.625113 78 74.775391 78 z M 74.775391 86.5 C 69.925671 86.5 67.16222 94 62.3125 94 C 57.464866 94 54.701308 86.508405 49.855469 86.501953 L 49.849609 86.501953 C 44.999888 86.501953 42.238392 94.001953 37.388672 94.001953 C 32.538951 94.001953 29.773548 86.501953 24.923828 86.501953 C 20.074107 86.501953 17.312612 94.001953 12.462891 94.001953 C 7.6131699 94.001953 -2.3684758e-15 86.501953 0 86.501953 L 0 94.001953 C 0 94.001953 1.9026908 95.876952 4.4121094 97.751953 C 5.6668187 98.689454 7.0730564 99.626966 8.46875 100.33008 C 9.1665965 100.68165 9.8609073 100.97461 10.533203 101.17969 C 11.205499 101.38477 11.856676 101.50195 12.462891 101.50195 C 13.069106 101.50195 13.642247 101.38477 14.191406 101.17969 C 14.740565 100.97461 15.265033 100.68165 15.773438 100.33008 C 16.790247 99.626966 17.741756 98.689454 18.693359 97.751953 C 19.64496 96.814453 20.596472 95.876954 21.613281 95.173828 C 22.121685 94.822266 22.646155 94.529297 23.195312 94.324219 C 23.744473 94.11914 24.317612 94.001953 24.923828 94.001953 C 25.530042 94.001953 26.105139 94.11914 26.654297 94.324219 C 27.203457 94.529297 27.727924 94.822266 28.236328 95.173828 C 29.253137 95.876954 30.204648 96.814453 31.15625 97.751953 C 32.107851 98.689454 33.059363 99.626966 34.076172 100.33008 C 34.584577 100.68165 35.109044 100.97461 35.658203 101.17969 C 36.207362 101.38477 36.782457 101.50195 37.388672 101.50195 C 37.994887 101.50195 38.568028 101.38477 39.117188 101.17969 C 39.666347 100.97461 40.190813 100.68165 40.699219 100.33008 C 41.716027 99.626966 42.667539 98.689454 43.619141 97.751953 C 44.570743 96.814453 45.522255 95.876954 46.539062 95.173828 C 47.047467 94.822266 47.571936 94.529297 48.121094 94.324219 C 48.670254 94.11914 49.243393 94.001953 49.849609 94.001953 L 49.855469 94.001953 C 50.459383 94.002756 51.0328 94.117892 51.580078 94.322266 C 52.129233 94.527344 52.653705 94.820313 53.162109 95.171875 C 54.178917 95.875001 55.128474 96.8125 56.080078 97.75 C 57.031683 98.687501 57.983193 99.625008 59 100.32812 C 59.508404 100.67969 60.032876 100.97265 60.582031 101.17773 C 61.131193 101.38281 61.706287 101.5 62.3125 101.5 C 62.918719 101.5 63.491853 101.38281 64.041016 101.17773 C 64.59017 100.97265 65.114643 100.67969 65.623047 100.32812 C 66.639855 99.625008 67.591364 98.687501 68.542969 97.75 C 69.494574 96.8125 70.448036 95.875001 71.464844 95.171875 C 71.973248 94.820313 72.497713 94.527344 73.046875 94.322266 C 73.59603 94.117187 74.169179 94 74.775391 94 C 75.381604 94 75.954736 94.117831 76.503906 94.322266 C 77.053061 94.5267 77.577527 94.817396 78.085938 95.167969 C 79.102754 95.869114 80.054254 96.804318 81.005859 97.740234 C 81.957463 98.676151 82.90898 99.614038 83.925781 100.31836 C 84.434184 100.67051 84.958658 100.96506 85.507812 101.17188 C 86.056967 101.37869 86.630123 101.49683 87.236328 101.5 C 87.853283 101.50322 88.514786 101.38886 89.201172 101.18555 C 89.88755 100.98224 90.600514 100.6908 91.314453 100.33984 C 92.742329 99.637933 94.181881 98.69888 95.46875 97.759766 C 98.042504 95.88154 100 94 100 94 L 100 86.5 C 100 86.5 92.171995 94.0258 87.236328 94 C 82.386675 93.974648 79.625113 86.5 74.775391 86.5 z M 74.775391 95 C 69.925671 95 67.16222 102.5 62.3125 102.5 C 57.464866 102.5 54.701308 95.008405 49.855469 95.001953 C 49.853956 95.001952 49.851121 95.001953 49.849609 95.001953 C 44.999888 95.001953 42.238392 102.50195 37.388672 102.50195 C 32.538951 102.50195 29.773548 95.001953 24.923828 95.001953 C 20.074107 95.001953 17.312612 102.50195 12.462891 102.50195 C 7.6131699 102.50195 -2.3684758e-15 95.001953 0 95.001953 L 0 102.50195 C 0 102.50195 1.9026908 104.37695 4.4121094 106.25195 C 5.6668187 107.18945 7.0730564 108.12696 8.46875 108.83008 C 9.1665965 109.18165 9.8609073 109.47462 10.533203 109.67969 C 11.205499 109.88477 11.856676 110.00195 12.462891 110.00195 C 13.069106 110.00195 13.642247 109.88477 14.191406 109.67969 C 14.740565 109.47462 15.265033 109.18165 15.773438 108.83008 C 16.790247 108.12698 17.741756 107.18945 18.693359 106.25195 C 19.64496 105.31445 20.596472 104.37695 21.613281 103.67383 C 22.121685 103.32226 22.646155 103.02929 23.195312 102.82422 C 23.744473 102.61914 24.317612 102.50195 24.923828 102.50195 C 25.530042 102.50195 26.105139 102.61914 26.654297 102.82422 C 27.203457 103.02929 27.727924 103.32224 28.236328 103.67383 C 29.253137 104.37694 30.204648 105.31445 31.15625 106.25195 C 32.107851 107.18945 33.059363 108.12696 34.076172 108.83008 C 34.584577 109.18165 35.109044 109.47462 35.658203 109.67969 C 36.207362 109.88477 36.782457 110.00195 37.388672 110.00195 C 37.994887 110.00195 38.568028 109.88477 39.117188 109.67969 C 39.666347 109.47462 40.190813 109.18165 40.699219 108.83008 C 41.716027 108.12698 42.667539 107.18945 43.619141 106.25195 C 44.570743 105.31445 45.522255 104.37695 46.539062 103.67383 C 47.047467 103.32226 47.571936 103.02929 48.121094 102.82422 C 48.670254 102.61914 49.243393 102.50195 49.849609 102.50195 L 49.855469 102.50195 C 50.459383 102.50276 51.0328 102.61789 51.580078 102.82227 C 52.129233 103.02734 52.653705 103.32031 53.162109 103.67188 C 54.178917 104.37497 55.128474 105.3125 56.080078 106.25 C 57.031683 107.1875 57.983193 108.125 59 108.82812 C 59.508404 109.17969 60.032876 109.47266 60.582031 109.67773 C 61.131193 109.88281 61.706287 110 62.3125 110 C 62.918719 110 63.491853 109.88281 64.041016 109.67773 C 64.59017 109.47266 65.114643 109.17969 65.623047 108.82812 C 66.639855 108.12503 67.591364 107.1875 68.542969 106.25 C 69.494574 105.3125 70.448036 104.375 71.464844 103.67188 C 71.973248 103.3203 72.497713 103.02734 73.046875 102.82227 C 73.59603 102.61719 74.169179 102.5 74.775391 102.5 C 75.381604 102.5 75.954736 102.61783 76.503906 102.82227 C 77.053061 103.0267 77.577527 103.31934 78.085938 103.66992 C 79.102754 104.37106 80.054254 105.30627 81.005859 106.24219 C 81.957463 107.1781 82.90898 108.11405 83.925781 108.81836 C 84.434184 109.17052 84.958658 109.46506 85.507812 109.67188 C 86.056967 109.87869 86.630123 109.99683 87.236328 110 C 87.853283 110.00322 88.514786 109.89082 89.201172 109.6875 C 89.88755 109.48419 90.600514 109.1908 91.314453 108.83984 C 92.742329 108.13793 94.181881 107.19888 95.46875 106.25977 C 98.042504 104.38155 100 102.5 100 102.5 L 100 95 C 100 95 92.171995 102.5258 87.236328 102.5 C 82.386675 102.47465 79.625113 95 74.775391 95 z M 74.775391 103.5 C 69.925671 103.5 67.16222 111 62.3125 111 C 57.464866 111 54.701308 103.5084 49.855469 103.50195 L 49.849609 103.50195 C 44.999888 103.50195 42.238392 111.00195 37.388672 111.00195 C 32.538951 111.00195 29.773548 103.50195 24.923828 103.50195 C 20.074107 103.50195 17.312612 111.00195 12.462891 111.00195 C 7.6131699 111.00195 -2.3684758e-15 103.50195 0 103.50195 L 0 111.00195 C 0 111.00195 1.9026908 112.87695 4.4121094 114.75195 C 5.6668187 115.68945 7.0730564 116.62696 8.46875 117.33008 C 9.1665965 117.68165 9.8609073 117.97462 10.533203 118.17969 C 11.205499 118.38477 11.856676 118.50195 12.462891 118.50195 C 13.069106 118.50195 13.642247 118.38477 14.191406 118.17969 C 14.740565 117.97462 15.265033 117.68165 15.773438 117.33008 C 16.790247 116.62698 17.741756 115.68945 18.693359 114.75195 C 19.64496 113.81445 20.596472 112.87695 21.613281 112.17383 C 22.121685 111.82226 22.646155 111.52929 23.195312 111.32422 C 23.744473 111.11914 24.317612 111.00195 24.923828 111.00195 C 25.530042 111.00195 26.105139 111.11914 26.654297 111.32422 C 27.203457 111.52929 27.727924 111.82224 28.236328 112.17383 C 29.253137 112.87694 30.204648 113.81445 31.15625 114.75195 C 32.107851 115.68945 33.059363 116.62696 34.076172 117.33008 C 34.584577 117.68165 35.109044 117.97462 35.658203 118.17969 C 36.207362 118.38477 36.782457 118.50195 37.388672 118.50195 C 37.994887 118.50195 38.568028 118.38477 39.117188 118.17969 C 39.666347 117.97462 40.190813 117.68165 40.699219 117.33008 C 41.716027 116.62698 42.667539 115.68945 43.619141 114.75195 C 44.570743 113.81445 45.522255 112.87695 46.539062 112.17383 C 47.047467 111.82226 47.571936 111.52929 48.121094 111.32422 C 48.670254 111.11914 49.243393 111.00195 49.849609 111.00195 L 49.855469 111.00195 C 50.459383 111.00276 51.0328 111.11789 51.580078 111.32227 C 52.129233 111.52734 52.653705 111.82031 53.162109 112.17188 C 54.178917 112.87497 55.128474 113.8125 56.080078 114.75 C 57.031683 115.6875 57.983193 116.625 59 117.32812 C 59.508404 117.67969 60.032876 117.97266 60.582031 118.17773 C 61.131193 118.38281 61.706287 118.5 62.3125 118.5 C 62.918719 118.5 63.491853 118.38281 64.041016 118.17773 C 64.59017 117.97266 65.114643 117.67969 65.623047 117.32812 C 66.639855 116.62503 67.591364 115.6875 68.542969 114.75 C 69.494574 113.8125 70.448036 112.875 71.464844 112.17188 C 71.973248 111.8203 72.497713 111.52734 73.046875 111.32227 C 73.59603 111.11719 74.169179 111 74.775391 111 C 75.381604 111 75.954736 111.11783 76.503906 111.32227 C 77.053061 111.5267 77.577527 111.81934 78.085938 112.16992 C 79.102754 112.87106 80.054254 113.80627 81.005859 114.74219 C 81.957463 115.6781 82.90898 116.61405 83.925781 117.31836 C 84.434184 117.67052 84.958658 117.96506 85.507812 118.17188 C 86.056967 118.37869 86.630123 118.49683 87.236328 118.5 C 87.853283 118.50322 88.514786 118.39082 89.201172 118.1875 C 89.88755 117.98419 90.600514 117.6908 91.314453 117.33984 C 92.742329 116.63793 94.181881 115.69888 95.46875 114.75977 C 98.042504 112.88155 100 111 100 111 L 100 103.5 C 100 103.5 92.171995 111.0258 87.236328 111 C 82.386675 110.97465 79.625113 103.5 74.775391 103.5 z "
     id="path954" />
</svg>
