<?xml version="1.0" encoding="UTF-8" standalone="no"?>
<svg
   xmlns:dc="http://purl.org/dc/elements/1.1/"
   xmlns:cc="http://creativecommons.org/ns#"
   xmlns:rdf="http://www.w3.org/1999/02/22-rdf-syntax-ns#"
   xmlns:svg="http://www.w3.org/2000/svg"
   xmlns="http://www.w3.org/2000/svg"
   xmlns:sodipodi="http://sodipodi.sourceforge.net/DTD/sodipodi-0.dtd"
   xmlns:inkscape="http://www.inkscape.org/namespaces/inkscape"
   inkscape:version="1.0 (4035a4fb49, 2020-05-01)"
   sodipodi:docname="moon.svg"
   id="svg4"
   version="1.1"
   viewBox="0 0 100 110">
  <metadata
     id="metadata10">
    <rdf:RDF>
      <cc:Work
         rdf:about="">
        <dc:format>image/svg+xml</dc:format>
        <dc:type
           rdf:resource="http://purl.org/dc/dcmitype/StillImage" />
        <dc:title></dc:title>
      </cc:Work>
    </rdf:RDF>
  </metadata>
  <defs
     id="defs8" />
  <sodipodi:namedview
     inkscape:snap-bbox-midpoints="true"
     inkscape:snap-bbox-edge-midpoints="true"
     inkscape:bbox-nodes="true"
     inkscape:bbox-paths="true"
     inkscape:snap-bbox="true"
     inkscape:guide-bbox="true"
     showguides="true"
     inkscape:document-rotation="0"
     inkscape:current-layer="svg4"
     inkscape:window-maximized="1"
     inkscape:window-y="0"
     inkscape:window-x="0"
     inkscape:cy="29.45105"
     inkscape:cx="41.893288"
     inkscape:zoom="3.2593742"
     showgrid="false"
     id="namedview6"
     inkscape:window-height="1020"
     inkscape:window-width="1920"
     inkscape:pageshadow="2"
     inkscape:pageopacity="0"
     guidetolerance="10"
     gridtolerance="10"
     objecttolerance="10"
     borderopacity="1"
     bordercolor="#666666"
     pagecolor="#ffffff" />
  <path
     d="M 49.921875 25.060547 A 17.984894 17.984894 0 0 0 32.015625 43.044922 A 17.984894 17.984894 0 0 0 50 61.029297 A 17.984894 17.984894 0 0 0 53.882812 60.605469 A 17.984894 17.984894 0 0 1 53.876953 60.603516 A 17.984894 17.984894 0 0 1 53.53125 60.523438 A 17.984894 17.984894 0 0 1 53.185547 60.435547 A 17.984894 17.984894 0 0 1 52.839844 60.341797 A 17.984894 17.984894 0 0 1 52.498047 60.240234 A 17.984894 17.984894 0 0 1 52.158203 60.132812 A 17.984894 17.984894 0 0 1 51.820312 60.017578 A 17.984894 17.984894 0 0 1 51.486328 59.896484 A 17.984894 17.984894 0 0 1 51.152344 59.767578 A 17.984894 17.984894 0 0 1 50.822266 59.634766 A 17.984894 17.984894 0 0 1 50.496094 59.492188 A 17.984894 17.984894 0 0 1 50.169922 59.345703 A 17.984894 17.984894 0 0 1 49.849609 59.191406 A 17.984894 17.984894 0 0 1 49.529297 59.03125 A 17.984894 17.984894 0 0 1 49.214844 58.865234 A 17.984894 17.984894 0 0 1 48.902344 58.691406 A 17.984894 17.984894 0 0 1 48.59375 58.513672 A 17.984894 17.984894 0 0 1 48.289062 58.328125 A 17.984894 17.984894 0 0 1 47.988281 58.136719 A 17.984894 17.984894 0 0 1 47.691406 57.941406 A 17.984894 17.984894 0 0 1 47.398438 57.738281 A 17.984894 17.984894 0 0 1 47.107422 57.529297 A 17.984894 17.984894 0 0 1 46.822266 57.314453 A 17.984894 17.984894 0 0 1 46.542969 57.095703 A 17.984894 17.984894 0 0 1 46.265625 56.869141 A 17.984894 17.984894 0 0 1 45.994141 56.638672 A 17.984894 17.984894 0 0 1 45.726562 56.402344 A 17.984894 17.984894 0 0 1 45.464844 56.162109 A 17.984894 17.984894 0 0 1 45.207031 55.914062 A 17.984894 17.984894 0 0 1 44.955078 55.664062 A 17.984894 17.984894 0 0 1 44.707031 55.40625 A 17.984894 17.984894 0 0 1 44.464844 55.144531 A 17.984894 17.984894 0 0 1 44.226562 54.878906 A 17.984894 17.984894 0 0 1 43.994141 54.607422 A 17.984894 17.984894 0 0 1 43.767578 54.332031 A 17.984894 17.984894 0 0 1 43.546875 54.052734 A 17.984894 17.984894 0 0 1 43.332031 53.769531 A 17.984894 17.984894 0 0 1 43.121094 53.480469 A 17.984894 17.984894 0 0 1 42.917969 53.1875 A 17.984894 17.984894 0 0 1 42.71875 52.892578 A 17.984894 17.984894 0 0 1 42.527344 52.591797 A 17.984894 17.984894 0 0 1 42.341797 52.287109 A 17.984894 17.984894 0 0 1 42.160156 51.980469 A 17.984894 17.984894 0 0 1 41.986328 51.667969 A 17.984894 17.984894 0 0 1 41.818359 51.353516 A 17.984894 17.984894 0 0 1 41.658203 51.035156 A 17.984894 17.984894 0 0 1 41.501953 50.714844 A 17.984894 17.984894 0 0 1 41.353516 50.390625 A 17.984894 17.984894 0 0 1 41.210938 50.064453 A 17.984894 17.984894 0 0 1 41.074219 49.734375 A 17.984894 17.984894 0 0 1 40.945312 49.402344 A 17.984894 17.984894 0 0 1 40.822266 49.066406 A 17.984894 17.984894 0 0 1 40.707031 48.730469 A 17.984894 17.984894 0 0 1 40.597656 48.390625 A 17.984894 17.984894 0 0 1 40.494141 48.048828 A 17.984894 17.984894 0 0 1 40.398438 47.705078 A 17.984894 17.984894 0 0 1 40.310547 47.359375 A 17.984894 17.984894 0 0 1 40.228516 47.013672 A 17.984894 17.984894 0 0 1 40.152344 46.664062 A 17.984894 17.984894 0 0 1 40.083984 46.314453 A 17.984894 17.984894 0 0 1 40.023438 45.962891 A 17.984894 17.984894 0 0 1 39.96875 45.611328 A 17.984894 17.984894 0 0 1 39.921875 45.257812 A 17.984894 17.984894 0 0 1 39.880859 44.902344 A 17.984894 17.984894 0 0 1 39.847656 44.546875 A 17.984894 17.984894 0 0 1 39.820312 44.191406 A 17.984894 17.984894 0 0 1 39.802734 43.835938 A 17.984894 17.984894 0 0 1 39.789062 43.480469 A 17.984894 17.984894 0 0 1 39.785156 43.123047 A 17.984894 17.984894 0 0 1 39.785156 43.044922 A 17.984894 17.984894 0 0 1 39.789062 42.6875 A 17.984894 17.984894 0 0 1 39.798828 42.332031 A 17.984894 17.984894 0 0 1 39.816406 41.976562 A 17.984894 17.984894 0 0 1 39.841797 41.619141 A 17.984894 17.984894 0 0 1 39.873047 41.265625 A 17.984894 17.984894 0 0 1 39.912109 40.910156 A 17.984894 17.984894 0 0 1 39.957031 40.556641 A 17.984894 17.984894 0 0 1 40.009766 40.203125 A 17.984894 17.984894 0 0 1 40.070312 39.851562 A 17.984894 17.984894 0 0 1 40.136719 39.501953 A 17.984894 17.984894 0 0 1 40.210938 39.152344 A 17.984894 17.984894 0 0 1 40.291016 38.806641 A 17.984894 17.984894 0 0 1 40.378906 38.460938 A 17.984894 17.984894 0 0 1 40.472656 38.117188 A 17.984894 17.984894 0 0 1 40.574219 37.773438 A 17.984894 17.984894 0 0 1 40.681641 37.433594 A 17.984894 17.984894 0 0 1 40.796875 37.095703 A 17.984894 17.984894 0 0 1 40.917969 36.761719 A 17.984894 17.984894 0 0 1 41.044922 36.427734 A 17.984894 17.984894 0 0 1 41.179688 36.097656 A 17.984894 17.984894 0 0 1 41.322266 35.771484 A 17.984894 17.984894 0 0 1 41.46875 35.445312 A 17.984894 17.984894 0 0 1 41.623047 35.125 A 17.984894 17.984894 0 0 1 41.783203 34.804688 A 17.984894 17.984894 0 0 1 41.949219 34.490234 A 17.984894 17.984894 0 0 1 42.123047 34.177734 A 17.984894 17.984894 0 0 1 42.300781 33.869141 A 17.984894 17.984894 0 0 1 42.486328 33.564453 A 17.984894 17.984894 0 0 1 42.677734 33.263672 A 17.984894 17.984894 0 0 1 42.873047 32.966797 A 17.984894 17.984894 0 0 1 43.076172 32.673828 A 17.984894 17.984894 0 0 1 43.285156 32.382812 A 17.984894 17.984894 0 0 1 43.5 32.099609 A 17.984894 17.984894 0 0 1 43.71875 31.818359 A 17.984894 17.984894 0 0 1 43.945312 31.541016 A 17.984894 17.984894 0 0 1 44.175781 31.269531 A 17.984894 17.984894 0 0 1 44.412109 31.001953 A 17.984894 17.984894 0 0 1 44.652344 30.740234 A 17.984894 17.984894 0 0 1 44.900391 30.482422 A 17.984894 17.984894 0 0 1 45.150391 30.230469 A 17.984894 17.984894 0 0 1 45.408203 29.982422 A 17.984894 17.984894 0 0 1 45.669922 29.740234 A 17.984894 17.984894 0 0 1 45.935547 29.501953 A 17.984894 17.984894 0 0 1 46.207031 29.269531 A 17.984894 17.984894 0 0 1 46.482422 29.042969 A 17.984894 17.984894 0 0 1 46.761719 28.822266 A 17.984894 17.984894 0 0 1 47.044922 28.607422 A 17.984894 17.984894 0 0 1 47.333984 28.396484 A 17.984894 17.984894 0 0 1 47.626953 28.193359 A 17.984894 17.984894 0 0 1 47.921875 27.994141 A 17.984894 17.984894 0 0 1 48.222656 27.802734 A 17.984894 17.984894 0 0 1 48.527344 27.617188 A 17.984894 17.984894 0 0 1 48.833984 27.435547 A 17.984894 17.984894 0 0 1 49.146484 27.261719 A 17.984894 17.984894 0 0 1 49.460938 27.09375 A 17.984894 17.984894 0 0 1 49.779297 26.933594 A 17.984894 17.984894 0 0 1 50.099609 26.777344 A 17.984894 17.984894 0 0 1 50.423828 26.628906 A 17.984894 17.984894 0 0 1 50.75 26.486328 A 17.984894 17.984894 0 0 1 51.080078 26.349609 A 17.984894 17.984894 0 0 1 51.412109 26.220703 A 17.984894 17.984894 0 0 1 51.748047 26.097656 A 17.984894 17.984894 0 0 1 52.083984 25.982422 A 17.984894 17.984894 0 0 1 52.423828 25.873047 A 17.984894 17.984894 0 0 1 52.765625 25.769531 A 17.984894 17.984894 0 0 1 53.109375 25.673828 A 17.984894 17.984894 0 0 1 53.455078 25.585938 A 17.984894 17.984894 0 0 1 53.800781 25.503906 A 17.984894 17.984894 0 0 1 53.886719 25.484375 A 17.984894 17.984894 0 0 0 50 25.060547 A 17.984894 17.984894 0 0 0 49.921875 25.060547 z "
     style="fill:#000000;fill-rule:evenodd;stroke-width:0.55535;stroke-linejoin:round;paint-order:markers stroke fill"
     id="path2749" />
</svg>
