<?xml version="1.0" encoding="UTF-8" standalone="no"?>
<svg
   xmlns:dc="http://purl.org/dc/elements/1.1/"
   xmlns:cc="http://creativecommons.org/ns#"
   xmlns:rdf="http://www.w3.org/1999/02/22-rdf-syntax-ns#"
   xmlns:svg="http://www.w3.org/2000/svg"
   xmlns="http://www.w3.org/2000/svg"
   xmlns:sodipodi="http://sodipodi.sourceforge.net/DTD/sodipodi-0.dtd"
   xmlns:inkscape="http://www.inkscape.org/namespaces/inkscape"
   inkscape:version="1.0 (4035a4fb49, 2020-05-01)"
   sodipodi:docname="sun.svg"
   id="svg4"
   version="1.1"
   viewBox="0 0 100 110">
  <metadata
     id="metadata10">
    <rdf:RDF>
      <cc:Work
         rdf:about="">
        <dc:format>image/svg+xml</dc:format>
        <dc:type
           rdf:resource="http://purl.org/dc/dcmitype/StillImage" />
        <dc:title></dc:title>
      </cc:Work>
    </rdf:RDF>
  </metadata>
  <defs
     id="defs8" />
  <sodipodi:namedview
     inkscape:snap-bbox-midpoints="true"
     inkscape:snap-bbox-edge-midpoints="true"
     inkscape:bbox-nodes="true"
     inkscape:bbox-paths="true"
     inkscape:snap-bbox="true"
     inkscape:guide-bbox="true"
     showguides="true"
     inkscape:document-rotation="0"
     inkscape:current-layer="svg4"
     inkscape:window-maximized="1"
     inkscape:window-y="0"
     inkscape:window-x="0"
     inkscape:cy="29.45105"
     inkscape:cx="41.893288"
     inkscape:zoom="3.2593742"
     showgrid="false"
     id="namedview6"
     inkscape:window-height="1020"
     inkscape:window-width="1920"
     inkscape:pageshadow="2"
     inkscape:pageopacity="0"
     guidetolerance="10"
     gridtolerance="10"
     objecttolerance="10"
     borderopacity="1"
     bordercolor="#666666"
     pagecolor="#ffffff" />
  <g
     transform="translate(0,-12)"
     id="g2687">
    <path
       id="path2659"
       style="opacity:1;fill:#000000;fill-rule:evenodd;stroke-width:0.514469;stroke-linejoin:round;paint-order:markers stroke fill"
       d="m 43.416835,34.701518 a 21.38396,21.38396 0 0 1 0.202038,-0.06509 21.38396,21.38396 0 0 1 0.310514,-0.09492 21.38396,21.38396 0 0 1 0.310514,-0.08949 21.38396,21.38396 0 0 1 0.313225,-0.08543 21.38396,21.38396 0 0 1 0.313226,-0.08 21.38396,21.38396 0 0 1 0.315938,-0.07458 21.38396,21.38396 0 0 1 0.315937,-0.07051 21.38396,21.38396 0 0 1 0.03119,-0.0068 34.712463,1.3884985 75 0 0 -4.513976,-12.619878 34.712463,1.3884985 75 0 0 2.401397,13.186668 z" />
    <path
       id="path2655"
       style="opacity:1;fill:#000000;fill-rule:evenodd;stroke-width:0.514469;stroke-linejoin:round;paint-order:markers stroke fill"
       d="m 38.374037,37.098847 a 21.38396,21.38396 0 0 1 0.256275,-0.16407 21.38396,21.38396 0 0 1 0.275259,-0.169494 21.38396,21.38396 0 0 1 0.277971,-0.166783 21.38396,21.38396 0 0 1 0.282039,-0.161359 21.38396,21.38396 0 0 1 0.282039,-0.157291 21.38396,21.38396 0 0 1 0.286106,-0.153223 21.38396,21.38396 0 0 1 0.237293,-0.123391 34.712463,1.3884985 60 0 0 -7.627251,-11.019852 34.712463,1.3884985 60 0 0 5.730269,12.115463 z" />
    <path
       id="path2651"
       style="opacity:1;fill:#000000;fill-rule:evenodd;stroke-width:0.514469;stroke-linejoin:round;paint-order:markers stroke fill"
       d="m 34.125828,40.719249 a 21.38396,21.38396 0 0 1 0.0461,-0.05288 21.38396,21.38396 0 0 1 0.219665,-0.237291 21.38396,21.38396 0 0 1 0.223733,-0.234581 21.38396,21.38396 0 0 1 0.226445,-0.231869 21.38396,21.38396 0 0 1 0.230512,-0.2278 21.38396,21.38396 0 0 1 0.233224,-0.225088 21.38396,21.38396 0 0 1 0.237292,-0.219666 21.38396,21.38396 0 0 1 0.130172,-0.119323 34.712463,1.3884985 45 0 0 -10.218481,-8.671337 34.712463,1.3884985 45 0 0 8.671336,10.219838 z" />
    <path
       id="path2647"
       style="opacity:1;fill:#000000;fill-rule:evenodd;stroke-width:0.514469;stroke-linejoin:round;paint-order:markers stroke fill"
       d="m 30.958316,45.315938 a 21.38396,21.38396 0 0 1 0.07322,-0.142375 21.38396,21.38396 0 0 1 0.151867,-0.286107 21.38396,21.38396 0 0 1 0.155935,-0.28475 21.38396,21.38396 0 0 1 0.160002,-0.280683 21.38396,21.38396 0 0 1 0.165428,-0.279327 21.38396,21.38396 0 0 1 0.168138,-0.276615 21.38396,21.38396 0 0 1 0.173562,-0.273903 21.38396,21.38396 0 0 1 0.04746,-0.07187 34.712463,1.3884985 30 0 0 -12.115464,-5.731624 34.712463,1.3884985 30 0 0 11.019852,7.62725 z" />
    <path
       id="path2643"
       style="opacity:1;fill:#000000;fill-rule:evenodd;stroke-width:0.514469;stroke-linejoin:round;paint-order:markers stroke fill"
       d="m 29.089808,50.57569 a 21.38396,21.38396 0 0 1 0.05288,-0.244072 21.38396,21.38396 0 0 1 0.07322,-0.315938 21.38396,21.38396 0 0 1 0.07864,-0.314581 21.38396,21.38396 0 0 1 0.08407,-0.313226 21.38396,21.38396 0 0 1 0.08814,-0.31187 21.38396,21.38396 0 0 1 0.09221,-0.310514 21.38396,21.38396 0 0 1 0.09627,-0.30509 34.712463,1.3884985 15 0 0 -13.185312,-2.400041 34.712463,1.3884985 15 0 0 12.619878,4.515332 z" />
    <path
       id="path2639"
       style="opacity:1;fill:#000000;fill-rule:evenodd;stroke-width:0.514469;stroke-linejoin:round;paint-order:markers stroke fill"
       d="m 28.645055,56.139176 a 21.38396,21.38396 0 0 1 -0.0068,-0.122036 21.38396,21.38396 0 0 1 -0.0122,-0.324073 21.38396,21.38396 0 0 1 -0.0068,-0.324074 21.38396,21.38396 0 0 1 -0.0027,-0.324073 21.38396,21.38396 0 0 1 0.0014,-0.216953 21.38396,21.38396 0 0 1 0.0054,-0.324074 21.38396,21.38396 0 0 1 0.01085,-0.324073 21.38396,21.38396 0 0 1 0.01085,-0.230512 34.712463,1.3884985 0 0 0 -13.357518,1.095612 34.712463,1.3884985 0 0 0 13.357518,1.094256 z" />
    <path
       id="path2635"
       style="opacity:1;fill:#000000;fill-rule:evenodd;stroke-width:0.514469;stroke-linejoin:round;paint-order:markers stroke fill"
       d="m 29.656598,61.628084 a 21.38396,21.38396 0 0 1 -0.06508,-0.202037 21.38396,21.38396 0 0 1 -0.09492,-0.310514 21.38396,21.38396 0 0 1 -0.08949,-0.310514 21.38396,21.38396 0 0 1 -0.08543,-0.313226 21.38396,21.38396 0 0 1 -0.08,-0.313225 21.38396,21.38396 0 0 1 -0.07458,-0.315938 21.38396,21.38396 0 0 1 -0.07051,-0.315938 21.38396,21.38396 0 0 1 -0.0068,-0.03119 1.3884985,34.712463 75 0 0 -12.619878,4.513976 1.3884985,34.712463 75 0 0 13.186668,-2.401397 z" />
    <path
       id="path2631"
       style="opacity:1;fill:#000000;fill-rule:evenodd;stroke-width:0.514469;stroke-linejoin:round;paint-order:markers stroke fill"
       d="M 32.053928,66.670883 A 21.38396,21.38396 0 0 1 31.889857,66.414607 21.38396,21.38396 0 0 1 31.720363,66.139349 21.38396,21.38396 0 0 1 31.55358,65.861378 21.38396,21.38396 0 0 1 31.392222,65.579339 21.38396,21.38396 0 0 1 31.23493,65.2973 21.38396,21.38396 0 0 1 31.081708,65.011194 21.38396,21.38396 0 0 1 30.958316,64.773901 1.3884985,34.712463 60 0 0 19.938464,72.401151 1.3884985,34.712463 60 0 0 32.053928,66.670883 Z" />
    <path
       id="path2627"
       style="opacity:1;fill:#000000;fill-rule:evenodd;stroke-width:0.514469;stroke-linejoin:round;paint-order:markers stroke fill"
       d="m 35.674329,70.919092 a 21.38396,21.38396 0 0 1 -0.05288,-0.0461 21.38396,21.38396 0 0 1 -0.237292,-0.219664 21.38396,21.38396 0 0 1 -0.234581,-0.223733 21.38396,21.38396 0 0 1 -0.231868,-0.226445 21.38396,21.38396 0 0 1 -0.2278,-0.230512 21.38396,21.38396 0 0 1 -0.225089,-0.233224 21.38396,21.38396 0 0 1 -0.219665,-0.237292 21.38396,21.38396 0 0 1 -0.119324,-0.130172 1.3884985,34.712463 45 0 0 -8.671336,10.218481 1.3884985,34.712463 45 0 0 10.219837,-8.671336 z" />
    <path
       id="path2623"
       style="opacity:1;fill:#000000;fill-rule:evenodd;stroke-width:0.514469;stroke-linejoin:round;paint-order:markers stroke fill"
       d="m 40.271019,74.086604 a 21.38396,21.38396 0 0 1 -0.142376,-0.07322 21.38396,21.38396 0 0 1 -0.286106,-0.151867 21.38396,21.38396 0 0 1 -0.284751,-0.155935 21.38396,21.38396 0 0 1 -0.280683,-0.160003 21.38396,21.38396 0 0 1 -0.279327,-0.165427 21.38396,21.38396 0 0 1 -0.276615,-0.168138 21.38396,21.38396 0 0 1 -0.273903,-0.173562 21.38396,21.38396 0 0 1 -0.07187,-0.04746 1.3884985,34.712463 30 0 0 -5.731624,12.115463 1.3884985,34.712463 30 0 0 7.627251,-11.019851 z" />
    <path
       id="path2619"
       style="opacity:1;fill:#000000;fill-rule:evenodd;stroke-width:0.514469;stroke-linejoin:round;paint-order:markers stroke fill"
       d="m 45.53077,75.955111 a 21.38396,21.38396 0 0 1 -0.244071,-0.05288 21.38396,21.38396 0 0 1 -0.315939,-0.07322 21.38396,21.38396 0 0 1 -0.314581,-0.07865 21.38396,21.38396 0 0 1 -0.313226,-0.08407 21.38396,21.38396 0 0 1 -0.311869,-0.08814 21.38396,21.38396 0 0 1 -0.310514,-0.09221 21.38396,21.38396 0 0 1 -0.30509,-0.09627 1.3884985,34.712463 15 0 0 -2.400042,13.185315 1.3884985,34.712463 15 0 0 4.515332,-12.619881 z" />
    <path
       id="path2615"
       style="opacity:1;fill:#000000;fill-rule:evenodd;stroke-width:0.514469;stroke-linejoin:round;paint-order:markers stroke fill"
       d="m 51.094256,76.399865 a 21.38396,21.38396 0 0 1 -0.122036,0.0068 21.38396,21.38396 0 0 1 -0.324073,0.0122 21.38396,21.38396 0 0 1 -0.324074,0.0068 A 21.38396,21.38396 0 0 1 50,76.428339 21.38396,21.38396 0 0 1 49.783047,76.426984 21.38396,21.38396 0 0 1 49.458974,76.42156 21.38396,21.38396 0 0 1 49.1349,76.410712 21.38396,21.38396 0 0 1 48.904388,76.399865 1.3884985,34.712463 0 0 0 50,89.757382 1.3884985,34.712463 0 0 0 51.094256,76.399865 Z" />
    <path
       id="path2611"
       style="opacity:1;fill:#000000;fill-rule:evenodd;stroke-width:0.514469;stroke-linejoin:round;paint-order:markers stroke fill"
       d="m 56.583165,75.388321 a 21.38396,21.38396 0 0 1 -0.202038,0.06509 21.38396,21.38396 0 0 1 -0.310514,0.09492 21.38396,21.38396 0 0 1 -0.310514,0.08949 21.38396,21.38396 0 0 1 -0.313225,0.08543 21.38396,21.38396 0 0 1 -0.313226,0.08 21.38396,21.38396 0 0 1 -0.315938,0.07458 21.38396,21.38396 0 0 1 -0.315937,0.07051 21.38396,21.38396 0 0 1 -0.03119,0.0068 34.712463,1.3884985 75 0 0 4.513976,12.619881 34.712463,1.3884985 75 0 0 -2.401397,-13.186671 z" />
    <path
       id="path2607"
       style="opacity:1;fill:#000000;fill-rule:evenodd;stroke-width:0.514469;stroke-linejoin:round;paint-order:markers stroke fill"
       d="m 61.625963,72.990992 a 21.38396,21.38396 0 0 1 -0.256275,0.16407 21.38396,21.38396 0 0 1 -0.275259,0.169495 21.38396,21.38396 0 0 1 -0.277971,0.166782 21.38396,21.38396 0 0 1 -0.282039,0.161359 21.38396,21.38396 0 0 1 -0.282039,0.157291 21.38396,21.38396 0 0 1 -0.286106,0.153223 21.38396,21.38396 0 0 1 -0.237293,0.123392 34.712463,1.3884985 60 0 0 7.627251,11.019851 34.712463,1.3884985 60 0 0 -5.730269,-12.115463 z" />
    <path
       id="path2603"
       style="opacity:1;fill:#000000;fill-rule:evenodd;stroke-width:0.514469;stroke-linejoin:round;paint-order:markers stroke fill"
       d="m 65.874172,69.370591 a 21.38396,21.38396 0 0 1 -0.0461,0.05288 21.38396,21.38396 0 0 1 -0.219665,0.237292 21.38396,21.38396 0 0 1 -0.223733,0.234581 21.38396,21.38396 0 0 1 -0.226445,0.231868 21.38396,21.38396 0 0 1 -0.230512,0.2278 21.38396,21.38396 0 0 1 -0.233224,0.225089 21.38396,21.38396 0 0 1 -0.237292,0.219665 21.38396,21.38396 0 0 1 -0.130172,0.119324 34.712463,1.3884985 45 0 0 10.218481,8.671336 34.712463,1.3884985 45 0 0 -8.671336,-10.219837 z" />
    <path
       id="path2599"
       style="opacity:1;fill:#000000;fill-rule:evenodd;stroke-width:0.514469;stroke-linejoin:round;paint-order:markers stroke fill"
       d="m 69.041684,64.773901 a 21.38396,21.38396 0 0 1 -0.07322,0.142376 21.38396,21.38396 0 0 1 -0.151867,0.286106 21.38396,21.38396 0 0 1 -0.155935,0.284751 21.38396,21.38396 0 0 1 -0.160002,0.280682 21.38396,21.38396 0 0 1 -0.165428,0.279327 21.38396,21.38396 0 0 1 -0.168138,0.276616 21.38396,21.38396 0 0 1 -0.173562,0.273903 21.38396,21.38396 0 0 1 -0.04746,0.07187 34.712463,1.3884985 30 0 0 12.115463,5.731624 34.712463,1.3884985 30 0 0 -11.019851,-7.62725 z" />
    <path
       id="path2595"
       style="opacity:1;fill:#000000;fill-rule:evenodd;stroke-width:0.514469;stroke-linejoin:round;paint-order:markers stroke fill"
       d="m 70.910192,59.514149 a 21.38396,21.38396 0 0 1 -0.05288,0.244072 21.38396,21.38396 0 0 1 -0.07322,0.315938 21.38396,21.38396 0 0 1 -0.07864,0.314582 21.38396,21.38396 0 0 1 -0.08407,0.313225 21.38396,21.38396 0 0 1 -0.08814,0.31187 21.38396,21.38396 0 0 1 -0.09221,0.310514 21.38396,21.38396 0 0 1 -0.09627,0.30509 34.712463,1.3884985 15 0 0 13.185312,2.400041 34.712463,1.3884985 15 0 0 -12.619878,-4.515332 z" />
    <path
       id="path2591"
       style="opacity:1;fill:#000000;fill-rule:evenodd;stroke-width:0.514469;stroke-linejoin:round;paint-order:markers stroke fill"
       d="m 71.354945,53.950664 a 21.38396,21.38396 0 0 1 0.0068,0.122035 21.38396,21.38396 0 0 1 0.0122,0.324074 21.38396,21.38396 0 0 1 0.0068,0.324073 21.38396,21.38396 0 0 1 0.0027,0.324074 21.38396,21.38396 0 0 1 -0.0014,0.216953 21.38396,21.38396 0 0 1 -0.0054,0.324073 21.38396,21.38396 0 0 1 -0.01085,0.324074 21.38396,21.38396 0 0 1 -0.01085,0.230512 34.712463,1.3884985 0 0 0 13.357518,-1.095612 34.712463,1.3884985 0 0 0 -13.357518,-1.094256 z" />
    <path
       id="path2587"
       style="opacity:1;fill:#000000;fill-rule:evenodd;stroke-width:0.514469;stroke-linejoin:round;paint-order:markers stroke fill"
       d="m 70.343402,48.461755 a 21.38396,21.38396 0 0 1 0.06508,0.202038 21.38396,21.38396 0 0 1 0.09492,0.310513 21.38396,21.38396 0 0 1 0.08949,0.310514 21.38396,21.38396 0 0 1 0.08543,0.313226 21.38396,21.38396 0 0 1 0.08,0.313226 21.38396,21.38396 0 0 1 0.07458,0.315938 21.38396,21.38396 0 0 1 0.07051,0.315937 21.38396,21.38396 0 0 1 0.0068,0.03119 1.3884985,34.712463 75 0 0 12.619878,-4.513976 1.3884985,34.712463 75 0 0 -13.186668,2.401397 z" />
    <path
       id="path2583"
       style="opacity:1;fill:#000000;fill-rule:evenodd;stroke-width:0.514469;stroke-linejoin:round;paint-order:markers stroke fill"
       d="m 67.946072,43.418956 a 21.38396,21.38396 0 0 1 0.164071,0.256276 21.38396,21.38396 0 0 1 0.169494,0.275259 21.38396,21.38396 0 0 1 0.166783,0.277971 21.38396,21.38396 0 0 1 0.161358,0.282039 21.38396,21.38396 0 0 1 0.157292,0.282039 21.38396,21.38396 0 0 1 0.153222,0.286106 21.38396,21.38396 0 0 1 0.123392,0.237292 1.3884985,34.712463 60 0 0 11.019851,-7.62725 1.3884985,34.712463 60 0 0 -12.115463,5.730268 z" />
    <path
       id="path2579"
       style="opacity:1;fill:#000000;fill-rule:evenodd;stroke-width:0.514469;stroke-linejoin:round;paint-order:markers stroke fill"
       d="m 64.325671,39.170748 a 21.38396,21.38396 0 0 1 0.05288,0.0461 21.38396,21.38396 0 0 1 0.237292,0.219665 21.38396,21.38396 0 0 1 0.234581,0.223733 21.38396,21.38396 0 0 1 0.231868,0.226444 21.38396,21.38396 0 0 1 0.2278,0.230513 21.38396,21.38396 0 0 1 0.225089,0.233224 21.38396,21.38396 0 0 1 0.219665,0.237292 21.38396,21.38396 0 0 1 0.119324,0.130172 1.3884985,34.712463 45 0 0 8.671336,-10.218482 1.3884985,34.712463 45 0 0 -10.219837,8.671337 z" />
    <path
       id="path2575"
       style="opacity:1;fill:#000000;fill-rule:evenodd;stroke-width:0.514469;stroke-linejoin:round;paint-order:markers stroke fill"
       d="m 59.728981,36.003236 a 21.38396,21.38396 0 0 1 0.142376,0.07322 21.38396,21.38396 0 0 1 0.286106,0.151867 21.38396,21.38396 0 0 1 0.284751,0.155935 21.38396,21.38396 0 0 1 0.280683,0.160002 21.38396,21.38396 0 0 1 0.279327,0.165427 21.38396,21.38396 0 0 1 0.276615,0.168139 21.38396,21.38396 0 0 1 0.273903,0.173562 21.38396,21.38396 0 0 1 0.07187,0.04746 1.3884985,34.712463 30 0 0 5.731624,-12.115463 1.3884985,34.712463 30 0 0 -7.627251,11.019852 z" />
    <path
       id="path2573"
       style="opacity:1;fill:#000000;fill-rule:evenodd;stroke-width:0.514469;stroke-linejoin:round;paint-order:markers stroke fill"
       d="m 54.46923,34.134728 a 21.38396,21.38396 0 0 1 0.244071,0.05288 21.38396,21.38396 0 0 1 0.315939,0.07322 21.38396,21.38396 0 0 1 0.314581,0.07865 21.38396,21.38396 0 0 1 0.313226,0.08407 21.38396,21.38396 0 0 1 0.311869,0.08814 21.38396,21.38396 0 0 1 0.310514,0.0922 21.38396,21.38396 0 0 1 0.30509,0.09627 1.3884985,34.712463 15 0 0 2.400042,-13.185312 1.3884985,34.712463 15 0 0 -4.515332,12.619878 z" />
    <path
       id="path2565"
       style="opacity:1;fill:#000000;fill-rule:evenodd;stroke-width:0.514469;stroke-linejoin:round;paint-order:markers stroke fill"
       d="m 49.997288,20.332457 a 1.3884985,34.712463 0 0 0 -1.091544,13.357518 21.38396,21.38396 0 0 1 0.122036,-0.0068 21.38396,21.38396 0 0 1 0.324073,-0.01221 21.38396,21.38396 0 0 1 0.324074,-0.0068 A 21.38396,21.38396 0 0 1 50,33.6615 21.38396,21.38396 0 0 1 50.216953,33.6629 21.38396,21.38396 0 0 1 50.541026,33.6683 21.38396,21.38396 0 0 1 50.8651,33.67915 21.38396,21.38396 0 0 1 51.095612,33.69 1.3884985,34.712463 0 0 0 50,20.332457 a 1.3884985,34.712463 0 0 0 -0.0027,0 z" />
    <circle
       r="17.984894"
       cy="55.044918"
       cx="50"
       id="path2389"
       style="opacity:1;fill:#000000;fill-rule:evenodd;stroke-width:0.55535;stroke-linejoin:round;paint-order:markers stroke fill" />
  </g>
</svg>
