<?xml version="1.0" encoding="UTF-8" standalone="no"?>
<svg
   xmlns:dc="http://purl.org/dc/elements/1.1/"
   xmlns:cc="http://creativecommons.org/ns#"
   xmlns:rdf="http://www.w3.org/1999/02/22-rdf-syntax-ns#"
   xmlns:svg="http://www.w3.org/2000/svg"
   xmlns="http://www.w3.org/2000/svg"
   xmlns:sodipodi="http://sodipodi.sourceforge.net/DTD/sodipodi-0.dtd"
   xmlns:inkscape="http://www.inkscape.org/namespaces/inkscape"
   viewBox="0 0 100 110"
   version="1.1"
   id="svg4"
   sodipodi:docname="engrelee.svg"
   inkscape:version="1.0 (4035a4fb49, 2020-05-01)">
  <metadata
     id="metadata10">
    <rdf:RDF>
      <cc:Work
         rdf:about="">
        <dc:format>image/svg+xml</dc:format>
        <dc:type
           rdf:resource="http://purl.org/dc/dcmitype/StillImage" />
        <dc:title></dc:title>
      </cc:Work>
    </rdf:RDF>
  </metadata>
  <defs
     id="defs8" />
  <sodipodi:namedview
     pagecolor="#ffffff"
     bordercolor="#666666"
     borderopacity="1"
     objecttolerance="10"
     gridtolerance="10"
     guidetolerance="10"
     inkscape:pageopacity="0"
     inkscape:pageshadow="2"
     inkscape:window-width="1920"
     inkscape:window-height="1020"
     id="namedview6"
     showgrid="false"
     inkscape:zoom="4"
     inkscape:cx="21.482117"
     inkscape:cy="52.413939"
     inkscape:window-x="0"
     inkscape:window-y="0"
     inkscape:window-maximized="1"
     inkscape:current-layer="svg4"
     inkscape:document-rotation="0"
     showguides="true"
     inkscape:guide-bbox="true"
     inkscape:snap-bbox="true"
     inkscape:bbox-paths="true"
     inkscape:snap-smooth-nodes="true"
     inkscape:snap-bbox-edge-midpoints="true"
     inkscape:bbox-nodes="true"
     inkscape:snap-bbox-midpoints="true"
     inkscape:object-paths="true"
     inkscape:snap-intersection-paths="true" />
  <path
     d="M 0 0 L 0 110 L 50 110 L 100 110 L 100 0 L 50 0 L 0 0 z M 22.716797 11.056641 C 22.761721 11.060651 22.809123 11.075789 22.847656 11.089844 C 26.576489 12.449841 27.462078 18.755353 31.958984 18.755859 C 36.332119 18.755076 37.1233 11.440016 41.007812 11.412109 C 44.823907 11.384689 45.725238 18.497969 50 18.498047 C 54.274762 18.497969 55.176093 11.384689 58.992188 11.412109 C 62.8767 11.440016 63.667881 18.755076 68.041016 18.755859 C 72.537922 18.755353 73.423511 12.449841 77.152344 11.089844 C 77.22941 11.061734 77.342708 11.029654 77.398438 11.089844 C 76.347738 17.582407 85.122495 14.032183 86.539062 21.757812 C 86.869456 25.190642 80.752105 26.562761 80.751953 30.333984 C 80.751296 35.442127 90.00023 35.223952 90 39.583984 C 89.99977 43.943555 80.752369 43.724652 80.751953 48.832031 C 80.752796 53.375103 87.621187 54.06946 88.539062 57.962891 C 88.558292 58.044499 88.516706 58.132391 88.478516 58.207031 C 86.663418 61.754777 80.751773 62.80943 80.751953 67.330078 C 80.752081 69.187594 82.595591 70.736486 82.357422 72.537109 C 82.341884 72.654577 82.274935 72.786911 82.167969 72.837891 C 81.51094 73.151009 80.730378 72.578808 80 72.578125 C 74.891857 72.578547 70.751296 76.719982 70.751953 81.828125 C 70.752088 82.520862 71.496126 83.423058 70.984375 83.886719 C 70.028157 84.753079 68.503987 83.076336 67.199219 83.076172 C 62.091838 83.076594 57.951594 87.216838 57.951172 92.324219 C 57.951381 93.191845 58.72748 94.130526 58.314453 94.888672 C 58.309993 94.896892 58.298363 94.900966 58.289062 94.900391 C 55.042645 94.699851 53.517196 89.752386 50 89.751953 C 46.482804 89.752386 44.957355 94.699851 41.710938 94.900391 C 41.701636 94.900966 41.690007 94.896892 41.685547 94.888672 C 41.27252 94.130526 42.048619 93.191845 42.048828 92.324219 C 42.048406 87.216838 37.908162 83.076594 32.800781 83.076172 C 31.496013 83.076336 29.971843 84.753079 29.015625 83.886719 C 28.503874 83.423058 29.247912 82.520862 29.248047 81.828125 C 29.248704 76.719982 25.108143 72.578547 20 72.578125 C 19.269622 72.578808 18.48906 73.151009 17.832031 72.837891 C 17.725065 72.786911 17.658116 72.654577 17.642578 72.537109 C 17.404409 70.736486 19.247919 69.187594 19.248047 67.330078 C 19.248227 62.80943 13.336582 61.754777 11.521484 58.207031 C 11.483294 58.132391 11.441707 58.044499 11.460938 57.962891 C 12.378812 54.06946 19.247204 53.375103 19.248047 48.832031 C 19.247628 43.724651 10.00023 43.943555 10 39.583984 C 9.99977 35.223952 19.248704 35.442127 19.248047 30.333984 C 19.247895 26.562761 13.130544 25.190642 13.460938 21.757812 C 14.877504 14.032183 23.652262 17.582407 22.601562 11.089844 C 22.629428 11.059749 22.671873 11.052631 22.716797 11.056641 z "
     style="opacity:1;fill:#000000;fill-opacity:1;fill-rule:evenodd;stroke:none;stroke-width:3.66142;stroke-linejoin:round;paint-order:markers stroke fill"
     id="path1400" />
</svg>
