<?xml version="1.0" encoding="UTF-8" standalone="no"?>
<svg
   xmlns:dc="http://purl.org/dc/elements/1.1/"
   xmlns:cc="http://creativecommons.org/ns#"
   xmlns:rdf="http://www.w3.org/1999/02/22-rdf-syntax-ns#"
   xmlns:svg="http://www.w3.org/2000/svg"
   xmlns="http://www.w3.org/2000/svg"
   xmlns:sodipodi="http://sodipodi.sourceforge.net/DTD/sodipodi-0.dtd"
   xmlns:inkscape="http://www.inkscape.org/namespaces/inkscape"
   viewBox="0 0 100 110"
   version="1.1"
   id="svg36"
   sodipodi:docname="cross_annulets_braced.svg"
   inkscape:version="0.92.4 (5da689c313, 2019-01-14)">
  <metadata
     id="metadata42">
    <rdf:RDF>
      <cc:Work
         rdf:about="">
        <dc:format>image/svg+xml</dc:format>
        <dc:type
           rdf:resource="http://purl.org/dc/dcmitype/StillImage" />
        <dc:title />
      </cc:Work>
    </rdf:RDF>
  </metadata>
  <defs
     id="defs40">
    <clipPath
       id="ordi2-0">
      <circle
         cx="204.90433"
         cy="21.921255"
         r="3.75"
         id="circle19-4" />
      <circle
         cx="204.90433"
         cy="81.921257"
         r="3.75"
         id="circle21-8" />
      <circle
         cx="174.90433"
         cy="51.921257"
         r="3.75"
         id="circle23-8" />
      <circle
         cx="234.90433"
         cy="51.921257"
         r="3.75"
         id="circle25-8" />
    </clipPath>
  </defs>
  <sodipodi:namedview
     pagecolor="#ffffff"
     bordercolor="#666666"
     borderopacity="1"
     objecttolerance="10"
     gridtolerance="10"
     guidetolerance="10"
     inkscape:pageopacity="0"
     inkscape:pageshadow="2"
     inkscape:window-width="1920"
     inkscape:window-height="1020"
     id="namedview38"
     showgrid="false"
     inkscape:zoom="3.034131"
     inkscape:cx="-20.112946"
     inkscape:cy="57.187163"
     inkscape:window-x="0"
     inkscape:window-y="0"
     inkscape:window-maximized="1"
     inkscape:current-layer="svg36"
     showguides="true"
     inkscape:guide-bbox="true" />
  <clipPath
     id="escu">
    <rect
       width="100"
       height="120"
       id="rect2" />
  </clipPath>
  <path
     inkscape:connector-curvature="0"
     style="opacity:1;fill:#000000;fill-opacity:1;stroke:none;stroke-width:0.78468889;stroke-linecap:round;stroke-linejoin:round;stroke-miterlimit:4;stroke-dasharray:none;stroke-dashoffset:0;stroke-opacity:1;paint-order:normal"
     d="M 87.499879,29.365001 A 14.999998,14.999998 0 0 0 72.499881,44.364999 14.999998,14.999998 0 0 0 87.499879,59.364998 14.999998,14.999998 0 0 0 102.49988,44.364999 14.999998,14.999998 0 0 0 87.499879,29.365001 Z m 0,3 a 11.999999,11.999999 0 0 1 1.198245,0.06006 11.999999,11.999999 0 0 1 1.185059,0.180175 11.999999,11.999999 0 0 1 1.163086,0.295899 11.999999,11.999999 0 0 1 1.126463,0.411621 11.999999,11.999999 0 0 1 1.079595,0.521484 11.999999,11.999999 0 0 1 1.022458,0.626954 11.999999,11.999999 0 0 1 0.955073,0.726562 11.999999,11.999999 0 0 1 0.877449,0.817383 11.999999,11.999999 0 0 1 0.792478,0.900879 11.999999,11.999999 0 0 1 0.69726,0.975587 11.999999,11.999999 0 0 1 0.59766,1.040038 11.999999,11.999999 0 0 1 0.489255,1.095702 11.999999,11.999999 0 0 1 0.377933,1.138184 11.999999,11.999999 0 0 1 0.263671,1.170409 11.999999,11.999999 0 0 1 0.14355,1.190919 11.999999,11.999999 0 0 1 0.03077,0.848144 11.999999,11.999999 0 0 1 -0.06006,1.198242 11.999999,11.999999 0 0 1 -0.178711,1.186524 11.999999,11.999999 0 0 1 -0.297363,1.161621 11.999999,11.999999 0 0 1 -0.411624,1.126464 11.999999,11.999999 0 0 1 -0.521483,1.081056 11.999999,11.999999 0 0 1 -0.626953,1.02246 11.999999,11.999999 0 0 1 -0.726564,0.955078 11.999999,11.999999 0 0 1 -0.81738,0.877442 11.999999,11.999999 0 0 1 -0.900878,0.791015 11.999999,11.999999 0 0 1 -0.975592,0.698731 11.999999,11.999999 0 0 1 -1.040031,0.596191 11.999999,11.999999 0 0 1 -1.095705,0.489257 11.999999,11.999999 0 0 1 -1.138185,0.379395 11.999999,11.999999 0 0 1 -1.170413,0.262208 11.999999,11.999999 0 0 1 -1.190917,0.145019 11.999999,11.999999 0 0 1 -0.848145,0.02929 11.999999,11.999999 0 0 1 -1.198238,-0.06006 11.999999,11.999999 0 0 1 -1.186522,-0.17871 11.999999,11.999999 0 0 1 -1.161623,-0.297362 11.999999,11.999999 0 0 1 -1.12647,-0.410158 11.999999,11.999999 0 0 1 -1.08105,-0.522948 11.999999,11.999999 0 0 1 -1.022458,-0.626953 11.999999,11.999999 0 0 1 -0.95508,-0.725099 11.999999,11.999999 0 0 1 -0.877442,-0.817381 11.999999,11.999999 0 0 1 -0.791017,-0.902345 11.999999,11.999999 0 0 1 -0.69873,-0.975586 11.999999,11.999999 0 0 1 -0.59619,-1.040037 11.999999,11.999999 0 0 1 -0.489263,-1.094239 11.999999,11.999999 0 0 1 -0.379395,-1.138184 11.999999,11.999999 0 0 1 -0.262198,-1.170409 11.999999,11.999999 0 0 1 -0.14502,-1.19092 11.999999,11.999999 0 0 1 -0.02933,-0.849609 11.999999,11.999999 0 0 1 0.06007,-1.198241 11.999999,11.999999 0 0 1 0.178711,-1.185059 11.999999,11.999999 0 0 1 0.297366,-1.163085 11.999999,11.999999 0 0 1 0.410153,-1.126465 11.999999,11.999999 0 0 1 0.522952,-1.079591 11.999999,11.999999 0 0 1 0.626955,-1.02246 11.999999,11.999999 0 0 1 0.725093,-0.955079 11.999999,11.999999 0 0 1 0.817388,-0.877441 11.999999,11.999999 0 0 1 0.90234,-0.79248 11.999999,11.999999 0 0 1 0.975585,-0.697266 11.999999,11.999999 0 0 1 1.04004,-0.597656 11.999999,11.999999 0 0 1 1.094242,-0.489258 11.999999,11.999999 0 0 1 1.138178,-0.377929 11.999999,11.999999 0 0 1 1.170411,-0.263672 11.999999,11.999999 0 0 1 1.190919,-0.14355 11.999999,11.999999 0 0 1 0.849606,-0.03077 z"
     id="path822-3" />
  <path
     inkscape:connector-curvature="0"
     style="opacity:1;fill:#000000;fill-opacity:1;stroke:none;stroke-width:0.78468889;stroke-linecap:round;stroke-linejoin:round;stroke-miterlimit:4;stroke-dasharray:none;stroke-dashoffset:0;stroke-opacity:1;paint-order:normal"
     d="M 68.750023,29.365001 A 14.999998,14.999998 0 0 0 53.750025,44.364999 14.999998,14.999998 0 0 0 68.750023,59.364998 14.999998,14.999998 0 0 0 83.750025,44.364999 14.999998,14.999998 0 0 0 68.750023,29.365001 Z m 0,3 a 11.999999,11.999999 0 0 1 1.198245,0.06006 11.999999,11.999999 0 0 1 1.185059,0.180175 11.999999,11.999999 0 0 1 1.163086,0.295899 11.999999,11.999999 0 0 1 1.126463,0.411621 11.999999,11.999999 0 0 1 1.079595,0.521484 11.999999,11.999999 0 0 1 1.022458,0.626954 11.999999,11.999999 0 0 1 0.955073,0.726562 11.999999,11.999999 0 0 1 0.877449,0.817383 11.999999,11.999999 0 0 1 0.792478,0.900879 11.999999,11.999999 0 0 1 0.69726,0.975587 11.999999,11.999999 0 0 1 0.59766,1.040038 11.999999,11.999999 0 0 1 0.489255,1.095702 11.999999,11.999999 0 0 1 0.377933,1.138184 11.999999,11.999999 0 0 1 0.263671,1.170409 11.999999,11.999999 0 0 1 0.14355,1.190919 11.999999,11.999999 0 0 1 0.03077,0.848144 11.999999,11.999999 0 0 1 -0.06006,1.198242 11.999999,11.999999 0 0 1 -0.178711,1.186524 11.999999,11.999999 0 0 1 -0.297363,1.161621 11.999999,11.999999 0 0 1 -0.411624,1.126464 11.999999,11.999999 0 0 1 -0.521483,1.081056 11.999999,11.999999 0 0 1 -0.626953,1.02246 11.999999,11.999999 0 0 1 -0.726564,0.955078 11.999999,11.999999 0 0 1 -0.81738,0.877442 11.999999,11.999999 0 0 1 -0.900878,0.791015 11.999999,11.999999 0 0 1 -0.975592,0.698731 11.999999,11.999999 0 0 1 -1.040031,0.596191 11.999999,11.999999 0 0 1 -1.095705,0.489257 11.999999,11.999999 0 0 1 -1.138185,0.379395 11.999999,11.999999 0 0 1 -1.170413,0.262208 11.999999,11.999999 0 0 1 -1.190917,0.145019 11.999999,11.999999 0 0 1 -0.848145,0.02929 11.999999,11.999999 0 0 1 -1.198238,-0.06006 11.999999,11.999999 0 0 1 -1.186522,-0.178711 11.999999,11.999999 0 0 1 -1.161623,-0.297362 11.999999,11.999999 0 0 1 -1.12647,-0.410157 11.999999,11.999999 0 0 1 -1.08105,-0.522949 11.999999,11.999999 0 0 1 -1.022458,-0.626953 11.999999,11.999999 0 0 1 -0.95508,-0.725098 11.999999,11.999999 0 0 1 -0.877442,-0.817382 11.999999,11.999999 0 0 1 -0.791017,-0.902345 11.999999,11.999999 0 0 1 -0.69873,-0.975586 11.999999,11.999999 0 0 1 -0.59619,-1.040037 11.999999,11.999999 0 0 1 -0.489263,-1.094239 11.999999,11.999999 0 0 1 -0.379395,-1.138184 11.999999,11.999999 0 0 1 -0.262198,-1.170409 11.999999,11.999999 0 0 1 -0.14502,-1.19092 11.999999,11.999999 0 0 1 -0.02933,-0.849609 11.999999,11.999999 0 0 1 0.06008,-1.198241 11.999999,11.999999 0 0 1 0.178711,-1.185059 11.999999,11.999999 0 0 1 0.297366,-1.163085 11.999999,11.999999 0 0 1 0.410153,-1.126465 11.999999,11.999999 0 0 1 0.522952,-1.079591 11.999999,11.999999 0 0 1 0.626955,-1.02246 11.999999,11.999999 0 0 1 0.725093,-0.955079 11.999999,11.999999 0 0 1 0.817387,-0.877441 11.999999,11.999999 0 0 1 0.90234,-0.79248 11.999999,11.999999 0 0 1 0.975585,-0.697266 11.999999,11.999999 0 0 1 1.04004,-0.597656 11.999999,11.999999 0 0 1 1.094243,-0.489258 11.999999,11.999999 0 0 1 1.138177,-0.377929 11.999999,11.999999 0 0 1 1.170411,-0.263672 11.999999,11.999999 0 0 1 1.190919,-0.14355 11.999999,11.999999 0 0 1 0.849606,-0.03077 z"
     id="path822-7-92" />
  <path
     inkscape:connector-curvature="0"
     style="opacity:1;fill:#000000;fill-opacity:1;stroke:none;stroke-width:0.78468889;stroke-linecap:round;stroke-linejoin:round;stroke-miterlimit:4;stroke-dasharray:none;stroke-dashoffset:0;stroke-opacity:1;paint-order:normal"
     d="m 124.99988,29.365013 a 14.999998,14.999998 0 0 0 -15,14.999999 14.999998,14.999998 0 0 0 15,14.999998 14.999998,14.999998 0 0 0 14.99999,-14.999998 14.999998,14.999998 0 0 0 -14.99999,-14.999999 z m 0,3 a 11.999999,11.999999 0 0 1 1.19824,0.06006 11.999999,11.999999 0 0 1 1.18506,0.180175 11.999999,11.999999 0 0 1 1.16308,0.295899 11.999999,11.999999 0 0 1 1.12646,0.411621 11.999999,11.999999 0 0 1 1.07959,0.521484 11.999999,11.999999 0 0 1 1.02246,0.626954 11.999999,11.999999 0 0 1 0.95508,0.726562 11.999999,11.999999 0 0 1 0.87744,0.817383 11.999999,11.999999 0 0 1 0.79248,0.900879 11.999999,11.999999 0 0 1 0.69726,0.975587 11.999999,11.999999 0 0 1 0.59766,1.040038 11.999999,11.999999 0 0 1 0.48926,1.095703 11.999999,11.999999 0 0 1 0.37794,1.138183 11.999999,11.999999 0 0 1 0.26367,1.17041 11.999999,11.999999 0 0 1 0.14355,1.190918 11.999999,11.999999 0 0 1 0.0308,0.848144 11.999999,11.999999 0 0 1 -0.06,1.198242 11.999999,11.999999 0 0 1 -0.17871,1.186524 11.999999,11.999999 0 0 1 -0.29736,1.161621 11.999999,11.999999 0 0 1 -0.41163,1.126464 11.999999,11.999999 0 0 1 -0.52148,1.081056 11.999999,11.999999 0 0 1 -0.62695,1.02246 11.999999,11.999999 0 0 1 -0.72657,0.955078 11.999999,11.999999 0 0 1 -0.81738,0.877442 11.999999,11.999999 0 0 1 -0.90087,0.791015 11.999999,11.999999 0 0 1 -0.9756,0.698731 11.999999,11.999999 0 0 1 -1.04003,0.596191 11.999999,11.999999 0 0 1 -1.0957,0.489257 11.999999,11.999999 0 0 1 -1.13819,0.379395 11.999999,11.999999 0 0 1 -1.17042,0.262208 11.999999,11.999999 0 0 1 -1.19091,0.145019 11.999999,11.999999 0 0 1 -0.84814,0.0293 11.999999,11.999999 0 0 1 -1.19824,-0.06006 11.999999,11.999999 0 0 1 -1.18652,-0.17871 11.999999,11.999999 0 0 1 -1.16163,-0.297363 11.999999,11.999999 0 0 1 -1.12647,-0.410157 11.999999,11.999999 0 0 1 -1.08104,-0.522948 11.999999,11.999999 0 0 1 -1.02246,-0.626954 11.999999,11.999999 0 0 1 -0.95508,-0.725098 11.999999,11.999999 0 0 1 -0.87744,-0.817382 11.999999,11.999999 0 0 1 -0.79102,-0.902345 11.999999,11.999999 0 0 1 -0.69873,-0.975586 11.999999,11.999999 0 0 1 -0.59619,-1.040037 11.999999,11.999999 0 0 1 -0.48926,-1.094239 11.999999,11.999999 0 0 1 -0.3794,-1.138184 11.999999,11.999999 0 0 1 -0.2622,-1.170409 11.999999,11.999999 0 0 1 -0.14502,-1.19092 11.999999,11.999999 0 0 1 -0.0293,-0.849608 11.999999,11.999999 0 0 1 0.0601,-1.198243 11.999999,11.999999 0 0 1 0.17872,-1.185058 11.999999,11.999999 0 0 1 0.29736,-1.163085 11.999999,11.999999 0 0 1 0.41015,-1.126466 11.999999,11.999999 0 0 1 0.52296,-1.07959 11.999999,11.999999 0 0 1 0.62695,-1.02246 11.999999,11.999999 0 0 1 0.72509,-0.955079 11.999999,11.999999 0 0 1 0.81739,-0.877441 11.999999,11.999999 0 0 1 0.90234,-0.79248 11.999999,11.999999 0 0 1 0.97559,-0.697266 11.999999,11.999999 0 0 1 1.04004,-0.597656 11.999999,11.999999 0 0 1 1.09423,-0.489257 11.999999,11.999999 0 0 1 1.13819,-0.37793 11.999999,11.999999 0 0 1 1.1704,-0.263672 11.999999,11.999999 0 0 1 1.19093,-0.14355 11.999999,11.999999 0 0 1 0.8496,-0.03076 z"
     id="path822-2-8" />
  <path
     inkscape:connector-curvature="0"
     style="opacity:1;fill:#000000;fill-opacity:1;stroke:none;stroke-width:0.78468889;stroke-linecap:round;stroke-linejoin:round;stroke-miterlimit:4;stroke-dasharray:none;stroke-dashoffset:0;stroke-opacity:1;paint-order:normal"
     d="M 106.25002,29.365013 A 14.999998,14.999998 0 0 0 91.250025,44.365012 14.999998,14.999998 0 0 0 106.25002,59.36501 14.999998,14.999998 0 0 0 121.25003,44.365012 14.999998,14.999998 0 0 0 106.25002,29.365013 Z m 0,3 a 11.999999,11.999999 0 0 1 1.19825,0.06006 11.999999,11.999999 0 0 1 1.18506,0.180175 11.999999,11.999999 0 0 1 1.16308,0.295899 11.999999,11.999999 0 0 1 1.12647,0.411621 11.999999,11.999999 0 0 1 1.07959,0.521484 11.999999,11.999999 0 0 1 1.02246,0.626954 11.999999,11.999999 0 0 1 0.95507,0.726562 11.999999,11.999999 0 0 1 0.87745,0.817383 11.999999,11.999999 0 0 1 0.79248,0.900879 11.999999,11.999999 0 0 1 0.69726,0.975587 11.999999,11.999999 0 0 1 0.59766,1.040038 11.999999,11.999999 0 0 1 0.48925,1.095703 11.999999,11.999999 0 0 1 0.37794,1.138183 11.999999,11.999999 0 0 1 0.26367,1.17041 11.999999,11.999999 0 0 1 0.14355,1.190918 11.999999,11.999999 0 0 1 0.0308,0.848144 11.999999,11.999999 0 0 1 -0.0601,1.198242 11.999999,11.999999 0 0 1 -0.17871,1.186524 11.999999,11.999999 0 0 1 -0.29736,1.161621 11.999999,11.999999 0 0 1 -0.41163,1.126464 11.999999,11.999999 0 0 1 -0.52148,1.081056 11.999999,11.999999 0 0 1 -0.62695,1.02246 11.999999,11.999999 0 0 1 -0.72657,0.955078 11.999999,11.999999 0 0 1 -0.81738,0.877442 11.999999,11.999999 0 0 1 -0.90087,0.791015 11.999999,11.999999 0 0 1 -0.9756,0.698731 11.999999,11.999999 0 0 1 -1.04003,0.596191 11.999999,11.999999 0 0 1 -1.0957,0.489257 11.999999,11.999999 0 0 1 -1.13819,0.379395 11.999999,11.999999 0 0 1 -1.17041,0.262208 11.999999,11.999999 0 0 1 -1.19092,0.145019 11.999999,11.999999 0 0 1 -0.84814,0.0293 11.999999,11.999999 0 0 1 -1.19824,-0.06006 11.999999,11.999999 0 0 1 -1.18652,-0.17871 11.999999,11.999999 0 0 1 -1.16162,-0.297363 11.999999,11.999999 0 0 1 -1.12647,-0.410157 11.999999,11.999999 0 0 1 -1.08105,-0.522948 11.999999,11.999999 0 0 1 -1.022462,-0.626954 11.999999,11.999999 0 0 1 -0.95508,-0.725098 11.999999,11.999999 0 0 1 -0.877442,-0.817382 11.999999,11.999999 0 0 1 -0.791017,-0.902345 11.999999,11.999999 0 0 1 -0.69873,-0.975586 11.999999,11.999999 0 0 1 -0.59619,-1.040037 11.999999,11.999999 0 0 1 -0.489263,-1.094239 11.999999,11.999999 0 0 1 -0.379395,-1.138184 11.999999,11.999999 0 0 1 -0.262198,-1.170409 11.999999,11.999999 0 0 1 -0.14502,-1.19092 11.999999,11.999999 0 0 1 -0.02933,-0.849608 11.999999,11.999999 0 0 1 0.06007,-1.198243 11.999999,11.999999 0 0 1 0.178711,-1.185058 11.999999,11.999999 0 0 1 0.297366,-1.163085 11.999999,11.999999 0 0 1 0.410153,-1.126466 11.999999,11.999999 0 0 1 0.522952,-1.07959 11.999999,11.999999 0 0 1 0.626955,-1.02246 11.999999,11.999999 0 0 1 0.725093,-0.955079 11.999999,11.999999 0 0 1 0.817387,-0.877441 11.999999,11.999999 0 0 1 0.90234,-0.79248 11.999999,11.999999 0 0 1 0.975585,-0.697266 11.999999,11.999999 0 0 1 1.040045,-0.597656 11.999999,11.999999 0 0 1 1.09424,-0.489257 11.999999,11.999999 0 0 1 1.13818,-0.37793 11.999999,11.999999 0 0 1 1.17041,-0.263672 11.999999,11.999999 0 0 1 1.19092,-0.14355 11.999999,11.999999 0 0 1 0.8496,-0.03076 z"
     id="path822-7-9-3" />
  <path
     inkscape:connector-curvature="0"
     style="opacity:1;fill:#000000;fill-opacity:1;stroke:none;stroke-width:0.78468889;stroke-linecap:round;stroke-linejoin:round;stroke-miterlimit:4;stroke-dasharray:none;stroke-dashoffset:0;stroke-opacity:1;paint-order:normal"
     d="M 50.000037,10.615146 A 14.999998,14.999998 0 0 0 35.000038,25.615145 14.999998,14.999998 0 0 0 50.000037,40.615144 14.999998,14.999998 0 0 0 65.000038,25.615145 14.999998,14.999998 0 0 0 50.000037,10.615146 Z m 0,3 a 11.999999,11.999999 0 0 1 1.198245,0.06006 11.999999,11.999999 0 0 1 1.185059,0.180175 11.999999,11.999999 0 0 1 1.163086,0.295899 11.999999,11.999999 0 0 1 1.126462,0.411621 11.999999,11.999999 0 0 1 1.079595,0.521484 11.999999,11.999999 0 0 1 1.022459,0.626953 11.999999,11.999999 0 0 1 0.955072,0.726563 11.999999,11.999999 0 0 1 0.877449,0.817383 11.999999,11.999999 0 0 1 0.792479,0.900879 11.999999,11.999999 0 0 1 0.69726,0.975586 11.999999,11.999999 0 0 1 0.59766,1.040039 11.999999,11.999999 0 0 1 0.489255,1.095702 11.999999,11.999999 0 0 1 0.377932,1.138184 11.999999,11.999999 0 0 1 0.263672,1.170409 11.999999,11.999999 0 0 1 0.14355,1.190919 11.999999,11.999999 0 0 1 0.03077,0.848144 11.999999,11.999999 0 0 1 -0.06006,1.198242 11.999999,11.999999 0 0 1 -0.178711,1.186523 11.999999,11.999999 0 0 1 -0.297363,1.161622 11.999999,11.999999 0 0 1 -0.411624,1.126464 11.999999,11.999999 0 0 1 -0.521483,1.081055 11.999999,11.999999 0 0 1 -0.626953,1.022461 11.999999,11.999999 0 0 1 -0.726564,0.955078 11.999999,11.999999 0 0 1 -0.81738,0.877442 11.999999,11.999999 0 0 1 -0.900878,0.791014 11.999999,11.999999 0 0 1 -0.975592,0.698731 11.999999,11.999999 0 0 1 -1.040031,0.596192 11.999999,11.999999 0 0 1 -1.095705,0.489256 11.999999,11.999999 0 0 1 -1.138185,0.379396 11.999999,11.999999 0 0 1 -1.170413,0.262207 11.999999,11.999999 0 0 1 -1.190917,0.14502 11.999999,11.999999 0 0 1 -0.848145,0.02929 11.999999,11.999999 0 0 1 -1.198238,-0.06006 11.999999,11.999999 0 0 1 -1.186522,-0.17871 11.999999,11.999999 0 0 1 -1.161623,-0.297363 11.999999,11.999999 0 0 1 -1.12647,-0.410157 11.999999,11.999999 0 0 1 -1.08105,-0.522948 11.999999,11.999999 0 0 1 -1.022458,-0.626953 11.999999,11.999999 0 0 1 -0.95508,-0.725099 11.999999,11.999999 0 0 1 -0.877442,-0.817381 11.999999,11.999999 0 0 1 -0.791017,-0.902345 11.999999,11.999999 0 0 1 -0.69873,-0.975586 11.999999,11.999999 0 0 1 -0.59619,-1.040037 11.999999,11.999999 0 0 1 -0.489263,-1.09424 11.999999,11.999999 0 0 1 -0.379395,-1.138183 11.999999,11.999999 0 0 1 -0.262198,-1.17041 11.999999,11.999999 0 0 1 -0.14502,-1.190919 11.999999,11.999999 0 0 1 -0.02933,-0.849609 11.999999,11.999999 0 0 1 0.06008,-1.198242 11.999999,11.999999 0 0 1 0.178711,-1.185058 11.999999,11.999999 0 0 1 0.297366,-1.163086 11.999999,11.999999 0 0 1 0.410153,-1.126465 11.999999,11.999999 0 0 1 0.522952,-1.07959 11.999999,11.999999 0 0 1 0.626955,-1.022461 11.999999,11.999999 0 0 1 0.725093,-0.955078 11.999999,11.999999 0 0 1 0.817387,-0.877441 11.999999,11.999999 0 0 1 0.90234,-0.792481 11.999999,11.999999 0 0 1 0.975585,-0.697265 11.999999,11.999999 0 0 1 1.04004,-0.597656 11.999999,11.999999 0 0 1 1.094243,-0.489258 11.999999,11.999999 0 0 1 1.138177,-0.37793 11.999999,11.999999 0 0 1 1.170411,-0.263671 11.999999,11.999999 0 0 1 1.190919,-0.14355 11.999999,11.999999 0 0 1 0.849606,-0.03077 z"
     id="path822" />
  <path
     inkscape:connector-curvature="0"
     style="opacity:1;fill:#000000;fill-opacity:1;stroke:none;stroke-width:0.78468889;stroke-linecap:round;stroke-linejoin:round;stroke-miterlimit:4;stroke-dasharray:none;stroke-dashoffset:0;stroke-opacity:1;paint-order:normal"
     d="M 50.000037,29.365002 A 14.999998,14.999998 0 0 0 35.000038,44.365001 14.999998,14.999998 0 0 0 50.000037,59.364999 14.999998,14.999998 0 0 0 65.000038,44.365001 14.999998,14.999998 0 0 0 50.000037,29.365002 Z m 0,3 a 11.999999,11.999999 0 0 1 1.198245,0.06006 11.999999,11.999999 0 0 1 1.185059,0.180176 11.999999,11.999999 0 0 1 1.163086,0.295899 11.999999,11.999999 0 0 1 1.126462,0.411621 11.999999,11.999999 0 0 1 1.079595,0.521484 11.999999,11.999999 0 0 1 1.022459,0.626953 11.999999,11.999999 0 0 1 0.955072,0.726563 11.999999,11.999999 0 0 1 0.877449,0.817383 11.999999,11.999999 0 0 1 0.792479,0.900879 11.999999,11.999999 0 0 1 0.69726,0.975586 11.999999,11.999999 0 0 1 0.59766,1.040039 11.999999,11.999999 0 0 1 0.489255,1.095702 11.999999,11.999999 0 0 1 0.377932,1.138183 11.999999,11.999999 0 0 1 0.263672,1.17041 11.999999,11.999999 0 0 1 0.14355,1.190919 11.999999,11.999999 0 0 1 0.03077,0.848143 11.999999,11.999999 0 0 1 -0.06006,1.198242 11.999999,11.999999 0 0 1 -0.178711,1.186524 11.999999,11.999999 0 0 1 -0.297363,1.161621 11.999999,11.999999 0 0 1 -0.411624,1.126464 11.999999,11.999999 0 0 1 -0.521483,1.081056 11.999999,11.999999 0 0 1 -0.626953,1.02246 11.999999,11.999999 0 0 1 -0.726564,0.955079 11.999999,11.999999 0 0 1 -0.81738,0.877441 11.999999,11.999999 0 0 1 -0.900878,0.791015 11.999999,11.999999 0 0 1 -0.975592,0.698731 11.999999,11.999999 0 0 1 -1.040031,0.596192 11.999999,11.999999 0 0 1 -1.095705,0.489256 11.999999,11.999999 0 0 1 -1.138185,0.379395 11.999999,11.999999 0 0 1 -1.170413,0.262208 11.999999,11.999999 0 0 1 -1.190917,0.14502 11.999999,11.999999 0 0 1 -0.848145,0.02929 11.999999,11.999999 0 0 1 -1.198238,-0.06006 11.999999,11.999999 0 0 1 -1.186522,-0.17871 11.999999,11.999999 0 0 1 -1.161623,-0.297363 11.999999,11.999999 0 0 1 -1.12647,-0.410157 11.999999,11.999999 0 0 1 -1.08105,-0.522948 11.999999,11.999999 0 0 1 -1.022458,-0.626953 11.999999,11.999999 0 0 1 -0.95508,-0.725099 11.999999,11.999999 0 0 1 -0.877442,-0.817382 11.999999,11.999999 0 0 1 -0.791017,-0.902344 11.999999,11.999999 0 0 1 -0.69873,-0.975586 11.999999,11.999999 0 0 1 -0.59619,-1.040038 11.999999,11.999999 0 0 1 -0.489263,-1.094239 11.999999,11.999999 0 0 1 -0.379395,-1.138184 11.999999,11.999999 0 0 1 -0.262198,-1.170409 11.999999,11.999999 0 0 1 -0.14502,-1.190919 11.999999,11.999999 0 0 1 -0.02933,-0.849609 11.999999,11.999999 0 0 1 0.06008,-1.198242 11.999999,11.999999 0 0 1 0.178711,-1.185059 11.999999,11.999999 0 0 1 0.297366,-1.163085 11.999999,11.999999 0 0 1 0.410153,-1.126465 11.999999,11.999999 0 0 1 0.522952,-1.07959 11.999999,11.999999 0 0 1 0.626955,-1.022461 11.999999,11.999999 0 0 1 0.725093,-0.955078 11.999999,11.999999 0 0 1 0.817387,-0.877442 11.999999,11.999999 0 0 1 0.90234,-0.79248 11.999999,11.999999 0 0 1 0.975585,-0.697266 11.999999,11.999999 0 0 1 1.04004,-0.597655 11.999999,11.999999 0 0 1 1.094243,-0.489258 11.999999,11.999999 0 0 1 1.138177,-0.37793 11.999999,11.999999 0 0 1 1.170411,-0.263671 11.999999,11.999999 0 0 1 1.190919,-0.14355 11.999999,11.999999 0 0 1 0.849606,-0.03077 z"
     id="path822-7" />
  <path
     inkscape:connector-curvature="0"
     style="opacity:1;fill:#000000;fill-opacity:1;stroke:none;stroke-width:0.78468889;stroke-linecap:round;stroke-linejoin:round;stroke-miterlimit:4;stroke-dasharray:none;stroke-dashoffset:0;stroke-opacity:1;paint-order:normal"
     d="M 50.000037,-26.884854 A 14.999998,14.999998 0 0 0 35.000038,-11.884855 14.999998,14.999998 0 0 0 50.000037,3.1151435 14.999998,14.999998 0 0 0 65.000038,-11.884855 14.999998,14.999998 0 0 0 50.000037,-26.884854 Z m 0,3 a 11.999999,11.999999 0 0 1 1.198245,0.06006 11.999999,11.999999 0 0 1 1.185059,0.180176 11.999999,11.999999 0 0 1 1.163086,0.295899 11.999999,11.999999 0 0 1 1.126462,0.411621 11.999999,11.999999 0 0 1 1.079595,0.521484 11.999999,11.999999 0 0 1 1.022459,0.626953 11.999999,11.999999 0 0 1 0.955072,0.726563 11.999999,11.999999 0 0 1 0.877449,0.817383 11.999999,11.999999 0 0 1 0.792479,0.900879 11.999999,11.999999 0 0 1 0.69726,0.975586 11.999999,11.999999 0 0 1 0.59766,1.040039 11.999999,11.999999 0 0 1 0.489255,1.095702 11.999999,11.999999 0 0 1 0.377932,1.138183 11.999999,11.999999 0 0 1 0.263672,1.17041 11.999999,11.999999 0 0 1 0.14355,1.190919 11.999999,11.999999 0 0 1 0.03077,0.848143 11.999999,11.999999 0 0 1 -0.06006,1.198242 11.999999,11.999999 0 0 1 -0.178711,1.1865245 11.999999,11.999999 0 0 1 -0.297363,1.161621 11.999999,11.999999 0 0 1 -0.411624,1.126464 11.999999,11.999999 0 0 1 -0.521483,1.081056 11.999999,11.999999 0 0 1 -0.626953,1.02246 11.999999,11.999999 0 0 1 -0.726564,0.9550785 11.999999,11.999999 0 0 1 -0.81738,0.8774415 11.999999,11.999999 0 0 1 -0.900878,0.7910145 11.999999,11.999999 0 0 1 -0.975592,0.6987315 11.999999,11.999999 0 0 1 -1.040031,0.5961915 11.999999,11.999999 0 0 1 -1.095705,0.4892565 11.999999,11.999999 0 0 1 -1.138185,0.379395 A 11.999999,11.999999 0 0 1 52.0391,-0.05917 11.999999,11.999999 0 0 1 50.848183,0.08585 11.999999,11.999999 0 0 1 50.000038,0.115145 11.999999,11.999999 0 0 1 48.8018,0.055085 a 11.999999,11.999999 0 0 1 -1.186522,-0.17871 11.999999,11.999999 0 0 1 -1.161623,-0.297363 11.999999,11.999999 0 0 1 -1.12647,-0.410157 11.999999,11.999999 0 0 1 -1.08105,-0.522948 11.999999,11.999999 0 0 1 -1.022458,-0.6269535 11.999999,11.999999 0 0 1 -0.95508,-0.7250985 11.999999,11.999999 0 0 1 -0.877442,-0.8173815 11.999999,11.999999 0 0 1 -0.791017,-0.9023445 11.999999,11.999999 0 0 1 -0.69873,-0.9755865 11.999999,11.999999 0 0 1 -0.59619,-1.040037 11.999999,11.999999 0 0 1 -0.489263,-1.0942395 11.999999,11.999999 0 0 1 -0.379395,-1.1381835 11.999999,11.999999 0 0 1 -0.262198,-1.1704095 11.999999,11.999999 0 0 1 -0.14502,-1.190919 11.999999,11.999999 0 0 1 -0.02933,-0.849609 11.999999,11.999999 0 0 1 0.06008,-1.198242 11.999999,11.999999 0 0 1 0.178711,-1.185059 11.999999,11.999999 0 0 1 0.297366,-1.163085 11.999999,11.999999 0 0 1 0.410153,-1.126465 11.999999,11.999999 0 0 1 0.522952,-1.079591 11.999999,11.999999 0 0 1 0.626955,-1.02246 11.999999,11.999999 0 0 1 0.725093,-0.955078 11.999999,11.999999 0 0 1 0.817387,-0.877442 11.999999,11.999999 0 0 1 0.90234,-0.79248 11.999999,11.999999 0 0 1 0.975585,-0.697266 11.999999,11.999999 0 0 1 1.04004,-0.597655 11.999999,11.999999 0 0 1 1.094243,-0.489258 11.999999,11.999999 0 0 1 1.138177,-0.377929 11.999999,11.999999 0 0 1 1.170411,-0.263672 11.999999,11.999999 0 0 1 1.190919,-0.14355 11.999999,11.999999 0 0 1 0.849606,-0.03076 z"
     id="path822-2" />
  <path
     inkscape:connector-curvature="0"
     style="opacity:1;fill:#000000;fill-opacity:1;stroke:none;stroke-width:0.78468889;stroke-linecap:round;stroke-linejoin:round;stroke-miterlimit:4;stroke-dasharray:none;stroke-dashoffset:0;stroke-opacity:1;paint-order:normal"
     d="M 50.000049,-8.1349975 A 14.999998,14.999998 0 0 0 35.00005,6.865001 14.999998,14.999998 0 0 0 50.000049,21.864999 14.999998,14.999998 0 0 0 65.00005,6.865001 14.999998,14.999998 0 0 0 50.000049,-8.1349975 Z m 0,3 a 11.999999,11.999999 0 0 1 1.198245,0.06006 11.999999,11.999999 0 0 1 1.185058,0.1801755 11.999999,11.999999 0 0 1 1.163087,0.295899 11.999999,11.999999 0 0 1 1.126462,0.411621 11.999999,11.999999 0 0 1 1.079595,0.521484 11.999999,11.999999 0 0 1 1.022459,0.6269535 11.999999,11.999999 0 0 1 0.955072,0.7265625 11.999999,11.999999 0 0 1 0.877449,0.817383 11.999999,11.999999 0 0 1 0.792479,0.900879 11.999999,11.999999 0 0 1 0.69726,0.9755865 11.999999,11.999999 0 0 1 0.59766,1.0400385 11.999999,11.999999 0 0 1 0.489255,1.095702 11.999999,11.999999 0 0 1 0.377933,1.1381835 11.999999,11.999999 0 0 1 0.263671,1.1704095 11.999999,11.999999 0 0 1 0.14355,1.190919 11.999999,11.999999 0 0 1 0.03076,0.8481435 11.999999,11.999999 0 0 1 -0.06006,1.198242 11.999999,11.999999 0 0 1 -0.178711,1.186524 11.999999,11.999999 0 0 1 -0.297363,1.1616205 11.999999,11.999999 0 0 1 -0.411624,1.126465 11.999999,11.999999 0 0 1 -0.521483,1.081056 11.999999,11.999999 0 0 1 -0.626953,1.02246 11.999999,11.999999 0 0 1 -0.726564,0.955078 11.999999,11.999999 0 0 1 -0.81738,0.877442 11.999999,11.999999 0 0 1 -0.900878,0.791014 11.999999,11.999999 0 0 1 -0.975593,0.698732 11.999999,11.999999 0 0 1 -1.04003,0.596191 11.999999,11.999999 0 0 1 -1.095705,0.489257 11.999999,11.999999 0 0 1 -1.138185,0.379394 11.999999,11.999999 0 0 1 -1.170413,0.262208 11.999999,11.999999 0 0 1 -1.190917,0.14502 11.999999,11.999999 0 0 1 -0.848145,0.0293 11.999999,11.999999 0 0 1 -1.198238,-0.06006 11.999999,11.999999 0 0 1 -1.186522,-0.17871 11.999999,11.999999 0 0 1 -1.161623,-0.297363 11.999999,11.999999 0 0 1 -1.12647,-0.410157 11.999999,11.999999 0 0 1 -1.08105,-0.522948 11.999999,11.999999 0 0 1 -1.022458,-0.626954 11.999999,11.999999 0 0 1 -0.95508,-0.725098 11.999999,11.999999 0 0 1 -0.877442,-0.817382 11.999999,11.999999 0 0 1 -0.791017,-0.902344 11.999999,11.999999 0 0 1 -0.69873,-0.975586 11.999999,11.999999 0 0 1 -0.59619,-1.040037 11.999999,11.999999 0 0 1 -0.489263,-1.09424 11.999999,11.999999 0 0 1 -0.379395,-1.138184 11.999999,11.999999 0 0 1 -0.262198,-1.170409 11.999999,11.999999 0 0 1 -0.14502,-1.190919 11.999999,11.999999 0 0 1 -0.02933,-0.849609 11.999999,11.999999 0 0 1 0.06007,-1.198242 11.999999,11.999999 0 0 1 0.178711,-1.1850585 11.999999,11.999999 0 0 1 0.297366,-1.163085 11.999999,11.999999 0 0 1 0.410153,-1.1264655 11.999999,11.999999 0 0 1 0.522952,-1.0795905 11.999999,11.999999 0 0 1 0.626955,-1.02246 11.999999,11.999999 0 0 1 0.725093,-0.9550785 11.999999,11.999999 0 0 1 0.817387,-0.8774415 11.999999,11.999999 0 0 1 0.90234,-0.79248 11.999999,11.999999 0 0 1 0.975585,-0.697266 11.999999,11.999999 0 0 1 1.04004,-0.5976555 11.999999,11.999999 0 0 1 1.094243,-0.489258 11.999999,11.999999 0 0 1 1.138177,-0.3779295 11.999999,11.999999 0 0 1 1.170411,-0.2636715 11.999999,11.999999 0 0 1 1.190919,-0.14355 11.999999,11.999999 0 0 1 0.849606,-0.030765 z"
     id="path822-7-9" />
  <path
     inkscape:connector-curvature="0"
     style="opacity:1;fill:#000000;fill-opacity:1;stroke:none;stroke-width:0.78468889;stroke-linecap:round;stroke-linejoin:round;stroke-miterlimit:4;stroke-dasharray:none;stroke-dashoffset:0;stroke-opacity:1;paint-order:normal"
     d="m 50.000037,85.615145 a 14.999998,14.999998 0 0 0 -14.999999,14.999995 14.999998,14.999998 0 0 0 14.999999,15 14.999998,14.999998 0 0 0 15.000001,-15 14.999998,14.999998 0 0 0 -15.000001,-14.999995 z m 0,3 a 11.999999,11.999999 0 0 1 1.198245,0.06006 11.999999,11.999999 0 0 1 1.185059,0.180175 11.999999,11.999999 0 0 1 1.163086,0.295899 11.999999,11.999999 0 0 1 1.126462,0.411621 11.999999,11.999999 0 0 1 1.079595,0.521484 11.999999,11.999999 0 0 1 1.022459,0.626954 11.999999,11.999999 0 0 1 0.955072,0.726562 11.999999,11.999999 0 0 1 0.877449,0.817383 11.999999,11.999999 0 0 1 0.792479,0.900879 11.999999,11.999999 0 0 1 0.69726,0.975587 11.999999,11.999999 0 0 1 0.59766,1.040038 11.999999,11.999999 0 0 1 0.489255,1.095703 11.999999,11.999999 0 0 1 0.377932,1.138183 11.999999,11.999999 0 0 1 0.263672,1.170409 11.999999,11.999999 0 0 1 0.14355,1.190919 11.999999,11.999999 0 0 1 0.03077,0.848139 11.999999,11.999999 0 0 1 -0.06006,1.19825 11.999999,11.999999 0 0 1 -0.178711,1.18652 11.999999,11.999999 0 0 1 -0.297363,1.16162 11.999999,11.999999 0 0 1 -0.411624,1.12647 11.999999,11.999999 0 0 1 -0.521483,1.08105 11.999999,11.999999 0 0 1 -0.626953,1.02246 11.999999,11.999999 0 0 1 -0.726564,0.95508 11.999999,11.999999 0 0 1 -0.81738,0.87744 11.999999,11.999999 0 0 1 -0.900878,0.79102 11.999999,11.999999 0 0 1 -0.975592,0.69873 11.999999,11.999999 0 0 1 -1.040031,0.59619 11.999999,11.999999 0 0 1 -1.095705,0.48926 11.999999,11.999999 0 0 1 -1.138185,0.37939 11.999999,11.999999 0 0 1 -1.170413,0.26221 11.999999,11.999999 0 0 1 -1.190917,0.14502 11.999999,11.999999 0 0 1 -0.848145,0.0293 11.999999,11.999999 0 0 1 -1.198238,-0.0601 11.999999,11.999999 0 0 1 -1.186522,-0.17871 11.999999,11.999999 0 0 1 -1.161623,-0.29736 11.999999,11.999999 0 0 1 -1.12647,-0.41016 11.999999,11.999999 0 0 1 -1.08105,-0.52294 11.999999,11.999999 0 0 1 -1.022458,-0.62696 11.999999,11.999999 0 0 1 -0.95508,-0.7251 11.999999,11.999999 0 0 1 -0.877442,-0.81738 11.999999,11.999999 0 0 1 -0.791017,-0.90234 11.999999,11.999999 0 0 1 -0.69873,-0.97559 11.999999,11.999999 0 0 1 -0.59619,-1.04004 11.999999,11.999999 0 0 1 -0.489263,-1.09424 11.999999,11.999999 0 0 1 -0.379395,-1.13818 11.999999,11.999999 0 0 1 -0.262198,-1.17041 11.999999,11.999999 0 0 1 -0.14502,-1.19092 11.999999,11.999999 0 0 1 -0.02933,-0.84961 11.999999,11.999999 0 0 1 0.06008,-1.198238 11.999999,11.999999 0 0 1 0.178711,-1.185059 11.999999,11.999999 0 0 1 0.297366,-1.163085 11.999999,11.999999 0 0 1 0.410153,-1.126465 11.999999,11.999999 0 0 1 0.522952,-1.079591 11.999999,11.999999 0 0 1 0.626955,-1.02246 11.999999,11.999999 0 0 1 0.725093,-0.955078 11.999999,11.999999 0 0 1 0.817387,-0.877442 11.999999,11.999999 0 0 1 0.90234,-0.79248 11.999999,11.999999 0 0 1 0.975585,-0.697266 11.999999,11.999999 0 0 1 1.04004,-0.597655 11.999999,11.999999 0 0 1 1.094243,-0.489258 11.999999,11.999999 0 0 1 1.138177,-0.37793 11.999999,11.999999 0 0 1 1.170411,-0.263671 11.999999,11.999999 0 0 1 1.190919,-0.14355 11.999999,11.999999 0 0 1 0.849606,-0.03077 z"
     id="path822-9" />
  <path
     inkscape:connector-curvature="0"
     style="opacity:1;fill:#000000;fill-opacity:1;stroke:none;stroke-width:0.78468889;stroke-linecap:round;stroke-linejoin:round;stroke-miterlimit:4;stroke-dasharray:none;stroke-dashoffset:0;stroke-opacity:1;paint-order:normal"
     d="m 50.000037,104.365 a 14.999998,14.999998 0 0 0 -14.999999,15 14.999998,14.999998 0 0 0 14.999999,15 14.999998,14.999998 0 0 0 15.000001,-15 14.999998,14.999998 0 0 0 -15.000001,-15 z m 0,3 a 11.999999,11.999999 0 0 1 1.198245,0.0601 11.999999,11.999999 0 0 1 1.185059,0.18018 11.999999,11.999999 0 0 1 1.163086,0.2959 11.999999,11.999999 0 0 1 1.126462,0.41162 11.999999,11.999999 0 0 1 1.079595,0.52148 11.999999,11.999999 0 0 1 1.022459,0.62695 11.999999,11.999999 0 0 1 0.955072,0.72657 11.999999,11.999999 0 0 1 0.877449,0.81738 11.999999,11.999999 0 0 1 0.792479,0.90088 11.999999,11.999999 0 0 1 0.69726,0.97559 11.999999,11.999999 0 0 1 0.59766,1.04003 11.999999,11.999999 0 0 1 0.489255,1.09571 11.999999,11.999999 0 0 1 0.377932,1.13818 11.999999,11.999999 0 0 1 0.263672,1.17041 11.999999,11.999999 0 0 1 0.14355,1.19091 11.999999,11.999999 0 0 1 0.03077,0.84815 11.999999,11.999999 0 0 1 -0.06006,1.19824 11.999999,11.999999 0 0 1 -0.178711,1.18652 11.999999,11.999999 0 0 1 -0.297363,1.16163 11.999999,11.999999 0 0 1 -0.411624,1.12645 11.999999,11.999999 0 0 1 -0.521483,1.08107 11.999999,11.999999 0 0 1 -0.626953,1.02246 11.999999,11.999999 0 0 1 -0.726564,0.95508 11.999999,11.999999 0 0 1 -0.81738,0.87744 11.999999,11.999999 0 0 1 -0.900878,0.79101 11.999999,11.999999 0 0 1 -0.975592,0.69873 11.999999,11.999999 0 0 1 -1.040031,0.59619 11.999999,11.999999 0 0 1 -1.095705,0.48925 11.999999,11.999999 0 0 1 -1.138185,0.3794 11.999999,11.999999 0 0 1 -1.170413,0.26221 11.999999,11.999999 0 0 1 -1.190917,0.14505 11.999999,11.999999 0 0 1 -0.848145,0.0292 11.999999,11.999999 0 0 1 -1.198238,-0.06 11.999999,11.999999 0 0 1 -1.186522,-0.17871 11.999999,11.999999 0 0 1 -1.161623,-0.29736 11.999999,11.999999 0 0 1 -1.12647,-0.41016 11.999999,11.999999 0 0 1 -1.08105,-0.52294 11.999999,11.999999 0 0 1 -1.022458,-0.62696 11.999999,11.999999 0 0 1 -0.95508,-0.7251 11.999999,11.999999 0 0 1 -0.877442,-0.81738 11.999999,11.999999 0 0 1 -0.791017,-0.90234 11.999999,11.999999 0 0 1 -0.69873,-0.9756 11.999999,11.999999 0 0 1 -0.59619,-1.04002 11.999999,11.999999 0 0 1 -0.489263,-1.09425 11.999999,11.999999 0 0 1 -0.379395,-1.13819 11.999999,11.999999 0 0 1 -0.262198,-1.1704 11.999999,11.999999 0 0 1 -0.14502,-1.19091 11.999999,11.999999 0 0 1 -0.02933,-0.84962 11.999999,11.999999 0 0 1 0.06008,-1.19824 11.999999,11.999999 0 0 1 0.178711,-1.18506 11.999999,11.999999 0 0 1 0.297366,-1.16308 11.999999,11.999999 0 0 1 0.410153,-1.12647 11.999999,11.999999 0 0 1 0.522952,-1.07959 11.999999,11.999999 0 0 1 0.626955,-1.02246 11.999999,11.999999 0 0 1 0.725093,-0.95508 11.999999,11.999999 0 0 1 0.817387,-0.87744 11.999999,11.999999 0 0 1 0.90234,-0.79248 11.999999,11.999999 0 0 1 0.975585,-0.69726 11.999999,11.999999 0 0 1 1.04004,-0.59766 11.999999,11.999999 0 0 1 1.094243,-0.48926 11.999999,11.999999 0 0 1 1.138177,-0.37793 11.999999,11.999999 0 0 1 1.170411,-0.26367 11.999999,11.999999 0 0 1 1.190919,-0.14355 11.999999,11.999999 0 0 1 0.849606,-0.0308 z"
     id="path822-7-6" />
  <path
     inkscape:connector-curvature="0"
     style="opacity:1;fill:#000000;fill-opacity:1;stroke:none;stroke-width:0.78468889;stroke-linecap:round;stroke-linejoin:round;stroke-miterlimit:4;stroke-dasharray:none;stroke-dashoffset:0;stroke-opacity:1;paint-order:normal"
     d="M 50.000049,48.115145 A 14.999998,14.999998 0 0 0 35.00005,63.115144 14.999998,14.999998 0 0 0 50.000049,78.115142 14.999998,14.999998 0 0 0 65.00005,63.115143 14.999998,14.999998 0 0 0 50.000049,48.115145 Z m 0,3 a 11.999999,11.999999 0 0 1 1.198245,0.06006 11.999999,11.999999 0 0 1 1.185058,0.180175 11.999999,11.999999 0 0 1 1.163087,0.295899 11.999999,11.999999 0 0 1 1.126462,0.411621 11.999999,11.999999 0 0 1 1.079595,0.521484 11.999999,11.999999 0 0 1 1.022459,0.626954 11.999999,11.999999 0 0 1 0.955072,0.726562 11.999999,11.999999 0 0 1 0.877449,0.817383 11.999999,11.999999 0 0 1 0.792479,0.900879 11.999999,11.999999 0 0 1 0.69726,0.975587 11.999999,11.999999 0 0 1 0.59766,1.040038 11.999999,11.999999 0 0 1 0.489255,1.095702 11.999999,11.999999 0 0 1 0.377933,1.138184 11.999999,11.999999 0 0 1 0.263671,1.170409 11.999999,11.999999 0 0 1 0.14355,1.190919 11.999999,11.999999 0 0 1 0.03076,0.848144 11.999999,11.999999 0 0 1 -0.06006,1.198242 11.999999,11.999999 0 0 1 -0.178711,1.186524 11.999999,11.999999 0 0 1 -0.297363,1.161621 11.999999,11.999999 0 0 1 -0.411624,1.126464 11.999999,11.999999 0 0 1 -0.521483,1.081056 11.999999,11.999999 0 0 1 -0.626953,1.02246 11.999999,11.999999 0 0 1 -0.726564,0.955078 11.999999,11.999999 0 0 1 -0.81738,0.877442 11.999999,11.999999 0 0 1 -0.900878,0.791014 11.999999,11.999999 0 0 1 -0.975593,0.698732 11.999999,11.999999 0 0 1 -1.04003,0.596192 11.999999,11.999999 0 0 1 -1.095705,0.489256 11.999999,11.999999 0 0 1 -1.138185,0.379395 11.999999,11.999999 0 0 1 -1.170413,0.262208 11.999999,11.999999 0 0 1 -1.190917,0.14502 11.999999,11.999999 0 0 1 -0.848145,0.0293 11.999999,11.999999 0 0 1 -1.198238,-0.06006 11.999999,11.999999 0 0 1 -1.186522,-0.17871 11.999999,11.999999 0 0 1 -1.161623,-0.297363 11.999999,11.999999 0 0 1 -1.12647,-0.410157 11.999999,11.999999 0 0 1 -1.08105,-0.522948 11.999999,11.999999 0 0 1 -1.022458,-0.626954 11.999999,11.999999 0 0 1 -0.95508,-0.725098 11.999999,11.999999 0 0 1 -0.877442,-0.817382 11.999999,11.999999 0 0 1 -0.791017,-0.902344 11.999999,11.999999 0 0 1 -0.69873,-0.975587 11.999999,11.999999 0 0 1 -0.59619,-1.040037 11.999999,11.999999 0 0 1 -0.489263,-1.094239 11.999999,11.999999 0 0 1 -0.379395,-1.138184 11.999999,11.999999 0 0 1 -0.262198,-1.170409 11.999999,11.999999 0 0 1 -0.14502,-1.190919 11.999999,11.999999 0 0 1 -0.02933,-0.849609 11.999999,11.999999 0 0 1 0.06007,-1.198242 11.999999,11.999999 0 0 1 0.178711,-1.185059 11.999999,11.999999 0 0 1 0.297366,-1.163085 11.999999,11.999999 0 0 1 0.410153,-1.126465 11.999999,11.999999 0 0 1 0.522952,-1.079591 11.999999,11.999999 0 0 1 0.626955,-1.02246 11.999999,11.999999 0 0 1 0.725093,-0.955078 11.999999,11.999999 0 0 1 0.817387,-0.877442 11.999999,11.999999 0 0 1 0.90234,-0.79248 11.999999,11.999999 0 0 1 0.975585,-0.697266 11.999999,11.999999 0 0 1 1.04004,-0.597655 11.999999,11.999999 0 0 1 1.094243,-0.489258 11.999999,11.999999 0 0 1 1.138177,-0.37793 11.999999,11.999999 0 0 1 1.170411,-0.263671 11.999999,11.999999 0 0 1 1.190919,-0.14355 11.999999,11.999999 0 0 1 0.849606,-0.03077 z"
     id="path822-2-2" />
  <path
     inkscape:connector-curvature="0"
     style="opacity:1;fill:#000000;fill-opacity:1;stroke:none;stroke-width:0.78468889;stroke-linecap:round;stroke-linejoin:round;stroke-miterlimit:4;stroke-dasharray:none;stroke-dashoffset:0;stroke-opacity:1;paint-order:normal"
     d="M 50.000049,66.865001 A 14.999998,14.999998 0 0 0 35.00005,81.864999 14.999998,14.999998 0 0 0 50.000049,96.864998 14.999998,14.999998 0 0 0 65.00005,81.864999 14.999998,14.999998 0 0 0 50.000049,66.865001 Z m 0,3 a 11.999999,11.999999 0 0 1 1.198245,0.06006 11.999999,11.999999 0 0 1 1.185058,0.180176 11.999999,11.999999 0 0 1 1.163087,0.295899 11.999999,11.999999 0 0 1 1.126462,0.41162 11.999999,11.999999 0 0 1 1.079595,0.521484 11.999999,11.999999 0 0 1 1.022459,0.626954 11.999999,11.999999 0 0 1 0.955072,0.726562 11.999999,11.999999 0 0 1 0.877449,0.817383 11.999999,11.999999 0 0 1 0.792479,0.90088 11.999999,11.999999 0 0 1 0.69726,0.975586 11.999999,11.999999 0 0 1 0.59766,1.040039 11.999999,11.999999 0 0 1 0.489255,1.095702 11.999999,11.999999 0 0 1 0.377933,1.138183 11.999999,11.999999 0 0 1 0.263671,1.170409 11.999999,11.999999 0 0 1 0.14355,1.190919 11.999999,11.999999 0 0 1 0.03076,0.848144 11.999999,11.999999 0 0 1 -0.06006,1.198242 11.999999,11.999999 0 0 1 -0.178711,1.186524 11.999999,11.999999 0 0 1 -0.297363,1.161621 11.999999,11.999999 0 0 1 -0.411624,1.126464 11.999999,11.999999 0 0 1 -0.521483,1.081056 11.999999,11.999999 0 0 1 -0.626953,1.02246 11.999999,11.999999 0 0 1 -0.726564,0.955078 11.999999,11.999999 0 0 1 -0.81738,0.877442 11.999999,11.999999 0 0 1 -0.900878,0.791014 11.999999,11.999999 0 0 1 -0.975593,0.698732 11.999999,11.999999 0 0 1 -1.04003,0.596191 11.999999,11.999999 0 0 1 -1.095705,0.489257 11.999999,11.999999 0 0 1 -1.138185,0.379395 11.999999,11.999999 0 0 1 -1.170413,0.262208 11.999999,11.999999 0 0 1 -1.190917,0.14502 11.999999,11.999999 0 0 1 -0.848145,0.02929 11.999999,11.999999 0 0 1 -1.198238,-0.06006 11.999999,11.999999 0 0 1 -1.186522,-0.17871 11.999999,11.999999 0 0 1 -1.161623,-0.297363 11.999999,11.999999 0 0 1 -1.12647,-0.410157 11.999999,11.999999 0 0 1 -1.08105,-0.522948 11.999999,11.999999 0 0 1 -1.022458,-0.626954 11.999999,11.999999 0 0 1 -0.95508,-0.725098 11.999999,11.999999 0 0 1 -0.877442,-0.817382 11.999999,11.999999 0 0 1 -0.791017,-0.902344 11.999999,11.999999 0 0 1 -0.69873,-0.975587 11.999999,11.999999 0 0 1 -0.59619,-1.040037 11.999999,11.999999 0 0 1 -0.489263,-1.094239 11.999999,11.999999 0 0 1 -0.379395,-1.138184 11.999999,11.999999 0 0 1 -0.262198,-1.170409 11.999999,11.999999 0 0 1 -0.14502,-1.190919 11.999999,11.999999 0 0 1 -0.02933,-0.849609 11.999999,11.999999 0 0 1 0.06007,-1.198242 11.999999,11.999999 0 0 1 0.178711,-1.185059 11.999999,11.999999 0 0 1 0.297366,-1.163085 11.999999,11.999999 0 0 1 0.410153,-1.126465 11.999999,11.999999 0 0 1 0.522952,-1.079591 11.999999,11.999999 0 0 1 0.626955,-1.02246 11.999999,11.999999 0 0 1 0.725093,-0.955078 11.999999,11.999999 0 0 1 0.817387,-0.877442 11.999999,11.999999 0 0 1 0.90234,-0.79248 11.999999,11.999999 0 0 1 0.975585,-0.697266 11.999999,11.999999 0 0 1 1.04004,-0.597655 11.999999,11.999999 0 0 1 1.094243,-0.489258 11.999999,11.999999 0 0 1 1.138177,-0.37793 11.999999,11.999999 0 0 1 1.170411,-0.263671 11.999999,11.999999 0 0 1 1.190919,-0.14355 11.999999,11.999999 0 0 1 0.849606,-0.03077 z"
     id="path822-7-9-5" />
  <path
     inkscape:connector-curvature="0"
     style="opacity:1;fill:#000000;fill-opacity:1;stroke:none;stroke-width:0.78468889;stroke-linecap:round;stroke-linejoin:round;stroke-miterlimit:4;stroke-dasharray:none;stroke-dashoffset:0;stroke-opacity:1;paint-order:normal"
     d="M -6.2501235,29.364992 A 14.999998,14.999998 0 0 0 -21.250122,44.364991 14.999998,14.999998 0 0 0 -6.2501235,59.364989 14.999998,14.999998 0 0 0 8.749878,44.364991 14.999998,14.999998 0 0 0 -6.2501235,29.364992 Z m 0,3 a 11.999999,11.999999 0 0 1 1.198245,0.06006 11.999999,11.999999 0 0 1 1.1850585,0.180175 11.999999,11.999999 0 0 1 1.1630865,0.295899 11.999999,11.999999 0 0 1 1.1264625,0.411621 11.999999,11.999999 0 0 1 1.079595,0.521484 11.999999,11.999999 0 0 1 1.0224585,0.626954 11.999999,11.999999 0 0 1 0.9550725,0.726562 11.999999,11.999999 0 0 1 0.877449,0.817383 11.999999,11.999999 0 0 1 0.7924785,0.900879 11.999999,11.999999 0 0 1 0.69726,0.975587 11.999999,11.999999 0 0 1 0.59766,1.040038 11.999999,11.999999 0 0 1 0.489255,1.095702 11.999999,11.999999 0 0 1 0.3779325,1.138184 11.999999,11.999999 0 0 1 0.2636715,1.170409 11.999999,11.999999 0 0 1 0.14355,1.190919 11.999999,11.999999 0 0 1 0.030765,0.848144 11.999999,11.999999 0 0 1 -0.06006,1.198242 11.999999,11.999999 0 0 1 -0.1787115,1.186524 11.999999,11.999999 0 0 1 -0.297363,1.161621 11.999999,11.999999 0 0 1 -0.411624,1.126464 11.999999,11.999999 0 0 1 -0.5214825,1.081056 11.999999,11.999999 0 0 1 -0.6269535,1.02246 11.999999,11.999999 0 0 1 -0.726564,0.955078 11.999999,11.999999 0 0 1 -0.81738,0.877442 11.999999,11.999999 0 0 1 -0.9008775,0.791014 11.999999,11.999999 0 0 1 -0.9755925,0.698732 11.999999,11.999999 0 0 1 -1.040031,0.596191 11.999999,11.999999 0 0 1 -1.095705,0.489257 11.999999,11.999999 0 0 1 -1.138185,0.379395 11.999999,11.999999 0 0 1 -1.1704125,0.262207 11.999999,11.999999 0 0 1 -1.1909175,0.14502 11.999999,11.999999 0 0 1 -0.848145,0.0293 11.999999,11.999999 0 0 1 -1.1982375,-0.06006 11.999999,11.999999 0 0 1 -1.1865225,-0.17871 11.999999,11.999999 0 0 1 -1.1616225,-0.297364 11.999999,11.999999 0 0 1 -1.1264695,-0.410157 11.999999,11.999999 0 0 1 -1.08105,-0.522948 11.999999,11.999999 0 0 1 -1.022459,-0.626953 11.999999,11.999999 0 0 1 -0.95508,-0.725099 11.999999,11.999999 0 0 1 -0.877441,-0.817381 11.999999,11.999999 0 0 1 -0.791018,-0.902345 11.999999,11.999999 0 0 1 -0.69873,-0.975586 11.999999,11.999999 0 0 1 -0.59619,-1.040037 11.999999,11.999999 0 0 1 -0.489262,-1.094239 11.999999,11.999999 0 0 1 -0.379395,-1.138184 11.999999,11.999999 0 0 1 -0.262199,-1.17041 11.999999,11.999999 0 0 1 -0.14502,-1.190919 11.999999,11.999999 0 0 1 -0.02933,-0.849609 11.999999,11.999999 0 0 1 0.06008,-1.198242 11.999999,11.999999 0 0 1 0.178712,-1.185058 11.999999,11.999999 0 0 1 0.297366,-1.163085 11.999999,11.999999 0 0 1 0.410152,-1.126466 11.999999,11.999999 0 0 1 0.522953,-1.07959 11.999999,11.999999 0 0 1 0.626955,-1.02246 11.999999,11.999999 0 0 1 0.725092,-0.955079 11.999999,11.999999 0 0 1 0.817388,-0.877441 11.999999,11.999999 0 0 1 0.90234,-0.79248 11.999999,11.999999 0 0 1 0.975585,-0.697266 11.999999,11.999999 0 0 1 1.04004,-0.597656 11.999999,11.999999 0 0 1 1.094242,-0.489258 11.999999,11.999999 0 0 1 1.1381775,-0.377929 11.999999,11.999999 0 0 1 1.170411,-0.263672 11.999999,11.999999 0 0 1 1.190919,-0.14355 11.999999,11.999999 0 0 1 0.849606,-0.03077 z"
     id="path822-9-0" />
  <path
     inkscape:connector-curvature="0"
     style="opacity:1;fill:#000000;fill-opacity:1;stroke:none;stroke-width:0.78468889;stroke-linecap:round;stroke-linejoin:round;stroke-miterlimit:4;stroke-dasharray:none;stroke-dashoffset:0;stroke-opacity:1;paint-order:normal"
     d="M -24.999976,29.364991 A 14.999998,14.999998 0 0 0 -39.999975,44.364989 14.999998,14.999998 0 0 0 -24.999976,59.364987 14.999998,14.999998 0 0 0 -9.999978,44.364989 14.999998,14.999998 0 0 0 -24.999976,29.364991 Z m 0,3 a 11.999999,11.999999 0 0 1 1.198245,0.06006 11.999999,11.999999 0 0 1 1.185057,0.180176 11.999999,11.999999 0 0 1 1.163088,0.295899 11.999999,11.999999 0 0 1 1.126468,0.411621 11.999999,11.999999 0 0 1 1.079595,0.521484 11.999999,11.999999 0 0 1 1.022445,0.626953 11.999999,11.999999 0 0 1 0.95508,0.726563 11.999999,11.999999 0 0 1 0.877455,0.817383 11.999999,11.999999 0 0 1 0.792465,0.900879 11.999999,11.999999 0 0 1 0.69726,0.975586 11.999999,11.999999 0 0 1 0.59766,1.040039 11.999999,11.999999 0 0 1 0.489255,1.095702 11.999999,11.999999 0 0 1 0.37794,1.138183 11.999999,11.999999 0 0 1 0.26367,1.170416 11.999999,11.999999 0 0 1 0.14355,1.19091 11.999999,11.999999 0 0 1 0.03075,0.848145 11.999999,11.999999 0 0 1 -0.06,1.198245 11.999999,11.999999 0 0 1 -0.17871,1.186515 11.999999,11.999999 0 0 1 -0.29736,1.16163 11.999999,11.999999 0 0 1 -0.41163,1.126453 11.999999,11.999999 0 0 1 -0.521475,1.081065 11.999999,11.999999 0 0 1 -0.626955,1.02246 11.999999,11.999999 0 0 1 -0.72657,0.95508 11.999999,11.999999 0 0 1 -0.81738,0.87744 11.999999,11.999999 0 0 1 -0.90087,0.79101 11.999999,11.999999 0 0 1 -0.9756,0.69873 11.999999,11.999999 0 0 1 -1.040025,0.596191 11.999999,11.999999 0 0 1 -1.095705,0.489254 11.999999,11.999999 0 0 1 -1.138188,0.379395 11.999999,11.999999 0 0 1 -1.170412,0.262215 11.999999,11.999999 0 0 1 -1.190918,0.14505 11.999999,11.999999 0 0 1 -0.848145,0.02925 11.999999,11.999999 0 0 1 -1.198237,-0.06 11.999999,11.999999 0 0 1 -1.186523,-0.17871 11.999999,11.999999 0 0 1 -1.161624,-0.29736 11.999999,11.999999 0 0 1 -1.12647,-0.41016 11.999999,11.999999 0 0 1 -1.08105,-0.522945 11.999999,11.999999 0 0 1 -1.02246,-0.626954 11.999999,11.999999 0 0 1 -0.95508,-0.725101 11.999999,11.999999 0 0 1 -0.87744,-0.81738 11.999999,11.999999 0 0 1 -0.79101,-0.90234 11.999999,11.999999 0 0 1 -0.69873,-0.9756 11.999999,11.999999 0 0 1 -0.59619,-1.040025 11.999999,11.999999 0 0 1 -0.48927,-1.09425 11.999999,11.999999 0 0 1 -0.379395,-1.138183 11.999999,11.999999 0 0 1 -0.2622,-1.170405 11.999999,11.999999 0 0 1 -0.14505,-1.19091 11.999999,11.999999 0 0 1 -0.0294,-0.849615 11.999999,11.999999 0 0 1 0.06015,-1.198245 11.999999,11.999999 0 0 1 0.17871,-1.185056 11.999999,11.999999 0 0 1 0.297375,-1.163085 11.999999,11.999999 0 0 1 0.410145,-1.126465 11.999999,11.999999 0 0 1 0.52296,-1.07959 11.999999,11.999999 0 0 1 0.626955,-1.022461 11.999999,11.999999 0 0 1 0.725085,-0.955078 11.999999,11.999999 0 0 1 0.817395,-0.877442 11.999999,11.999999 0 0 1 0.90234,-0.79248 11.999999,11.999999 0 0 1 0.975585,-0.697266 11.999999,11.999999 0 0 1 1.04004,-0.597655 11.999999,11.999999 0 0 1 1.094235,-0.489258 11.999999,11.999999 0 0 1 1.138181,-0.37793 11.999999,11.999999 0 0 1 1.170411,-0.263671 11.999999,11.999999 0 0 1 1.190919,-0.14355 11.999999,11.999999 0 0 1 0.849604,-0.03077 z"
     id="path822-7-6-1" />
  <path
     inkscape:connector-curvature="0"
     style="opacity:1;fill:#000000;fill-opacity:1;stroke:none;stroke-width:0.78468889;stroke-linecap:round;stroke-linejoin:round;stroke-miterlimit:4;stroke-dasharray:none;stroke-dashoffset:0;stroke-opacity:1;paint-order:normal"
     d="M 31.249876,29.365004 A 14.999998,14.999998 0 0 0 16.249878,44.365003 14.999998,14.999998 0 0 0 31.249876,59.365001 14.999998,14.999998 0 0 0 46.249878,44.365003 14.999998,14.999998 0 0 0 31.249876,29.365004 Z m 0,3 a 11.999999,11.999999 0 0 1 1.198246,0.06006 11.999999,11.999999 0 0 1 1.185058,0.180175 11.999999,11.999999 0 0 1 1.163087,0.295899 11.999999,11.999999 0 0 1 1.126462,0.411621 11.999999,11.999999 0 0 1 1.079595,0.521484 11.999999,11.999999 0 0 1 1.022458,0.626954 11.999999,11.999999 0 0 1 0.955073,0.726562 11.999999,11.999999 0 0 1 0.877449,0.817383 11.999999,11.999999 0 0 1 0.792478,0.900879 11.999999,11.999999 0 0 1 0.69726,0.975587 11.999999,11.999999 0 0 1 0.597661,1.040038 11.999999,11.999999 0 0 1 0.489255,1.095702 11.999999,11.999999 0 0 1 0.377932,1.138184 11.999999,11.999999 0 0 1 0.263672,1.170409 11.999999,11.999999 0 0 1 0.14355,1.190919 11.999999,11.999999 0 0 1 0.03076,0.848144 11.999999,11.999999 0 0 1 -0.06006,1.198242 11.999999,11.999999 0 0 1 -0.178712,1.186524 11.999999,11.999999 0 0 1 -0.297363,1.161621 11.999999,11.999999 0 0 1 -0.411624,1.126464 11.999999,11.999999 0 0 1 -0.521482,1.081056 11.999999,11.999999 0 0 1 -0.626954,1.02246 11.999999,11.999999 0 0 1 -0.726564,0.955079 11.999999,11.999999 0 0 1 -0.81738,0.877441 11.999999,11.999999 0 0 1 -0.900877,0.791014 11.999999,11.999999 0 0 1 -0.975593,0.698732 11.999999,11.999999 0 0 1 -1.040031,0.596191 11.999999,11.999999 0 0 1 -1.095705,0.489257 11.999999,11.999999 0 0 1 -1.138185,0.379395 11.999999,11.999999 0 0 1 -1.170412,0.262207 11.999999,11.999999 0 0 1 -1.190918,0.14502 11.999999,11.999999 0 0 1 -0.848145,0.0293 11.999999,11.999999 0 0 1 -1.198237,-0.06006 11.999999,11.999999 0 0 1 -1.186523,-0.178711 11.999999,11.999999 0 0 1 -1.161622,-0.297363 11.999999,11.999999 0 0 1 -1.12647,-0.410157 11.999999,11.999999 0 0 1 -1.08105,-0.522948 11.999999,11.999999 0 0 1 -1.022459,-0.626953 11.999999,11.999999 0 0 1 -0.95508,-0.725099 11.999999,11.999999 0 0 1 -0.877441,-0.817381 11.999999,11.999999 0 0 1 -0.791018,-0.902344 11.999999,11.999999 0 0 1 -0.69873,-0.975587 11.999999,11.999999 0 0 1 -0.59619,-1.040037 11.999999,11.999999 0 0 1 -0.489262,-1.09424 11.999999,11.999999 0 0 1 -0.379395,-1.138183 11.999999,11.999999 0 0 1 -0.262199,-1.17041 11.999999,11.999999 0 0 1 -0.14502,-1.190918 11.999999,11.999999 0 0 1 -0.02933,-0.849609 11.999999,11.999999 0 0 1 0.06008,-1.198242 11.999999,11.999999 0 0 1 0.178712,-1.185059 11.999999,11.999999 0 0 1 0.297366,-1.163085 11.999999,11.999999 0 0 1 0.410152,-1.126466 11.999999,11.999999 0 0 1 0.522953,-1.07959 11.999999,11.999999 0 0 1 0.626955,-1.02246 11.999999,11.999999 0 0 1 0.725092,-0.955078 11.999999,11.999999 0 0 1 0.817388,-0.877442 11.999999,11.999999 0 0 1 0.90234,-0.79248 11.999999,11.999999 0 0 1 0.975585,-0.697266 11.999999,11.999999 0 0 1 1.04004,-0.597655 11.999999,11.999999 0 0 1 1.094242,-0.489259 11.999999,11.999999 0 0 1 1.138178,-0.377929 11.999999,11.999999 0 0 1 1.170411,-0.263671 11.999999,11.999999 0 0 1 1.190919,-0.143551 11.999999,11.999999 0 0 1 0.849606,-0.03077 z"
     id="path822-2-2-7" />
  <path
     inkscape:connector-curvature="0"
     style="opacity:1;fill:#000000;fill-opacity:1;stroke:none;stroke-width:0.78468889;stroke-linecap:round;stroke-linejoin:round;stroke-miterlimit:4;stroke-dasharray:none;stroke-dashoffset:0;stroke-opacity:1;paint-order:normal"
     d="M 12.500021,29.365004 A 14.999998,14.999998 0 0 0 -2.499978,44.365003 14.999998,14.999998 0 0 0 12.500021,59.365001 14.999998,14.999998 0 0 0 27.500022,44.365003 14.999998,14.999998 0 0 0 12.500021,29.365004 Z m 0,3 a 11.999999,11.999999 0 0 1 1.198244,0.06006 11.999999,11.999999 0 0 1 1.185059,0.180175 11.999999,11.999999 0 0 1 1.163086,0.295899 11.999999,11.999999 0 0 1 1.126463,0.411621 11.999999,11.999999 0 0 1 1.079595,0.521484 11.999999,11.999999 0 0 1 1.022458,0.626954 11.999999,11.999999 0 0 1 0.955073,0.726562 11.999999,11.999999 0 0 1 0.877449,0.817383 11.999999,11.999999 0 0 1 0.792478,0.900879 11.999999,11.999999 0 0 1 0.69726,0.975587 11.999999,11.999999 0 0 1 0.59766,1.040038 11.999999,11.999999 0 0 1 0.489255,1.095702 11.999999,11.999999 0 0 1 0.377933,1.138184 11.999999,11.999999 0 0 1 0.263671,1.170409 11.999999,11.999999 0 0 1 0.14355,1.190919 11.999999,11.999999 0 0 1 0.03076,0.848144 11.999999,11.999999 0 0 1 -0.06006,1.198242 11.999999,11.999999 0 0 1 -0.178712,1.186524 11.999999,11.999999 0 0 1 -0.297363,1.161621 11.999999,11.999999 0 0 1 -0.411624,1.126464 11.999999,11.999999 0 0 1 -0.521483,1.081056 11.999999,11.999999 0 0 1 -0.626953,1.02246 11.999999,11.999999 0 0 1 -0.726564,0.955079 11.999999,11.999999 0 0 1 -0.81738,0.877441 11.999999,11.999999 0 0 1 -0.900878,0.791014 11.999999,11.999999 0 0 1 -0.975592,0.698732 11.999999,11.999999 0 0 1 -1.040031,0.596191 11.999999,11.999999 0 0 1 -1.095705,0.489257 11.999999,11.999999 0 0 1 -1.138185,0.379395 11.999999,11.999999 0 0 1 -1.170413,0.262207 11.999999,11.999999 0 0 1 -1.190917,0.14502 11.999999,11.999999 0 0 1 -0.848145,0.0293 11.999999,11.999999 0 0 1 -1.198238,-0.06006 A 11.999999,11.999999 0 0 1 10.11525,56.126236 11.999999,11.999999 0 0 1 8.9536275,55.828873 11.999999,11.999999 0 0 1 7.8271575,55.418716 11.999999,11.999999 0 0 1 6.7461075,54.895768 11.999999,11.999999 0 0 1 5.723655,54.268811 11.999999,11.999999 0 0 1 4.768575,53.543712 11.999999,11.999999 0 0 1 3.8911335,52.726331 11.999999,11.999999 0 0 1 3.100116,51.823987 11.999999,11.999999 0 0 1 2.401386,50.8484 11.999999,11.999999 0 0 1 1.805196,49.808363 11.999999,11.999999 0 0 1 1.3159335,48.714123 11.999999,11.999999 0 0 1 0.9365385,47.57594 11.999999,11.999999 0 0 1 0.67434,46.40553 11.999999,11.999999 0 0 1 0.52932,45.214612 11.999999,11.999999 0 0 1 0.499995,44.365003 11.999999,11.999999 0 0 1 0.56007,43.166761 11.999999,11.999999 0 0 1 0.7387815,41.981702 11.999999,11.999999 0 0 1 1.0361475,40.818617 11.999999,11.999999 0 0 1 1.4463,39.692151 a 11.999999,11.999999 0 0 1 0.5229525,-1.07959 11.999999,11.999999 0 0 1 0.626955,-1.02246 11.999999,11.999999 0 0 1 0.7250925,-0.955078 11.999999,11.999999 0 0 1 0.8173875,-0.877442 11.999999,11.999999 0 0 1 0.90234,-0.79248 11.999999,11.999999 0 0 1 0.975585,-0.697266 11.999999,11.999999 0 0 1 1.04004,-0.597655 11.999999,11.999999 0 0 1 1.0942425,-0.489259 11.999999,11.999999 0 0 1 1.1381775,-0.377929 11.999999,11.999999 0 0 1 1.1704105,-0.263671 11.999999,11.999999 0 0 1 1.190919,-0.143551 11.999999,11.999999 0 0 1 0.849606,-0.03077 z"
     id="path822-7-9-5-8" />
  <path
     inkscape:connector-curvature="0"
     style="opacity:1;fill:#000000;fill-opacity:1;stroke:none;stroke-width:0.78468889;stroke-linecap:round;stroke-linejoin:round;stroke-miterlimit:4;stroke-dasharray:none;stroke-dashoffset:0;stroke-opacity:1;paint-order:normal"
     d="m 50.000037,123.115 a 14.999998,14.999998 0 0 0 -14.999999,15 14.999998,14.999998 0 0 0 14.999999,15 14.999998,14.999998 0 0 0 15.000001,-15 14.999998,14.999998 0 0 0 -15.000001,-15 z m 0,3 a 11.999999,11.999999 0 0 1 1.198245,0.06 11.999999,11.999999 0 0 1 1.185059,0.18018 11.999999,11.999999 0 0 1 1.163086,0.29589 11.999999,11.999999 0 0 1 1.126462,0.41163 11.999999,11.999999 0 0 1 1.079595,0.52147 11.999999,11.999999 0 0 1 1.022459,0.62696 11.999999,11.999999 0 0 1 0.955072,0.72657 11.999999,11.999999 0 0 1 0.877449,0.81738 11.999999,11.999999 0 0 1 0.792479,0.90088 11.999999,11.999999 0 0 1 0.69726,0.97559 11.999999,11.999999 0 0 1 0.59766,1.04004 11.999999,11.999999 0 0 1 0.489255,1.09569 11.999999,11.999999 0 0 1 0.377932,1.13818 11.999999,11.999999 0 0 1 0.263672,1.17042 11.999999,11.999999 0 0 1 0.14355,1.19091 11.999999,11.999999 0 0 1 0.03077,0.84815 11.999999,11.999999 0 0 1 -0.06006,1.19824 11.999999,11.999999 0 0 1 -0.178711,1.18652 11.999999,11.999999 0 0 1 -0.297363,1.16163 11.999999,11.999999 0 0 1 -0.411624,1.12645 11.999999,11.999999 0 0 1 -0.521483,1.08107 11.999999,11.999999 0 0 1 -0.626953,1.02246 11.999999,11.999999 0 0 1 -0.726564,0.95508 11.999999,11.999999 0 0 1 -0.81738,0.87744 11.999999,11.999999 0 0 1 -0.900878,0.79101 11.999999,11.999999 0 0 1 -0.975592,0.69873 11.999999,11.999999 0 0 1 -1.040031,0.59619 11.999999,11.999999 0 0 1 -1.095705,0.48925 11.999999,11.999999 0 0 1 -1.138185,0.3794 11.999999,11.999999 0 0 1 -1.170413,0.26221 11.999999,11.999999 0 0 1 -1.190917,0.14505 11.999999,11.999999 0 0 1 -0.848145,0.0293 11.999999,11.999999 0 0 1 -1.198238,-0.06 11.999999,11.999999 0 0 1 -1.186522,-0.17871 11.999999,11.999999 0 0 1 -1.161623,-0.29736 11.999999,11.999999 0 0 1 -1.12647,-0.41016 11.999999,11.999999 0 0 1 -1.08105,-0.52294 11.999999,11.999999 0 0 1 -1.022458,-0.62696 11.999999,11.999999 0 0 1 -0.95508,-0.7251 11.999999,11.999999 0 0 1 -0.877442,-0.81738 11.999999,11.999999 0 0 1 -0.791017,-0.90234 11.999999,11.999999 0 0 1 -0.69873,-0.9756 11.999999,11.999999 0 0 1 -0.59619,-1.04002 11.999999,11.999999 0 0 1 -0.489263,-1.09425 11.999999,11.999999 0 0 1 -0.379395,-1.13819 11.999999,11.999999 0 0 1 -0.262198,-1.1704 11.999999,11.999999 0 0 1 -0.14502,-1.19091 11.999999,11.999999 0 0 1 -0.02933,-0.84962 11.999999,11.999999 0 0 1 0.06008,-1.19824 11.999999,11.999999 0 0 1 0.178711,-1.18506 11.999999,11.999999 0 0 1 0.297366,-1.16309 11.999999,11.999999 0 0 1 0.410153,-1.12645 11.999999,11.999999 0 0 1 0.522952,-1.0796 11.999999,11.999999 0 0 1 0.626955,-1.02246 11.999999,11.999999 0 0 1 0.725093,-0.95508 11.999999,11.999999 0 0 1 0.817387,-0.87744 11.999999,11.999999 0 0 1 0.90234,-0.79248 11.999999,11.999999 0 0 1 0.975585,-0.69727 11.999999,11.999999 0 0 1 1.04004,-0.59765 11.999999,11.999999 0 0 1 1.094243,-0.48925 11.999999,11.999999 0 0 1 1.138177,-0.37794 11.999999,11.999999 0 0 1 1.170411,-0.26367 11.999999,11.999999 0 0 1 1.190919,-0.14355 11.999999,11.999999 0 0 1 0.849606,-0.0307 z"
     id="path822-7-6-5" />
  <path
     inkscape:connector-curvature="0"
     style="opacity:1;fill:#000000;fill-opacity:1;stroke:none;stroke-width:0.78468889;stroke-linecap:round;stroke-linejoin:round;stroke-miterlimit:4;stroke-dasharray:none;stroke-dashoffset:0;stroke-opacity:1;paint-order:normal"
     d="m 50.000025,-45.634998 a 14.999998,14.999998 0 0 0 -14.999999,14.999999 14.999998,14.999998 0 0 0 14.999999,14.999998 14.999998,14.999998 0 0 0 15.000001,-14.999998 14.999998,14.999998 0 0 0 -15.000001,-14.999999 z m 0,3 a 11.999999,11.999999 0 0 1 1.198245,0.06006 11.999999,11.999999 0 0 1 1.185059,0.180176 11.999999,11.999999 0 0 1 1.163086,0.295899 11.999999,11.999999 0 0 1 1.126462,0.411621 11.999999,11.999999 0 0 1 1.079595,0.521484 11.999999,11.999999 0 0 1 1.022459,0.626954 11.999999,11.999999 0 0 1 0.955072,0.726562 11.999999,11.999999 0 0 1 0.877449,0.817383 11.999999,11.999999 0 0 1 0.792479,0.900879 11.999999,11.999999 0 0 1 0.69726,0.975586 11.999999,11.999999 0 0 1 0.59766,1.040039 11.999999,11.999999 0 0 1 0.489255,1.095702 11.999999,11.999999 0 0 1 0.377932,1.138183 11.999999,11.999999 0 0 1 0.263672,1.17041 11.999999,11.999999 0 0 1 0.14355,1.190919 11.999999,11.999999 0 0 1 0.03077,0.848144 11.999999,11.999999 0 0 1 -0.06006,1.198242 11.999999,11.999999 0 0 1 -0.178711,1.186523 11.999999,11.999999 0 0 1 -0.297363,1.161621 11.999999,11.999999 0 0 1 -0.411624,1.126464 11.999999,11.999999 0 0 1 -0.521483,1.081056 11.999999,11.999999 0 0 1 -0.626954,1.022461 11.999999,11.999999 0 0 1 -0.726563,0.955078 11.999999,11.999999 0 0 1 -0.81738,0.877441 11.999999,11.999999 0 0 1 -0.900878,0.791015 11.999999,11.999999 0 0 1 -0.975592,0.698732 11.999999,11.999999 0 0 1 -1.040031,0.596191 11.999999,11.999999 0 0 1 -1.095705,0.489257 11.999999,11.999999 0 0 1 -1.138185,0.379395 11.999999,11.999999 0 0 1 -1.170413,0.262207 11.999999,11.999999 0 0 1 -1.190917,0.14502 11.999999,11.999999 0 0 1 -0.848145,0.0293 11.999999,11.999999 0 0 1 -1.198238,-0.06006 11.999999,11.999999 0 0 1 -1.186523,-0.17871 11.999999,11.999999 0 0 1 -1.161622,-0.297363 11.999999,11.999999 0 0 1 -1.12647,-0.410157 11.999999,11.999999 0 0 1 -1.08105,-0.522948 11.999999,11.999999 0 0 1 -1.022459,-0.626954 11.999999,11.999999 0 0 1 -0.955079,-0.725098 11.999999,11.999999 0 0 1 -0.877442,-0.817382 11.999999,11.999999 0 0 1 -0.791018,-0.902344 11.999999,11.999999 0 0 1 -0.698729,-0.975587 11.999999,11.999999 0 0 1 -0.596191,-1.040037 11.999999,11.999999 0 0 1 -0.489262,-1.094239 11.999999,11.999999 0 0 1 -0.379395,-1.138184 11.999999,11.999999 0 0 1 -0.262198,-1.170409 11.999999,11.999999 0 0 1 -0.14502,-1.190919 A 11.999999,11.999999 0 0 1 38,-30.634999 a 11.999999,11.999999 0 0 1 0.06007,-1.198242 11.999999,11.999999 0 0 1 0.178712,-1.185059 11.999999,11.999999 0 0 1 0.297366,-1.163085 11.999999,11.999999 0 0 1 0.410153,-1.126465 11.999999,11.999999 0 0 1 0.522952,-1.079591 11.999999,11.999999 0 0 1 0.626955,-1.02246 11.999999,11.999999 0 0 1 0.725092,-0.955078 11.999999,11.999999 0 0 1 0.817388,-0.877442 11.999999,11.999999 0 0 1 0.90234,-0.79248 11.999999,11.999999 0 0 1 0.975585,-0.697266 11.999999,11.999999 0 0 1 1.04004,-0.597655 11.999999,11.999999 0 0 1 1.094242,-0.489258 11.999999,11.999999 0 0 1 1.138178,-0.377929 11.999999,11.999999 0 0 1 1.170411,-0.263672 11.999999,11.999999 0 0 1 1.190919,-0.14355 11.999999,11.999999 0 0 1 0.849606,-0.03077 z"
     id="path822-2-6" />
</svg>
