<?xml version="1.0" encoding="UTF-8"?>
<svg version="1.1" viewBox="0 0 100 110" xmlns="http://www.w3.org/2000/svg" xmlns:cc="http://creativecommons.org/ns#" xmlns:dc="http://purl.org/dc/elements/1.1/" xmlns:rdf="http://www.w3.org/1999/02/22-rdf-syntax-ns#" xmlns:xlink="http://www.w3.org/1999/xlink">
 <metadata>
  <rdf:RDF>
   <cc:Work rdf:about="">
    <dc:format>image/svg+xml</dc:format>
    <dc:type rdf:resource="http://purl.org/dc/dcmitype/StillImage"/>
    <dc:title/>
   </cc:Work>
  </rdf:RDF>
 </metadata>
 <g id="use863" transform="matrix(.7352 0 0 -.7352 46.06 31.36)" aria-label="♦">
  <path d="m-13.07-23.64 11.17 14.67-11.17 14.47c-0.1562-0.1042-3.893-4.928-11.21-14.47z"/>
 </g>
 <g id="use865" transform="matrix(.7352 0 0 -.7352 67.81 60.56)" aria-label="♦">
  <path d="m-13.07-23.64 11.17 14.67-11.17 14.47c-0.1562-0.1042-3.893-4.928-11.21-14.47z"/>
 </g>
 <g id="use1019" transform="matrix(.7352 0 0 -.7352 94.57 87.46)" aria-label="♦">
  <path d="m-13.07-23.64 11.17 14.67-11.17 14.47c-0.1562-0.1042-3.893-4.928-11.21-14.47z"/>
 </g>
 <use transform="matrix(1 0 0 -1 -22.11 51.25)" width="100%" height="100%" xlink:href="#use863"/>
 <use transform="matrix(1 0 0 -1 18.44 116.3)" width="100%" height="100%" xlink:href="#use865"/>
 <use id="use1163" transform="matrix(1 0 0 -1 -31.57 113.4)" width="100%" height="100%" xlink:href="#use1019"/>
 <use transform="translate(29.74 -3.367)" width="100%" height="100%" xlink:href="#use1163"/>
</svg>
