<?xml version="1.0" encoding="UTF-8" standalone="no"?>
<svg
   xmlns:dc="http://purl.org/dc/elements/1.1/"
   xmlns:cc="http://creativecommons.org/ns#"
   xmlns:rdf="http://www.w3.org/1999/02/22-rdf-syntax-ns#"
   xmlns:svg="http://www.w3.org/2000/svg"
   xmlns="http://www.w3.org/2000/svg"
   xmlns:sodipodi="http://sodipodi.sourceforge.net/DTD/sodipodi-0.dtd"
   xmlns:inkscape="http://www.inkscape.org/namespaces/inkscape"
   viewBox="0 0 100 110"
   version="1.1"
   id="svg23"
   sodipodi:docname="ten.svg"
   inkscape:version="0.92.4 (5da689c313, 2019-01-14)">
  <metadata
     id="metadata29">
    <rdf:RDF>
      <cc:Work
         rdf:about="">
        <dc:format>image/svg+xml</dc:format>
        <dc:type
           rdf:resource="http://purl.org/dc/dcmitype/StillImage" />
        <dc:title />
      </cc:Work>
    </rdf:RDF>
  </metadata>
  <defs
     id="defs27" />
  <sodipodi:namedview
     pagecolor="#ffffff"
     bordercolor="#666666"
     borderopacity="1"
     objecttolerance="10"
     gridtolerance="10"
     guidetolerance="10"
     inkscape:pageopacity="0"
     inkscape:pageshadow="2"
     inkscape:window-width="1920"
     inkscape:window-height="1020"
     id="namedview25"
     showgrid="false"
     inkscape:zoom="4"
     inkscape:cx="-21.032173"
     inkscape:cy="71.174399"
     inkscape:window-x="0"
     inkscape:window-y="0"
     inkscape:window-maximized="1"
     inkscape:current-layer="svg23"
     showguides="true"
     inkscape:guide-bbox="true" />
  <g
     aria-label="♦"
     style="font-style:normal;font-weight:normal;font-size:40px;line-height:1.25;font-family:sans-serif;letter-spacing:0px;word-spacing:0px;fill:#000000;fill-opacity:1;stroke:none"
     id="text912"
     transform="matrix(0.83586784,0,0,-0.83586784,26.87777,65.857756)">
    <path
       d="M -13.070313,-23.640625 -1.8984375,-8.9726563 -13.070313,5.5 C -13.226563,5.3958333 -16.963542,0.57161457 -24.28125,-8.9726563 Z"
       id="path914"
       inkscape:connector-curvature="0"
       sodipodi:nodetypes="ccccc" />
  </g>
  <g
     aria-label="♦"
     style="font-style:normal;font-weight:normal;font-size:40px;line-height:1.25;font-family:sans-serif;letter-spacing:0px;word-spacing:0px;fill:#000000;fill-opacity:1;stroke:none"
     id="text912-1"
     transform="matrix(0.83586784,0,0,-0.83586784,72.295916,65.857756)">
    <path
       d="M -13.070313,-23.640625 -1.8984375,-8.9726563 -13.070313,5.5 C -13.226563,5.3958333 -16.963542,0.57161457 -24.28125,-8.9726563 Z"
       id="path914-0"
       inkscape:connector-curvature="0"
       sodipodi:nodetypes="ccccc" />
  </g>
  <g
     aria-label="♦"
     style="font-style:normal;font-weight:normal;font-size:40px;line-height:1.25;font-family:sans-serif;letter-spacing:0px;word-spacing:0px;fill:#000000;fill-opacity:1;stroke:none"
     id="text912-1-4"
     transform="matrix(0.83586784,0,0,-0.83586784,49.586843,65.857756)">
    <path
       d="M -13.070313,-23.640625 -1.8984375,-8.9726563 -13.070313,5.5 C -13.226563,5.3958333 -16.963542,0.57161457 -24.28125,-8.9726563 Z"
       id="path914-0-8"
       inkscape:connector-curvature="0"
       sodipodi:nodetypes="ccccc" />
  </g>
  <g
     aria-label="♦"
     style="font-style:normal;font-weight:normal;font-size:40px;line-height:1.25;font-family:sans-serif;letter-spacing:0px;word-spacing:0px;fill:#000000;fill-opacity:1;stroke:none"
     id="text912-1-9"
     transform="matrix(0.83586784,0,0,-0.83586784,97.004989,65.857756)">
    <path
       d="M -13.070313,-23.640625 -1.8984375,-8.9726563 -13.070313,5.5 C -13.226563,5.3958333 -16.963542,0.57161457 -24.28125,-8.9726563 Z"
       id="path914-0-28"
       inkscape:connector-curvature="0"
       sodipodi:nodetypes="ccccc" />
  </g>
  <g
     aria-label="♦"
     style="font-style:normal;font-weight:normal;font-size:40px;line-height:1.25;font-family:sans-serif;letter-spacing:0px;word-spacing:0px;fill:#000000;fill-opacity:1;stroke:none"
     id="text912-9"
     transform="matrix(0.83586784,0,0,-0.83586784,26.87777,35.500045)">
    <path
       d="M -13.070313,-23.640625 -1.8984375,-8.9726563 -13.070313,5.5 C -13.226563,5.3958333 -16.963542,0.57161457 -24.28125,-8.9726563 Z"
       id="path914-2"
       inkscape:connector-curvature="0"
       sodipodi:nodetypes="ccccc" />
  </g>
  <g
     aria-label="♦"
     style="font-style:normal;font-weight:normal;font-size:40px;line-height:1.25;font-family:sans-serif;letter-spacing:0px;word-spacing:0px;fill:#000000;fill-opacity:1;stroke:none"
     id="text912-1-5"
     transform="matrix(0.83586784,0,0,-0.83586784,72.295916,35.500045)">
    <path
       d="M -13.070313,-23.640625 -1.8984375,-8.9726563 -13.070313,5.5 C -13.226563,5.3958333 -16.963542,0.57161457 -24.28125,-8.9726563 Z"
       id="path914-0-7"
       inkscape:connector-curvature="0"
       sodipodi:nodetypes="ccccc" />
  </g>
  <g
     aria-label="♦"
     style="font-style:normal;font-weight:normal;font-size:40px;line-height:1.25;font-family:sans-serif;letter-spacing:0px;word-spacing:0px;fill:#000000;fill-opacity:1;stroke:none"
     id="text912-1-4-4"
     transform="matrix(0.83586784,0,0,-0.83586784,49.586843,35.500045)">
    <path
       d="M -13.070313,-23.640625 -1.8984375,-8.9726563 -13.070313,5.5 C -13.226563,5.3958333 -16.963542,0.57161457 -24.28125,-8.9726563 Z"
       id="path914-0-8-9"
       inkscape:connector-curvature="0"
       sodipodi:nodetypes="ccccc" />
  </g>
  <g
     aria-label="♦"
     style="font-style:normal;font-weight:normal;font-size:40px;line-height:1.25;font-family:sans-serif;letter-spacing:0px;word-spacing:0px;fill:#000000;fill-opacity:1;stroke:none"
     id="text912-1-9-9"
     transform="matrix(0.83586784,0,0,-0.83586784,97.004989,35.500045)">
    <path
       d="M -13.070313,-23.640625 -1.8984375,-8.9726563 -13.070313,5.5 C -13.226563,5.3958333 -16.963542,0.57161457 -24.28125,-8.9726563 Z"
       id="path914-0-28-4"
       inkscape:connector-curvature="0"
       sodipodi:nodetypes="ccccc" />
  </g>
  <g
     aria-label="♦"
     style="font-style:normal;font-weight:normal;font-size:40px;line-height:1.25;font-family:sans-serif;letter-spacing:0px;word-spacing:0px;fill:#000000;fill-opacity:1;stroke:none"
     id="text912-1-5-9"
     transform="matrix(0.83586784,0,0,-0.83586784,72.295916,7.500045)">
    <path
       d="M -13.070313,-23.640625 -1.8984375,-8.9726563 -13.070313,5.5 C -13.226563,5.3958333 -16.963542,0.57161457 -24.28125,-8.9726563 Z"
       id="path914-0-7-9"
       inkscape:connector-curvature="0"
       sodipodi:nodetypes="ccccc" />
  </g>
  <g
     aria-label="♦"
     style="font-style:normal;font-weight:normal;font-size:40px;line-height:1.25;font-family:sans-serif;letter-spacing:0px;word-spacing:0px;fill:#000000;fill-opacity:1;stroke:none"
     id="text912-1-4-4-7"
     transform="matrix(0.83586784,0,0,-0.83586784,49.586843,7.500045)">
    <path
       d="M -13.070313,-23.640625 -1.8984375,-8.9726563 -13.070313,5.5 C -13.226563,5.3958333 -16.963542,0.57161457 -24.28125,-8.9726563 Z"
       id="path914-0-8-9-8"
       inkscape:connector-curvature="0"
       sodipodi:nodetypes="ccccc" />
  </g>
</svg>
