<?xml version="1.0" encoding="UTF-8" standalone="no"?>
<svg
   xmlns:dc="http://purl.org/dc/elements/1.1/"
   xmlns:cc="http://creativecommons.org/ns#"
   xmlns:rdf="http://www.w3.org/1999/02/22-rdf-syntax-ns#"
   xmlns:svg="http://www.w3.org/2000/svg"
   xmlns="http://www.w3.org/2000/svg"
   xmlns:sodipodi="http://sodipodi.sourceforge.net/DTD/sodipodi-0.dtd"
   xmlns:inkscape="http://www.inkscape.org/namespaces/inkscape"
   inkscape:version="1.0 (4035a4fb49, 2020-05-01)"
   sodipodi:docname="ten.svg"
   id="svg23"
   version="1.1"
   viewBox="0 0 100 110">
  <metadata
     id="metadata29">
    <rdf:RDF>
      <cc:Work
         rdf:about="">
        <dc:format>image/svg+xml</dc:format>
        <dc:type
           rdf:resource="http://purl.org/dc/dcmitype/StillImage" />
        <dc:title />
      </cc:Work>
    </rdf:RDF>
  </metadata>
  <defs
     id="defs27" />
  <sodipodi:namedview
     inkscape:document-rotation="0"
     inkscape:guide-bbox="true"
     showguides="true"
     inkscape:current-layer="svg23"
     inkscape:window-maximized="1"
     inkscape:window-y="0"
     inkscape:window-x="0"
     inkscape:cy="71.174399"
     inkscape:cx="-21.032173"
     inkscape:zoom="4"
     showgrid="false"
     id="namedview25"
     inkscape:window-height="1020"
     inkscape:window-width="1920"
     inkscape:pageshadow="2"
     inkscape:pageopacity="0"
     guidetolerance="10"
     gridtolerance="10"
     objecttolerance="10"
     borderopacity="1"
     bordercolor="#666666"
     pagecolor="#ffffff" />
  <g
     transform="matrix(0.75228106,0,0,-0.75228106,29.289993,63.698029)"
     id="text912"
     style="font-style:normal;font-weight:normal;font-size:40px;line-height:1.25;font-family:sans-serif;letter-spacing:0px;word-spacing:0px;fill:#000000;fill-opacity:1;stroke:none"
     aria-label="♦">
    <path
       sodipodi:nodetypes="ccccc"
       inkscape:connector-curvature="0"
       id="path914"
       d="M -13.070313,-23.640625 -1.8984375,-8.9726563 -13.070313,5.5 C -13.226563,5.3958333 -16.963542,0.57161457 -24.28125,-8.9726563 Z" />
  </g>
  <g
     transform="matrix(0.75228106,0,0,-0.75228106,70.166324,63.698029)"
     id="text912-1"
     style="font-style:normal;font-weight:normal;font-size:40px;line-height:1.25;font-family:sans-serif;letter-spacing:0px;word-spacing:0px;fill:#000000;fill-opacity:1;stroke:none"
     aria-label="♦">
    <path
       sodipodi:nodetypes="ccccc"
       inkscape:connector-curvature="0"
       id="path914-0"
       d="M -13.070313,-23.640625 -1.8984375,-8.9726563 -13.070313,5.5 C -13.226563,5.3958333 -16.963542,0.57161457 -24.28125,-8.9726563 Z" />
  </g>
  <g
     transform="matrix(0.75228106,0,0,-0.75228106,49.728159,63.698029)"
     id="text912-1-4"
     style="font-style:normal;font-weight:normal;font-size:40px;line-height:1.25;font-family:sans-serif;letter-spacing:0px;word-spacing:0px;fill:#000000;fill-opacity:1;stroke:none"
     aria-label="♦">
    <path
       sodipodi:nodetypes="ccccc"
       inkscape:connector-curvature="0"
       id="path914-0-8"
       d="M -13.070313,-23.640625 -1.8984375,-8.9726563 -13.070313,5.5 C -13.226563,5.3958333 -16.963542,0.57161457 -24.28125,-8.9726563 Z" />
  </g>
  <g
     transform="matrix(0.75228106,0,0,-0.75228106,92.40449,63.698029)"
     id="text912-1-9"
     style="font-style:normal;font-weight:normal;font-size:40px;line-height:1.25;font-family:sans-serif;letter-spacing:0px;word-spacing:0px;fill:#000000;fill-opacity:1;stroke:none"
     aria-label="♦">
    <path
       sodipodi:nodetypes="ccccc"
       inkscape:connector-curvature="0"
       id="path914-0-28"
       d="M -13.070313,-23.640625 -1.8984375,-8.9726563 -13.070313,5.5 C -13.226563,5.3958333 -16.963542,0.57161457 -24.28125,-8.9726563 Z" />
  </g>
  <g
     transform="matrix(0.75228106,0,0,-0.75228106,29.289993,36.376089)"
     id="text912-9"
     style="font-style:normal;font-weight:normal;font-size:40px;line-height:1.25;font-family:sans-serif;letter-spacing:0px;word-spacing:0px;fill:#000000;fill-opacity:1;stroke:none"
     aria-label="♦">
    <path
       sodipodi:nodetypes="ccccc"
       inkscape:connector-curvature="0"
       id="path914-2"
       d="M -13.070313,-23.640625 -1.8984375,-8.9726563 -13.070313,5.5 C -13.226563,5.3958333 -16.963542,0.57161457 -24.28125,-8.9726563 Z" />
  </g>
  <g
     transform="matrix(0.75228106,0,0,-0.75228106,70.166324,36.376089)"
     id="text912-1-5"
     style="font-style:normal;font-weight:normal;font-size:40px;line-height:1.25;font-family:sans-serif;letter-spacing:0px;word-spacing:0px;fill:#000000;fill-opacity:1;stroke:none"
     aria-label="♦">
    <path
       sodipodi:nodetypes="ccccc"
       inkscape:connector-curvature="0"
       id="path914-0-7"
       d="M -13.070313,-23.640625 -1.8984375,-8.9726563 -13.070313,5.5 C -13.226563,5.3958333 -16.963542,0.57161457 -24.28125,-8.9726563 Z" />
  </g>
  <g
     transform="matrix(0.75228106,0,0,-0.75228106,49.728159,36.376089)"
     id="text912-1-4-4"
     style="font-style:normal;font-weight:normal;font-size:40px;line-height:1.25;font-family:sans-serif;letter-spacing:0px;word-spacing:0px;fill:#000000;fill-opacity:1;stroke:none"
     aria-label="♦">
    <path
       sodipodi:nodetypes="ccccc"
       inkscape:connector-curvature="0"
       id="path914-0-8-9"
       d="M -13.070313,-23.640625 -1.8984375,-8.9726563 -13.070313,5.5 C -13.226563,5.3958333 -16.963542,0.57161457 -24.28125,-8.9726563 Z" />
  </g>
  <g
     transform="matrix(0.75228106,0,0,-0.75228106,92.40449,36.376089)"
     id="text912-1-9-9"
     style="font-style:normal;font-weight:normal;font-size:40px;line-height:1.25;font-family:sans-serif;letter-spacing:0px;word-spacing:0px;fill:#000000;fill-opacity:1;stroke:none"
     aria-label="♦">
    <path
       sodipodi:nodetypes="ccccc"
       inkscape:connector-curvature="0"
       id="path914-0-28-4"
       d="M -13.070313,-23.640625 -1.8984375,-8.9726563 -13.070313,5.5 C -13.226563,5.3958333 -16.963542,0.57161457 -24.28125,-8.9726563 Z" />
  </g>
  <g
     transform="matrix(0.75228106,0,0,-0.75228106,70.166324,11.176089)"
     id="text912-1-5-9"
     style="font-style:normal;font-weight:normal;font-size:40px;line-height:1.25;font-family:sans-serif;letter-spacing:0px;word-spacing:0px;fill:#000000;fill-opacity:1;stroke:none"
     aria-label="♦">
    <path
       sodipodi:nodetypes="ccccc"
       inkscape:connector-curvature="0"
       id="path914-0-7-9"
       d="M -13.070313,-23.640625 -1.8984375,-8.9726563 -13.070313,5.5 C -13.226563,5.3958333 -16.963542,0.57161457 -24.28125,-8.9726563 Z" />
  </g>
  <g
     transform="matrix(0.75228106,0,0,-0.75228106,49.728159,11.176089)"
     id="text912-1-4-4-7"
     style="font-style:normal;font-weight:normal;font-size:40px;line-height:1.25;font-family:sans-serif;letter-spacing:0px;word-spacing:0px;fill:#000000;fill-opacity:1;stroke:none"
     aria-label="♦">
    <path
       sodipodi:nodetypes="ccccc"
       inkscape:connector-curvature="0"
       id="path914-0-8-9-8"
       d="M -13.070313,-23.640625 -1.8984375,-8.9726563 -13.070313,5.5 C -13.226563,5.3958333 -16.963542,0.57161457 -24.28125,-8.9726563 Z" />
  </g>
</svg>
