<?xml version="1.0" encoding="UTF-8" standalone="no"?>
<svg
   xmlns:dc="http://purl.org/dc/elements/1.1/"
   xmlns:cc="http://creativecommons.org/ns#"
   xmlns:rdf="http://www.w3.org/1999/02/22-rdf-syntax-ns#"
   xmlns:svg="http://www.w3.org/2000/svg"
   xmlns="http://www.w3.org/2000/svg"
   xmlns:sodipodi="http://sodipodi.sourceforge.net/DTD/sodipodi-0.dtd"
   xmlns:inkscape="http://www.inkscape.org/namespaces/inkscape"
   viewBox="0 0 100 110"
   version="1.1"
   id="svg23"
   sodipodi:docname="eight.svg"
   inkscape:version="1.0 (4035a4fb49, 2020-05-01)">
  <metadata
     id="metadata29">
    <rdf:RDF>
      <cc:Work
         rdf:about="">
        <dc:format>image/svg+xml</dc:format>
        <dc:type
           rdf:resource="http://purl.org/dc/dcmitype/StillImage" />
        <dc:title />
      </cc:Work>
    </rdf:RDF>
  </metadata>
  <defs
     id="defs27">
    <inkscape:path-effect
       effect="bspline"
       id="path-effect871"
       is_visible="true"
       lpeversion="1"
       weight="33.333333"
       steps="2"
       helper_size="0"
       apply_no_weight="true"
       apply_with_weight="true"
       only_selected="false" />
    <inkscape:path-effect
       effect="mirror_symmetry"
       start_point="-244.07823,-80.156249"
       end_point="-244.07823,36.500002"
       center_point="-244.07823,-21.828124"
       id="path-effect866"
       is_visible="true"
       lpeversion="1"
       mode="free"
       discard_orig_path="false"
       fuse_paths="false"
       oposite_fuse="false"
       split_items="false" />
  </defs>
  <sodipodi:namedview
     pagecolor="#ffffff"
     bordercolor="#666666"
     borderopacity="1"
     objecttolerance="10"
     gridtolerance="10"
     guidetolerance="10"
     inkscape:pageopacity="0"
     inkscape:pageshadow="2"
     inkscape:window-width="1920"
     inkscape:window-height="1020"
     id="namedview25"
     showgrid="false"
     inkscape:zoom="4"
     inkscape:cx="33.591695"
     inkscape:cy="46.940291"
     inkscape:window-x="0"
     inkscape:window-y="0"
     inkscape:window-maximized="1"
     inkscape:current-layer="g931"
     showguides="true"
     inkscape:guide-bbox="true"
     inkscape:document-rotation="0"
     inkscape:snap-bbox="true"
     inkscape:bbox-paths="true"
     inkscape:bbox-nodes="true"
     inkscape:snap-bbox-edge-midpoints="true"
     inkscape:snap-bbox-midpoints="true" />
  <g
     aria-label="♥"
     style="font-style:normal;font-variant:normal;font-weight:normal;font-stretch:normal;font-size:16px;line-height:1;font-family:sans-serif;-inkscape-font-specification:'sans-serif, Normal';font-variant-ligatures:normal;font-variant-position:normal;font-variant-caps:normal;font-variant-numeric:normal;font-variant-alternates:normal;text-indent:0;text-align:center;text-decoration:none;text-decoration-line:none;text-decoration-style:solid;text-decoration-color:#000000;letter-spacing:0px;word-spacing:0px;text-transform:none;writing-mode:lr-tb;direction:ltr;text-orientation:mixed;dominant-baseline:auto;baseline-shift:baseline;text-anchor:middle;white-space:normal;shape-padding:0;vector-effect:none;fill:#000000;fill-opacity:1;stroke:none;stroke-width:2.03842;stroke-linecap:butt;stroke-linejoin:miter;stroke-miterlimit:4;stroke-dasharray:none;stroke-dashoffset:0;stroke-opacity:1"
     id="text1423"
     transform="matrix(0.25997529,0,0,-0.49057632,49.542508,34.31306)" />
  <g
     id="g931"
     transform="matrix(1.5300966,0,0,1.5300966,-29.255264,-35.968104)">
    <path
       id="rect873-7"
       style="fill:#000000;fill-rule:evenodd;stroke-width:1.3892;stroke-linecap:round;stroke-linejoin:round;stroke-miterlimit:4;stroke-dasharray:none;paint-order:fill markers stroke"
       d="m 31.654687,35.769006 c -0.07344,-0.0019 -0.148004,0.0032 -0.223436,0.01552 -2.413773,0.39736 -4.284598,2.268187 -4.681958,4.681959 -0.213394,1.296271 1.752659,2.298205 3.619749,2.951217 -1.86709,0.653012 -3.833145,1.654946 -3.619749,2.951217 0.397359,2.413771 2.268185,4.284598 4.681958,4.681959 1.29627,0.213394 2.298206,-1.752661 2.951217,-3.619752 0.653011,1.867091 1.654502,3.833146 2.950773,3.619752 2.413771,-0.397362 4.285044,-2.268189 4.682403,-4.681961 0.213388,-1.296233 -1.752708,-2.298203 -3.619752,-2.951219 1.867044,-0.65301 3.83314,-1.654982 3.619752,-2.951216 -0.397363,-2.413771 -2.268632,-4.284598 -4.682403,-4.681957 -1.296271,-0.213395 -2.297762,1.75266 -2.950773,3.619751 -0.615013,-1.758445 -1.539029,-3.604524 -2.727781,-3.635268 z" />
    <path
       d="m 66.484866,35.769006 c -0.07346,-0.0019 -0.148005,0.0032 -0.223437,0.01552 -2.413772,0.39736 -4.284596,2.268187 -4.681959,4.681959 -0.213393,1.296271 1.752661,2.298205 3.619752,2.951217 -1.867091,0.653012 -3.833145,1.654946 -3.619752,2.951217 0.39736,2.413771 2.268187,4.284598 4.681959,4.681959 1.296272,0.213394 2.298206,-1.752661 2.951219,-3.619752 0.653011,1.867091 1.654501,3.833146 2.950771,3.619752 2.413773,-0.397362 4.285047,-2.268189 4.682404,-4.681961 0.213387,-1.296233 -1.75271,-2.298203 -3.619752,-2.951219 1.867042,-0.65301 3.833139,-1.654982 3.619752,-2.951216 -0.397362,-2.413771 -2.268631,-4.284598 -4.682404,-4.681957 -1.29627,-0.213395 -2.29776,1.75266 -2.950771,3.619751 -0.615014,-1.758445 -1.539029,-3.604524 -2.727782,-3.635268 z"
       style="fill:#000000;fill-rule:evenodd;stroke-width:1.3892;stroke-linecap:round;stroke-linejoin:round;stroke-miterlimit:4;stroke-dasharray:none;paint-order:fill markers stroke"
       id="rect873-7-0" />
    <path
       d="m 31.654687,52.973411 c -0.07344,-0.0019 -0.148004,0.0032 -0.223436,0.01552 -2.413773,0.39736 -4.284598,2.268187 -4.681958,4.681959 -0.213394,1.296271 1.752659,2.298205 3.619749,2.951218 -1.86709,0.653011 -3.833145,1.654945 -3.619749,2.951216 0.397359,2.413771 2.268185,4.284598 4.681958,4.681959 1.29627,0.213394 2.298206,-1.752661 2.951217,-3.619752 0.653011,1.867091 1.654502,3.833146 2.950773,3.619752 2.413771,-0.397362 4.285044,-2.268188 4.682403,-4.681961 0.213388,-1.296232 -1.752708,-2.298203 -3.619752,-2.951218 1.867044,-0.653011 3.83314,-1.654983 3.619752,-2.951215 -0.397363,-2.413772 -2.268632,-4.284599 -4.682403,-4.681959 -1.296271,-0.213395 -2.297762,1.75266 -2.950773,3.619751 -0.615013,-1.758445 -1.539029,-3.604524 -2.727781,-3.635268 z"
       style="fill:#000000;fill-rule:evenodd;stroke-width:1.3892;stroke-linecap:round;stroke-linejoin:round;stroke-miterlimit:4;stroke-dasharray:none;paint-order:fill markers stroke"
       id="rect873-7-9" />
    <path
       id="rect873-7-0-3"
       style="fill:#000000;fill-rule:evenodd;stroke-width:1.3892;stroke-linecap:round;stroke-linejoin:round;stroke-miterlimit:4;stroke-dasharray:none;paint-order:fill markers stroke"
       d="m 66.484866,52.973411 c -0.07346,-0.0019 -0.148005,0.0032 -0.223437,0.01552 -2.413772,0.39736 -4.284596,2.268187 -4.681959,4.681959 -0.213393,1.296271 1.752661,2.298205 3.619752,2.951218 -1.867091,0.653011 -3.833145,1.654945 -3.619752,2.951216 0.39736,2.413771 2.268187,4.284598 4.681959,4.681959 1.296272,0.213394 2.298206,-1.752661 2.951219,-3.619752 0.653011,1.867091 1.654501,3.833146 2.950771,3.619752 2.413773,-0.397362 4.285047,-2.268188 4.682404,-4.681961 0.213387,-1.296232 -1.75271,-2.298203 -3.619752,-2.951218 1.867042,-0.653011 3.833139,-1.654983 3.619752,-2.951215 -0.397362,-2.413772 -2.268631,-4.284599 -4.682404,-4.681959 -1.29627,-0.213395 -2.29776,1.75266 -2.950771,3.619751 -0.615014,-1.758445 -1.539029,-3.604524 -2.727782,-3.635268 z" />
    <path
       id="rect873-7-9-6"
       style="fill:#000000;fill-rule:evenodd;stroke-width:1.3892;stroke-linecap:round;stroke-linejoin:round;stroke-miterlimit:4;stroke-dasharray:none;paint-order:fill markers stroke"
       d="m 49.069777,29.236824 c -0.07346,-0.0019 -0.148005,0.0032 -0.223436,0.01553 -2.413773,0.397359 -4.284598,2.268186 -4.681959,4.681959 -0.213394,1.29627 1.75266,2.298205 3.61975,2.951218 -1.86709,0.65301 -3.833145,1.654945 -3.61975,2.951216 0.39736,2.413771 2.268186,4.284598 4.681959,4.681958 1.29627,0.213394 2.298205,-1.752661 2.951217,-3.619752 0.653011,1.867091 1.654502,3.833146 2.950773,3.619752 2.413771,-0.397362 4.285044,-2.268187 4.682403,-4.681961 0.213388,-1.296232 -1.752708,-2.298203 -3.619752,-2.951218 1.867044,-0.653011 3.83314,-1.654982 3.619752,-2.951215 -0.397363,-2.413772 -2.268632,-4.284599 -4.682403,-4.681958 -1.296271,-0.213396 -2.297762,1.752659 -2.950773,3.61975 -0.615013,-1.758444 -1.539029,-3.604523 -2.727781,-3.635267 z" />
    <path
       d="m 39.920028,69.75714 c -0.07346,-0.0019 -0.148005,0.0032 -0.223436,0.01552 -2.413773,0.39736 -4.284598,2.268186 -4.681959,4.681959 -0.213394,1.296271 1.75266,2.298205 3.61975,2.951219 -1.86709,0.653009 -3.833145,1.654944 -3.61975,2.951216 0.39736,2.41377 2.268186,4.284597 4.681959,4.681958 1.29627,0.213394 2.298205,-1.752662 2.951217,-3.619753 0.653011,1.867091 1.654502,3.833147 2.950773,3.619753 2.413771,-0.397363 4.285044,-2.268188 4.682403,-4.681962 0.213388,-1.296232 -1.752708,-2.298203 -3.619752,-2.951218 1.867044,-0.653011 3.83314,-1.654982 3.619752,-2.951215 -0.397363,-2.413772 -2.268632,-4.284599 -4.682403,-4.681958 -1.296271,-0.213396 -2.297762,1.752659 -2.950773,3.61975 -0.615013,-1.758444 -1.539029,-3.604523 -2.727781,-3.635267 z"
       style="fill:#000000;fill-rule:evenodd;stroke-width:1.3892;stroke-linecap:round;stroke-linejoin:round;stroke-miterlimit:4;stroke-dasharray:none;paint-order:fill markers stroke"
       id="rect873-7-9-6-0" />
    <path
       id="rect873-7-9-6-0-6"
       style="fill:#000000;fill-rule:evenodd;stroke-width:1.3892;stroke-linecap:round;stroke-linejoin:round;stroke-miterlimit:4;stroke-dasharray:none;paint-order:fill markers stroke"
       d="m 49.069777,48.241548 c -0.07346,-0.0019 -0.148005,0.0032 -0.223436,0.01552 -2.413773,0.39736 -4.284598,2.268186 -4.681959,4.681959 -0.213394,1.296271 1.75266,2.298205 3.61975,2.951219 -1.86709,0.653009 -3.833145,1.654945 -3.61975,2.951216 0.39736,2.41377 2.268186,4.284597 4.681959,4.681958 1.29627,0.213394 2.298205,-1.752662 2.951217,-3.619753 0.653011,1.867091 1.654502,3.833147 2.950773,3.619753 2.413771,-0.397363 4.285044,-2.268188 4.682403,-4.681962 0.213388,-1.296231 -1.752708,-2.298203 -3.619752,-2.951218 1.867044,-0.653011 3.83314,-1.654982 3.619752,-2.951215 -0.397363,-2.413772 -2.268632,-4.284599 -4.682403,-4.681958 -1.296271,-0.213396 -2.297762,1.752659 -2.950773,3.61975 -0.615013,-1.758444 -1.539029,-3.604523 -2.727781,-3.635267 z" />
    <path
       id="rect873-7-9-6-0-2"
       style="fill:#000000;fill-rule:evenodd;stroke-width:1.3892;stroke-linecap:round;stroke-linejoin:round;stroke-miterlimit:4;stroke-dasharray:none;paint-order:fill markers stroke"
       d="m 58.219526,69.75714 c -0.07346,-0.0019 -0.148005,0.0032 -0.223436,0.01552 -2.413773,0.39736 -4.284598,2.268186 -4.681959,4.681959 -0.213394,1.296271 1.75266,2.298205 3.61975,2.951219 -1.86709,0.653009 -3.833145,1.654945 -3.61975,2.951216 0.39736,2.41377 2.268186,4.284597 4.681959,4.681958 1.29627,0.213394 2.298205,-1.752662 2.951217,-3.619753 0.653011,1.867091 1.654502,3.833147 2.950773,3.619753 2.413771,-0.397363 4.285044,-2.268188 4.682403,-4.681962 0.213388,-1.296231 -1.752708,-2.298203 -3.619752,-2.951218 1.867044,-0.653011 3.83314,-1.654982 3.619752,-2.951215 -0.397363,-2.413772 -2.268632,-4.284599 -4.682403,-4.681958 -1.296271,-0.213396 -2.297762,1.752659 -2.950773,3.61975 -0.615013,-1.758444 -1.539029,-3.604523 -2.727781,-3.635267 z" />
  </g>
</svg>
