<?xml version="1.0" encoding="UTF-8" standalone="no"?>
<svg
   xmlns:dc="http://purl.org/dc/elements/1.1/"
   xmlns:cc="http://creativecommons.org/ns#"
   xmlns:rdf="http://www.w3.org/1999/02/22-rdf-syntax-ns#"
   xmlns:svg="http://www.w3.org/2000/svg"
   xmlns="http://www.w3.org/2000/svg"
   xmlns:sodipodi="http://sodipodi.sourceforge.net/DTD/sodipodi-0.dtd"
   xmlns:inkscape="http://www.inkscape.org/namespaces/inkscape"
   viewBox="0 0 100 110"
   version="1.1"
   id="svg23"
   sodipodi:docname="four.svg"
   inkscape:version="1.0 (4035a4fb49, 2020-05-01)">
  <metadata
     id="metadata29">
    <rdf:RDF>
      <cc:Work
         rdf:about="">
        <dc:format>image/svg+xml</dc:format>
        <dc:type
           rdf:resource="http://purl.org/dc/dcmitype/StillImage" />
        <dc:title />
      </cc:Work>
    </rdf:RDF>
  </metadata>
  <defs
     id="defs27">
    <inkscape:path-effect
       effect="bspline"
       id="path-effect871"
       is_visible="true"
       lpeversion="1"
       weight="33.333333"
       steps="2"
       helper_size="0"
       apply_no_weight="true"
       apply_with_weight="true"
       only_selected="false" />
    <inkscape:path-effect
       effect="mirror_symmetry"
       start_point="-244.07823,-80.156249"
       end_point="-244.07823,36.500002"
       center_point="-244.07823,-21.828124"
       id="path-effect866"
       is_visible="true"
       lpeversion="1"
       mode="free"
       discard_orig_path="false"
       fuse_paths="false"
       oposite_fuse="false"
       split_items="false" />
  </defs>
  <sodipodi:namedview
     pagecolor="#ffffff"
     bordercolor="#666666"
     borderopacity="1"
     objecttolerance="10"
     gridtolerance="10"
     guidetolerance="10"
     inkscape:pageopacity="0"
     inkscape:pageshadow="2"
     inkscape:window-width="1920"
     inkscape:window-height="1020"
     id="namedview25"
     showgrid="false"
     inkscape:zoom="5.6568542"
     inkscape:cx="35.722783"
     inkscape:cy="40.686341"
     inkscape:window-x="0"
     inkscape:window-y="0"
     inkscape:window-maximized="1"
     inkscape:current-layer="g931"
     showguides="true"
     inkscape:guide-bbox="true"
     inkscape:document-rotation="0"
     inkscape:snap-bbox="true"
     inkscape:bbox-paths="true"
     inkscape:bbox-nodes="true"
     inkscape:snap-bbox-edge-midpoints="true"
     inkscape:snap-bbox-midpoints="true" />
  <g
     aria-label="♥"
     style="font-style:normal;font-variant:normal;font-weight:normal;font-stretch:normal;font-size:16px;line-height:1;font-family:sans-serif;-inkscape-font-specification:'sans-serif, Normal';font-variant-ligatures:normal;font-variant-position:normal;font-variant-caps:normal;font-variant-numeric:normal;font-variant-alternates:normal;text-indent:0;text-align:center;text-decoration:none;text-decoration-line:none;text-decoration-style:solid;text-decoration-color:#000000;letter-spacing:0px;word-spacing:0px;text-transform:none;writing-mode:lr-tb;direction:ltr;text-orientation:mixed;dominant-baseline:auto;baseline-shift:baseline;text-anchor:middle;white-space:normal;shape-padding:0;vector-effect:none;fill:#000000;fill-opacity:1;stroke:none;stroke-width:2.03842;stroke-linecap:butt;stroke-linejoin:miter;stroke-miterlimit:4;stroke-dasharray:none;stroke-dashoffset:0;stroke-opacity:1"
     id="text1423"
     transform="matrix(0.25997529,0,0,-0.49057632,49.542508,34.31306)" />
  <g
     id="g931"
     transform="matrix(1.5300966,0,0,1.5300966,-29.255264,-35.968104)">
    <g
       transform="translate(1.3214572)"
       id="g849">
      <path
         d="m 31.809295,28.072733 c -0.107457,-0.0028 -0.216538,0.0046 -0.326897,0.02271 -3.531458,0.581356 -6.268558,3.31846 -6.849917,6.849917 -0.312205,1.896503 2.564221,3.362379 5.295859,4.317764 -2.731638,0.955386 -5.608065,2.421262 -5.295859,4.317764 0.581356,3.531457 3.318459,6.268561 6.849917,6.849917 1.896502,0.312206 3.362379,-2.564221 4.317764,-5.29586 0.955385,2.731639 2.420612,5.608066 4.317115,5.29586 3.531457,-0.581358 6.269213,-3.318462 6.850566,-6.84992 0.312197,-1.896447 -2.564291,-3.362375 -5.29586,-4.317764 2.731569,-0.955386 5.608057,-2.421315 5.29586,-4.317763 -0.581359,-3.531457 -3.319109,-6.268561 -6.850566,-6.849916 -1.896503,-0.312207 -3.36173,2.56422 -4.317115,5.295859 -0.899792,-2.572684 -2.251668,-5.273581 -3.990867,-5.31856 z"
         style="fill:#000000;fill-rule:evenodd;stroke-width:2.03248;stroke-linecap:round;stroke-linejoin:round;stroke-miterlimit:4;stroke-dasharray:none;paint-order:fill markers stroke"
         id="rect873-7" />
      <path
         id="rect873-7-0"
         style="fill:#000000;fill-rule:evenodd;stroke-width:2.03248;stroke-linecap:round;stroke-linejoin:round;stroke-miterlimit:4;stroke-dasharray:none;paint-order:fill markers stroke"
         d="m 61.161175,28.072733 c -0.107458,-0.0028 -0.216539,0.0046 -0.326897,0.02271 -3.531458,0.581356 -6.268558,3.31846 -6.849919,6.849918 -0.312203,1.896502 2.564223,3.362378 5.295861,4.317763 -2.731638,0.955386 -5.608065,2.421262 -5.295861,4.317764 0.581356,3.531457 3.318461,6.268561 6.849919,6.849917 1.896502,0.312206 3.362378,-2.564221 4.317764,-5.29586 0.955385,2.731639 2.420612,5.608066 4.317114,5.29586 3.531458,-0.581358 6.269215,-3.318462 6.850566,-6.84992 0.312196,-1.896447 -2.564293,-3.362375 -5.29586,-4.317764 2.731567,-0.955386 5.608056,-2.421315 5.29586,-4.317763 -0.581358,-3.531457 -3.319108,-6.268561 -6.850566,-6.849916 -1.896502,-0.312207 -3.361729,2.56422 -4.317114,5.295859 -0.899792,-2.572684 -2.251668,-5.273581 -3.990867,-5.31856 z" />
      <path
         id="rect873-7-9"
         style="fill:#000000;fill-rule:evenodd;stroke-width:2.03248;stroke-linecap:round;stroke-linejoin:round;stroke-miterlimit:4;stroke-dasharray:none;paint-order:fill markers stroke"
         d="m 31.809295,53.586299 c -0.107457,-0.0028 -0.216538,0.0046 -0.326897,0.02271 -3.531458,0.581356 -6.268558,3.31846 -6.849917,6.849918 -0.312205,1.896503 2.564221,3.362378 5.295859,4.317764 -2.731638,0.955386 -5.608065,2.421261 -5.295859,4.317764 0.581356,3.531457 3.318459,6.26856 6.849917,6.849916 1.896502,0.312206 3.362379,-2.564221 4.317764,-5.29586 0.955385,2.731639 2.420612,5.608066 4.317115,5.29586 3.531457,-0.581358 6.269213,-3.318461 6.850566,-6.84992 0.312197,-1.896447 -2.564291,-3.362374 -5.29586,-4.317764 2.731569,-0.955386 5.608057,-2.421315 5.29586,-4.317762 -0.581359,-3.531458 -3.319109,-6.268562 -6.850566,-6.849917 -1.896503,-0.312207 -3.36173,2.56422 -4.317115,5.295859 -0.899792,-2.572684 -2.251668,-5.273581 -3.990867,-5.31856 z" />
      <path
         d="m 61.161175,53.586299 c -0.107458,-0.0028 -0.216539,0.0046 -0.326897,0.02271 -3.531458,0.581356 -6.268558,3.31846 -6.849919,6.849918 -0.312203,1.896503 2.564223,3.362378 5.295861,4.317764 -2.731638,0.955386 -5.608065,2.421261 -5.295861,4.317764 0.581356,3.531457 3.318461,6.26856 6.849919,6.849916 1.896502,0.312206 3.362378,-2.564221 4.317764,-5.29586 0.955385,2.731639 2.420612,5.608066 4.317114,5.29586 3.531458,-0.581358 6.269215,-3.318461 6.850566,-6.84992 0.312196,-1.896447 -2.564293,-3.362374 -5.29586,-4.317764 2.731567,-0.955386 5.608056,-2.421315 5.29586,-4.317762 -0.581358,-3.531458 -3.319108,-6.268562 -6.850566,-6.849917 -1.896502,-0.312207 -3.361729,2.56422 -4.317114,5.295859 -0.899792,-2.572684 -2.251668,-5.273581 -3.990867,-5.31856 z"
         style="fill:#000000;fill-rule:evenodd;stroke-width:2.03248;stroke-linecap:round;stroke-linejoin:round;stroke-miterlimit:4;stroke-dasharray:none;paint-order:fill markers stroke"
         id="rect873-7-0-3" />
    </g>
  </g>
</svg>
