<?xml version="1.0" encoding="UTF-8" standalone="no"?>
<svg
   xmlns:dc="http://purl.org/dc/elements/1.1/"
   xmlns:cc="http://creativecommons.org/ns#"
   xmlns:rdf="http://www.w3.org/1999/02/22-rdf-syntax-ns#"
   xmlns:svg="http://www.w3.org/2000/svg"
   xmlns="http://www.w3.org/2000/svg"
   xmlns:sodipodi="http://sodipodi.sourceforge.net/DTD/sodipodi-0.dtd"
   xmlns:inkscape="http://www.inkscape.org/namespaces/inkscape"
   inkscape:version="1.0 (4035a4fb49, 2020-05-01)"
   sodipodi:docname="nine.svg"
   id="svg23"
   version="1.1"
   viewBox="0 0 100 110">
  <metadata
     id="metadata29">
    <rdf:RDF>
      <cc:Work
         rdf:about="">
        <dc:format>image/svg+xml</dc:format>
        <dc:type
           rdf:resource="http://purl.org/dc/dcmitype/StillImage" />
        <dc:title></dc:title>
      </cc:Work>
    </rdf:RDF>
  </metadata>
  <defs
     id="defs27">
    <inkscape:path-effect
       only_selected="false"
       apply_with_weight="true"
       apply_no_weight="true"
       helper_size="0"
       steps="2"
       weight="33.333333"
       lpeversion="1"
       is_visible="true"
       id="path-effect871"
       effect="bspline" />
    <inkscape:path-effect
       split_items="false"
       oposite_fuse="false"
       fuse_paths="false"
       discard_orig_path="false"
       mode="free"
       lpeversion="1"
       is_visible="true"
       id="path-effect866"
       center_point="-244.07823,-21.828124"
       end_point="-244.07823,36.500002"
       start_point="-244.07823,-80.156249"
       effect="mirror_symmetry" />
  </defs>
  <sodipodi:namedview
     inkscape:snap-bbox-midpoints="true"
     inkscape:snap-bbox-edge-midpoints="true"
     inkscape:bbox-nodes="true"
     inkscape:bbox-paths="true"
     inkscape:snap-bbox="true"
     inkscape:document-rotation="0"
     inkscape:guide-bbox="true"
     showguides="true"
     inkscape:current-layer="svg23"
     inkscape:window-maximized="1"
     inkscape:window-y="0"
     inkscape:window-x="0"
     inkscape:cy="39.937083"
     inkscape:cx="36.840274"
     inkscape:zoom="5.6568543"
     showgrid="false"
     id="namedview25"
     inkscape:window-height="1020"
     inkscape:window-width="1920"
     inkscape:pageshadow="2"
     inkscape:pageopacity="0"
     guidetolerance="10"
     gridtolerance="10"
     objecttolerance="10"
     borderopacity="1"
     bordercolor="#666666"
     pagecolor="#ffffff" />
  <g
     transform="matrix(0.25997529,0,0,-0.49057632,49.542508,34.31306)"
     id="text1423"
     style="font-style:normal;font-variant:normal;font-weight:normal;font-stretch:normal;font-size:16px;line-height:1;font-family:sans-serif;-inkscape-font-specification:'sans-serif, Normal';font-variant-ligatures:normal;font-variant-position:normal;font-variant-caps:normal;font-variant-numeric:normal;font-variant-alternates:normal;text-indent:0;text-align:center;text-decoration:none;text-decoration-line:none;text-decoration-style:solid;text-decoration-color:#000000;letter-spacing:0px;word-spacing:0px;text-transform:none;writing-mode:lr-tb;direction:ltr;text-orientation:mixed;dominant-baseline:auto;baseline-shift:baseline;text-anchor:middle;white-space:normal;shape-padding:0;vector-effect:none;fill:#000000;fill-opacity:1;stroke:none;stroke-width:2.03842;stroke-linecap:butt;stroke-linejoin:miter;stroke-miterlimit:4;stroke-dasharray:none;stroke-dashoffset:0;stroke-opacity:1"
     aria-label="♥" />
  <g
     transform="matrix(0.75010782,0,0,0.75010782,14.011285,13.462435)"
     id="g1323">
    <path
       d="m 75.559622,18.76193 c 0.112371,-0.0029 0.226461,0.0049 0.341879,0.02375 3.693306,0.607999 6.555849,3.470545 7.163848,7.163849 0.326513,1.98342 -2.681738,3.516476 -5.538566,4.515647 2.856828,0.999172 5.865083,2.532227 5.538566,4.515647 -0.607998,3.693303 -3.470542,6.555849 -7.163848,7.16385 -1.983418,0.326513 -3.516477,-2.681741 -4.515647,-5.53857 -0.99917,2.856829 -2.531548,5.865083 -4.514968,5.53857 -3.693303,-0.608002 -6.556531,-3.470548 -7.164529,-7.163853 -0.326504,-1.983361 2.681813,-3.516472 5.538571,-4.51565 -2.856758,-0.999168 -5.865075,-2.532282 -5.538571,-4.515645 0.608004,-3.693303 3.471226,-6.555849 7.164529,-7.163847 1.98342,-0.326515 3.515798,2.681739 4.514968,5.538569 0.941029,-2.690591 2.354863,-5.51527 4.173768,-5.562311 z"
       style="fill:#000000;fill-rule:evenodd;stroke-width:2.12561;stroke-linecap:round;stroke-linejoin:round;stroke-miterlimit:4;stroke-dasharray:none;paint-order:fill markers stroke"
       id="rect873-7" />
    <path
       id="rect873-7-0"
       style="fill:#000000;fill-rule:evenodd;stroke-width:2.12561;stroke-linecap:round;stroke-linejoin:round;stroke-miterlimit:4;stroke-dasharray:none;paint-order:fill markers stroke"
       d="m 5.336224,-4.645871 c 0.1124,-0.0029 0.22646,0.0049 0.34188,0.02375 3.693307,0.607999 6.555849,3.470545 7.163853,7.163849 0.326512,1.98342 -2.681741,3.516476 -5.538573,4.515647 2.856832,0.999172 5.865085,2.532227 5.538573,4.515647 -0.608,3.693303 -3.470546,6.555849 -7.163853,7.16385 -1.98342,0.326513 -3.51647,-2.681741 -4.51565,-5.53857 -0.99917,2.856829 -2.53154,5.865083 -4.51496,5.53857 -3.693312,-0.608002 -6.556542,-3.470548 -7.164532,-7.163853 -0.32651,-1.983361 2.68181,-3.516472 5.53857,-4.51565 -2.85676,-0.999168 -5.86508,-2.532282 -5.53857,-4.515645 0.608,-3.693303 3.47122,-6.555849 7.164532,-7.163847 1.98342,-0.326515 3.51579,2.681739 4.51496,5.53856903 C 2.103484,-1.774145 3.517324,-4.598824 5.336224,-4.645865 Z" />
    <path
       id="rect873-7-9"
       style="fill:#000000;fill-rule:evenodd;stroke-width:2.12561;stroke-linecap:round;stroke-linejoin:round;stroke-miterlimit:4;stroke-dasharray:none;paint-order:fill markers stroke"
       d="m 98.967418,-4.6458708 c 0.112371,-0.0029 0.226461,0.0049 0.341879,0.02375 3.693303,0.607999 6.555853,3.470545 7.163853,7.16385 0.32651,1.98342 -2.68174,3.516475 -5.53857,4.515648 2.85683,0.99917 5.86508,2.532226 5.53857,4.5156458 -0.608,3.693303 -3.47055,6.555849 -7.163853,7.163849 -1.983418,0.326514 -3.516477,-2.68174 -4.515647,-5.53857 -0.99917,2.85683 -2.531548,5.865084 -4.514968,5.53857 -3.693303,-0.608002 -6.556531,-3.470546 -7.164529,-7.163852 -0.326504,-1.9833598 2.681813,-3.5164728 5.538571,-4.5156488 -2.856758,-0.99917 -5.865075,-2.532284 -5.538571,-4.515644 0.608004,-3.693304 3.471226,-6.55585 7.164529,-7.163849 1.98342,-0.326515 3.515798,2.681739 4.514968,5.53856797 0.941029,-2.69058997 2.354863,-5.51526997 4.173768,-5.56231097 z" />
    <path
       d="m 28.744025,65.577531 c 0.112401,-0.0029 0.226462,0.0049 0.34188,0.02375 3.693304,0.607999 6.555846,3.470545 7.16385,7.16385 0.326512,1.98342 -2.681741,3.516475 -5.538571,4.515648 2.85683,0.99917 5.865083,2.532226 5.538571,4.515646 -0.608,3.693303 -3.470546,6.555849 -7.16385,7.163849 -1.983421,0.326514 -3.516477,-2.68174 -4.51565,-5.53857 -0.99917,2.85683 -2.531546,5.865084 -4.514965,5.53857 -3.693306,-0.608002 -6.556536,-3.470546 -7.16453,-7.163852 -0.326503,-1.98336 2.681815,-3.516473 5.53857,-4.515649 -2.856755,-0.99917 -5.865073,-2.532284 -5.53857,-4.515644 0.608002,-3.693304 3.471224,-6.55585 7.16453,-7.163849 1.983419,-0.326515 3.515795,2.681739 4.514965,5.538568 0.941031,-2.69059 2.354863,-5.51527 4.17377,-5.562311 z"
       style="fill:#000000;fill-rule:evenodd;stroke-width:2.12561;stroke-linecap:round;stroke-linejoin:round;stroke-miterlimit:4;stroke-dasharray:none;paint-order:fill markers stroke"
       id="rect873-7-0-3" />
    <path
       d="m 28.744026,18.761919 c 0.112401,-0.0029 0.226462,0.0049 0.341879,0.02376 3.693306,0.607998 6.555849,3.470544 7.16385,7.16385 0.326513,1.983418 -2.68174,3.516476 -5.538568,4.515649 2.856828,0.999168 5.865083,2.532225 5.538568,4.515645 -0.608,3.693303 -3.470544,6.555849 -7.16385,7.163848 -1.983418,0.326514 -3.516476,-2.68174 -4.515647,-5.53857 -0.99917,2.85683 -2.531548,5.865084 -4.514968,5.53857 -3.693303,-0.608002 -6.556531,-3.470545 -7.164529,-7.163852 -0.326504,-1.983361 2.681813,-3.516473 5.538571,-4.515649 -2.856758,-0.99917 -5.865075,-2.532282 -5.538571,-4.515644 0.608004,-3.693304 3.471226,-6.55585 7.164529,-7.163848 1.98342,-0.326517 3.515798,2.681737 4.514968,5.538567 0.941029,-2.690589 2.354863,-5.515268 4.173768,-5.56231 z"
       style="fill:#000000;fill-rule:evenodd;stroke-width:2.12561;stroke-linecap:round;stroke-linejoin:round;stroke-miterlimit:4;stroke-dasharray:none;paint-order:fill markers stroke"
       id="rect873-7-9-6" />
    <path
       id="rect873-7-9-6-0"
       style="fill:#000000;fill-rule:evenodd;stroke-width:2.12561;stroke-linecap:round;stroke-linejoin:round;stroke-miterlimit:4;stroke-dasharray:none;paint-order:fill markers stroke"
       d="m 75.559622,65.577532 c 0.1124,-0.0029 0.226462,0.0049 0.341878,0.02375 3.693306,0.607999 6.555849,3.470544 7.16385,7.163849 0.326513,1.98342 -2.681739,3.516476 -5.538567,4.515651 2.856828,0.999166 5.865082,2.532224 5.538567,4.515645 -0.607999,3.693301 -3.470544,6.555847 -7.16385,7.163848 -1.983418,0.326514 -3.516475,-2.681742 -4.515647,-5.538572 -0.99917,2.85683 -2.531548,5.865086 -4.514968,5.538572 -3.693302,-0.608004 -6.556531,-3.470547 -7.164528,-7.163854 -0.326505,-1.98336 2.681812,-3.516473 5.53857,-4.515649 -2.856758,-0.99917 -5.865075,-2.532282 -5.53857,-4.515644 0.608003,-3.693304 3.471226,-6.55585 7.164528,-7.163848 1.98342,-0.326516 3.515798,2.681738 4.514968,5.538567 0.941029,-2.690589 2.354863,-5.515268 4.173769,-5.562309 z" />
    <path
       d="m 52.151824,42.169731 c 0.112401,-0.0029 0.226462,0.0049 0.341879,0.02375 3.693306,0.607999 6.555849,3.470543 7.16385,7.163849 0.326513,1.98342 -2.68174,3.516476 -5.538568,4.51565 2.856828,0.999167 5.865083,2.532226 5.538568,4.515646 -0.608,3.693301 -3.470544,6.555847 -7.16385,7.163848 -1.983418,0.326513 -3.516476,-2.681742 -4.515647,-5.538572 -0.99917,2.85683 -2.531548,5.865085 -4.514968,5.538572 -3.693303,-0.608004 -6.556531,-3.470547 -7.164529,-7.163854 -0.326504,-1.983359 2.681813,-3.516473 5.538571,-4.515649 -2.856758,-0.99917 -5.865075,-2.532282 -5.538571,-4.515644 0.608004,-3.693304 3.471226,-6.55585 7.164529,-7.163848 1.98342,-0.326516 3.515798,2.681738 4.514968,5.538567 0.941029,-2.690589 2.354863,-5.515268 4.173768,-5.562309 z"
       style="fill:#000000;fill-rule:evenodd;stroke-width:2.12561;stroke-linecap:round;stroke-linejoin:round;stroke-miterlimit:4;stroke-dasharray:none;paint-order:fill markers stroke"
       id="rect873-7-9-6-0-6" />
    <path
       d="m 98.967419,88.985333 c 0.112401,-0.0029 0.226462,0.0049 0.341879,0.02375 3.693302,0.607999 6.555852,3.470544 7.163852,7.163849 0.32651,1.98342 -2.68174,3.516476 -5.53857,4.515648 2.85683,0.99917 5.86508,2.53223 5.53857,4.51564 -0.608,3.6933 -3.47055,6.55585 -7.163852,7.16385 -1.983419,0.32651 -3.516476,-2.68174 -4.515648,-5.53857 -0.999169,2.85683 -2.531547,5.86508 -4.514967,5.53857 -3.693303,-0.608 -6.556532,-3.47055 -7.164529,-7.16385 -0.326504,-1.98336 2.681812,-3.51647 5.53857,-4.51565 -2.856758,-0.999167 -5.865074,-2.532279 -5.53857,-4.515641 0.608004,-3.693304 3.471226,-6.55585 7.164529,-7.163848 1.98342,-0.326516 3.515798,2.681738 4.514967,5.538567 0.94103,-2.690589 2.354864,-5.515268 4.173769,-5.562309 z"
       style="fill:#000000;fill-rule:evenodd;stroke-width:2.12561;stroke-linecap:round;stroke-linejoin:round;stroke-miterlimit:4;stroke-dasharray:none;paint-order:fill markers stroke"
       id="rect873-7-9-6-0-2" />
    <path
       id="rect873-7-9-6-0-2-8"
       style="fill:#000000;fill-rule:evenodd;stroke-width:2.12561;stroke-linecap:round;stroke-linejoin:round;stroke-miterlimit:4;stroke-dasharray:none;paint-order:fill markers stroke"
       d="m 5.336227,88.985332 c 0.1124,-0.0029 0.22646,0.0049 0.34188,0.02375 3.6933,0.607999 6.55585,3.470544 7.16385,7.163849 0.32651,1.98342 -2.68174,3.516476 -5.53857,4.515649 2.85683,0.99917 5.86508,2.53223 5.53857,4.51565 -0.608,3.6933 -3.47055,6.55584 -7.16385,7.16384 -1.98342,0.32652 -3.51648,-2.68174 -4.51565,-5.53857 -0.99917,2.85683 -2.53155,5.86509 -4.51497,5.53857 -3.693295,-0.608 -6.556535,-3.47054 -7.164535,-7.16385 -0.3265,-1.98336 2.68182,-3.51647 5.53857,-4.51565 -2.85675,-0.999168 -5.86507,-2.53228 -5.53857,-4.515642 0.60801,-3.693304 3.47124,-6.55585 7.164535,-7.163848 1.98342,-0.326516 3.5158,2.681738 4.51497,5.538567 0.94103,-2.690589 2.35486,-5.515268 4.17377,-5.562309 z" />
  </g>
</svg>
