<?xml version="1.0" encoding="UTF-8"?>
<svg version="1.1" viewBox="0 0 100 110" xmlns="http://www.w3.org/2000/svg" xmlns:cc="http://creativecommons.org/ns#" xmlns:dc="http://purl.org/dc/elements/1.1/" xmlns:rdf="http://www.w3.org/1999/02/22-rdf-syntax-ns#" xmlns:xlink="http://www.w3.org/1999/xlink">
 <metadata>
  <rdf:RDF>
   <cc:Work rdf:about="">
    <dc:format>image/svg+xml</dc:format>
    <dc:type rdf:resource="http://purl.org/dc/dcmitype/StillImage"/>
    <dc:title/>
   </cc:Work>
  </rdf:RDF>
 </metadata>
 <g id="g6" transform="matrix(.5074 0 0 .5074 -7.231 -10.47)">
  <path d="m43.94 32.68c-0.2115-0.0055-0.4262 0.0089-0.6433 0.04468-6.95 1.144-12.34 6.531-13.48 13.48-0.6144 3.732 5.046 6.617 10.42 8.497-5.376 1.88-11.04 4.765-10.42 8.497 1.144 6.95 6.531 12.34 13.48 13.48 3.732 0.6144 6.617-5.046 8.497-10.42 1.88 5.376 4.764 11.04 8.496 10.42 6.95-1.144 12.34-6.531 13.48-13.48 0.6144-3.732-5.047-6.617-10.42-8.497 5.376-1.88 11.04-4.765 10.42-8.497-1.144-6.95-6.532-12.34-13.48-13.48-3.732-0.6144-6.616 5.046-8.496 10.42-1.771-5.063-4.431-10.38-7.854-10.47z" fill-rule="evenodd" stroke-linecap="round" stroke-linejoin="round" stroke-width="4" style="paint-order:fill markers stroke"/>
 </g>
 <use id="use855" transform="translate(26.5 35.79)" width="100%" height="100%" xlink:href="#g6"/>
 <use transform="translate(36.01 35.28)" width="100%" height="100%" xlink:href="#use855"/>
 <use id="use895" transform="translate(7.182 -35.8)" width="100%" height="100%" xlink:href="#use855"/>
 <use id="use915" transform="translate(28.92 34.19)" width="100%" height="100%" xlink:href="#use895"/>
 <use transform="translate(2.946 -34.35)" width="100%" height="100%" xlink:href="#use915"/>
</svg>
