<?xml version="1.0" encoding="UTF-8"?>
<svg version="1.1" viewBox="0 0 100 110" xmlns="http://www.w3.org/2000/svg" xmlns:cc="http://creativecommons.org/ns#" xmlns:dc="http://purl.org/dc/elements/1.1/" xmlns:rdf="http://www.w3.org/1999/02/22-rdf-syntax-ns#" xmlns:xlink="http://www.w3.org/1999/xlink">
 <metadata>
  <rdf:RDF>
   <cc:Work rdf:about="">
    <dc:format>image/svg+xml</dc:format>
    <dc:type rdf:resource="http://purl.org/dc/dcmitype/StillImage"/>
    <dc:title/>
   </cc:Work>
  </rdf:RDF>
 </metadata>
 <g transform="matrix(1.53 0 0 1.53 -29.26 -35.97)">
  <path id="rect873-7" d="m42.32 35.62c-0.05208-0.0014-0.1049 0.0021-0.1584 0.011-1.712 0.2818-3.038 1.608-3.32 3.32-0.1513 0.9192 1.243 1.63 2.567 2.093-1.324 0.463-2.718 1.173-2.567 2.093 0.2818 1.712 1.608 3.038 3.32 3.32 0.9192 0.1513 1.63-1.243 2.093-2.567 0.463 1.324 1.173 2.718 2.092 2.567 1.712-0.2818 3.038-1.608 3.32-3.32 0.1513-0.9191-1.243-1.63-2.567-2.093 1.324-0.463 2.718-1.174 2.567-2.093-0.2818-1.712-1.609-3.038-3.32-3.32-0.9192-0.1513-1.629 1.243-2.092 2.567-0.4361-1.247-1.091-2.556-1.934-2.578z" fill-rule="evenodd" stroke-linecap="round" stroke-linejoin="round" stroke-width=".9851" style="paint-order:fill markers stroke"/>
  <use id="use945" transform="translate(-15 4.278)" width="100%" height="100%" xlink:href="#rect873-7"/>
  <use id="use1243" transform="translate(-8.537 31.24)" width="100%" height="100%" xlink:href="#rect873-7"/>
  <use transform="matrix(-1 0 0 1 103 2.153e-7)" width="100%" height="100%" xlink:href="#rect873-7"/>
  <use transform="matrix(-1 0 0 1 103 2.417e-7)" width="100%" height="100%" xlink:href="#use945"/>
  <use id="use1315" transform="matrix(-1 0 0 1 103 2.417e-7)" width="100%" height="100%" xlink:href="#use1243"/>
  <use id="use1319" transform="translate(15.65)" width="100%" height="100%" xlink:href="#use1243"/>
  <use transform="translate(-4.223e-8 -14)" width="100%" height="100%" xlink:href="#use1243"/>
  <use transform="translate(-4.223e-8 -14)" width="100%" height="100%" xlink:href="#use1315"/>
  <use transform="translate(-4.223e-8 -16.61)" width="100%" height="100%" xlink:href="#use1319"/>
 </g>
</svg>
