<?xml version="1.0" encoding="UTF-8" standalone="no"?>
<svg
   xmlns:dc="http://purl.org/dc/elements/1.1/"
   xmlns:cc="http://creativecommons.org/ns#"
   xmlns:rdf="http://www.w3.org/1999/02/22-rdf-syntax-ns#"
   xmlns:svg="http://www.w3.org/2000/svg"
   xmlns="http://www.w3.org/2000/svg"
   xmlns:sodipodi="http://sodipodi.sourceforge.net/DTD/sodipodi-0.dtd"
   xmlns:inkscape="http://www.inkscape.org/namespaces/inkscape"
   inkscape:version="1.0 (4035a4fb49, 2020-05-01)"
   sodipodi:docname="ten.svg"
   id="svg23"
   version="1.1"
   viewBox="0 0 100 110">
  <metadata
     id="metadata29">
    <rdf:RDF>
      <cc:Work
         rdf:about="">
        <dc:format>image/svg+xml</dc:format>
        <dc:type
           rdf:resource="http://purl.org/dc/dcmitype/StillImage" />
        <dc:title></dc:title>
      </cc:Work>
    </rdf:RDF>
  </metadata>
  <defs
     id="defs27">
    <inkscape:path-effect
       only_selected="false"
       apply_with_weight="true"
       apply_no_weight="true"
       helper_size="0"
       steps="2"
       weight="33.333333"
       lpeversion="1"
       is_visible="true"
       id="path-effect871"
       effect="bspline" />
    <inkscape:path-effect
       split_items="false"
       oposite_fuse="false"
       fuse_paths="false"
       discard_orig_path="false"
       mode="free"
       lpeversion="1"
       is_visible="true"
       id="path-effect866"
       center_point="-244.07823,-21.828124"
       end_point="-244.07823,36.500002"
       start_point="-244.07823,-80.156249"
       effect="mirror_symmetry" />
  </defs>
  <sodipodi:namedview
     inkscape:snap-bbox-midpoints="true"
     inkscape:snap-bbox-edge-midpoints="true"
     inkscape:bbox-nodes="true"
     inkscape:bbox-paths="true"
     inkscape:snap-bbox="true"
     inkscape:document-rotation="0"
     inkscape:guide-bbox="true"
     showguides="true"
     inkscape:current-layer="svg23"
     inkscape:window-maximized="1"
     inkscape:window-y="0"
     inkscape:window-x="0"
     inkscape:cy="39.937083"
     inkscape:cx="36.840274"
     inkscape:zoom="5.6568543"
     showgrid="false"
     id="namedview25"
     inkscape:window-height="1020"
     inkscape:window-width="1920"
     inkscape:pageshadow="2"
     inkscape:pageopacity="0"
     guidetolerance="10"
     gridtolerance="10"
     objecttolerance="10"
     borderopacity="1"
     bordercolor="#666666"
     pagecolor="#ffffff" />
  <g
     transform="matrix(0.25997529,0,0,-0.49057632,49.542508,34.31306)"
     id="text1423"
     style="font-style:normal;font-variant:normal;font-weight:normal;font-stretch:normal;font-size:16px;line-height:1;font-family:sans-serif;-inkscape-font-specification:'sans-serif, Normal';font-variant-ligatures:normal;font-variant-position:normal;font-variant-caps:normal;font-variant-numeric:normal;font-variant-alternates:normal;text-indent:0;text-align:center;text-decoration:none;text-decoration-line:none;text-decoration-style:solid;text-decoration-color:#000000;letter-spacing:0px;word-spacing:0px;text-transform:none;writing-mode:lr-tb;direction:ltr;text-orientation:mixed;dominant-baseline:auto;baseline-shift:baseline;text-anchor:middle;white-space:normal;shape-padding:0;vector-effect:none;fill:#000000;fill-opacity:1;stroke:none;stroke-width:2.03842;stroke-linecap:butt;stroke-linejoin:miter;stroke-miterlimit:4;stroke-dasharray:none;stroke-dashoffset:0;stroke-opacity:1"
     aria-label="♥" />
  <path
     id="rect873-7-9-6"
     style="fill:#000000;fill-rule:evenodd;stroke-width:1.59444;stroke-linecap:round;stroke-linejoin:round;stroke-miterlimit:4;stroke-dasharray:none;paint-order:fill markers stroke"
     d="m 53.130775,65.093298 c 0.08431,0.0022 0.169871,-0.0037 0.256446,-0.01782 2.770378,-0.456064 4.917593,-2.603282 5.37366,-5.37366 0.24492,-1.487777 -2.011594,-2.637736 -4.154523,-3.387223 2.142929,-0.749484 4.399444,-1.899442 4.154523,-3.387221 -0.456066,-2.770375 -2.603282,-4.917593 -5.37366,-5.373658 -1.487778,-0.244921 -2.637736,2.011594 -3.387222,4.154524 -0.749486,-2.14293 -1.898934,-4.399445 -3.386713,-4.154524 -2.770376,0.456067 -4.918105,2.603283 -5.374169,5.373661 -0.244914,1.487735 2.011649,2.637734 4.154525,3.387224 -2.142876,0.749485 -4.399439,1.899484 -4.154525,3.38722 0.456068,2.770376 2.603793,4.917594 5.374169,5.373658 1.487779,0.244923 2.637227,-2.011592 3.386713,-4.154522 0.705873,2.018231 1.766401,4.137045 3.130776,4.172332 z" />
  <path
     id="rect873-7-9-6-0-2"
     style="fill:#000000;fill-rule:evenodd;stroke-width:1.59444;stroke-linecap:round;stroke-linejoin:round;stroke-miterlimit:4;stroke-dasharray:none;paint-order:fill markers stroke"
     d="m 88.24752,52.418166 c 0.08431,0.0022 0.169871,-0.0037 0.256446,-0.01781 2.770375,-0.456065 4.917596,-2.603282 5.373661,-5.373659 0.244918,-1.487779 -2.011594,-2.637737 -4.154524,-3.387223 2.14293,-0.749485 4.399442,-1.899446 4.154524,-3.387217 -0.456065,-2.770373 -2.603286,-4.917594 -5.373661,-5.37366 -1.487778,-0.244918 -2.637736,2.011594 -3.387223,4.154525 -0.749484,-2.142931 -1.898933,-4.399443 -3.386712,-4.154525 -2.770375,0.456066 -4.918106,2.603287 -5.374169,5.37366 -0.244913,1.487734 2.011648,2.637732 4.154525,3.387224 -2.142877,0.749483 -4.399438,1.899483 -4.154525,3.387218 0.456068,2.770376 2.603794,4.917594 5.374169,5.373658 1.487779,0.244922 2.637228,-2.011592 3.386712,-4.154522 0.705874,2.018232 1.766402,4.137046 3.130777,4.172331 z" />
  <path
     d="m 18.014031,52.418167 c 0.08431,0.0022 0.169869,-0.0037 0.256446,-0.01781 2.770374,-0.456065 4.917595,-2.603283 5.37366,-5.37366 0.244918,-1.487778 -2.011594,-2.637736 -4.154524,-3.387223 2.14293,-0.749485 4.399442,-1.899446 4.154524,-3.387225 -0.456065,-2.770373 -2.603286,-4.917586 -5.37366,-5.373652 -1.487778,-0.244925 -2.637739,2.011594 -3.387224,4.154525 -0.749485,-2.142931 -1.898935,-4.39945 -3.386714,-4.154525 -2.7703697,0.456061 -4.9181084,2.603274 -5.3741739,5.373655 -0.2449103,1.487734 2.0116541,2.637732 4.1545249,3.387224 -2.1428708,0.749484 -4.3994352,1.899483 -4.1545249,3.387219 0.456073,2.770376 2.6038042,4.917594 5.3741739,5.373658 1.487779,0.244922 2.637229,-2.011593 3.386714,-4.154522 0.705874,2.018231 1.766399,4.137045 3.130778,4.172331 z"
     style="fill:#000000;fill-rule:evenodd;stroke-width:1.59444;stroke-linecap:round;stroke-linejoin:round;stroke-miterlimit:4;stroke-dasharray:none;paint-order:fill markers stroke"
     id="rect873-7-9-6-0-2-8" />
  <path
     d="m 53.130775,85.093298 c 0.08431,0.0022 0.169871,-0.0037 0.256446,-0.01782 2.770378,-0.456064 4.917593,-2.603282 5.37366,-5.37366 0.24492,-1.487777 -2.011594,-2.637736 -4.154523,-3.387223 2.142929,-0.749484 4.399444,-1.899442 4.154523,-3.387221 -0.456066,-2.770375 -2.603282,-4.917593 -5.37366,-5.373658 -1.487778,-0.244921 -2.637736,2.011594 -3.387222,4.154524 -0.749486,-2.14293 -1.898934,-4.399445 -3.386713,-4.154524 -2.770376,0.456067 -4.918105,2.603283 -5.374169,5.373661 -0.244914,1.487735 2.011649,2.637734 4.154525,3.387224 -2.142876,0.749485 -4.399439,1.899484 -4.154525,3.38722 0.456068,2.770376 2.603793,4.917594 5.374169,5.373658 1.487779,0.244923 2.637227,-2.011592 3.386713,-4.154522 0.705873,2.018231 1.766401,4.137045 3.130776,4.172332 z"
     style="fill:#000000;fill-rule:evenodd;stroke-width:1.59444;stroke-linecap:round;stroke-linejoin:round;stroke-miterlimit:4;stroke-dasharray:none;paint-order:fill markers stroke"
     id="rect873-7-9-6-9" />
  <path
     d="m 88.24752,72.418166 c 0.08431,0.0022 0.169871,-0.0037 0.256446,-0.01781 2.770375,-0.456065 4.917596,-2.603282 5.373661,-5.373659 0.244918,-1.487779 -2.011594,-2.637737 -4.154524,-3.387223 2.14293,-0.749485 4.399442,-1.899446 4.154524,-3.387217 -0.456065,-2.770373 -2.603286,-4.917594 -5.373661,-5.37366 -1.487778,-0.244918 -2.637736,2.011594 -3.387223,4.154525 -0.749484,-2.142931 -1.898933,-4.399443 -3.386712,-4.154525 -2.770375,0.456066 -4.918106,2.603287 -5.374169,5.37366 -0.244913,1.487734 2.011648,2.637732 4.154525,3.387224 -2.142877,0.749483 -4.399438,1.899483 -4.154525,3.387218 0.456068,2.770376 2.603794,4.917594 5.374169,5.373658 1.487779,0.244922 2.637228,-2.011592 3.386712,-4.154522 0.705874,2.018232 1.766402,4.137046 3.130777,4.172331 z"
     style="fill:#000000;fill-rule:evenodd;stroke-width:1.59444;stroke-linecap:round;stroke-linejoin:round;stroke-miterlimit:4;stroke-dasharray:none;paint-order:fill markers stroke"
     id="rect873-7-9-6-0-2-7" />
  <path
     id="rect873-7-9-6-0-2-8-3"
     style="fill:#000000;fill-rule:evenodd;stroke-width:1.59444;stroke-linecap:round;stroke-linejoin:round;stroke-miterlimit:4;stroke-dasharray:none;paint-order:fill markers stroke"
     d="m 18.014031,72.418167 c 0.08431,0.0022 0.169869,-0.0037 0.256446,-0.01781 2.770374,-0.456065 4.917595,-2.603283 5.37366,-5.37366 0.244918,-1.487778 -2.011594,-2.637736 -4.154524,-3.387223 2.14293,-0.749485 4.399442,-1.899446 4.154524,-3.387225 -0.456065,-2.770373 -2.603286,-4.917586 -5.37366,-5.373652 -1.487778,-0.244925 -2.637739,2.011594 -3.387224,4.154525 -0.749485,-2.142931 -1.898935,-4.39945 -3.386714,-4.154525 -2.7703697,0.456061 -4.9181084,2.603274 -5.3741739,5.373655 -0.2449103,1.487734 2.0116541,2.637732 4.1545249,3.387224 -2.1428708,0.749484 -4.3994352,1.899483 -4.1545249,3.387219 0.456073,2.770376 2.6038042,4.917594 5.3741739,5.373658 1.487779,0.244922 2.637229,-2.011593 3.386714,-4.154522 0.705874,2.018231 1.766399,4.137045 3.130778,4.172331 z" />
  <path
     d="m 53.130775,45.093298 c 0.08431,0.0022 0.169871,-0.0037 0.256446,-0.01782 2.770378,-0.456064 4.917593,-2.603282 5.37366,-5.37366 0.24492,-1.487777 -2.011594,-2.637736 -4.154523,-3.387223 2.142929,-0.749484 4.399444,-1.899442 4.154523,-3.387221 -0.456066,-2.770375 -2.603282,-4.917593 -5.37366,-5.373658 -1.487778,-0.244921 -2.637736,2.011594 -3.387222,4.154524 -0.749486,-2.14293 -1.898934,-4.399445 -3.386713,-4.154524 -2.770376,0.456067 -4.918105,2.603283 -5.374169,5.373661 -0.244914,1.487735 2.011649,2.637734 4.154525,3.387224 -2.142876,0.749485 -4.399439,1.899484 -4.154525,3.38722 0.456068,2.770376 2.603793,4.917594 5.374169,5.373658 1.487779,0.244923 2.637227,-2.011592 3.386713,-4.154522 0.705873,2.018231 1.766401,4.137045 3.130776,4.172332 z"
     style="fill:#000000;fill-rule:evenodd;stroke-width:1.59444;stroke-linecap:round;stroke-linejoin:round;stroke-miterlimit:4;stroke-dasharray:none;paint-order:fill markers stroke"
     id="rect873-7-9-6-6" />
  <path
     d="m 88.24752,32.418166 c 0.08431,0.0022 0.169871,-0.0037 0.256446,-0.01781 2.770375,-0.456065 4.917596,-2.603282 5.373661,-5.373659 0.244918,-1.487779 -2.011594,-2.637737 -4.154524,-3.387223 2.14293,-0.749485 4.399442,-1.899446 4.154524,-3.387217 -0.456065,-2.770373 -2.603286,-4.917594 -5.373661,-5.37366 -1.487778,-0.244918 -2.637736,2.011594 -3.387223,4.154525 -0.749484,-2.142931 -1.898933,-4.399443 -3.386712,-4.154525 -2.770375,0.456066 -4.918106,2.603287 -5.374169,5.37366 -0.244913,1.487734 2.011648,2.637732 4.154525,3.387224 -2.142877,0.749483 -4.399438,1.899483 -4.154525,3.387218 0.456068,2.770376 2.603794,4.917594 5.374169,5.373658 1.487779,0.244922 2.637228,-2.011592 3.386712,-4.154522 0.705874,2.018232 1.766402,4.137046 3.130777,4.172331 z"
     style="fill:#000000;fill-rule:evenodd;stroke-width:1.59444;stroke-linecap:round;stroke-linejoin:round;stroke-miterlimit:4;stroke-dasharray:none;paint-order:fill markers stroke"
     id="rect873-7-9-6-0-2-1" />
  <path
     id="rect873-7-9-6-0-2-8-2"
     style="fill:#000000;fill-rule:evenodd;stroke-width:1.59444;stroke-linecap:round;stroke-linejoin:round;stroke-miterlimit:4;stroke-dasharray:none;paint-order:fill markers stroke"
     d="m 18.014031,32.418167 c 0.08431,0.0022 0.169869,-0.0037 0.256446,-0.01781 2.770374,-0.456065 4.917595,-2.603283 5.37366,-5.37366 0.244918,-1.487778 -2.011594,-2.637736 -4.154524,-3.387223 2.14293,-0.749485 4.399442,-1.899446 4.154524,-3.387225 -0.456065,-2.770373 -2.603286,-4.917586 -5.37366,-5.373652 -1.487778,-0.244925 -2.637739,2.011594 -3.387224,4.154525 -0.749485,-2.142931 -1.898935,-4.39945 -3.386714,-4.154525 -2.7703697,0.456061 -4.9181084,2.603274 -5.3741739,5.373655 -0.2449103,1.487734 2.0116541,2.637732 4.1545249,3.387224 -2.1428708,0.749484 -4.3994352,1.899483 -4.1545249,3.387219 0.456073,2.770376 2.6038042,4.917594 5.3741739,5.373658 1.487779,0.244922 2.637229,-2.011593 3.386714,-4.154522 0.705874,2.018231 1.766399,4.137045 3.130778,4.172331 z" />
  <path
     id="rect873-7-9-6-6-1"
     style="fill:#000000;fill-rule:evenodd;stroke-width:1.59444;stroke-linecap:round;stroke-linejoin:round;stroke-miterlimit:4;stroke-dasharray:none;paint-order:fill markers stroke"
     d="m 53.130775,25.093298 c 0.08431,0.0022 0.169871,-0.0037 0.256446,-0.01782 2.770378,-0.456064 4.917593,-2.603282 5.37366,-5.37366 0.24492,-1.487777 -2.011594,-2.637736 -4.154523,-3.387223 2.142929,-0.749484 4.399444,-1.899442 4.154523,-3.387221 -0.456066,-2.770375 -2.603282,-4.9175933 -5.37366,-5.3736583 -1.487778,-0.244921 -2.637736,2.011594 -3.387222,4.1545243 -0.749486,-2.1429303 -1.898934,-4.3994453 -3.386713,-4.1545243 -2.770376,0.456067 -4.918105,2.6032833 -5.374169,5.3736613 -0.244914,1.487735 2.011649,2.637734 4.154525,3.387224 -2.142876,0.749485 -4.399439,1.899484 -4.154525,3.38722 0.456068,2.770376 2.603793,4.917594 5.374169,5.373658 1.487779,0.244923 2.637227,-2.011592 3.386713,-4.154522 0.705873,2.018231 1.766401,4.137045 3.130776,4.172332 z" />
</svg>
