<?xml version="1.0" encoding="UTF-8" standalone="no"?>
<svg
   xmlns:dc="http://purl.org/dc/elements/1.1/"
   xmlns:cc="http://creativecommons.org/ns#"
   xmlns:rdf="http://www.w3.org/1999/02/22-rdf-syntax-ns#"
   xmlns:svg="http://www.w3.org/2000/svg"
   xmlns="http://www.w3.org/2000/svg"
   xmlns:sodipodi="http://sodipodi.sourceforge.net/DTD/sodipodi-0.dtd"
   xmlns:inkscape="http://www.inkscape.org/namespaces/inkscape"
   viewBox="0 0 100 110"
   version="1.1"
   id="svg23"
   sodipodi:docname="three.svg"
   inkscape:version="1.0 (4035a4fb49, 2020-05-01)">
  <metadata
     id="metadata29">
    <rdf:RDF>
      <cc:Work
         rdf:about="">
        <dc:format>image/svg+xml</dc:format>
        <dc:type
           rdf:resource="http://purl.org/dc/dcmitype/StillImage" />
        <dc:title />
      </cc:Work>
    </rdf:RDF>
  </metadata>
  <defs
     id="defs27">
    <inkscape:path-effect
       effect="bspline"
       id="path-effect871"
       is_visible="true"
       lpeversion="1"
       weight="33.333333"
       steps="2"
       helper_size="0"
       apply_no_weight="true"
       apply_with_weight="true"
       only_selected="false" />
    <inkscape:path-effect
       effect="mirror_symmetry"
       start_point="-244.07823,-80.156249"
       end_point="-244.07823,36.500002"
       center_point="-244.07823,-21.828124"
       id="path-effect866"
       is_visible="true"
       lpeversion="1"
       mode="free"
       discard_orig_path="false"
       fuse_paths="false"
       oposite_fuse="false"
       split_items="false" />
  </defs>
  <sodipodi:namedview
     pagecolor="#ffffff"
     bordercolor="#666666"
     borderopacity="1"
     objecttolerance="10"
     gridtolerance="10"
     guidetolerance="10"
     inkscape:pageopacity="0"
     inkscape:pageshadow="2"
     inkscape:window-width="1920"
     inkscape:window-height="1020"
     id="namedview25"
     showgrid="false"
     inkscape:zoom="2.8284271"
     inkscape:cx="-7.8363964"
     inkscape:cy="67.045607"
     inkscape:window-x="0"
     inkscape:window-y="0"
     inkscape:window-maximized="1"
     inkscape:current-layer="g931"
     showguides="true"
     inkscape:guide-bbox="true"
     inkscape:document-rotation="0"
     inkscape:snap-bbox="true"
     inkscape:bbox-paths="true"
     inkscape:bbox-nodes="true"
     inkscape:snap-bbox-edge-midpoints="true"
     inkscape:snap-bbox-midpoints="true" />
  <g
     aria-label="♥"
     style="font-style:normal;font-variant:normal;font-weight:normal;font-stretch:normal;font-size:16px;line-height:1;font-family:sans-serif;-inkscape-font-specification:'sans-serif, Normal';font-variant-ligatures:normal;font-variant-position:normal;font-variant-caps:normal;font-variant-numeric:normal;font-variant-alternates:normal;text-indent:0;text-align:center;text-decoration:none;text-decoration-line:none;text-decoration-style:solid;text-decoration-color:#000000;letter-spacing:0px;word-spacing:0px;text-transform:none;writing-mode:lr-tb;direction:ltr;text-orientation:mixed;dominant-baseline:auto;baseline-shift:baseline;text-anchor:middle;white-space:normal;shape-padding:0;vector-effect:none;fill:#000000;fill-opacity:1;stroke:none;stroke-width:2.03842;stroke-linecap:butt;stroke-linejoin:miter;stroke-miterlimit:4;stroke-dasharray:none;stroke-dashoffset:0;stroke-opacity:1"
     id="text1423"
     transform="matrix(0.25997529,0,0,-0.49057632,49.542508,34.31306)" />
  <g
     id="g931"
     transform="matrix(1.5300966,0,0,1.5300966,-29.255264,-35.968104)">
    <g
       transform="translate(1.3214572)"
       id="g845">
      <path
         id="rect873-7-7"
         style="fill:#000000;fill-rule:evenodd;stroke-width:2.17806;stroke-linecap:round;stroke-linejoin:round;stroke-miterlimit:4;stroke-dasharray:none;paint-order:fill markers stroke"
         d="m 46.199393,57.391515 c -0.115155,-0.003 -0.232048,0.0049 -0.350311,0.02434 -3.784397,0.622995 -6.71754,3.556143 -7.340539,7.340538 -0.334566,2.032338 2.747882,3.603205 5.675173,4.627023 -2.927291,1.023812 -6.00974,2.594679 -5.675173,4.62702 0.622995,3.784389 3.556142,6.71754 7.340539,7.340539 2.032337,0.334567 3.603206,-2.747884 4.62702,-5.67518 1.023814,2.927296 2.593988,6.009747 4.626326,5.67518 3.784396,-0.622999 6.71824,-3.55615 7.341232,-7.340548 0.334558,-2.032277 -2.747956,-3.603199 -5.675171,-4.627017 2.927215,-1.023818 6.009729,-2.59474 5.675171,-4.62702 -0.622998,-3.7844 -3.556836,-6.717547 -7.341232,-7.340542 -2.032338,-0.334568 -3.602512,2.747881 -4.626326,5.675172 -0.964239,-2.756951 -2.412942,-5.651298 -4.276709,-5.699499 z" />
      <path
         d="m 29.165191,31.199872 c -0.115154,-0.003 -0.232048,0.0049 -0.350311,0.02434 -3.784396,0.622996 -6.717539,3.556143 -7.340538,7.340538 -0.334566,2.032339 2.747882,3.603207 5.675172,4.627021 -2.92729,1.023815 -6.009739,2.594683 -5.675172,4.627021 0.622995,3.784395 3.556142,6.717542 7.340538,7.340538 2.032338,0.334567 3.603207,-2.747882 4.627021,-5.675173 1.023814,2.927291 2.593987,6.00974 4.626325,5.675173 3.784396,-0.622998 6.718241,-3.556145 7.341233,-7.340541 0.334558,-2.032279 -2.747956,-3.603203 -5.675172,-4.627021 2.927216,-1.023815 6.00973,-2.59474 5.675172,-4.62702 -0.622998,-3.784395 -3.556837,-6.717542 -7.341233,-7.340537 -2.032338,-0.334568 -3.602511,2.747881 -4.626325,5.675172 -0.964239,-2.756951 -2.412942,-5.651298 -4.27671,-5.699499 z"
         style="fill:#000000;fill-rule:evenodd;stroke-width:2.17806;stroke-linecap:round;stroke-linejoin:round;stroke-miterlimit:4;stroke-dasharray:none;paint-order:fill markers stroke"
         id="rect873-7" />
      <path
         id="rect873-7-0"
         style="fill:#000000;fill-rule:evenodd;stroke-width:2.17806;stroke-linecap:round;stroke-linejoin:round;stroke-miterlimit:4;stroke-dasharray:none;paint-order:fill markers stroke"
         d="m 63.233593,31.199872 c -0.115154,-0.003 -0.232048,0.0049 -0.350311,0.02434 -3.784396,0.622996 -6.717539,3.556143 -7.340539,7.340539 -0.334565,2.032338 2.747883,3.603206 5.675173,4.62702 -2.92729,1.023815 -6.009739,2.594683 -5.675173,4.627021 0.622995,3.784395 3.556143,6.717542 7.340539,7.340538 2.032338,0.334567 3.603207,-2.747882 4.627021,-5.675173 1.023814,2.927291 2.593987,6.00974 4.626325,5.675173 3.784396,-0.622998 6.718243,-3.556145 7.341233,-7.340541 0.334557,-2.032279 -2.747959,-3.603203 -5.675172,-4.627021 2.927213,-1.023815 6.009729,-2.59474 5.675172,-4.62702 -0.622998,-3.784395 -3.556837,-6.717542 -7.341233,-7.340537 -2.032338,-0.334568 -3.602511,2.747881 -4.626325,5.675172 -0.964239,-2.756951 -2.412942,-5.651298 -4.27671,-5.699499 z" />
    </g>
  </g>
</svg>
