<?xml version="1.0" encoding="UTF-8" standalone="no"?>
<svg
   xmlns:dc="http://purl.org/dc/elements/1.1/"
   xmlns:cc="http://creativecommons.org/ns#"
   xmlns:rdf="http://www.w3.org/1999/02/22-rdf-syntax-ns#"
   xmlns:svg="http://www.w3.org/2000/svg"
   xmlns="http://www.w3.org/2000/svg"
   xmlns:sodipodi="http://sodipodi.sourceforge.net/DTD/sodipodi-0.dtd"
   xmlns:inkscape="http://www.inkscape.org/namespaces/inkscape"
   viewBox="0 0 100 110"
   version="1.1"
   id="svg23"
   sodipodi:docname="two.svg"
   inkscape:version="1.0 (4035a4fb49, 2020-05-01)">
  <metadata
     id="metadata29">
    <rdf:RDF>
      <cc:Work
         rdf:about="">
        <dc:format>image/svg+xml</dc:format>
        <dc:type
           rdf:resource="http://purl.org/dc/dcmitype/StillImage" />
        <dc:title />
      </cc:Work>
    </rdf:RDF>
  </metadata>
  <defs
     id="defs27">
    <inkscape:path-effect
       effect="bspline"
       id="path-effect871"
       is_visible="true"
       lpeversion="1"
       weight="33.333333"
       steps="2"
       helper_size="0"
       apply_no_weight="true"
       apply_with_weight="true"
       only_selected="false" />
    <inkscape:path-effect
       effect="mirror_symmetry"
       start_point="-244.07823,-80.156249"
       end_point="-244.07823,36.500002"
       center_point="-244.07823,-21.828124"
       id="path-effect866"
       is_visible="true"
       lpeversion="1"
       mode="free"
       discard_orig_path="false"
       fuse_paths="false"
       oposite_fuse="false"
       split_items="false" />
  </defs>
  <sodipodi:namedview
     pagecolor="#ffffff"
     bordercolor="#666666"
     borderopacity="1"
     objecttolerance="10"
     gridtolerance="10"
     guidetolerance="10"
     inkscape:pageopacity="0"
     inkscape:pageshadow="2"
     inkscape:window-width="1920"
     inkscape:window-height="1020"
     id="namedview25"
     showgrid="false"
     inkscape:zoom="2.8284271"
     inkscape:cx="-7.8363964"
     inkscape:cy="67.045607"
     inkscape:window-x="0"
     inkscape:window-y="0"
     inkscape:window-maximized="1"
     inkscape:current-layer="g931"
     showguides="true"
     inkscape:guide-bbox="true"
     inkscape:document-rotation="0"
     inkscape:snap-bbox="true"
     inkscape:bbox-paths="true"
     inkscape:bbox-nodes="true"
     inkscape:snap-bbox-edge-midpoints="true"
     inkscape:snap-bbox-midpoints="true" />
  <g
     aria-label="♥"
     style="font-style:normal;font-variant:normal;font-weight:normal;font-stretch:normal;font-size:16px;line-height:1;font-family:sans-serif;-inkscape-font-specification:'sans-serif, Normal';font-variant-ligatures:normal;font-variant-position:normal;font-variant-caps:normal;font-variant-numeric:normal;font-variant-alternates:normal;text-indent:0;text-align:center;text-decoration:none;text-decoration-line:none;text-decoration-style:solid;text-decoration-color:#000000;letter-spacing:0px;word-spacing:0px;text-transform:none;writing-mode:lr-tb;direction:ltr;text-orientation:mixed;dominant-baseline:auto;baseline-shift:baseline;text-anchor:middle;white-space:normal;shape-padding:0;vector-effect:none;fill:#000000;fill-opacity:1;stroke:none;stroke-width:2.03842;stroke-linecap:butt;stroke-linejoin:miter;stroke-miterlimit:4;stroke-dasharray:none;stroke-dashoffset:0;stroke-opacity:1"
     id="text1423"
     transform="matrix(0.25997529,0,0,-0.49057632,49.542508,34.31306)" />
  <g
     id="g931"
     transform="matrix(1.5300966,0,0,1.5300966,-29.255264,-35.968104)">
    <path
       id="rect873-7"
       style="fill:#000000;fill-rule:evenodd;stroke-width:2.50698;stroke-linecap:round;stroke-linejoin:round;stroke-miterlimit:4;stroke-dasharray:none;paint-order:fill markers stroke"
       d="m 46.875006,27.411274 c -0.132544,-0.0034 -0.267091,0.0056 -0.403213,0.02801 -4.355893,0.717077 -7.731982,4.093171 -8.449063,8.449063 -0.38509,2.33925 3.162851,4.147341 6.532203,5.325766 -3.369352,1.178425 -6.917294,2.986516 -6.532203,5.325766 0.717076,4.355892 4.09317,7.731986 8.449063,8.449063 2.33925,0.385091 4.147342,-3.162851 5.325766,-6.532204 1.178425,3.369353 2.985716,6.917295 5.324965,6.532204 4.355894,-0.71708 7.73279,-4.093173 8.449863,-8.449066 0.385081,-2.339182 -3.162936,-4.147338 -6.532203,-5.325766 3.369267,-1.178426 6.917284,-2.986583 6.532203,-5.325766 -0.71708,-4.355892 -4.093969,-7.731985 -8.449863,-8.449061 -2.339249,-0.385092 -4.14654,3.16285 -5.324965,6.532203 -1.109852,-3.17329 -2.77733,-6.504724 -4.922553,-6.560204 z" />
    <path
       d="m 46.875007,57.558224 c -0.132545,-0.0034 -0.267091,0.0056 -0.403213,0.02801 -4.355894,0.717075 -7.731983,4.09317 -8.449064,8.449062 -0.38509,2.339249 3.162851,4.14734 6.532204,5.325768 -3.369353,1.178423 -6.917295,2.986512 -6.532204,5.325765 0.717076,4.355886 4.09317,7.731984 8.449064,8.449064 2.339249,0.385091 4.147341,-3.162853 5.325765,-6.532212 1.178425,3.369359 2.985717,6.917303 5.324966,6.532212 4.355893,-0.71708 7.732789,-4.093178 8.449862,-8.449074 0.385081,-2.339179 -3.162936,-4.147332 -6.532202,-5.325761 3.369266,-1.178429 6.917283,-2.986583 6.532202,-5.325765 -0.71708,-4.355892 -4.093969,-7.731986 -8.449862,-8.449062 -2.339249,-0.385092 -4.146541,3.16285 -5.324966,6.532203 -1.109852,-3.173289 -2.77733,-6.504724 -4.922552,-6.560204 z"
       style="fill:#000000;fill-rule:evenodd;stroke-width:2.50698;stroke-linecap:round;stroke-linejoin:round;stroke-miterlimit:4;stroke-dasharray:none;paint-order:fill markers stroke"
       id="rect873-7-7" />
  </g>
</svg>
