<?xml version="1.0" encoding="UTF-8"?>
<svg version="1.1" viewBox="0 0 100 110" xmlns="http://www.w3.org/2000/svg" xmlns:cc="http://creativecommons.org/ns#" xmlns:dc="http://purl.org/dc/elements/1.1/" xmlns:rdf="http://www.w3.org/1999/02/22-rdf-syntax-ns#" xmlns:xlink="http://www.w3.org/1999/xlink">
 <metadata>
  <rdf:RDF>
   <cc:Work rdf:about="">
    <dc:format>image/svg+xml</dc:format>
    <dc:type rdf:resource="http://purl.org/dc/dcmitype/StillImage"/>
    <dc:title/>
   </cc:Work>
  </rdf:RDF>
 </metadata>
 <path id="path828-7" d="m59.22 40.91c-0.01486 2.93 0.03144 5.86-0.02644 8.789-0.1866 3.669-2.344 6.986-5.228 9.156-1.217 0.9307-2.543 1.729-3.962 2.309-3.734-1.59-7.149-4.462-8.553-8.362-0.8906-2.321-0.6177-4.825-0.6628-7.253v-4.638h18.43z"/>
 <path id="use848" d="m59.22 74.91c-0.01486 2.93 0.03144 5.86-0.02644 8.789-0.1866 3.669-2.344 6.986-5.228 9.156-1.217 0.9307-2.543 1.729-3.962 2.309-3.734-1.59-7.149-4.462-8.553-8.362-0.8906-2.321-0.6177-4.825-0.6628-7.253v-4.638h18.43z"/>
 <use id="use862" transform="translate(-30,-6)" width="100%" height="100%" xlink:href="#path828-7"/>
 <path id="use864" d="m43.22 10.91c-0.01486 2.93 0.03144 5.86-0.02644 8.789-0.1866 3.669-2.344 6.986-5.228 9.156-1.217 0.9307-2.543 1.729-3.962 2.309-3.734-1.59-7.149-4.462-8.553-8.362-0.8906-2.321-0.6177-4.825-0.6628-7.253v-4.638h18.43z"/>
 <use id="use866" transform="translate(-26,-12)" width="100%" height="100%" xlink:href="#use848"/>
 <use transform="translate(60)" width="100%" height="100%" xlink:href="#use862"/>
 <use transform="translate(32)" width="100%" height="100%" xlink:href="#use864"/>
 <use transform="translate(52)" width="100%" height="100%" xlink:href="#use866"/>
</svg>
