<?xml version="1.0" encoding="UTF-8"?>
<svg version="1.1" viewBox="0 0 100 110" xmlns="http://www.w3.org/2000/svg" xmlns:cc="http://creativecommons.org/ns#" xmlns:dc="http://purl.org/dc/elements/1.1/" xmlns:rdf="http://www.w3.org/1999/02/22-rdf-syntax-ns#" xmlns:xlink="http://www.w3.org/1999/xlink">
 <metadata>
  <rdf:RDF>
   <cc:Work rdf:about="">
    <dc:format>image/svg+xml</dc:format>
    <dc:type rdf:resource="http://purl.org/dc/dcmitype/StillImage"/>
    <dc:title/>
   </cc:Work>
  </rdf:RDF>
 </metadata>
 <path id="path828" d="m22.31 2.854c-0.01203 2.372 0.02545 4.744-0.02141 7.115-0.151 2.97-1.897 5.655-4.232 7.412-0.9848 0.7534-2.058 1.399-3.207 1.869-3.023-1.287-5.787-3.612-6.924-6.77-0.721-1.879-0.5-3.906-0.5366-5.872v-3.755h14.92z"/>
 <use transform="translate(45.06 53.46)" width="100%" height="100%" xlink:href="#path828"/>
 <use id="use843" transform="translate(55.75 22.64)" width="100%" height="100%" xlink:href="#path828"/>
 <use transform="translate(15.41 59.74)" width="100%" height="100%" xlink:href="#use843"/>
 <path id="use849" d="m95.45 3.914c-0.012 2.372 0.0255 4.744-0.0214 7.115-0.151 2.97-1.897 5.655-4.232 7.412-0.9848 0.7534-2.058 1.399-3.207 1.869-3.023-1.287-5.787-3.612-6.924-6.77-0.721-1.879-0.5-3.906-0.5366-5.872v-3.755h14.92z"/>
 <use id="use851" transform="translate(-48.76 25.33)" width="100%" height="100%" xlink:href="#use849"/>
 <use id="use853" transform="translate(9.11 -24.53)" width="100%" height="100%" xlink:href="#use851"/>
 <use transform="translate(41.62 47.29)" width="100%" height="100%" xlink:href="#use853"/>
</svg>
