<?xml version="1.0" encoding="UTF-8" standalone="no"?>
<svg
   xmlns:dc="http://purl.org/dc/elements/1.1/"
   xmlns:cc="http://creativecommons.org/ns#"
   xmlns:rdf="http://www.w3.org/1999/02/22-rdf-syntax-ns#"
   xmlns:svg="http://www.w3.org/2000/svg"
   xmlns="http://www.w3.org/2000/svg"
   xmlns:sodipodi="http://sodipodi.sourceforge.net/DTD/sodipodi-0.dtd"
   xmlns:inkscape="http://www.inkscape.org/namespaces/inkscape"
   viewBox="0 0 100 110"
   version="1.1"
   id="svg4"
   sodipodi:docname="eight.svg"
   inkscape:version="0.92.4 (5da689c313, 2019-01-14)">
  <metadata
     id="metadata10">
    <rdf:RDF>
      <cc:Work
         rdf:about="">
        <dc:format>image/svg+xml</dc:format>
        <dc:type
           rdf:resource="http://purl.org/dc/dcmitype/StillImage" />
        <dc:title></dc:title>
      </cc:Work>
    </rdf:RDF>
  </metadata>
  <defs
     id="defs8" />
  <sodipodi:namedview
     pagecolor="#ffffff"
     bordercolor="#666666"
     borderopacity="1"
     objecttolerance="10"
     gridtolerance="10"
     guidetolerance="10"
     inkscape:pageopacity="0"
     inkscape:pageshadow="2"
     inkscape:window-width="1920"
     inkscape:window-height="1020"
     id="namedview6"
     showgrid="false"
     inkscape:zoom="3.0341309"
     inkscape:cx="19.064571"
     inkscape:cy="56.678605"
     inkscape:window-x="0"
     inkscape:window-y="0"
     inkscape:window-maximized="1"
     inkscape:current-layer="svg4" />
  <path
     style="fill:#000000;fill-opacity:1;stroke:none;stroke-width:0.31999999;stroke-opacity:1"
     d="m 60.245621,7.783946 c -0.01651,3.255066 0.03493,6.511601 -0.02938,9.765639 -0.207301,4.076455 -2.604042,7.762032 -5.808515,10.172832 -1.351694,1.034116 -2.825226,1.920694 -4.402109,2.565904 -4.149366,-1.766276 -7.943168,-4.957252 -9.503564,-9.291568 -0.989598,-2.579038 -0.686318,-5.361351 -0.736436,-8.059427 0,-1.717793 0,-3.435586 0,-5.15338 6.826667,0 13.653334,0 20.48,0 z"
     id="path828"
     inkscape:connector-curvature="0" />
  <path
     style="fill:#000000;fill-opacity:1;stroke:none;stroke-width:0.31999999;stroke-opacity:1"
     d="m 24.645621,7.783946 c -0.01651,3.255066 0.03493,6.511601 -0.02938,9.765639 -0.207301,4.076455 -2.604042,7.762032 -5.808515,10.172832 -1.351694,1.034116 -2.825226,1.920694 -4.402109,2.565904 C 10.256251,28.522045 6.462449,25.331069 4.902053,20.996753 3.912455,18.417715 4.215735,15.635402 4.165617,12.937326 c 0,-1.717793 0,-3.435586 0,-5.15338 6.826667,0 13.653334,0 20.48,0 z"
     id="path828-9"
     inkscape:connector-curvature="0" />
  <path
     style="fill:#000000;fill-opacity:1;stroke:none;stroke-width:0.31999999;stroke-opacity:1"
     d="m 48.245621,63.783946 c -0.01651,3.255066 0.03493,6.511601 -0.02938,9.765639 -0.207301,4.076455 -2.604042,7.762031 -5.808515,10.172834 -1.351694,1.034112 -2.825226,1.920696 -4.402109,2.565904 -4.149366,-1.76628 -7.943168,-4.957254 -9.503564,-9.291571 -0.989598,-2.579037 -0.686318,-5.36135 -0.736436,-8.059426 0,-1.717793 0,-3.435586 0,-5.15338 6.826667,0 13.653334,0 20.48,0 z"
     id="path828-9-2"
     inkscape:connector-curvature="0" />
  <path
     style="fill:#000000;fill-opacity:1;stroke:none;stroke-width:0.31999999;stroke-opacity:1"
     d="m 95.845623,7.783947 c -0.01648,3.255066 0.03496,6.511601 -0.02936,9.765638 -0.207304,4.076456 -2.604048,7.762032 -5.80852,10.172833 -1.351688,1.034115 -2.825224,1.920694 -4.402104,2.565903 -4.149368,-1.766275 -7.94317,-4.957251 -9.503566,-9.291568 -0.989598,-2.579037 -0.686318,-5.36135 -0.736436,-8.059426 0,-1.717793 0,-3.435586 0,-5.15338 6.826666,0 13.653338,0 20.480002,0 z"
     id="path828-9-1"
     inkscape:connector-curvature="0" />
  <path
     style="fill:#000000;fill-opacity:1;stroke:none;stroke-width:0.31999999;stroke-opacity:1"
     d="m 60.245621,35.783947 c -0.01651,3.255066 0.03493,6.511601 -0.02938,9.765638 -0.207301,4.076456 -2.604042,7.762032 -5.808515,10.172833 -1.351694,1.034115 -2.825226,1.920694 -4.402109,2.565903 -4.149366,-1.766275 -7.943168,-4.957251 -9.503564,-9.291568 -0.989598,-2.579037 -0.686318,-5.36135 -0.736436,-8.059426 0,-1.717793 0,-3.435586 0,-5.15338 6.826667,0 13.653334,0 20.48,0 z"
     id="path828-7"
     inkscape:connector-curvature="0" />
  <path
     style="fill:#000000;fill-opacity:1;stroke:none;stroke-width:0.31999999;stroke-opacity:1"
     d="m 36.645621,35.783947 c -0.01651,3.255066 0.03493,6.511601 -0.02938,9.765638 -0.207301,4.076456 -2.604042,7.762032 -5.808515,10.172833 -1.351694,1.034115 -2.825226,1.920694 -4.402109,2.565903 -4.149366,-1.766275 -7.943168,-4.957251 -9.503564,-9.291568 -0.989598,-2.579037 -0.686318,-5.36135 -0.736436,-8.059426 0,-1.717793 0,-3.435586 0,-5.15338 6.826667,0 13.653334,0 20.48,0 z"
     id="path828-9-8"
     inkscape:connector-curvature="0" />
  <path
     style="fill:#000000;fill-opacity:1;stroke:none;stroke-width:0.31999999;stroke-opacity:1"
     d="m 83.845623,35.783948 c -0.01648,3.255065 0.03496,6.511601 -0.02936,9.765638 -0.207304,4.076455 -2.604048,7.762032 -5.80852,10.172833 -1.351688,1.034115 -2.825224,1.920693 -4.402104,2.565903 -4.149368,-1.766275 -7.94317,-4.957251 -9.503566,-9.291568 -0.989598,-2.579037 -0.686318,-5.36135 -0.736436,-8.059426 0,-1.717793 0,-3.435587 0,-5.15338 6.826666,0 13.653338,0 20.480002,0 z"
     id="path828-9-1-9"
     inkscape:connector-curvature="0" />
  <path
     style="fill:#000000;fill-opacity:1;stroke:none;stroke-width:0.31999999;stroke-opacity:1"
     d="m 72.24562,63.783946 c -0.0165,3.255066 0.0349,6.511601 -0.0294,9.765639 -0.2073,4.076455 -2.604041,7.762031 -5.808514,10.172834 -1.351694,1.034112 -2.825226,1.920696 -4.402109,2.565904 -4.149366,-1.76628 -7.943168,-4.957254 -9.503564,-9.291571 -0.989598,-2.579037 -0.686318,-5.36135 -0.736436,-8.059426 0,-1.717793 0,-3.435586 0,-5.15338 6.826667,0 13.653334,0 20.480003,0 z"
     id="path828-9-2-4"
     inkscape:connector-curvature="0" />
</svg>
