<?xml version="1.0" encoding="UTF-8"?>
<svg version="1.1" viewBox="0 0 100 110" xmlns="http://www.w3.org/2000/svg" xmlns:cc="http://creativecommons.org/ns#" xmlns:dc="http://purl.org/dc/elements/1.1/" xmlns:rdf="http://www.w3.org/1999/02/22-rdf-syntax-ns#" xmlns:xlink="http://www.w3.org/1999/xlink">
 <metadata>
  <rdf:RDF>
   <cc:Work rdf:about="">
    <dc:format>image/svg+xml</dc:format>
    <dc:type rdf:resource="http://purl.org/dc/dcmitype/StillImage"/>
    <dc:title/>
   </cc:Work>
  </rdf:RDF>
 </metadata>
 <path id="path828" d="m26.74 4.156c-0.01619 3.192 0.03425 6.385-0.02883 9.576-0.2033 3.997-2.554 7.611-5.696 9.976-1.325 1.014-2.77 1.883-4.317 2.516-4.069-1.732-7.789-4.861-9.319-9.111-0.9704-2.529-0.673-5.257-0.7222-7.903v-5.053h20.08z"/>
 <use transform="translate(64.52 76.88)" width="100%" height="100%" xlink:href="#path828"/>
 <use transform="translate(64.16 35.56)" width="100%" height="100%" xlink:href="#path828"/>
 <path id="use851" d="m54.64 44.05c-0.01615 3.192 0.03433 6.385-0.02881 9.576-0.2033 3.997-2.554 7.611-5.696 9.976-1.325 1.014-2.77 1.883-4.317 2.516-4.069-1.732-7.789-4.861-9.319-9.111-0.9704-2.529-0.673-5.257-0.7222-7.903v-5.053h20.08z"/>
 <use transform="translate(11.62 -40.16)" width="100%" height="100%" xlink:href="#use851"/>
</svg>
