<?xml version="1.0" encoding="UTF-8"?>
<svg version="1.1" viewBox="0 0 100 110" xmlns="http://www.w3.org/2000/svg" xmlns:cc="http://creativecommons.org/ns#" xmlns:dc="http://purl.org/dc/elements/1.1/" xmlns:rdf="http://www.w3.org/1999/02/22-rdf-syntax-ns#" xmlns:xlink="http://www.w3.org/1999/xlink">
 <metadata>
  <rdf:RDF>
   <cc:Work rdf:about="">
    <dc:format>image/svg+xml</dc:format>
    <dc:type rdf:resource="http://purl.org/dc/dcmitype/StillImage"/>
    <dc:title/>
   </cc:Work>
  </rdf:RDF>
 </metadata>
 <path id="path828" d="m28.12 3.944c-0.01919 3.783 0.04059 7.568-0.03417 11.35-0.2409 4.738-3.027 9.021-6.751 11.82-1.571 1.202-3.284 2.232-5.116 2.982-4.823-2.053-9.232-5.762-11.05-10.8-1.15-2.998-0.7977-6.231-0.8559-9.367v-5.99h23.8z"/>
 <use transform="translate(70.38 76.23)" width="100%" height="100%" xlink:href="#path828"/>
 <path id="use851" d="m57.77 40.35c-0.01914 3.783 0.04069 7.568-0.03415 11.35-0.2409 4.738-3.027 9.021-6.751 11.82-1.571 1.202-3.284 2.232-5.116 2.982-4.823-2.053-9.232-5.762-11.05-10.8-1.15-2.998-0.7977-6.231-0.8559-9.367v-5.99h23.8z"/>
 <use transform="translate(34.82 -27.26)" width="100%" height="100%" xlink:href="#use851"/>
</svg>
