<?xml version="1.0" encoding="UTF-8"?>
<svg version="1.1" viewBox="0 0 100 110" xmlns="http://www.w3.org/2000/svg" xmlns:cc="http://creativecommons.org/ns#" xmlns:dc="http://purl.org/dc/elements/1.1/" xmlns:rdf="http://www.w3.org/1999/02/22-rdf-syntax-ns#" xmlns:xlink="http://www.w3.org/1999/xlink">
 <metadata>
  <rdf:RDF>
   <cc:Work rdf:about="">
    <dc:format>image/svg+xml</dc:format>
    <dc:type rdf:resource="http://purl.org/dc/dcmitype/StillImage"/>
    <dc:title/>
   </cc:Work>
  </rdf:RDF>
 </metadata>
 <path id="path828" d="m17.5 7.644c-0.0091 1.794 0.01925 3.588-0.01619 5.382-0.1142 2.246-1.435 4.277-3.201 5.606-0.7449 0.5699-1.557 1.058-2.426 1.414-2.287-0.9734-4.377-2.732-5.237-5.12-0.5454-1.421-0.3782-2.955-0.4058-4.441v-2.84h11.29z"/>
 <use transform="translate(51.87 26.38)" width="100%" height="100%" xlink:href="#path828"/>
 <use id="use843" transform="translate(55.96 -4.087)" width="100%" height="100%" xlink:href="#path828"/>
 <use id="use845" transform="translate(19.7 84.96)" width="100%" height="100%" xlink:href="#use843"/>
 <use id="use847" transform="translate(3.5 -60.84)" width="100%" height="100%" xlink:href="#use845"/>
 <use id="use849" transform="translate(-4.557 31.25)" width="100%" height="100%" xlink:href="#use847"/>
 <use id="use851" transform="translate(-51.34 -25.69)" width="100%" height="100%" xlink:href="#use849"/>
 <use id="use853" transform="translate(4.352 -28.82)" width="100%" height="100%" xlink:href="#use851"/>
 <use transform="translate(19.48 58.51)" width="100%" height="100%" xlink:href="#use853"/>
</svg>
