<?xml version="1.0" encoding="UTF-8" standalone="no"?>
<svg
   xmlns:dc="http://purl.org/dc/elements/1.1/"
   xmlns:cc="http://creativecommons.org/ns#"
   xmlns:rdf="http://www.w3.org/1999/02/22-rdf-syntax-ns#"
   xmlns:svg="http://www.w3.org/2000/svg"
   xmlns="http://www.w3.org/2000/svg"
   xmlns:sodipodi="http://sodipodi.sourceforge.net/DTD/sodipodi-0.dtd"
   xmlns:inkscape="http://www.inkscape.org/namespaces/inkscape"
   viewBox="0 0 100 110"
   version="1.1"
   id="svg4"
   sodipodi:docname="six.svg"
   inkscape:version="0.92.4 (5da689c313, 2019-01-14)">
  <metadata
     id="metadata10">
    <rdf:RDF>
      <cc:Work
         rdf:about="">
        <dc:format>image/svg+xml</dc:format>
        <dc:type
           rdf:resource="http://purl.org/dc/dcmitype/StillImage" />
        <dc:title></dc:title>
      </cc:Work>
    </rdf:RDF>
  </metadata>
  <defs
     id="defs8" />
  <sodipodi:namedview
     pagecolor="#ffffff"
     bordercolor="#666666"
     borderopacity="1"
     objecttolerance="10"
     gridtolerance="10"
     guidetolerance="10"
     inkscape:pageopacity="0"
     inkscape:pageshadow="2"
     inkscape:window-width="1920"
     inkscape:window-height="1020"
     id="namedview6"
     showgrid="false"
     inkscape:zoom="3.0341309"
     inkscape:cx="19.064571"
     inkscape:cy="56.678605"
     inkscape:window-x="0"
     inkscape:window-y="0"
     inkscape:window-maximized="1"
     inkscape:current-layer="svg4" />
  <path
     style="fill:#000000;fill-opacity:1;stroke:none;stroke-width:0.40000001;stroke-opacity:1"
     d="m 62.805958,2.970899 c -0.02064,4.068832 0.04366,8.139501 -0.03672,12.207048 -0.259127,5.095569 -3.255053,9.70254 -7.260644,12.716041 -1.689617,1.292644 -3.531533,2.400867 -5.502636,3.207379 -5.186708,-2.207844 -9.92896,-6.196564 -11.879455,-11.61446 -1.236998,-3.223797 -0.857898,-6.701688 -0.920545,-10.074283 0,-2.147241 0,-4.294483 0,-6.441725 8.533334,0 17.066667,0 25.6,0 z"
     id="path828"
     inkscape:connector-curvature="0" />
  <path
     style="fill:#000000;fill-opacity:1;stroke:none;stroke-width:0.40000001;stroke-opacity:1"
     d="m 30.805958,2.970899 c -0.02064,4.068832 0.04366,8.139501 -0.03672,12.207048 -0.259127,5.095569 -3.255053,9.70254 -7.260644,12.716041 -1.689617,1.292644 -3.531533,2.400867 -5.502636,3.207379 C 12.81925,28.893523 8.076998,24.904803 6.126503,19.486907 4.889505,16.26311 5.268605,12.785219 5.205958,9.412624 c 0,-2.147241 0,-4.294483 0,-6.441725 8.533334,0 17.066667,0 25.6,0 z"
     id="path828-9"
     inkscape:connector-curvature="0" />
  <path
     style="fill:#000000;fill-opacity:1;stroke:none;stroke-width:0.40000001;stroke-opacity:1"
     d="m 84.805958,34.970899 c -0.02064,4.068832 0.04366,8.139501 -0.03672,12.207048 -0.259127,5.095569 -3.255053,9.70254 -7.260644,12.716041 -1.689617,1.292644 -3.531533,2.400867 -5.502636,3.207379 -5.186708,-2.207844 -9.92896,-6.196564 -11.879455,-11.61446 -1.236998,-3.223797 -0.857898,-6.701688 -0.920545,-10.074283 0,-2.147241 0,-4.294483 0,-6.441725 8.533334,0 17.066667,0 25.6,0 z"
     id="path828-3"
     inkscape:connector-curvature="0" />
  <path
     style="fill:#000000;fill-opacity:1;stroke:none;stroke-width:0.40000001;stroke-opacity:1"
     d="m 40.805958,34.970899 c -0.02064,4.068832 0.04366,8.139501 -0.03672,12.207048 -0.259127,5.095569 -3.255053,9.70254 -7.260644,12.716041 -1.689617,1.292644 -3.531533,2.400867 -5.502636,3.207379 -5.186708,-2.207844 -9.92896,-6.196564 -11.879455,-11.61446 -1.236998,-3.223797 -0.857898,-6.701688 -0.920545,-10.074283 0,-2.147241 0,-4.294483 0,-6.441725 8.533334,0 17.066667,0 25.6,0 z"
     id="path828-9-9"
     inkscape:connector-curvature="0" />
  <path
     style="fill:#000000;fill-opacity:1;stroke:none;stroke-width:0.40000001;stroke-opacity:1"
     d="m 62.805958,62.970899 c -0.02064,4.068832 0.04366,8.139501 -0.03672,12.207048 -0.259127,5.095569 -3.255053,9.70254 -7.260644,12.716043 -1.689617,1.29264 -3.531533,2.40087 -5.502636,3.20738 -5.186708,-2.20785 -9.92896,-6.196567 -11.879455,-11.614463 -1.236998,-3.223797 -0.857898,-6.701688 -0.920545,-10.074283 0,-2.147241 0,-4.294483 0,-6.441725 8.533334,0 17.066667,0 25.6,0 z"
     id="path828-9-2"
     inkscape:connector-curvature="0" />
  <path
     style="fill:#000000;fill-opacity:1;stroke:none;stroke-width:0.40000001;stroke-opacity:1"
     d="m 94.80596,2.9709 c -0.0206,4.068832 0.0437,8.139501 -0.0367,12.207048 -0.25913,5.095569 -3.25506,9.70254 -7.26065,12.716041 -1.68961,1.292644 -3.53153,2.400867 -5.50263,3.207379 -5.18671,-2.207844 -9.928962,-6.196564 -11.879457,-11.61446 -1.236998,-3.223797 -0.857898,-6.701688 -0.920545,-10.074283 0,-2.147241 0,-4.294483 0,-6.441725 8.533332,0 17.066672,0 25.600002,0 z"
     id="path828-9-1"
     inkscape:connector-curvature="0" />
</svg>
