<?xml version="1.0" encoding="UTF-8" standalone="no"?>
<svg
   xmlns:dc="http://purl.org/dc/elements/1.1/"
   xmlns:cc="http://creativecommons.org/ns#"
   xmlns:rdf="http://www.w3.org/1999/02/22-rdf-syntax-ns#"
   xmlns:svg="http://www.w3.org/2000/svg"
   xmlns="http://www.w3.org/2000/svg"
   xmlns:sodipodi="http://sodipodi.sourceforge.net/DTD/sodipodi-0.dtd"
   xmlns:inkscape="http://www.inkscape.org/namespaces/inkscape"
   inkscape:version="1.0 (4035a4fb49, 2020-05-01)"
   sodipodi:docname="six.svg"
   id="svg4"
   version="1.1"
   viewBox="0 0 100 110">
  <metadata
     id="metadata10">
    <rdf:RDF>
      <cc:Work
         rdf:about="">
        <dc:format>image/svg+xml</dc:format>
        <dc:type
           rdf:resource="http://purl.org/dc/dcmitype/StillImage" />
        <dc:title />
      </cc:Work>
    </rdf:RDF>
  </metadata>
  <defs
     id="defs8" />
  <sodipodi:namedview
     inkscape:document-rotation="0"
     inkscape:current-layer="svg4"
     inkscape:window-maximized="1"
     inkscape:window-y="0"
     inkscape:window-x="0"
     inkscape:cy="56.678605"
     inkscape:cx="19.064571"
     inkscape:zoom="3.0341309"
     showgrid="false"
     id="namedview6"
     inkscape:window-height="1020"
     inkscape:window-width="1920"
     inkscape:pageshadow="2"
     inkscape:pageopacity="0"
     guidetolerance="10"
     gridtolerance="10"
     objecttolerance="10"
     borderopacity="1"
     bordercolor="#666666"
     pagecolor="#ffffff" />
  <path
     inkscape:connector-curvature="0"
     id="path828"
     d="m 60.245621,11.783946 c -0.01651,3.255066 0.03493,6.511601 -0.02938,9.765639 -0.207301,4.076455 -2.604042,7.762031 -5.808515,10.172832 -1.351694,1.034115 -2.825226,1.920694 -4.402109,2.565903 -4.149366,-1.766275 -7.943168,-4.957251 -9.503564,-9.291568 -0.989598,-2.579037 -0.686318,-5.36135 -0.736436,-8.059426 0,-1.717793 0,-3.435586 0,-5.15338 6.826667,0 13.653334,0 20.48,0 z"
     style="fill:#000000;fill-opacity:1;stroke:none;stroke-width:0.32;stroke-opacity:1" />
  <path
     inkscape:connector-curvature="0"
     id="path828-9"
     d="m 34.645621,11.783946 c -0.01651,3.255066 0.03493,6.511601 -0.02938,9.765639 -0.207301,4.076455 -2.604042,7.762031 -5.808515,10.172832 -1.351694,1.034115 -2.825226,1.920694 -4.402109,2.565903 -4.149366,-1.766275 -7.943168,-4.957251 -9.503564,-9.291568 -0.989598,-2.579037 -0.686318,-5.36135 -0.736436,-8.059426 0,-1.717793 0,-3.435586 0,-5.15338 6.826667,0 13.653334,0 20.48,0 z"
     style="fill:#000000;fill-opacity:1;stroke:none;stroke-width:0.32;stroke-opacity:1" />
  <path
     inkscape:connector-curvature="0"
     id="path828-3"
     d="m 77.845621,37.383946 c -0.01651,3.255066 0.03493,6.511601 -0.02938,9.765638 -0.207301,4.076456 -2.604042,7.762032 -5.808515,10.172833 -1.351694,1.034115 -2.825226,1.920694 -4.402109,2.565903 -4.149366,-1.766275 -7.943168,-4.957251 -9.503564,-9.291568 -0.989598,-2.579037 -0.686318,-5.36135 -0.736436,-8.059426 0,-1.717793 0,-3.435586 0,-5.15338 6.826667,0 13.653334,0 20.48,0 z"
     style="fill:#000000;fill-opacity:1;stroke:none;stroke-width:0.32;stroke-opacity:1" />
  <path
     inkscape:connector-curvature="0"
     id="path828-9-9"
     d="m 42.645621,37.383946 c -0.01651,3.255066 0.03493,6.511601 -0.02938,9.765638 -0.207301,4.076456 -2.604042,7.762032 -5.808515,10.172833 -1.351694,1.034115 -2.825226,1.920694 -4.402109,2.565903 -4.149366,-1.766275 -7.943168,-4.957251 -9.503564,-9.291568 -0.989598,-2.579037 -0.686318,-5.36135 -0.736436,-8.059426 0,-1.717793 0,-3.435586 0,-5.15338 6.826667,0 13.653334,0 20.48,0 z"
     style="fill:#000000;fill-opacity:1;stroke:none;stroke-width:0.32;stroke-opacity:1" />
  <path
     inkscape:connector-curvature="0"
     id="path828-9-2"
     d="m 60.245621,59.783946 c -0.01651,3.255066 0.03493,6.511601 -0.02938,9.765638 -0.207301,4.076456 -2.604042,7.762032 -5.808515,10.172835 -1.351694,1.034112 -2.825226,1.920696 -4.402109,2.565904 -4.149366,-1.76628 -7.943168,-4.957254 -9.503564,-9.291571 -0.989598,-2.579037 -0.686318,-5.36135 -0.736436,-8.059426 0,-1.717793 0,-3.435586 0,-5.15338 6.826667,0 13.653334,0 20.48,0 z"
     style="fill:#000000;fill-opacity:1;stroke:none;stroke-width:0.32;stroke-opacity:1" />
  <path
     inkscape:connector-curvature="0"
     id="path828-9-1"
     d="m 85.845623,11.783947 c -0.01648,3.255066 0.03496,6.511601 -0.02936,9.765638 -0.207304,4.076456 -2.604048,7.762032 -5.80852,10.172833 -1.351688,1.034115 -2.825224,1.920694 -4.402104,2.565903 -4.149368,-1.766275 -7.94317,-4.957251 -9.503566,-9.291568 -0.989598,-2.579037 -0.686318,-5.36135 -0.736436,-8.059426 0,-1.717793 0,-3.435586 0,-5.15338 6.826666,0 13.653338,0 20.480002,0 z"
     style="fill:#000000;fill-opacity:1;stroke:none;stroke-width:0.32;stroke-opacity:1" />
</svg>
