<?xml version="1.0" encoding="UTF-8"?>
<svg version="1.1" viewBox="0 0 100 110" xmlns="http://www.w3.org/2000/svg" xmlns:cc="http://creativecommons.org/ns#" xmlns:dc="http://purl.org/dc/elements/1.1/" xmlns:rdf="http://www.w3.org/1999/02/22-rdf-syntax-ns#" xmlns:xlink="http://www.w3.org/1999/xlink">
 <metadata>
  <rdf:RDF>
   <cc:Work rdf:about="">
    <dc:format>image/svg+xml</dc:format>
    <dc:type rdf:resource="http://purl.org/dc/dcmitype/StillImage"/>
    <dc:title/>
   </cc:Work>
  </rdf:RDF>
 </metadata>
 <path id="path828" d="m25.71 2.419c-0.01456 2.87 0.0308 5.742-0.02592 8.611-0.1828 3.595-2.296 6.844-5.122 8.97-1.192 0.9119-2.491 1.694-3.882 2.263-3.659-1.557-7.004-4.371-8.38-8.193-0.8726-2.274-0.6052-4.728-0.6494-7.107v-4.544h18.06z"/>
 <use transform="translate(69.54 81.9)" width="100%" height="100%" xlink:href="#path828"/>
 <use id="use843" transform="translate(69.27 32.61)" width="100%" height="100%" xlink:href="#path828"/>
 <use transform="translate(-26.87 22.72)" width="100%" height="100%" xlink:href="#use843"/>
 <path id="use851" d="m46.62 27.95c-0.01452 2.87 0.03087 5.742-0.02591 8.611-0.1828 3.595-2.296 6.844-5.122 8.97-1.192 0.9119-2.491 1.694-3.882 2.263-3.659-1.557-7.004-4.371-8.38-8.193-0.8726-2.274-0.6052-4.728-0.6494-7.107v-4.544h18.06z"/>
 <use transform="translate(22.22 -21.77)" width="100%" height="100%" xlink:href="#use851"/>
</svg>
