<?xml version="1.0" encoding="UTF-8" standalone="no"?>
<svg
   xmlns:dc="http://purl.org/dc/elements/1.1/"
   xmlns:cc="http://creativecommons.org/ns#"
   xmlns:rdf="http://www.w3.org/1999/02/22-rdf-syntax-ns#"
   xmlns:svg="http://www.w3.org/2000/svg"
   xmlns="http://www.w3.org/2000/svg"
   xmlns:sodipodi="http://sodipodi.sourceforge.net/DTD/sodipodi-0.dtd"
   xmlns:inkscape="http://www.inkscape.org/namespaces/inkscape"
   viewBox="0 0 100 110"
   version="1.1"
   id="svg4"
   sodipodi:docname="ten.svg"
   inkscape:version="0.92.4 (5da689c313, 2019-01-14)">
  <metadata
     id="metadata10">
    <rdf:RDF>
      <cc:Work
         rdf:about="">
        <dc:format>image/svg+xml</dc:format>
        <dc:type
           rdf:resource="http://purl.org/dc/dcmitype/StillImage" />
        <dc:title></dc:title>
      </cc:Work>
    </rdf:RDF>
  </metadata>
  <defs
     id="defs8" />
  <sodipodi:namedview
     pagecolor="#ffffff"
     bordercolor="#666666"
     borderopacity="1"
     objecttolerance="10"
     gridtolerance="10"
     guidetolerance="10"
     inkscape:pageopacity="0"
     inkscape:pageshadow="2"
     inkscape:window-width="1920"
     inkscape:window-height="1020"
     id="namedview6"
     showgrid="false"
     inkscape:zoom="3.0341309"
     inkscape:cx="19.064571"
     inkscape:cy="56.678605"
     inkscape:window-x="0"
     inkscape:window-y="0"
     inkscape:window-maximized="1"
     inkscape:current-layer="svg4" />
  <path
     style="fill:#000000;fill-opacity:1;stroke:none;stroke-width:0.28799999;stroke-opacity:1"
     d="m 59.221486,26.309165 c -0.01486,2.929559 0.03144,5.860441 -0.02644,8.789075 -0.186571,3.668809 -2.343638,6.985829 -5.227663,9.155549 -1.216525,0.930704 -2.542704,1.728624 -3.961899,2.309313 -3.734429,-1.589648 -7.148851,-4.461527 -8.553207,-8.362411 -0.890638,-2.321134 -0.617686,-4.825216 -0.662793,-7.253484 0,-1.546014 0,-3.092028 0,-4.638042 6.144001,0 12.288001,0 18.432,0 z"
     id="path828"
     inkscape:connector-curvature="0" />
  <path
     style="fill:#000000;fill-opacity:1;stroke:none;stroke-width:0.28799999;stroke-opacity:1"
     d="m 27.181486,26.309165 c -0.01486,2.929559 0.03144,5.860441 -0.02644,8.789075 -0.186571,3.668809 -2.343638,6.985829 -5.227663,9.155549 -1.216525,0.930704 -2.542704,1.728624 -3.961899,2.309313 -3.734429,-1.589648 -7.148851,-4.461527 -8.5532071,-8.362411 -0.8906382,-2.321134 -0.6176862,-4.825216 -0.6627924,-7.253484 0,-1.546014 0,-3.092028 0,-4.638042 6.1440005,0 12.2880005,0 18.4319995,0 z"
     id="path828-9"
     inkscape:connector-curvature="0" />
  <path
     style="fill:#000000;fill-opacity:1;stroke:none;stroke-width:0.28799999;stroke-opacity:1"
     d="m 40.421486,76.709165 c -0.01486,2.929559 0.03144,5.860441 -0.02644,8.789075 -0.186571,3.668809 -2.343638,6.985828 -5.227663,9.15555 -1.216525,0.930701 -2.542704,1.728627 -3.961899,2.309314 -3.734429,-1.589652 -7.148851,-4.461529 -8.553207,-8.362414 -0.890638,-2.321133 -0.617686,-4.825215 -0.662793,-7.253483 0,-1.546014 0,-3.092028 0,-4.638042 6.144001,0 12.288001,0 18.432,0 z"
     id="path828-9-2"
     inkscape:connector-curvature="0" />
  <path
     style="fill:#000000;fill-opacity:1;stroke:none;stroke-width:0.28799999;stroke-opacity:1"
     d="m 91.261488,26.309166 c -0.01483,2.929559 0.03146,5.860441 -0.02642,8.789074 -0.186574,3.66881 -2.343643,6.985829 -5.227668,9.15555 -1.216519,0.930703 -2.542702,1.728624 -3.961894,2.309312 -3.734431,-1.589647 -7.148853,-4.461526 -8.553209,-8.362411 -0.890638,-2.321133 -0.617686,-4.825215 -0.662793,-7.253483 0,-1.546014 0,-3.092028 0,-4.638042 6.144,0 12.288005,0 18.432002,0 z"
     id="path828-9-1"
     inkscape:connector-curvature="0" />
  <path
     style="fill:#000000;fill-opacity:1;stroke:none;stroke-width:0.28799999;stroke-opacity:1"
     d="m 59.221486,56.909166 c -0.01486,2.929559 0.03144,5.860441 -0.02644,8.789074 -0.186571,3.66881 -2.343638,6.985829 -5.227663,9.15555 -1.216525,0.930703 -2.542704,1.728624 -3.961899,2.309312 -3.734429,-1.589647 -7.148851,-4.461526 -8.553207,-8.362411 -0.890638,-2.321133 -0.617686,-4.825215 -0.662793,-7.253483 0,-1.546014 0,-3.092028 0,-4.638042 6.144001,0 12.288001,0 18.432,0 z"
     id="path828-7"
     inkscape:connector-curvature="0" />
  <path
     style="fill:#000000;fill-opacity:1;stroke:none;stroke-width:0.28799999;stroke-opacity:1"
     d="m 78.021485,76.709165 c -0.01485,2.929559 0.03141,5.860441 -0.02646,8.789075 -0.18657,3.668809 -2.343637,6.985828 -5.227662,9.15555 -1.216525,0.930701 -2.542704,1.728627 -3.961899,2.309314 -3.734429,-1.589652 -7.148851,-4.461529 -8.553207,-8.362414 -0.890638,-2.321133 -0.617686,-4.825215 -0.662793,-7.253483 0,-1.546014 0,-3.092028 0,-4.638042 6.144001,0 12.288001,0 18.432003,0 z"
     id="path828-9-2-4"
     inkscape:connector-curvature="0" />
  <path
     style="fill:#000000;fill-opacity:1;stroke:none;stroke-width:0.28799999;stroke-opacity:1"
     d="m 30.421486,52.709165 c -0.01486,2.929559 0.03144,5.860441 -0.02644,8.789075 -0.186571,3.668809 -2.343638,6.985828 -5.227663,9.15555 -1.216525,0.930701 -2.542704,1.728627 -3.961899,2.309314 -3.734429,-1.589652 -7.148851,-4.461529 -8.553207,-8.362414 -0.890638,-2.321133 -0.617686,-4.825215 -0.662793,-7.253483 0,-1.546014 0,-3.092028 0,-4.638042 6.144001,0 12.288001,0 18.432,0 z"
     id="path828-9-2-9"
     inkscape:connector-curvature="0" />
  <path
     style="fill:#000000;fill-opacity:1;stroke:none;stroke-width:0.28799999;stroke-opacity:1"
     d="m 88.021485,52.709165 c -0.01485,2.929559 0.03141,5.860441 -0.02646,8.789075 -0.18657,3.668809 -2.343637,6.985828 -5.227662,9.15555 -1.216525,0.930701 -2.542704,1.728627 -3.961899,2.309314 -3.734429,-1.589652 -7.148851,-4.461529 -8.553207,-8.362414 -0.890638,-2.321133 -0.617686,-4.825215 -0.662793,-7.253483 0,-1.546014 0,-3.092028 0,-4.638042 6.144001,0 12.288001,0 18.432003,0 z"
     id="path828-9-2-4-3"
     inkscape:connector-curvature="0" />
  <path
     style="fill:#000000;fill-opacity:1;stroke:none;stroke-width:0.28799999;stroke-opacity:1"
     d="m 42.421486,2.709165 c -0.01486,2.929559 0.03144,5.860441 -0.02644,8.789075 -0.186571,3.668809 -2.343638,6.985828 -5.227663,9.15555 -1.216525,0.930701 -2.542704,1.728627 -3.961899,2.309314 -3.734429,-1.589652 -7.148851,-4.461529 -8.553207,-8.362414 -0.890638,-2.321133 -0.617686,-4.825215 -0.662793,-7.253483 0,-1.546014 0,-3.092028 0,-4.638042 6.144001,0 12.288001,0 18.432,0 z"
     id="path828-9-2-5"
     inkscape:connector-curvature="0" />
  <path
     style="fill:#000000;fill-opacity:1;stroke:none;stroke-width:0.28799999;stroke-opacity:1"
     d="m 76.021485,2.709165 c -0.01485,2.929559 0.03141,5.860441 -0.02646,8.789075 -0.18657,3.668809 -2.343637,6.985828 -5.227662,9.15555 -1.216525,0.930701 -2.542704,1.728627 -3.961899,2.309314 -3.734429,-1.589652 -7.148851,-4.461529 -8.553207,-8.362414 -0.890638,-2.321133 -0.617686,-4.825215 -0.662793,-7.253483 0,-1.546014 0,-3.092028 0,-4.638042 6.144001,0 12.288001,0 18.432003,0 z"
     id="path828-9-2-4-7"
     inkscape:connector-curvature="0" />
</svg>
