<?xml version="1.0" encoding="UTF-8"?>
<svg version="1.1" viewBox="0 0 100 110" xmlns="http://www.w3.org/2000/svg" xmlns:cc="http://creativecommons.org/ns#" xmlns:dc="http://purl.org/dc/elements/1.1/" xmlns:rdf="http://www.w3.org/1999/02/22-rdf-syntax-ns#" xmlns:xlink="http://www.w3.org/1999/xlink">
 <metadata>
  <rdf:RDF>
   <cc:Work rdf:about="">
    <dc:format>image/svg+xml</dc:format>
    <dc:type rdf:resource="http://purl.org/dc/dcmitype/StillImage"/>
    <dc:title/>
   </cc:Work>
  </rdf:RDF>
 </metadata>
 <path id="path828" d="m57.38 33.01c-0.01189 2.344 0.02515 4.688-0.02115 7.031-0.1493 2.935-1.875 5.589-4.182 7.324-0.9732 0.7446-2.034 1.383-3.17 1.847-2.988-1.272-5.719-3.569-6.843-6.69-0.7125-1.857-0.4941-3.86-0.5302-5.803v-3.71h14.75z"/>
 <use id="use839" transform="translate(20,-20)" width="100%" height="100%" xlink:href="#path828"/>
 <use transform="translate(-40)" width="100%" height="100%" xlink:href="#use839"/>
 <use id="use843" transform="translate(-30)" width="100%" height="100%" xlink:href="#path828"/>
 <use id="use845" transform="translate(60)" width="100%" height="100%" xlink:href="#use843"/>
 <use id="use847" transform="translate(-10 20)" width="100%" height="100%" xlink:href="#use845"/>
 <use id="use849" transform="translate(-40)" width="100%" height="100%" xlink:href="#use847"/>
 <use id="use851" transform="translate(20,20)" width="100%" height="100%" xlink:href="#use849"/>
 <use id="use853" transform="translate(-30)" width="100%" height="100%" xlink:href="#use851"/>
 <use transform="translate(60)" width="100%" height="100%" xlink:href="#use853"/>
</svg>
