<?xml version="1.0" encoding="UTF-8" standalone="no"?>
<svg
   xmlns:dc="http://purl.org/dc/elements/1.1/"
   xmlns:cc="http://creativecommons.org/ns#"
   xmlns:rdf="http://www.w3.org/1999/02/22-rdf-syntax-ns#"
   xmlns:svg="http://www.w3.org/2000/svg"
   xmlns="http://www.w3.org/2000/svg"
   xmlns:sodipodi="http://sodipodi.sourceforge.net/DTD/sodipodi-0.dtd"
   xmlns:inkscape="http://www.inkscape.org/namespaces/inkscape"
   inkscape:version="1.0 (4035a4fb49, 2020-05-01)"
   sodipodi:docname="ten.svg"
   id="svg4"
   version="1.1"
   viewBox="0 0 100 110">
  <metadata
     id="metadata10">
    <rdf:RDF>
      <cc:Work
         rdf:about="">
        <dc:format>image/svg+xml</dc:format>
        <dc:type
           rdf:resource="http://purl.org/dc/dcmitype/StillImage" />
        <dc:title />
      </cc:Work>
    </rdf:RDF>
  </metadata>
  <defs
     id="defs8" />
  <sodipodi:namedview
     inkscape:document-rotation="0"
     inkscape:current-layer="svg4"
     inkscape:window-maximized="1"
     inkscape:window-y="0"
     inkscape:window-x="0"
     inkscape:cy="56.678605"
     inkscape:cx="19.064571"
     inkscape:zoom="3.0341309"
     showgrid="false"
     id="namedview6"
     inkscape:window-height="1020"
     inkscape:window-width="1920"
     inkscape:pageshadow="2"
     inkscape:pageopacity="0"
     guidetolerance="10"
     gridtolerance="10"
     objecttolerance="10"
     borderopacity="1"
     bordercolor="#666666"
     pagecolor="#ffffff" />
  <path
     inkscape:connector-curvature="0"
     id="path828"
     d="m 57.378043,31.014559 c -0.01189,2.343647 0.02515,4.688353 -0.02115,7.03126 -0.149256,2.935047 -1.87491,5.588663 -4.18213,7.324439 -0.97322,0.744563 -2.034163,1.382899 -3.169519,1.84745 -2.987543,-1.271718 -5.719081,-3.569221 -6.842566,-6.689928 -0.71251,-1.856908 -0.494149,-3.860173 -0.530234,-5.802788 0,-1.236811 0,-2.473622 0,-3.710433 4.915201,0 9.830401,0 14.7456,0 z"
     style="fill:#000000;fill-opacity:1;stroke:none;stroke-width:0.2304;stroke-opacity:1" />
  <path
     inkscape:connector-curvature="0"
     id="path828-9"
     d="m 31.746043,31.014559 c -0.01189,2.343647 0.02515,4.688353 -0.02115,7.03126 -0.149256,2.935047 -1.87491,5.588663 -4.18213,7.324439 -0.97322,0.744563 -2.034163,1.382899 -3.169519,1.84745 -2.987543,-1.271718 -5.719081,-3.569221 -6.842566,-6.689928 -0.71251,-1.856908 -0.494149,-3.860173 -0.530234,-5.802788 0,-1.236811 0,-2.473622 0,-3.710433 4.915201,0 9.830401,0 14.7456,0 z"
     style="fill:#000000;fill-opacity:1;stroke:none;stroke-width:0.2304;stroke-opacity:1" />
  <path
     inkscape:connector-curvature="0"
     id="path828-9-2"
     d="m 42.338043,71.334559 c -0.01189,2.343647 0.02515,4.688353 -0.02115,7.03126 -0.149256,2.935047 -1.87491,5.588662 -4.18213,7.32444 -0.97322,0.744561 -2.034163,1.382901 -3.169519,1.847451 -2.987543,-1.271722 -5.719081,-3.569223 -6.842566,-6.689931 -0.71251,-1.856907 -0.494149,-3.860172 -0.530234,-5.802787 0,-1.236811 0,-2.473622 0,-3.710433 4.915201,0 9.830401,0 14.745599,0 z"
     style="fill:#000000;fill-opacity:1;stroke:none;stroke-width:0.2304;stroke-opacity:1" />
  <path
     inkscape:connector-curvature="0"
     id="path828-9-1"
     d="m 83.010045,31.01456 c -0.01186,2.343647 0.02517,4.688352 -0.02114,7.031259 -0.149259,2.935048 -1.874914,5.588663 -4.182134,7.32444 -0.973216,0.744562 -2.034162,1.382899 -3.169516,1.847449 -2.987544,-1.271717 -5.719082,-3.56922 -6.842567,-6.689928 -0.71251,-1.856907 -0.494149,-3.860172 -0.530234,-5.802787 0,-1.236811 0,-2.473622 0,-3.710433 4.9152,0 9.830404,0 14.745601,0 z"
     style="fill:#000000;fill-opacity:1;stroke:none;stroke-width:0.2304;stroke-opacity:1" />
  <path
     inkscape:connector-curvature="0"
     id="path828-7"
     d="m 57.378043,55.49456 c -0.01189,2.343647 0.02515,4.688352 -0.02115,7.031259 -0.149256,2.935048 -1.87491,5.588663 -4.18213,7.32444 -0.97322,0.744562 -2.034163,1.382899 -3.169519,1.84745 -2.987543,-1.271718 -5.719081,-3.569221 -6.842566,-6.689929 -0.71251,-1.856907 -0.494149,-3.860172 -0.530234,-5.802787 0,-1.236811 0,-2.473622 0,-3.710433 4.915201,0 9.830401,0 14.7456,0 z"
     style="fill:#000000;fill-opacity:1;stroke:none;stroke-width:0.2304;stroke-opacity:1" />
  <path
     inkscape:connector-curvature="0"
     id="path828-9-2-4"
     d="m 72.418043,71.334559 c -0.01188,2.343647 0.02513,4.688353 -0.02117,7.03126 -0.149256,2.935047 -1.87491,5.588662 -4.18213,7.32444 -0.97322,0.744561 -2.034163,1.382901 -3.169519,1.847451 -2.987543,-1.271722 -5.719081,-3.569223 -6.842566,-6.689931 -0.71251,-1.856907 -0.494149,-3.860172 -0.530234,-5.802787 0,-1.236811 0,-2.473622 0,-3.710433 4.915201,0 9.830401,0 14.745602,0 z"
     style="fill:#000000;fill-opacity:1;stroke:none;stroke-width:0.2304;stroke-opacity:1" />
  <path
     inkscape:connector-curvature="0"
     id="path828-9-2-9"
     d="m 34.338043,52.134559 c -0.01189,2.343647 0.02515,4.688353 -0.02115,7.03126 -0.149256,2.935047 -1.87491,5.588662 -4.18213,7.32444 -0.97322,0.744561 -2.034163,1.382901 -3.169519,1.847451 -2.987543,-1.271722 -5.719081,-3.569223 -6.842566,-6.689931 -0.71251,-1.856907 -0.494149,-3.860172 -0.530234,-5.802787 0,-1.236811 0,-2.473622 0,-3.710433 4.915201,0 9.830401,0 14.745599,0 z"
     style="fill:#000000;fill-opacity:1;stroke:none;stroke-width:0.2304;stroke-opacity:1" />
  <path
     inkscape:connector-curvature="0"
     id="path828-9-2-4-3"
     d="m 80.418043,52.134559 c -0.01188,2.343647 0.02513,4.688353 -0.02117,7.03126 -0.149256,2.935047 -1.87491,5.588662 -4.18213,7.32444 -0.97322,0.744561 -2.034163,1.382901 -3.169519,1.847451 -2.987543,-1.271722 -5.719081,-3.569223 -6.842566,-6.689931 -0.71251,-1.856907 -0.494149,-3.860172 -0.530234,-5.802787 0,-1.236811 0,-2.473622 0,-3.710433 4.915201,0 9.830401,0 14.745602,0 z"
     style="fill:#000000;fill-opacity:1;stroke:none;stroke-width:0.2304;stroke-opacity:1" />
  <path
     inkscape:connector-curvature="0"
     id="path828-9-2-5"
     d="m 43.938043,12.134559 c -0.01189,2.343647 0.02515,4.688353 -0.02115,7.03126 -0.149256,2.935047 -1.87491,5.588662 -4.18213,7.32444 -0.97322,0.744561 -2.034163,1.382901 -3.169519,1.847451 -2.987543,-1.271722 -5.719081,-3.569223 -6.842566,-6.689931 -0.71251,-1.856907 -0.494149,-3.860172 -0.530234,-5.802787 0,-1.236811 0,-2.473622 0,-3.710433 4.915201,0 9.830401,0 14.7456,0 z"
     style="fill:#000000;fill-opacity:1;stroke:none;stroke-width:0.2304;stroke-opacity:1" />
  <path
     inkscape:connector-curvature="0"
     id="path828-9-2-4-7"
     d="m 70.818043,12.134559 c -0.01188,2.343647 0.02513,4.688353 -0.02117,7.03126 -0.149256,2.935047 -1.87491,5.588662 -4.18213,7.32444 -0.97322,0.744561 -2.034163,1.382901 -3.169519,1.847451 -2.987543,-1.271722 -5.719081,-3.569223 -6.842566,-6.689931 -0.71251,-1.856907 -0.494149,-3.860172 -0.530234,-5.802787 0,-1.236811 0,-2.473622 0,-3.710433 4.915201,0 9.830401,0 14.745602,0 z"
     style="fill:#000000;fill-opacity:1;stroke:none;stroke-width:0.2304;stroke-opacity:1" />
</svg>
