<?xml version="1.0" encoding="UTF-8" standalone="no"?>
<svg
   xmlns:dc="http://purl.org/dc/elements/1.1/"
   xmlns:cc="http://creativecommons.org/ns#"
   xmlns:rdf="http://www.w3.org/1999/02/22-rdf-syntax-ns#"
   xmlns:svg="http://www.w3.org/2000/svg"
   xmlns="http://www.w3.org/2000/svg"
   xmlns:sodipodi="http://sodipodi.sourceforge.net/DTD/sodipodi-0.dtd"
   xmlns:inkscape="http://www.inkscape.org/namespaces/inkscape"
   viewBox="0 0 100 110"
   version="1.1"
   id="svg4"
   sodipodi:docname="two.svg"
   inkscape:version="0.92.4 (5da689c313, 2019-01-14)">
  <metadata
     id="metadata10">
    <rdf:RDF>
      <cc:Work
         rdf:about="">
        <dc:format>image/svg+xml</dc:format>
        <dc:type
           rdf:resource="http://purl.org/dc/dcmitype/StillImage" />
        <dc:title></dc:title>
      </cc:Work>
    </rdf:RDF>
  </metadata>
  <defs
     id="defs8" />
  <sodipodi:namedview
     pagecolor="#ffffff"
     bordercolor="#666666"
     borderopacity="1"
     objecttolerance="10"
     gridtolerance="10"
     guidetolerance="10"
     inkscape:pageopacity="0"
     inkscape:pageshadow="2"
     inkscape:window-width="1920"
     inkscape:window-height="1020"
     id="namedview6"
     showgrid="false"
     inkscape:zoom="3.0341309"
     inkscape:cx="19.064571"
     inkscape:cy="56.678605"
     inkscape:window-x="0"
     inkscape:window-y="0"
     inkscape:window-maximized="1"
     inkscape:current-layer="svg4" />
  <path
     style="fill:#000000;fill-opacity:1;stroke:none;stroke-width:0.5;stroke-opacity:1"
     d="m 66.006384,7.45459 c -0.0258,5.08604 0.05457,10.174377 -0.0459,15.258811 -0.323909,6.369461 -4.068817,12.128174 -9.075805,15.895051 -2.112021,1.615805 -4.414417,3.001083 -6.878295,4.009224 -6.483385,-2.759805 -12.4112,-7.745705 -14.849319,-14.518076 -1.546247,-4.029746 -1.072373,-8.37711 -1.150681,-12.592853 0,-2.684052 0,-5.368104 0,-8.052157 10.666667,0 21.333334,0 32,0 z"
     id="path828"
     inkscape:connector-curvature="0" />
  <path
     style="fill:#000000;fill-opacity:1;stroke:none;stroke-width:0.5;stroke-opacity:1"
     d="m 66.006384,47.45459 c -0.0258,5.08604 0.05457,10.174377 -0.0459,15.258811 -0.323909,6.369461 -4.068817,12.128174 -9.075805,15.895051 -2.112021,1.615805 -4.414417,3.001083 -6.878295,4.009224 -6.483385,-2.759805 -12.4112,-7.745705 -14.849319,-14.518076 -1.546247,-4.029746 -1.072373,-8.37711 -1.150681,-12.592853 0,-2.684052 0,-5.368104 0,-8.052157 10.666667,0 21.333334,0 32,0 z"
     id="path828-7"
     inkscape:connector-curvature="0" />
</svg>
