<?xml version="1.0" encoding="UTF-8" standalone="no"?>
<svg
   xmlns:dc="http://purl.org/dc/elements/1.1/"
   xmlns:cc="http://creativecommons.org/ns#"
   xmlns:rdf="http://www.w3.org/1999/02/22-rdf-syntax-ns#"
   xmlns:svg="http://www.w3.org/2000/svg"
   xmlns="http://www.w3.org/2000/svg"
   xmlns:sodipodi="http://sodipodi.sourceforge.net/DTD/sodipodi-0.dtd"
   xmlns:inkscape="http://www.inkscape.org/namespaces/inkscape"
   viewBox="0 0 100 110"
   version="1.1"
   id="svg17"
   sodipodi:docname="semy.svg"
   inkscape:version="0.92.4 (5da689c313, 2019-01-14)">
  <metadata
     id="metadata23">
    <rdf:RDF>
      <cc:Work
         rdf:about="">
        <dc:format>image/svg+xml</dc:format>
        <dc:type
           rdf:resource="http://purl.org/dc/dcmitype/StillImage" />
        <dc:title></dc:title>
      </cc:Work>
    </rdf:RDF>
  </metadata>
  <defs
     id="defs21" />
  <sodipodi:namedview
     pagecolor="#ffffff"
     bordercolor="#666666"
     borderopacity="1"
     objecttolerance="10"
     gridtolerance="10"
     guidetolerance="10"
     inkscape:pageopacity="0"
     inkscape:pageshadow="2"
     inkscape:window-width="1920"
     inkscape:window-height="1020"
     id="namedview19"
     showgrid="false"
     inkscape:zoom="3.0341309"
     inkscape:cx="9.1390611"
     inkscape:cy="60.263754"
     inkscape:window-x="0"
     inkscape:window-y="0"
     inkscape:window-maximized="1"
     inkscape:current-layer="svg17" />
  <g
     id="g818-5-9"
     transform="matrix(0.28697814,0,0,0.28697814,-0.3489065,7.433642)">
    <rect
       width="50"
       height="10"
       y="30"
       x="25"
       id="rect6-7-5" />
    <rect
       width="10"
       height="85"
       x="45"
       y="10"
       id="rect8-1-0" />
  </g>
  <g
     id="g818-6-6-6"
     transform="matrix(0.28697814,0,0,0.28697814,71.651094,7.433642)">
    <rect
       width="50"
       height="10"
       y="30"
       x="25"
       id="rect6-2-9-0" />
    <rect
       width="10"
       height="85"
       x="45"
       y="10"
       id="rect8-8-8-8" />
  </g>
  <g
     id="g818-9-8-1-3"
     transform="matrix(0.28697814,0,0,0.28697814,15.901094,13.433642)">
    <rect
       width="50"
       height="10"
       y="30"
       x="25"
       id="rect6-6-8-3-7" />
    <rect
       width="10"
       height="85"
       x="45"
       y="10"
       id="rect8-0-6-3-8" />
  </g>
  <g
     id="g818-5-9-3"
     transform="matrix(0.28697814,0,0,0.28697814,5.6510935,35.433639)">
    <rect
       width="50"
       height="10"
       y="30"
       x="25"
       id="rect6-7-5-7" />
    <rect
       width="10"
       height="85"
       x="45"
       y="10"
       id="rect8-1-0-0" />
  </g>
  <g
     id="g818-6-6-6-6"
     transform="matrix(0.28697814,0,0,0.28697814,65.651094,35.433639)">
    <rect
       width="50"
       height="10"
       y="30"
       x="25"
       id="rect6-2-9-0-9" />
    <rect
       width="10"
       height="85"
       x="45"
       y="10"
       id="rect8-8-8-8-2" />
  </g>
  <g
     id="g818-9-8-1-3-1"
     transform="matrix(0.28697814,0,0,0.28697814,35.901094,27.433639)">
    <rect
       width="50"
       height="10"
       y="30"
       x="25"
       id="rect6-6-8-3-7-7" />
    <rect
       width="10"
       height="85"
       x="45"
       y="10"
       id="rect8-0-6-3-8-7" />
  </g>
  <g
     id="g818-5-9-8"
     transform="matrix(0.28697814,0,0,0.28697814,11.651094,63.433639)">
    <rect
       width="50"
       height="10"
       y="30"
       x="25"
       id="rect6-7-5-4" />
    <rect
       width="10"
       height="85"
       x="45"
       y="10"
       id="rect8-1-0-5" />
  </g>
  <g
     id="g818-6-6-6-65"
     transform="matrix(0.28697814,0,0,0.28697814,59.651094,63.433639)">
    <rect
       width="50"
       height="10"
       y="30"
       x="25"
       id="rect6-2-9-0-6" />
    <rect
       width="10"
       height="85"
       x="45"
       y="10"
       id="rect8-8-8-8-8" />
  </g>
  <g
     id="g818-9-8-1-3-4"
     transform="matrix(0.28697814,0,0,0.28697814,35.901094,55.433639)">
    <rect
       width="50"
       height="10"
       y="30"
       x="25"
       id="rect6-6-8-3-7-8" />
    <rect
       width="10"
       height="85"
       x="45"
       y="10"
       id="rect8-0-6-3-8-8" />
  </g>
  <g
     id="g818-9-8-1-3-0"
     transform="matrix(0.28697814,0,0,0.28697814,53.901094,13.433639)">
    <rect
       width="50"
       height="10"
       y="30"
       x="25"
       id="rect6-6-8-3-7-6" />
    <rect
       width="10"
       height="85"
       x="45"
       y="10"
       id="rect8-0-6-3-8-87" />
  </g>
  <g
     id="g818-9-8-1-3-1-5"
     transform="matrix(0.28697814,0,0,0.28697814,35.901094,-0.566361)">
    <rect
       width="50"
       height="10"
       y="30"
       x="25"
       id="rect6-6-8-3-7-7-1" />
    <rect
       width="10"
       height="85"
       x="45"
       y="10"
       id="rect8-0-6-3-8-7-1" />
  </g>
</svg>
