<?xml version="1.0" encoding="UTF-8" standalone="no"?>
<svg
   xmlns:dc="http://purl.org/dc/elements/1.1/"
   xmlns:cc="http://creativecommons.org/ns#"
   xmlns:rdf="http://www.w3.org/1999/02/22-rdf-syntax-ns#"
   xmlns:svg="http://www.w3.org/2000/svg"
   xmlns="http://www.w3.org/2000/svg"
   xmlns:sodipodi="http://sodipodi.sourceforge.net/DTD/sodipodi-0.dtd"
   xmlns:inkscape="http://www.inkscape.org/namespaces/inkscape"
   inkscape:version="1.0 (4035a4fb49, 2020-05-01)"
   sodipodi:docname="clover.svg"
   id="svg36"
   version="1.1"
   viewBox="0 0 100 110">
  <path
     id="path833-3-8-3-7-5"
     style="fill:#000000;fill-rule:evenodd;stroke-width:1.06951;stroke-linecap:square;stroke-linejoin:round;paint-order:fill markers stroke"
     d="m 9.9005658,0.15837486 c -1.440869,0.808622 -2.926765,2.47139504 -3.148539,4.42611504 -0.228435,2.013446 1.339309,3.673599 2.101144,5.5064861 -1.369962,-1.0952541 -2.237354,-2.4558231 -3.620857,-2.9730071 -0.004,-0.0015 -0.0085,-0.0019 -0.01234,0 -1.472919,0.702008 -3.529928,1.965231 -3.528562,3.9356731 0.0014,1.974278 1.96884,3.745136 3.540892,3.935672 1.617512,0.196049 2.89217,-2.719721 4.197803,-3.09912 l -0.989479,5.722281 c -0.540813,1.462762 -1.435025,1.749156 -1.922154,1.79408 h 3.481477 3.4814782 c -0.487131,-0.04495 -1.381342,-0.331318 -1.922156,-1.79408 l -0.989477,-5.722281 c 1.305633,0.379399 2.580292,3.295169 4.197803,3.09912 1.57205,-0.190536 3.539522,-1.961394 3.540891,-3.935672 0.0014,-1.9704421 -2.055641,-3.2336651 -3.528561,-3.9356731 -0.0038,-0.0019 -0.0084,-0.0015 -0.01234,0 -1.383504,0.517184 -2.250895,1.877753 -3.620856,2.9730071 0.761833,-1.8328871 2.329577,-3.4930401 2.101143,-5.5064861 -0.221773,-1.95472 -1.701652,-3.63446004 -3.148539,-4.42611504 -0.03036,-0.01661 -0.06626,0.0023 -0.0994,0.0023 -0.03314,0 -0.06626,-0.002 -0.0994,-0.0023 0,0 0,0 0,0 z"
     sodipodi:nodetypes="aacaaaacccccccaaaacaaaaa" />
  <path
     sodipodi:nodetypes="aacaaaacccccccaaaacaaaaa"
     d="m 49.900565,0.15837473 c -1.440868,0.808622 -2.926764,2.47139507 -3.148538,4.42611507 -0.228435,2.013446 1.339309,3.673599 2.101143,5.5064862 -1.369961,-1.0952542 -2.237353,-2.4558232 -3.620857,-2.9730072 -0.004,-0.0015 -0.0085,-0.0019 -0.01234,0 -1.472919,0.702008 -3.529928,1.965231 -3.528561,3.9356732 0.0014,1.974278 1.96884,3.745136 3.540892,3.935672 1.617512,0.196049 2.892169,-2.719721 4.197802,-3.09912 l -0.989478,5.722281 c -0.540813,1.462762 -1.435025,1.749156 -1.922155,1.79408 h 3.481478 3.481478 c -0.487131,-0.04495 -1.381342,-0.331318 -1.922156,-1.79408 l -0.989477,-5.722281 c 1.305633,0.379399 2.580292,3.295169 4.197803,3.09912 1.57205,-0.190536 3.539522,-1.961394 3.540891,-3.935672 0.0014,-1.9704422 -2.055641,-3.2336652 -3.528561,-3.9356732 -0.0038,-0.0019 -0.0084,-0.0015 -0.01234,0 -1.383504,0.517184 -2.250895,1.877753 -3.620856,2.9730072 0.761833,-1.8328872 2.329577,-3.4930402 2.101143,-5.5064862 -0.221773,-1.95472 -1.701652,-3.63446007 -3.148539,-4.42611507 -0.03036,-0.01661 -0.06626,0.0023 -0.0994,0.0023 -0.03314,0 -0.06626,-0.002 -0.0994,-0.0023 0,0 0,0 0,0 z"
     style="fill:#000000;fill-rule:evenodd;stroke-width:1.06951;stroke-linecap:square;stroke-linejoin:round;paint-order:fill markers stroke"
     id="path833-3-8-3-7-5-2" />
  <path
     sodipodi:nodetypes="aacaaaacccccccaaaacaaaaa"
     d="m 29.900565,0.15837473 c -1.440868,0.808622 -2.926764,2.47139507 -3.148538,4.42611507 -0.228435,2.013446 1.339309,3.673599 2.101143,5.5064862 -1.369961,-1.0952542 -2.237353,-2.4558232 -3.620857,-2.9730072 -0.004,-0.0015 -0.0085,-0.0019 -0.01234,0 -1.472919,0.702008 -3.529928,1.965231 -3.528561,3.9356732 0.0014,1.974278 1.96884,3.745136 3.540892,3.935672 1.617512,0.196049 2.892169,-2.719721 4.197802,-3.09912 l -0.989478,5.722281 c -0.540813,1.462762 -1.435025,1.749156 -1.922155,1.79408 h 3.481478 3.481478 c -0.487131,-0.04495 -1.381342,-0.331318 -1.922156,-1.79408 l -0.989477,-5.722281 c 1.305633,0.379399 2.580292,3.295169 4.197803,3.09912 1.57205,-0.190536 3.539522,-1.961394 3.540891,-3.935672 0.0014,-1.9704422 -2.055641,-3.2336652 -3.528561,-3.9356732 -0.0038,-0.0019 -0.0084,-0.0015 -0.01234,0 -1.383504,0.517184 -2.250895,1.877753 -3.620856,2.9730072 0.761833,-1.8328872 2.329577,-3.4930402 2.101143,-5.5064862 -0.221773,-1.95472 -1.701652,-3.63446007 -3.148539,-4.42611507 -0.03036,-0.01661 -0.06626,0.0023 -0.0994,0.0023 -0.03314,0 -0.06626,-0.002 -0.09939,-0.0023 0,0 0,0 0,0 z"
     style="fill:#000000;fill-rule:evenodd;stroke-width:1.06951;stroke-linecap:square;stroke-linejoin:round;paint-order:fill markers stroke"
     id="path833-3-8-3-7-5-7" />
  <path
     id="path833-3-8-3-7-5-7-0"
     style="fill:#000000;fill-rule:evenodd;stroke-width:1.06951;stroke-linecap:square;stroke-linejoin:round;paint-order:fill markers stroke"
     d="m 69.900565,0.15837473 c -1.440868,0.808622 -2.926764,2.47139507 -3.148538,4.42611507 -0.228435,2.013446 1.339309,3.673599 2.101143,5.5064862 -1.369961,-1.0952542 -2.237353,-2.4558232 -3.620857,-2.9730072 -0.004,-0.0015 -0.0085,-0.0019 -0.01234,0 -1.472919,0.702008 -3.529928,1.965231 -3.528561,3.9356732 0.0014,1.974278 1.96884,3.745136 3.540892,3.935672 1.617512,0.196049 2.892169,-2.719721 4.197802,-3.09912 l -0.989478,5.722281 c -0.540813,1.462762 -1.435025,1.749156 -1.922155,1.79408 h 3.481478 3.481478 c -0.487131,-0.04495 -1.381342,-0.331318 -1.922156,-1.79408 l -0.989477,-5.722281 c 1.305633,0.379399 2.580292,3.295169 4.197803,3.09912 1.57205,-0.190536 3.539522,-1.961394 3.540891,-3.935672 0.0014,-1.9704422 -2.055641,-3.2336652 -3.528561,-3.9356732 -0.0038,-0.0019 -0.0084,-0.0015 -0.01234,0 -1.383504,0.517184 -2.250895,1.877753 -3.620856,2.9730072 0.761833,-1.8328872 2.329577,-3.4930402 2.101143,-5.5064862 -0.221773,-1.95472 -1.701652,-3.63446007 -3.148539,-4.42611507 -0.03036,-0.01661 -0.06626,0.0023 -0.0994,0.0023 -0.03314,0 -0.06626,-0.002 -0.0994,-0.0023 0,0 0,0 0,0 z"
     sodipodi:nodetypes="aacaaaacccccccaaaacaaaaa" />
  <path
     sodipodi:nodetypes="aacaaaacccccccaaaacaaaaa"
     d="m 89.900565,0.15837473 c -1.440869,0.808622 -2.926765,2.47139507 -3.148538,4.42611507 -0.228435,2.013446 1.339309,3.673599 2.101143,5.5064862 -1.369962,-1.0952542 -2.237354,-2.4558232 -3.620857,-2.9730072 -0.004,-0.0015 -0.0085,-0.0019 -0.01234,0 -1.472919,0.702008 -3.529928,1.965231 -3.528561,3.9356732 0.0014,1.974278 1.96884,3.745136 3.540892,3.935672 1.617512,0.196049 2.892169,-2.719721 4.197802,-3.09912 l -0.989478,5.722281 c -0.540813,1.462762 -1.435025,1.749156 -1.922155,1.79408 h 3.481478 3.48148 c -0.487136,-0.04495 -1.381344,-0.331318 -1.92216,-1.79408 l -0.989472,-5.722281 c 1.305632,0.379399 2.580288,3.295169 4.1978,3.09912 1.572048,-0.190536 3.539521,-1.961394 3.540889,-3.935672 0.0016,-1.9704422 -2.055641,-3.2336652 -3.528561,-3.9356732 -0.004,-0.0019 -0.0084,-0.0015 -0.01232,0 -1.383504,0.517184 -2.250896,1.877753 -3.620856,2.9730072 0.761832,-1.8328872 2.329576,-3.4930402 2.101144,-5.5064862 -0.221768,-1.95472 -1.701648,-3.63446007 -3.148536,-4.42611507 -0.03032,-0.01661 -0.06624,0.0023 -0.0994,0.0023 -0.03314,0 -0.06626,-0.002 -0.0994,-0.0023 0,0 0,0 0,0 z"
     style="fill:#000000;fill-rule:evenodd;stroke-width:1.06951;stroke-linecap:square;stroke-linejoin:round;paint-order:fill markers stroke"
     id="path833-3-8-3-7-5-7-0-9" />
  <metadata
     id="metadata42">
    <rdf:RDF>
      <cc:Work
         rdf:about="">
        <dc:format>image/svg+xml</dc:format>
        <dc:type
           rdf:resource="http://purl.org/dc/dcmitype/StillImage" />
        <dc:title></dc:title>
      </cc:Work>
    </rdf:RDF>
  </metadata>
  <defs
     id="defs40">
    <inkscape:path-effect
       effect="mirror_symmetry"
       start_point="49.999996,3.5290504"
       end_point="49.999996,33.070951"
       center_point="49.999996,18.300001"
       id="path-effect2720"
       is_visible="true"
       lpeversion="1"
       mode="free"
       discard_orig_path="false"
       fuse_paths="false"
       oposite_fuse="false"
       split_items="false" />
    <inkscape:path-effect
       split_items="false"
       oposite_fuse="false"
       fuse_paths="false"
       discard_orig_path="false"
       mode="free"
       lpeversion="1"
       is_visible="true"
       id="path-effect1071"
       center_point="-1068.7578,-627.84278"
       end_point="-1068.7578,-592.88867"
       start_point="-1068.7578,-662.79688"
       effect="mirror_symmetry" />
    <inkscape:path-effect
       effect="mirror_symmetry"
       start_point="-1068.7578,-662.79688"
       end_point="-1068.7578,-592.88867"
       center_point="-1068.7578,-627.84278"
       id="path-effect1069"
       is_visible="true"
       lpeversion="1"
       mode="free"
       discard_orig_path="false"
       fuse_paths="false"
       oposite_fuse="false"
       split_items="false" />
    <inkscape:path-effect
       split_items="false"
       oposite_fuse="false"
       fuse_paths="false"
       discard_orig_path="false"
       mode="free"
       lpeversion="1"
       is_visible="true"
       id="path-effect1045"
       center_point="-1068.7578,-627.84278"
       end_point="-1068.7578,-592.88867"
       start_point="-1068.7578,-662.79688"
       effect="mirror_symmetry" />
    <inkscape:path-effect
       effect="mirror_symmetry"
       start_point="-1068.7578,-662.79688"
       end_point="-1068.7578,-592.88867"
       center_point="-1068.7578,-627.84278"
       id="path-effect1043"
       is_visible="true"
       lpeversion="1"
       mode="free"
       discard_orig_path="false"
       fuse_paths="false"
       oposite_fuse="false"
       split_items="false" />
    <inkscape:path-effect
       split_items="false"
       oposite_fuse="false"
       fuse_paths="false"
       discard_orig_path="false"
       mode="free"
       lpeversion="1"
       is_visible="true"
       id="path-effect1041"
       center_point="-1068.7578,-627.84278"
       end_point="-1068.7578,-592.88867"
       start_point="-1068.7578,-662.79688"
       effect="mirror_symmetry" />
    <inkscape:path-effect
       split_items="false"
       oposite_fuse="false"
       fuse_paths="false"
       discard_orig_path="false"
       mode="free"
       lpeversion="1"
       is_visible="true"
       id="path-effect1012"
       center_point="-1068.7578,-627.84278"
       end_point="-1068.7578,-592.88867"
       start_point="-1068.7578,-662.79688"
       effect="mirror_symmetry" />
    <inkscape:path-effect
       effect="mirror_symmetry"
       start_point="-1068.7578,-662.79688"
       end_point="-1068.7578,-592.88867"
       center_point="-1068.7578,-627.84278"
       id="path-effect1010"
       is_visible="true"
       lpeversion="1"
       mode="free"
       discard_orig_path="false"
       fuse_paths="false"
       oposite_fuse="false"
       split_items="false" />
    <inkscape:path-effect
       split_items="false"
       oposite_fuse="false"
       fuse_paths="false"
       discard_orig_path="false"
       mode="free"
       lpeversion="1"
       is_visible="true"
       id="path-effect974"
       center_point="-1068.7578,-627.84278"
       end_point="-1068.7578,-592.88867"
       start_point="-1068.7578,-662.79688"
       effect="mirror_symmetry" />
    <inkscape:path-effect
       split_items="false"
       oposite_fuse="false"
       fuse_paths="false"
       discard_orig_path="false"
       mode="free"
       lpeversion="1"
       is_visible="true"
       id="path-effect945"
       center_point="-1068.7578,-627.84278"
       end_point="-1068.7578,-592.88867"
       start_point="-1068.7578,-662.79688"
       effect="mirror_symmetry" />
    <inkscape:path-effect
       effect="mirror_symmetry"
       start_point="-1068.7578,-662.79688"
       end_point="-1068.7578,-592.88867"
       center_point="-1068.7578,-627.84278"
       id="path-effect916"
       is_visible="true"
       lpeversion="1"
       mode="free"
       discard_orig_path="false"
       fuse_paths="false"
       oposite_fuse="false"
       split_items="false" />
    <inkscape:path-effect
       only_selected="false"
       apply_with_weight="true"
       apply_no_weight="true"
       helper_size="0"
       steps="2"
       weight="33.333333"
       lpeversion="1"
       is_visible="true"
       id="path-effect1050"
       effect="bspline" />
    <inkscape:path-effect
       effect="bspline"
       id="path-effect1030"
       is_visible="true"
       lpeversion="1"
       weight="33.333333"
       steps="2"
       helper_size="0"
       apply_no_weight="true"
       apply_with_weight="true"
       only_selected="false" />
    <inkscape:path-effect
       effect="bspline"
       id="path-effect1001"
       is_visible="true"
       lpeversion="1"
       weight="33.333333"
       steps="2"
       helper_size="0"
       apply_no_weight="true"
       apply_with_weight="true"
       only_selected="false" />
    <inkscape:path-effect
       only_selected="false"
       apply_with_weight="true"
       apply_no_weight="true"
       helper_size="0"
       steps="2"
       weight="33.333333"
       lpeversion="1"
       is_visible="true"
       id="path-effect999"
       effect="bspline" />
    <inkscape:path-effect
       effect="bspline"
       id="path-effect975"
       is_visible="true"
       lpeversion="1"
       weight="33.333333"
       steps="2"
       helper_size="0"
       apply_no_weight="true"
       apply_with_weight="true"
       only_selected="false" />
    <inkscape:path-effect
       only_selected="false"
       apply_with_weight="true"
       apply_no_weight="true"
       helper_size="0"
       steps="2"
       weight="33.333333"
       lpeversion="1"
       is_visible="true"
       id="path-effect956"
       effect="bspline" />
    <clipPath
       id="ordi2-0">
      <circle
         id="circle19-4"
         r="3.75"
         cy="21.921255"
         cx="204.90433" />
      <circle
         id="circle21-8"
         r="3.75"
         cy="81.921257"
         cx="204.90433" />
      <circle
         id="circle23-8"
         r="3.75"
         cy="51.921257"
         cx="174.90433" />
      <circle
         id="circle25-8"
         r="3.75"
         cy="51.921257"
         cx="234.90433" />
    </clipPath>
  </defs>
  <sodipodi:namedview
     inkscape:snap-bbox-midpoints="false"
     inkscape:snap-bbox-edge-midpoints="true"
     inkscape:bbox-nodes="false"
     inkscape:bbox-paths="false"
     inkscape:snap-bbox="true"
     inkscape:document-rotation="0"
     inkscape:guide-bbox="true"
     showguides="true"
     inkscape:current-layer="svg36"
     inkscape:window-maximized="1"
     inkscape:window-y="0"
     inkscape:window-x="0"
     inkscape:cy="42.442762"
     inkscape:cx="-4.6412521"
     inkscape:zoom="4"
     showgrid="false"
     id="namedview38"
     inkscape:window-height="1020"
     inkscape:window-width="1920"
     inkscape:pageshadow="2"
     inkscape:pageopacity="0"
     guidetolerance="10"
     gridtolerance="10"
     objecttolerance="10"
     borderopacity="1"
     bordercolor="#666666"
     pagecolor="#ffffff"
     inkscape:snap-global="true"
     inkscape:snap-nodes="false" />
  <clipPath
     id="escu">
    <rect
       id="rect2"
       height="120"
       width="100" />
  </clipPath>
  <text
     id="text934"
     y="42.176289"
     x="-66.600601"
     style="font-style:normal;font-weight:normal;font-size:40px;line-height:1.25;font-family:sans-serif;fill:#000000;fill-opacity:1;stroke:none"
     xml:space="preserve"><tspan
       y="42.176289"
       x="-66.600601"
       id="tspan932"
       sodipodi:role="line" /></text>
  <text
     id="text944"
     y="0.78777015"
     x="-201.93855"
     style="font-style:normal;font-weight:normal;font-size:40px;line-height:1.25;font-family:sans-serif;fill:#000000;fill-opacity:1;stroke:none"
     xml:space="preserve"><tspan
       y="0.78777015"
       x="-201.93855"
       id="tspan942"
       sodipodi:role="line" /></text>
  <text
     id="text948"
     y="-76.685295"
     x="-159.68279"
     style="font-style:normal;font-weight:normal;font-size:40px;line-height:1.25;font-family:sans-serif;fill:#000000;fill-opacity:1;stroke:none"
     xml:space="preserve"><tspan
       y="-76.685295"
       x="-159.68279"
       id="tspan946"
       sodipodi:role="line" /></text>
  <path
     id="path833-3-8-3"
     style="fill:#000000;fill-rule:evenodd;stroke-width:1.06951;stroke-linecap:square;stroke-linejoin:round;paint-order:fill markers stroke"
     d="m 100.09939,17.111889 c 1.44087,0.808622 2.92677,2.471395 3.14854,4.426115 0.22843,2.013446 -1.33931,3.673599 -2.10114,5.506486 1.36996,-1.095254 2.23735,-2.455823 3.62085,-2.973007 0.004,-0.0015 0.008,-0.0019 0.0123,0 1.47292,0.702008 3.52993,1.965231 3.52856,3.935673 -10e-4,1.974278 -1.96884,3.745136 -3.54089,3.935672 -1.61751,0.196049 -2.89217,-2.719721 -4.1978,-3.09912 l 0.98947,5.722281 c 0.54082,1.462762 1.43503,1.749156 1.92216,1.79408 H 100 96.518531 c 0.48713,-0.04495 1.381341,-0.331318 1.922155,-1.79408 l 0.989477,-5.722281 c -1.305632,0.379399 -2.580292,3.295169 -4.197803,3.09912 -1.57205,-0.190536 -3.539521,-1.961394 -3.540891,-3.935672 -0.0014,-1.970442 2.055642,-3.233665 3.528561,-3.935673 0.0038,-0.0019 0.0084,-0.0015 0.01234,0 1.383504,0.517184 2.250895,1.877753 3.620857,2.973007 -0.761834,-1.832887 -2.329578,-3.49304 -2.101144,-5.506486 0.221773,-1.95472 1.701652,-3.63446 3.14854,-4.426115 0.03036,-0.01661 0.06626,0.0023 0.0994,0.0023 0.0331,0 0.0662,-0.002 0.0994,-0.0023 0,0 0,0 0,0 z"
     sodipodi:nodetypes="aacaaaacccccccaaaacaaaaa" />
  <path
     sodipodi:nodetypes="aacaaaacccccccaaaacaaaaa"
     d="m 60.099396,17.111889 c 1.440868,0.808622 2.926764,2.471395 3.148538,4.426115 0.228435,2.013446 -1.339309,3.673599 -2.101143,5.506486 1.369961,-1.095254 2.237353,-2.455823 3.620857,-2.973007 0.004,-0.0015 0.0085,-0.0019 0.01234,0 1.472919,0.702008 3.529928,1.965231 3.528561,3.935673 -0.0014,1.974278 -1.96884,3.745136 -3.540892,3.935672 -1.617512,0.196049 -2.892169,-2.719721 -4.197802,-3.09912 l 0.989478,5.722281 c 0.540813,1.462762 1.435025,1.749156 1.922155,1.79408 h -3.481482 -3.481478 c 0.487131,-0.04495 1.381342,-0.331318 1.922156,-1.79408 l 0.989477,-5.722281 c -1.305633,0.379399 -2.580292,3.295169 -4.197803,3.09912 -1.57205,-0.190536 -3.539522,-1.961394 -3.540891,-3.935672 -0.0014,-1.970442 2.055641,-3.233665 3.528561,-3.935673 0.0038,-0.0019 0.0084,-0.0015 0.01234,0 1.383504,0.517184 2.250895,1.877753 3.620856,2.973007 -0.761833,-1.832887 -2.329577,-3.49304 -2.101143,-5.506486 0.221773,-1.95472 1.701652,-3.63446 3.148539,-4.426115 0.03036,-0.01661 0.06626,0.0023 0.0994,0.0023 0.03314,0 0.06626,-0.002 0.0994,-0.0023 0,0 0,0 0,0 z"
     style="fill:#000000;fill-rule:evenodd;stroke-width:1.06951;stroke-linecap:square;stroke-linejoin:round;paint-order:fill markers stroke"
     id="path833-3-8-3-7" />
  <path
     id="path833-3-8-3-7-56"
     style="fill:#000000;fill-rule:evenodd;stroke-width:1.06951;stroke-linecap:square;stroke-linejoin:round;paint-order:fill markers stroke"
     d="m 20.099396,17.111889 c 1.440868,0.808622 2.926764,2.471395 3.148538,4.426115 0.228435,2.013446 -1.339309,3.673599 -2.101143,5.506486 1.369961,-1.095254 2.237353,-2.455823 3.620857,-2.973007 0.004,-0.0015 0.0085,-0.0019 0.01234,0 1.472919,0.702008 3.529928,1.965231 3.528561,3.935673 -0.0014,1.974278 -1.96884,3.745136 -3.540892,3.935672 -1.617512,0.196049 -2.892169,-2.719721 -4.197802,-3.09912 l 0.989478,5.722281 c 0.540813,1.462762 1.435025,1.749156 1.922155,1.79408 h -3.481482 -3.481478 c 0.487131,-0.04495 1.381342,-0.331318 1.922156,-1.79408 l 0.989477,-5.722281 c -1.305633,0.379399 -2.580292,3.295169 -4.197803,3.09912 -1.57205,-0.190536 -3.539522,-1.961394 -3.540891,-3.935672 -0.0014,-1.970442 2.055641,-3.233665 3.528561,-3.935673 0.0038,-0.0019 0.0084,-0.0015 0.01234,0 1.383504,0.517184 2.250895,1.877753 3.620856,2.973007 -0.761833,-1.832887 -2.329577,-3.49304 -2.101143,-5.506486 0.221773,-1.95472 1.701652,-3.63446 3.148539,-4.426115 0.03036,-0.01661 0.06626,0.0023 0.0994,0.0023 0.03314,0 0.06626,-0.002 0.0994,-0.0023 0,0 0,0 0,0 z"
     sodipodi:nodetypes="aacaaaacccccccaaaacaaaaa" />
  <path
     id="path833-3-8-3-7-9"
     style="fill:#000000;fill-rule:evenodd;stroke-width:1.06951;stroke-linecap:square;stroke-linejoin:round;paint-order:fill markers stroke"
     d="m 80.099396,17.111889 c 1.440868,0.808622 2.926764,2.471395 3.148538,4.426115 0.228435,2.013446 -1.339309,3.673599 -2.101143,5.506486 1.369961,-1.095254 2.237353,-2.455823 3.620857,-2.973007 0.004,-0.0015 0.0085,-0.0019 0.01234,0 1.472919,0.702008 3.529928,1.965231 3.528561,3.935673 -0.0014,1.974278 -1.96884,3.745136 -3.540892,3.935672 -1.617512,0.196049 -2.892169,-2.719721 -4.197802,-3.09912 l 0.989478,5.722281 c 0.540813,1.462762 1.435025,1.749156 1.922155,1.79408 h -3.481482 -3.481478 c 0.487131,-0.04495 1.381342,-0.331318 1.922156,-1.79408 l 0.989477,-5.722281 c -1.305633,0.379399 -2.580292,3.295169 -4.197803,3.09912 -1.57205,-0.190536 -3.539522,-1.961394 -3.540891,-3.935672 -0.0014,-1.970442 2.055641,-3.233665 3.528561,-3.935673 0.0038,-0.0019 0.0084,-0.0015 0.01234,0 1.383504,0.517184 2.250895,1.877753 3.620856,2.973007 -0.761833,-1.832887 -2.329577,-3.49304 -2.101143,-5.506486 0.221773,-1.95472 1.701652,-3.63446 3.148539,-4.426115 0.03036,-0.01661 0.06626,0.0023 0.0994,0.0023 0.03314,0 0.06626,-0.002 0.0994,-0.0023 0,0 0,0 0,0 z"
     sodipodi:nodetypes="aacaaaacccccccaaaacaaaaa" />
  <path
     sodipodi:nodetypes="aacaaaacccccccaaaacaaaaa"
     d="m 40.099396,17.111889 c 1.440868,0.808622 2.926764,2.471395 3.148538,4.426115 0.228435,2.013446 -1.339309,3.673599 -2.101143,5.506486 1.369961,-1.095254 2.237353,-2.455823 3.620857,-2.973007 0.004,-0.0015 0.0085,-0.0019 0.01234,0 1.472919,0.702008 3.529928,1.965231 3.528561,3.935673 -0.0014,1.974278 -1.96884,3.745136 -3.540892,3.935672 -1.617512,0.196049 -2.892169,-2.719721 -4.197802,-3.09912 l 0.989478,5.722281 c 0.540813,1.462762 1.435025,1.749156 1.922155,1.79408 h -3.481482 -3.481478 c 0.487131,-0.04495 1.381342,-0.331318 1.922156,-1.79408 l 0.989477,-5.722281 c -1.305633,0.379399 -2.580292,3.295169 -4.197803,3.09912 -1.57205,-0.190536 -3.539522,-1.961394 -3.540891,-3.935672 -0.0014,-1.970442 2.055641,-3.233665 3.528561,-3.935673 0.0038,-0.0019 0.0084,-0.0015 0.01234,0 1.383504,0.517184 2.250895,1.877753 3.620856,2.973007 -0.761833,-1.832887 -2.329577,-3.49304 -2.101143,-5.506486 0.221773,-1.95472 1.701652,-3.63446 3.148539,-4.426115 0.03036,-0.01661 0.06626,0.0023 0.0994,0.0023 0.03314,0 0.06626,-0.002 0.0994,-0.0023 0,0 0,0 0,0 z"
     style="fill:#000000;fill-rule:evenodd;stroke-width:1.06951;stroke-linecap:square;stroke-linejoin:round;paint-order:fill markers stroke"
     id="path833-3-8-3-7-9-1" />
  <path
     id="path833-3-8-3-7-9-1-2"
     style="fill:#000000;fill-rule:evenodd;stroke-width:1.06951;stroke-linecap:square;stroke-linejoin:round;paint-order:fill markers stroke"
     d="M 0.09939888,17.111889 C 1.540268,17.920511 3.026164,19.583284 3.247937,21.538004 3.476373,23.55145 1.908629,25.211603 1.146794,27.04449 c 1.369962,-1.095254 2.237354,-2.455823 3.620857,-2.973007 0.004,-0.0015 0.0085,-0.0019 0.01234,0 1.472919,0.702008 3.529928,1.965231 3.528562,3.935673 -0.0014,1.974278 -1.96884,3.745136 -3.540892,3.935672 -1.617512,0.196049 -2.89217,-2.719721 -4.19780312,-3.09912 L 1.559337,34.565989 c 0.540812,1.462762 1.435024,1.749156 1.922154,1.79408 H 8.8612932e-6 -3.481478 c 0.48714,-0.04495 1.38134,-0.331318 1.92216,-1.79408 l 0.98946988,-5.722281 c -1.30562988,0.379399 -2.58028988,3.295169 -4.19779988,3.09912 -1.57205,-0.190536 -3.53952,-1.961394 -3.54089,-3.935672 -0.002,-1.970442 2.05564,-3.233665 3.52856,-3.935673 0.004,-0.0019 0.008,-0.0015 0.0123,0 1.38351,0.517184 2.2509,1.877753 3.62086,2.973007 -0.76183,-1.832887 -2.32958,-3.49304 -2.10114,-5.506486 0.22176,-1.95472 1.70164,-3.63446 3.14852988,-4.426115 0.0303,-0.01661 0.0662,0.0023 0.09939998128,0.0023 0.03315001872,0 0.06626001872,-0.002 0.09940001872,-0.0023 0,0 0,0 0,0 z"
     sodipodi:nodetypes="aacaaaacccccccaaaacaaaaa" />
  <path
     sodipodi:nodetypes="aacaaaacccccccaaaacaaaaa"
     d="m 9.9005655,34.242181 c -1.440869,0.808622 -2.926765,2.471395 -3.148539,4.426115 -0.228435,2.013446 1.339309,3.673599 2.101144,5.506486 -1.369962,-1.095254 -2.237354,-2.455823 -3.620857,-2.973007 -0.004,-0.0015 -0.0085,-0.0019 -0.01234,0 -1.472919,0.702008 -3.5299277,1.965231 -3.5285617,3.935673 0.0014,1.974278 1.9688397,3.745136 3.5408917,3.935672 1.617512,0.196049 2.89217,-2.719721 4.197803,-3.09912 l -0.989479,5.722281 c -0.540813,1.462762 -1.435025,1.749156 -1.922154,1.79408 h 3.481477 3.4814775 c -0.487131,-0.04495 -1.381342,-0.331318 -1.922156,-1.79408 L 10.569795,45.974 c 1.305633,0.379399 2.580292,3.295169 4.197803,3.09912 1.57205,-0.190536 3.539522,-1.961394 3.540891,-3.935672 0.0014,-1.970442 -2.055641,-3.233665 -3.528561,-3.935673 -0.0038,-0.0019 -0.0084,-0.0015 -0.01234,0 -1.383504,0.517184 -2.250895,1.877753 -3.620856,2.973007 0.761833,-1.832887 2.329577,-3.49304 2.101143,-5.506486 -0.221773,-1.95472 -1.701652,-3.63446 -3.148539,-4.426115 -0.03036,-0.01661 -0.06626,0.0023 -0.099399,0.0023 -0.03314,0 -0.06626,-0.002 -0.0994,-0.0023 0,0 0,0 0,0 z"
     style="fill:#000000;fill-rule:evenodd;stroke-width:1.06951;stroke-linecap:square;stroke-linejoin:round;paint-order:fill markers stroke"
     id="path833-3-8-3-7-5-0" />
  <path
     id="path833-3-8-3-7-5-2-6"
     style="fill:#000000;fill-rule:evenodd;stroke-width:1.06951;stroke-linecap:square;stroke-linejoin:round;paint-order:fill markers stroke"
     d="m 49.900564,34.242181 c -1.440868,0.808622 -2.926764,2.471395 -3.148538,4.426115 -0.228435,2.013446 1.339309,3.673599 2.101143,5.506486 -1.369961,-1.095254 -2.237353,-2.455823 -3.620857,-2.973007 -0.004,-0.0015 -0.0085,-0.0019 -0.01234,0 -1.472919,0.702008 -3.529928,1.965231 -3.528561,3.935673 0.0014,1.974278 1.96884,3.745136 3.540892,3.935672 1.617512,0.196049 2.892169,-2.719721 4.197802,-3.09912 l -0.989478,5.722281 c -0.540813,1.462762 -1.435025,1.749156 -1.922155,1.79408 h 3.481478 3.481478 c -0.487131,-0.04495 -1.381342,-0.331318 -1.922156,-1.79408 L 50.569795,45.974 c 1.305633,0.379399 2.580292,3.295169 4.197803,3.09912 1.57205,-0.190536 3.539522,-1.961394 3.540891,-3.935672 0.0014,-1.970442 -2.055641,-3.233665 -3.528561,-3.935673 -0.0038,-0.0019 -0.0084,-0.0015 -0.01234,0 -1.383504,0.517184 -2.250895,1.877753 -3.620856,2.973007 0.761833,-1.832887 2.329577,-3.49304 2.101143,-5.506486 -0.221773,-1.95472 -1.701652,-3.63446 -3.148539,-4.426115 -0.03036,-0.01661 -0.06626,0.0023 -0.0994,0.0023 -0.03314,0 -0.06626,-0.002 -0.0994,-0.0023 0,0 0,0 0,0 z"
     sodipodi:nodetypes="aacaaaacccccccaaaacaaaaa" />
  <path
     id="path833-3-8-3-7-5-7-2"
     style="fill:#000000;fill-rule:evenodd;stroke-width:1.06951;stroke-linecap:square;stroke-linejoin:round;paint-order:fill markers stroke"
     d="m 29.900564,34.242181 c -1.440868,0.808622 -2.926764,2.471395 -3.148538,4.426115 -0.228435,2.013446 1.339309,3.673599 2.101143,5.506486 -1.369961,-1.095254 -2.237353,-2.455823 -3.620857,-2.973007 -0.004,-0.0015 -0.0085,-0.0019 -0.01234,0 -1.472919,0.702008 -3.529928,1.965231 -3.528561,3.935673 0.0014,1.974278 1.96884,3.745136 3.540892,3.935672 1.617512,0.196049 2.892169,-2.719721 4.197802,-3.09912 l -0.989478,5.722281 c -0.540813,1.462762 -1.435025,1.749156 -1.922155,1.79408 h 3.481478 3.481478 c -0.487131,-0.04495 -1.381342,-0.331318 -1.922156,-1.79408 L 30.569795,45.974 c 1.305633,0.379399 2.580292,3.295169 4.197803,3.09912 1.57205,-0.190536 3.539522,-1.961394 3.540891,-3.935672 0.0014,-1.970442 -2.055641,-3.233665 -3.528561,-3.935673 -0.0038,-0.0019 -0.0084,-0.0015 -0.01234,0 -1.383504,0.517184 -2.250895,1.877753 -3.620856,2.973007 0.761833,-1.832887 2.329577,-3.49304 2.101143,-5.506486 -0.221773,-1.95472 -1.701652,-3.63446 -3.148539,-4.426115 -0.03036,-0.01661 -0.06626,0.0023 -0.0994,0.0023 -0.03314,0 -0.06626,-0.002 -0.09939,-0.0023 0,0 0,0 0,0 z"
     sodipodi:nodetypes="aacaaaacccccccaaaacaaaaa" />
  <path
     sodipodi:nodetypes="aacaaaacccccccaaaacaaaaa"
     d="m 69.900564,34.242181 c -1.440868,0.808622 -2.926764,2.471395 -3.148538,4.426115 -0.228435,2.013446 1.339309,3.673599 2.101143,5.506486 -1.369961,-1.095254 -2.237353,-2.455823 -3.620857,-2.973007 -0.004,-0.0015 -0.0085,-0.0019 -0.01234,0 -1.472919,0.702008 -3.529928,1.965231 -3.528561,3.935673 0.0014,1.974278 1.96884,3.745136 3.540892,3.935672 1.617512,0.196049 2.892169,-2.719721 4.197802,-3.09912 l -0.989478,5.722281 c -0.540813,1.462762 -1.435025,1.749156 -1.922155,1.79408 h 3.481478 3.481478 c -0.487131,-0.04495 -1.381342,-0.331318 -1.922156,-1.79408 L 70.569795,45.974 c 1.305633,0.379399 2.580292,3.295169 4.197803,3.09912 1.57205,-0.190536 3.539522,-1.961394 3.540891,-3.935672 0.0014,-1.970442 -2.055641,-3.233665 -3.528561,-3.935673 -0.0038,-0.0019 -0.0084,-0.0015 -0.01234,0 -1.383504,0.517184 -2.250895,1.877753 -3.620856,2.973007 0.761833,-1.832887 2.329577,-3.49304 2.101143,-5.506486 -0.221773,-1.95472 -1.701652,-3.63446 -3.148539,-4.426115 -0.03036,-0.01661 -0.06626,0.0023 -0.0994,0.0023 -0.03314,0 -0.06626,-0.002 -0.0994,-0.0023 0,0 0,0 0,0 z"
     style="fill:#000000;fill-rule:evenodd;stroke-width:1.06951;stroke-linecap:square;stroke-linejoin:round;paint-order:fill markers stroke"
     id="path833-3-8-3-7-5-7-0-6" />
  <path
     id="path833-3-8-3-7-5-7-0-9-1"
     style="fill:#000000;fill-rule:evenodd;stroke-width:1.06951;stroke-linecap:square;stroke-linejoin:round;paint-order:fill markers stroke"
     d="m 89.900564,34.242181 c -1.440869,0.808622 -2.926765,2.471395 -3.148538,4.426115 -0.228435,2.013446 1.339309,3.673599 2.101143,5.506486 -1.369962,-1.095254 -2.237354,-2.455823 -3.620857,-2.973007 -0.004,-0.0015 -0.0085,-0.0019 -0.01234,0 -1.472919,0.702008 -3.529928,1.965231 -3.528561,3.935673 0.0014,1.974278 1.96884,3.745136 3.540892,3.935672 1.617512,0.196049 2.892169,-2.719721 4.197802,-3.09912 l -0.989478,5.722281 c -0.540813,1.462762 -1.435025,1.749156 -1.922155,1.79408 h 3.481478 3.48148 c -0.48714,-0.04495 -1.38134,-0.331318 -1.92216,-1.79408 L 90.569798,45.974 c 1.305632,0.379399 2.580292,3.295169 4.197802,3.09912 1.57205,-0.190536 3.53952,-1.961394 3.54089,-3.935672 0.002,-1.970442 -2.05564,-3.233665 -3.52856,-3.935673 -0.004,-0.0019 -0.008,-0.0015 -0.0123,0 -1.38351,0.517184 -2.2509,1.877753 -3.62086,2.973007 0.76183,-1.832887 2.32958,-3.49304 2.10114,-5.506486 -0.22176,-1.95472 -1.701644,-3.63446 -3.148532,-4.426115 -0.03032,-0.01661 -0.06624,0.0023 -0.0994,0.0023 -0.03314,0 -0.06626,-0.002 -0.0994,-0.0023 0,0 0,0 0,0 z"
     sodipodi:nodetypes="aacaaaacccccccaaaacaaaaa" />
  <path
     sodipodi:nodetypes="aacaaaacccccccaaaacaaaaa"
     d="m 100.09939,51.195695 c 1.44087,0.808622 2.92677,2.471395 3.14854,4.426115 0.22843,2.013446 -1.33931,3.673599 -2.10114,5.506486 1.36996,-1.095254 2.23735,-2.455823 3.62085,-2.973007 0.004,-0.0015 0.008,-0.0019 0.0123,0 1.47292,0.702008 3.52993,1.965231 3.52856,3.935673 -10e-4,1.974278 -1.96884,3.745136 -3.54089,3.935672 -1.61751,0.196049 -2.89217,-2.719721 -4.1978,-3.09912 l 0.98947,5.722281 c 0.54082,1.462762 1.43503,1.749156 1.92216,1.79408 H 100 96.51853 c 0.48713,-0.04495 1.38134,-0.331318 1.92216,-1.79408 l 0.98947,-5.722281 c -1.30563,0.379399 -2.58029,3.295169 -4.1978,3.09912 -1.57205,-0.190536 -3.53952,-1.961394 -3.54089,-3.935672 -0.0014,-1.970442 2.05564,-3.233665 3.52856,-3.935673 0.004,-0.0019 0.008,-0.0015 0.0123,0 1.3835,0.517184 2.25089,1.877753 3.62086,2.973007 -0.76184,-1.832887 -2.32958,-3.49304 -2.10115,-5.506486 0.22178,-1.95472 1.70165,-3.63446 3.14854,-4.426115 0.0304,-0.01661 0.0663,0.0023 0.0994,0.0023 0.0331,0 0.0662,-0.002 0.0994,-0.0023 0,0 0,0 0,0 z"
     style="fill:#000000;fill-rule:evenodd;stroke-width:1.06951;stroke-linecap:square;stroke-linejoin:round;paint-order:fill markers stroke"
     id="path833-3-8-3-8" />
  <path
     id="path833-3-8-3-7-7"
     style="fill:#000000;fill-rule:evenodd;stroke-width:1.06951;stroke-linecap:square;stroke-linejoin:round;paint-order:fill markers stroke"
     d="m 60.099395,51.195695 c 1.440868,0.808622 2.926764,2.471395 3.148538,4.426115 0.228435,2.013446 -1.339309,3.673599 -2.101143,5.506486 1.369961,-1.095254 2.237353,-2.455823 3.620857,-2.973007 0.004,-0.0015 0.0085,-0.0019 0.01234,0 1.472919,0.702008 3.529928,1.965231 3.528561,3.935673 -0.0014,1.974278 -1.96884,3.745136 -3.540892,3.935672 -1.617512,0.196049 -2.892169,-2.719721 -4.197802,-3.09912 l 0.989478,5.722281 c 0.540813,1.462762 1.435025,1.749156 1.922155,1.79408 h -3.481482 -3.481478 c 0.487131,-0.04495 1.381342,-0.331318 1.922156,-1.79408 l 0.989477,-5.722281 c -1.305633,0.379399 -2.580292,3.295169 -4.197803,3.09912 -1.57205,-0.190536 -3.539522,-1.961394 -3.540891,-3.935672 -0.0014,-1.970442 2.055641,-3.233665 3.528561,-3.935673 0.0038,-0.0019 0.0084,-0.0015 0.01234,0 1.383504,0.517184 2.250895,1.877753 3.620856,2.973007 -0.761833,-1.832887 -2.329577,-3.49304 -2.101143,-5.506486 0.221773,-1.95472 1.701652,-3.63446 3.148539,-4.426115 0.03036,-0.01661 0.06626,0.0023 0.0994,0.0023 0.03314,0 0.06626,-0.002 0.0994,-0.0023 0,0 0,0 0,0 z"
     sodipodi:nodetypes="aacaaaacccccccaaaacaaaaa" />
  <path
     sodipodi:nodetypes="aacaaaacccccccaaaacaaaaa"
     d="m 20.099395,51.195695 c 1.440868,0.808622 2.926764,2.471395 3.148538,4.426115 0.228435,2.013446 -1.339309,3.673599 -2.101143,5.506486 1.369961,-1.095254 2.237353,-2.455823 3.620857,-2.973007 0.004,-0.0015 0.0085,-0.0019 0.01234,0 1.472919,0.702008 3.529928,1.965231 3.528561,3.935673 -0.0014,1.974278 -1.96884,3.745136 -3.540892,3.935672 -1.617512,0.196049 -2.892169,-2.719721 -4.197802,-3.09912 l 0.989478,5.722281 c 0.540813,1.462762 1.435025,1.749156 1.922155,1.79408 h -3.481482 -3.481478 c 0.487131,-0.04495 1.381342,-0.331318 1.922156,-1.79408 l 0.989477,-5.722281 c -1.305633,0.379399 -2.580292,3.295169 -4.197803,3.09912 -1.57205,-0.190536 -3.539522,-1.961394 -3.540891,-3.935672 -0.0014,-1.970442 2.055641,-3.233665 3.528561,-3.935673 0.0038,-0.0019 0.0084,-0.0015 0.01234,0 1.383504,0.517184 2.250895,1.877753 3.620856,2.973007 -0.761833,-1.832887 -2.329577,-3.49304 -2.101143,-5.506486 0.221773,-1.95472 1.701652,-3.63446 3.148539,-4.426115 0.03036,-0.01661 0.06626,0.0023 0.0994,0.0023 0.03314,0 0.06626,-0.002 0.0994,-0.0023 0,0 0,0 0,0 z"
     style="fill:#000000;fill-rule:evenodd;stroke-width:1.06951;stroke-linecap:square;stroke-linejoin:round;paint-order:fill markers stroke"
     id="path833-3-8-3-7-56-9" />
  <path
     sodipodi:nodetypes="aacaaaacccccccaaaacaaaaa"
     d="m 80.099395,51.195695 c 1.440868,0.808622 2.926764,2.471395 3.148538,4.426115 0.228435,2.013446 -1.339309,3.673599 -2.101143,5.506486 1.369961,-1.095254 2.237353,-2.455823 3.620857,-2.973007 0.004,-0.0015 0.0085,-0.0019 0.01234,0 1.472919,0.702008 3.529928,1.965231 3.528561,3.935673 -0.0014,1.974278 -1.96884,3.745136 -3.540892,3.935672 -1.617512,0.196049 -2.892169,-2.719721 -4.197802,-3.09912 l 0.989478,5.722281 c 0.540813,1.462762 1.435025,1.749156 1.922155,1.79408 h -3.481482 -3.481478 c 0.487131,-0.04495 1.381342,-0.331318 1.922156,-1.79408 l 0.989477,-5.722281 c -1.305633,0.379399 -2.580292,3.295169 -4.197803,3.09912 -1.57205,-0.190536 -3.539522,-1.961394 -3.540891,-3.935672 -0.0014,-1.970442 2.055641,-3.233665 3.528561,-3.935673 0.0038,-0.0019 0.0084,-0.0015 0.01234,0 1.383504,0.517184 2.250895,1.877753 3.620856,2.973007 -0.761833,-1.832887 -2.329577,-3.49304 -2.101143,-5.506486 0.221773,-1.95472 1.701652,-3.63446 3.148539,-4.426115 0.03036,-0.01661 0.06626,0.0023 0.0994,0.0023 0.03314,0 0.06626,-0.002 0.0994,-0.0023 0,0 0,0 0,0 z"
     style="fill:#000000;fill-rule:evenodd;stroke-width:1.06951;stroke-linecap:square;stroke-linejoin:round;paint-order:fill markers stroke"
     id="path833-3-8-3-7-9-2" />
  <path
     id="path833-3-8-3-7-9-1-0"
     style="fill:#000000;fill-rule:evenodd;stroke-width:1.06951;stroke-linecap:square;stroke-linejoin:round;paint-order:fill markers stroke"
     d="m 40.099395,51.195695 c 1.440868,0.808622 2.926764,2.471395 3.148538,4.426115 0.228435,2.013446 -1.339309,3.673599 -2.101143,5.506486 1.369961,-1.095254 2.237353,-2.455823 3.620857,-2.973007 0.004,-0.0015 0.0085,-0.0019 0.01234,0 1.472919,0.702008 3.529928,1.965231 3.528561,3.935673 -0.0014,1.974278 -1.96884,3.745136 -3.540892,3.935672 -1.617512,0.196049 -2.892169,-2.719721 -4.197802,-3.09912 l 0.989478,5.722281 c 0.540813,1.462762 1.435025,1.749156 1.922155,1.79408 h -3.481482 -3.481478 c 0.487131,-0.04495 1.381342,-0.331318 1.922156,-1.79408 l 0.989477,-5.722281 c -1.305633,0.379399 -2.580292,3.295169 -4.197803,3.09912 -1.57205,-0.190536 -3.539522,-1.961394 -3.540891,-3.935672 -0.0014,-1.970442 2.055641,-3.233665 3.528561,-3.935673 0.0038,-0.0019 0.0084,-0.0015 0.01234,0 1.383504,0.517184 2.250895,1.877753 3.620856,2.973007 -0.761833,-1.832887 -2.329577,-3.49304 -2.101143,-5.506486 0.221773,-1.95472 1.701652,-3.63446 3.148539,-4.426115 0.03036,-0.01661 0.06626,0.0023 0.0994,0.0023 0.03314,0 0.06626,-0.002 0.0994,-0.0023 0,0 0,0 0,0 z"
     sodipodi:nodetypes="aacaaaacccccccaaaacaaaaa" />
  <path
     sodipodi:nodetypes="aacaaaacccccccaaaacaaaaa"
     d="m 0.0993988,51.195695 c 1.4408692,0.808622 2.9267647,2.471395 3.1485377,4.426115 0.228436,2.013446 -1.339308,3.673599 -2.1011425,5.506486 1.3699615,-1.095254 2.2373535,-2.455823 3.6208565,-2.973007 0.004,-0.0015 0.0085,-0.0019 0.01234,0 1.472919,0.702008 3.529928,1.965231 3.528562,3.935673 -0.0014,1.974278 -1.96884,3.745136 -3.540892,3.935672 -1.617512,0.196049 -2.89217,-2.719721 -4.1978027,-3.09912 l 0.9894792,5.722281 c 0.5408115,1.462762 1.4350235,1.749156 1.9221535,1.79408 H 8.7999954e-6 -3.481478 c 0.48714,-0.04495 1.38134,-0.331318 1.92216,-1.79408 l 0.9894698,-5.722281 c -1.3056298,0.379399 -2.5802898,3.295169 -4.1977998,3.09912 -1.57205,-0.190536 -3.53952,-1.961394 -3.54089,-3.935672 -0.002,-1.970442 2.05564,-3.233665 3.52856,-3.935673 0.004,-0.0019 0.008,-0.0015 0.0123,0 1.38351,0.517184 2.2509,1.877753 3.62086,2.973007 -0.76183,-1.832887 -2.32958,-3.49304 -2.10114,-5.506486 0.22176,-1.95472 1.70164,-3.63446 3.1485298,-4.426115 0.0303,-0.01661 0.0662,0.0023 0.09939999999,0.0023 0.03315000001,0 0.06626000001,-0.002 0.09940000001,-0.0023 0,0 0,0 0,0 z"
     style="fill:#000000;fill-rule:evenodd;stroke-width:1.06951;stroke-linecap:square;stroke-linejoin:round;paint-order:fill markers stroke"
     id="path833-3-8-3-7-9-1-2-2" />
  <path
     sodipodi:nodetypes="aacaaaacccccccaaaacaaaaa"
     d="m 9.9005655,68.325987 c -1.440869,0.808622 -2.926765,2.471395 -3.148539,4.426115 -0.228435,2.013446 1.339309,3.673599 2.101144,5.506486 -1.369962,-1.095254 -2.237354,-2.455823 -3.620857,-2.973007 -0.004,-0.0015 -0.0085,-0.0019 -0.01234,0 -1.472919,0.702008 -3.5299277,1.965231 -3.5285617,3.935673 0.0014,1.974278 1.9688397,3.745136 3.5408917,3.935672 1.617512,0.196049 2.89217,-2.719721 4.197803,-3.09912 l -0.989479,5.722281 c -0.540813,1.462762 -1.435025,1.749156 -1.922154,1.79408 h 3.481477 3.4814775 c -0.487131,-0.04495 -1.381342,-0.331318 -1.922156,-1.79408 l -0.989477,-5.722281 c 1.305633,0.379399 2.580292,3.295169 4.197803,3.09912 1.57205,-0.190536 3.539522,-1.961394 3.540891,-3.935672 0.0014,-1.970442 -2.055641,-3.233665 -3.528561,-3.935673 -0.0038,-0.0019 -0.0084,-0.0015 -0.01234,0 -1.383504,0.517184 -2.250895,1.877753 -3.620856,2.973007 0.761833,-1.832887 2.329577,-3.49304 2.101143,-5.506486 -0.221773,-1.95472 -1.701652,-3.63446 -3.148539,-4.426115 -0.03036,-0.01661 -0.06626,0.0023 -0.099399,0.0023 -0.03314,0 -0.06626,-0.002 -0.0994,-0.0023 0,0 0,0 0,0 z"
     style="fill:#000000;fill-rule:evenodd;stroke-width:1.06951;stroke-linecap:square;stroke-linejoin:round;paint-order:fill markers stroke"
     id="path833-3-8-3-7-5-3" />
  <path
     id="path833-3-8-3-7-5-2-7"
     style="fill:#000000;fill-rule:evenodd;stroke-width:1.06951;stroke-linecap:square;stroke-linejoin:round;paint-order:fill markers stroke"
     d="m 49.900564,68.325987 c -1.440868,0.808622 -2.926764,2.471395 -3.148538,4.426115 -0.228435,2.013446 1.339309,3.673599 2.101143,5.506486 -1.369961,-1.095254 -2.237353,-2.455823 -3.620857,-2.973007 -0.004,-0.0015 -0.0085,-0.0019 -0.01234,0 -1.472919,0.702008 -3.529928,1.965231 -3.528561,3.935673 0.0014,1.974278 1.96884,3.745136 3.540892,3.935672 1.617512,0.196049 2.892169,-2.719721 4.197802,-3.09912 l -0.989478,5.722281 c -0.540813,1.462762 -1.435025,1.749156 -1.922155,1.79408 h 3.481478 3.481478 c -0.487131,-0.04495 -1.381342,-0.331318 -1.922156,-1.79408 l -0.989477,-5.722281 c 1.305633,0.379399 2.580292,3.295169 4.197803,3.09912 1.57205,-0.190536 3.539522,-1.961394 3.540891,-3.935672 0.0014,-1.970442 -2.055641,-3.233665 -3.528561,-3.935673 -0.0038,-0.0019 -0.0084,-0.0015 -0.01234,0 -1.383504,0.517184 -2.250895,1.877753 -3.620856,2.973007 0.761833,-1.832887 2.329577,-3.49304 2.101143,-5.506486 -0.221773,-1.95472 -1.701652,-3.63446 -3.148539,-4.426115 -0.03036,-0.01661 -0.06626,0.0023 -0.0994,0.0023 -0.03314,0 -0.06626,-0.002 -0.0994,-0.0023 0,0 0,0 0,0 z"
     sodipodi:nodetypes="aacaaaacccccccaaaacaaaaa" />
  <path
     id="path833-3-8-3-7-5-7-5"
     style="fill:#000000;fill-rule:evenodd;stroke-width:1.06951;stroke-linecap:square;stroke-linejoin:round;paint-order:fill markers stroke"
     d="m 29.900564,68.325987 c -1.440868,0.808622 -2.926764,2.471395 -3.148538,4.426115 -0.228435,2.013446 1.339309,3.673599 2.101143,5.506486 -1.369961,-1.095254 -2.237353,-2.455823 -3.620857,-2.973007 -0.004,-0.0015 -0.0085,-0.0019 -0.01234,0 -1.472919,0.702008 -3.529928,1.965231 -3.528561,3.935673 0.0014,1.974278 1.96884,3.745136 3.540892,3.935672 1.617512,0.196049 2.892169,-2.719721 4.197802,-3.09912 l -0.989478,5.722281 c -0.540813,1.462762 -1.435025,1.749156 -1.922155,1.79408 h 3.481478 3.481478 c -0.487131,-0.04495 -1.381342,-0.331318 -1.922156,-1.79408 l -0.989477,-5.722281 c 1.305633,0.379399 2.580292,3.295169 4.197803,3.09912 1.57205,-0.190536 3.539522,-1.961394 3.540891,-3.935672 0.0014,-1.970442 -2.055641,-3.233665 -3.528561,-3.935673 -0.0038,-0.0019 -0.0084,-0.0015 -0.01234,0 -1.383504,0.517184 -2.250895,1.877753 -3.620856,2.973007 0.761833,-1.832887 2.329577,-3.49304 2.101143,-5.506486 -0.221773,-1.95472 -1.701652,-3.63446 -3.148539,-4.426115 -0.03036,-0.01661 -0.06626,0.0023 -0.0994,0.0023 -0.03314,0 -0.06626,-0.002 -0.09939,-0.0023 0,0 0,0 0,0 z"
     sodipodi:nodetypes="aacaaaacccccccaaaacaaaaa" />
  <path
     sodipodi:nodetypes="aacaaaacccccccaaaacaaaaa"
     d="m 69.900564,68.325987 c -1.440868,0.808622 -2.926764,2.471395 -3.148538,4.426115 -0.228435,2.013446 1.339309,3.673599 2.101143,5.506486 -1.369961,-1.095254 -2.237353,-2.455823 -3.620857,-2.973007 -0.004,-0.0015 -0.0085,-0.0019 -0.01234,0 -1.472919,0.702008 -3.529928,1.965231 -3.528561,3.935673 0.0014,1.974278 1.96884,3.745136 3.540892,3.935672 1.617512,0.196049 2.892169,-2.719721 4.197802,-3.09912 l -0.989478,5.722281 c -0.540813,1.462762 -1.435025,1.749156 -1.922155,1.79408 h 3.481478 3.481478 c -0.487131,-0.04495 -1.381342,-0.331318 -1.922156,-1.79408 l -0.989477,-5.722281 c 1.305633,0.379399 2.580292,3.295169 4.197803,3.09912 1.57205,-0.190536 3.539522,-1.961394 3.540891,-3.935672 0.0014,-1.970442 -2.055641,-3.233665 -3.528561,-3.935673 -0.0038,-0.0019 -0.0084,-0.0015 -0.01234,0 -1.383504,0.517184 -2.250895,1.877753 -3.620856,2.973007 0.761833,-1.832887 2.329577,-3.49304 2.101143,-5.506486 -0.221773,-1.95472 -1.701652,-3.63446 -3.148539,-4.426115 -0.03036,-0.01661 -0.06626,0.0023 -0.0994,0.0023 -0.03314,0 -0.06626,-0.002 -0.0994,-0.0023 0,0 0,0 0,0 z"
     style="fill:#000000;fill-rule:evenodd;stroke-width:1.06951;stroke-linecap:square;stroke-linejoin:round;paint-order:fill markers stroke"
     id="path833-3-8-3-7-5-7-0-92" />
  <path
     id="path833-3-8-3-7-5-7-0-9-2"
     style="fill:#000000;fill-rule:evenodd;stroke-width:1.06951;stroke-linecap:square;stroke-linejoin:round;paint-order:fill markers stroke"
     d="m 89.900564,68.325987 c -1.440869,0.808622 -2.926765,2.471395 -3.148538,4.426115 -0.228435,2.013446 1.339309,3.673599 2.101143,5.506486 -1.369962,-1.095254 -2.237354,-2.455823 -3.620857,-2.973007 -0.004,-0.0015 -0.0085,-0.0019 -0.01234,0 -1.472919,0.702008 -3.529928,1.965231 -3.528561,3.935673 0.0014,1.974278 1.96884,3.745136 3.540892,3.935672 1.617512,0.196049 2.892169,-2.719721 4.197802,-3.09912 l -0.989478,5.722281 c -0.540813,1.462762 -1.435025,1.749156 -1.922155,1.79408 h 3.481478 3.48148 c -0.48714,-0.04495 -1.38134,-0.331318 -1.92216,-1.79408 l -0.989472,-5.722281 c 1.305632,0.379399 2.580292,3.295169 4.197802,3.09912 1.57205,-0.190536 3.53952,-1.961394 3.54089,-3.935672 0.002,-1.970442 -2.05564,-3.233665 -3.52856,-3.935673 -0.004,-0.0019 -0.008,-0.0015 -0.0123,0 -1.38351,0.517184 -2.2509,1.877753 -3.62086,2.973007 0.76183,-1.832887 2.32958,-3.49304 2.10114,-5.506486 -0.22176,-1.95472 -1.701644,-3.63446 -3.148532,-4.426115 -0.03032,-0.01661 -0.06624,0.0023 -0.0994,0.0023 -0.03314,0 -0.06626,-0.002 -0.0994,-0.0023 0,0 0,0 0,0 z"
     sodipodi:nodetypes="aacaaaacccccccaaaacaaaaa" />
  <path
     sodipodi:nodetypes="aacaaaacccccccaaaacaaaaa"
     d="m 100.09939,85.279501 c 1.44087,0.808622 2.92677,2.471395 3.14854,4.426115 0.22843,2.013446 -1.33931,3.673599 -2.10114,5.506486 1.36996,-1.095254 2.23735,-2.455823 3.62085,-2.973007 0.004,-0.0015 0.008,-0.0019 0.0123,0 1.47292,0.702008 3.52993,1.965231 3.52856,3.935673 -10e-4,1.974278 -1.96884,3.745136 -3.54089,3.935672 -1.61751,0.19605 -2.89217,-2.719721 -4.1978,-3.09912 l 0.98947,5.72228 c 0.54082,1.46276 1.43503,1.74916 1.92216,1.79408 H 100 96.51853 c 0.48713,-0.045 1.38134,-0.33132 1.92216,-1.79408 l 0.98947,-5.72228 c -1.30563,0.379399 -2.58029,3.29517 -4.1978,3.09912 -1.57205,-0.190536 -3.53952,-1.961394 -3.54089,-3.935672 -0.0014,-1.970442 2.05564,-3.233665 3.52856,-3.935673 0.004,-0.0019 0.008,-0.0015 0.0123,0 1.3835,0.517184 2.25089,1.877753 3.62086,2.973007 -0.76184,-1.832887 -2.32958,-3.49304 -2.10115,-5.506486 0.22178,-1.95472 1.70165,-3.63446 3.14854,-4.426115 0.0304,-0.01661 0.0663,0.0023 0.0994,0.0023 0.0331,0 0.0662,-0.002 0.0994,-0.0023 0,0 0,0 0,0 z"
     style="fill:#000000;fill-rule:evenodd;stroke-width:1.06951;stroke-linecap:square;stroke-linejoin:round;paint-order:fill markers stroke"
     id="path833-3-8-3-89" />
  <path
     id="path833-3-8-3-7-73"
     style="fill:#000000;fill-rule:evenodd;stroke-width:1.06951;stroke-linecap:square;stroke-linejoin:round;paint-order:fill markers stroke"
     d="m 60.099395,85.279501 c 1.440868,0.808622 2.926764,2.471395 3.148538,4.426115 0.228435,2.013446 -1.339309,3.673599 -2.101143,5.506486 1.369961,-1.095254 2.237353,-2.455823 3.620857,-2.973007 0.004,-0.0015 0.0085,-0.0019 0.01234,0 1.472919,0.702008 3.529928,1.965231 3.528561,3.935673 -0.0014,1.974278 -1.96884,3.745136 -3.540892,3.935672 -1.617512,0.19605 -2.892169,-2.719721 -4.197802,-3.09912 l 0.989478,5.72228 c 0.540813,1.46276 1.435025,1.74916 1.922155,1.79408 h -3.481482 -3.481478 c 0.487131,-0.045 1.381342,-0.33132 1.922156,-1.79408 l 0.989477,-5.72228 c -1.305633,0.379399 -2.580292,3.29517 -4.197803,3.09912 -1.57205,-0.190536 -3.539522,-1.961394 -3.540891,-3.935672 -0.0014,-1.970442 2.055641,-3.233665 3.528561,-3.935673 0.0038,-0.0019 0.0084,-0.0015 0.01234,0 1.383504,0.517184 2.250895,1.877753 3.620856,2.973007 -0.761833,-1.832887 -2.329577,-3.49304 -2.101143,-5.506486 0.221773,-1.95472 1.701652,-3.63446 3.148539,-4.426115 0.03036,-0.01661 0.06626,0.0023 0.0994,0.0023 0.03314,0 0.06626,-0.002 0.0994,-0.0023 0,0 0,0 0,0 z"
     sodipodi:nodetypes="aacaaaacccccccaaaacaaaaa" />
  <path
     sodipodi:nodetypes="aacaaaacccccccaaaacaaaaa"
     d="m 20.099395,85.279501 c 1.440868,0.808622 2.926764,2.471395 3.148538,4.426115 0.228435,2.013446 -1.339309,3.673599 -2.101143,5.506486 1.369961,-1.095254 2.237353,-2.455823 3.620857,-2.973007 0.004,-0.0015 0.0085,-0.0019 0.01234,0 1.472919,0.702008 3.529928,1.965231 3.528561,3.935673 -0.0014,1.974278 -1.96884,3.745136 -3.540892,3.935672 -1.617512,0.19605 -2.892169,-2.719721 -4.197802,-3.09912 l 0.989478,5.72228 c 0.540813,1.46276 1.435025,1.74916 1.922155,1.79408 h -3.481482 -3.481478 c 0.487131,-0.045 1.381342,-0.33132 1.922156,-1.79408 l 0.989477,-5.72228 c -1.305633,0.379399 -2.580292,3.29517 -4.197803,3.09912 -1.57205,-0.190536 -3.539522,-1.961394 -3.540891,-3.935672 -0.0014,-1.970442 2.055641,-3.233665 3.528561,-3.935673 0.0038,-0.0019 0.0084,-0.0015 0.01234,0 1.383504,0.517184 2.250895,1.877753 3.620856,2.973007 -0.761833,-1.832887 -2.329577,-3.49304 -2.101143,-5.506486 0.221773,-1.95472 1.701652,-3.63446 3.148539,-4.426115 0.03036,-0.01661 0.06626,0.0023 0.0994,0.0023 0.03314,0 0.06626,-0.002 0.0994,-0.0023 0,0 0,0 0,0 z"
     style="fill:#000000;fill-rule:evenodd;stroke-width:1.06951;stroke-linecap:square;stroke-linejoin:round;paint-order:fill markers stroke"
     id="path833-3-8-3-7-56-6" />
  <path
     sodipodi:nodetypes="aacaaaacccccccaaaacaaaaa"
     d="m 80.099395,85.279501 c 1.440868,0.808622 2.926764,2.471395 3.148538,4.426115 0.228435,2.013446 -1.339309,3.673599 -2.101143,5.506486 1.369961,-1.095254 2.237353,-2.455823 3.620857,-2.973007 0.004,-0.0015 0.0085,-0.0019 0.01234,0 1.472919,0.702008 3.529928,1.965231 3.528561,3.935673 -0.0014,1.974278 -1.96884,3.745136 -3.540892,3.935672 -1.617512,0.19605 -2.892169,-2.719721 -4.197802,-3.09912 l 0.989478,5.72228 c 0.540813,1.46276 1.435025,1.74916 1.922155,1.79408 h -3.481482 -3.481478 c 0.487131,-0.045 1.381342,-0.33132 1.922156,-1.79408 l 0.989477,-5.72228 c -1.305633,0.379399 -2.580292,3.29517 -4.197803,3.09912 -1.57205,-0.190536 -3.539522,-1.961394 -3.540891,-3.935672 -0.0014,-1.970442 2.055641,-3.233665 3.528561,-3.935673 0.0038,-0.0019 0.0084,-0.0015 0.01234,0 1.383504,0.517184 2.250895,1.877753 3.620856,2.973007 -0.761833,-1.832887 -2.329577,-3.49304 -2.101143,-5.506486 0.221773,-1.95472 1.701652,-3.63446 3.148539,-4.426115 0.03036,-0.01661 0.06626,0.0023 0.0994,0.0023 0.03314,0 0.06626,-0.002 0.0994,-0.0023 0,0 0,0 0,0 z"
     style="fill:#000000;fill-rule:evenodd;stroke-width:1.06951;stroke-linecap:square;stroke-linejoin:round;paint-order:fill markers stroke"
     id="path833-3-8-3-7-9-12" />
  <path
     id="path833-3-8-3-7-9-1-9"
     style="fill:#000000;fill-rule:evenodd;stroke-width:1.06951;stroke-linecap:square;stroke-linejoin:round;paint-order:fill markers stroke"
     d="m 40.099395,85.279501 c 1.440868,0.808622 2.926764,2.471395 3.148538,4.426115 0.228435,2.013446 -1.339309,3.673599 -2.101143,5.506486 1.369961,-1.095254 2.237353,-2.455823 3.620857,-2.973007 0.004,-0.0015 0.0085,-0.0019 0.01234,0 1.472919,0.702008 3.529928,1.965231 3.528561,3.935673 -0.0014,1.974278 -1.96884,3.745136 -3.540892,3.935672 -1.617512,0.19605 -2.892169,-2.719721 -4.197802,-3.09912 l 0.989478,5.72228 c 0.540813,1.46276 1.435025,1.74916 1.922155,1.79408 h -3.481482 -3.481478 c 0.487131,-0.045 1.381342,-0.33132 1.922156,-1.79408 l 0.989477,-5.72228 c -1.305633,0.379399 -2.580292,3.29517 -4.197803,3.09912 -1.57205,-0.190536 -3.539522,-1.961394 -3.540891,-3.935672 -0.0014,-1.970442 2.055641,-3.233665 3.528561,-3.935673 0.0038,-0.0019 0.0084,-0.0015 0.01234,0 1.383504,0.517184 2.250895,1.877753 3.620856,2.973007 -0.761833,-1.832887 -2.329577,-3.49304 -2.101143,-5.506486 0.221773,-1.95472 1.701652,-3.63446 3.148539,-4.426115 0.03036,-0.01661 0.06626,0.0023 0.0994,0.0023 0.03314,0 0.06626,-0.002 0.0994,-0.0023 0,0 0,0 0,0 z"
     sodipodi:nodetypes="aacaaaacccccccaaaacaaaaa" />
  <path
     sodipodi:nodetypes="aacaaaacccccccaaaacaaaaa"
     d="m 0.0993988,85.279501 c 1.4408692,0.808622 2.9267647,2.471395 3.1485377,4.426115 0.228436,2.013446 -1.339308,3.673599 -2.1011425,5.506486 1.3699615,-1.095254 2.2373535,-2.455823 3.6208565,-2.973007 0.004,-0.0015 0.0085,-0.0019 0.01234,0 1.472919,0.702008 3.529928,1.965231 3.528562,3.935673 -0.0014,1.974278 -1.96884,3.745136 -3.540892,3.935672 -1.617512,0.19605 -2.89217,-2.719721 -4.1978027,-3.09912 l 0.9894792,5.72228 c 0.5408115,1.46276 1.4350235,1.74916 1.9221535,1.79408 H 8.7999955e-6 -3.481478 c 0.48714,-0.045 1.38134,-0.33132 1.92216,-1.79408 l 0.9894698,-5.72228 c -1.3056298,0.379399 -2.5802898,3.29517 -4.1977998,3.09912 -1.57205,-0.190536 -3.53952,-1.961394 -3.54089,-3.935672 -0.002,-1.970442 2.05564,-3.233665 3.52856,-3.935673 0.004,-0.0019 0.008,-0.0015 0.0123,0 1.38351,0.517184 2.2509,1.877753 3.62086,2.973007 -0.76183,-1.832887 -2.32958,-3.49304 -2.10114,-5.506486 0.22176,-1.95472 1.70164,-3.63446 3.1485298,-4.426115 0.0303,-0.01661 0.0662,0.0023 0.09939999999,0.0023 0.03315000001,0 0.06626000001,-0.002 0.09940000001,-0.0023 0,0 0,0 0,0 z"
     style="fill:#000000;fill-rule:evenodd;stroke-width:1.06951;stroke-linecap:square;stroke-linejoin:round;paint-order:fill markers stroke"
     id="path833-3-8-3-7-9-1-2-3" />
</svg>
