<?xml version="1.0" encoding="UTF-8"?>
<svg version="1.1" viewBox="0 0 100 110" xmlns="http://www.w3.org/2000/svg" xmlns:cc="http://creativecommons.org/ns#" xmlns:dc="http://purl.org/dc/elements/1.1/" xmlns:rdf="http://www.w3.org/1999/02/22-rdf-syntax-ns#" xmlns:xlink="http://www.w3.org/1999/xlink">
 <metadata>
  <rdf:RDF>
   <cc:Work rdf:about="">
    <dc:format>image/svg+xml</dc:format>
    <dc:type rdf:resource="http://purl.org/dc/dcmitype/StillImage"/>
    <dc:title/>
   </cc:Work>
  </rdf:RDF>
 </metadata>
 <defs>
  <pattern id="pattern1929" patternTransform="matrix(1.006 0 0 .9321 50 19.41)" xlink:href="#pattern960"/>
  <pattern id="pattern960" width="20.000002" height="34.084374" patternTransform="translate(30 2.276)" patternUnits="userSpaceOnUse">
   <g transform="translate(-30 -2.276)">
    <rect x="30" y="2.276" width="20" height="34.08" opacity="0" stroke-width="9.964" style="paint-order:stroke fill markers"/>
    <path d="m40.1 17.11c1.441 0.8086 2.927 2.471 3.149 4.426 0.2284 2.013-1.339 3.674-2.101 5.506 1.37-1.095 2.237-2.456 3.621-2.973 4e-3 -0.0015 0.0085-0.0019 0.01234 0 1.473 0.702 3.53 1.965 3.529 3.936-0.0014 1.974-1.969 3.745-3.541 3.936-1.618 0.196-2.892-2.72-4.198-3.099l0.9895 5.722c0.5408 1.463 1.435 1.749 1.922 1.794h-6.963c0.4871-0.04495 1.381-0.3313 1.922-1.794l0.9895-5.722c-1.306 0.3794-2.58 3.295-4.198 3.099-1.572-0.1905-3.54-1.961-3.541-3.936-0.0014-1.97 2.056-3.234 3.529-3.936 0.0038-0.0019 0.0084-0.0015 0.01234 0 1.384 0.5172 2.251 1.878 3.621 2.973-0.7618-1.833-2.33-3.493-2.101-5.506 0.2218-1.955 1.702-3.634 3.149-4.426 0.03036-0.01661 0.06626 0.0023 0.0994 0.0023s0.06626-2e-3 0.0994-0.0023v0z" fill-rule="evenodd" stroke-linecap="square" stroke-linejoin="round" stroke-width="1.07" style="paint-order:fill markers stroke"/>
    <path d="m32.28 2.276h-2.275v17.13h3.48c-0.4871-0.04495-1.381-0.3322-1.922-1.795l-0.9883-5.721c1.306 0.3794 2.58 3.294 4.197 3.098 1.572-0.1905 3.54-1.961 3.541-3.936 0.0014-1.97-2.056-3.234-3.529-3.936-0.0038-0.0019-0.0078-0.0015-0.01172 0-1.384 0.5172-2.251 1.877-3.621 2.973 0.7618-1.833 2.33-3.492 2.102-5.506-0.09667-0.852-0.5049-1.612-0.9727-2.309z" fill-rule="evenodd" stroke-linecap="square" stroke-linejoin="round" stroke-width="1.07" style="paint-order:fill markers stroke"/>
    <path d="m30 34.24v2.115h2.275c-0.6054-0.9017-1.36-1.671-2.176-2.117-0.03036-0.01661-0.06647 2e-3 -0.09961 2e-3z" fill-rule="evenodd" stroke-linecap="square" stroke-linejoin="round" stroke-width="1.07" style="paint-order:fill markers stroke"/>
    <path d="m47.72 2.276h2.275v17.13h-3.48c0.4871-0.04495 1.381-0.3322 1.922-1.795l0.9883-5.721c-1.306 0.3794-2.58 3.294-4.197 3.098-1.572-0.1905-3.54-1.961-3.541-3.936-0.0014-1.97 2.056-3.234 3.529-3.936 0.0038-0.0019 0.0078-0.0015 0.01172 0 1.384 0.5172 2.251 1.877 3.621 2.973-0.7618-1.833-2.33-3.492-2.102-5.506 0.09667-0.852 0.5049-1.612 0.9727-2.309z" fill-rule="evenodd" stroke-linecap="square" stroke-linejoin="round" stroke-width="1.07" style="paint-order:fill markers stroke"/>
    <path d="m50 34.24v2.115h-2.275c0.6054-0.9017 1.36-1.671 2.176-2.117 0.03036-0.01661 0.06647 2e-3 0.09961 2e-3z" fill-rule="evenodd" stroke-linecap="square" stroke-linejoin="round" stroke-width="1.07" style="paint-order:fill markers stroke"/>
   </g>
  </pattern>
 </defs>
 <clipPath id="escu">
  <rect width="100" height="120"/>
 </clipPath>
 <g fill="#000000" font-family="sans-serif" font-size="40px">
  <text x="-66.600601" y="42.176289" style="line-height:1.25" xml:space="preserve"><tspan x="-66.600601" y="42.176289"/></text>
  <text x="-201.93855" y="0.78777015" style="line-height:1.25" xml:space="preserve"><tspan x="-201.93855" y="0.78777015"/></text>
  <text x="-159.68279" y="-76.685295" style="line-height:1.25" xml:space="preserve"><tspan x="-159.68279" y="-76.685295"/></text>
 </g>
 <rect x="-2.5" width="105" height="115" fill="url(#pattern1929)"/>
</svg>
