<?xml version="1.0" encoding="UTF-8" standalone="no"?>
<svg
   xmlns:dc="http://purl.org/dc/elements/1.1/"
   xmlns:cc="http://creativecommons.org/ns#"
   xmlns:rdf="http://www.w3.org/1999/02/22-rdf-syntax-ns#"
   xmlns:svg="http://www.w3.org/2000/svg"
   xmlns="http://www.w3.org/2000/svg"
   xmlns:sodipodi="http://sodipodi.sourceforge.net/DTD/sodipodi-0.dtd"
   xmlns:inkscape="http://www.inkscape.org/namespaces/inkscape"
   inkscape:version="1.0 (4035a4fb49, 2020-05-01)"
   sodipodi:docname="escutcheon.svg"
   id="svg4"
   version="1.1"
   viewBox="0 0 100 110">
  <metadata
     id="metadata10">
    <rdf:RDF>
      <cc:Work
         rdf:about="">
        <dc:format>image/svg+xml</dc:format>
        <dc:type
           rdf:resource="http://purl.org/dc/dcmitype/StillImage" />
        <dc:title />
      </cc:Work>
    </rdf:RDF>
  </metadata>
  <defs
     id="defs8" />
  <sodipodi:namedview
     inkscape:document-rotation="0"
     inkscape:current-layer="svg4"
     inkscape:window-maximized="1"
     inkscape:window-y="0"
     inkscape:window-x="0"
     inkscape:cy="56.678605"
     inkscape:cx="19.064571"
     inkscape:zoom="3.0341309"
     showgrid="false"
     id="namedview6"
     inkscape:window-height="1020"
     inkscape:window-width="1920"
     inkscape:pageshadow="2"
     inkscape:pageopacity="0"
     guidetolerance="10"
     gridtolerance="10"
     objecttolerance="10"
     borderopacity="1"
     bordercolor="#666666"
     pagecolor="#ffffff" />
  <path
     d="M 0 2.9140625 L 0 16.630859 C 0.007 16.633779 0.01253125 16.639678 0.01953125 16.642578 C 2.5507812 15.565094 4.8645163 13.618678 5.8164062 10.974609 C 6.4200873 9.4013178 6.235045 7.7045047 6.265625 6.0585938 L 6.265625 2.9140625 L 0 2.9140625 z M 10.412109 2.9140625 C 10.422189 4.8997545 10.390488 6.8879819 10.429688 8.8730469 C 10.556147 11.359811 12.019779 13.607462 13.974609 15.078125 C 14.799179 15.708969 15.698205 16.248981 16.660156 16.642578 C 19.191396 15.565095 21.505142 13.618679 22.457031 10.974609 C 23.060711 9.4013176 22.87567 7.7045047 22.90625 6.0585938 L 22.90625 2.9140625 L 10.412109 2.9140625 z M 27.074219 2.9140625 L 27.074219 6.0585938 C 27.104799 7.7045047 26.919759 9.4013176 27.523438 10.974609 C 28.475327 13.618679 30.789072 15.565094 33.320312 16.642578 C 34.282263 16.248981 35.181289 15.708969 36.005859 15.078125 C 37.960689 13.607462 39.424322 11.359811 39.550781 8.8730469 C 39.589981 6.8879819 39.558259 4.8997545 39.568359 2.9140625 L 27.074219 2.9140625 z M 43.714844 2.9140625 L 43.714844 6.0585938 C 43.745424 7.7045046 43.56038 9.4013178 44.164062 10.974609 C 45.115952 13.618678 47.429688 15.565093 49.960938 16.642578 C 49.967938 16.639658 49.973469 16.633759 49.980469 16.630859 C 49.987469 16.633779 49.993 16.639678 50 16.642578 C 52.53125 15.565094 54.844985 13.618679 55.796875 10.974609 C 56.400556 9.4013188 56.215514 7.7045047 56.246094 6.0585938 L 56.246094 2.9140625 L 49.980469 2.9140625 L 43.714844 2.9140625 z M 60.392578 2.9140625 C 60.402658 4.8997545 60.370956 6.8879819 60.410156 8.8730469 C 60.536615 11.35981 62.000248 13.607462 63.955078 15.078125 C 64.779648 15.708969 65.678674 16.24898 66.640625 16.642578 C 69.171865 15.565094 71.485611 13.618679 72.4375 10.974609 C 73.04118 9.4013186 72.856139 7.7045047 72.886719 6.0585938 L 72.886719 2.9140625 L 60.392578 2.9140625 z M 77.054688 2.9140625 L 77.054688 6.0585938 C 77.085268 7.7045046 76.900227 9.4013186 77.503906 10.974609 C 78.455796 13.618679 80.769541 15.565094 83.300781 16.642578 C 84.262731 16.24898 85.161758 15.708969 85.986328 15.078125 C 87.941158 13.607462 89.404792 11.35981 89.53125 8.8730469 C 89.57045 6.8879819 89.538728 4.8997545 89.548828 2.9140625 L 77.054688 2.9140625 z M 93.695312 2.9140625 L 93.695312 6.0585938 C 93.725892 7.7045046 93.540849 9.4013178 94.144531 10.974609 C 95.096421 13.618679 97.410156 15.565094 99.941406 16.642578 C 99.948406 16.639658 99.953937 16.633759 99.960938 16.630859 L 99.960938 2.9140625 L 93.695312 2.9140625 z M 2.0820312 19.957031 C 2.0920613 21.942722 2.0623325 23.928998 2.1015625 25.914062 C 2.2280275 28.400826 3.6897013 30.648478 5.6445312 32.119141 C 6.4691073 32.749986 7.3681301 33.29195 8.3300781 33.685547 C 10.86134 32.608064 13.175063 30.661648 14.126953 28.017578 C 14.730633 26.444285 14.545592 24.74552 14.576172 23.099609 L 14.576172 19.957031 L 2.0820312 19.957031 z M 18.742188 19.957031 C 18.752267 21.942722 18.720536 23.928998 18.759766 25.914062 C 18.886231 28.400826 20.349857 30.648478 22.304688 32.119141 C 23.129261 32.749986 24.028286 33.29195 24.990234 33.685547 C 25.952182 33.29195 26.851208 32.749986 27.675781 32.119141 C 29.630612 30.648478 31.094238 28.400827 31.220703 25.914062 C 31.259933 23.928998 31.228201 21.942723 31.238281 19.957031 L 24.990234 19.957031 L 18.742188 19.957031 z M 35.404297 19.957031 L 35.404297 23.099609 C 35.434877 24.74552 35.249836 26.444285 35.853516 28.017578 C 36.805406 30.661646 39.119129 32.608064 41.650391 33.685547 C 42.612339 33.29195 43.511362 32.749986 44.335938 32.119141 C 46.290768 30.648478 47.752441 28.400827 47.878906 25.914062 C 47.918136 23.928998 47.888368 21.942723 47.898438 19.957031 L 35.404297 19.957031 z M 52.0625 19.957031 C 52.07253 21.942723 52.042801 23.928998 52.082031 25.914062 C 52.208496 28.400827 53.67017 30.648478 55.625 32.119141 C 56.449577 32.749986 57.348599 33.29195 58.310547 33.685547 C 60.841809 32.608064 63.155532 30.661648 64.107422 28.017578 C 64.711102 26.444285 64.526061 24.74552 64.556641 23.099609 L 64.556641 19.957031 L 52.0625 19.957031 z M 68.722656 19.957031 C 68.732736 21.942723 68.701004 23.928998 68.740234 25.914062 C 68.866699 28.400827 70.330325 30.648478 72.285156 32.119141 C 73.10973 32.749986 74.008755 33.29195 74.970703 33.685547 C 75.932651 33.29195 76.831677 32.749986 77.65625 32.119141 C 79.611081 30.648478 81.074707 28.400827 81.201172 25.914062 C 81.240402 23.928999 81.20867 21.942723 81.21875 19.957031 L 74.970703 19.957031 L 68.722656 19.957031 z M 85.384766 19.957031 L 85.384766 23.099609 C 85.415346 24.74552 85.230304 26.444285 85.833984 28.017578 C 86.785874 30.661647 89.099597 32.608064 91.630859 33.685547 C 92.592807 33.29195 93.491831 32.749986 94.316406 32.119141 C 96.271237 30.648478 97.732911 28.400827 97.859375 25.914062 C 97.898605 23.928999 97.868836 21.942723 97.878906 19.957031 L 85.384766 19.957031 z M 0 36.998047 L 0 50.714844 C 0.007 50.717764 0.01253125 50.723661 0.01953125 50.726562 C 2.5507813 49.649076 4.8645162 47.702664 5.8164062 45.058594 C 6.4200852 43.485302 6.235045 41.788488 6.265625 40.142578 L 6.265625 36.998047 L 0 36.998047 z M 10.412109 36.998047 C 10.422189 38.983739 10.390488 40.970014 10.429688 42.955078 C 10.556147 45.441842 12.019779 47.691446 13.974609 49.162109 C 14.799179 49.792955 15.698205 50.332966 16.660156 50.726562 C 19.191396 49.649079 21.505142 47.702664 22.457031 45.058594 C 23.060712 43.485302 22.87567 41.788488 22.90625 40.142578 L 22.90625 36.998047 L 10.412109 36.998047 z M 27.074219 36.998047 L 27.074219 40.142578 C 27.104799 41.788488 26.919757 43.485302 27.523438 45.058594 C 28.475327 47.702664 30.789072 49.649079 33.320312 50.726562 C 34.282263 50.332966 35.181289 49.792955 36.005859 49.162109 C 37.960689 47.691446 39.424322 45.441842 39.550781 42.955078 C 39.589981 40.970014 39.558259 38.983739 39.568359 36.998047 L 27.074219 36.998047 z M 43.714844 36.998047 L 43.714844 40.142578 C 43.745424 41.788489 43.560383 43.485304 44.164062 45.058594 C 45.115952 47.702664 47.429688 49.649076 49.960938 50.726562 C 49.967938 50.723643 49.973469 50.717744 49.980469 50.714844 C 49.987469 50.717764 49.993 50.723663 50 50.726562 C 52.53125 49.649077 54.844985 47.702663 55.796875 45.058594 C 56.400553 43.485302 56.215514 41.788489 56.246094 40.142578 L 56.246094 36.998047 L 49.980469 36.998047 L 43.714844 36.998047 z M 60.392578 36.998047 C 60.402658 38.983739 60.370956 40.970014 60.410156 42.955078 C 60.536615 45.441842 62.000248 47.691446 63.955078 49.162109 C 64.779648 49.792955 65.678674 50.332966 66.640625 50.726562 C 69.171865 49.649079 71.485611 47.702663 72.4375 45.058594 C 73.041181 43.485302 72.856139 41.788489 72.886719 40.142578 L 72.886719 36.998047 L 60.392578 36.998047 z M 77.054688 36.998047 L 77.054688 40.142578 C 77.085268 41.788489 76.900226 43.485302 77.503906 45.058594 C 78.455796 47.702663 80.769541 49.649079 83.300781 50.726562 C 84.262731 50.332966 85.161758 49.792955 85.986328 49.162109 C 87.941158 47.691446 89.404792 45.441842 89.53125 42.955078 C 89.57045 40.970014 89.538728 38.983739 89.548828 36.998047 L 77.054688 36.998047 z M 93.695312 36.998047 L 93.695312 40.142578 C 93.725892 41.788489 93.540851 43.485302 94.144531 45.058594 C 95.096421 47.702663 97.410156 49.649077 99.941406 50.726562 C 99.948406 50.723643 99.953937 50.717744 99.960938 50.714844 L 99.960938 36.998047 L 93.695312 36.998047 z M 0 55.158203 L 0 68.875 C 0.007 68.87792 0.01253125 68.88382 0.01953125 68.886719 C 2.5507812 67.809236 4.8645163 65.862819 5.8164062 63.21875 C 6.4200873 61.645458 6.235045 59.948646 6.265625 58.302734 L 6.265625 55.158203 L 0 55.158203 z M 10.412109 55.158203 C 10.422189 57.143895 10.390488 59.132123 10.429688 61.117188 C 10.556147 63.603953 12.019779 65.851603 13.974609 67.322266 C 14.799179 67.95311 15.698205 68.493122 16.660156 68.886719 C 19.191396 67.809236 21.505142 65.862819 22.457031 63.21875 C 23.060711 61.645458 22.87567 59.948645 22.90625 58.302734 L 22.90625 55.158203 L 10.412109 55.158203 z M 27.074219 55.158203 L 27.074219 58.302734 C 27.104799 59.948645 26.919757 61.645458 27.523438 63.21875 C 28.475327 65.862819 30.789072 67.809236 33.320312 68.886719 C 34.282263 68.493122 35.181289 67.95311 36.005859 67.322266 C 37.960689 65.851603 39.424322 63.603952 39.550781 61.117188 C 39.589981 59.132123 39.558259 57.143895 39.568359 55.158203 L 27.074219 55.158203 z M 43.714844 55.158203 L 43.714844 58.302734 C 43.745424 59.948645 43.560381 61.645458 44.164062 63.21875 C 45.115952 65.862819 47.429688 67.809235 49.960938 68.886719 C 49.967938 68.883799 49.973469 68.8779 49.980469 68.875 C 49.987469 68.87792 49.993 68.883819 50 68.886719 C 52.53125 67.809235 54.844985 65.862819 55.796875 63.21875 C 56.400556 61.645459 56.215514 59.948645 56.246094 58.302734 L 56.246094 55.158203 L 49.980469 55.158203 L 43.714844 55.158203 z M 60.392578 55.158203 C 60.402658 57.143895 60.370956 59.132123 60.410156 61.117188 C 60.536615 63.603952 62.000248 65.851603 63.955078 67.322266 C 64.779648 67.95311 65.678674 68.493121 66.640625 68.886719 C 69.171865 67.809235 71.485611 65.862819 72.4375 63.21875 C 73.04118 61.645459 72.856139 59.948645 72.886719 58.302734 L 72.886719 55.158203 L 60.392578 55.158203 z M 77.054688 55.158203 L 77.054688 58.302734 C 77.085268 59.948645 76.900226 61.64546 77.503906 63.21875 C 78.455796 65.862819 80.769541 67.809235 83.300781 68.886719 C 84.262731 68.493121 85.161758 67.95311 85.986328 67.322266 C 87.941158 65.851603 89.404792 63.603952 89.53125 61.117188 C 89.57045 59.132123 89.538728 57.143895 89.548828 55.158203 L 77.054688 55.158203 z M 93.695312 55.158203 L 93.695312 58.302734 C 93.725892 59.948645 93.54085 61.64546 94.144531 63.21875 C 95.096421 65.862819 97.410156 67.809234 99.941406 68.886719 C 99.948406 68.883799 99.953937 68.8779 99.960938 68.875 L 99.960938 55.158203 L 93.695312 55.158203 z M 2.0820312 72.201172 C 2.0920613 74.186864 2.0623325 76.17314 2.1015625 78.158203 C 2.2280275 80.644967 3.6897013 82.892618 5.6445312 84.363281 C 6.4691073 84.994127 7.3681301 85.536091 8.3300781 85.929688 C 10.86134 84.852205 13.175063 82.905788 14.126953 80.261719 C 14.730633 78.688427 14.545592 76.98966 14.576172 75.34375 L 14.576172 72.201172 L 2.0820312 72.201172 z M 18.742188 72.201172 C 18.752267 74.186864 18.720536 76.17314 18.759766 78.158203 C 18.886231 80.644967 20.349857 82.892618 22.304688 84.363281 C 23.129261 84.994126 24.028286 85.536091 24.990234 85.929688 C 25.952182 85.536091 26.851208 84.994126 27.675781 84.363281 C 29.630612 82.892618 31.094238 80.644969 31.220703 78.158203 C 31.259933 76.17314 31.228201 74.186864 31.238281 72.201172 L 24.990234 72.201172 L 18.742188 72.201172 z M 35.404297 72.201172 L 35.404297 75.34375 C 35.434877 76.98966 35.249836 78.688426 35.853516 80.261719 C 36.805406 82.905788 39.119129 84.852204 41.650391 85.929688 C 42.612339 85.536091 43.511362 84.994126 44.335938 84.363281 C 46.290768 82.892618 47.752441 80.644969 47.878906 78.158203 C 47.918136 76.17314 47.888368 74.186864 47.898438 72.201172 L 35.404297 72.201172 z M 52.0625 72.201172 C 52.07253 74.186864 52.042801 76.173138 52.082031 78.158203 C 52.208496 80.644968 53.67017 82.892618 55.625 84.363281 C 56.449577 84.994126 57.348599 85.536091 58.310547 85.929688 C 60.841809 84.852205 63.155532 82.905788 64.107422 80.261719 C 64.711102 78.688427 64.526061 76.989661 64.556641 75.34375 L 64.556641 72.201172 L 52.0625 72.201172 z M 68.722656 72.201172 C 68.732736 74.186864 68.701004 76.173138 68.740234 78.158203 C 68.866699 80.644968 70.330325 82.892618 72.285156 84.363281 C 73.10973 84.994126 74.008755 85.536091 74.970703 85.929688 C 75.932651 85.536091 76.831677 84.994126 77.65625 84.363281 C 79.611081 82.892618 81.074707 80.644969 81.201172 78.158203 C 81.240402 76.173141 81.20867 74.186864 81.21875 72.201172 L 74.970703 72.201172 L 68.722656 72.201172 z M 85.384766 72.201172 L 85.384766 75.34375 C 85.415346 76.989661 85.230304 78.688426 85.833984 80.261719 C 86.785874 82.905788 89.099597 84.852204 91.630859 85.929688 C 92.592807 85.536091 93.491831 84.994126 94.316406 84.363281 C 96.271237 82.892618 97.73291 80.644969 97.859375 78.158203 C 97.898605 76.173141 97.868836 74.186864 97.878906 72.201172 L 85.384766 72.201172 z M 0 89.242188 L 0 102.95898 C 0.007 102.96168 0.01253125 102.9677 0.01953125 102.9707 C 2.5507812 101.89321 4.8645163 99.946804 5.8164062 97.302734 C 6.4200852 95.729443 6.235045 94.032629 6.265625 92.386719 L 6.265625 89.242188 L 0 89.242188 z M 10.412109 89.242188 C 10.422189 91.22788 10.390488 93.214154 10.429688 95.199219 C 10.556147 97.685983 12.019779 99.93558 13.974609 101.40625 C 14.799179 102.03709 15.698205 102.5771 16.660156 102.9707 C 19.191396 101.89322 21.505142 99.946804 22.457031 97.302734 C 23.060712 95.729443 22.87567 94.032629 22.90625 92.386719 L 22.90625 89.242188 L 10.412109 89.242188 z M 27.074219 89.242188 L 27.074219 92.386719 C 27.104799 94.032629 26.919757 95.729443 27.523438 97.302734 C 28.475327 99.946804 30.789072 101.89322 33.320312 102.9707 C 34.282263 102.5771 35.181289 102.03709 36.005859 101.40625 C 37.960689 99.93558 39.424322 97.685983 39.550781 95.199219 C 39.589981 93.214154 39.558259 91.22788 39.568359 89.242188 L 27.074219 89.242188 z M 43.714844 89.242188 L 43.714844 92.386719 C 43.745424 94.03263 43.560383 95.729443 44.164062 97.302734 C 45.115952 99.946804 47.429688 101.89321 49.960938 102.9707 C 49.967938 102.968 49.973469 102.96198 49.980469 102.95898 C 49.987469 102.96168 49.993 102.9677 50 102.9707 C 52.53125 101.89322 54.844985 99.946803 55.796875 97.302734 C 56.400553 95.729443 56.215514 94.03263 56.246094 92.386719 L 56.246094 89.242188 L 49.980469 89.242188 L 43.714844 89.242188 z M 60.392578 89.242188 C 60.402658 91.22788 60.370956 93.214155 60.410156 95.199219 C 60.536615 97.685983 62.000248 99.935582 63.955078 101.40625 C 64.779648 102.03709 65.678674 102.5771 66.640625 102.9707 C 69.171865 101.89322 71.485611 99.946803 72.4375 97.302734 C 73.041181 95.729443 72.856139 94.03263 72.886719 92.386719 L 72.886719 89.242188 L 60.392578 89.242188 z M 77.054688 89.242188 L 77.054688 92.386719 C 77.085268 94.03263 76.900226 95.729443 77.503906 97.302734 C 78.455796 99.946803 80.769541 101.89322 83.300781 102.9707 C 84.262731 102.5771 85.161758 102.03709 85.986328 101.40625 C 87.941158 99.935581 89.404792 97.685983 89.53125 95.199219 C 89.57045 93.214156 89.538728 91.22788 89.548828 89.242188 L 77.054688 89.242188 z M 93.695312 89.242188 L 93.695312 92.386719 C 93.725892 94.03263 93.540851 95.729442 94.144531 97.302734 C 95.096421 99.946803 97.410156 101.89324 99.941406 102.9707 C 99.948406 102.968 99.953937 102.96198 99.960938 102.95898 L 99.960938 89.242188 L 93.695312 89.242188 z "
     inkscape:transform-center-y="0.96112027"
     inkscape:transform-center-x="-4.8756645"
     style="opacity:1;fill:#000000;fill-opacity:1;stroke:none;stroke-width:0.19521;stroke-opacity:1"
     id="path828-9-8-9-8-8-3-0-0-0-7-5-1" />
</svg>
