<?xml version="1.0" encoding="UTF-8"?>
<svg version="1.1" viewBox="0 0 100 110" xmlns="http://www.w3.org/2000/svg" xmlns:cc="http://creativecommons.org/ns#" xmlns:dc="http://purl.org/dc/elements/1.1/" xmlns:rdf="http://www.w3.org/1999/02/22-rdf-syntax-ns#" xmlns:xlink="http://www.w3.org/1999/xlink">
 <metadata>
  <rdf:RDF>
   <cc:Work rdf:about="">
    <dc:format>image/svg+xml</dc:format>
    <dc:type rdf:resource="http://purl.org/dc/dcmitype/StillImage"/>
    <dc:title/>
   </cc:Work>
  </rdf:RDF>
 </metadata>
 <defs>
  <pattern id="pattern1918" patternTransform="matrix(1.216 0 -1.313e-8 1.233 50 5.201)" xlink:href="#pattern949"/>
  <pattern id="pattern949" width="16.659995" height="34.085261" patternTransform="translate(8.33 2.515)" patternUnits="userSpaceOnUse">
   <g transform="translate(-8.33 -2.515)">
    <rect x="8.33" y="2.515" width="16.66" height="34.08" opacity="0" stroke-width="10" style="paint-order:stroke fill markers"/>
    <path d="m16.68 17.04-0.4188 1.019s-0.1756 0.3373-0.2991 0.4681c-0.1834 0.1942-0.4325 0.315-0.6348 0.4482-1.506 0.9921-1.854 2.813-0.85 4.482-3.671-0.8434-4.553 3.05-2.222 5.276 0.6436 0.327 0.8485 0.3759 1.396 0.5613-0.1109-0.3477-0.2739-0.6194-0.3321-0.8912-0.2903-1.355 0.8396-1.972 1.461-0.6022 0.1563 0.4381 0.239 0.8721 0.2679 1.301h-0.4527l-0.6071 0.8744 0.6071 0.8734h0.3125c-0.02363 0.1168-0.0475 0.234-0.075 0.3498-0.2354 0.9906-0.8829 1.801-1.401 2.611 0.797-0.1064 1.342-0.2109 1.967-0.731-0.2742 1.45 0.4465 2.647 1.282 3.519 0.8357-0.8717 1.556-2.068 1.282-3.519 0.625 0.5201 1.17 0.6246 1.967 0.731-0.518-0.8098-1.165-1.62-1.401-2.611-0.02752-0.1157-0.05139-0.233-0.075-0.3498h0.3125l0.6071-0.8734-0.6071-0.8744h-0.4527c0.02889-0.4286 0.1116-0.8625 0.2679-1.301 0.6211-1.37 1.751-0.7531 1.461 0.6022-0.05823 0.2718-0.2213 0.5435-0.3321 0.8912 0.547-0.1854 0.752-0.2344 1.396-0.5613 2.33-2.226 1.449-6.119-2.222-5.276 1.004-1.669 0.6565-3.49-0.85-4.482-0.2023-0.1332-0.4514-0.254-0.6348-0.4482-0.1235-0.1308-0.2991-0.4681-0.2991-0.4681z"/>
    <path d="m10.28 2.515h-1.951v17.04c0.8357-0.8717 1.555-2.069 1.281-3.52 0.625 0.5201 1.172 0.6241 1.969 0.7305-0.518-0.8098-1.167-1.619-1.402-2.609-0.02752-0.1157-0.0506-0.2328-0.07422-0.3496h0.3125l0.6074-0.875-0.6074-0.873h-0.4531c0.02889-0.4286 0.1113-0.8626 0.2676-1.301 0.6211-1.37 1.751-0.7537 1.461 0.6016-0.05823 0.2718-0.2211 0.5429-0.332 0.8906 0.547-0.1854 0.7529-0.2336 1.396-0.5605 2.33-2.226 1.448-6.119-2.223-5.275 0.8394-1.395 0.6851-2.868-0.252-3.902z"/>
    <path d="m8.33 34.08v2.516h1.951c-0.1839-0.203-0.3505-0.4173-0.5977-0.5801-0.2023-0.1332-0.4514-0.255-0.6348-0.4492-0.1235-0.1308-0.3008-0.4668-0.3008-0.4668z"/>
    <path d="m23.04 2.515h1.951v17.04c-0.8357-0.8717-1.555-2.069-1.281-3.52-0.625 0.5201-1.172 0.6241-1.969 0.7305 0.518-0.8098 1.167-1.619 1.402-2.609 0.02752-0.1157 0.0506-0.2328 0.07422-0.3496h-0.3125l-0.6074-0.875 0.6074-0.873h0.4531c-0.02889-0.4286-0.1113-0.8626-0.2676-1.301-0.6211-1.37-1.751-0.7537-1.461 0.6016 0.05823 0.2718 0.2211 0.5429 0.332 0.8906-0.547-0.1854-0.7529-0.2336-1.396-0.5605-2.33-2.226-1.448-6.119 2.223-5.275-0.8394-1.395-0.6851-2.868 0.252-3.902z"/>
    <path d="m24.99 34.08v2.516h-1.951c0.1839-0.203 0.3505-0.4173 0.5977-0.5801 0.2023-0.1332 0.4514-0.255 0.6348-0.4492 0.1235-0.1308 0.3008-0.4668 0.3008-0.4668z"/>
   </g>
  </pattern>
 </defs>
 <clipPath id="escu">
  <rect width="100" height="120"/>
 </clipPath>
 <g fill="#000000" font-family="sans-serif" font-size="40px">
  <text x="-66.600601" y="42.176289" style="line-height:1.25" xml:space="preserve"><tspan x="-66.600601" y="42.176289"/></text>
  <text x="-201.93855" y="0.78777015" style="line-height:1.25" xml:space="preserve"><tspan x="-201.93855" y="0.78777015"/></text>
  <text x="-159.68279" y="-76.685295" style="line-height:1.25" xml:space="preserve"><tspan x="-159.68279" y="-76.685295"/></text>
 </g>
 <rect x="-2.5" width="105" height="115" fill="url(#pattern1918)"/>
</svg>
