<?xml version="1.0" encoding="UTF-8" standalone="no"?>
<svg
   xmlns:dc="http://purl.org/dc/elements/1.1/"
   xmlns:cc="http://creativecommons.org/ns#"
   xmlns:rdf="http://www.w3.org/1999/02/22-rdf-syntax-ns#"
   xmlns:svg="http://www.w3.org/2000/svg"
   xmlns="http://www.w3.org/2000/svg"
   xmlns:sodipodi="http://sodipodi.sourceforge.net/DTD/sodipodi-0.dtd"
   xmlns:inkscape="http://www.inkscape.org/namespaces/inkscape"
   inkscape:version="1.0 (4035a4fb49, 2020-05-01)"
   sodipodi:docname="fleur-de-lis.svg"
   id="svg36"
   version="1.1"
   viewBox="0 0 100 110">
  <metadata
     id="metadata42">
    <rdf:RDF>
      <cc:Work
         rdf:about="">
        <dc:format>image/svg+xml</dc:format>
        <dc:type
           rdf:resource="http://purl.org/dc/dcmitype/StillImage" />
        <dc:title />
      </cc:Work>
    </rdf:RDF>
  </metadata>
  <defs
     id="defs40">
    <inkscape:path-effect
       split_items="false"
       oposite_fuse="false"
       fuse_paths="false"
       discard_orig_path="false"
       mode="free"
       lpeversion="1"
       is_visible="true"
       id="path-effect1071"
       center_point="-1068.7578,-627.84278"
       end_point="-1068.7578,-592.88867"
       start_point="-1068.7578,-662.79688"
       effect="mirror_symmetry" />
    <inkscape:path-effect
       effect="mirror_symmetry"
       start_point="-1068.7578,-662.79688"
       end_point="-1068.7578,-592.88867"
       center_point="-1068.7578,-627.84278"
       id="path-effect1069"
       is_visible="true"
       lpeversion="1"
       mode="free"
       discard_orig_path="false"
       fuse_paths="false"
       oposite_fuse="false"
       split_items="false" />
    <inkscape:path-effect
       split_items="false"
       oposite_fuse="false"
       fuse_paths="false"
       discard_orig_path="false"
       mode="free"
       lpeversion="1"
       is_visible="true"
       id="path-effect1045"
       center_point="-1068.7578,-627.84278"
       end_point="-1068.7578,-592.88867"
       start_point="-1068.7578,-662.79688"
       effect="mirror_symmetry" />
    <inkscape:path-effect
       effect="mirror_symmetry"
       start_point="-1068.7578,-662.79688"
       end_point="-1068.7578,-592.88867"
       center_point="-1068.7578,-627.84278"
       id="path-effect1043"
       is_visible="true"
       lpeversion="1"
       mode="free"
       discard_orig_path="false"
       fuse_paths="false"
       oposite_fuse="false"
       split_items="false" />
    <inkscape:path-effect
       split_items="false"
       oposite_fuse="false"
       fuse_paths="false"
       discard_orig_path="false"
       mode="free"
       lpeversion="1"
       is_visible="true"
       id="path-effect1041"
       center_point="-1068.7578,-627.84278"
       end_point="-1068.7578,-592.88867"
       start_point="-1068.7578,-662.79688"
       effect="mirror_symmetry" />
    <inkscape:path-effect
       split_items="false"
       oposite_fuse="false"
       fuse_paths="false"
       discard_orig_path="false"
       mode="free"
       lpeversion="1"
       is_visible="true"
       id="path-effect1012"
       center_point="-1068.7578,-627.84278"
       end_point="-1068.7578,-592.88867"
       start_point="-1068.7578,-662.79688"
       effect="mirror_symmetry" />
    <inkscape:path-effect
       effect="mirror_symmetry"
       start_point="-1068.7578,-662.79688"
       end_point="-1068.7578,-592.88867"
       center_point="-1068.7578,-627.84278"
       id="path-effect1010"
       is_visible="true"
       lpeversion="1"
       mode="free"
       discard_orig_path="false"
       fuse_paths="false"
       oposite_fuse="false"
       split_items="false" />
    <inkscape:path-effect
       split_items="false"
       oposite_fuse="false"
       fuse_paths="false"
       discard_orig_path="false"
       mode="free"
       lpeversion="1"
       is_visible="true"
       id="path-effect974"
       center_point="-1068.7578,-627.84278"
       end_point="-1068.7578,-592.88867"
       start_point="-1068.7578,-662.79688"
       effect="mirror_symmetry" />
    <inkscape:path-effect
       split_items="false"
       oposite_fuse="false"
       fuse_paths="false"
       discard_orig_path="false"
       mode="free"
       lpeversion="1"
       is_visible="true"
       id="path-effect945"
       center_point="-1068.7578,-627.84278"
       end_point="-1068.7578,-592.88867"
       start_point="-1068.7578,-662.79688"
       effect="mirror_symmetry" />
    <inkscape:path-effect
       effect="mirror_symmetry"
       start_point="-1068.7578,-662.79688"
       end_point="-1068.7578,-592.88867"
       center_point="-1068.7578,-627.84278"
       id="path-effect916"
       is_visible="true"
       lpeversion="1"
       mode="free"
       discard_orig_path="false"
       fuse_paths="false"
       oposite_fuse="false"
       split_items="false" />
    <inkscape:path-effect
       only_selected="false"
       apply_with_weight="true"
       apply_no_weight="true"
       helper_size="0"
       steps="2"
       weight="33.333333"
       lpeversion="1"
       is_visible="true"
       id="path-effect1050"
       effect="bspline" />
    <inkscape:path-effect
       effect="bspline"
       id="path-effect1030"
       is_visible="true"
       lpeversion="1"
       weight="33.333333"
       steps="2"
       helper_size="0"
       apply_no_weight="true"
       apply_with_weight="true"
       only_selected="false" />
    <inkscape:path-effect
       effect="bspline"
       id="path-effect1001"
       is_visible="true"
       lpeversion="1"
       weight="33.333333"
       steps="2"
       helper_size="0"
       apply_no_weight="true"
       apply_with_weight="true"
       only_selected="false" />
    <inkscape:path-effect
       only_selected="false"
       apply_with_weight="true"
       apply_no_weight="true"
       helper_size="0"
       steps="2"
       weight="33.333333"
       lpeversion="1"
       is_visible="true"
       id="path-effect999"
       effect="bspline" />
    <inkscape:path-effect
       effect="bspline"
       id="path-effect975"
       is_visible="true"
       lpeversion="1"
       weight="33.333333"
       steps="2"
       helper_size="0"
       apply_no_weight="true"
       apply_with_weight="true"
       only_selected="false" />
    <inkscape:path-effect
       only_selected="false"
       apply_with_weight="true"
       apply_no_weight="true"
       helper_size="0"
       steps="2"
       weight="33.333333"
       lpeversion="1"
       is_visible="true"
       id="path-effect956"
       effect="bspline" />
    <clipPath
       id="ordi2-0">
      <circle
         id="circle19-4"
         r="3.75"
         cy="21.921255"
         cx="204.90433" />
      <circle
         id="circle21-8"
         r="3.75"
         cy="81.921257"
         cx="204.90433" />
      <circle
         id="circle23-8"
         r="3.75"
         cy="51.921257"
         cx="174.90433" />
      <circle
         id="circle25-8"
         r="3.75"
         cy="51.921257"
         cx="234.90433" />
    </clipPath>
  </defs>
  <sodipodi:namedview
     inkscape:snap-bbox-midpoints="true"
     inkscape:snap-bbox-edge-midpoints="true"
     inkscape:bbox-nodes="true"
     inkscape:bbox-paths="true"
     inkscape:snap-bbox="true"
     inkscape:document-rotation="0"
     inkscape:guide-bbox="true"
     showguides="false"
     inkscape:current-layer="svg36"
     inkscape:window-maximized="1"
     inkscape:window-y="0"
     inkscape:window-x="0"
     inkscape:cy="20.743687"
     inkscape:cx="28.038029"
     inkscape:zoom="2.8284271"
     showgrid="false"
     id="namedview38"
     inkscape:window-height="1020"
     inkscape:window-width="1920"
     inkscape:pageshadow="2"
     inkscape:pageopacity="0"
     guidetolerance="10"
     gridtolerance="10"
     objecttolerance="10"
     borderopacity="1"
     bordercolor="#666666"
     pagecolor="#ffffff" />
  <clipPath
     id="escu">
    <rect
       id="rect2"
       height="120"
       width="100" />
  </clipPath>
  <text
     id="text934"
     y="42.176289"
     x="-66.600601"
     style="font-style:normal;font-weight:normal;font-size:40px;line-height:1.25;font-family:sans-serif;fill:#000000;fill-opacity:1;stroke:none"
     xml:space="preserve"><tspan
       y="42.176289"
       x="-66.600601"
       id="tspan932"
       sodipodi:role="line" /></text>
  <text
     id="text944"
     y="0.78777015"
     x="-201.93855"
     style="font-style:normal;font-weight:normal;font-size:40px;line-height:1.25;font-family:sans-serif;fill:#000000;fill-opacity:1;stroke:none"
     xml:space="preserve"><tspan
       y="0.78777015"
       x="-201.93855"
       id="tspan942"
       sodipodi:role="line" /></text>
  <text
     id="text948"
     y="-76.685295"
     x="-159.68279"
     style="font-style:normal;font-weight:normal;font-size:40px;line-height:1.25;font-family:sans-serif;fill:#000000;fill-opacity:1;stroke:none"
     xml:space="preserve"><tspan
       y="-76.685295"
       x="-159.68279"
       id="tspan946"
       sodipodi:role="line" /></text>
  <path
     d="M 91.670015,1.6627074e-6 92.088762,1.018957 c 0,0 0.175597,0.3372994 0.299108,0.468113 0.183378,0.1942371 0.432502,0.314992 0.63482,0.4482148 1.506459,0.9920795 1.854119,2.8133355 0.849996,4.482152 3.671063,-0.8433581 4.552583,3.050292 2.222323,5.2759522 -0.64357,0.326952 -0.8485,0.375904 -1.39554,0.561315 0.11089,-0.347704 0.27392,-0.619422 0.33215,-0.891193 0.29033,-1.355268 -0.839591,-1.9719468 -1.460715,-0.602158 -0.156283,0.438146 -0.238971,0.872082 -0.267858,1.30066 h 0.452681 l 0.607142,0.874439 -0.607142,0.873391 h -0.312503 c 0.02363,0.116774 0.0475,0.234032 0.075,0.349776 0.235428,0.990641 0.882885,1.800986 1.400895,2.610747 -0.797038,-0.106382 -1.342002,-0.210878 -1.966965,-0.730967 0.274189,1.450473 -0.446464,2.647017 -1.282138,3.518698 -0.835679,-0.871681 -1.556331,-2.068225 -1.282142,-3.518698 -0.624964,0.520089 -1.169928,0.62459 -1.966963,0.730967 0.51801,-0.809761 1.165465,-1.620106 1.400893,-2.610747 0.02752,-0.115743 0.05138,-0.233005 0.075,-0.349776 h -0.312498 l -0.607145,-0.873391 0.607145,-0.874439 h 0.452676 c -0.02889,-0.428578 -0.111577,-0.862513 -0.26786,-1.30066 -0.621124,-1.3697888 -1.751046,-0.75311 -1.460712,0.602158 0.05823,0.271771 0.221252,0.543489 0.332143,0.891193 C 88.093516,12.069293 87.888588,12.020341 87.245019,11.693389 84.914758,9.4677288 85.796271,5.5740787 89.467339,6.4174368 88.463212,4.7486203 88.810874,2.9273643 90.317336,1.9352848 90.519653,1.802062 90.768778,1.6813071 90.952156,1.48707 91.075666,1.3562564 91.251264,1.018957 91.251264,1.018957 Z"
     style="fill:#000000;fill-opacity:1;stroke:none;stroke-width:0.258326px;stroke-linecap:butt;stroke-linejoin:miter;stroke-opacity:1"
     id="path872-3-6-8" />
  <path
     d="M 75.010019,4.8980644e-7 75.428771,1.0189559 c 0,0 0.175597,0.3372993 0.299103,0.468113 0.183383,0.1942371 0.432503,0.3149919 0.63482,0.4482147 1.506466,0.9920796 1.854126,2.8133355 0.850001,4.482152 3.671066,-0.8433581 4.55258,3.050292 2.222319,5.2759524 -0.643569,0.326952 -0.848498,0.375904 -1.395535,0.561315 0.110891,-0.347704 0.273919,-0.619422 0.332143,-0.891193 0.290334,-1.355269 -0.83959,-1.9719471 -1.460714,-0.602158 -0.156283,0.438146 -0.238971,0.872082 -0.267853,1.30066 h 0.452676 l 0.60714,0.874438 -0.60714,0.873392 h -0.312498 c 0.02359,0.116774 0.0475,0.234032 0.075,0.349775 0.235423,0.990642 0.882883,1.800987 1.40089,2.610748 -0.797037,-0.106382 -1.341997,-0.210879 -1.96696,-0.730967 0.274184,1.450473 -0.446464,2.647017 -1.282143,3.518698 -0.835678,-0.871681 -1.556326,-2.068225 -1.282142,-3.518698 -0.624963,0.520088 -1.169923,0.62459 -1.966959,0.730967 0.518006,-0.809761 1.165466,-1.620106 1.400889,-2.610748 0.02752,-0.115742 0.05139,-0.233004 0.075,-0.349775 H 72.92431 l -0.60714,-0.873392 0.60714,-0.874438 h 0.452676 c -0.02889,-0.428578 -0.111572,-0.862513 -0.267855,-1.30066 -0.621124,-1.3697891 -1.751047,-0.753111 -1.460716,0.602158 0.05823,0.271771 0.221252,0.543489 0.332146,0.891193 -0.547039,-0.185411 -0.751967,-0.234363 -1.395536,-0.561315 -2.33026,-2.2256604 -1.448748,-6.1193105 2.222319,-5.2759524 -1.004127,-1.6688165 -0.656461,-3.4900724 0.850001,-4.482152 0.202317,-0.1332228 0.451437,-0.2539776 0.634819,-0.4482147 0.123507,-0.1308137 0.299104,-0.468113 0.299104,-0.468113 z"
     style="fill:#000000;fill-opacity:1;stroke:none;stroke-width:0.258326px;stroke-linecap:butt;stroke-linejoin:miter;stroke-opacity:1"
     id="path872-3-9-7" />
  <path
     d="m 58.350018,0 -0.418751,1.0189554 c 0,0 -0.175598,0.3372994 -0.299104,0.468113 -0.183382,0.1942371 -0.432502,0.314992 -0.634819,0.4482148 -1.506462,0.9920795 -1.854128,2.8133355 -0.850002,4.4821519 -3.671066,-0.8433581 -4.552578,3.050292 -2.222319,5.2759529 0.64357,0.326952 0.848497,0.375904 1.395537,0.561315 -0.110894,-0.347704 -0.27392,-0.619422 -0.332146,-0.891194 -0.290331,-1.355268 0.839592,-1.9719466 1.460715,-0.602157 0.156284,0.438146 0.238972,0.872082 0.267854,1.30066 h -0.452676 l -0.60714,0.874438 0.60714,0.873392 h 0.312498 c -0.02363,0.116774 -0.0475,0.234032 -0.075,0.349775 -0.235424,0.990642 -0.882884,1.800987 -1.40089,2.610748 0.797037,-0.106382 1.341996,-0.210879 1.96696,-0.730967 -0.274185,1.450473 0.446463,2.647017 1.282142,3.518698 0.835679,-0.871681 1.556327,-2.068225 1.282142,-3.518698 0.624964,0.520088 1.169923,0.62459 1.96696,0.730967 -0.518006,-0.809761 -1.165466,-1.620106 -1.40089,-2.610748 -0.02752,-0.115742 -0.05139,-0.233004 -0.075,-0.349775 h 0.312498 l 0.607139,-0.873392 -0.607139,-0.874438 h -0.452675 c 0.02889,-0.428578 0.11157,-0.862514 0.267853,-1.30066 0.621124,-1.3697896 1.751047,-0.753111 1.460716,0.602157 -0.05823,0.271772 -0.221253,0.54349 -0.332146,0.891194 0.547039,-0.185411 0.751967,-0.234363 1.395536,-0.561315 C 65.105271,9.4677271 64.223759,5.574077 60.552692,6.4174351 61.556821,4.7486187 61.209155,2.9273627 59.702693,1.9352832 59.500375,1.8020604 59.251256,1.6813055 59.067873,1.4870684 58.944367,1.3562548 58.76877,1.0189554 58.76877,1.0189554 Z"
     style="fill:#000000;fill-opacity:1;stroke:none;stroke-width:0.258326px;stroke-linecap:butt;stroke-linejoin:miter;stroke-opacity:1"
     id="path872-3-6-1-9" />
  <path
     d="m 66.66348,17.041903 0.418751,1.018956 c 0,0 0.175598,0.337299 0.299104,0.468113 0.183382,0.194237 0.432503,0.314991 0.63482,0.448214 1.506462,0.99208 1.854128,2.813336 0.850002,4.482152 3.671066,-0.843358 4.552577,3.050292 2.222319,5.275952 -0.64357,0.326953 -0.848497,0.375905 -1.395537,0.561316 0.110894,-0.347704 0.27392,-0.619422 0.332146,-0.891194 0.290331,-1.355268 -0.839592,-1.971947 -1.460715,-0.602158 -0.156284,0.438147 -0.238972,0.872082 -0.267854,1.30066 h 0.452676 l 0.60714,0.874439 -0.60714,0.873391 h -0.312498 c 0.02363,0.116775 0.0475,0.234033 0.075,0.349776 0.235424,0.990641 0.882884,1.800988 1.40089,2.610747 -0.797037,-0.106382 -1.341996,-0.210878 -1.96696,-0.730967 0.274185,1.450475 -0.446464,2.647017 -1.282143,3.518699 -0.835679,-0.871682 -1.556327,-2.068224 -1.282142,-3.518699 -0.624964,0.520089 -1.169923,0.624592 -1.96696,0.730967 0.518006,-0.809759 1.165466,-1.620106 1.40089,-2.610747 0.02752,-0.115742 0.05139,-0.233003 0.075,-0.349776 h -0.312498 l -0.607139,-0.873391 0.607139,-0.874439 h 0.452675 c -0.02889,-0.428578 -0.11157,-0.862513 -0.267853,-1.30066 -0.621124,-1.369789 -1.751047,-0.75311 -1.460716,0.602158 0.05823,0.271772 0.221253,0.54349 0.332146,0.891194 -0.547039,-0.185411 -0.751967,-0.234363 -1.395536,-0.561316 -2.33026,-2.22566 -1.448748,-6.11931 2.222319,-5.275952 -1.004129,-1.668816 -0.656463,-3.490072 0.849999,-4.482152 0.202318,-0.133223 0.451437,-0.253977 0.63482,-0.448214 0.123506,-0.130814 0.299103,-0.468113 0.299103,-0.468113 z"
     style="fill:#000000;fill-opacity:1;stroke:none;stroke-width:0.258326px;stroke-linecap:butt;stroke-linejoin:miter;stroke-opacity:1"
     id="path872-3-6-1-9-4-3" />
  <path
     id="path872-3-6-1-9-4-7"
     style="fill:#000000;fill-opacity:1;stroke:none;stroke-width:0.258326px;stroke-linecap:butt;stroke-linejoin:miter;stroke-opacity:1"
     d="m 50.000989,17.041016 v 0.0039 l 0.417969,1.015625 c 0,0 0.175322,0.337936 0.298828,0.46875 0.183382,0.194237 0.432449,0.314044 0.634766,0.447265 1.506462,0.992081 1.853735,2.813606 0.849609,4.482422 3.671066,-0.843358 4.552915,3.049731 2.222656,5.275391 -0.64357,0.326953 -0.849444,0.377089 -1.396484,0.5625 0.110894,-0.347704 0.275758,-0.618853 0.333984,-0.890625 0.290331,-1.355268 -0.839814,-1.973305 -1.460937,-0.603516 -0.156284,0.438147 -0.238696,0.872204 -0.267578,1.300782 h 0.451171 l 0.607422,0.875 -0.607422,0.873046 h -0.3125 c 0.02363,0.116777 0.04867,0.233867 0.07617,0.34961 0.235424,0.990641 0.882385,1.801569 1.400391,2.611328 -0.797037,-0.106382 -1.341833,-0.21038 -1.966797,-0.730469 0.273982,1.449399 -0.446361,2.64411 -1.28125,3.515625 -2.81e-4,2.94e-4 -0.0017,-2.93e-4 -0.002,0 -0.834889,-0.871515 -1.555232,-2.066226 -1.28125,-3.515625 -0.624964,0.520089 -1.16976,0.624087 -1.966797,0.730469 0.518006,-0.809759 1.164967,-1.620687 1.400391,-2.611328 0.0275,-0.115743 0.05254,-0.232833 0.07617,-0.34961 h -0.3125 l -0.607422,-0.873046 0.607422,-0.875 h 0.451171 c -0.02888,-0.428578 -0.111294,-0.862635 -0.267578,-1.300782 -0.621123,-1.369789 -1.751268,-0.751752 -1.460937,0.603516 0.05823,0.271772 0.22309,0.542921 0.333984,0.890625 -0.54704,-0.185411 -0.752914,-0.235547 -1.396484,-0.5625 -2.330259,-2.22566 -1.44841,-6.118749 2.222656,-5.275391 -1.004126,-1.668816 -0.656852,-3.490341 0.849609,-4.482422 0.202318,-0.133221 0.451384,-0.253028 0.634766,-0.447265 0.123506,-0.130814 0.298828,-0.46875 0.298828,-0.46875 l 0.417969,-1.015625 v -0.002 z" />
  <path
     id="path872-3-6-1-9-4-7-1"
     style="fill:#000000;fill-opacity:1;stroke:none;stroke-width:0.258326px;stroke-linecap:butt;stroke-linejoin:miter;stroke-opacity:1"
     d="m 83.323481,17.041903 0.418751,1.018956 c 0,0 0.175598,0.337299 0.299104,0.468113 0.183382,0.194237 0.432503,0.314991 0.63482,0.448214 1.506462,0.99208 1.854128,2.813336 0.850002,4.482152 3.671066,-0.843358 4.552578,3.050292 2.222319,5.275952 -0.64357,0.326953 -0.848497,0.375905 -1.395537,0.561316 0.110894,-0.347704 0.27392,-0.619422 0.332146,-0.891194 0.290331,-1.355268 -0.839592,-1.971947 -1.460715,-0.602158 -0.156284,0.438147 -0.238972,0.872082 -0.267854,1.30066 h 0.452676 l 0.60714,0.874439 -0.60714,0.873391 h -0.312498 c 0.02363,0.116775 0.0475,0.234033 0.075,0.349776 0.235424,0.990641 0.882884,1.800988 1.40089,2.610747 -0.797037,-0.106382 -1.341996,-0.210878 -1.96696,-0.730967 0.274185,1.450475 -0.446464,2.647017 -1.282143,3.518699 -0.835679,-0.871682 -1.556327,-2.068224 -1.282142,-3.518699 -0.624964,0.520089 -1.169923,0.624592 -1.96696,0.730967 0.518006,-0.809759 1.165466,-1.620106 1.40089,-2.610747 0.02752,-0.115742 0.05139,-0.233003 0.075,-0.349776 h -0.312498 l -0.607139,-0.873391 0.607139,-0.874439 h 0.452675 c -0.02889,-0.428578 -0.11157,-0.862513 -0.267853,-1.30066 -0.621124,-1.369789 -1.751047,-0.75311 -1.460716,0.602158 0.05823,0.271772 0.221253,0.54349 0.332146,0.891194 -0.547039,-0.185411 -0.751967,-0.234363 -1.395536,-0.561316 -2.33026,-2.22566 -1.448748,-6.11931 2.222319,-5.275952 -1.004129,-1.668816 -0.656463,-3.490072 0.849999,-4.482152 0.202318,-0.133223 0.451437,-0.253977 0.63482,-0.448214 0.123506,-0.130814 0.299103,-0.468113 0.299103,-0.468113 z" />
  <path
     d="m 99.979769,17.041903 0.418751,1.018956 c 0,0 0.17559,0.337299 0.2991,0.468113 0.18338,0.194237 0.4325,0.314991 0.63482,0.448214 1.50646,0.99208 1.85413,2.813336 0.85,4.482152 3.67107,-0.843358 4.55258,3.050292 2.22232,5.275952 -0.64357,0.326953 -0.8485,0.375905 -1.39554,0.561316 0.1109,-0.347704 0.27392,-0.619422 0.33215,-0.891194 0.29033,-1.355268 -0.83959,-1.971947 -1.46071,-0.602158 -0.15629,0.438147 -0.23898,0.872082 -0.26786,1.30066 h 0.45268 l 0.60714,0.874439 -0.60714,0.873391 h -0.3125 c 0.0236,0.116775 0.0475,0.234033 0.075,0.349776 0.23542,0.990641 0.88288,1.800988 1.40089,2.610747 -0.79704,-0.106382 -1.342,-0.210878 -1.96696,-0.730967 0.27418,1.450475 -0.44646,2.647017 -1.282141,3.518699 -0.83568,-0.871682 -1.55633,-2.068224 -1.28214,-3.518699 -0.62497,0.520089 -1.16992,0.624592 -1.96696,0.730967 0.518,-0.809759 1.16546,-1.620106 1.40089,-2.610747 0.0275,-0.115742 0.0514,-0.233003 0.075,-0.349776 h -0.3125 l -0.60714,-0.873391 0.60714,-0.874439 h 0.45268 c -0.0289,-0.428578 -0.11157,-0.862513 -0.26786,-1.30066 -0.62112,-1.369789 -1.75104,-0.75311 -1.46071,0.602158 0.0582,0.271772 0.22125,0.54349 0.33214,0.891194 -0.54704,-0.185411 -0.75196,-0.234363 -1.39553,-0.561316 -2.330263,-2.22566 -1.448751,-6.11931 2.22232,-5.275952 -1.00413,-1.668816 -0.65647,-3.490072 0.84999,-4.482152 0.20232,-0.133223 0.45144,-0.253977 0.63482,-0.448214 0.12351,-0.130814 0.29911,-0.468113 0.29911,-0.468113 z"
     style="fill:#000000;fill-opacity:1;stroke:none;stroke-width:0.258326px;stroke-linecap:butt;stroke-linejoin:miter;stroke-opacity:1"
     id="path872-3-6-1-9-4-7-1-3" />
  <path
     id="path872-3-6-8-3"
     style="fill:#000000;fill-opacity:1;stroke:none;stroke-width:0.258326px;stroke-linecap:butt;stroke-linejoin:miter;stroke-opacity:1"
     d="M 8.3300632,1.6627074e-6 7.9113162,1.018957 c 0,0 -0.175597,0.3372994 -0.299108,0.468113 -0.183378,0.1942371 -0.432502,0.314992 -0.63482,0.4482148 -1.506462,0.9920795 -1.854123,2.8133355 -0.849996,4.482152 -3.6710665,-0.8433581 -4.5525835,3.050292 -2.2223195,5.2759522 0.6435695,0.326952 0.8484975,0.375904 1.3955315,0.561315 -0.110889,-0.347704 -0.273919,-0.619422 -0.332141,-0.891193 -0.290336,-1.355268 0.839587,-1.9719468 1.460711,-0.602158 0.156283,0.438146 0.238971,0.872082 0.267858,1.30066 h -0.452681 l -0.607139,0.874439 0.607139,0.873391 h 0.312503 c -0.02363,0.116774 -0.0475,0.234032 -0.075,0.349776 -0.235428,0.990641 -0.882883,1.800986 -1.400894,2.610747 0.797037,-0.106382 1.342001,-0.210878 1.966964,-0.730967 -0.274189,1.450473 0.446464,2.647017 1.282138,3.518698 0.835679,-0.871681 1.556331,-2.068225 1.282142,-3.518698 0.6249638,0.520089 1.1699278,0.62459 1.9669628,0.730967 -0.51801,-0.809761 -1.165465,-1.620106 -1.400893,-2.610747 -0.02752,-0.115743 -0.05138,-0.233005 -0.075,-0.349776 h 0.312498 l 0.607145,-0.873391 -0.607145,-0.874439 H 9.9630962 c 0.02889,-0.428578 0.1115768,-0.862513 0.2678598,-1.30066 0.621124,-1.3697888 1.751046,-0.75311 1.460712,0.602158 -0.05823,0.271771 -0.221252,0.543489 -0.332143,0.891193 0.547037,-0.185411 0.751965,-0.234363 1.395534,-0.561315 C 15.08532,9.4677288 14.203807,5.5740787 10.532739,6.4174368 11.536866,4.7486203 11.189204,2.9273643 9.6827422,1.9352848 9.4804252,1.802062 9.2313002,1.6813071 9.0479222,1.48707 8.9244122,1.3562564 8.7488142,1.018957 8.7488142,1.018957 Z" />
  <path
     id="path872-3-9-7-2"
     style="fill:#000000;fill-opacity:1;stroke:none;stroke-width:0.258326px;stroke-linecap:butt;stroke-linejoin:miter;stroke-opacity:1"
     d="M 24.990059,4.8980642e-7 24.571307,1.0189559 c 0,0 -0.175597,0.3372993 -0.299103,0.468113 -0.183383,0.1942371 -0.432503,0.3149919 -0.63482,0.4482147 -1.506466,0.9920796 -1.854126,2.8133355 -0.850001,4.482152 -3.671066,-0.8433581 -4.55258,3.050292 -2.222319,5.2759524 0.643569,0.326952 0.848498,0.375904 1.395535,0.561315 -0.110891,-0.347704 -0.273919,-0.619422 -0.332143,-0.891193 -0.290334,-1.355269 0.83959,-1.9719471 1.460714,-0.602158 0.156283,0.438146 0.238971,0.872082 0.267853,1.30066 h -0.452676 l -0.60714,0.874438 0.60714,0.873392 h 0.312498 c -0.02359,0.116774 -0.0475,0.234032 -0.075,0.349775 -0.235423,0.990642 -0.882883,1.800987 -1.40089,2.610748 0.797037,-0.106382 1.341997,-0.210879 1.96696,-0.730967 -0.274184,1.450473 0.446464,2.647017 1.282143,3.518698 0.835678,-0.871681 1.556326,-2.068225 1.282142,-3.518698 0.624963,0.520088 1.169923,0.62459 1.966959,0.730967 -0.518006,-0.809761 -1.165466,-1.620106 -1.400889,-2.610748 -0.02752,-0.115742 -0.05139,-0.233004 -0.075,-0.349775 h 0.312498 l 0.60714,-0.873392 -0.60714,-0.874438 h -0.452676 c 0.02889,-0.428578 0.111572,-0.862513 0.267855,-1.30066 0.621124,-1.3697891 1.751047,-0.753111 1.460716,0.602158 -0.05823,0.271771 -0.221252,0.543489 -0.332146,0.891193 0.547039,-0.185411 0.751967,-0.234363 1.395536,-0.561315 C 31.745313,9.4677276 30.863801,5.5740775 27.192734,6.4174356 28.196861,4.7486191 27.849195,2.9273632 26.342733,1.9352836 26.140416,1.8020608 25.891296,1.681306 25.707914,1.4870689 25.584407,1.3562552 25.40881,1.0189559 25.40881,1.0189559 Z" />
  <path
     id="path872-3-6-1-9-0"
     style="fill:#000000;fill-opacity:1;stroke:none;stroke-width:0.258326px;stroke-linecap:butt;stroke-linejoin:miter;stroke-opacity:1"
     d="m 41.65006,0 0.418751,1.0189554 c 0,0 0.175598,0.3372994 0.299104,0.468113 0.183382,0.1942371 0.432502,0.314992 0.634819,0.4482148 1.506462,0.9920795 1.854128,2.8133355 0.850002,4.4821519 3.671066,-0.8433581 4.552578,3.050292 2.222319,5.2759529 -0.64357,0.326952 -0.848497,0.375904 -1.395537,0.561315 0.110894,-0.347704 0.27392,-0.619422 0.332146,-0.891194 0.290331,-1.355268 -0.839592,-1.9719466 -1.460715,-0.602157 -0.156284,0.438146 -0.238972,0.872082 -0.267854,1.30066 h 0.452676 l 0.60714,0.874438 -0.60714,0.873392 h -0.312498 c 0.02363,0.116774 0.0475,0.234032 0.075,0.349775 0.235424,0.990642 0.882884,1.800987 1.40089,2.610748 -0.797037,-0.106382 -1.341996,-0.210879 -1.96696,-0.730967 0.274185,1.450473 -0.446463,2.647017 -1.282142,3.518698 -0.835679,-0.871681 -1.556327,-2.068225 -1.282142,-3.518698 -0.624964,0.520088 -1.169923,0.62459 -1.96696,0.730967 0.518006,-0.809761 1.165466,-1.620106 1.40089,-2.610748 0.02752,-0.115742 0.05139,-0.233004 0.075,-0.349775 h -0.312498 l -0.607139,-0.873392 0.607139,-0.874438 h 0.452675 c -0.02889,-0.428578 -0.11157,-0.862514 -0.267853,-1.30066 -0.621124,-1.3697896 -1.751047,-0.753111 -1.460716,0.602157 0.05823,0.271772 0.221253,0.54349 0.332146,0.891194 -0.547039,-0.185411 -0.751967,-0.234363 -1.395536,-0.561315 -2.33026,-2.2256609 -1.448748,-6.119311 2.222319,-5.2759529 -1.004129,-1.6688164 -0.656463,-3.4900724 0.849999,-4.4821519 0.202318,-0.1332228 0.451437,-0.2539777 0.63482,-0.4482148 0.123506,-0.1308136 0.299103,-0.468113 0.299103,-0.468113 z" />
  <path
     id="path872-3-6-1-9-4-3-6"
     style="fill:#000000;fill-opacity:1;stroke:none;stroke-width:0.258326px;stroke-linecap:butt;stroke-linejoin:miter;stroke-opacity:1"
     d="m 33.336598,17.041903 -0.418751,1.018956 c 0,0 -0.175598,0.337299 -0.299104,0.468113 -0.183382,0.194237 -0.432503,0.314991 -0.63482,0.448214 -1.506462,0.99208 -1.854128,2.813336 -0.850002,4.482152 -3.671066,-0.843358 -4.552577,3.050292 -2.222319,5.275952 0.64357,0.326953 0.848497,0.375905 1.395537,0.561316 -0.110894,-0.347704 -0.27392,-0.619422 -0.332146,-0.891194 -0.290331,-1.355268 0.839592,-1.971947 1.460715,-0.602158 0.156284,0.438147 0.238972,0.872082 0.267854,1.30066 h -0.452676 l -0.60714,0.874439 0.60714,0.873391 h 0.312498 c -0.02363,0.116775 -0.0475,0.234033 -0.075,0.349776 -0.235424,0.990641 -0.882884,1.800988 -1.40089,2.610747 0.797037,-0.106382 1.341996,-0.210878 1.96696,-0.730967 -0.274185,1.450475 0.446464,2.647017 1.282143,3.518699 0.835679,-0.871682 1.556327,-2.068224 1.282142,-3.518699 0.624964,0.520089 1.169923,0.624592 1.96696,0.730967 -0.518006,-0.809759 -1.165466,-1.620106 -1.40089,-2.610747 -0.02752,-0.115742 -0.05139,-0.233003 -0.075,-0.349776 h 0.312498 l 0.607139,-0.873391 -0.607139,-0.874439 h -0.452675 c 0.02889,-0.428578 0.11157,-0.862513 0.267853,-1.30066 0.621124,-1.369789 1.751047,-0.75311 1.460716,0.602158 -0.05823,0.271772 -0.221253,0.54349 -0.332146,0.891194 0.547039,-0.185411 0.751967,-0.234363 1.395536,-0.561316 2.33026,-2.22566 1.448748,-6.11931 -2.222319,-5.275952 1.004129,-1.668816 0.656463,-3.490072 -0.849999,-4.482152 -0.202318,-0.133223 -0.451437,-0.253977 -0.63482,-0.448214 -0.123506,-0.130814 -0.299103,-0.468113 -0.299103,-0.468113 z" />
  <path
     d="m 16.676597,17.041903 -0.418751,1.018956 c 0,0 -0.175598,0.337299 -0.299104,0.468113 -0.183382,0.194237 -0.432503,0.314991 -0.63482,0.448214 -1.506462,0.99208 -1.854128,2.813336 -0.850002,4.482152 -3.671066,-0.843358 -4.5525778,3.050292 -2.222319,5.275952 0.64357,0.326953 0.848497,0.375905 1.395537,0.561316 -0.110894,-0.347704 -0.27392,-0.619422 -0.332146,-0.891194 -0.290331,-1.355268 0.839592,-1.971947 1.460715,-0.602158 0.156284,0.438147 0.238972,0.872082 0.267854,1.30066 h -0.452676 l -0.60714,0.874439 0.60714,0.873391 h 0.312498 c -0.02363,0.116775 -0.0475,0.234033 -0.075,0.349776 -0.235424,0.990641 -0.882884,1.800988 -1.40089,2.610747 0.797037,-0.106382 1.341996,-0.210878 1.96696,-0.730967 -0.274185,1.450475 0.446464,2.647017 1.282143,3.518699 0.835679,-0.871682 1.556327,-2.068224 1.282142,-3.518699 0.624964,0.520089 1.169923,0.624592 1.96696,0.730967 -0.518006,-0.809759 -1.165466,-1.620106 -1.40089,-2.610747 -0.02752,-0.115742 -0.05139,-0.233003 -0.075,-0.349776 h 0.312498 l 0.607139,-0.873391 -0.607139,-0.874439 h -0.452675 c 0.02889,-0.428578 0.11157,-0.862513 0.267853,-1.30066 0.621124,-1.369789 1.751047,-0.75311 1.460716,0.602158 -0.05823,0.271772 -0.221253,0.54349 -0.332146,0.891194 0.547039,-0.185411 0.751967,-0.234363 1.395536,-0.561316 2.33026,-2.22566 1.448748,-6.11931 -2.222319,-5.275952 1.004129,-1.668816 0.656463,-3.490072 -0.849999,-4.482152 -0.202318,-0.133223 -0.451437,-0.253977 -0.63482,-0.448214 -0.123506,-0.130814 -0.299103,-0.468113 -0.299103,-0.468113 z"
     style="fill:#000000;fill-opacity:1;stroke:none;stroke-width:0.258326px;stroke-linecap:butt;stroke-linejoin:miter;stroke-opacity:1"
     id="path872-3-6-1-9-4-7-1-5" />
  <path
     id="path872-3-6-1-9-4-7-1-3-4"
     style="fill:#000000;fill-opacity:1;stroke:none;stroke-width:0.258326px;stroke-linecap:butt;stroke-linejoin:miter;stroke-opacity:1"
     d="m 0.02030969,17.041903 -0.418758,1.018956 c 0,0 -0.17559,0.337299 -0.2991,0.468113 -0.18338,0.194237 -0.43249999,0.314991 -0.63481999,0.448214 -1.50646,0.99208 -1.85413,2.813336 -0.85,4.482152 -3.67107,-0.843358 -4.55258,3.050292 -2.22232,5.275952 0.64357,0.326953 0.8485,0.375905 1.39554,0.561316 -0.1109,-0.347704 -0.27392,-0.619422 -0.33215,-0.891194 -0.29033,-1.355268 0.83959,-1.971947 1.46071,-0.602158 0.15629,0.438147 0.23898,0.872082 0.26786,1.30066 h -0.45268 l -0.60714,0.874439 0.60714,0.873391 h 0.3125 c -0.0236,0.116775 -0.0475,0.234033 -0.075,0.349776 -0.23542,0.990641 -0.88288,1.800988 -1.40089,2.610747 0.79704,-0.106382 1.342,-0.210878 1.96696,-0.730967 -0.27418,1.450475 0.44645999,2.647017 1.28214699,3.518699 0.835679,-0.871682 1.55632701,-2.068224 1.28214201,-3.518699 0.624964,0.520089 1.169923,0.624592 1.96696,0.730967 -0.518006,-0.809759 -1.165466,-1.620106 -1.40089,-2.610747 -0.02752,-0.115742 -0.05139,-0.233003 -0.075,-0.349776 h 0.312498 l 0.607139,-0.873391 -0.607139,-0.874439 h -0.452675 c 0.02889,-0.428578 0.11157,-0.862513 0.267853,-1.30066 0.621124,-1.369789 1.751047,-0.75311 1.460716,0.602158 -0.05823,0.271772 -0.221253,0.54349 -0.332146,0.891194 0.547039,-0.185411 0.751967,-0.234363 1.3955355,-0.561316 2.33026,-2.22566 1.448748,-6.11931 -2.2223185,-5.275952 1.004129,-1.668816 0.656463,-3.490072 -0.849999,-4.482152 -0.202318,-0.133223 -0.45143701,-0.253977 -0.63482001,-0.448214 -0.123506,-0.130814 -0.299103,-0.468113 -0.299103,-0.468113 z" />
  <path
     id="path872-3-6-8-7"
     style="fill:#000000;fill-opacity:1;stroke:none;stroke-width:0.258326px;stroke-linecap:butt;stroke-linejoin:miter;stroke-opacity:1"
     d="m 91.670015,34.083807 0.418747,1.018956 c 0,0 0.175597,0.337299 0.299108,0.468113 0.183378,0.194237 0.432502,0.314992 0.63482,0.448214 1.506459,0.99208 1.854119,2.813336 0.849996,4.482152 3.671063,-0.843358 4.552583,3.050292 2.222323,5.275953 -0.64357,0.326952 -0.8485,0.375904 -1.39553,0.561315 0.11088,-0.347704 0.27391,-0.619422 0.33214,-0.891193 0.29033,-1.355268 -0.839591,-1.971947 -1.460715,-0.602158 -0.156283,0.438146 -0.238971,0.872082 -0.267858,1.30066 h 0.452681 l 0.607142,0.874439 -0.607142,0.873391 h -0.312503 c 0.02363,0.116774 0.0475,0.234032 0.075,0.349776 0.235428,0.990641 0.882885,1.800986 1.400895,2.610747 -0.797038,-0.106382 -1.342002,-0.210878 -1.966965,-0.730967 0.274189,1.450473 -0.446464,2.647017 -1.282138,3.518698 -0.835679,-0.871681 -1.556331,-2.068225 -1.282142,-3.518698 -0.624964,0.520089 -1.169928,0.62459 -1.966963,0.730967 0.51801,-0.809761 1.165465,-1.620106 1.400893,-2.610747 0.02752,-0.115743 0.05138,-0.233005 0.075,-0.349776 h -0.312498 l -0.607145,-0.873391 0.607145,-0.874439 h 0.452676 c -0.02889,-0.428578 -0.111577,-0.862513 -0.26786,-1.30066 -0.621124,-1.369789 -1.751046,-0.75311 -1.460712,0.602158 0.05823,0.271771 0.221252,0.543489 0.332143,0.891193 -0.547037,-0.185411 -0.751965,-0.234363 -1.395534,-0.561315 -2.330261,-2.225661 -1.448748,-6.119311 2.22232,-5.275953 -1.004127,-1.668816 -0.656465,-3.490072 0.849997,-4.482152 0.202317,-0.133222 0.451442,-0.253977 0.63482,-0.448214 0.12351,-0.130814 0.299108,-0.468113 0.299108,-0.468113 z" />
  <path
     id="path872-3-9-7-6"
     style="fill:#000000;fill-opacity:1;stroke:none;stroke-width:0.258326px;stroke-linecap:butt;stroke-linejoin:miter;stroke-opacity:1"
     d="m 75.010019,34.083806 0.418752,1.018956 c 0,0 0.175597,0.337299 0.299103,0.468113 0.183383,0.194237 0.432503,0.314991 0.63482,0.448214 1.506466,0.99208 1.854126,2.813336 0.850001,4.482152 3.671066,-0.843358 4.55258,3.050292 2.222319,5.275953 -0.643569,0.326952 -0.848498,0.375904 -1.395535,0.561315 0.110891,-0.347704 0.273919,-0.619422 0.332143,-0.891193 0.290334,-1.355269 -0.83959,-1.971947 -1.460714,-0.602158 -0.156283,0.438146 -0.238971,0.872082 -0.267853,1.30066 h 0.452676 l 0.60714,0.874438 -0.60714,0.873392 h -0.312498 c 0.02359,0.116774 0.0475,0.234032 0.075,0.349775 0.235423,0.990642 0.882883,1.800987 1.40089,2.610748 -0.797037,-0.106382 -1.341997,-0.210879 -1.96696,-0.730967 0.274184,1.450473 -0.446464,2.647017 -1.282143,3.518698 -0.835678,-0.871681 -1.556326,-2.068225 -1.282142,-3.518698 -0.624963,0.520088 -1.169923,0.62459 -1.966959,0.730967 0.518006,-0.809761 1.165466,-1.620106 1.400889,-2.610748 0.02752,-0.115742 0.05139,-0.233004 0.075,-0.349775 H 72.92431 l -0.60714,-0.873392 0.60714,-0.874438 h 0.452676 c -0.02889,-0.428578 -0.111572,-0.862513 -0.267855,-1.30066 -0.621124,-1.369789 -1.751047,-0.753111 -1.460716,0.602158 0.05823,0.271771 0.221252,0.543489 0.332146,0.891193 -0.547039,-0.185411 -0.751967,-0.234363 -1.395536,-0.561315 -2.33026,-2.225661 -1.448748,-6.119311 2.222319,-5.275953 -1.004127,-1.668816 -0.656461,-3.490072 0.850001,-4.482152 0.202317,-0.133223 0.451437,-0.253977 0.634819,-0.448214 0.123507,-0.130814 0.299104,-0.468113 0.299104,-0.468113 z" />
  <path
     id="path872-3-6-1-9-5"
     style="fill:#000000;fill-opacity:1;stroke:none;stroke-width:0.258326px;stroke-linecap:butt;stroke-linejoin:miter;stroke-opacity:1"
     d="m 58.350018,34.083806 -0.418751,1.018955 c 0,0 -0.175598,0.337299 -0.299104,0.468113 -0.183382,0.194237 -0.432502,0.314992 -0.634819,0.448215 -1.506462,0.992079 -1.854128,2.813335 -0.850002,4.482152 -3.671066,-0.843358 -4.552578,3.050292 -2.222319,5.275953 0.64357,0.326952 0.848497,0.375904 1.395537,0.561315 -0.110894,-0.347704 -0.27392,-0.619422 -0.332146,-0.891194 -0.290331,-1.355268 0.839592,-1.971947 1.460715,-0.602157 0.156284,0.438146 0.238972,0.872082 0.267854,1.30066 h -0.452676 l -0.60714,0.874438 0.60714,0.873392 h 0.312498 c -0.02363,0.116774 -0.0475,0.234032 -0.075,0.349775 -0.235424,0.990642 -0.882884,1.800987 -1.40089,2.610748 0.797037,-0.106382 1.341996,-0.210879 1.96696,-0.730967 -0.274185,1.450473 0.446463,2.647017 1.282142,3.518698 0.835679,-0.871681 1.556327,-2.068225 1.282142,-3.518698 0.624964,0.520088 1.169923,0.62459 1.96696,0.730967 -0.518006,-0.809761 -1.165466,-1.620106 -1.40089,-2.610748 -0.02752,-0.115742 -0.05139,-0.233004 -0.075,-0.349775 h 0.312498 l 0.607139,-0.873392 -0.607139,-0.874438 h -0.452675 c 0.02889,-0.428578 0.11157,-0.862514 0.267853,-1.30066 0.621124,-1.36979 1.751047,-0.753111 1.460716,0.602157 -0.05823,0.271772 -0.221253,0.54349 -0.332146,0.891194 0.547039,-0.185411 0.751967,-0.234363 1.395536,-0.561315 2.33026,-2.225661 1.448748,-6.119311 -2.222319,-5.275953 1.004129,-1.668817 0.656463,-3.490073 -0.849999,-4.482152 -0.202318,-0.133223 -0.451437,-0.253978 -0.63482,-0.448215 C 58.944367,35.44006 58.76877,35.102761 58.76877,35.102761 Z" />
  <path
     id="path872-3-6-1-9-4-3-69"
     style="fill:#000000;fill-opacity:1;stroke:none;stroke-width:0.258326px;stroke-linecap:butt;stroke-linejoin:miter;stroke-opacity:1"
     d="m 66.66348,51.125709 0.418751,1.018956 c 0,0 0.175598,0.337299 0.299104,0.468113 0.183382,0.194237 0.432503,0.314991 0.63482,0.448214 1.506462,0.99208 1.854128,2.813336 0.850002,4.482152 3.671066,-0.843358 4.552577,3.050292 2.222319,5.275952 -0.64357,0.326953 -0.848497,0.375905 -1.395537,0.561316 0.110894,-0.347704 0.27392,-0.619422 0.332146,-0.891194 0.290331,-1.355268 -0.839592,-1.971947 -1.460715,-0.602158 -0.156284,0.438147 -0.238972,0.872082 -0.267854,1.30066 h 0.452676 l 0.60714,0.874439 -0.60714,0.873391 h -0.312498 c 0.02363,0.116775 0.0475,0.234033 0.075,0.349776 0.235424,0.990641 0.882884,1.800988 1.40089,2.610747 -0.797037,-0.106382 -1.341996,-0.210878 -1.96696,-0.730967 0.274185,1.450475 -0.446464,2.647017 -1.282143,3.518699 -0.835679,-0.871682 -1.556327,-2.068224 -1.282142,-3.518699 -0.624964,0.520089 -1.169923,0.624592 -1.96696,0.730967 0.518006,-0.809759 1.165466,-1.620106 1.40089,-2.610747 0.02752,-0.115742 0.05139,-0.233003 0.075,-0.349776 h -0.312498 l -0.607139,-0.873391 0.607139,-0.874439 h 0.452675 c -0.02889,-0.428578 -0.11157,-0.862513 -0.267853,-1.30066 -0.621124,-1.369789 -1.751047,-0.75311 -1.460716,0.602158 0.05823,0.271772 0.221253,0.54349 0.332146,0.891194 -0.547039,-0.185411 -0.751967,-0.234363 -1.395536,-0.561316 -2.33026,-2.22566 -1.448748,-6.11931 2.222319,-5.275952 -1.004129,-1.668816 -0.656463,-3.490072 0.849999,-4.482152 0.202318,-0.133223 0.451437,-0.253977 0.63482,-0.448214 0.123506,-0.130814 0.299103,-0.468113 0.299103,-0.468113 z" />
  <path
     d="m 50.000989,51.124822 v 0.0039 l 0.417969,1.015625 c 0,0 0.175322,0.337936 0.298828,0.46875 0.183382,0.194237 0.432449,0.314044 0.634766,0.447265 1.506462,0.992081 1.853735,2.813606 0.849609,4.482422 3.671066,-0.843358 4.552915,3.049731 2.222656,5.275391 -0.64357,0.326953 -0.849444,0.377089 -1.396484,0.5625 0.110894,-0.347704 0.275758,-0.618853 0.333984,-0.890625 0.290331,-1.355268 -0.839814,-1.973305 -1.460937,-0.603516 -0.156284,0.438147 -0.238696,0.872204 -0.267578,1.300782 h 0.451171 l 0.607422,0.875 -0.607422,0.873046 h -0.3125 c 0.02363,0.116777 0.04867,0.233867 0.07617,0.34961 0.235424,0.990641 0.882385,1.801569 1.400391,2.611328 -0.797037,-0.106382 -1.341833,-0.21038 -1.966797,-0.730469 0.273982,1.449399 -0.446361,2.64411 -1.28125,3.515625 -2.81e-4,2.94e-4 -0.0017,-2.93e-4 -0.002,0 -0.834889,-0.871515 -1.555232,-2.066226 -1.28125,-3.515625 -0.624964,0.520089 -1.16976,0.624087 -1.966797,0.730469 0.518006,-0.809759 1.164967,-1.620687 1.400391,-2.611328 0.0275,-0.115743 0.05254,-0.232833 0.07617,-0.34961 h -0.3125 l -0.607422,-0.873046 0.607422,-0.875 h 0.451171 c -0.02888,-0.428578 -0.111294,-0.862635 -0.267578,-1.300782 -0.621123,-1.369789 -1.751268,-0.751752 -1.460937,0.603516 0.05823,0.271772 0.22309,0.542921 0.333984,0.890625 -0.54704,-0.185411 -0.752914,-0.235547 -1.396484,-0.5625 -2.330259,-2.22566 -1.44841,-6.118749 2.222656,-5.275391 -1.004126,-1.668816 -0.656852,-3.490341 0.849609,-4.482422 0.202318,-0.133221 0.451384,-0.253028 0.634766,-0.447265 0.123506,-0.130814 0.298828,-0.46875 0.298828,-0.46875 l 0.417969,-1.015625 v -0.002 z"
     style="fill:#000000;fill-opacity:1;stroke:none;stroke-width:0.258326px;stroke-linecap:butt;stroke-linejoin:miter;stroke-opacity:1"
     id="path872-3-6-1-9-4-7-3" />
  <path
     d="m 83.323481,51.125709 0.418751,1.018956 c 0,0 0.175598,0.337299 0.299104,0.468113 0.183382,0.194237 0.432503,0.314991 0.63482,0.448214 1.506462,0.99208 1.854128,2.813336 0.850002,4.482152 3.671066,-0.843358 4.552578,3.050292 2.222319,5.275952 -0.64357,0.326953 -0.848497,0.375905 -1.395537,0.561316 0.110894,-0.347704 0.27392,-0.619422 0.332146,-0.891194 0.290331,-1.355268 -0.839592,-1.971947 -1.460715,-0.602158 -0.156284,0.438147 -0.238972,0.872082 -0.267854,1.30066 h 0.452676 l 0.60714,0.874439 -0.60714,0.873391 h -0.312498 c 0.02363,0.116775 0.0475,0.234033 0.075,0.349776 0.235424,0.990641 0.882884,1.800988 1.40089,2.610747 -0.797037,-0.106382 -1.341996,-0.210878 -1.96696,-0.730967 0.274185,1.450475 -0.446464,2.647017 -1.282143,3.518699 -0.835679,-0.871682 -1.556327,-2.068224 -1.282142,-3.518699 -0.624964,0.520089 -1.169923,0.624592 -1.96696,0.730967 0.518006,-0.809759 1.165466,-1.620106 1.40089,-2.610747 0.02752,-0.115742 0.05139,-0.233003 0.075,-0.349776 h -0.312498 l -0.607139,-0.873391 0.607139,-0.874439 h 0.452675 c -0.02889,-0.428578 -0.11157,-0.862513 -0.267853,-1.30066 -0.621124,-1.369789 -1.751047,-0.75311 -1.460716,0.602158 0.05823,0.271772 0.221253,0.54349 0.332146,0.891194 -0.547039,-0.185411 -0.751967,-0.234363 -1.395536,-0.561316 -2.33026,-2.22566 -1.448748,-6.11931 2.222319,-5.275952 -1.004129,-1.668816 -0.656463,-3.490072 0.849999,-4.482152 0.202318,-0.133223 0.451437,-0.253977 0.63482,-0.448214 0.123506,-0.130814 0.299103,-0.468113 0.299103,-0.468113 z"
     style="fill:#000000;fill-opacity:1;stroke:none;stroke-width:0.258326px;stroke-linecap:butt;stroke-linejoin:miter;stroke-opacity:1"
     id="path872-3-6-1-9-4-7-1-7" />
  <path
     id="path872-3-6-1-9-4-7-1-3-45"
     style="fill:#000000;fill-opacity:1;stroke:none;stroke-width:0.258326px;stroke-linecap:butt;stroke-linejoin:miter;stroke-opacity:1"
     d="m 99.979769,51.125709 0.418751,1.018956 c 0,0 0.17559,0.337299 0.2991,0.468113 0.18338,0.194237 0.4325,0.314991 0.63482,0.448214 1.50646,0.99208 1.85413,2.813336 0.85,4.482152 3.67107,-0.843358 4.55258,3.050292 2.22232,5.275952 -0.64357,0.326953 -0.8485,0.375905 -1.39554,0.561316 0.1109,-0.347704 0.27392,-0.619422 0.33215,-0.891194 0.29033,-1.355268 -0.83959,-1.971947 -1.46071,-0.602158 -0.15629,0.438147 -0.23898,0.872082 -0.26786,1.30066 h 0.45268 l 0.60714,0.874439 -0.60714,0.873391 h -0.3125 c 0.0236,0.116775 0.0475,0.234033 0.075,0.349776 0.23542,0.990641 0.88288,1.800988 1.40089,2.610747 -0.79704,-0.106382 -1.342,-0.210878 -1.96696,-0.730967 0.27418,1.450475 -0.44646,2.647017 -1.282141,3.518699 -0.83568,-0.871682 -1.55633,-2.068224 -1.28214,-3.518699 -0.62496,0.520089 -1.16992,0.624592 -1.96696,0.730967 0.51801,-0.809759 1.16547,-1.620106 1.40089,-2.610747 0.0275,-0.115742 0.0514,-0.233003 0.075,-0.349776 h -0.3125 l -0.60714,-0.873391 0.60714,-0.874439 h 0.45268 c -0.0289,-0.428578 -0.11157,-0.862513 -0.26786,-1.30066 -0.62112,-1.369789 -1.75104,-0.75311 -1.46071,0.602158 0.0582,0.271772 0.22125,0.54349 0.33214,0.891194 -0.54704,-0.185411 -0.75196,-0.234363 -1.39553,-0.561316 -2.330263,-2.22566 -1.448751,-6.11931 2.22232,-5.275952 -1.00413,-1.668816 -0.65647,-3.490072 0.85,-4.482152 0.20231,-0.133223 0.45143,-0.253977 0.63482,-0.448214 0.1235,-0.130814 0.2991,-0.468113 0.2991,-0.468113 z" />
  <path
     d="m 8.3300632,34.083807 -0.418747,1.018956 c 0,0 -0.175597,0.337299 -0.299108,0.468113 -0.183378,0.194237 -0.432502,0.314992 -0.63482,0.448214 -1.506462,0.99208 -1.854123,2.813336 -0.849996,4.482152 -3.6710665,-0.843358 -4.5525835,3.050292 -2.2223195,5.275953 0.6435695,0.326952 0.8484975,0.375904 1.3955315,0.561315 -0.110889,-0.347704 -0.273919,-0.619422 -0.332141,-0.891193 -0.290336,-1.355268 0.839587,-1.971947 1.460711,-0.602158 0.156283,0.438146 0.238971,0.872082 0.267858,1.30066 h -0.452681 l -0.607139,0.874439 0.607139,0.873391 h 0.312503 c -0.02363,0.116774 -0.0475,0.234032 -0.075,0.349776 -0.235428,0.990641 -0.882883,1.800986 -1.400894,2.610747 0.797037,-0.106382 1.342001,-0.210878 1.966964,-0.730967 -0.274189,1.450473 0.446464,2.647017 1.282138,3.518698 0.835679,-0.871681 1.556331,-2.068225 1.282142,-3.518698 0.6249638,0.520089 1.1699278,0.62459 1.9669628,0.730967 -0.51801,-0.809761 -1.165465,-1.620106 -1.400893,-2.610747 -0.02752,-0.115743 -0.05138,-0.233005 -0.075,-0.349776 h 0.312498 l 0.607145,-0.873391 -0.607145,-0.874439 H 9.9630962 c 0.02889,-0.428578 0.1115768,-0.862513 0.2678598,-1.30066 0.621124,-1.369789 1.751046,-0.75311 1.460712,0.602158 -0.05823,0.271771 -0.221252,0.543489 -0.332143,0.891193 0.547037,-0.185411 0.751965,-0.234363 1.395534,-0.561315 2.330261,-2.225661 1.448748,-6.119311 -2.22232,-5.275953 1.004127,-1.668816 0.656465,-3.490072 -0.8499968,-4.482152 -0.202317,-0.133222 -0.451442,-0.253977 -0.63482,-0.448214 -0.12351,-0.130814 -0.299108,-0.468113 -0.299108,-0.468113 z"
     style="fill:#000000;fill-opacity:1;stroke:none;stroke-width:0.258326px;stroke-linecap:butt;stroke-linejoin:miter;stroke-opacity:1"
     id="path872-3-6-8-3-2" />
  <path
     d="m 24.990059,34.083806 -0.418752,1.018956 c 0,0 -0.175597,0.337299 -0.299103,0.468113 -0.183383,0.194237 -0.432503,0.314991 -0.63482,0.448214 -1.506466,0.99208 -1.854126,2.813336 -0.850001,4.482152 -3.671066,-0.843358 -4.55258,3.050292 -2.222319,5.275953 0.643569,0.326952 0.848498,0.375904 1.395535,0.561315 -0.110891,-0.347704 -0.273919,-0.619422 -0.332143,-0.891193 -0.290334,-1.355269 0.83959,-1.971947 1.460714,-0.602158 0.156283,0.438146 0.238971,0.872082 0.267853,1.30066 h -0.452676 l -0.60714,0.874438 0.60714,0.873392 h 0.312498 c -0.02359,0.116774 -0.0475,0.234032 -0.075,0.349775 -0.235423,0.990642 -0.882883,1.800987 -1.40089,2.610748 0.797037,-0.106382 1.341997,-0.210879 1.96696,-0.730967 -0.274184,1.450473 0.446464,2.647017 1.282143,3.518698 0.835678,-0.871681 1.556326,-2.068225 1.282142,-3.518698 0.624963,0.520088 1.169923,0.62459 1.966959,0.730967 -0.518006,-0.809761 -1.165466,-1.620106 -1.400889,-2.610748 -0.02752,-0.115742 -0.05139,-0.233004 -0.075,-0.349775 h 0.312498 l 0.60714,-0.873392 -0.60714,-0.874438 h -0.452676 c 0.02889,-0.428578 0.111572,-0.862513 0.267855,-1.30066 0.621124,-1.369789 1.751047,-0.753111 1.460716,0.602158 -0.05823,0.271771 -0.221252,0.543489 -0.332146,0.891193 0.547039,-0.185411 0.751967,-0.234363 1.395536,-0.561315 2.33026,-2.225661 1.448748,-6.119311 -2.222319,-5.275953 1.004127,-1.668816 0.656461,-3.490072 -0.850001,-4.482152 -0.202317,-0.133223 -0.451437,-0.253977 -0.634819,-0.448214 -0.123507,-0.130814 -0.299104,-0.468113 -0.299104,-0.468113 z"
     style="fill:#000000;fill-opacity:1;stroke:none;stroke-width:0.258326px;stroke-linecap:butt;stroke-linejoin:miter;stroke-opacity:1"
     id="path872-3-9-7-2-5" />
  <path
     d="m 41.65006,34.083806 0.418751,1.018955 c 0,0 0.175598,0.337299 0.299104,0.468113 0.183382,0.194237 0.432502,0.314992 0.634819,0.448215 1.506462,0.992079 1.854128,2.813335 0.850002,4.482152 3.671066,-0.843358 4.552578,3.050292 2.222319,5.275953 -0.64357,0.326952 -0.848497,0.375904 -1.395537,0.561315 0.110894,-0.347704 0.27392,-0.619422 0.332146,-0.891194 0.290331,-1.355268 -0.839592,-1.971947 -1.460715,-0.602157 -0.156284,0.438146 -0.238972,0.872082 -0.267854,1.30066 h 0.452676 l 0.60714,0.874438 -0.60714,0.873392 h -0.312498 c 0.02363,0.116774 0.0475,0.234032 0.075,0.349775 0.235424,0.990642 0.882884,1.800987 1.40089,2.610748 -0.797037,-0.106382 -1.341996,-0.210879 -1.96696,-0.730967 0.274185,1.450473 -0.446463,2.647017 -1.282142,3.518698 -0.835679,-0.871681 -1.556327,-2.068225 -1.282142,-3.518698 -0.624964,0.520088 -1.169923,0.62459 -1.96696,0.730967 0.518006,-0.809761 1.165466,-1.620106 1.40089,-2.610748 0.02752,-0.115742 0.05139,-0.233004 0.075,-0.349775 h -0.312498 l -0.607139,-0.873392 0.607139,-0.874438 h 0.452675 c -0.02889,-0.428578 -0.11157,-0.862514 -0.267853,-1.30066 -0.621124,-1.36979 -1.751047,-0.753111 -1.460716,0.602157 0.05823,0.271772 0.221253,0.54349 0.332146,0.891194 -0.547039,-0.185411 -0.751967,-0.234363 -1.395536,-0.561315 -2.33026,-2.225661 -1.448748,-6.119311 2.222319,-5.275953 -1.004129,-1.668817 -0.656463,-3.490073 0.849999,-4.482152 0.202318,-0.133223 0.451437,-0.253978 0.63482,-0.448215 0.123506,-0.130814 0.299103,-0.468113 0.299103,-0.468113 z"
     style="fill:#000000;fill-opacity:1;stroke:none;stroke-width:0.258326px;stroke-linecap:butt;stroke-linejoin:miter;stroke-opacity:1"
     id="path872-3-6-1-9-0-4" />
  <path
     d="m 33.336598,51.125709 -0.418751,1.018956 c 0,0 -0.175598,0.337299 -0.299104,0.468113 -0.183382,0.194237 -0.432503,0.314991 -0.63482,0.448214 -1.506462,0.99208 -1.854128,2.813336 -0.850002,4.482152 -3.671066,-0.843358 -4.552577,3.050292 -2.222319,5.275952 0.64357,0.326953 0.848497,0.375905 1.395537,0.561316 -0.110894,-0.347704 -0.27392,-0.619422 -0.332146,-0.891194 -0.290331,-1.355268 0.839592,-1.971947 1.460715,-0.602158 0.156284,0.438147 0.238972,0.872082 0.267854,1.30066 h -0.452676 l -0.60714,0.874439 0.60714,0.873391 h 0.312498 c -0.02363,0.116775 -0.0475,0.234033 -0.075,0.349776 -0.235424,0.990641 -0.882884,1.800988 -1.40089,2.610747 0.797037,-0.106382 1.341996,-0.210878 1.96696,-0.730967 -0.274185,1.450475 0.446464,2.647017 1.282143,3.518699 0.835679,-0.871682 1.556327,-2.068224 1.282142,-3.518699 0.624964,0.520089 1.169923,0.624592 1.96696,0.730967 -0.518006,-0.809759 -1.165466,-1.620106 -1.40089,-2.610747 -0.02752,-0.115742 -0.05139,-0.233003 -0.075,-0.349776 h 0.312498 l 0.607139,-0.873391 -0.607139,-0.874439 h -0.452675 c 0.02889,-0.428578 0.11157,-0.862513 0.267853,-1.30066 0.621124,-1.369789 1.751047,-0.75311 1.460716,0.602158 -0.05823,0.271772 -0.221253,0.54349 -0.332146,0.891194 0.547039,-0.185411 0.751967,-0.234363 1.395536,-0.561316 2.33026,-2.22566 1.448748,-6.11931 -2.222319,-5.275952 1.004129,-1.668816 0.656463,-3.490072 -0.849999,-4.482152 -0.202318,-0.133223 -0.451437,-0.253977 -0.63482,-0.448214 -0.123506,-0.130814 -0.299103,-0.468113 -0.299103,-0.468113 z"
     style="fill:#000000;fill-opacity:1;stroke:none;stroke-width:0.258326px;stroke-linecap:butt;stroke-linejoin:miter;stroke-opacity:1"
     id="path872-3-6-1-9-4-3-6-7" />
  <path
     id="path872-3-6-1-9-4-7-1-5-4"
     style="fill:#000000;fill-opacity:1;stroke:none;stroke-width:0.258326px;stroke-linecap:butt;stroke-linejoin:miter;stroke-opacity:1"
     d="m 16.676597,51.125709 -0.418751,1.018956 c 0,0 -0.175598,0.337299 -0.299104,0.468113 -0.183382,0.194237 -0.432503,0.314991 -0.63482,0.448214 -1.506462,0.99208 -1.854128,2.813336 -0.850002,4.482152 -3.671066,-0.843358 -4.5525778,3.050292 -2.222319,5.275952 0.64357,0.326953 0.848497,0.375905 1.395537,0.561316 -0.110894,-0.347704 -0.27392,-0.619422 -0.332146,-0.891194 -0.290331,-1.355268 0.839592,-1.971947 1.460715,-0.602158 0.156284,0.438147 0.238972,0.872082 0.267854,1.30066 h -0.452676 l -0.60714,0.874439 0.60714,0.873391 h 0.312498 c -0.02363,0.116775 -0.0475,0.234033 -0.075,0.349776 -0.235424,0.990641 -0.882884,1.800988 -1.40089,2.610747 0.797037,-0.106382 1.341996,-0.210878 1.96696,-0.730967 -0.274185,1.450475 0.446464,2.647017 1.282143,3.518699 0.835679,-0.871682 1.556327,-2.068224 1.282142,-3.518699 0.624964,0.520089 1.169923,0.624592 1.96696,0.730967 -0.518006,-0.809759 -1.165466,-1.620106 -1.40089,-2.610747 -0.02752,-0.115742 -0.05139,-0.233003 -0.075,-0.349776 h 0.312498 l 0.607139,-0.873391 -0.607139,-0.874439 h -0.452675 c 0.02889,-0.428578 0.11157,-0.862513 0.267853,-1.30066 0.621124,-1.369789 1.751047,-0.75311 1.460716,0.602158 -0.05823,0.271772 -0.221253,0.54349 -0.332146,0.891194 0.547039,-0.185411 0.751967,-0.234363 1.395536,-0.561316 2.33026,-2.22566 1.448748,-6.11931 -2.222319,-5.275952 1.004129,-1.668816 0.656463,-3.490072 -0.849999,-4.482152 -0.202318,-0.133223 -0.451437,-0.253977 -0.63482,-0.448214 -0.123506,-0.130814 -0.299103,-0.468113 -0.299103,-0.468113 z" />
  <path
     d="m 0.02030969,51.125709 -0.418758,1.018956 c 0,0 -0.17559,0.337299 -0.2991,0.468113 -0.18338,0.194237 -0.43249999,0.314991 -0.63481999,0.448214 -1.50646,0.99208 -1.85413,2.813336 -0.85,4.482152 -3.67107,-0.843358 -4.55258,3.050292 -2.22232,5.275952 0.64357,0.326953 0.8485,0.375905 1.39554,0.561316 -0.1109,-0.347704 -0.27392,-0.619422 -0.33215,-0.891194 -0.29033,-1.355268 0.83959,-1.971947 1.46071,-0.602158 0.15629,0.438147 0.23898,0.872082 0.26786,1.30066 h -0.45268 l -0.60714,0.874439 0.60714,0.873391 h 0.3125 c -0.0236,0.116775 -0.0475,0.234033 -0.075,0.349776 -0.23542,0.990641 -0.88288,1.800988 -1.40089,2.610747 0.79704,-0.106382 1.342,-0.210878 1.96696,-0.730967 -0.27418,1.450475 0.44645999,2.647017 1.28214699,3.518699 0.835679,-0.871682 1.55632701,-2.068224 1.28214201,-3.518699 0.624964,0.520089 1.169923,0.624592 1.96696,0.730967 -0.518006,-0.809759 -1.165466,-1.620106 -1.40089,-2.610747 -0.02752,-0.115742 -0.05139,-0.233003 -0.075,-0.349776 h 0.312498 l 0.607139,-0.873391 -0.607139,-0.874439 h -0.452675 c 0.02889,-0.428578 0.11157,-0.862513 0.267853,-1.30066 0.621124,-1.369789 1.751047,-0.75311 1.460716,0.602158 -0.05823,0.271772 -0.221253,0.54349 -0.332146,0.891194 0.547039,-0.185411 0.751967,-0.234363 1.3955355,-0.561316 2.33026,-2.22566 1.448748,-6.11931 -2.2223185,-5.275952 1.004129,-1.668816 0.656463,-3.490072 -0.849999,-4.482152 -0.202318,-0.133223 -0.45143701,-0.253977 -0.63482001,-0.448214 -0.123506,-0.130814 -0.299103,-0.468113 -0.299103,-0.468113 z"
     style="fill:#000000;fill-opacity:1;stroke:none;stroke-width:0.258326px;stroke-linecap:butt;stroke-linejoin:miter;stroke-opacity:1"
     id="path872-3-6-1-9-4-7-1-3-4-4" />
  <path
     d="m 91.670015,68.167612 0.418747,1.018956 c 0,0 0.175597,0.337299 0.299108,0.468113 0.183378,0.194237 0.432502,0.314992 0.63482,0.448214 1.506459,0.99208 1.854119,2.813336 0.849996,4.482152 3.671063,-0.843358 4.552583,3.050292 2.222323,5.275953 -0.64357,0.326952 -0.8485,0.375904 -1.39553,0.561315 0.11088,-0.347704 0.27391,-0.619422 0.33214,-0.891193 0.29033,-1.355268 -0.839591,-1.971947 -1.460715,-0.602158 -0.156283,0.438146 -0.238971,0.872082 -0.267858,1.30066 h 0.452681 l 0.607142,0.874439 -0.607142,0.873391 h -0.312503 c 0.02363,0.116774 0.0475,0.234032 0.075,0.349776 0.235428,0.990641 0.882885,1.800986 1.400895,2.610747 -0.797038,-0.106382 -1.342002,-0.210878 -1.966965,-0.730967 0.274189,1.450473 -0.446464,2.647017 -1.282138,3.518698 -0.835679,-0.871681 -1.556331,-2.068225 -1.282142,-3.518698 -0.624964,0.520089 -1.169928,0.62459 -1.966963,0.730967 0.51801,-0.809761 1.165465,-1.620106 1.400893,-2.610747 0.02752,-0.115743 0.05138,-0.233005 0.075,-0.349776 h -0.312498 l -0.607145,-0.873391 0.607145,-0.874439 h 0.452676 c -0.02889,-0.428578 -0.111577,-0.862513 -0.26786,-1.30066 -0.621124,-1.369789 -1.751046,-0.75311 -1.460712,0.602158 0.05823,0.271771 0.221252,0.543489 0.332143,0.891193 -0.547037,-0.185411 -0.751965,-0.234363 -1.395534,-0.561315 -2.330261,-2.225661 -1.448748,-6.119311 2.22232,-5.275953 -1.004127,-1.668816 -0.656465,-3.490072 0.849997,-4.482152 0.202317,-0.133222 0.451442,-0.253977 0.63482,-0.448214 0.12351,-0.130814 0.299108,-0.468113 0.299108,-0.468113 z"
     style="fill:#000000;fill-opacity:1;stroke:none;stroke-width:0.258326px;stroke-linecap:butt;stroke-linejoin:miter;stroke-opacity:1"
     id="path872-3-6-8-7-3" />
  <path
     d="m 75.010019,68.167611 0.418752,1.018956 c 0,0 0.175597,0.337299 0.299103,0.468113 0.183383,0.194237 0.432503,0.314991 0.63482,0.448214 1.506466,0.99208 1.854126,2.813336 0.850001,4.482152 3.671066,-0.843358 4.55258,3.050292 2.222319,5.275953 -0.643569,0.326952 -0.848498,0.375904 -1.395535,0.561315 0.110891,-0.347704 0.273919,-0.619422 0.332143,-0.891193 0.290334,-1.355269 -0.83959,-1.971947 -1.460714,-0.602158 -0.156283,0.438146 -0.238971,0.872082 -0.267853,1.30066 h 0.452676 l 0.60714,0.874438 -0.60714,0.873392 h -0.312498 c 0.02359,0.116774 0.0475,0.234032 0.075,0.349775 0.235423,0.990642 0.882883,1.800987 1.40089,2.610748 -0.797037,-0.106382 -1.341997,-0.210879 -1.96696,-0.730967 0.274184,1.450473 -0.446464,2.647017 -1.282143,3.518698 -0.835678,-0.871681 -1.556326,-2.068225 -1.282142,-3.518698 -0.624963,0.520088 -1.169923,0.62459 -1.966959,0.730967 0.518006,-0.809761 1.165466,-1.620106 1.400889,-2.610748 0.02752,-0.115742 0.05139,-0.233004 0.075,-0.349775 H 72.92431 l -0.60714,-0.873392 0.60714,-0.874438 h 0.452676 c -0.02889,-0.428578 -0.111572,-0.862513 -0.267855,-1.30066 -0.621124,-1.369789 -1.751047,-0.753111 -1.460716,0.602158 0.05823,0.271771 0.221252,0.543489 0.332146,0.891193 -0.547039,-0.185411 -0.751967,-0.234363 -1.395536,-0.561315 -2.33026,-2.225661 -1.448748,-6.119311 2.222319,-5.275953 -1.004127,-1.668816 -0.656461,-3.490072 0.850001,-4.482152 0.202317,-0.133223 0.451437,-0.253977 0.634819,-0.448214 0.123507,-0.130814 0.299104,-0.468113 0.299104,-0.468113 z"
     style="fill:#000000;fill-opacity:1;stroke:none;stroke-width:0.258326px;stroke-linecap:butt;stroke-linejoin:miter;stroke-opacity:1"
     id="path872-3-9-7-6-0" />
  <path
     d="m 58.350018,68.167611 -0.418751,1.018955 c 0,0 -0.175598,0.337299 -0.299104,0.468113 -0.183382,0.194237 -0.432502,0.314992 -0.634819,0.448215 -1.506462,0.992079 -1.854128,2.813335 -0.850002,4.482152 -3.671066,-0.843358 -4.552578,3.050292 -2.222319,5.275953 0.64357,0.326952 0.848497,0.375904 1.395537,0.561315 -0.110894,-0.347704 -0.27392,-0.619422 -0.332146,-0.891194 -0.290331,-1.355268 0.839592,-1.971947 1.460715,-0.602157 0.156284,0.438146 0.238972,0.872082 0.267854,1.30066 h -0.452676 l -0.60714,0.874438 0.60714,0.873392 h 0.312498 c -0.02363,0.116774 -0.0475,0.234032 -0.075,0.349775 -0.235424,0.990642 -0.882884,1.800987 -1.40089,2.610748 0.797037,-0.106382 1.341996,-0.210879 1.96696,-0.730967 -0.274185,1.450473 0.446463,2.647017 1.282142,3.518698 0.835679,-0.871681 1.556327,-2.068225 1.282142,-3.518698 0.624964,0.520088 1.169923,0.62459 1.96696,0.730967 -0.518006,-0.809761 -1.165466,-1.620106 -1.40089,-2.610748 -0.02752,-0.115742 -0.05139,-0.233004 -0.075,-0.349775 h 0.312498 l 0.607139,-0.873392 -0.607139,-0.874438 h -0.452675 c 0.02889,-0.428578 0.11157,-0.862514 0.267853,-1.30066 0.621124,-1.36979 1.751047,-0.753111 1.460716,0.602157 -0.05823,0.271772 -0.221253,0.54349 -0.332146,0.891194 0.547039,-0.185411 0.751967,-0.234363 1.395536,-0.561315 2.33026,-2.225661 1.448748,-6.119311 -2.222319,-5.275953 1.004129,-1.668817 0.656463,-3.490073 -0.849999,-4.482152 -0.202318,-0.133223 -0.451437,-0.253978 -0.63482,-0.448215 -0.123506,-0.130814 -0.299103,-0.468113 -0.299103,-0.468113 z"
     style="fill:#000000;fill-opacity:1;stroke:none;stroke-width:0.258326px;stroke-linecap:butt;stroke-linejoin:miter;stroke-opacity:1"
     id="path872-3-6-1-9-5-7" />
  <path
     d="m 66.66348,85.209514 0.418751,1.018956 c 0,0 0.175598,0.337299 0.299104,0.468113 0.183382,0.194237 0.432503,0.314991 0.63482,0.448214 1.506462,0.99208 1.854128,2.813336 0.850002,4.482152 3.671066,-0.843358 4.552577,3.050292 2.222319,5.275952 -0.64357,0.326953 -0.848497,0.375905 -1.395537,0.561316 0.110894,-0.347704 0.27392,-0.619422 0.332146,-0.891194 0.290331,-1.355268 -0.839592,-1.971947 -1.460715,-0.602158 -0.156284,0.438147 -0.238972,0.872082 -0.267854,1.30066 h 0.452676 l 0.60714,0.874439 -0.60714,0.873391 h -0.312498 c 0.02363,0.116775 0.0475,0.234033 0.075,0.349776 0.235424,0.990639 0.882884,1.800989 1.40089,2.610749 -0.797037,-0.10638 -1.341996,-0.21088 -1.96696,-0.73097 0.274185,1.45048 -0.446464,2.64702 -1.282143,3.5187 -0.835679,-0.87168 -1.556327,-2.06822 -1.282142,-3.5187 -0.624964,0.52009 -1.169923,0.62459 -1.96696,0.73097 0.518006,-0.80976 1.165466,-1.62011 1.40089,-2.610749 0.02752,-0.115742 0.05139,-0.233003 0.075,-0.349776 h -0.312498 l -0.607139,-0.873391 0.607139,-0.874439 h 0.452675 c -0.02889,-0.428578 -0.11157,-0.862513 -0.267853,-1.30066 -0.621124,-1.369789 -1.751047,-0.75311 -1.460716,0.602158 0.05823,0.271772 0.221253,0.54349 0.332146,0.891194 -0.547039,-0.185411 -0.751967,-0.234363 -1.395536,-0.561316 -2.33026,-2.22566 -1.448748,-6.11931 2.222319,-5.275952 -1.004129,-1.668816 -0.656463,-3.490072 0.849999,-4.482152 0.202318,-0.133223 0.451437,-0.253977 0.63482,-0.448214 0.123506,-0.130814 0.299103,-0.468113 0.299103,-0.468113 z"
     style="fill:#000000;fill-opacity:1;stroke:none;stroke-width:0.258326px;stroke-linecap:butt;stroke-linejoin:miter;stroke-opacity:1"
     id="path872-3-6-1-9-4-3-69-8" />
  <path
     id="path872-3-6-1-9-4-7-3-6"
     style="fill:#000000;fill-opacity:1;stroke:none;stroke-width:0.258326px;stroke-linecap:butt;stroke-linejoin:miter;stroke-opacity:1"
     d="m 50.000989,85.208627 v 0.0039 l 0.417969,1.015625 c 0,0 0.175322,0.337936 0.298828,0.46875 0.183382,0.194237 0.432449,0.314044 0.634766,0.447265 1.506462,0.992081 1.853735,2.813606 0.849609,4.482422 3.671066,-0.843358 4.552915,3.049731 2.222656,5.275391 -0.64357,0.326953 -0.849444,0.377089 -1.396484,0.5625 0.110894,-0.347704 0.275758,-0.618853 0.333984,-0.890625 0.290331,-1.355268 -0.839814,-1.973305 -1.460937,-0.603516 -0.156284,0.438147 -0.238696,0.872204 -0.267578,1.300782 h 0.451171 l 0.607422,0.875 -0.607422,0.873046 h -0.3125 c 0.02363,0.116777 0.04867,0.233867 0.07617,0.34961 0.235424,0.990643 0.882385,1.801573 1.400391,2.611333 -0.797037,-0.10639 -1.341833,-0.21038 -1.966797,-0.73047 0.273982,1.4494 -0.446361,2.64411 -1.28125,3.51562 -2.81e-4,3e-4 -0.0017,-2.9e-4 -0.002,0 -0.834889,-0.87151 -1.555232,-2.06622 -1.28125,-3.51562 -0.624964,0.52009 -1.16976,0.62408 -1.966797,0.73047 0.518006,-0.80976 1.164967,-1.62069 1.400391,-2.611333 0.0275,-0.115743 0.05254,-0.232833 0.07617,-0.34961 h -0.3125 l -0.607422,-0.873046 0.607422,-0.875 h 0.451171 c -0.02888,-0.428578 -0.111294,-0.862635 -0.267578,-1.300782 -0.621123,-1.369789 -1.751268,-0.751752 -1.460937,0.603516 0.05823,0.271772 0.22309,0.542921 0.333984,0.890625 -0.54704,-0.185411 -0.752914,-0.235547 -1.396484,-0.5625 -2.330259,-2.22566 -1.44841,-6.118749 2.222656,-5.275391 -1.004126,-1.668816 -0.656852,-3.490341 0.849609,-4.482422 0.202318,-0.133221 0.451384,-0.253028 0.634766,-0.447265 0.123506,-0.130814 0.298828,-0.46875 0.298828,-0.46875 l 0.417969,-1.015625 v -0.002 z" />
  <path
     id="path872-3-6-1-9-4-7-1-7-8"
     style="fill:#000000;fill-opacity:1;stroke:none;stroke-width:0.258326px;stroke-linecap:butt;stroke-linejoin:miter;stroke-opacity:1"
     d="m 83.323481,85.209514 0.418751,1.018956 c 0,0 0.175598,0.337299 0.299104,0.468113 0.183382,0.194237 0.432503,0.314991 0.63482,0.448214 1.506462,0.99208 1.854128,2.813336 0.850002,4.482152 3.671066,-0.843358 4.552578,3.050292 2.222319,5.275952 -0.64357,0.326953 -0.848497,0.375905 -1.395537,0.561316 0.110894,-0.347704 0.27392,-0.619422 0.332146,-0.891194 0.290331,-1.355268 -0.839592,-1.971947 -1.460715,-0.602158 -0.156284,0.438147 -0.238972,0.872082 -0.267854,1.30066 h 0.452676 l 0.60714,0.874439 -0.60714,0.873391 h -0.312498 c 0.02363,0.116775 0.0475,0.234033 0.075,0.349776 0.235424,0.990639 0.882884,1.800989 1.40089,2.610749 -0.797037,-0.10638 -1.341996,-0.21088 -1.96696,-0.73097 0.274185,1.45048 -0.446464,2.64702 -1.282143,3.5187 -0.835679,-0.87168 -1.556327,-2.06822 -1.282142,-3.5187 -0.624964,0.52009 -1.169923,0.62459 -1.96696,0.73097 0.518006,-0.80976 1.165466,-1.62011 1.40089,-2.610749 0.02752,-0.115742 0.05139,-0.233003 0.075,-0.349776 h -0.312498 l -0.607139,-0.873391 0.607139,-0.874439 h 0.452675 c -0.02889,-0.428578 -0.11157,-0.862513 -0.267853,-1.30066 -0.621124,-1.369789 -1.751047,-0.75311 -1.460716,0.602158 0.05823,0.271772 0.221253,0.54349 0.332146,0.891194 -0.547039,-0.185411 -0.751967,-0.234363 -1.395536,-0.561316 -2.33026,-2.22566 -1.448748,-6.11931 2.222319,-5.275952 -1.004129,-1.668816 -0.656463,-3.490072 0.849999,-4.482152 0.202318,-0.133223 0.451437,-0.253977 0.63482,-0.448214 0.123506,-0.130814 0.299103,-0.468113 0.299103,-0.468113 z" />
  <path
     d="m 99.979769,85.209514 0.418751,1.018956 c 0,0 0.17559,0.337299 0.2991,0.468113 0.18338,0.194237 0.4325,0.314991 0.63482,0.448214 1.50646,0.99208 1.85413,2.813336 0.85,4.482152 3.67107,-0.843358 4.55258,3.050292 2.22232,5.275952 -0.64357,0.326953 -0.8485,0.375905 -1.39554,0.561316 0.1109,-0.347704 0.27392,-0.619422 0.33215,-0.891194 0.29033,-1.355268 -0.83959,-1.971947 -1.46071,-0.602158 -0.15629,0.438147 -0.23898,0.872082 -0.26786,1.30066 h 0.45268 l 0.60714,0.874439 -0.60714,0.873391 h -0.3125 c 0.0236,0.116775 0.0475,0.234033 0.075,0.349776 0.23542,0.990639 0.88288,1.800989 1.40089,2.610749 -0.79704,-0.10638 -1.342,-0.21088 -1.96696,-0.73097 0.27418,1.45048 -0.44646,2.64702 -1.282141,3.5187 -0.83568,-0.87168 -1.55633,-2.06822 -1.28214,-3.5187 -0.62496,0.52009 -1.16992,0.62459 -1.96696,0.73097 0.51801,-0.80976 1.16547,-1.62011 1.40089,-2.610749 0.0275,-0.115742 0.0514,-0.233003 0.075,-0.349776 h -0.3125 l -0.60714,-0.873391 0.60714,-0.874439 h 0.45268 c -0.0289,-0.428578 -0.11157,-0.862513 -0.26786,-1.30066 -0.62112,-1.369789 -1.75104,-0.75311 -1.46071,0.602158 0.0582,0.271772 0.22125,0.54349 0.33214,0.891194 -0.54704,-0.185411 -0.75196,-0.234363 -1.39553,-0.561316 -2.330263,-2.22566 -1.448751,-6.11931 2.22232,-5.275952 -1.00413,-1.668816 -0.65647,-3.490072 0.85,-4.482152 0.20231,-0.133223 0.45143,-0.253977 0.63482,-0.448214 0.1235,-0.130814 0.2991,-0.468113 0.2991,-0.468113 z"
     style="fill:#000000;fill-opacity:1;stroke:none;stroke-width:0.258326px;stroke-linecap:butt;stroke-linejoin:miter;stroke-opacity:1"
     id="path872-3-6-1-9-4-7-1-3-45-8" />
  <path
     id="path872-3-6-8-3-2-4"
     style="fill:#000000;fill-opacity:1;stroke:none;stroke-width:0.258326px;stroke-linecap:butt;stroke-linejoin:miter;stroke-opacity:1"
     d="m 8.3300632,68.167612 -0.418747,1.018956 c 0,0 -0.175597,0.337299 -0.299108,0.468113 -0.183378,0.194237 -0.432502,0.314992 -0.63482,0.448214 -1.506462,0.99208 -1.854123,2.813336 -0.849996,4.482152 -3.6710665,-0.843358 -4.5525835,3.050292 -2.2223195,5.275953 0.6435695,0.326952 0.8484975,0.375904 1.3955315,0.561315 -0.110889,-0.347704 -0.273919,-0.619422 -0.332141,-0.891193 -0.290336,-1.355268 0.839587,-1.971947 1.460711,-0.602158 0.156283,0.438146 0.238971,0.872082 0.267858,1.30066 h -0.452681 l -0.607139,0.874439 0.607139,0.873391 h 0.312503 c -0.02363,0.116774 -0.0475,0.234032 -0.075,0.349776 -0.235428,0.990641 -0.882883,1.800986 -1.400894,2.610747 0.797037,-0.106382 1.342001,-0.210878 1.966964,-0.730967 -0.274189,1.450473 0.446464,2.647017 1.282138,3.518698 0.835679,-0.871681 1.556331,-2.068225 1.282142,-3.518698 0.6249638,0.520089 1.1699278,0.62459 1.9669628,0.730967 -0.51801,-0.809761 -1.165465,-1.620106 -1.400893,-2.610747 -0.02752,-0.115743 -0.05138,-0.233005 -0.075,-0.349776 h 0.312498 l 0.607145,-0.873391 -0.607145,-0.874439 H 9.9630962 c 0.02889,-0.428578 0.1115768,-0.862513 0.2678598,-1.30066 0.621124,-1.369789 1.751046,-0.75311 1.460712,0.602158 -0.05823,0.271771 -0.221252,0.543489 -0.332143,0.891193 0.547037,-0.185411 0.751965,-0.234363 1.395534,-0.561315 2.330261,-2.225661 1.448748,-6.119311 -2.22232,-5.275953 1.004127,-1.668816 0.656465,-3.490072 -0.8499968,-4.482152 -0.202317,-0.133222 -0.451442,-0.253977 -0.63482,-0.448214 -0.12351,-0.130814 -0.299108,-0.468113 -0.299108,-0.468113 z" />
  <path
     id="path872-3-9-7-2-5-3"
     style="fill:#000000;fill-opacity:1;stroke:none;stroke-width:0.258326px;stroke-linecap:butt;stroke-linejoin:miter;stroke-opacity:1"
     d="m 24.990059,68.167611 -0.418752,1.018956 c 0,0 -0.175597,0.337299 -0.299103,0.468113 -0.183383,0.194237 -0.432503,0.314991 -0.63482,0.448214 -1.506466,0.99208 -1.854126,2.813336 -0.850001,4.482152 -3.671066,-0.843358 -4.55258,3.050292 -2.222319,5.275953 0.643569,0.326952 0.848498,0.375904 1.395535,0.561315 -0.110891,-0.347704 -0.273919,-0.619422 -0.332143,-0.891193 -0.290334,-1.355269 0.83959,-1.971947 1.460714,-0.602158 0.156283,0.438146 0.238971,0.872082 0.267853,1.30066 h -0.452676 l -0.60714,0.874438 0.60714,0.873392 h 0.312498 c -0.02359,0.116774 -0.0475,0.234032 -0.075,0.349775 -0.235423,0.990642 -0.882883,1.800987 -1.40089,2.610748 0.797037,-0.106382 1.341997,-0.210879 1.96696,-0.730967 -0.274184,1.450473 0.446464,2.647017 1.282143,3.518698 0.835678,-0.871681 1.556326,-2.068225 1.282142,-3.518698 0.624963,0.520088 1.169923,0.62459 1.966959,0.730967 -0.518006,-0.809761 -1.165466,-1.620106 -1.400889,-2.610748 -0.02752,-0.115742 -0.05139,-0.233004 -0.075,-0.349775 h 0.312498 l 0.60714,-0.873392 -0.60714,-0.874438 h -0.452676 c 0.02889,-0.428578 0.111572,-0.862513 0.267855,-1.30066 0.621124,-1.369789 1.751047,-0.753111 1.460716,0.602158 -0.05823,0.271771 -0.221252,0.543489 -0.332146,0.891193 0.547039,-0.185411 0.751967,-0.234363 1.395536,-0.561315 2.33026,-2.225661 1.448748,-6.119311 -2.222319,-5.275953 1.004127,-1.668816 0.656461,-3.490072 -0.850001,-4.482152 C 26.140416,69.969671 25.891296,69.848917 25.707914,69.65468 25.584407,69.523866 25.40881,69.186567 25.40881,69.186567 Z" />
  <path
     id="path872-3-6-1-9-0-4-1"
     style="fill:#000000;fill-opacity:1;stroke:none;stroke-width:0.258326px;stroke-linecap:butt;stroke-linejoin:miter;stroke-opacity:1"
     d="m 41.65006,68.167611 0.418751,1.018955 c 0,0 0.175598,0.337299 0.299104,0.468113 0.183382,0.194237 0.432502,0.314992 0.634819,0.448215 1.506462,0.992079 1.854128,2.813335 0.850002,4.482152 3.671066,-0.843358 4.552578,3.050292 2.222319,5.275953 -0.64357,0.326952 -0.848497,0.375904 -1.395537,0.561315 0.110894,-0.347704 0.27392,-0.619422 0.332146,-0.891194 0.290331,-1.355268 -0.839592,-1.971947 -1.460715,-0.602157 -0.156284,0.438146 -0.238972,0.872082 -0.267854,1.30066 h 0.452676 l 0.60714,0.874438 -0.60714,0.873392 h -0.312498 c 0.02363,0.116774 0.0475,0.234032 0.075,0.349775 0.235424,0.990642 0.882884,1.800987 1.40089,2.610748 -0.797037,-0.106382 -1.341996,-0.210879 -1.96696,-0.730967 0.274185,1.450473 -0.446463,2.647017 -1.282142,3.518698 -0.835679,-0.871681 -1.556327,-2.068225 -1.282142,-3.518698 -0.624964,0.520088 -1.169923,0.62459 -1.96696,0.730967 0.518006,-0.809761 1.165466,-1.620106 1.40089,-2.610748 0.02752,-0.115742 0.05139,-0.233004 0.075,-0.349775 h -0.312498 l -0.607139,-0.873392 0.607139,-0.874438 h 0.452675 c -0.02889,-0.428578 -0.11157,-0.862514 -0.267853,-1.30066 -0.621124,-1.36979 -1.751047,-0.753111 -1.460716,0.602157 0.05823,0.271772 0.221253,0.54349 0.332146,0.891194 -0.547039,-0.185411 -0.751967,-0.234363 -1.395536,-0.561315 -2.33026,-2.225661 -1.448748,-6.119311 2.222319,-5.275953 -1.004129,-1.668817 -0.656463,-3.490073 0.849999,-4.482152 0.202318,-0.133223 0.451437,-0.253978 0.63482,-0.448215 0.123506,-0.130814 0.299103,-0.468113 0.299103,-0.468113 z" />
  <path
     id="path872-3-6-1-9-4-3-6-7-4"
     style="fill:#000000;fill-opacity:1;stroke:none;stroke-width:0.258326px;stroke-linecap:butt;stroke-linejoin:miter;stroke-opacity:1"
     d="m 33.336598,85.209514 -0.418751,1.018956 c 0,0 -0.175598,0.337299 -0.299104,0.468113 -0.183382,0.194237 -0.432503,0.314991 -0.63482,0.448214 -1.506462,0.99208 -1.854128,2.813336 -0.850002,4.482152 -3.671066,-0.843358 -4.552577,3.050292 -2.222319,5.275952 0.64357,0.326953 0.848497,0.375905 1.395537,0.561316 -0.110894,-0.347704 -0.27392,-0.619422 -0.332146,-0.891194 -0.290331,-1.355268 0.839592,-1.971947 1.460715,-0.602158 0.156284,0.438147 0.238972,0.872082 0.267854,1.30066 h -0.452676 l -0.60714,0.874439 0.60714,0.873391 h 0.312498 c -0.02363,0.116775 -0.0475,0.234033 -0.075,0.349776 -0.235424,0.990639 -0.882884,1.800989 -1.40089,2.610749 0.797037,-0.10638 1.341996,-0.21088 1.96696,-0.73097 -0.274185,1.45048 0.446464,2.64702 1.282143,3.5187 0.835679,-0.87168 1.556327,-2.06822 1.282142,-3.5187 0.624964,0.52009 1.169923,0.62459 1.96696,0.73097 -0.518006,-0.80976 -1.165466,-1.62011 -1.40089,-2.610749 -0.02752,-0.115742 -0.05139,-0.233003 -0.075,-0.349776 h 0.312498 l 0.607139,-0.873391 -0.607139,-0.874439 h -0.452675 c 0.02889,-0.428578 0.11157,-0.862513 0.267853,-1.30066 0.621124,-1.369789 1.751047,-0.75311 1.460716,0.602158 -0.05823,0.271772 -0.221253,0.54349 -0.332146,0.891194 0.547039,-0.185411 0.751967,-0.234363 1.395536,-0.561316 2.33026,-2.22566 1.448748,-6.11931 -2.222319,-5.275952 1.004129,-1.668816 0.656463,-3.490072 -0.849999,-4.482152 C 34.486955,87.011574 34.237836,86.89082 34.054453,86.696583 33.930947,86.565769 33.75535,86.22847 33.75535,86.22847 Z" />
  <path
     d="m 16.676597,85.209514 -0.418751,1.018956 c 0,0 -0.175598,0.337299 -0.299104,0.468113 -0.183382,0.194237 -0.432503,0.314991 -0.63482,0.448214 -1.506462,0.99208 -1.854128,2.813336 -0.850002,4.482152 -3.671066,-0.843358 -4.5525778,3.050292 -2.222319,5.275952 0.64357,0.326953 0.848497,0.375905 1.395537,0.561316 -0.110894,-0.347704 -0.27392,-0.619422 -0.332146,-0.891194 -0.290331,-1.355268 0.839592,-1.971947 1.460715,-0.602158 0.156284,0.438147 0.238972,0.872082 0.267854,1.30066 h -0.452676 l -0.60714,0.874439 0.60714,0.873391 h 0.312498 c -0.02363,0.116775 -0.0475,0.234033 -0.075,0.349776 -0.235424,0.990639 -0.882884,1.800989 -1.40089,2.610749 0.797037,-0.10638 1.341996,-0.21088 1.96696,-0.73097 -0.274185,1.45048 0.446464,2.64702 1.282143,3.5187 0.835679,-0.87168 1.556327,-2.06822 1.282142,-3.5187 0.624964,0.52009 1.169923,0.62459 1.96696,0.73097 -0.518006,-0.80976 -1.165466,-1.62011 -1.40089,-2.610749 -0.02752,-0.115742 -0.05139,-0.233003 -0.075,-0.349776 h 0.312498 l 0.607139,-0.873391 -0.607139,-0.874439 h -0.452675 c 0.02889,-0.428578 0.11157,-0.862513 0.267853,-1.30066 0.621124,-1.369789 1.751047,-0.75311 1.460716,0.602158 -0.05823,0.271772 -0.221253,0.54349 -0.332146,0.891194 0.547039,-0.185411 0.751967,-0.234363 1.395536,-0.561316 2.33026,-2.22566 1.448748,-6.11931 -2.222319,-5.275952 1.004129,-1.668816 0.656463,-3.490072 -0.849999,-4.482152 -0.202318,-0.133223 -0.451437,-0.253977 -0.63482,-0.448214 -0.123506,-0.130814 -0.299103,-0.468113 -0.299103,-0.468113 z"
     style="fill:#000000;fill-opacity:1;stroke:none;stroke-width:0.258326px;stroke-linecap:butt;stroke-linejoin:miter;stroke-opacity:1"
     id="path872-3-6-1-9-4-7-1-5-4-9" />
  <path
     id="path872-3-6-1-9-4-7-1-3-4-4-2"
     style="fill:#000000;fill-opacity:1;stroke:none;stroke-width:0.258326px;stroke-linecap:butt;stroke-linejoin:miter;stroke-opacity:1"
     d="m 0.02030969,85.209514 -0.418758,1.018956 c 0,0 -0.17559,0.337299 -0.2991,0.468113 -0.18338,0.194237 -0.43249999,0.314991 -0.63481999,0.448214 -1.50646,0.99208 -1.85413,2.813336 -0.85,4.482152 -3.67107,-0.843358 -4.55258,3.050292 -2.22232,5.275952 0.64357,0.326953 0.8485,0.375905 1.39554,0.561316 -0.1109,-0.347704 -0.27392,-0.619422 -0.33215,-0.891194 -0.29033,-1.355268 0.83959,-1.971947 1.46071,-0.602158 0.15629,0.438147 0.23898,0.872082 0.26786,1.30066 h -0.45268 l -0.60714,0.874439 0.60714,0.873391 h 0.3125 c -0.0236,0.116775 -0.0475,0.234033 -0.075,0.349776 -0.23542,0.990639 -0.88288,1.800989 -1.40089,2.610749 0.79704,-0.10638 1.342,-0.21088 1.96696,-0.73097 -0.27418,1.45048 0.44645999,2.64702 1.28214699,3.5187 0.835679,-0.87168 1.55632701,-2.06822 1.28214201,-3.5187 0.624964,0.52009 1.169923,0.62459 1.96696,0.73097 -0.518006,-0.80976 -1.165466,-1.62011 -1.40089,-2.610749 -0.02752,-0.115742 -0.05139,-0.233003 -0.075,-0.349776 h 0.312498 l 0.607139,-0.873391 -0.607139,-0.874439 h -0.452675 c 0.02889,-0.428578 0.11157,-0.862513 0.267853,-1.30066 0.621124,-1.369789 1.751047,-0.75311 1.460716,0.602158 -0.05823,0.271772 -0.221253,0.54349 -0.332146,0.891194 0.547039,-0.185411 0.751967,-0.234363 1.3955355,-0.561316 2.33026,-2.22566 1.448748,-6.11931 -2.2223185,-5.275952 1.004129,-1.668816 0.656463,-3.490072 -0.849999,-4.482152 -0.202318,-0.133223 -0.45143701,-0.253977 -0.63482001,-0.448214 -0.123506,-0.130814 -0.299103,-0.468113 -0.299103,-0.468113 z" />
</svg>
