<?xml version="1.0" encoding="UTF-8"?>
<svg version="1.1" viewBox="0 0 100 110" xmlns="http://www.w3.org/2000/svg" xmlns:cc="http://creativecommons.org/ns#" xmlns:dc="http://purl.org/dc/elements/1.1/" xmlns:rdf="http://www.w3.org/1999/02/22-rdf-syntax-ns#" xmlns:xlink="http://www.w3.org/1999/xlink">
 <metadata>
  <rdf:RDF>
   <cc:Work rdf:about="">
    <dc:format>image/svg+xml</dc:format>
    <dc:type rdf:resource="http://purl.org/dc/dcmitype/StillImage"/>
    <dc:title/>
   </cc:Work>
  </rdf:RDF>
 </metadata>
 <defs>
  <pattern id="pattern1908" patternTransform="matrix(.8925 0 0 1.098 50 25.87)" xlink:href="#pattern939"/>
  <pattern id="pattern939" width="16.659996" height="35.178562" patternTransform="translate(41.65)" patternUnits="userSpaceOnUse">
   <g transform="translate(-41.65)">
    <rect x="41.65" width="16.66" height="35.18" opacity="0" stroke-width="25.36" style="paint-order:stroke fill markers"/>
    <path d="m41.65 13.66c0.6322 1.807 1.602 3.711 2.857 3.504 2.337-0.3847 4.148-2.196 4.533-4.533 0.2066-1.255-1.697-2.225-3.504-2.857 1.807-0.6322 3.711-1.602 3.504-2.857-0.3847-2.337-2.196-4.148-4.533-4.532-1.255-0.2066-2.224 1.697-2.857 3.504z" fill-rule="evenodd" stroke-linecap="round" stroke-linejoin="round" stroke-width="1.345" style="paint-order:fill markers stroke"/>
    <path d="m47.36 19.42c-0.07112-0.0019-0.1433 0.0032-0.2163 0.01502-2.337 0.3847-4.148 2.196-4.533 4.533-0.2066 1.255 1.697 2.225 3.504 2.857-1.807 0.6322-3.711 1.602-3.504 2.857 0.3847 2.337 2.196 4.148 4.533 4.532 1.255 0.2066 2.225-1.697 2.857-3.504 0.6322 1.807 1.602 3.711 2.857 3.504 2.337-0.3847 4.148-2.196 4.533-4.533 0.2066-1.255-1.697-2.225-3.504-2.857 1.807-0.6322 3.711-1.602 3.504-2.857-0.3847-2.337-2.196-4.148-4.533-4.532-1.255-0.2066-2.224 1.697-2.857 3.504-0.5954-1.702-1.49-3.489-2.641-3.519z" fill-rule="evenodd" stroke-linecap="round" stroke-linejoin="round" stroke-width="1.345" style="paint-order:fill markers stroke"/>
    <path d="m58.31 13.66c-0.6322 1.807-1.602 3.711-2.857 3.504-2.337-0.3847-4.148-2.196-4.533-4.533-0.2066-1.255 1.697-2.225 3.504-2.857-1.807-0.6322-3.711-1.602-3.504-2.857 0.3847-2.337 2.196-4.148 4.533-4.532 1.255-0.2066 2.224 1.697 2.857 3.504z" fill-rule="evenodd" stroke-linecap="round" stroke-linejoin="round" stroke-width="1.345" style="paint-order:fill markers stroke"/>
   </g>
  </pattern>
 </defs>
 <clipPath id="escu">
  <rect width="100" height="120"/>
 </clipPath>
 <g fill="#000000" font-family="sans-serif" font-size="40px">
  <text x="-66.600601" y="42.176289" style="line-height:1.25" xml:space="preserve"><tspan x="-66.600601" y="42.176289"/></text>
  <text x="-201.93855" y="0.78777015" style="line-height:1.25" xml:space="preserve"><tspan x="-201.93855" y="0.78777015"/></text>
  <text x="-159.68279" y="-76.685295" style="line-height:1.25" xml:space="preserve"><tspan x="-159.68279" y="-76.685295"/></text>
 </g>
 <rect x="-2.5" y="6.232" width="105" height="115" ry="0" fill="url(#pattern1908)"/>
</svg>
