<?xml version="1.0" encoding="UTF-8"?>
<svg version="1.1" viewBox="0 0 100 110" xmlns="http://www.w3.org/2000/svg" xmlns:cc="http://creativecommons.org/ns#" xmlns:dc="http://purl.org/dc/elements/1.1/" xmlns:rdf="http://www.w3.org/1999/02/22-rdf-syntax-ns#" xmlns:xlink="http://www.w3.org/1999/xlink">
 <metadata>
  <rdf:RDF>
   <cc:Work rdf:about="">
    <dc:format>image/svg+xml</dc:format>
    <dc:type rdf:resource="http://purl.org/dc/dcmitype/StillImage"/>
    <dc:title/>
   </cc:Work>
  </rdf:RDF>
 </metadata>
 <defs>
  <pattern id="pattern1894" patternTransform="matrix(1.003 0 0 1.194 50 17.27)" xlink:href="#pattern927"/>
  <pattern id="pattern927" width="14.293757" height="32.845365" patternTransform="translate(35.71)" patternUnits="userSpaceOnUse">
   <g transform="translate(-35.71)">
    <rect x="35.71" width="14.29" height="32.85" opacity="0" stroke-width="9.904" style="paint-order:stroke fill markers"/>
    <path d="m39.88 3.754c-0.4684 0-0.9286 0.121-1.381 0.3633-1.071 0.6676-1.607 1.571-1.607 2.707 1e-6 1.174 0.451 2.312 1.355 3.416l4.539 5.562h0.09766l4.537-5.562c0.9045-1.104 1.357-2.242 1.357-3.416 0-1.136-0.5361-2.039-1.607-2.707-0.4522-0.2423-0.9125-0.3633-1.381-0.3633-1.093 0-1.952 0.6333-2.576 1.898-0.2261 0.5007-0.3447 0.8827-0.3555 1.146h-0.04883c-0.01076-0.2638-0.1274-0.6458-0.3535-1.146-0.6245-1.265-1.483-1.898-2.576-1.898z" dominant-baseline="auto" style="font-variant-alternates:normal;font-variant-caps:normal;font-variant-ligatures:normal;font-variant-numeric:normal;font-variant-position:normal;shape-padding:0;text-decoration-color:#000000;text-decoration-line:none;text-decoration-style:solid;text-indent:0;text-orientation:mixed;text-transform:none;white-space:normal"/>
    <path d="m35.71 32.85h0.04883l4.537-5.562c0.9045-1.104 1.357-2.242 1.357-3.416 0-1.136-0.5361-2.039-1.607-2.707-0.4522-0.2423-0.9125-0.3633-1.381-0.3633-1.093 0-1.952 0.6333-2.576 1.898-0.2261 0.5007-0.3447 0.8827-0.3555 1.146h-0.02344z" dominant-baseline="auto" style="font-variant-alternates:normal;font-variant-caps:normal;font-variant-ligatures:normal;font-variant-numeric:normal;font-variant-position:normal;shape-padding:0;text-decoration-color:#000000;text-decoration-line:none;text-decoration-style:solid;text-indent:0;text-orientation:mixed;text-transform:none;white-space:normal"/>
    <path d="m50 32.85h-0.04883l-4.537-5.562c-0.9045-1.104-1.357-2.242-1.357-3.416 0-1.136 0.5361-2.039 1.607-2.707 0.4522-0.2423 0.9125-0.3633 1.381-0.3633 1.093 0 1.952 0.6333 2.576 1.898 0.2261 0.5007 0.3447 0.8827 0.3555 1.146h0.02344z" dominant-baseline="auto" style="font-variant-alternates:normal;font-variant-caps:normal;font-variant-ligatures:normal;font-variant-numeric:normal;font-variant-position:normal;shape-padding:0;text-decoration-color:#000000;text-decoration-line:none;text-decoration-style:solid;text-indent:0;text-orientation:mixed;text-transform:none;white-space:normal"/>
   </g>
  </pattern>
 </defs>
 <rect x="-2.5" width="105" height="115" fill="url(#pattern1894)"/>
</svg>
