<?xml version="1.0" encoding="UTF-8" standalone="no"?>
<svg
   xmlns:dc="http://purl.org/dc/elements/1.1/"
   xmlns:cc="http://creativecommons.org/ns#"
   xmlns:rdf="http://www.w3.org/1999/02/22-rdf-syntax-ns#"
   xmlns:svg="http://www.w3.org/2000/svg"
   xmlns="http://www.w3.org/2000/svg"
   xmlns:sodipodi="http://sodipodi.sourceforge.net/DTD/sodipodi-0.dtd"
   xmlns:inkscape="http://www.inkscape.org/namespaces/inkscape"
   inkscape:version="1.0 (4035a4fb49, 2020-05-01)"
   sodipodi:docname="rod.svg"
   id="svg36"
   version="1.1"
   viewBox="0 0 100 110">
  <metadata
     id="metadata42">
    <rdf:RDF>
      <cc:Work
         rdf:about="">
        <dc:format>image/svg+xml</dc:format>
        <dc:type
           rdf:resource="http://purl.org/dc/dcmitype/StillImage" />
        <dc:title></dc:title>
      </cc:Work>
    </rdf:RDF>
  </metadata>
  <defs
     id="defs40">
    <inkscape:path-effect
       effect="mirror_symmetry"
       start_point="49.999996,3.5290504"
       end_point="49.999996,33.070951"
       center_point="49.999996,18.300001"
       id="path-effect2720"
       is_visible="true"
       lpeversion="1"
       mode="free"
       discard_orig_path="false"
       fuse_paths="false"
       oposite_fuse="false"
       split_items="false" />
    <inkscape:path-effect
       split_items="false"
       oposite_fuse="false"
       fuse_paths="false"
       discard_orig_path="false"
       mode="free"
       lpeversion="1"
       is_visible="true"
       id="path-effect1071"
       center_point="-1068.7578,-627.84278"
       end_point="-1068.7578,-592.88867"
       start_point="-1068.7578,-662.79688"
       effect="mirror_symmetry" />
    <inkscape:path-effect
       effect="mirror_symmetry"
       start_point="-1068.7578,-662.79688"
       end_point="-1068.7578,-592.88867"
       center_point="-1068.7578,-627.84278"
       id="path-effect1069"
       is_visible="true"
       lpeversion="1"
       mode="free"
       discard_orig_path="false"
       fuse_paths="false"
       oposite_fuse="false"
       split_items="false" />
    <inkscape:path-effect
       split_items="false"
       oposite_fuse="false"
       fuse_paths="false"
       discard_orig_path="false"
       mode="free"
       lpeversion="1"
       is_visible="true"
       id="path-effect1045"
       center_point="-1068.7578,-627.84278"
       end_point="-1068.7578,-592.88867"
       start_point="-1068.7578,-662.79688"
       effect="mirror_symmetry" />
    <inkscape:path-effect
       effect="mirror_symmetry"
       start_point="-1068.7578,-662.79688"
       end_point="-1068.7578,-592.88867"
       center_point="-1068.7578,-627.84278"
       id="path-effect1043"
       is_visible="true"
       lpeversion="1"
       mode="free"
       discard_orig_path="false"
       fuse_paths="false"
       oposite_fuse="false"
       split_items="false" />
    <inkscape:path-effect
       split_items="false"
       oposite_fuse="false"
       fuse_paths="false"
       discard_orig_path="false"
       mode="free"
       lpeversion="1"
       is_visible="true"
       id="path-effect1041"
       center_point="-1068.7578,-627.84278"
       end_point="-1068.7578,-592.88867"
       start_point="-1068.7578,-662.79688"
       effect="mirror_symmetry" />
    <inkscape:path-effect
       split_items="false"
       oposite_fuse="false"
       fuse_paths="false"
       discard_orig_path="false"
       mode="free"
       lpeversion="1"
       is_visible="true"
       id="path-effect1012"
       center_point="-1068.7578,-627.84278"
       end_point="-1068.7578,-592.88867"
       start_point="-1068.7578,-662.79688"
       effect="mirror_symmetry" />
    <inkscape:path-effect
       effect="mirror_symmetry"
       start_point="-1068.7578,-662.79688"
       end_point="-1068.7578,-592.88867"
       center_point="-1068.7578,-627.84278"
       id="path-effect1010"
       is_visible="true"
       lpeversion="1"
       mode="free"
       discard_orig_path="false"
       fuse_paths="false"
       oposite_fuse="false"
       split_items="false" />
    <inkscape:path-effect
       split_items="false"
       oposite_fuse="false"
       fuse_paths="false"
       discard_orig_path="false"
       mode="free"
       lpeversion="1"
       is_visible="true"
       id="path-effect974"
       center_point="-1068.7578,-627.84278"
       end_point="-1068.7578,-592.88867"
       start_point="-1068.7578,-662.79688"
       effect="mirror_symmetry" />
    <inkscape:path-effect
       split_items="false"
       oposite_fuse="false"
       fuse_paths="false"
       discard_orig_path="false"
       mode="free"
       lpeversion="1"
       is_visible="true"
       id="path-effect945"
       center_point="-1068.7578,-627.84278"
       end_point="-1068.7578,-592.88867"
       start_point="-1068.7578,-662.79688"
       effect="mirror_symmetry" />
    <inkscape:path-effect
       effect="mirror_symmetry"
       start_point="-1068.7578,-662.79688"
       end_point="-1068.7578,-592.88867"
       center_point="-1068.7578,-627.84278"
       id="path-effect916"
       is_visible="true"
       lpeversion="1"
       mode="free"
       discard_orig_path="false"
       fuse_paths="false"
       oposite_fuse="false"
       split_items="false" />
    <inkscape:path-effect
       only_selected="false"
       apply_with_weight="true"
       apply_no_weight="true"
       helper_size="0"
       steps="2"
       weight="33.333333"
       lpeversion="1"
       is_visible="true"
       id="path-effect1050"
       effect="bspline" />
    <inkscape:path-effect
       effect="bspline"
       id="path-effect1030"
       is_visible="true"
       lpeversion="1"
       weight="33.333333"
       steps="2"
       helper_size="0"
       apply_no_weight="true"
       apply_with_weight="true"
       only_selected="false" />
    <inkscape:path-effect
       effect="bspline"
       id="path-effect1001"
       is_visible="true"
       lpeversion="1"
       weight="33.333333"
       steps="2"
       helper_size="0"
       apply_no_weight="true"
       apply_with_weight="true"
       only_selected="false" />
    <inkscape:path-effect
       only_selected="false"
       apply_with_weight="true"
       apply_no_weight="true"
       helper_size="0"
       steps="2"
       weight="33.333333"
       lpeversion="1"
       is_visible="true"
       id="path-effect999"
       effect="bspline" />
    <inkscape:path-effect
       effect="bspline"
       id="path-effect975"
       is_visible="true"
       lpeversion="1"
       weight="33.333333"
       steps="2"
       helper_size="0"
       apply_no_weight="true"
       apply_with_weight="true"
       only_selected="false" />
    <inkscape:path-effect
       only_selected="false"
       apply_with_weight="true"
       apply_no_weight="true"
       helper_size="0"
       steps="2"
       weight="33.333333"
       lpeversion="1"
       is_visible="true"
       id="path-effect956"
       effect="bspline" />
    <clipPath
       id="ordi2-0">
      <circle
         id="circle19-4"
         r="3.75"
         cy="21.921255"
         cx="204.90433" />
      <circle
         id="circle21-8"
         r="3.75"
         cy="81.921257"
         cx="204.90433" />
      <circle
         id="circle23-8"
         r="3.75"
         cy="51.921257"
         cx="174.90433" />
      <circle
         id="circle25-8"
         r="3.75"
         cy="51.921257"
         cx="234.90433" />
    </clipPath>
  </defs>
  <sodipodi:namedview
     inkscape:snap-bbox-midpoints="false"
     inkscape:snap-bbox-edge-midpoints="true"
     inkscape:bbox-nodes="false"
     inkscape:bbox-paths="true"
     inkscape:snap-bbox="true"
     inkscape:document-rotation="0"
     inkscape:guide-bbox="true"
     showguides="true"
     inkscape:current-layer="svg36"
     inkscape:window-maximized="1"
     inkscape:window-y="0"
     inkscape:window-x="0"
     inkscape:cy="43.695081"
     inkscape:cx="14.058365"
     inkscape:zoom="4"
     showgrid="false"
     id="namedview38"
     inkscape:window-height="1020"
     inkscape:window-width="1920"
     inkscape:pageshadow="2"
     inkscape:pageopacity="0"
     guidetolerance="10"
     gridtolerance="10"
     objecttolerance="10"
     borderopacity="1"
     bordercolor="#666666"
     pagecolor="#ffffff"
     inkscape:snap-global="true"
     inkscape:snap-nodes="false" />
  <clipPath
     id="escu">
    <rect
       id="rect2"
       height="120"
       width="100" />
  </clipPath>
  <text
     id="text934"
     y="42.176289"
     x="-66.600601"
     style="font-style:normal;font-weight:normal;font-size:40px;line-height:1.25;font-family:sans-serif;fill:#000000;fill-opacity:1;stroke:none"
     xml:space="preserve"><tspan
       y="42.176289"
       x="-66.600601"
       id="tspan932"
       sodipodi:role="line" /></text>
  <text
     id="text944"
     y="0.78777015"
     x="-201.93855"
     style="font-style:normal;font-weight:normal;font-size:40px;line-height:1.25;font-family:sans-serif;fill:#000000;fill-opacity:1;stroke:none"
     xml:space="preserve"><tspan
       y="0.78777015"
       x="-201.93855"
       id="tspan942"
       sodipodi:role="line" /></text>
  <text
     id="text948"
     y="-76.685295"
     x="-159.68279"
     style="font-style:normal;font-weight:normal;font-size:40px;line-height:1.25;font-family:sans-serif;fill:#000000;fill-opacity:1;stroke:none"
     xml:space="preserve"><tspan
       y="-76.685295"
       x="-159.68279"
       id="tspan946"
       sodipodi:role="line" /></text>
  <path
     inkscape:transform-center-y="-6.3646183"
     inkscape:transform-center-x="11.446907"
     d="m 66.703225,16.258513 c -0.173252,0.856539 -0.802762,1.217458 -1.401248,1.742484 -0.645937,0.682841 -0.671874,1.700506 -0.235442,2.496525 -3.095577,0.08668 -3.061648,2.925057 -1.134689,4.058538 0.993775,0.6057 0.192727,-0.690519 0.50615,-1.152322 0.597804,-0.706038 1.598995,0.990371 0.871242,1.246707 -0.994975,0.594703 0.246483,1.094498 0.160765,1.796418 0.144276,0.979145 0.127922,2.000151 -0.0529,2.958076 -0.686152,0.414296 -0.58732,1.102801 0.06742,1.460366 0.325244,0.844738 0.01893,1.778984 0.03111,2.657291 0.19237,0.847739 -1.24791,1.457756 -0.161802,2.097205 0.639546,0.932279 0.0227,2.321022 0.122389,3.412365 -0.383837,0.420001 -0.893508,0.939868 -0.218847,1.436512 0.48184,0.0012 0.963759,0.0026 1.445846,0.002 0.482089,4.86e-4 0.964007,-7.22e-4 1.445848,-0.002 0.674662,-0.496644 0.16499,-1.016511 -0.218848,-1.436511 0.09969,-1.091344 -0.517156,-2.480087 0.122389,-3.412366 1.086108,-0.639447 -0.354176,-1.249466 -0.161803,-2.097206 0.0122,-0.878307 -0.294126,-1.812553 0.03113,-2.65729 0.65474,-0.357563 0.753568,-1.046068 0.06742,-1.460367 -0.180818,-0.957924 -0.197173,-1.97893 -0.0529,-2.958074 -0.08572,-0.701922 1.155735,-1.201714 0.160761,-1.796419 -0.727752,-0.256336 0.273439,-1.952745 0.871243,-1.246707 0.313423,0.461802 -0.487626,1.758022 0.50615,1.152322 1.926954,-1.133479 1.960879,-3.971861 -1.134698,-4.058537 0.436432,-0.796019 0.410495,-1.813684 -0.235442,-2.496525 -0.598486,-0.525026 -1.227998,-0.885945 -1.401249,-1.742483 z"
     style="fill:#000000;fill-opacity:1;stroke:none;stroke-width:0.180069px;stroke-linecap:butt;stroke-linejoin:miter;stroke-opacity:1"
     id="path872-3-6-8-2-11-5-5-1-4-5-0-3-6-2-6-9-7-2" />
  <path
     id="path872-3-6-8-2-11-5-5-1-4-5-0-3-6-2-6-9-7-2-5"
     style="fill:#000000;fill-opacity:1;stroke:none;stroke-width:0.180069px;stroke-linecap:butt;stroke-linejoin:miter;stroke-opacity:1"
     d="m 83.361594,16.258513 c -0.173252,0.856539 -0.802762,1.217458 -1.401248,1.742484 -0.645937,0.682841 -0.671874,1.700506 -0.235442,2.496525 -3.095577,0.08668 -3.061648,2.925057 -1.134689,4.058538 0.993775,0.6057 0.192727,-0.690519 0.50615,-1.152322 0.597804,-0.706038 1.598995,0.990371 0.871242,1.246707 -0.994975,0.594703 0.246483,1.094498 0.160765,1.796418 0.144276,0.979145 0.127922,2.000151 -0.0529,2.958076 -0.686152,0.414296 -0.58732,1.102801 0.06742,1.460366 0.325244,0.844738 0.01893,1.778984 0.03111,2.657291 0.19237,0.847739 -1.24791,1.457756 -0.161802,2.097205 0.639546,0.932279 0.0227,2.321022 0.122389,3.412365 -0.383837,0.420001 -0.893508,0.939868 -0.218847,1.436512 0.48184,0.0012 0.963759,0.0026 1.445846,0.002 0.482101,4.86e-4 0.964011,-7.22e-4 1.445851,-0.002 0.67467,-0.496644 0.16499,-1.016511 -0.21884,-1.436511 0.0997,-1.091344 -0.51716,-2.480087 0.12239,-3.412366 1.0861,-0.639447 -0.35418,-1.249466 -0.16181,-2.097206 0.0122,-0.878307 -0.29412,-1.812553 0.0311,-2.65729 0.65474,-0.357563 0.75357,-1.046068 0.0674,-1.460367 -0.18082,-0.957924 -0.19717,-1.97893 -0.0529,-2.958074 -0.0857,-0.701922 1.15574,-1.201714 0.16076,-1.796419 -0.72775,-0.256336 0.27344,-1.952745 0.87125,-1.246707 0.31342,0.461802 -0.48763,1.758022 0.50615,1.152322 1.92695,-1.133479 1.96088,-3.971861 -1.1347,-4.058537 0.43643,-0.796019 0.41049,-1.813684 -0.23544,-2.496525 -0.59849,-0.525026 -1.228009,-0.885945 -1.40126,-1.742483 z"
     inkscape:transform-center-x="11.446927"
     inkscape:transform-center-y="-6.3646183" />
  <path
     id="path872-3-6-8-2-11-5-5-1-4-5-0-3-6-2-6-9-7"
     style="fill:#000000;fill-opacity:1;stroke:none;stroke-width:0.180069px;stroke-linecap:butt;stroke-linejoin:miter;stroke-opacity:1"
     d="M 75.03159,0.45588036 C 74.858338,1.3124194 74.228827,1.6733384 73.630342,2.1983644 c -0.645938,0.682841 -0.671875,1.700506 -0.235442,2.496525 -3.095578,0.08668 -3.061649,2.925057 -1.13469,4.058538 0.993775,0.6057 0.192727,-0.690519 0.50615,-1.152322 0.597804,-0.706038 1.598995,0.990371 0.871242,1.246707 -0.994975,0.594703 0.246483,1.094498 0.160765,1.7964176 0.144276,0.979145 0.127922,2.000151 -0.0529,2.958076 -0.686152,0.414296 -0.58732,1.102801 0.06742,1.460366 0.325244,0.844738 0.01893,1.778984 0.03111,2.657291 0.19237,0.847739 -1.24791,1.457756 -0.161801,2.097205 0.639545,0.932279 0.0227,2.321022 0.122389,3.412365 -0.383838,0.420001 -0.893509,0.939868 -0.218848,1.436512 0.481841,0.0012 0.963759,0.0026 1.445847,0.002 0.482088,4.86e-4 0.964006,-7.22e-4 1.445848,-0.002 0.674661,-0.496644 0.164989,-1.016511 -0.218848,-1.436511 0.09969,-1.091344 -0.517157,-2.480087 0.122388,-3.412366 1.086109,-0.639447 -0.354175,-1.249466 -0.161803,-2.097206 0.0122,-0.878307 -0.294126,-1.812553 0.03113,-2.65729 0.65474,-0.357563 0.753568,-1.046068 0.06742,-1.460367 -0.180818,-0.957924 -0.197174,-1.97893 -0.0529,-2.958074 -0.08572,-0.7019216 1.155734,-1.2017136 0.160761,-1.7964186 -0.727753,-0.256336 0.273438,-1.952745 0.871242,-1.246707 0.313423,0.461802 -0.487626,1.758022 0.50615,1.152322 1.926954,-1.133479 1.96088,-3.971861 -1.134697,-4.058537 0.436431,-0.796019 0.410495,-1.813684 -0.235443,-2.496525 -0.598486,-0.525026 -1.227997,-0.885945 -1.401249,-1.74248304 z"
     inkscape:transform-center-x="-11.446912"
     inkscape:transform-center-y="-6.3646183" />
  <path
     inkscape:transform-center-y="-6.3646183"
     inkscape:transform-center-x="-11.446907"
     d="M 58.371598,0.45588047 C 58.198346,1.3124195 57.568836,1.6733385 56.97035,2.1983645 c -0.645937,0.682841 -0.671874,1.700506 -0.235442,2.496525 -3.095577,0.08668 -3.061648,2.925057 -1.134689,4.058538 0.993775,0.6057 0.192727,-0.690519 0.50615,-1.152322 0.597804,-0.706038 1.598995,0.990371 0.871242,1.246707 -0.994975,0.594703 0.246483,1.094498 0.160765,1.7964175 0.144276,0.979145 0.127922,2.000151 -0.0529,2.958076 -0.686152,0.414296 -0.58732,1.102801 0.06742,1.460366 0.325243,0.844738 0.01893,1.778984 0.03111,2.657291 0.19237,0.847739 -1.24791,1.457756 -0.161802,2.097205 0.639546,0.932279 0.0227,2.321022 0.122389,3.412365 -0.383838,0.420001 -0.893508,0.939868 -0.218847,1.436512 0.48184,0.0012 0.963759,0.0026 1.445846,0.002 0.482089,4.86e-4 0.964007,-7.22e-4 1.445848,-0.002 0.674654,-0.496644 0.16499,-1.016511 -0.218848,-1.436511 0.09969,-1.091344 -0.517156,-2.480087 0.122389,-3.412366 1.0861,-0.639447 -0.354176,-1.249466 -0.161803,-2.097206 0.01219,-0.878307 -0.294126,-1.812553 0.03113,-2.65729 0.654732,-0.357563 0.753559,-1.046068 0.06742,-1.460367 -0.180818,-0.957924 -0.197173,-1.97893 -0.0529,-2.958074 -0.08572,-0.7019215 1.155727,-1.2017135 0.160761,-1.7964185 -0.727753,-0.256336 0.273431,-1.952745 0.871235,-1.246707 0.313422,0.461802 -0.487626,1.758022 0.50615,1.152322 1.926954,-1.133479 1.960879,-3.971861 -1.13469,-4.058537 0.436424,-0.796019 0.410487,-1.813684 -0.235443,-2.496525 -0.598485,-0.525026 -1.227997,-0.885945 -1.401248,-1.74248303 z"
     style="fill:#000000;fill-opacity:1;stroke:none;stroke-width:0.180069px;stroke-linecap:butt;stroke-linejoin:miter;stroke-opacity:1"
     id="path872-3-6-8-2-11-5-5-1-4-5-0-3-6-2-6-9-7-4" />
  <path
     inkscape:transform-center-y="-6.3646183"
     inkscape:transform-center-x="-11.446907"
     d="m 91.691568,0.45588047 c 0.173252,0.85653903 0.802763,1.21745803 1.401248,1.74248403 0.645938,0.682841 0.671875,1.700506 0.235442,2.496525 3.095578,0.08668 3.061649,2.925057 1.13469,4.058538 -0.993775,0.6057 -0.192727,-0.690519 -0.50615,-1.152322 -0.597804,-0.706038 -1.598995,0.990371 -0.871242,1.246707 0.994975,0.594703 -0.246483,1.094498 -0.160765,1.7964175 -0.144276,0.979145 -0.127922,2.000151 0.0529,2.958076 0.686152,0.414296 0.58732,1.102801 -0.06742,1.460366 -0.325244,0.844738 -0.01893,1.778984 -0.03111,2.657291 -0.19237,0.847739 1.24791,1.457756 0.161801,2.097205 -0.639545,0.932279 -0.0227,2.321022 -0.122389,3.412365 0.383838,0.420001 0.893509,0.939868 0.218848,1.436512 -0.481841,0.0012 -0.963759,0.0026 -1.445847,0.002 -0.482088,4.86e-4 -0.964006,-7.22e-4 -1.445848,-0.002 -0.674673,-0.496644 -0.164989,-1.016511 0.218848,-1.436511 -0.09969,-1.091344 0.517157,-2.480087 -0.122388,-3.412366 -1.086121,-0.639447 0.354175,-1.249466 0.161803,-2.097206 -0.01219,-0.878307 0.294126,-1.812553 -0.03113,-2.65729 -0.654752,-0.357563 -0.75358,-1.046068 -0.06742,-1.460367 0.180818,-0.957924 0.197174,-1.97893 0.0529,-2.958074 0.08571,-0.7019215 -1.155756,-1.2017135 -0.160771,-1.7964185 0.727753,-0.256336 -0.27345,-1.952745 -0.871254,-1.246707 -0.313423,0.461802 0.487626,1.758022 -0.50615,1.152322 -1.926954,-1.133479 -1.960879,-3.971861 1.134709,-4.058537 -0.436443,-0.796019 -0.410507,-1.813684 0.235443,-2.496525 0.598486,-0.525026 1.227997,-0.885945 1.401249,-1.74248303 z"
     style="fill:#000000;fill-opacity:1;stroke:none;stroke-width:0.180069px;stroke-linecap:butt;stroke-linejoin:miter;stroke-opacity:1"
     id="path872-3-6-8-2-11-5-5-1-4-5-0-3-6-2-6-9-7-7" />
  <path
     inkscape:transform-center-y="-6.3646183"
     inkscape:transform-center-x="11.446917"
     d="m 50.021597,16.258513 c -0.173248,0.856539 -0.802758,1.217458 -1.401238,1.742484 -0.64594,0.682841 -0.67188,1.700506 -0.23544,2.496525 -3.09558,0.08668 -3.06165,2.925057 -1.13469,4.058538 0.99377,0.6057 0.19272,-0.690519 0.50615,-1.152322 0.5978,-0.706038 1.59899,0.990371 0.87124,1.246707 -0.99498,0.594703 0.24648,1.094498 0.16076,1.796418 0.14428,0.979145 0.12793,2.000151 -0.0529,2.958076 -0.68615,0.414296 -0.58732,1.102801 0.0674,1.460366 0.32525,0.844738 0.0189,1.778984 0.0311,2.657291 0.19237,0.847739 -1.24791,1.457756 -0.1618,2.097205 0.63955,0.932279 0.0227,2.321022 0.12239,3.412365 -0.38384,0.420001 -0.89351,0.939868 -0.21885,1.436512 0.48184,0.0012 0.96376,0.0026 1.445842,0.002 0.482089,4.86e-4 0.964007,-7.22e-4 1.445848,-0.002 0.674662,-0.496644 0.16499,-1.016511 -0.218848,-1.436511 0.09969,-1.091344 -0.517156,-2.480087 0.122389,-3.412366 1.086108,-0.639447 -0.354176,-1.249466 -0.161803,-2.097206 0.0122,-0.878307 -0.294126,-1.812553 0.03113,-2.65729 0.65474,-0.357563 0.753568,-1.046068 0.06742,-1.460367 -0.180818,-0.957924 -0.197173,-1.97893 -0.0529,-2.958074 -0.08572,-0.701922 1.155735,-1.201714 0.160761,-1.796419 -0.727752,-0.256336 0.273439,-1.952745 0.871243,-1.246707 0.313423,0.461802 -0.487626,1.758022 0.50615,1.152322 1.926954,-1.133479 1.960879,-3.971861 -1.134698,-4.058537 0.436432,-0.796019 0.410495,-1.813684 -0.235442,-2.496525 -0.598486,-0.525026 -1.227998,-0.885945 -1.401249,-1.742483 z"
     style="fill:#000000;fill-opacity:1;stroke:none;stroke-width:0.180069px;stroke-linecap:butt;stroke-linejoin:miter;stroke-opacity:1"
     id="path872-3-6-8-2-11-5-5-1-4-5-0-3-6-2-6-9-7-2-5-4" />
  <path
     id="path872-3-6-8-2-11-5-5-1-4-5-0-3-6-2-6-9-7-2-6"
     style="fill:#000000;fill-opacity:1;stroke:none;stroke-width:0.180069px;stroke-linecap:butt;stroke-linejoin:miter;stroke-opacity:1"
     d="m 100.04324,16.258513 c -0.173272,0.856539 -0.802782,1.217458 -1.401267,1.742484 -0.645937,0.682841 -0.671874,1.700506 -0.235442,2.496525 -3.095577,0.08668 -3.061648,2.925057 -1.134689,4.058538 0.993775,0.6057 0.192727,-0.690519 0.50615,-1.152322 0.597804,-0.706038 1.598994,0.990371 0.871242,1.246707 -0.994975,0.594703 0.246483,1.094498 0.160765,1.796418 0.144276,0.979145 0.127922,2.000151 -0.0529,2.958076 -0.686152,0.414296 -0.58732,1.102801 0.06742,1.460366 0.325243,0.844738 0.01893,1.778984 0.03111,2.657291 0.192369,0.847739 -1.24791,1.457756 -0.161802,2.097205 0.639545,0.932279 0.0227,2.321022 0.122389,3.412365 -0.383837,0.420001 -0.893508,0.939868 -0.218847,1.436512 0.481839,0.0012 0.963758,0.0026 1.445871,0.002 0.48208,4.86e-4 0.964,-7.22e-4 1.44584,-0.002 0.67467,-0.496644 0.16499,-1.016511 -0.21884,-1.436511 0.0997,-1.091344 -0.51716,-2.480087 0.12239,-3.412366 1.0861,-0.639447 -0.35418,-1.249466 -0.16181,-2.097206 0.0122,-0.878307 -0.29412,-1.812553 0.0311,-2.65729 0.65474,-0.357563 0.75357,-1.046068 0.0674,-1.460367 -0.18082,-0.957924 -0.19717,-1.97893 -0.0529,-2.958074 -0.0857,-0.701922 1.15574,-1.201714 0.16076,-1.796419 -0.72775,-0.256336 0.27344,-1.952745 0.87125,-1.246707 0.31342,0.461802 -0.48763,1.758022 0.50615,1.152322 1.92695,-1.133479 1.96088,-3.971861 -1.1347,-4.058537 0.43643,-0.796019 0.41049,-1.813684 -0.23544,-2.496525 -0.59849,-0.525026 -1.228,-0.885945 -1.40125,-1.742483 z"
     inkscape:transform-center-x="11.44692"
     inkscape:transform-center-y="-6.3646183" />
  <path
     id="path872-3-6-8-2-11-5-5-1-4-5-0-3-6-2-6-9-7-4-6"
     style="fill:#000000;fill-opacity:1;stroke:none;stroke-width:0.180069px;stroke-linecap:butt;stroke-linejoin:miter;stroke-opacity:1"
     d="M 91.711586,0.45588058 C 91.538334,1.3124196 90.908824,1.6733386 90.310338,2.1983646 c -0.645949,0.682841 -0.671886,1.700506 -0.235442,2.496525 -3.095589,0.08668 -3.06166,2.925057 -1.134701,4.058538 0.993775,0.6057 0.192727,-0.690519 0.50615,-1.152322 0.597816,-0.706038 1.599007,0.990371 0.871254,1.246707 -0.994987,0.594703 0.246483,1.094498 0.160765,1.7964174 0.144276,0.979145 0.127922,2.000151 -0.0529,2.958076 -0.686164,0.414296 -0.587332,1.102801 0.06742,1.460366 0.325243,0.844738 0.01893,1.778984 0.03111,2.657291 0.19237,0.847739 -1.247922,1.457756 -0.161802,2.097205 0.639546,0.932279 0.0227,2.321022 0.122389,3.412365 -0.383838,0.420001 -0.89352,0.939868 -0.218847,1.436512 0.48184,0.0012 0.963759,0.0026 1.445846,0.002 0.482089,4.86e-4 0.964007,-7.22e-4 1.445848,-0.002 0.674662,-0.496644 0.16499,-1.016511 -0.218848,-1.436511 0.09969,-1.091344 -0.517156,-2.480087 0.122389,-3.412366 1.086108,-0.639447 -0.354176,-1.249466 -0.161803,-2.097206 0.01219,-0.878307 -0.294126,-1.812553 0.03113,-2.65729 0.65474,-0.357563 0.753567,-1.046068 0.06742,-1.460367 -0.180818,-0.957924 -0.197173,-1.97893 -0.0529,-2.958074 -0.08572,-0.7019214 1.155735,-1.2017134 0.160761,-1.7964184 -0.727753,-0.256336 0.273439,-1.952745 0.871243,-1.246707 0.313422,0.461802 -0.487626,1.758022 0.50615,1.152322 1.926954,-1.133479 1.960879,-3.971861 -1.134698,-4.058537 0.436432,-0.796019 0.410495,-1.813684 -0.235443,-2.496525 -0.598485,-0.525026 -1.227997,-0.885945 -1.401248,-1.74248302 z"
     inkscape:transform-center-x="-11.446907"
     inkscape:transform-center-y="-6.3646183" />
  <path
     id="path872-3-6-8-2-11-5-5-1-4-5-0-3-6-2-6-9-7-2-1"
     style="fill:#000000;fill-opacity:1;stroke:none;stroke-width:0.180069px;stroke-linecap:butt;stroke-linejoin:miter;stroke-opacity:1"
     d="m 16.681587,16.258513 c -0.17325,0.856539 -0.80276,1.217458 -1.40124,1.742484 -0.64594,0.682841 -0.67188,1.700506 -0.23545,2.496525 -3.09557,0.08668 -3.06164,2.925057 -1.13468,4.058538 0.99377,0.6057 0.19272,-0.690519 0.50615,-1.152322 0.5978,-0.706038 1.59899,0.990371 0.87124,1.246707 -0.99498,0.594703 0.24648,1.094498 0.16076,1.796418 0.14428,0.979145 0.12792,2.000151 -0.0529,2.958076 -0.68615,0.414296 -0.58732,1.102801 0.0674,1.460366 0.32525,0.844738 0.0189,1.778984 0.0311,2.657291 0.19237,0.847739 -1.24791,1.457756 -0.1618,2.097205 0.63955,0.932279 0.0227,2.321022 0.12239,3.412365 -0.38384,0.420001 -0.89351,0.939868 -0.21885,1.436512 0.48184,0.0012 0.96376,0.0026 1.44585,0.002 0.48209,4.86e-4 0.96401,-7.22e-4 1.44585,-0.002 0.67466,-0.496644 0.16499,-1.016511 -0.21885,-1.436511 0.0997,-1.091344 -0.51716,-2.480087 0.12239,-3.412366 1.08611,-0.639447 -0.35418,-1.249466 -0.1618,-2.097206 0.0122,-0.878307 -0.29413,-1.812553 0.0311,-2.65729 0.65474,-0.357563 0.75356,-1.046068 0.0674,-1.460367 -0.18082,-0.957924 -0.19718,-1.97893 -0.0529,-2.958074 -0.0857,-0.701922 1.15573,-1.201714 0.16076,-1.796419 -0.72776,-0.256336 0.27344,-1.952745 0.87124,-1.246707 0.31342,0.461802 -0.48763,1.758022 0.50615,1.152322 1.92695,-1.133479 1.96088,-3.971861 -1.1347,-4.058537 0.43643,-0.796019 0.4105,-1.813684 -0.23544,-2.496525 -0.59849,-0.525026 -1.228,-0.885945 -1.40125,-1.742483 z"
     inkscape:transform-center-x="11.446907"
     inkscape:transform-center-y="-6.3646183" />
  <path
     inkscape:transform-center-y="-6.3646183"
     inkscape:transform-center-x="11.446927"
     d="m 33.339961,16.258513 c -0.173252,0.856539 -0.802762,1.217458 -1.401248,1.742484 -0.645937,0.682841 -0.671874,1.700506 -0.235442,2.496525 -3.095574,0.08668 -3.061644,2.925057 -1.134689,4.058538 0.993775,0.6057 0.192727,-0.690519 0.50615,-1.152322 0.597804,-0.706038 1.598995,0.990371 0.871242,1.246707 -0.994975,0.594703 0.246483,1.094498 0.160765,1.796418 0.144276,0.979145 0.127922,2.000151 -0.0529,2.958076 -0.686152,0.414296 -0.58732,1.102801 0.06742,1.460366 0.325244,0.844738 0.01893,1.778984 0.03111,2.657291 0.19237,0.847739 -1.24791,1.457756 -0.161802,2.097205 0.639546,0.932279 0.0227,2.321022 0.122389,3.412365 -0.383837,0.420001 -0.893508,0.939868 -0.218847,1.436512 0.48184,0.0012 0.963759,0.0026 1.445846,0.002 0.482101,4.86e-4 0.964011,-7.22e-4 1.445851,-0.002 0.67467,-0.496644 0.16499,-1.016511 -0.21884,-1.436511 0.0997,-1.091344 -0.51716,-2.480087 0.12239,-3.412366 1.0861,-0.639447 -0.35418,-1.249466 -0.16181,-2.097206 0.0122,-0.878307 -0.29412,-1.812553 0.0311,-2.65729 0.65474,-0.357563 0.75357,-1.046068 0.0674,-1.460367 -0.18082,-0.957924 -0.19717,-1.97893 -0.0529,-2.958074 -0.0857,-0.701922 1.15574,-1.201714 0.16076,-1.796419 -0.72775,-0.256336 0.27344,-1.952745 0.87125,-1.246707 0.31342,0.461802 -0.48763,1.758022 0.50615,1.152322 1.92695,-1.133479 1.96088,-3.971861 -1.1347,-4.058537 0.43643,-0.796019 0.41049,-1.813684 -0.23544,-2.496525 -0.59849,-0.525026 -1.228009,-0.885945 -1.40126,-1.742483 z"
     style="fill:#000000;fill-opacity:1;stroke:none;stroke-width:0.180069px;stroke-linecap:butt;stroke-linejoin:miter;stroke-opacity:1"
     id="path872-3-6-8-2-11-5-5-1-4-5-0-3-6-2-6-9-7-2-5-7" />
  <path
     inkscape:transform-center-y="-6.3646183"
     inkscape:transform-center-x="-11.446912"
     d="m 25.009957,0.45588047 c -0.17325,0.85653903 -0.80276,1.21745803 -1.40125,1.74248403 -0.64594,0.682841 -0.67187,1.700506 -0.23544,2.496525 -3.09558,0.08668 -3.06165,2.925057 -1.13469,4.058538 0.99377,0.6057 0.19273,-0.690519 0.50615,-1.152322 0.5978,-0.706038 1.599,0.990371 0.87124,1.246707 -0.99497,0.594703 0.24648,1.094498 0.16077,1.7964175 0.14427,0.979145 0.12792,2.000151 -0.0529,2.958076 -0.68616,0.414296 -0.58732,1.102801 0.0674,1.460366 0.32524,0.844738 0.0189,1.778984 0.0311,2.657291 0.19237,0.847739 -1.24791,1.457756 -0.1618,2.097205 0.63954,0.932279 0.0227,2.321022 0.12238,3.412365 -0.38383,0.420001 -0.8935,0.939868 -0.21884,1.436512 0.48184,0.0012 0.96376,0.0026 1.44584,0.002 0.48209,4.86e-4 0.96401,-7.22e-4 1.44585,-0.002 0.67466,-0.496644 0.16499,-1.016511 -0.21885,-1.436511 0.0997,-1.091344 -0.51715,-2.480087 0.12239,-3.412366 1.08611,-0.639447 -0.35417,-1.249466 -0.1618,-2.097206 0.0122,-0.878307 -0.29413,-1.812553 0.0311,-2.65729 0.65474,-0.357563 0.75357,-1.046068 0.0674,-1.460367 -0.18082,-0.957924 -0.19717,-1.97893 -0.0529,-2.958074 -0.0857,-0.7019215 1.15573,-1.2017135 0.16076,-1.7964185 -0.72775,-0.256336 0.27344,-1.952745 0.87124,-1.246707 0.31342,0.461802 -0.48762,1.758022 0.50615,1.152322 1.92696,-1.133479 1.96088,-3.971861 -1.13469,-4.058537 0.43643,-0.796019 0.41049,-1.813684 -0.23545,-2.496525 -0.59848,-0.525026 -1.228,-0.885945 -1.40125,-1.74248303 z"
     style="fill:#000000;fill-opacity:1;stroke:none;stroke-width:0.180069px;stroke-linecap:butt;stroke-linejoin:miter;stroke-opacity:1"
     id="path872-3-6-8-2-11-5-5-1-4-5-0-3-6-2-6-9-7-27" />
  <path
     id="path872-3-6-8-2-11-5-5-1-4-5-0-3-6-2-6-9-7-4-2"
     style="fill:#000000;fill-opacity:1;stroke:none;stroke-width:0.180069px;stroke-linecap:butt;stroke-linejoin:miter;stroke-opacity:1"
     d="m 8.3499674,0.45588058 c -0.17325,0.85653902 -0.80276,1.21745802 -1.40125,1.74248402 -0.64594,0.682841 -0.67187,1.700506 -0.23544,2.496525 -3.09558,0.08668 -3.06165,2.925057 -1.13469,4.058538 0.99377,0.6057 0.19273,-0.690519 0.50615,-1.152322 0.5978,-0.706038 1.59899,0.990371 0.87124,1.246707 -0.99497,0.594703 0.24648,1.094498 0.16077,1.7964174 0.14427,0.979145 0.12792,2.000151 -0.0529,2.958076 -0.68616,0.414296 -0.58732,1.102801 0.0674,1.460366 0.32524,0.844738 0.0189,1.778984 0.0311,2.657291 0.19237,0.847739 -1.24791,1.457756 -0.16181,2.097205 0.63955,0.932279 0.0227,2.321022 0.12239,3.412365 -0.38383,0.420001 -0.8935,0.939868 -0.21884,1.436512 0.48184,0.0012 0.96376,0.0026 1.44584,0.002 0.48209,4.86e-4 0.96401,-7.22e-4 1.44585,-0.002 0.6746496,-0.496644 0.16499,-1.016511 -0.21885,-1.436511 0.0997,-1.091344 -0.51715,-2.480087 0.12239,-3.412366 1.0860996,-0.639447 -0.35417,-1.249466 -0.1618,-2.097206 0.0122,-0.878307 -0.29413,-1.812553 0.0311,-2.65729 0.6547296,-0.357563 0.7535596,-1.046068 0.0674,-1.460367 -0.18082,-0.957924 -0.19717,-1.97893 -0.0529,-2.958074 -0.0857,-0.7019214 1.1557296,-1.2017134 0.16076,-1.7964184 -0.72775,-0.256336 0.2734296,-1.952745 0.8712296,-1.246707 0.31343,0.461802 -0.48762,1.758022 0.50615,1.152322 1.92696,-1.133479 1.96088,-3.971861 -1.1346896,-4.058537 0.4364296,-0.796019 0.4104896,-1.813684 -0.23544,-2.496525 -0.59848,-0.525026 -1.228,-0.885945 -1.40125,-1.74248302 z"
     inkscape:transform-center-x="-11.446907"
     inkscape:transform-center-y="-6.3646183" />
  <path
     id="path872-3-6-8-2-11-5-5-1-4-5-0-3-6-2-6-9-7-7-2"
     style="fill:#000000;fill-opacity:1;stroke:none;stroke-width:0.180069px;stroke-linecap:butt;stroke-linejoin:miter;stroke-opacity:1"
     d="m 41.669935,0.45588058 c 0.173252,0.85653902 0.802763,1.21745802 1.401248,1.74248402 0.645938,0.682841 0.671875,1.700506 0.235442,2.496525 3.095577,0.08668 3.061648,2.925057 1.134689,4.058538 -0.993774,0.6057 -0.192727,-0.690519 -0.506149,-1.152322 -0.597804,-0.706038 -1.598995,0.990371 -0.871242,1.246707 0.994975,0.594703 -0.246483,1.094498 -0.160765,1.7964174 -0.144276,0.979145 -0.127922,2.000151 0.0529,2.958076 0.686152,0.414296 0.58732,1.102801 -0.06742,1.460366 -0.325244,0.844738 -0.01893,1.778984 -0.03111,2.657291 -0.19237,0.847739 1.24791,1.457756 0.161801,2.097205 -0.639545,0.932279 -0.0227,2.321022 -0.122389,3.412365 0.383838,0.420001 0.893509,0.939868 0.218848,1.436512 -0.481841,0.0012 -0.963759,0.0026 -1.445847,0.002 -0.482088,4.86e-4 -0.964006,-7.22e-4 -1.445848,-0.002 -0.674673,-0.496644 -0.164989,-1.016511 0.218848,-1.436511 -0.09969,-1.091344 0.517157,-2.480087 -0.122388,-3.412366 -1.086121,-0.639447 0.354175,-1.249466 0.161803,-2.097206 -0.01219,-0.878307 0.294126,-1.812553 -0.03113,-2.65729 -0.654752,-0.357563 -0.75358,-1.046068 -0.06742,-1.460367 0.180818,-0.957924 0.197174,-1.97893 0.0529,-2.958074 0.08571,-0.7019214 -1.155756,-1.2017134 -0.160771,-1.7964184 0.727753,-0.256336 -0.27345,-1.952745 -0.871254,-1.246707 -0.313423,0.461802 0.487626,1.758022 -0.50615,1.152322 -1.926954,-1.133479 -1.960879,-3.971861 1.134709,-4.058537 -0.436443,-0.796019 -0.410507,-1.813684 0.235443,-2.496525 0.598486,-0.525026 1.227997,-0.885945 1.401249,-1.74248302 z"
     inkscape:transform-center-x="-11.446907"
     inkscape:transform-center-y="-6.3646183" />
  <path
     id="path872-3-6-8-2-11-5-5-1-4-5-0-3-6-2-6-9-7-2-5-4-6"
     style="fill:#000000;fill-opacity:1;stroke:none;stroke-width:0.180069px;stroke-linecap:butt;stroke-linejoin:miter;stroke-opacity:1"
     d="M -7.6146356e-6,16.258513 C -0.17325761,17.115052 -0.80276761,17.475971 -1.4012476,18.000997 c -0.64594,0.682841 -0.67188,1.700506 -0.23544,2.496525 -3.09558,0.08668 -3.06165,2.925057 -1.13469,4.058538 0.99377,0.6057 0.19272,-0.690519 0.50615,-1.152322 0.5978,-0.706038 1.59898999,0.990371 0.87124,1.246707 -0.99498,0.594703 0.24648,1.094498 0.16076,1.796418 0.14428,0.979145 0.12793,2.000151 -0.0529,2.958076 -0.68615,0.414296 -0.58732,1.102801 0.0674,1.460366 0.32524999,0.844738 0.0189,1.778984 0.0311,2.657291 0.19236999,0.847739 -1.24791,1.457756 -0.1618,2.097205 0.63954999,0.932279 0.0227,2.321022 0.12239,3.412365 -0.38384,0.420001 -0.89351,0.939868 -0.21885,1.436512 0.48183999,0.0012 0.96375999,0.0026 1.445839985364,0.002 C 0.48202239,40.471164 0.96394239,40.469956 1.4457824,40.468678 c 0.67466,-0.496644 0.16499,-1.016511 -0.21885,-1.436511 0.0997,-1.091344 -0.51716001,-2.480087 0.12239,-3.412366 1.08611,-0.639447 -0.35418001,-1.249466 -0.1618,-2.097206 0.0122,-0.878307 -0.29413001,-1.812553 0.0311,-2.65729 0.65474,-0.357563 0.75356,-1.046068 0.0674,-1.460367 -0.18082,-0.957924 -0.19718,-1.97893 -0.0529,-2.958074 -0.0857,-0.701922 1.15573,-1.201714 0.16076,-1.796419 -0.72775001,-0.256336 0.27344,-1.952745 0.87124,-1.246707 0.31342,0.461802 -0.48763,1.758022 0.50615,1.152322 1.926945,-1.133479 1.960875,-3.971861 -1.1347,-4.058537 0.43643,-0.796019 0.4105,-1.813684 -0.23544,-2.496525 C 0.80264239,17.475972 0.17313239,17.115053 -9.7614636e-5,16.258515 Z"
     inkscape:transform-center-x="11.446906"
     inkscape:transform-center-y="-6.3646183" />
  <path
     inkscape:transform-center-y="-6.3646183"
     inkscape:transform-center-x="-11.446907"
     d="M 41.689953,0.45588069 C 41.516701,1.3124197 40.887191,1.6733387 40.288705,2.1983647 c -0.645949,0.682841 -0.671886,1.700506 -0.235442,2.496525 -3.095589,0.08668 -3.06166,2.925057 -1.134701,4.058538 0.993775,0.6057 0.192727,-0.690519 0.50615,-1.152322 0.597816,-0.706038 1.599007,0.990371 0.871254,1.246707 -0.994987,0.594703 0.246483,1.094498 0.160765,1.7964173 0.144276,0.979145 0.127922,2.000151 -0.0529,2.958076 -0.686164,0.414296 -0.587332,1.102801 0.06742,1.460366 0.325243,0.844738 0.01893,1.778984 0.03111,2.657291 0.19237,0.847739 -1.247922,1.457756 -0.161802,2.097205 0.639546,0.932279 0.0227,2.321022 0.122389,3.412365 -0.383838,0.420001 -0.89352,0.939868 -0.218847,1.436512 0.48184,0.0012 0.963759,0.0026 1.445846,0.002 0.482089,4.86e-4 0.964007,-7.22e-4 1.445848,-0.002 0.674662,-0.496644 0.16499,-1.016511 -0.218848,-1.436511 0.09969,-1.091344 -0.517156,-2.480087 0.122389,-3.412366 1.086108,-0.639447 -0.354176,-1.249466 -0.161803,-2.097206 0.01219,-0.878307 -0.294126,-1.812553 0.03113,-2.65729 0.65474,-0.357563 0.753567,-1.046068 0.06742,-1.460367 -0.180818,-0.957924 -0.197173,-1.97893 -0.0529,-2.958074 -0.08572,-0.7019213 1.155735,-1.2017133 0.160761,-1.7964183 -0.727753,-0.256336 0.273439,-1.952745 0.871243,-1.246707 0.313421,0.461802 -0.487626,1.758022 0.506149,1.152322 1.926954,-1.133479 1.960879,-3.971861 -1.134697,-4.058537 0.436432,-0.796019 0.410495,-1.813684 -0.235443,-2.496525 -0.598485,-0.525026 -1.227997,-0.885945 -1.401248,-1.74248301 z"
     style="fill:#000000;fill-opacity:1;stroke:none;stroke-width:0.180069px;stroke-linecap:butt;stroke-linejoin:miter;stroke-opacity:1"
     id="path872-3-6-8-2-11-5-5-1-4-5-0-3-6-2-6-9-7-4-6-0" />
  <path
     id="path872-3-6-8-2-11-5-5-1-4-5-0-3-6-2-6-9-7-2-61"
     style="fill:#000000;fill-opacity:1;stroke:none;stroke-width:0.180069px;stroke-linecap:butt;stroke-linejoin:miter;stroke-opacity:1"
     d="m 66.703225,47.559334 c -0.173252,0.856539 -0.802762,1.217458 -1.401248,1.742484 -0.645937,0.682841 -0.671874,1.700506 -0.235442,2.496525 -3.095577,0.08668 -3.061648,2.925057 -1.134689,4.058538 0.993775,0.6057 0.192727,-0.690519 0.50615,-1.152322 0.597804,-0.706038 1.598995,0.990371 0.871242,1.246707 -0.994975,0.594703 0.246483,1.094498 0.160765,1.796418 0.144276,0.979145 0.127922,2.000151 -0.0529,2.958076 -0.686152,0.414296 -0.58732,1.102801 0.06742,1.460366 0.325244,0.844738 0.01893,1.778984 0.03111,2.657291 0.19237,0.847739 -1.24791,1.457756 -0.161802,2.097205 0.639546,0.932279 0.0227,2.321022 0.122389,3.412365 -0.383837,0.420001 -0.893508,0.939868 -0.218847,1.436512 0.48184,0.0012 0.963759,0.0026 1.445846,0.002 0.482089,4.86e-4 0.964007,-7.22e-4 1.445848,-0.002 0.674662,-0.496644 0.16499,-1.016511 -0.218848,-1.436511 0.09969,-1.091344 -0.517156,-2.480087 0.122389,-3.412366 1.086108,-0.639447 -0.354176,-1.249466 -0.161803,-2.097206 0.0122,-0.878307 -0.294126,-1.812553 0.03113,-2.65729 0.65474,-0.357563 0.753568,-1.046068 0.06742,-1.460367 -0.180818,-0.957924 -0.197173,-1.97893 -0.0529,-2.958074 -0.08572,-0.701922 1.155735,-1.201714 0.160761,-1.796419 -0.727752,-0.256336 0.273439,-1.952745 0.871243,-1.246707 0.313423,0.461802 -0.487626,1.758022 0.50615,1.152322 1.926954,-1.133479 1.960879,-3.971861 -1.134698,-4.058537 0.436432,-0.796019 0.410495,-1.813684 -0.235442,-2.496525 -0.598486,-0.525026 -1.227998,-0.885945 -1.401249,-1.742483 z"
     inkscape:transform-center-x="11.446907"
     inkscape:transform-center-y="-6.3646183" />
  <path
     inkscape:transform-center-y="-6.3646183"
     inkscape:transform-center-x="11.446927"
     d="m 83.361594,47.559334 c -0.173252,0.856539 -0.802762,1.217458 -1.401248,1.742484 -0.645937,0.682841 -0.671874,1.700506 -0.235442,2.496525 -3.095577,0.08668 -3.061648,2.925057 -1.134689,4.058538 0.993775,0.6057 0.192727,-0.690519 0.50615,-1.152322 0.597804,-0.706038 1.598995,0.990371 0.871242,1.246707 -0.994975,0.594703 0.246483,1.094498 0.160765,1.796418 0.144276,0.979145 0.127922,2.000151 -0.0529,2.958076 -0.686152,0.414296 -0.58732,1.102801 0.06742,1.460366 0.325244,0.844738 0.01893,1.778984 0.03111,2.657291 0.19237,0.847739 -1.24791,1.457756 -0.161802,2.097205 0.639546,0.932279 0.0227,2.321022 0.122389,3.412365 -0.383837,0.420001 -0.893508,0.939868 -0.218847,1.436512 0.48184,0.0012 0.963759,0.0026 1.445846,0.002 0.482101,4.86e-4 0.964011,-7.22e-4 1.445851,-0.002 0.67467,-0.496644 0.16499,-1.016511 -0.21884,-1.436511 0.0997,-1.091344 -0.51716,-2.480087 0.12239,-3.412366 1.0861,-0.639447 -0.35418,-1.249466 -0.16181,-2.097206 0.0122,-0.878307 -0.29412,-1.812553 0.0311,-2.65729 0.65474,-0.357563 0.75357,-1.046068 0.0674,-1.460367 -0.18082,-0.957924 -0.19717,-1.97893 -0.0529,-2.958074 -0.0857,-0.701922 1.15574,-1.201714 0.16076,-1.796419 -0.72775,-0.256336 0.27344,-1.952745 0.87125,-1.246707 0.31342,0.461802 -0.48763,1.758022 0.50615,1.152322 1.92695,-1.133479 1.96088,-3.971861 -1.1347,-4.058537 0.43643,-0.796019 0.41049,-1.813684 -0.23544,-2.496525 -0.59849,-0.525026 -1.228009,-0.885945 -1.40126,-1.742483 z"
     style="fill:#000000;fill-opacity:1;stroke:none;stroke-width:0.180069px;stroke-linecap:butt;stroke-linejoin:miter;stroke-opacity:1"
     id="path872-3-6-8-2-11-5-5-1-4-5-0-3-6-2-6-9-7-2-5-5" />
  <path
     inkscape:transform-center-y="-6.3646183"
     inkscape:transform-center-x="-11.446912"
     d="m 75.03159,31.756702 c -0.173252,0.856539 -0.802763,1.217458 -1.401248,1.742484 -0.645938,0.682841 -0.671875,1.700506 -0.235442,2.496525 -3.095578,0.08668 -3.061649,2.925057 -1.13469,4.058538 0.993775,0.6057 0.192727,-0.690519 0.50615,-1.152322 0.597804,-0.706038 1.598995,0.990371 0.871242,1.246707 -0.994975,0.594703 0.246483,1.094498 0.160765,1.796417 0.144276,0.979145 0.127922,2.000151 -0.0529,2.958076 -0.686152,0.414296 -0.58732,1.102801 0.06742,1.460366 0.325244,0.844738 0.01893,1.778984 0.03111,2.657291 0.19237,0.847739 -1.24791,1.457756 -0.161801,2.097205 0.639545,0.932279 0.0227,2.321022 0.122389,3.412365 -0.383838,0.420001 -0.893509,0.939868 -0.218848,1.436512 0.481841,0.0012 0.963759,0.0026 1.445847,0.002 0.482088,4.86e-4 0.964006,-7.22e-4 1.445848,-0.002 0.674661,-0.496644 0.164989,-1.016511 -0.218848,-1.436511 0.09969,-1.091344 -0.517157,-2.480087 0.122388,-3.412366 1.086109,-0.639447 -0.354175,-1.249466 -0.161803,-2.097206 0.0122,-0.878307 -0.294126,-1.812553 0.03113,-2.65729 0.65474,-0.357563 0.753568,-1.046068 0.06742,-1.460367 -0.180818,-0.957924 -0.197174,-1.97893 -0.0529,-2.958074 -0.08572,-0.701921 1.155734,-1.201713 0.160761,-1.796418 -0.727753,-0.256336 0.273438,-1.952745 0.871242,-1.246707 0.313423,0.461802 -0.487626,1.758022 0.50615,1.152322 1.926954,-1.133479 1.96088,-3.971861 -1.134697,-4.058537 0.436431,-0.796019 0.410495,-1.813684 -0.235443,-2.496525 -0.598486,-0.525026 -1.227997,-0.885945 -1.401249,-1.742483 z"
     style="fill:#000000;fill-opacity:1;stroke:none;stroke-width:0.180069px;stroke-linecap:butt;stroke-linejoin:miter;stroke-opacity:1"
     id="path872-3-6-8-2-11-5-5-1-4-5-0-3-6-2-6-9-7-9" />
  <path
     id="path872-3-6-8-2-11-5-5-1-4-5-0-3-6-2-6-9-7-4-4"
     style="fill:#000000;fill-opacity:1;stroke:none;stroke-width:0.180069px;stroke-linecap:butt;stroke-linejoin:miter;stroke-opacity:1"
     d="m 58.371598,31.756702 c -0.173252,0.856539 -0.802762,1.217458 -1.401248,1.742484 -0.645937,0.682841 -0.671874,1.700506 -0.235442,2.496525 -3.095577,0.08668 -3.061648,2.925057 -1.134689,4.058538 0.993775,0.6057 0.192727,-0.690519 0.50615,-1.152322 0.597804,-0.706038 1.598995,0.990371 0.871242,1.246707 -0.994975,0.594703 0.246483,1.094498 0.160765,1.796417 0.144276,0.979145 0.127922,2.000151 -0.0529,2.958076 -0.686152,0.414296 -0.58732,1.102801 0.06742,1.460366 0.325243,0.844738 0.01893,1.778984 0.03111,2.657291 0.19237,0.847739 -1.24791,1.457756 -0.161802,2.097205 0.639546,0.932279 0.0227,2.321022 0.122389,3.412365 -0.383838,0.420001 -0.893508,0.939868 -0.218847,1.436512 0.48184,0.0012 0.963759,0.0026 1.445846,0.002 0.482089,4.86e-4 0.964007,-7.22e-4 1.445848,-0.002 0.674654,-0.496644 0.16499,-1.016511 -0.218848,-1.436511 0.09969,-1.091344 -0.517156,-2.480087 0.122389,-3.412366 1.0861,-0.639447 -0.354176,-1.249466 -0.161803,-2.097206 0.01219,-0.878307 -0.294126,-1.812553 0.03113,-2.65729 0.654732,-0.357563 0.753559,-1.046068 0.06742,-1.460367 -0.180818,-0.957924 -0.197173,-1.97893 -0.0529,-2.958074 -0.08572,-0.701921 1.155727,-1.201713 0.160761,-1.796418 -0.727753,-0.256336 0.273431,-1.952745 0.871235,-1.246707 0.313422,0.461802 -0.487626,1.758022 0.50615,1.152322 1.926954,-1.133479 1.960879,-3.971861 -1.13469,-4.058537 0.436424,-0.796019 0.410487,-1.813684 -0.235443,-2.496525 -0.598485,-0.525026 -1.227997,-0.885945 -1.401248,-1.742483 z"
     inkscape:transform-center-x="-11.446907"
     inkscape:transform-center-y="-6.3646183" />
  <path
     id="path872-3-6-8-2-11-5-5-1-4-5-0-3-6-2-6-9-7-7-9"
     style="fill:#000000;fill-opacity:1;stroke:none;stroke-width:0.180069px;stroke-linecap:butt;stroke-linejoin:miter;stroke-opacity:1"
     d="m 91.691568,31.756702 c 0.173252,0.856539 0.802763,1.217458 1.401248,1.742484 0.645938,0.682841 0.671875,1.700506 0.235442,2.496525 3.095578,0.08668 3.061649,2.925057 1.13469,4.058538 -0.993775,0.6057 -0.192727,-0.690519 -0.50615,-1.152322 -0.597804,-0.706038 -1.598995,0.990371 -0.871242,1.246707 0.994975,0.594703 -0.246483,1.094498 -0.160765,1.796417 -0.144276,0.979145 -0.127922,2.000151 0.0529,2.958076 0.686152,0.414296 0.58732,1.102801 -0.06742,1.460366 -0.325244,0.844738 -0.01893,1.778984 -0.03111,2.657291 -0.19237,0.847739 1.24791,1.457756 0.161801,2.097205 -0.639545,0.932279 -0.0227,2.321022 -0.122389,3.412365 0.383838,0.420001 0.893509,0.939868 0.218848,1.436512 -0.481841,0.0012 -0.963759,0.0026 -1.445847,0.002 -0.482088,4.86e-4 -0.964006,-7.22e-4 -1.445848,-0.002 -0.674673,-0.496644 -0.164989,-1.016511 0.218848,-1.436511 -0.09969,-1.091344 0.517157,-2.480087 -0.122388,-3.412366 -1.086121,-0.639447 0.354175,-1.249466 0.161803,-2.097206 -0.01219,-0.878307 0.294126,-1.812553 -0.03113,-2.65729 -0.654752,-0.357563 -0.75358,-1.046068 -0.06742,-1.460367 0.180818,-0.957924 0.197174,-1.97893 0.0529,-2.958074 0.08571,-0.701921 -1.155756,-1.201713 -0.160771,-1.796418 0.727753,-0.256336 -0.27345,-1.952745 -0.871254,-1.246707 -0.313423,0.461802 0.487626,1.758022 -0.50615,1.152322 -1.926954,-1.133479 -1.960879,-3.971861 1.134709,-4.058537 -0.436443,-0.796019 -0.410507,-1.813684 0.235443,-2.496525 0.598486,-0.525026 1.227997,-0.885945 1.401249,-1.742483 z"
     inkscape:transform-center-x="-11.446907"
     inkscape:transform-center-y="-6.3646183" />
  <path
     id="path872-3-6-8-2-11-5-5-1-4-5-0-3-6-2-6-9-7-2-5-4-0"
     style="fill:#000000;fill-opacity:1;stroke:none;stroke-width:0.180069px;stroke-linecap:butt;stroke-linejoin:miter;stroke-opacity:1"
     d="m 50.021597,47.559334 c -0.173248,0.856539 -0.802758,1.217458 -1.401238,1.742484 -0.64594,0.682841 -0.67188,1.700506 -0.23544,2.496525 -3.09558,0.08668 -3.06165,2.925057 -1.13469,4.058538 0.99377,0.6057 0.19272,-0.690519 0.50615,-1.152322 0.5978,-0.706038 1.59899,0.990371 0.87124,1.246707 -0.99498,0.594703 0.24648,1.094498 0.16076,1.796418 0.14428,0.979145 0.12793,2.000151 -0.0529,2.958076 -0.68615,0.414296 -0.58732,1.102801 0.0674,1.460366 0.32525,0.844738 0.0189,1.778984 0.0311,2.657291 0.19237,0.847739 -1.24791,1.457756 -0.1618,2.097205 0.63955,0.932279 0.0227,2.321022 0.12239,3.412365 -0.38384,0.420001 -0.89351,0.939868 -0.21885,1.436512 0.48184,0.0012 0.96376,0.0026 1.445842,0.002 0.482089,4.86e-4 0.964007,-7.22e-4 1.445848,-0.002 0.674662,-0.496644 0.16499,-1.016511 -0.218848,-1.436511 0.09969,-1.091344 -0.517156,-2.480087 0.122389,-3.412366 1.086108,-0.639447 -0.354176,-1.249466 -0.161803,-2.097206 0.0122,-0.878307 -0.294126,-1.812553 0.03113,-2.65729 0.65474,-0.357563 0.753568,-1.046068 0.06742,-1.460367 -0.180818,-0.957924 -0.197173,-1.97893 -0.0529,-2.958074 -0.08572,-0.701922 1.155735,-1.201714 0.160761,-1.796419 -0.727752,-0.256336 0.273439,-1.952745 0.871243,-1.246707 0.313423,0.461802 -0.487626,1.758022 0.50615,1.152322 1.926954,-1.133479 1.960879,-3.971861 -1.134698,-4.058537 0.436432,-0.796019 0.410495,-1.813684 -0.235442,-2.496525 -0.598486,-0.525026 -1.227998,-0.885945 -1.401249,-1.742483 z"
     inkscape:transform-center-x="11.446917"
     inkscape:transform-center-y="-6.3646183" />
  <path
     inkscape:transform-center-y="-6.3646183"
     inkscape:transform-center-x="11.44692"
     d="m 100.04324,47.559334 c -0.173272,0.856539 -0.802782,1.217458 -1.401267,1.742484 -0.645937,0.682841 -0.671874,1.700506 -0.235442,2.496525 -3.095577,0.08668 -3.061648,2.925057 -1.134689,4.058538 0.993775,0.6057 0.192727,-0.690519 0.50615,-1.152322 0.597804,-0.706038 1.598994,0.990371 0.871242,1.246707 -0.994975,0.594703 0.246483,1.094498 0.160765,1.796418 0.144276,0.979145 0.127922,2.000151 -0.0529,2.958076 -0.686152,0.414296 -0.58732,1.102801 0.06742,1.460366 0.325243,0.844738 0.01893,1.778984 0.03111,2.657291 0.192369,0.847739 -1.24791,1.457756 -0.161802,2.097205 0.639545,0.932279 0.0227,2.321022 0.122389,3.412365 -0.383837,0.420001 -0.893508,0.939868 -0.218847,1.436512 0.481839,0.0012 0.963758,0.0026 1.445871,0.002 0.48208,4.86e-4 0.964,-7.22e-4 1.44584,-0.002 0.67467,-0.496644 0.16499,-1.016511 -0.21884,-1.436511 0.0997,-1.091344 -0.51716,-2.480087 0.12239,-3.412366 1.0861,-0.639447 -0.35418,-1.249466 -0.16181,-2.097206 0.0122,-0.878307 -0.29412,-1.812553 0.0311,-2.65729 0.65474,-0.357563 0.75357,-1.046068 0.0674,-1.460367 -0.18082,-0.957924 -0.19717,-1.97893 -0.0529,-2.958074 -0.0857,-0.701922 1.15574,-1.201714 0.16076,-1.796419 -0.72775,-0.256336 0.27344,-1.952745 0.87125,-1.246707 0.31342,0.461802 -0.48763,1.758022 0.50615,1.152322 1.92695,-1.133479 1.96088,-3.971861 -1.1347,-4.058537 0.43643,-0.796019 0.41049,-1.813684 -0.23544,-2.496525 -0.59849,-0.525026 -1.228,-0.885945 -1.40125,-1.742483 z"
     style="fill:#000000;fill-opacity:1;stroke:none;stroke-width:0.180069px;stroke-linecap:butt;stroke-linejoin:miter;stroke-opacity:1"
     id="path872-3-6-8-2-11-5-5-1-4-5-0-3-6-2-6-9-7-2-6-9" />
  <path
     inkscape:transform-center-y="-6.3646183"
     inkscape:transform-center-x="-11.446907"
     d="m 91.711586,31.756702 c -0.173252,0.856539 -0.802762,1.217458 -1.401248,1.742484 -0.645949,0.682841 -0.671886,1.700506 -0.235442,2.496525 -3.095589,0.08668 -3.06166,2.925057 -1.134701,4.058538 0.993775,0.6057 0.192727,-0.690519 0.50615,-1.152322 0.597816,-0.706038 1.599007,0.990371 0.871254,1.246707 -0.994987,0.594703 0.246483,1.094498 0.160765,1.796417 0.144276,0.979145 0.127922,2.000151 -0.0529,2.958076 -0.686164,0.414296 -0.587332,1.102801 0.06742,1.460366 0.325243,0.844738 0.01893,1.778984 0.03111,2.657291 0.19237,0.847739 -1.247922,1.457756 -0.161802,2.097205 0.639546,0.932279 0.0227,2.321022 0.122389,3.412365 -0.383838,0.420001 -0.89352,0.939868 -0.218847,1.436512 0.48184,0.0012 0.963759,0.0026 1.445846,0.002 0.482089,4.86e-4 0.964007,-7.22e-4 1.445848,-0.002 0.674662,-0.496644 0.16499,-1.016511 -0.218848,-1.436511 0.09969,-1.091344 -0.517156,-2.480087 0.122389,-3.412366 1.086108,-0.639447 -0.354176,-1.249466 -0.161803,-2.097206 0.01219,-0.878307 -0.294126,-1.812553 0.03113,-2.65729 0.65474,-0.357563 0.753567,-1.046068 0.06742,-1.460367 -0.180818,-0.957924 -0.197173,-1.97893 -0.0529,-2.958074 -0.08572,-0.701921 1.155735,-1.201713 0.160761,-1.796418 -0.727753,-0.256336 0.273439,-1.952745 0.871243,-1.246707 0.313422,0.461802 -0.487626,1.758022 0.50615,1.152322 1.926954,-1.133479 1.960879,-3.971861 -1.134698,-4.058537 0.436432,-0.796019 0.410495,-1.813684 -0.235443,-2.496525 -0.598485,-0.525026 -1.227997,-0.885945 -1.401248,-1.742483 z"
     style="fill:#000000;fill-opacity:1;stroke:none;stroke-width:0.180069px;stroke-linecap:butt;stroke-linejoin:miter;stroke-opacity:1"
     id="path872-3-6-8-2-11-5-5-1-4-5-0-3-6-2-6-9-7-4-6-1" />
  <path
     inkscape:transform-center-y="-6.3646183"
     inkscape:transform-center-x="11.446907"
     d="m 16.681587,47.559334 c -0.17325,0.856539 -0.80276,1.217458 -1.40124,1.742484 -0.64594,0.682841 -0.67188,1.700506 -0.23545,2.496525 -3.09557,0.08668 -3.06164,2.925057 -1.13468,4.058538 0.99377,0.6057 0.19272,-0.690519 0.50615,-1.152322 0.5978,-0.706038 1.59899,0.990371 0.87124,1.246707 -0.99498,0.594703 0.24648,1.094498 0.16076,1.796418 0.14428,0.979145 0.12792,2.000151 -0.0529,2.958076 -0.68615,0.414296 -0.58732,1.102801 0.0674,1.460366 0.32525,0.844738 0.0189,1.778984 0.0311,2.657291 0.19237,0.847739 -1.24791,1.457756 -0.1618,2.097205 0.63955,0.932279 0.0227,2.321022 0.12239,3.412365 -0.38384,0.420001 -0.89351,0.939868 -0.21885,1.436512 0.48184,0.0012 0.96376,0.0026 1.44585,0.002 0.48209,4.86e-4 0.96401,-7.22e-4 1.44585,-0.002 0.67466,-0.496644 0.16499,-1.016511 -0.21885,-1.436511 0.0997,-1.091344 -0.51716,-2.480087 0.12239,-3.412366 1.08611,-0.639447 -0.35418,-1.249466 -0.1618,-2.097206 0.0122,-0.878307 -0.29413,-1.812553 0.0311,-2.65729 0.65474,-0.357563 0.75356,-1.046068 0.0674,-1.460367 -0.18082,-0.957924 -0.19718,-1.97893 -0.0529,-2.958074 -0.0857,-0.701922 1.15573,-1.201714 0.16076,-1.796419 -0.72776,-0.256336 0.27344,-1.952745 0.87124,-1.246707 0.31342,0.461802 -0.48763,1.758022 0.50615,1.152322 1.92695,-1.133479 1.96088,-3.971861 -1.1347,-4.058537 0.43643,-0.796019 0.4105,-1.813684 -0.23544,-2.496525 -0.59849,-0.525026 -1.228,-0.885945 -1.40125,-1.742483 z"
     style="fill:#000000;fill-opacity:1;stroke:none;stroke-width:0.180069px;stroke-linecap:butt;stroke-linejoin:miter;stroke-opacity:1"
     id="path872-3-6-8-2-11-5-5-1-4-5-0-3-6-2-6-9-7-2-1-7" />
  <path
     id="path872-3-6-8-2-11-5-5-1-4-5-0-3-6-2-6-9-7-2-5-7-7"
     style="fill:#000000;fill-opacity:1;stroke:none;stroke-width:0.180069px;stroke-linecap:butt;stroke-linejoin:miter;stroke-opacity:1"
     d="m 33.339961,47.559334 c -0.173252,0.856539 -0.802762,1.217458 -1.401248,1.742484 -0.645937,0.682841 -0.671874,1.700506 -0.235442,2.496525 -3.095574,0.08668 -3.061644,2.925057 -1.134689,4.058538 0.993775,0.6057 0.192727,-0.690519 0.50615,-1.152322 0.597804,-0.706038 1.598995,0.990371 0.871242,1.246707 -0.994975,0.594703 0.246483,1.094498 0.160765,1.796418 0.144276,0.979145 0.127922,2.000151 -0.0529,2.958076 -0.686152,0.414296 -0.58732,1.102801 0.06742,1.460366 0.325244,0.844738 0.01893,1.778984 0.03111,2.657291 0.19237,0.847739 -1.24791,1.457756 -0.161802,2.097205 0.639546,0.932279 0.0227,2.321022 0.122389,3.412365 -0.383837,0.420001 -0.893508,0.939868 -0.218847,1.436512 0.48184,0.0012 0.963759,0.0026 1.445846,0.002 0.482101,4.86e-4 0.964011,-7.22e-4 1.445851,-0.002 0.67467,-0.496644 0.16499,-1.016511 -0.21884,-1.436511 0.0997,-1.091344 -0.51716,-2.480087 0.12239,-3.412366 1.0861,-0.639447 -0.35418,-1.249466 -0.16181,-2.097206 0.0122,-0.878307 -0.29412,-1.812553 0.0311,-2.65729 0.65474,-0.357563 0.75357,-1.046068 0.0674,-1.460367 -0.18082,-0.957924 -0.19717,-1.97893 -0.0529,-2.958074 -0.0857,-0.701922 1.15574,-1.201714 0.16076,-1.796419 -0.72775,-0.256336 0.27344,-1.952745 0.87125,-1.246707 0.31342,0.461802 -0.48763,1.758022 0.50615,1.152322 1.92695,-1.133479 1.96088,-3.971861 -1.1347,-4.058537 0.43643,-0.796019 0.41049,-1.813684 -0.23544,-2.496525 -0.59849,-0.525026 -1.228009,-0.885945 -1.40126,-1.742483 z"
     inkscape:transform-center-x="11.446927"
     inkscape:transform-center-y="-6.3646183" />
  <path
     id="path872-3-6-8-2-11-5-5-1-4-5-0-3-6-2-6-9-7-27-1"
     style="fill:#000000;fill-opacity:1;stroke:none;stroke-width:0.180069px;stroke-linecap:butt;stroke-linejoin:miter;stroke-opacity:1"
     d="m 25.009957,31.756702 c -0.17325,0.856539 -0.80276,1.217458 -1.40125,1.742484 -0.64594,0.682841 -0.67187,1.700506 -0.23544,2.496525 -3.09558,0.08668 -3.06165,2.925057 -1.13469,4.058538 0.99377,0.6057 0.19273,-0.690519 0.50615,-1.152322 0.5978,-0.706038 1.599,0.990371 0.87124,1.246707 -0.99497,0.594703 0.24648,1.094498 0.16077,1.796417 0.14427,0.979145 0.12792,2.000151 -0.0529,2.958076 -0.68616,0.414296 -0.58732,1.102801 0.0674,1.460366 0.32524,0.844738 0.0189,1.778984 0.0311,2.657291 0.19237,0.847739 -1.24791,1.457756 -0.1618,2.097205 0.63954,0.932279 0.0227,2.321022 0.12238,3.412365 -0.38383,0.420001 -0.8935,0.939868 -0.21884,1.436512 0.48184,0.0012 0.96376,0.0026 1.44584,0.002 0.48209,4.86e-4 0.96401,-7.22e-4 1.44585,-0.002 0.67466,-0.496644 0.16499,-1.016511 -0.21885,-1.436511 0.0997,-1.091344 -0.51715,-2.480087 0.12239,-3.412366 1.08611,-0.639447 -0.35417,-1.249466 -0.1618,-2.097206 0.0122,-0.878307 -0.29413,-1.812553 0.0311,-2.65729 0.65474,-0.357563 0.75357,-1.046068 0.0674,-1.460367 -0.18082,-0.957924 -0.19717,-1.97893 -0.0529,-2.958074 -0.0857,-0.701921 1.15573,-1.201713 0.16076,-1.796418 -0.72775,-0.256336 0.27344,-1.952745 0.87124,-1.246707 0.31342,0.461802 -0.48762,1.758022 0.50615,1.152322 1.92696,-1.133479 1.96088,-3.971861 -1.13469,-4.058537 0.43643,-0.796019 0.41049,-1.813684 -0.23545,-2.496525 -0.59848,-0.525026 -1.228,-0.885945 -1.40125,-1.742483 z"
     inkscape:transform-center-x="-11.446912"
     inkscape:transform-center-y="-6.3646183" />
  <path
     inkscape:transform-center-y="-6.3646183"
     inkscape:transform-center-x="-11.446907"
     d="m 8.3499674,31.756702 c -0.17325,0.856539 -0.80276,1.217458 -1.40125,1.742484 -0.64594,0.682841 -0.67187,1.700506 -0.23544,2.496525 -3.095579,0.08668 -3.061649,2.925057 -1.13469,4.058538 0.99377,0.6057 0.19273,-0.690519 0.50615,-1.152322 0.5978,-0.706038 1.59899,0.990371 0.87124,1.246707 -0.99497,0.594703 0.24648,1.094498 0.16077,1.796417 0.14427,0.979145 0.12792,2.000151 -0.0529,2.958076 -0.68616,0.414296 -0.58732,1.102801 0.0674,1.460366 0.32524,0.844738 0.0189,1.778984 0.0311,2.657291 0.19237,0.847739 -1.24791,1.457756 -0.16181,2.097205 0.63955,0.932279 0.0227,2.321022 0.12239,3.412365 -0.38383,0.420001 -0.8935,0.939868 -0.21884,1.436512 0.48184,0.0012 0.96376,0.0026 1.44584,0.002 0.48209,4.86e-4 0.96401,-7.22e-4 1.44585,-0.002 0.6746496,-0.496644 0.16499,-1.016511 -0.21885,-1.436511 0.0997,-1.091344 -0.51715,-2.480087 0.12239,-3.412366 1.0860996,-0.639447 -0.35417,-1.249466 -0.1618,-2.097206 0.0122,-0.878307 -0.29413,-1.812553 0.0311,-2.65729 0.6547296,-0.357563 0.7535596,-1.046068 0.0674,-1.460367 -0.18082,-0.957924 -0.19717,-1.97893 -0.0529,-2.958074 -0.0857,-0.701921 1.1557296,-1.201713 0.16076,-1.796418 -0.72775,-0.256336 0.2734296,-1.952745 0.8712296,-1.246707 0.31343,0.461802 -0.48762,1.758022 0.50615,1.152322 1.92696,-1.133479 1.96088,-3.971861 -1.1346896,-4.058537 0.4364296,-0.796019 0.4104896,-1.813684 -0.23544,-2.496525 -0.59848,-0.525026 -1.228,-0.885945 -1.40125,-1.742483 z"
     style="fill:#000000;fill-opacity:1;stroke:none;stroke-width:0.180069px;stroke-linecap:butt;stroke-linejoin:miter;stroke-opacity:1"
     id="path872-3-6-8-2-11-5-5-1-4-5-0-3-6-2-6-9-7-4-2-1" />
  <path
     inkscape:transform-center-y="-6.3646183"
     inkscape:transform-center-x="-11.446907"
     d="m 41.669935,31.756702 c 0.173252,0.856539 0.802763,1.217458 1.401248,1.742484 0.645938,0.682841 0.671875,1.700506 0.235442,2.496525 3.095577,0.08668 3.061648,2.925057 1.134689,4.058538 -0.993774,0.6057 -0.192727,-0.690519 -0.506149,-1.152322 -0.597804,-0.706038 -1.598995,0.990371 -0.871242,1.246707 0.994975,0.594703 -0.246483,1.094498 -0.160765,1.796417 -0.144276,0.979145 -0.127922,2.000151 0.0529,2.958076 0.686152,0.414296 0.58732,1.102801 -0.06742,1.460366 -0.325244,0.844738 -0.01893,1.778984 -0.03111,2.657291 -0.19237,0.847739 1.24791,1.457756 0.161801,2.097205 -0.639545,0.932279 -0.0227,2.321022 -0.122389,3.412365 0.383838,0.420001 0.893509,0.939868 0.218848,1.436512 -0.481841,0.0012 -0.963759,0.0026 -1.445847,0.002 -0.482088,4.86e-4 -0.964006,-7.22e-4 -1.445848,-0.002 -0.674673,-0.496644 -0.164989,-1.016511 0.218848,-1.436511 -0.09969,-1.091344 0.517157,-2.480087 -0.122388,-3.412366 -1.086121,-0.639447 0.354175,-1.249466 0.161803,-2.097206 -0.01219,-0.878307 0.294126,-1.812553 -0.03113,-2.65729 -0.654752,-0.357563 -0.75358,-1.046068 -0.06742,-1.460367 0.180818,-0.957924 0.197174,-1.97893 0.0529,-2.958074 0.08571,-0.701921 -1.155756,-1.201713 -0.160771,-1.796418 0.727753,-0.256336 -0.27345,-1.952745 -0.871254,-1.246707 -0.313423,0.461802 0.487626,1.758022 -0.50615,1.152322 -1.926954,-1.133479 -1.960879,-3.971861 1.134709,-4.058537 -0.436443,-0.796019 -0.410507,-1.813684 0.235443,-2.496525 0.598486,-0.525026 1.227997,-0.885945 1.401249,-1.742483 z"
     style="fill:#000000;fill-opacity:1;stroke:none;stroke-width:0.180069px;stroke-linecap:butt;stroke-linejoin:miter;stroke-opacity:1"
     id="path872-3-6-8-2-11-5-5-1-4-5-0-3-6-2-6-9-7-7-2-5" />
  <path
     inkscape:transform-center-y="-6.3646183"
     inkscape:transform-center-x="11.446906"
     d="M -7.6146356e-6,47.559334 C -0.17325761,48.415873 -0.80276761,48.776792 -1.4012476,49.301818 c -0.64594,0.682841 -0.67188,1.700506 -0.23544,2.496525 -3.09558,0.08668 -3.06165,2.925057 -1.13469,4.058538 0.99377,0.6057 0.19272,-0.690519 0.50615,-1.152322 0.5978,-0.706038 1.59898999,0.990371 0.87124,1.246707 -0.99498,0.594703 0.24648,1.094498 0.16076,1.796418 0.14428,0.979145 0.12793,2.000151 -0.0529,2.958076 -0.68615,0.414296 -0.58732,1.102801 0.0674,1.460366 0.32524999,0.844738 0.0189,1.778984 0.0311,2.657291 0.19236999,0.847739 -1.24791,1.457756 -0.1618,2.097205 0.63954999,0.932279 0.0227,2.321022 0.12239,3.412365 -0.38384,0.420001 -0.89351,0.939868 -0.21885,1.436512 0.48183999,0.0012 0.96375999,0.0026 1.445839985364,0.002 C 0.48201839,71.771985 0.96393839,71.770777 1.4457784,71.769499 c 0.67466,-0.496644 0.16499,-1.016511 -0.21885,-1.436511 0.0997,-1.091344 -0.51716001,-2.480087 0.12239,-3.412366 1.08611,-0.639447 -0.35418001,-1.249466 -0.1618,-2.097206 0.0122,-0.878307 -0.29413001,-1.812553 0.0311,-2.65729 0.65474,-0.357563 0.75356,-1.046068 0.0674,-1.460367 -0.18082,-0.957924 -0.19718,-1.97893 -0.0529,-2.958074 -0.0857,-0.701922 1.15573,-1.201714 0.16076,-1.796419 -0.72775001,-0.256336 0.27344,-1.952745 0.87124,-1.246707 0.31342,0.461802 -0.48763,1.758022 0.50615,1.152322 1.926949,-1.133479 1.960879,-3.971861 -1.1347,-4.058537 0.43643,-0.796019 0.4105,-1.813684 -0.23544,-2.496525 C 0.80263839,48.776793 0.17312839,48.415874 -9.7614636e-5,47.559336 Z"
     style="fill:#000000;fill-opacity:1;stroke:none;stroke-width:0.180069px;stroke-linecap:butt;stroke-linejoin:miter;stroke-opacity:1"
     id="path872-3-6-8-2-11-5-5-1-4-5-0-3-6-2-6-9-7-2-5-4-6-9" />
  <path
     id="path872-3-6-8-2-11-5-5-1-4-5-0-3-6-2-6-9-7-4-6-0-7"
     style="fill:#000000;fill-opacity:1;stroke:none;stroke-width:0.180069px;stroke-linecap:butt;stroke-linejoin:miter;stroke-opacity:1"
     d="m 41.689953,31.756702 c -0.173252,0.856539 -0.802762,1.217458 -1.401248,1.742484 -0.645949,0.682841 -0.671886,1.700506 -0.235442,2.496525 -3.095589,0.08668 -3.06166,2.925057 -1.134701,4.058538 0.993775,0.6057 0.192727,-0.690519 0.50615,-1.152322 0.597816,-0.706038 1.599007,0.990371 0.871254,1.246707 -0.994987,0.594703 0.246483,1.094498 0.160765,1.796417 0.144276,0.979145 0.127922,2.000151 -0.0529,2.958076 -0.686164,0.414296 -0.587332,1.102801 0.06742,1.460366 0.325243,0.844738 0.01893,1.778984 0.03111,2.657291 0.19237,0.847739 -1.247922,1.457756 -0.161802,2.097205 0.639546,0.932279 0.0227,2.321022 0.122389,3.412365 -0.383838,0.420001 -0.89352,0.939868 -0.218847,1.436512 0.48184,0.0012 0.963759,0.0026 1.445846,0.002 0.482089,4.86e-4 0.964007,-7.22e-4 1.445848,-0.002 0.674662,-0.496644 0.16499,-1.016511 -0.218848,-1.436511 0.09969,-1.091344 -0.517156,-2.480087 0.122389,-3.412366 1.086108,-0.639447 -0.354176,-1.249466 -0.161803,-2.097206 0.01219,-0.878307 -0.294126,-1.812553 0.03113,-2.65729 0.65474,-0.357563 0.753567,-1.046068 0.06742,-1.460367 -0.180818,-0.957924 -0.197173,-1.97893 -0.0529,-2.958074 -0.08572,-0.701921 1.155735,-1.201713 0.160761,-1.796418 -0.727753,-0.256336 0.273439,-1.952745 0.871243,-1.246707 0.313421,0.461802 -0.487626,1.758022 0.506149,1.152322 1.926954,-1.133479 1.960879,-3.971861 -1.134697,-4.058537 0.436432,-0.796019 0.410495,-1.813684 -0.235443,-2.496525 -0.598485,-0.525026 -1.227997,-0.885945 -1.401248,-1.742483 z"
     inkscape:transform-center-x="-11.446907"
     inkscape:transform-center-y="-6.3646183" />
  <path
     inkscape:transform-center-y="-6.3646183"
     inkscape:transform-center-x="11.446907"
     d="m 66.703225,81.64314 c -0.173252,0.856539 -0.802762,1.217458 -1.401248,1.742484 -0.645937,0.682841 -0.671874,1.700506 -0.235442,2.496525 -3.095577,0.08668 -3.061648,2.925057 -1.134689,4.058538 0.993775,0.6057 0.192727,-0.690519 0.50615,-1.152322 0.597804,-0.706038 1.598995,0.990371 0.871242,1.246707 -0.994975,0.594703 0.246483,1.094498 0.160765,1.796418 0.144276,0.979145 0.127922,2.000151 -0.0529,2.958076 -0.686152,0.414296 -0.58732,1.102801 0.06742,1.460366 0.325244,0.844738 0.01893,1.778988 0.03111,2.657296 0.19237,0.84774 -1.24791,1.457762 -0.161802,2.097212 0.639546,0.93228 0.0227,2.32102 0.122389,3.41236 -0.383837,0.42 -0.893508,0.93987 -0.218847,1.43651 0.48184,0.001 0.963759,0.003 1.445846,0.002 0.482089,4.9e-4 0.964007,-7.2e-4 1.445848,-0.002 0.674662,-0.49664 0.16499,-1.01651 -0.218848,-1.43651 0.09969,-1.09134 -0.517156,-2.48008 0.122389,-3.41236 1.086108,-0.63945 -0.354176,-1.249472 -0.161803,-2.097212 0.0122,-0.878308 -0.294126,-1.812558 0.03113,-2.657296 0.65474,-0.357563 0.753568,-1.046068 0.06742,-1.460367 -0.180818,-0.957924 -0.197173,-1.97893 -0.0529,-2.958074 -0.08572,-0.701922 1.155735,-1.201714 0.160761,-1.796419 -0.727752,-0.256336 0.273439,-1.952745 0.871243,-1.246707 0.313423,0.461802 -0.487626,1.758022 0.50615,1.152322 1.926954,-1.133479 1.960879,-3.971861 -1.134698,-4.058537 0.436432,-0.796019 0.410495,-1.813684 -0.235442,-2.496525 -0.598486,-0.525026 -1.227998,-0.885945 -1.401249,-1.742483 z"
     style="fill:#000000;fill-opacity:1;stroke:none;stroke-width:0.180069px;stroke-linecap:butt;stroke-linejoin:miter;stroke-opacity:1"
     id="path872-3-6-8-2-11-5-5-1-4-5-0-3-6-2-6-9-7-2-61-7" />
  <path
     id="path872-3-6-8-2-11-5-5-1-4-5-0-3-6-2-6-9-7-2-5-5-6"
     style="fill:#000000;fill-opacity:1;stroke:none;stroke-width:0.180069px;stroke-linecap:butt;stroke-linejoin:miter;stroke-opacity:1"
     d="m 83.361594,81.64314 c -0.173252,0.856539 -0.802762,1.217458 -1.401248,1.742484 -0.645937,0.682841 -0.671874,1.700506 -0.235442,2.496525 -3.095577,0.08668 -3.061648,2.925057 -1.134689,4.058538 0.993775,0.6057 0.192727,-0.690519 0.50615,-1.152322 0.597804,-0.706038 1.598995,0.990371 0.871242,1.246707 -0.994975,0.594703 0.246483,1.094498 0.160765,1.796418 0.144276,0.979145 0.127922,2.000151 -0.0529,2.958076 -0.686152,0.414296 -0.58732,1.102801 0.06742,1.460366 0.325244,0.844738 0.01893,1.778988 0.03111,2.657296 0.19237,0.84774 -1.24791,1.457762 -0.161802,2.097212 0.639546,0.93228 0.0227,2.32102 0.122389,3.41236 -0.383837,0.42 -0.893508,0.93987 -0.218847,1.43651 0.48184,0.001 0.963759,0.003 1.445846,0.002 0.482101,4.9e-4 0.964011,-7.2e-4 1.445851,-0.002 0.67467,-0.49664 0.16499,-1.01651 -0.21884,-1.43651 0.0997,-1.09134 -0.51716,-2.48008 0.12239,-3.41236 1.0861,-0.63945 -0.35418,-1.249472 -0.16181,-2.097212 0.0122,-0.878308 -0.29412,-1.812558 0.0311,-2.657296 0.65474,-0.357563 0.75357,-1.046068 0.0674,-1.460367 -0.18082,-0.957924 -0.19717,-1.97893 -0.0529,-2.958074 -0.0857,-0.701922 1.15574,-1.201714 0.16076,-1.796419 -0.72775,-0.256336 0.27344,-1.952745 0.87125,-1.246707 0.31342,0.461802 -0.48763,1.758022 0.50615,1.152322 1.92695,-1.133479 1.96088,-3.971861 -1.1347,-4.058537 0.43643,-0.796019 0.41049,-1.813684 -0.23544,-2.496525 -0.59849,-0.525026 -1.228009,-0.885945 -1.40126,-1.742483 z"
     inkscape:transform-center-x="11.446927"
     inkscape:transform-center-y="-6.3646183" />
  <path
     id="path872-3-6-8-2-11-5-5-1-4-5-0-3-6-2-6-9-7-9-7"
     style="fill:#000000;fill-opacity:1;stroke:none;stroke-width:0.180069px;stroke-linecap:butt;stroke-linejoin:miter;stroke-opacity:1"
     d="m 75.03159,65.840508 c -0.173252,0.856539 -0.802763,1.217458 -1.401248,1.742484 -0.645938,0.682841 -0.671875,1.700506 -0.235442,2.496525 -3.095578,0.08668 -3.061649,2.925057 -1.13469,4.058538 0.993775,0.6057 0.192727,-0.690519 0.50615,-1.152322 0.597804,-0.706038 1.598995,0.990371 0.871242,1.246707 -0.994975,0.594703 0.246483,1.094498 0.160765,1.796417 0.144276,0.979145 0.127922,2.000151 -0.0529,2.958076 -0.686152,0.414296 -0.58732,1.102801 0.06742,1.460366 0.325244,0.844738 0.01893,1.778984 0.03111,2.657291 0.19237,0.847739 -1.24791,1.457756 -0.161801,2.097205 0.639545,0.932279 0.0227,2.321022 0.122389,3.412365 -0.383838,0.420001 -0.893509,0.939868 -0.218848,1.436512 0.481841,0.0012 0.963759,0.0026 1.445847,0.002 0.482088,4.86e-4 0.964006,-7.22e-4 1.445848,-0.002 0.674661,-0.496644 0.164989,-1.016511 -0.218848,-1.436511 0.09969,-1.091344 -0.517157,-2.480087 0.122388,-3.412366 1.086109,-0.639447 -0.354175,-1.249466 -0.161803,-2.097206 0.0122,-0.878307 -0.294126,-1.812553 0.03113,-2.65729 0.65474,-0.357563 0.753568,-1.046068 0.06742,-1.460367 -0.180818,-0.957924 -0.197174,-1.97893 -0.0529,-2.958074 -0.08572,-0.701921 1.155734,-1.201713 0.160761,-1.796418 -0.727753,-0.256336 0.273438,-1.952745 0.871242,-1.246707 0.313423,0.461802 -0.487626,1.758022 0.50615,1.152322 1.926954,-1.133479 1.96088,-3.971861 -1.134697,-4.058537 0.436431,-0.796019 0.410495,-1.813684 -0.235443,-2.496525 -0.598486,-0.525026 -1.227997,-0.885945 -1.401249,-1.742483 z"
     inkscape:transform-center-x="-11.446912"
     inkscape:transform-center-y="-6.3646183" />
  <path
     inkscape:transform-center-y="-6.3646183"
     inkscape:transform-center-x="-11.446907"
     d="m 58.371598,65.840508 c -0.173252,0.856539 -0.802762,1.217458 -1.401248,1.742484 -0.645937,0.682841 -0.671874,1.700506 -0.235442,2.496525 -3.095577,0.08668 -3.061648,2.925057 -1.134689,4.058538 0.993775,0.6057 0.192727,-0.690519 0.50615,-1.152322 0.597804,-0.706038 1.598995,0.990371 0.871242,1.246707 -0.994975,0.594703 0.246483,1.094498 0.160765,1.796417 0.144276,0.979145 0.127922,2.000151 -0.0529,2.958076 -0.686152,0.414296 -0.58732,1.102801 0.06742,1.460366 0.325243,0.844738 0.01893,1.778984 0.03111,2.657291 0.19237,0.847739 -1.24791,1.457756 -0.161802,2.097205 0.639546,0.932279 0.0227,2.321022 0.122389,3.412365 -0.383838,0.420001 -0.893508,0.939868 -0.218847,1.436512 0.48184,0.0012 0.963759,0.0026 1.445846,0.002 0.482089,4.86e-4 0.964007,-7.22e-4 1.445848,-0.002 0.674654,-0.496644 0.16499,-1.016511 -0.218848,-1.436511 0.09969,-1.091344 -0.517156,-2.480087 0.122389,-3.412366 1.0861,-0.639447 -0.354176,-1.249466 -0.161803,-2.097206 0.01219,-0.878307 -0.294126,-1.812553 0.03113,-2.65729 0.654732,-0.357563 0.753559,-1.046068 0.06742,-1.460367 -0.180818,-0.957924 -0.197173,-1.97893 -0.0529,-2.958074 -0.08572,-0.701921 1.155727,-1.201713 0.160761,-1.796418 -0.727753,-0.256336 0.273431,-1.952745 0.871235,-1.246707 0.313422,0.461802 -0.487626,1.758022 0.50615,1.152322 1.926954,-1.133479 1.960879,-3.971861 -1.13469,-4.058537 0.436424,-0.796019 0.410487,-1.813684 -0.235443,-2.496525 -0.598485,-0.525026 -1.227997,-0.885945 -1.401248,-1.742483 z"
     style="fill:#000000;fill-opacity:1;stroke:none;stroke-width:0.180069px;stroke-linecap:butt;stroke-linejoin:miter;stroke-opacity:1"
     id="path872-3-6-8-2-11-5-5-1-4-5-0-3-6-2-6-9-7-4-4-3" />
  <path
     inkscape:transform-center-y="-6.3646183"
     inkscape:transform-center-x="-11.446907"
     d="m 91.691568,65.840508 c 0.173252,0.856539 0.802763,1.217458 1.401248,1.742484 0.645938,0.682841 0.671875,1.700506 0.235442,2.496525 3.095578,0.08668 3.061649,2.925057 1.13469,4.058538 -0.993775,0.6057 -0.192727,-0.690519 -0.50615,-1.152322 -0.597804,-0.706038 -1.598995,0.990371 -0.871242,1.246707 0.994975,0.594703 -0.246483,1.094498 -0.160765,1.796417 -0.144276,0.979145 -0.127922,2.000151 0.0529,2.958076 0.686152,0.414296 0.58732,1.102801 -0.06742,1.460366 -0.325244,0.844738 -0.01893,1.778984 -0.03111,2.657291 -0.19237,0.847739 1.24791,1.457756 0.161801,2.097205 -0.639545,0.932279 -0.0227,2.321022 -0.122389,3.412365 0.383838,0.420001 0.893509,0.939868 0.218848,1.436512 -0.481841,0.0012 -0.963759,0.0026 -1.445847,0.002 -0.482088,4.86e-4 -0.964006,-7.22e-4 -1.445848,-0.002 -0.674673,-0.496644 -0.164989,-1.016511 0.218848,-1.436511 -0.09969,-1.091344 0.517157,-2.480087 -0.122388,-3.412366 -1.086121,-0.639447 0.354175,-1.249466 0.161803,-2.097206 -0.01219,-0.878307 0.294126,-1.812553 -0.03113,-2.65729 -0.654752,-0.357563 -0.75358,-1.046068 -0.06742,-1.460367 0.180818,-0.957924 0.197174,-1.97893 0.0529,-2.958074 0.08571,-0.701921 -1.155756,-1.201713 -0.160771,-1.796418 0.727753,-0.256336 -0.27345,-1.952745 -0.871254,-1.246707 -0.313423,0.461802 0.487626,1.758022 -0.50615,1.152322 -1.926954,-1.133479 -1.960879,-3.971861 1.134709,-4.058537 -0.436443,-0.796019 -0.410507,-1.813684 0.235443,-2.496525 0.598486,-0.525026 1.227997,-0.885945 1.401249,-1.742483 z"
     style="fill:#000000;fill-opacity:1;stroke:none;stroke-width:0.180069px;stroke-linecap:butt;stroke-linejoin:miter;stroke-opacity:1"
     id="path872-3-6-8-2-11-5-5-1-4-5-0-3-6-2-6-9-7-7-9-6" />
  <path
     inkscape:transform-center-y="-6.3646183"
     inkscape:transform-center-x="11.446917"
     d="m 50.021597,81.64314 c -0.173248,0.856539 -0.802758,1.217458 -1.401238,1.742484 -0.64594,0.682841 -0.67188,1.700506 -0.23544,2.496525 -3.09558,0.08668 -3.06165,2.925057 -1.13469,4.058538 0.99377,0.6057 0.19272,-0.690519 0.50615,-1.152322 0.5978,-0.706038 1.59899,0.990371 0.87124,1.246707 -0.99498,0.594703 0.24648,1.094498 0.16076,1.796418 0.14428,0.979145 0.12793,2.000151 -0.0529,2.958076 -0.68615,0.414296 -0.58732,1.102801 0.0674,1.460366 0.32525,0.844738 0.0189,1.778988 0.0311,2.657296 0.19237,0.84774 -1.24791,1.457762 -0.1618,2.097212 0.63955,0.93228 0.0227,2.32102 0.12239,3.41236 -0.38384,0.42 -0.89351,0.93987 -0.21885,1.43651 0.48184,0.001 0.96376,0.003 1.445842,0.002 0.482089,4.9e-4 0.964007,-7.2e-4 1.445848,-0.002 0.674662,-0.49664 0.16499,-1.01651 -0.218848,-1.43651 0.09969,-1.09134 -0.517156,-2.48008 0.122389,-3.41236 1.086108,-0.63945 -0.354176,-1.249472 -0.161803,-2.097212 0.0122,-0.878308 -0.294126,-1.812558 0.03113,-2.657296 0.65474,-0.357563 0.753568,-1.046068 0.06742,-1.460367 -0.180818,-0.957924 -0.197173,-1.97893 -0.0529,-2.958074 -0.08572,-0.701922 1.155735,-1.201714 0.160761,-1.796419 -0.727752,-0.256336 0.273439,-1.952745 0.871243,-1.246707 0.313423,0.461802 -0.487626,1.758022 0.50615,1.152322 1.926954,-1.133479 1.960879,-3.971861 -1.134698,-4.058537 0.436432,-0.796019 0.410495,-1.813684 -0.235442,-2.496525 -0.598486,-0.525026 -1.227998,-0.885945 -1.401249,-1.742483 z"
     style="fill:#000000;fill-opacity:1;stroke:none;stroke-width:0.180069px;stroke-linecap:butt;stroke-linejoin:miter;stroke-opacity:1"
     id="path872-3-6-8-2-11-5-5-1-4-5-0-3-6-2-6-9-7-2-5-4-0-5" />
  <path
     id="path872-3-6-8-2-11-5-5-1-4-5-0-3-6-2-6-9-7-2-6-9-6"
     style="fill:#000000;fill-opacity:1;stroke:none;stroke-width:0.180069px;stroke-linecap:butt;stroke-linejoin:miter;stroke-opacity:1"
     d="m 100.04324,81.64314 c -0.173272,0.856539 -0.802782,1.217458 -1.401267,1.742484 -0.645937,0.682841 -0.671874,1.700506 -0.235442,2.496525 -3.095577,0.08668 -3.061648,2.925057 -1.134689,4.058538 0.993775,0.6057 0.192727,-0.690519 0.50615,-1.152322 0.597804,-0.706038 1.598994,0.990371 0.871242,1.246707 -0.994975,0.594703 0.246483,1.094498 0.160765,1.796418 0.144276,0.979145 0.127922,2.000151 -0.0529,2.958076 -0.686152,0.414296 -0.58732,1.102801 0.06742,1.460366 0.325243,0.844738 0.01893,1.778988 0.03111,2.657296 0.192369,0.84774 -1.24791,1.457762 -0.161802,2.097212 0.639545,0.93228 0.0227,2.32102 0.122389,3.41236 -0.383837,0.42 -0.893508,0.93987 -0.218847,1.43651 0.481839,0.001 0.963758,0.003 1.445871,0.002 0.48208,4.9e-4 0.964,-7.2e-4 1.44584,-0.002 0.67467,-0.49664 0.16499,-1.01651 -0.21884,-1.43651 0.0997,-1.09134 -0.51716,-2.48008 0.12239,-3.41236 1.0861,-0.63945 -0.35418,-1.249472 -0.16181,-2.097212 0.0122,-0.878308 -0.29412,-1.812558 0.0311,-2.657296 0.65474,-0.357563 0.75357,-1.046068 0.0674,-1.460367 -0.18082,-0.957924 -0.19717,-1.97893 -0.0529,-2.958074 -0.0857,-0.701922 1.15574,-1.201714 0.16076,-1.796419 -0.72775,-0.256336 0.27344,-1.952745 0.87125,-1.246707 0.31342,0.461802 -0.48763,1.758022 0.50615,1.152322 1.92695,-1.133479 1.96088,-3.971861 -1.1347,-4.058537 0.43643,-0.796019 0.41049,-1.813684 -0.23544,-2.496525 -0.59849,-0.525026 -1.228,-0.885945 -1.40125,-1.742483 z"
     inkscape:transform-center-x="11.44692"
     inkscape:transform-center-y="-6.3646183" />
  <path
     id="path872-3-6-8-2-11-5-5-1-4-5-0-3-6-2-6-9-7-4-6-1-3"
     style="fill:#000000;fill-opacity:1;stroke:none;stroke-width:0.180069px;stroke-linecap:butt;stroke-linejoin:miter;stroke-opacity:1"
     d="m 91.711586,65.840508 c -0.173252,0.856539 -0.802762,1.217458 -1.401248,1.742484 -0.645949,0.682841 -0.671886,1.700506 -0.235442,2.496525 -3.095589,0.08668 -3.06166,2.925057 -1.134701,4.058538 0.993775,0.6057 0.192727,-0.690519 0.50615,-1.152322 0.597816,-0.706038 1.599007,0.990371 0.871254,1.246707 -0.994987,0.594703 0.246483,1.094498 0.160765,1.796417 0.144276,0.979145 0.127922,2.000151 -0.0529,2.958076 -0.686164,0.414296 -0.587332,1.102801 0.06742,1.460366 0.325243,0.844738 0.01893,1.778984 0.03111,2.657291 0.19237,0.847739 -1.247922,1.457756 -0.161802,2.097205 0.639546,0.932279 0.0227,2.321022 0.122389,3.412365 -0.383838,0.420001 -0.89352,0.939868 -0.218847,1.436512 0.48184,0.0012 0.963759,0.0026 1.445846,0.002 0.482089,4.86e-4 0.964007,-7.22e-4 1.445848,-0.002 0.674662,-0.496644 0.16499,-1.016511 -0.218848,-1.436511 0.09969,-1.091344 -0.517156,-2.480087 0.122389,-3.412366 1.086108,-0.639447 -0.354176,-1.249466 -0.161803,-2.097206 0.01219,-0.878307 -0.294126,-1.812553 0.03113,-2.65729 0.65474,-0.357563 0.753567,-1.046068 0.06742,-1.460367 -0.180818,-0.957924 -0.197173,-1.97893 -0.0529,-2.958074 -0.08572,-0.701921 1.155735,-1.201713 0.160761,-1.796418 -0.727753,-0.256336 0.273439,-1.952745 0.871243,-1.246707 0.313422,0.461802 -0.487626,1.758022 0.50615,1.152322 1.926954,-1.133479 1.960879,-3.971861 -1.134698,-4.058537 0.436432,-0.796019 0.410495,-1.813684 -0.235443,-2.496525 -0.598485,-0.525026 -1.227997,-0.885945 -1.401248,-1.742483 z"
     inkscape:transform-center-x="-11.446907"
     inkscape:transform-center-y="-6.3646183" />
  <path
     id="path872-3-6-8-2-11-5-5-1-4-5-0-3-6-2-6-9-7-2-1-7-9"
     style="fill:#000000;fill-opacity:1;stroke:none;stroke-width:0.180069px;stroke-linecap:butt;stroke-linejoin:miter;stroke-opacity:1"
     d="m 16.681587,81.64314 c -0.17325,0.856539 -0.80276,1.217458 -1.40124,1.742484 -0.64594,0.682841 -0.67188,1.700506 -0.23545,2.496525 -3.09557,0.08668 -3.06164,2.925057 -1.13468,4.058538 0.99377,0.6057 0.19272,-0.690519 0.50615,-1.152322 0.5978,-0.706038 1.59899,0.990371 0.87124,1.246707 -0.99498,0.594703 0.24648,1.094498 0.16076,1.796418 0.14428,0.979145 0.12792,2.000151 -0.0529,2.958076 -0.68615,0.414296 -0.58732,1.102801 0.0674,1.460366 0.32525,0.844738 0.0189,1.778988 0.0311,2.657296 0.19237,0.84774 -1.24791,1.457762 -0.1618,2.097212 0.63955,0.93228 0.0227,2.32102 0.12239,3.41236 -0.38384,0.42 -0.89351,0.93987 -0.21885,1.43651 0.48184,0.001 0.96376,0.003 1.44585,0.002 0.48209,4.9e-4 0.96401,-7.2e-4 1.44585,-0.002 0.67466,-0.49664 0.16499,-1.01651 -0.21885,-1.43651 0.0997,-1.09134 -0.51716,-2.48008 0.12239,-3.41236 1.08611,-0.63945 -0.35418,-1.249472 -0.1618,-2.097212 0.0122,-0.878308 -0.29413,-1.812558 0.0311,-2.657296 0.65474,-0.357563 0.75356,-1.046068 0.0674,-1.460367 -0.18082,-0.957924 -0.19718,-1.97893 -0.0529,-2.958074 -0.0857,-0.701922 1.15573,-1.201714 0.16076,-1.796419 -0.72776,-0.256336 0.27344,-1.952745 0.87124,-1.246707 0.31342,0.461802 -0.48763,1.758022 0.50615,1.152322 1.92695,-1.133479 1.96088,-3.971861 -1.1347,-4.058537 0.43643,-0.796019 0.4105,-1.813684 -0.23544,-2.496525 -0.59849,-0.525026 -1.228,-0.885945 -1.40125,-1.742483 z"
     inkscape:transform-center-x="11.446907"
     inkscape:transform-center-y="-6.3646183" />
  <path
     inkscape:transform-center-y="-6.3646183"
     inkscape:transform-center-x="11.446927"
     d="m 33.339961,81.64314 c -0.173252,0.856539 -0.802762,1.217458 -1.401248,1.742484 -0.645937,0.682841 -0.671874,1.700506 -0.235442,2.496525 -3.095574,0.08668 -3.061644,2.925057 -1.134689,4.058538 0.993775,0.6057 0.192727,-0.690519 0.50615,-1.152322 0.597804,-0.706038 1.598995,0.990371 0.871242,1.246707 -0.994975,0.594703 0.246483,1.094498 0.160765,1.796418 0.144276,0.979145 0.127922,2.000151 -0.0529,2.958076 -0.686152,0.414296 -0.58732,1.102801 0.06742,1.460366 0.325244,0.844738 0.01893,1.778988 0.03111,2.657296 0.19237,0.84774 -1.24791,1.457762 -0.161802,2.097212 0.639546,0.93228 0.0227,2.32102 0.122389,3.41236 -0.383837,0.42 -0.893508,0.93987 -0.218847,1.43651 0.48184,0.001 0.963759,0.003 1.445846,0.002 0.482101,4.9e-4 0.964011,-7.2e-4 1.445851,-0.002 0.67467,-0.49664 0.16499,-1.01651 -0.21884,-1.43651 0.0997,-1.09134 -0.51716,-2.48008 0.12239,-3.41236 1.0861,-0.63945 -0.35418,-1.249472 -0.16181,-2.097212 0.0122,-0.878308 -0.29412,-1.812558 0.0311,-2.657296 0.65474,-0.357563 0.75357,-1.046068 0.0674,-1.460367 -0.18082,-0.957924 -0.19717,-1.97893 -0.0529,-2.958074 -0.0857,-0.701922 1.15574,-1.201714 0.16076,-1.796419 -0.72775,-0.256336 0.27344,-1.952745 0.87125,-1.246707 0.31342,0.461802 -0.48763,1.758022 0.50615,1.152322 1.92695,-1.133479 1.96088,-3.971861 -1.1347,-4.058537 0.43643,-0.796019 0.41049,-1.813684 -0.23544,-2.496525 -0.59849,-0.525026 -1.228009,-0.885945 -1.40126,-1.742483 z"
     style="fill:#000000;fill-opacity:1;stroke:none;stroke-width:0.180069px;stroke-linecap:butt;stroke-linejoin:miter;stroke-opacity:1"
     id="path872-3-6-8-2-11-5-5-1-4-5-0-3-6-2-6-9-7-2-5-7-7-4" />
  <path
     inkscape:transform-center-y="-6.3646183"
     inkscape:transform-center-x="-11.446912"
     d="m 25.009957,65.840508 c -0.17325,0.856539 -0.80276,1.217458 -1.40125,1.742484 -0.64594,0.682841 -0.67187,1.700506 -0.23544,2.496525 -3.09558,0.08668 -3.06165,2.925057 -1.13469,4.058538 0.99377,0.6057 0.19273,-0.690519 0.50615,-1.152322 0.5978,-0.706038 1.599,0.990371 0.87124,1.246707 -0.99497,0.594703 0.24648,1.094498 0.16077,1.796417 0.14427,0.979145 0.12792,2.000151 -0.0529,2.958076 -0.68616,0.414296 -0.58732,1.102801 0.0674,1.460366 0.32524,0.844738 0.0189,1.778984 0.0311,2.657291 0.19237,0.847739 -1.24791,1.457756 -0.1618,2.097205 0.63954,0.932279 0.0227,2.321022 0.12238,3.412365 -0.38383,0.420001 -0.8935,0.939868 -0.21884,1.436512 0.48184,0.0012 0.96376,0.0026 1.44584,0.002 0.48209,4.86e-4 0.96401,-7.22e-4 1.44585,-0.002 0.67466,-0.496644 0.16499,-1.016511 -0.21885,-1.436511 0.0997,-1.091344 -0.51715,-2.480087 0.12239,-3.412366 1.08611,-0.639447 -0.35417,-1.249466 -0.1618,-2.097206 0.0122,-0.878307 -0.29413,-1.812553 0.0311,-2.65729 0.65474,-0.357563 0.75357,-1.046068 0.0674,-1.460367 -0.18082,-0.957924 -0.19717,-1.97893 -0.0529,-2.958074 -0.0857,-0.701921 1.15573,-1.201713 0.16076,-1.796418 -0.72775,-0.256336 0.27344,-1.952745 0.87124,-1.246707 0.31342,0.461802 -0.48762,1.758022 0.50615,1.152322 1.92696,-1.133479 1.96088,-3.971861 -1.13469,-4.058537 0.43643,-0.796019 0.41049,-1.813684 -0.23545,-2.496525 -0.59848,-0.525026 -1.228,-0.885945 -1.40125,-1.742483 z"
     style="fill:#000000;fill-opacity:1;stroke:none;stroke-width:0.180069px;stroke-linecap:butt;stroke-linejoin:miter;stroke-opacity:1"
     id="path872-3-6-8-2-11-5-5-1-4-5-0-3-6-2-6-9-7-27-1-8" />
  <path
     id="path872-3-6-8-2-11-5-5-1-4-5-0-3-6-2-6-9-7-4-2-1-1"
     style="fill:#000000;fill-opacity:1;stroke:none;stroke-width:0.180069px;stroke-linecap:butt;stroke-linejoin:miter;stroke-opacity:1"
     d="m 8.3499674,65.840508 c -0.17325,0.856539 -0.80276,1.217458 -1.40125,1.742484 -0.64594,0.682841 -0.67187,1.700506 -0.23544,2.496525 -3.095579,0.08668 -3.061649,2.925057 -1.13469,4.058538 0.99377,0.6057 0.19273,-0.690519 0.50615,-1.152322 0.5978,-0.706038 1.59899,0.990371 0.87124,1.246707 -0.99497,0.594703 0.24648,1.094498 0.16077,1.796417 0.14427,0.979145 0.12792,2.000151 -0.0529,2.958076 -0.68616,0.414296 -0.58732,1.102801 0.0674,1.460366 0.32524,0.844738 0.0189,1.778984 0.0311,2.657291 0.19237,0.847739 -1.24791,1.457756 -0.16181,2.097205 0.63955,0.932279 0.0227,2.321022 0.12239,3.412365 -0.38383,0.420001 -0.8935,0.939868 -0.21884,1.436512 0.48184,0.0012 0.96376,0.0026 1.44584,0.002 0.48209,4.86e-4 0.96401,-7.22e-4 1.44585,-0.002 0.6746496,-0.496644 0.16499,-1.016511 -0.21885,-1.436511 0.0997,-1.091344 -0.51715,-2.480087 0.12239,-3.412366 1.0860996,-0.639447 -0.35417,-1.249466 -0.1618,-2.097206 0.0122,-0.878307 -0.29413,-1.812553 0.0311,-2.65729 0.6547296,-0.357563 0.7535596,-1.046068 0.0674,-1.460367 -0.18082,-0.957924 -0.19717,-1.97893 -0.0529,-2.958074 -0.0857,-0.701921 1.1557296,-1.201713 0.16076,-1.796418 -0.72775,-0.256336 0.2734296,-1.952745 0.8712296,-1.246707 0.31343,0.461802 -0.48762,1.758022 0.50615,1.152322 1.92696,-1.133479 1.96088,-3.971861 -1.1346896,-4.058537 0.4364296,-0.796019 0.4104896,-1.813684 -0.23544,-2.496525 -0.59848,-0.525026 -1.228,-0.885945 -1.40125,-1.742483 z"
     inkscape:transform-center-x="-11.446907"
     inkscape:transform-center-y="-6.3646183" />
  <path
     id="path872-3-6-8-2-11-5-5-1-4-5-0-3-6-2-6-9-7-7-2-5-2"
     style="fill:#000000;fill-opacity:1;stroke:none;stroke-width:0.180069px;stroke-linecap:butt;stroke-linejoin:miter;stroke-opacity:1"
     d="m 41.669935,65.840508 c 0.173252,0.856539 0.802763,1.217458 1.401248,1.742484 0.645938,0.682841 0.671875,1.700506 0.235442,2.496525 3.095577,0.08668 3.061648,2.925057 1.134689,4.058538 -0.993774,0.6057 -0.192727,-0.690519 -0.506149,-1.152322 -0.597804,-0.706038 -1.598995,0.990371 -0.871242,1.246707 0.994975,0.594703 -0.246483,1.094498 -0.160765,1.796417 -0.144276,0.979145 -0.127922,2.000151 0.0529,2.958076 0.686152,0.414296 0.58732,1.102801 -0.06742,1.460366 -0.325244,0.844738 -0.01893,1.778984 -0.03111,2.657291 -0.19237,0.847739 1.24791,1.457756 0.161801,2.097205 -0.639545,0.932279 -0.0227,2.321022 -0.122389,3.412365 0.383838,0.420001 0.893509,0.939868 0.218848,1.436512 -0.481841,0.0012 -0.963759,0.0026 -1.445847,0.002 -0.482088,4.86e-4 -0.964006,-7.22e-4 -1.445848,-0.002 -0.674673,-0.496644 -0.164989,-1.016511 0.218848,-1.436511 -0.09969,-1.091344 0.517157,-2.480087 -0.122388,-3.412366 -1.086121,-0.639447 0.354175,-1.249466 0.161803,-2.097206 -0.01219,-0.878307 0.294126,-1.812553 -0.03113,-2.65729 -0.654752,-0.357563 -0.75358,-1.046068 -0.06742,-1.460367 0.180818,-0.957924 0.197174,-1.97893 0.0529,-2.958074 0.08571,-0.701921 -1.155756,-1.201713 -0.160771,-1.796418 0.727753,-0.256336 -0.27345,-1.952745 -0.871254,-1.246707 -0.313423,0.461802 0.487626,1.758022 -0.50615,1.152322 -1.926954,-1.133479 -1.960879,-3.971861 1.134709,-4.058537 -0.436443,-0.796019 -0.410507,-1.813684 0.235443,-2.496525 0.598486,-0.525026 1.227997,-0.885945 1.401249,-1.742483 z"
     inkscape:transform-center-x="-11.446907"
     inkscape:transform-center-y="-6.3646183" />
  <path
     id="path872-3-6-8-2-11-5-5-1-4-5-0-3-6-2-6-9-7-2-5-4-6-9-9"
     style="fill:#000000;fill-opacity:1;stroke:none;stroke-width:0.180069px;stroke-linecap:butt;stroke-linejoin:miter;stroke-opacity:1"
     d="M -7.6146356e-6,81.64314 C -0.17325761,82.499679 -0.80276761,82.860598 -1.4012476,83.385624 c -0.64594,0.682841 -0.67188,1.700506 -0.23544,2.496525 -3.09558,0.08668 -3.06165,2.925057 -1.13469,4.058538 0.99377,0.6057 0.19272,-0.690519 0.50615,-1.152322 0.5978,-0.706038 1.59898999,0.990371 0.87124,1.246707 -0.99498,0.594703 0.24648,1.094498 0.16076,1.796418 0.14428,0.979145 0.12793,2.000151 -0.0529,2.958076 -0.68615,0.414296 -0.58732,1.102801 0.0674,1.460366 0.32524999,0.844738 0.0189,1.778988 0.0311,2.657296 0.19236999,0.84774 -1.24791,1.457762 -0.1618,2.097212 0.63954999,0.93228 0.0227,2.32102 0.12239,3.41236 -0.38384,0.42 -0.89351,0.93987 -0.21885,1.43651 0.48183999,0.001 0.96375999,0.003 1.445839985364,0.002 C 0.48201839,105.8558 0.96393839,105.85459 1.4457784,105.85331 c 0.67466,-0.49664 0.16499,-1.01651 -0.21885,-1.43651 0.0997,-1.09134 -0.51716001,-2.48008 0.12239,-3.41236 1.08611,-0.63945 -0.35418001,-1.249472 -0.1618,-2.097212 0.0122,-0.878308 -0.29413001,-1.812558 0.0311,-2.657296 0.65474,-0.357563 0.75356,-1.046068 0.0674,-1.460367 -0.18082,-0.957924 -0.19718,-1.97893 -0.0529,-2.958074 -0.0857,-0.701922 1.15573,-1.201714 0.16076,-1.796419 -0.72775001,-0.256336 0.27344,-1.952745 0.87124,-1.246707 0.31342,0.461802 -0.48763,1.758022 0.50615,1.152322 1.926949,-1.133479 1.960879,-3.971861 -1.1347,-4.058537 0.43643,-0.796019 0.4105,-1.813684 -0.23544,-2.496525 C 0.80263839,82.860599 0.17312839,82.49968 -9.7614636e-5,81.643142 Z"
     inkscape:transform-center-x="11.446906"
     inkscape:transform-center-y="-6.3646183" />
  <path
     inkscape:transform-center-y="-6.3646183"
     inkscape:transform-center-x="-11.446907"
     d="m 41.689953,65.840508 c -0.173252,0.856539 -0.802762,1.217458 -1.401248,1.742484 -0.645949,0.682841 -0.671886,1.700506 -0.235442,2.496525 -3.095589,0.08668 -3.06166,2.925057 -1.134701,4.058538 0.993775,0.6057 0.192727,-0.690519 0.50615,-1.152322 0.597816,-0.706038 1.599007,0.990371 0.871254,1.246707 -0.994987,0.594703 0.246483,1.094498 0.160765,1.796417 0.144276,0.979145 0.127922,2.000151 -0.0529,2.958076 -0.686164,0.414296 -0.587332,1.102801 0.06742,1.460366 0.325243,0.844738 0.01893,1.778984 0.03111,2.657291 0.19237,0.847739 -1.247922,1.457756 -0.161802,2.097205 0.639546,0.932279 0.0227,2.321022 0.122389,3.412365 -0.383838,0.420001 -0.89352,0.939868 -0.218847,1.436512 0.48184,0.0012 0.963759,0.0026 1.445846,0.002 0.482089,4.86e-4 0.964007,-7.22e-4 1.445848,-0.002 0.674662,-0.496644 0.16499,-1.016511 -0.218848,-1.436511 0.09969,-1.091344 -0.517156,-2.480087 0.122389,-3.412366 1.086108,-0.639447 -0.354176,-1.249466 -0.161803,-2.097206 0.01219,-0.878307 -0.294126,-1.812553 0.03113,-2.65729 0.65474,-0.357563 0.753567,-1.046068 0.06742,-1.460367 -0.180818,-0.957924 -0.197173,-1.97893 -0.0529,-2.958074 -0.08572,-0.701921 1.155735,-1.201713 0.160761,-1.796418 -0.727753,-0.256336 0.273439,-1.952745 0.871243,-1.246707 0.313421,0.461802 -0.487626,1.758022 0.506149,1.152322 1.926954,-1.133479 1.960879,-3.971861 -1.134697,-4.058537 0.436432,-0.796019 0.410495,-1.813684 -0.235443,-2.496525 -0.598485,-0.525026 -1.227997,-0.885945 -1.401248,-1.742483 z"
     style="fill:#000000;fill-opacity:1;stroke:none;stroke-width:0.180069px;stroke-linecap:butt;stroke-linejoin:miter;stroke-opacity:1"
     id="path872-3-6-8-2-11-5-5-1-4-5-0-3-6-2-6-9-7-4-6-0-7-3" />
</svg>
