<?xml version="1.0" encoding="UTF-8"?>
<svg version="1.1" viewBox="0 0 100 110" xmlns="http://www.w3.org/2000/svg" xmlns:cc="http://creativecommons.org/ns#" xmlns:dc="http://purl.org/dc/elements/1.1/" xmlns:rdf="http://www.w3.org/1999/02/22-rdf-syntax-ns#" xmlns:xlink="http://www.w3.org/1999/xlink">
 <metadata>
  <rdf:RDF>
   <cc:Work rdf:about="">
    <dc:format>image/svg+xml</dc:format>
    <dc:type rdf:resource="http://purl.org/dc/dcmitype/StillImage"/>
    <dc:title/>
   </cc:Work>
  </rdf:RDF>
 </metadata>
 <defs>
  <pattern id="pattern1948" patternTransform="matrix(1.357 0 0 1.309 50 17.69)" xlink:href="#pattern980-5"/>
  <pattern id="pattern980-5" width="27.344778" height="31.035275" patternTransform="translate(28 9.436)" patternUnits="userSpaceOnUse">
   <g transform="translate(-28 -9.436)">
    <rect x="28" y="9.436" width="27.34" height="31.04" opacity="0" stroke-width="10.23" style="paint-order:stroke fill markers"/>
    <path d="m50.02 16.26c-0.1732 0.8565-0.8028 1.217-1.401 1.742-0.6459 0.6828-0.6719 1.701-0.2354 2.497-3.096 0.08668-3.062 2.925-1.135 4.059 0.9938 0.6057 0.1927-0.6905 0.5062-1.152 0.5978-0.706 1.599 0.9904 0.8712 1.247-0.995 0.5947 0.2465 1.094 0.1608 1.796 0.1443 0.9791 0.1279 2-0.0529 2.958-0.6862 0.4143-0.5873 1.103 0.0674 1.46 0.3252 0.8447 0.0189 1.779 0.0311 2.657 0.1924 0.8477-1.248 1.458-0.1618 2.097 0.6396 0.9323 0.0227 2.321 0.1224 3.412-0.3838 0.42-0.8935 0.9399-0.2188 1.437 0.4818 0.0012 0.9638 0.0026 1.446 2e-3 0.4821 4.86e-4 0.964-7.22e-4 1.446-2e-3 0.6747-0.4966 0.165-1.017-0.2188-1.437 0.09969-1.091-0.5172-2.48 0.1224-3.412 1.086-0.6394-0.3542-1.249-0.1618-2.097 0.0122-0.8783-0.2941-1.813 0.03113-2.657 0.6547-0.3576 0.7536-1.046 0.06742-1.46-0.1808-0.9579-0.1972-1.979-0.0529-2.958-0.08572-0.7019 1.156-1.202 0.1608-1.796-0.7278-0.2563 0.2734-1.953 0.8712-1.247 0.3134 0.4618-0.4876 1.758 0.5062 1.152 1.927-1.133 1.961-3.972-1.135-4.059 0.4364-0.796 0.4105-1.814-0.2354-2.497-0.5985-0.525-1.228-0.8859-1.401-1.742z"/>
    <path d="m33.34 16.26c-0.1733 0.8565-0.8028 1.217-1.401 1.742-0.6459 0.6828-0.6719 1.701-0.2354 2.497-3.096 0.08668-3.062 2.925-1.135 4.059 0.9938 0.6057 0.1927-0.6905 0.5062-1.152 0.5978-0.706 1.599 0.9904 0.8712 1.247-0.995 0.5947 0.2465 1.094 0.1608 1.796 0.1443 0.9791 0.1279 2-0.0529 2.958-0.6862 0.4143-0.5873 1.103 0.06742 1.46 0.3252 0.8447 0.01893 1.779 0.03111 2.657 0.1924 0.8477-1.248 1.458-0.1618 2.097 0.6395 0.9323 0.0227 2.321 0.1224 3.412-0.3838 0.42-0.8935 0.9399-0.2188 1.437 0.4818 0.0012 0.9638 0.0026 1.446 2e-3 0.4821 4.86e-4 0.964-7.22e-4 1.446-2e-3 0.6747-0.4966 0.165-1.017-0.2188-1.437 0.0997-1.091-0.5172-2.48 0.1224-3.412 1.086-0.6394-0.3542-1.249-0.1618-2.097 0.0122-0.8783-0.2941-1.813 0.0311-2.657 0.6547-0.3576 0.7536-1.046 0.0674-1.46-0.1808-0.9579-0.1972-1.979-0.0529-2.958-0.0857-0.7019 1.156-1.202 0.1608-1.796-0.7278-0.2563 0.2734-1.953 0.8712-1.247 0.3134 0.4618-0.4876 1.758 0.5062 1.152 1.927-1.133 1.961-3.972-1.135-4.059 0.4364-0.796 0.4105-1.814-0.2354-2.497-0.5985-0.525-1.228-0.8859-1.401-1.742z"/>
    <path d="m43.4 9.436h-3.465c0.07641 0.372 0.5565 0.7464 0.5 1.209 0.1443 0.9791 0.1281 1.999-0.05273 2.957-0.6862 0.4143-0.5883 1.103 0.06641 1.461 0.3253 0.8447 0.01906 1.78 0.03125 2.658 0.1924 0.8477-1.248 1.456-0.1621 2.096 0.6395 0.9323 0.02336 2.323 0.123 3.414-0.3838 0.42-0.8934 0.9389-0.2188 1.436 0.4818 0.0013 0.9632 0.0024 1.445 2e-3 0.4821 6e-4 0.9635-7.53e-4 1.445-2e-3 0.6747-0.4966 0.1651-1.016-0.2188-1.436 0.09969-1.091-0.5165-2.482 0.123-3.414 1.086-0.6394-0.3545-1.248-0.1621-2.096 0.01218-0.8783-0.294-1.813 0.03125-2.658 0.6547-0.3576 0.7545-1.047 0.06836-1.461-0.1808-0.9579-0.199-1.978-0.05469-2.957-0.05649-0.4625 0.4236-0.837 0.5-1.209z"/>
    <path d="m41.67 31.49c-0.1733 0.8565-0.8019 1.219-1.4 1.744-0.646 0.6828-0.6728 1.7-0.2363 2.496-3.096 0.08668-3.062 2.925-1.135 4.059 0.9938 0.6057 0.1924-0.6905 0.5059-1.152 0.5978-0.706 1.599 0.9898 0.8711 1.246-0.3393 0.2028-0.3774 0.3954-0.3379 0.5879h3.465c0.03955-0.1925 0.0014-0.3851-0.3379-0.5879-0.7278-0.2563 0.2733-1.952 0.8711-1.246 0.3134 0.4618-0.4879 1.758 0.5059 1.152 1.927-1.133 1.961-3.972-1.135-4.059 0.4364-0.796 0.4096-1.813-0.2363-2.496-0.5985-0.525-1.227-0.8876-1.4-1.744z"/>
   </g>
  </pattern>
 </defs>
 <clipPath id="escu">
  <rect width="100" height="120"/>
 </clipPath>
 <rect x="-2.5" width="105" height="115" fill="url(#pattern1948)"/>
</svg>
