<?xml version="1.0" encoding="UTF-8" standalone="no"?>
<svg
   xmlns:dc="http://purl.org/dc/elements/1.1/"
   xmlns:cc="http://creativecommons.org/ns#"
   xmlns:rdf="http://www.w3.org/1999/02/22-rdf-syntax-ns#"
   xmlns:svg="http://www.w3.org/2000/svg"
   xmlns="http://www.w3.org/2000/svg"
   xmlns:sodipodi="http://sodipodi.sourceforge.net/DTD/sodipodi-0.dtd"
   xmlns:inkscape="http://www.inkscape.org/namespaces/inkscape"
   inkscape:version="1.0 (4035a4fb49, 2020-05-01)"
   sodipodi:docname="spade.svg"
   id="svg23"
   version="1.1"
   viewBox="0 0 100 110">
  <metadata
     id="metadata29">
    <rdf:RDF>
      <cc:Work
         rdf:about="">
        <dc:format>image/svg+xml</dc:format>
        <dc:type
           rdf:resource="http://purl.org/dc/dcmitype/StillImage" />
        <dc:title />
      </cc:Work>
    </rdf:RDF>
  </metadata>
  <defs
     id="defs27" />
  <sodipodi:namedview
     inkscape:document-rotation="0"
     inkscape:guide-bbox="true"
     showguides="true"
     inkscape:current-layer="svg23"
     inkscape:window-maximized="1"
     inkscape:window-y="0"
     inkscape:window-x="0"
     inkscape:cy="26.356935"
     inkscape:cx="-0.75731483"
     inkscape:zoom="4"
     showgrid="false"
     id="namedview25"
     inkscape:window-height="1020"
     inkscape:window-width="1920"
     inkscape:pageshadow="2"
     inkscape:pageopacity="0"
     guidetolerance="10"
     gridtolerance="10"
     objecttolerance="10"
     borderopacity="1"
     bordercolor="#666666"
     pagecolor="#ffffff" />
  <g
     aria-label="♠"
     id="text1466-1-1-6-7-9"
     style="font-style:normal;font-weight:normal;font-size:20.5898px;line-height:1.25;font-family:sans-serif;letter-spacing:0px;word-spacing:0px;fill:#000000;fill-opacity:1;stroke:none;stroke-width:0.514746">
    <path
       d="M 8.33,17.279045 H 7.2492365 v -0.06032 C 7.8189412,16.206662 7.75,14.745537 7.75,12.83535 L 7.691595,12.80519 7.2190752,13.689908 c -0.5697047,0.891421 -1.2801601,1.337131 -2.131366,1.337131 -1.2533505,0 -2.1347172,-0.700402 -2.6441003,-2.101205 L 2.3531273,12.19192 v -0.462466 c 0,-1.226541 0.6266752,-2.5201061 1.8800257,-3.8806951 C 5.5901372,5.997514 7.1926804,4.2483581 8.33,2.279054 Z m 0,0 h 1.0807635 v -0.06032 C 8.8410588,16.206662 8.91,14.745537 8.91,12.83535 l 0.058405,-0.03016 0.4725198,0.884718 c 0.5697052,0.891421 1.2801602,1.337131 2.1313662,1.337131 1.25335,0 2.134717,-0.700402 2.6441,-2.101205 l 0.09048,-0.733914 v -0.462466 c 0,-1.226541 -0.626675,-2.5201061 -1.880026,-3.8806951 C 11.069863,5.997514 9.4673196,4.2483581 8.33,2.279054 Z"
       style="stroke-width:0.514746"
       id="path2364"
       sodipodi:nodetypes="ccccccsccsccc" />
  </g>
  <g
     style="font-style:normal;font-weight:normal;font-size:20.5898px;line-height:1.25;font-family:sans-serif;letter-spacing:0px;word-spacing:0px;fill:#000000;fill-opacity:1;stroke:none;stroke-width:0.514746"
     id="text1466-1-1-6-7-9-1"
     aria-label="♠"
     transform="translate(16.66)">
    <path
       sodipodi:nodetypes="ccccccsccsccc"
       id="path2364-7"
       style="stroke-width:0.514746"
       d="M 8.33,17.279045 H 7.2492365 v -0.06032 C 7.8189412,16.206662 7.75,14.745537 7.75,12.83535 L 7.691595,12.80519 7.2190752,13.689908 c -0.5697047,0.891421 -1.2801601,1.337131 -2.131366,1.337131 -1.2533505,0 -2.1347172,-0.700402 -2.6441003,-2.101205 L 2.3531273,12.19192 v -0.462466 c 0,-1.226541 0.6266752,-2.5201061 1.8800257,-3.8806951 C 5.5901372,5.997514 7.1926804,4.2483581 8.33,2.279054 Z m 0,0 h 1.0807635 v -0.06032 C 8.8410588,16.206662 8.91,14.745537 8.91,12.83535 l 0.058405,-0.03016 0.4725198,0.884718 c 0.5697052,0.891421 1.2801602,1.337131 2.1313662,1.337131 1.25335,0 2.134717,-0.700402 2.6441,-2.101205 l 0.09048,-0.733914 v -0.462466 c 0,-1.226541 -0.626675,-2.5201061 -1.880026,-3.8806951 C 11.069863,5.997514 9.4673196,4.2483581 8.33,2.279054 Z" />
  </g>
  <g
     transform="translate(33.320003)"
     aria-label="♠"
     id="text1466-1-1-6-7-9-1-7"
     style="font-style:normal;font-weight:normal;font-size:20.5898px;line-height:1.25;font-family:sans-serif;letter-spacing:0px;word-spacing:0px;fill:#000000;fill-opacity:1;stroke:none;stroke-width:0.514746">
    <path
       d="M 8.33,17.279045 H 7.2492365 v -0.06032 C 7.8189412,16.206662 7.75,14.745537 7.75,12.83535 L 7.691595,12.80519 7.2190752,13.689908 c -0.5697047,0.891421 -1.2801601,1.337131 -2.131366,1.337131 -1.2533505,0 -2.1347172,-0.700402 -2.6441003,-2.101205 L 2.3531273,12.19192 v -0.462466 c 0,-1.226541 0.6266752,-2.5201061 1.8800257,-3.8806951 C 5.5901372,5.997514 7.1926804,4.2483581 8.33,2.279054 Z m 0,0 h 1.0807635 v -0.06032 C 8.8410588,16.206662 8.91,14.745537 8.91,12.83535 l 0.058405,-0.03016 0.4725198,0.884718 c 0.5697052,0.891421 1.2801602,1.337131 2.1313662,1.337131 1.25335,0 2.134717,-0.700402 2.6441,-2.101205 l 0.09048,-0.733914 v -0.462466 c 0,-1.226541 -0.626675,-2.5201061 -1.880026,-3.8806951 C 11.069863,5.997514 9.4673196,4.2483581 8.33,2.279054 Z"
       style="stroke-width:0.514746"
       id="path2364-7-4"
       sodipodi:nodetypes="ccccccsccsccc" />
  </g>
  <g
     style="font-style:normal;font-weight:normal;font-size:20.5898px;line-height:1.25;font-family:sans-serif;letter-spacing:0px;word-spacing:0px;fill:#000000;fill-opacity:1;stroke:none;stroke-width:0.514746"
     id="text1466-1-1-6-7-9-18"
     aria-label="♠"
     transform="translate(49.979998)">
    <path
       sodipodi:nodetypes="ccccccsccsccc"
       id="path2364-5"
       style="stroke-width:0.514746"
       d="M 8.33,17.279045 H 7.2492365 v -0.06032 C 7.8189412,16.206662 7.75,14.745537 7.75,12.83535 L 7.691595,12.80519 7.2190752,13.689908 c -0.5697047,0.891421 -1.2801601,1.337131 -2.131366,1.337131 -1.2533505,0 -2.1347172,-0.700402 -2.6441003,-2.101205 L 2.3531273,12.19192 v -0.462466 c 0,-1.226541 0.6266752,-2.5201061 1.8800257,-3.8806951 C 5.5901372,5.997514 7.1926804,4.2483581 8.33,2.279054 Z m 0,0 h 1.0807635 v -0.06032 C 8.8410588,16.206662 8.91,14.745537 8.91,12.83535 l 0.058405,-0.03016 0.4725198,0.884718 c 0.5697052,0.891421 1.2801602,1.337131 2.1313662,1.337131 1.25335,0 2.134717,-0.700402 2.6441,-2.101205 l 0.09048,-0.733914 v -0.462466 c 0,-1.226541 -0.626675,-2.5201061 -1.880026,-3.8806951 C 11.069863,5.997514 9.4673196,4.2483581 8.33,2.279054 Z" />
  </g>
  <g
     transform="translate(66.64)"
     aria-label="♠"
     id="text1466-1-1-6-7-9-1-9"
     style="font-style:normal;font-weight:normal;font-size:20.5898px;line-height:1.25;font-family:sans-serif;letter-spacing:0px;word-spacing:0px;fill:#000000;fill-opacity:1;stroke:none;stroke-width:0.514746">
    <path
       d="M 8.33,17.279045 H 7.2492365 v -0.06032 C 7.8189412,16.206662 7.75,14.745537 7.75,12.83535 L 7.691595,12.80519 7.2190752,13.689908 c -0.5697047,0.891421 -1.2801601,1.337131 -2.131366,1.337131 -1.2533505,0 -2.1347172,-0.700402 -2.6441003,-2.101205 L 2.3531273,12.19192 v -0.462466 c 0,-1.226541 0.6266752,-2.5201061 1.8800257,-3.8806951 C 5.5901372,5.997514 7.1926804,4.2483581 8.33,2.279054 Z m 0,0 h 1.0807635 v -0.06032 C 8.8410588,16.206662 8.91,14.745537 8.91,12.83535 l 0.058405,-0.03016 0.4725198,0.884718 c 0.5697052,0.891421 1.2801602,1.337131 2.1313662,1.337131 1.25335,0 2.134717,-0.700402 2.6441,-2.101205 l 0.09048,-0.733914 v -0.462466 c 0,-1.226541 -0.626675,-2.5201061 -1.880026,-3.8806951 C 11.069863,5.997514 9.4673196,4.2483581 8.33,2.279054 Z"
       style="stroke-width:0.514746"
       id="path2364-7-7"
       sodipodi:nodetypes="ccccccsccsccc" />
  </g>
  <g
     style="font-style:normal;font-weight:normal;font-size:20.5898px;line-height:1.25;font-family:sans-serif;letter-spacing:0px;word-spacing:0px;fill:#000000;fill-opacity:1;stroke:none;stroke-width:0.514746"
     id="text1466-1-1-6-7-9-1-7-9"
     aria-label="♠"
     transform="translate(83.299995)">
    <path
       sodipodi:nodetypes="ccccccsccsccc"
       id="path2364-7-4-6"
       style="stroke-width:0.514746"
       d="M 8.33,17.279045 H 7.2492365 v -0.06032 C 7.8189412,16.206662 7.75,14.745537 7.75,12.83535 L 7.691595,12.80519 7.2190752,13.689908 c -0.5697047,0.891421 -1.2801601,1.337131 -2.131366,1.337131 -1.2533505,0 -2.1347172,-0.700402 -2.6441003,-2.101205 L 2.3531273,12.19192 v -0.462466 c 0,-1.226541 0.6266752,-2.5201061 1.8800257,-3.8806951 C 5.5901372,5.997514 7.1926804,4.2483581 8.33,2.279054 Z m 0,0 h 1.0807635 v -0.06032 C 8.8410588,16.206662 8.91,14.745537 8.91,12.83535 l 0.058405,-0.03016 0.4725198,0.884718 c 0.5697052,0.891421 1.2801602,1.337131 2.1313662,1.337131 1.25335,0 2.134717,-0.700402 2.6441,-2.101205 l 0.09048,-0.733914 v -0.462466 c 0,-1.226541 -0.626675,-2.5201061 -1.880026,-3.8806951 C 11.069863,5.997514 9.4673196,4.2483581 8.33,2.279054 Z" />
  </g>
  <g
     transform="matrix(-1,0,0,1,108.28957,17.041904)"
     aria-label="♠"
     id="text1466-1-1-6-7-9-5-8"
     style="font-style:normal;font-weight:normal;font-size:20.5898px;line-height:1.25;font-family:sans-serif;letter-spacing:0px;word-spacing:0px;fill:#000000;fill-opacity:1;stroke:none;stroke-width:0.514746">
    <path
       d="M 8.33,17.279045 H 7.2492365 v -0.06032 C 7.8189412,16.206662 7.75,14.745537 7.75,12.83535 L 7.691595,12.80519 7.2190752,13.689908 c -0.5697047,0.891421 -1.2801601,1.337131 -2.131366,1.337131 -1.2533505,0 -2.1347172,-0.700402 -2.6441003,-2.101205 L 2.3531273,12.19192 v -0.462466 c 0,-1.226541 0.6266752,-2.5201061 1.8800257,-3.8806951 C 5.5901372,5.997514 7.1926804,4.2483581 8.33,2.279054 Z m 0,0 h 1.0807635 v -0.06032 C 8.8410588,16.206662 8.91,14.745537 8.91,12.83535 l 0.058405,-0.03016 0.4725198,0.884718 c 0.5697052,0.891421 1.2801602,1.337131 2.1313662,1.337131 1.25335,0 2.134717,-0.700402 2.6441,-2.101205 l 0.09048,-0.733914 v -0.462466 c 0,-1.226541 -0.626675,-2.5201061 -1.880026,-3.8806951 C 11.069863,5.997514 9.4673196,4.2483581 8.33,2.279054 Z"
       style="stroke-width:0.514746"
       id="path2364-9-6"
       sodipodi:nodetypes="ccccccsccsccc" />
  </g>
  <g
     transform="matrix(-1,0,0,1,91.629638,17.041904)"
     aria-label="♠"
     id="text1466-1-1-6-7-9-5-88"
     style="font-style:normal;font-weight:normal;font-size:20.5898px;line-height:1.25;font-family:sans-serif;letter-spacing:0px;word-spacing:0px;fill:#000000;fill-opacity:1;stroke:none;stroke-width:0.514746">
    <path
       d="M 8.33,17.279045 H 7.2492365 v -0.06032 C 7.8189412,16.206662 7.75,14.745537 7.75,12.83535 L 7.691595,12.80519 7.2190752,13.689908 c -0.5697047,0.891421 -1.2801601,1.337131 -2.131366,1.337131 -1.2533505,0 -2.1347172,-0.700402 -2.6441003,-2.101205 L 2.3531273,12.19192 v -0.462466 c 0,-1.226541 0.6266752,-2.5201061 1.8800257,-3.8806951 C 5.5901372,5.997514 7.1926804,4.2483581 8.33,2.279054 Z m 0,0 h 1.0807635 v -0.06032 C 8.8410588,16.206662 8.91,14.745537 8.91,12.83535 l 0.058405,-0.03016 0.4725198,0.884718 c 0.5697052,0.891421 1.2801602,1.337131 2.1313662,1.337131 1.25335,0 2.134717,-0.700402 2.6441,-2.101205 l 0.09048,-0.733914 v -0.462466 c 0,-1.226541 -0.626675,-2.5201061 -1.880026,-3.8806951 C 11.069863,5.997514 9.4673196,4.2483581 8.33,2.279054 Z"
       style="stroke-width:0.514746"
       id="path2364-9-8"
       sodipodi:nodetypes="ccccccsccsccc" />
  </g>
  <g
     style="font-style:normal;font-weight:normal;font-size:20.5898px;line-height:1.25;font-family:sans-serif;letter-spacing:0px;word-spacing:0px;fill:#000000;fill-opacity:1;stroke:none;stroke-width:0.514746"
     id="text1466-1-1-6-7-9-5-8-7"
     aria-label="♠"
     transform="matrix(-1,0,0,1,74.96971,17.041904)">
    <path
       sodipodi:nodetypes="ccccccsccsccc"
       id="path2364-9-6-6"
       style="stroke-width:0.514746"
       d="M 8.33,17.279045 H 7.2492365 v -0.06032 C 7.8189412,16.206662 7.75,14.745537 7.75,12.83535 L 7.691595,12.80519 7.2190752,13.689908 c -0.5697047,0.891421 -1.2801601,1.337131 -2.131366,1.337131 -1.2533505,0 -2.1347172,-0.700402 -2.6441003,-2.101205 L 2.3531273,12.19192 v -0.462466 c 0,-1.226541 0.6266752,-2.5201061 1.8800257,-3.8806951 C 5.5901372,5.997514 7.1926804,4.2483581 8.33,2.279054 Z m 0,0 h 1.0807635 v -0.06032 C 8.8410588,16.206662 8.91,14.745537 8.91,12.83535 l 0.058405,-0.03016 0.4725198,0.884718 c 0.5697052,0.891421 1.2801602,1.337131 2.1313662,1.337131 1.25335,0 2.134717,-0.700402 2.6441,-2.101205 l 0.09048,-0.733914 v -0.462466 c 0,-1.226541 -0.626675,-2.5201061 -1.880026,-3.8806951 C 11.069863,5.997514 9.4673196,4.2483581 8.33,2.279054 Z" />
  </g>
  <g
     transform="matrix(-1,0,0,1,58.309781,17.041904)"
     aria-label="♠"
     id="text1466-1-1-6-7-9-5-4"
     style="font-style:normal;font-weight:normal;font-size:20.5898px;line-height:1.25;font-family:sans-serif;letter-spacing:0px;word-spacing:0px;fill:#000000;fill-opacity:1;stroke:none;stroke-width:0.514746">
    <path
       d="M 8.33,17.279045 H 7.2492365 v -0.06032 C 7.8189412,16.206662 7.75,14.745537 7.75,12.83535 L 7.691595,12.80519 7.2190752,13.689908 c -0.5697047,0.891421 -1.2801601,1.337131 -2.131366,1.337131 -1.2533505,0 -2.1347172,-0.700402 -2.6441003,-2.101205 L 2.3531273,12.19192 v -0.462466 c 0,-1.226541 0.6266752,-2.5201061 1.8800257,-3.8806951 C 5.5901372,5.997514 7.1926804,4.2483581 8.33,2.279054 Z m 0,0 h 1.0807635 v -0.06032 C 8.8410588,16.206662 8.91,14.745537 8.91,12.83535 l 0.058405,-0.03016 0.4725198,0.884718 c 0.5697052,0.891421 1.2801602,1.337131 2.1313662,1.337131 1.25335,0 2.134717,-0.700402 2.6441,-2.101205 l 0.09048,-0.733914 v -0.462466 c 0,-1.226541 -0.626675,-2.5201061 -1.880026,-3.8806951 C 11.069863,5.997514 9.4673196,4.2483581 8.33,2.279054 Z"
       style="stroke-width:0.514746"
       id="path2364-9-3"
       sodipodi:nodetypes="ccccccsccsccc" />
  </g>
  <g
     style="font-style:normal;font-weight:normal;font-size:20.5898px;line-height:1.25;font-family:sans-serif;letter-spacing:0px;word-spacing:0px;fill:#000000;fill-opacity:1;stroke:none;stroke-width:0.514746"
     id="text1466-1-1-6-7-9-5-8-0"
     aria-label="♠"
     transform="matrix(-1,0,0,1,41.649853,17.041904)">
    <path
       sodipodi:nodetypes="ccccccsccsccc"
       id="path2364-9-6-9"
       style="stroke-width:0.514746"
       d="M 8.33,17.279045 H 7.2492365 v -0.06032 C 7.8189412,16.206662 7.75,14.745537 7.75,12.83535 L 7.691595,12.80519 7.2190752,13.689908 c -0.5697047,0.891421 -1.2801601,1.337131 -2.131366,1.337131 -1.2533505,0 -2.1347172,-0.700402 -2.6441003,-2.101205 L 2.3531273,12.19192 v -0.462466 c 0,-1.226541 0.6266752,-2.5201061 1.8800257,-3.8806951 C 5.5901372,5.997514 7.1926804,4.2483581 8.33,2.279054 Z m 0,0 h 1.0807635 v -0.06032 C 8.8410588,16.206662 8.91,14.745537 8.91,12.83535 l 0.058405,-0.03016 0.4725198,0.884718 c 0.5697052,0.891421 1.2801602,1.337131 2.1313662,1.337131 1.25335,0 2.134717,-0.700402 2.6441,-2.101205 l 0.09048,-0.733914 v -0.462466 c 0,-1.226541 -0.626675,-2.5201061 -1.880026,-3.8806951 C 11.069863,5.997514 9.4673196,4.2483581 8.33,2.279054 Z" />
  </g>
  <g
     style="font-style:normal;font-weight:normal;font-size:20.5898px;line-height:1.25;font-family:sans-serif;letter-spacing:0px;word-spacing:0px;fill:#000000;fill-opacity:1;stroke:none;stroke-width:0.514746"
     id="text1466-1-1-6-7-9-5-88-2"
     aria-label="♠"
     transform="matrix(-1,0,0,1,24.989929,17.041904)">
    <path
       sodipodi:nodetypes="ccccccsccsccc"
       id="path2364-9-8-5"
       style="stroke-width:0.514746"
       d="M 8.33,17.279045 H 7.2492365 v -0.06032 C 7.8189412,16.206662 7.75,14.745537 7.75,12.83535 L 7.691595,12.80519 7.2190752,13.689908 c -0.5697047,0.891421 -1.2801601,1.337131 -2.131366,1.337131 -1.2533505,0 -2.1347172,-0.700402 -2.6441003,-2.101205 L 2.3531273,12.19192 v -0.462466 c 0,-1.226541 0.6266752,-2.5201061 1.8800257,-3.8806951 C 5.5901372,5.997514 7.1926804,4.2483581 8.33,2.279054 Z m 0,0 h 1.0807635 v -0.06032 C 8.8410588,16.206662 8.91,14.745537 8.91,12.83535 l 0.058405,-0.03016 0.4725198,0.884718 c 0.5697052,0.891421 1.2801602,1.337131 2.1313662,1.337131 1.25335,0 2.134717,-0.700402 2.6441,-2.101205 l 0.09048,-0.733914 v -0.462466 c 0,-1.226541 -0.626675,-2.5201061 -1.880026,-3.8806951 C 11.069863,5.997514 9.4673196,4.2483581 8.33,2.279054 Z" />
  </g>
  <g
     transform="matrix(-1,0,0,1,8.3299992,17.041904)"
     aria-label="♠"
     id="text1466-1-1-6-7-9-5-8-7-4"
     style="font-style:normal;font-weight:normal;font-size:20.5898px;line-height:1.25;font-family:sans-serif;letter-spacing:0px;word-spacing:0px;fill:#000000;fill-opacity:1;stroke:none;stroke-width:0.514746">
    <path
       d="M 8.33,17.279045 H 7.2492365 v -0.06032 C 7.8189412,16.206662 7.75,14.745537 7.75,12.83535 L 7.691595,12.80519 7.2190752,13.689908 c -0.5697047,0.891421 -1.2801601,1.337131 -2.131366,1.337131 -1.2533505,0 -2.1347172,-0.700402 -2.6441003,-2.101205 L 2.3531273,12.19192 v -0.462466 c 0,-1.226541 0.6266752,-2.5201061 1.8800257,-3.8806951 C 5.5901372,5.997514 7.1926804,4.2483581 8.33,2.279054 Z m 0,0 h 1.0807635 v -0.06032 C 8.8410588,16.206662 8.91,14.745537 8.91,12.83535 l 0.058405,-0.03016 0.4725198,0.884718 c 0.5697052,0.891421 1.2801602,1.337131 2.1313662,1.337131 1.25335,0 2.134717,-0.700402 2.6441,-2.101205 l 0.09048,-0.733914 v -0.462466 c 0,-1.226541 -0.626675,-2.5201061 -1.880026,-3.8806951 C 11.069863,5.997514 9.4673196,4.2483581 8.33,2.279054 Z"
       style="stroke-width:0.514746"
       id="path2364-9-6-6-0"
       sodipodi:nodetypes="ccccccsccsccc" />
  </g>
  <g
     style="font-style:normal;font-weight:normal;font-size:20.5898px;line-height:1.25;font-family:sans-serif;letter-spacing:0px;word-spacing:0px;fill:#000000;fill-opacity:1;stroke:none;stroke-width:0.514746"
     id="text1466-1-1-6-7-9-5"
     aria-label="♠"
     transform="translate(0,34.083808)">
    <path
       sodipodi:nodetypes="ccccccsccsccc"
       id="path2364-9"
       style="stroke-width:0.514746"
       d="M 8.33,17.279045 H 7.2492365 v -0.06032 C 7.8189412,16.206662 7.75,14.745537 7.75,12.83535 L 7.691595,12.80519 7.2190752,13.689908 c -0.5697047,0.891421 -1.2801601,1.337131 -2.131366,1.337131 -1.2533505,0 -2.1347172,-0.700402 -2.6441003,-2.101205 L 2.3531273,12.19192 v -0.462466 c 0,-1.226541 0.6266752,-2.5201061 1.8800257,-3.8806951 C 5.5901372,5.997514 7.1926804,4.2483581 8.33,2.279054 Z m 0,0 h 1.0807635 v -0.06032 C 8.8410588,16.206662 8.91,14.745537 8.91,12.83535 l 0.058405,-0.03016 0.4725198,0.884718 c 0.5697052,0.891421 1.2801602,1.337131 2.1313662,1.337131 1.25335,0 2.134717,-0.700402 2.6441,-2.101205 l 0.09048,-0.733914 v -0.462466 c 0,-1.226541 -0.626675,-2.5201061 -1.880026,-3.8806951 C 11.069863,5.997514 9.4673196,4.2483581 8.33,2.279054 Z" />
  </g>
  <g
     transform="translate(16.66,34.083808)"
     aria-label="♠"
     id="text1466-1-1-6-7-9-1-4"
     style="font-style:normal;font-weight:normal;font-size:20.5898px;line-height:1.25;font-family:sans-serif;letter-spacing:0px;word-spacing:0px;fill:#000000;fill-opacity:1;stroke:none;stroke-width:0.514746">
    <path
       d="M 8.33,17.279045 H 7.2492365 v -0.06032 C 7.8189412,16.206662 7.75,14.745537 7.75,12.83535 L 7.691595,12.80519 7.2190752,13.689908 c -0.5697047,0.891421 -1.2801601,1.337131 -2.131366,1.337131 -1.2533505,0 -2.1347172,-0.700402 -2.6441003,-2.101205 L 2.3531273,12.19192 v -0.462466 c 0,-1.226541 0.6266752,-2.5201061 1.8800257,-3.8806951 C 5.5901372,5.997514 7.1926804,4.2483581 8.33,2.279054 Z m 0,0 h 1.0807635 v -0.06032 C 8.8410588,16.206662 8.91,14.745537 8.91,12.83535 l 0.058405,-0.03016 0.4725198,0.884718 c 0.5697052,0.891421 1.2801602,1.337131 2.1313662,1.337131 1.25335,0 2.134717,-0.700402 2.6441,-2.101205 l 0.09048,-0.733914 v -0.462466 c 0,-1.226541 -0.626675,-2.5201061 -1.880026,-3.8806951 C 11.069863,5.997514 9.4673196,4.2483581 8.33,2.279054 Z"
       style="stroke-width:0.514746"
       id="path2364-7-6"
       sodipodi:nodetypes="ccccccsccsccc" />
  </g>
  <g
     style="font-style:normal;font-weight:normal;font-size:20.5898px;line-height:1.25;font-family:sans-serif;letter-spacing:0px;word-spacing:0px;fill:#000000;fill-opacity:1;stroke:none;stroke-width:0.514746"
     id="text1466-1-1-6-7-9-1-7-92"
     aria-label="♠"
     transform="translate(33.320003,34.083808)">
    <path
       sodipodi:nodetypes="ccccccsccsccc"
       id="path2364-7-4-2"
       style="stroke-width:0.514746"
       d="M 8.33,17.279045 H 7.2492365 v -0.06032 C 7.8189412,16.206662 7.75,14.745537 7.75,12.83535 L 7.691595,12.80519 7.2190752,13.689908 c -0.5697047,0.891421 -1.2801601,1.337131 -2.131366,1.337131 -1.2533505,0 -2.1347172,-0.700402 -2.6441003,-2.101205 L 2.3531273,12.19192 v -0.462466 c 0,-1.226541 0.6266752,-2.5201061 1.8800257,-3.8806951 C 5.5901372,5.997514 7.1926804,4.2483581 8.33,2.279054 Z m 0,0 h 1.0807635 v -0.06032 C 8.8410588,16.206662 8.91,14.745537 8.91,12.83535 l 0.058405,-0.03016 0.4725198,0.884718 c 0.5697052,0.891421 1.2801602,1.337131 2.1313662,1.337131 1.25335,0 2.134717,-0.700402 2.6441,-2.101205 l 0.09048,-0.733914 v -0.462466 c 0,-1.226541 -0.626675,-2.5201061 -1.880026,-3.8806951 C 11.069863,5.997514 9.4673196,4.2483581 8.33,2.279054 Z" />
  </g>
  <g
     transform="translate(49.979998,34.083808)"
     aria-label="♠"
     id="text1466-1-1-6-7-9-18-4"
     style="font-style:normal;font-weight:normal;font-size:20.5898px;line-height:1.25;font-family:sans-serif;letter-spacing:0px;word-spacing:0px;fill:#000000;fill-opacity:1;stroke:none;stroke-width:0.514746">
    <path
       d="M 8.33,17.279045 H 7.2492365 v -0.06032 C 7.8189412,16.206662 7.75,14.745537 7.75,12.83535 L 7.691595,12.80519 7.2190752,13.689908 c -0.5697047,0.891421 -1.2801601,1.337131 -2.131366,1.337131 -1.2533505,0 -2.1347172,-0.700402 -2.6441003,-2.101205 L 2.3531273,12.19192 v -0.462466 c 0,-1.226541 0.6266752,-2.5201061 1.8800257,-3.8806951 C 5.5901372,5.997514 7.1926804,4.2483581 8.33,2.279054 Z m 0,0 h 1.0807635 v -0.06032 C 8.8410588,16.206662 8.91,14.745537 8.91,12.83535 l 0.058405,-0.03016 0.4725198,0.884718 c 0.5697052,0.891421 1.2801602,1.337131 2.1313662,1.337131 1.25335,0 2.134717,-0.700402 2.6441,-2.101205 l 0.09048,-0.733914 v -0.462466 c 0,-1.226541 -0.626675,-2.5201061 -1.880026,-3.8806951 C 11.069863,5.997514 9.4673196,4.2483581 8.33,2.279054 Z"
       style="stroke-width:0.514746"
       id="path2364-5-7"
       sodipodi:nodetypes="ccccccsccsccc" />
  </g>
  <g
     style="font-style:normal;font-weight:normal;font-size:20.5898px;line-height:1.25;font-family:sans-serif;letter-spacing:0px;word-spacing:0px;fill:#000000;fill-opacity:1;stroke:none;stroke-width:0.514746"
     id="text1466-1-1-6-7-9-1-9-7"
     aria-label="♠"
     transform="translate(66.64,34.083808)">
    <path
       sodipodi:nodetypes="ccccccsccsccc"
       id="path2364-7-7-5"
       style="stroke-width:0.514746"
       d="M 8.33,17.279045 H 7.2492365 v -0.06032 C 7.8189412,16.206662 7.75,14.745537 7.75,12.83535 L 7.691595,12.80519 7.2190752,13.689908 c -0.5697047,0.891421 -1.2801601,1.337131 -2.131366,1.337131 -1.2533505,0 -2.1347172,-0.700402 -2.6441003,-2.101205 L 2.3531273,12.19192 v -0.462466 c 0,-1.226541 0.6266752,-2.5201061 1.8800257,-3.8806951 C 5.5901372,5.997514 7.1926804,4.2483581 8.33,2.279054 Z m 0,0 h 1.0807635 v -0.06032 C 8.8410588,16.206662 8.91,14.745537 8.91,12.83535 l 0.058405,-0.03016 0.4725198,0.884718 c 0.5697052,0.891421 1.2801602,1.337131 2.1313662,1.337131 1.25335,0 2.134717,-0.700402 2.6441,-2.101205 l 0.09048,-0.733914 v -0.462466 c 0,-1.226541 -0.626675,-2.5201061 -1.880026,-3.8806951 C 11.069863,5.997514 9.4673196,4.2483581 8.33,2.279054 Z" />
  </g>
  <g
     transform="translate(83.299995,34.083808)"
     aria-label="♠"
     id="text1466-1-1-6-7-9-1-7-9-4"
     style="font-style:normal;font-weight:normal;font-size:20.5898px;line-height:1.25;font-family:sans-serif;letter-spacing:0px;word-spacing:0px;fill:#000000;fill-opacity:1;stroke:none;stroke-width:0.514746">
    <path
       d="M 8.33,17.279045 H 7.2492365 v -0.06032 C 7.8189412,16.206662 7.75,14.745537 7.75,12.83535 L 7.691595,12.80519 7.2190752,13.689908 c -0.5697047,0.891421 -1.2801601,1.337131 -2.131366,1.337131 -1.2533505,0 -2.1347172,-0.700402 -2.6441003,-2.101205 L 2.3531273,12.19192 v -0.462466 c 0,-1.226541 0.6266752,-2.5201061 1.8800257,-3.8806951 C 5.5901372,5.997514 7.1926804,4.2483581 8.33,2.279054 Z m 0,0 h 1.0807635 v -0.06032 C 8.8410588,16.206662 8.91,14.745537 8.91,12.83535 l 0.058405,-0.03016 0.4725198,0.884718 c 0.5697052,0.891421 1.2801602,1.337131 2.1313662,1.337131 1.25335,0 2.134717,-0.700402 2.6441,-2.101205 l 0.09048,-0.733914 v -0.462466 c 0,-1.226541 -0.626675,-2.5201061 -1.880026,-3.8806951 C 11.069863,5.997514 9.4673196,4.2483581 8.33,2.279054 Z"
       style="stroke-width:0.514746"
       id="path2364-7-4-6-8"
       sodipodi:nodetypes="ccccccsccsccc" />
  </g>
  <g
     style="font-style:normal;font-weight:normal;font-size:20.5898px;line-height:1.25;font-family:sans-serif;letter-spacing:0px;word-spacing:0px;fill:#000000;fill-opacity:1;stroke:none;stroke-width:0.514746"
     id="text1466-1-1-6-7-9-5-8-1"
     aria-label="♠"
     transform="matrix(-1,0,0,1,108.28957,51.125712)">
    <path
       sodipodi:nodetypes="ccccccsccsccc"
       id="path2364-9-6-2"
       style="stroke-width:0.514746"
       d="M 8.33,17.279045 H 7.2492365 v -0.06032 C 7.8189412,16.206662 7.75,14.745537 7.75,12.83535 L 7.691595,12.80519 7.2190752,13.689908 c -0.5697047,0.891421 -1.2801601,1.337131 -2.131366,1.337131 -1.2533505,0 -2.1347172,-0.700402 -2.6441003,-2.101205 L 2.3531273,12.19192 v -0.462466 c 0,-1.226541 0.6266752,-2.5201061 1.8800257,-3.8806951 C 5.5901372,5.997514 7.1926804,4.2483581 8.33,2.279054 Z m 0,0 h 1.0807635 v -0.06032 C 8.8410588,16.206662 8.91,14.745537 8.91,12.83535 l 0.058405,-0.03016 0.4725198,0.884718 c 0.5697052,0.891421 1.2801602,1.337131 2.1313662,1.337131 1.25335,0 2.134717,-0.700402 2.6441,-2.101205 l 0.09048,-0.733914 v -0.462466 c 0,-1.226541 -0.626675,-2.5201061 -1.880026,-3.8806951 C 11.069863,5.997514 9.4673196,4.2483581 8.33,2.279054 Z" />
  </g>
  <g
     style="font-style:normal;font-weight:normal;font-size:20.5898px;line-height:1.25;font-family:sans-serif;letter-spacing:0px;word-spacing:0px;fill:#000000;fill-opacity:1;stroke:none;stroke-width:0.514746"
     id="text1466-1-1-6-7-9-5-88-8"
     aria-label="♠"
     transform="matrix(-1,0,0,1,91.629638,51.125712)">
    <path
       sodipodi:nodetypes="ccccccsccsccc"
       id="path2364-9-8-9"
       style="stroke-width:0.514746"
       d="M 8.33,17.279045 H 7.2492365 v -0.06032 C 7.8189412,16.206662 7.75,14.745537 7.75,12.83535 L 7.691595,12.80519 7.2190752,13.689908 c -0.5697047,0.891421 -1.2801601,1.337131 -2.131366,1.337131 -1.2533505,0 -2.1347172,-0.700402 -2.6441003,-2.101205 L 2.3531273,12.19192 v -0.462466 c 0,-1.226541 0.6266752,-2.5201061 1.8800257,-3.8806951 C 5.5901372,5.997514 7.1926804,4.2483581 8.33,2.279054 Z m 0,0 h 1.0807635 v -0.06032 C 8.8410588,16.206662 8.91,14.745537 8.91,12.83535 l 0.058405,-0.03016 0.4725198,0.884718 c 0.5697052,0.891421 1.2801602,1.337131 2.1313662,1.337131 1.25335,0 2.134717,-0.700402 2.6441,-2.101205 l 0.09048,-0.733914 v -0.462466 c 0,-1.226541 -0.626675,-2.5201061 -1.880026,-3.8806951 C 11.069863,5.997514 9.4673196,4.2483581 8.33,2.279054 Z" />
  </g>
  <g
     transform="matrix(-1,0,0,1,74.96971,51.125712)"
     aria-label="♠"
     id="text1466-1-1-6-7-9-5-8-7-3"
     style="font-style:normal;font-weight:normal;font-size:20.5898px;line-height:1.25;font-family:sans-serif;letter-spacing:0px;word-spacing:0px;fill:#000000;fill-opacity:1;stroke:none;stroke-width:0.514746">
    <path
       d="M 8.33,17.279045 H 7.2492365 v -0.06032 C 7.8189412,16.206662 7.75,14.745537 7.75,12.83535 L 7.691595,12.80519 7.2190752,13.689908 c -0.5697047,0.891421 -1.2801601,1.337131 -2.131366,1.337131 -1.2533505,0 -2.1347172,-0.700402 -2.6441003,-2.101205 L 2.3531273,12.19192 v -0.462466 c 0,-1.226541 0.6266752,-2.5201061 1.8800257,-3.8806951 C 5.5901372,5.997514 7.1926804,4.2483581 8.33,2.279054 Z m 0,0 h 1.0807635 v -0.06032 C 8.8410588,16.206662 8.91,14.745537 8.91,12.83535 l 0.058405,-0.03016 0.4725198,0.884718 c 0.5697052,0.891421 1.2801602,1.337131 2.1313662,1.337131 1.25335,0 2.134717,-0.700402 2.6441,-2.101205 l 0.09048,-0.733914 v -0.462466 c 0,-1.226541 -0.626675,-2.5201061 -1.880026,-3.8806951 C 11.069863,5.997514 9.4673196,4.2483581 8.33,2.279054 Z"
       style="stroke-width:0.514746"
       id="path2364-9-6-6-6"
       sodipodi:nodetypes="ccccccsccsccc" />
  </g>
  <g
     style="font-style:normal;font-weight:normal;font-size:20.5898px;line-height:1.25;font-family:sans-serif;letter-spacing:0px;word-spacing:0px;fill:#000000;fill-opacity:1;stroke:none;stroke-width:0.514746"
     id="text1466-1-1-6-7-9-5-4-8"
     aria-label="♠"
     transform="matrix(-1,0,0,1,58.309781,51.125712)">
    <path
       sodipodi:nodetypes="ccccccsccsccc"
       id="path2364-9-3-0"
       style="stroke-width:0.514746"
       d="M 8.33,17.279045 H 7.2492365 v -0.06032 C 7.8189412,16.206662 7.75,14.745537 7.75,12.83535 L 7.691595,12.80519 7.2190752,13.689908 c -0.5697047,0.891421 -1.2801601,1.337131 -2.131366,1.337131 -1.2533505,0 -2.1347172,-0.700402 -2.6441003,-2.101205 L 2.3531273,12.19192 v -0.462466 c 0,-1.226541 0.6266752,-2.5201061 1.8800257,-3.8806951 C 5.5901372,5.997514 7.1926804,4.2483581 8.33,2.279054 Z m 0,0 h 1.0807635 v -0.06032 C 8.8410588,16.206662 8.91,14.745537 8.91,12.83535 l 0.058405,-0.03016 0.4725198,0.884718 c 0.5697052,0.891421 1.2801602,1.337131 2.1313662,1.337131 1.25335,0 2.134717,-0.700402 2.6441,-2.101205 l 0.09048,-0.733914 v -0.462466 c 0,-1.226541 -0.626675,-2.5201061 -1.880026,-3.8806951 C 11.069863,5.997514 9.4673196,4.2483581 8.33,2.279054 Z" />
  </g>
  <g
     transform="matrix(-1,0,0,1,41.649853,51.125712)"
     aria-label="♠"
     id="text1466-1-1-6-7-9-5-8-0-2"
     style="font-style:normal;font-weight:normal;font-size:20.5898px;line-height:1.25;font-family:sans-serif;letter-spacing:0px;word-spacing:0px;fill:#000000;fill-opacity:1;stroke:none;stroke-width:0.514746">
    <path
       d="M 8.33,17.279045 H 7.2492365 v -0.06032 C 7.8189412,16.206662 7.75,14.745537 7.75,12.83535 L 7.691595,12.80519 7.2190752,13.689908 c -0.5697047,0.891421 -1.2801601,1.337131 -2.131366,1.337131 -1.2533505,0 -2.1347172,-0.700402 -2.6441003,-2.101205 L 2.3531273,12.19192 v -0.462466 c 0,-1.226541 0.6266752,-2.5201061 1.8800257,-3.8806951 C 5.5901372,5.997514 7.1926804,4.2483581 8.33,2.279054 Z m 0,0 h 1.0807635 v -0.06032 C 8.8410588,16.206662 8.91,14.745537 8.91,12.83535 l 0.058405,-0.03016 0.4725198,0.884718 c 0.5697052,0.891421 1.2801602,1.337131 2.1313662,1.337131 1.25335,0 2.134717,-0.700402 2.6441,-2.101205 l 0.09048,-0.733914 v -0.462466 c 0,-1.226541 -0.626675,-2.5201061 -1.880026,-3.8806951 C 11.069863,5.997514 9.4673196,4.2483581 8.33,2.279054 Z"
       style="stroke-width:0.514746"
       id="path2364-9-6-9-1"
       sodipodi:nodetypes="ccccccsccsccc" />
  </g>
  <g
     transform="matrix(-1,0,0,1,24.989929,51.125712)"
     aria-label="♠"
     id="text1466-1-1-6-7-9-5-88-2-0"
     style="font-style:normal;font-weight:normal;font-size:20.5898px;line-height:1.25;font-family:sans-serif;letter-spacing:0px;word-spacing:0px;fill:#000000;fill-opacity:1;stroke:none;stroke-width:0.514746">
    <path
       d="M 8.33,17.279045 H 7.2492365 v -0.06032 C 7.8189412,16.206662 7.75,14.745537 7.75,12.83535 L 7.691595,12.80519 7.2190752,13.689908 c -0.5697047,0.891421 -1.2801601,1.337131 -2.131366,1.337131 -1.2533505,0 -2.1347172,-0.700402 -2.6441003,-2.101205 L 2.3531273,12.19192 v -0.462466 c 0,-1.226541 0.6266752,-2.5201061 1.8800257,-3.8806951 C 5.5901372,5.997514 7.1926804,4.2483581 8.33,2.279054 Z m 0,0 h 1.0807635 v -0.06032 C 8.8410588,16.206662 8.91,14.745537 8.91,12.83535 l 0.058405,-0.03016 0.4725198,0.884718 c 0.5697052,0.891421 1.2801602,1.337131 2.1313662,1.337131 1.25335,0 2.134717,-0.700402 2.6441,-2.101205 l 0.09048,-0.733914 v -0.462466 c 0,-1.226541 -0.626675,-2.5201061 -1.880026,-3.8806951 C 11.069863,5.997514 9.4673196,4.2483581 8.33,2.279054 Z"
       style="stroke-width:0.514746"
       id="path2364-9-8-5-5"
       sodipodi:nodetypes="ccccccsccsccc" />
  </g>
  <g
     style="font-style:normal;font-weight:normal;font-size:20.5898px;line-height:1.25;font-family:sans-serif;letter-spacing:0px;word-spacing:0px;fill:#000000;fill-opacity:1;stroke:none;stroke-width:0.514746"
     id="text1466-1-1-6-7-9-5-8-7-4-1"
     aria-label="♠"
     transform="matrix(-1,0,0,1,8.3299992,51.125712)">
    <path
       sodipodi:nodetypes="ccccccsccsccc"
       id="path2364-9-6-6-0-1"
       style="stroke-width:0.514746"
       d="M 8.33,17.279045 H 7.2492365 v -0.06032 C 7.8189412,16.206662 7.75,14.745537 7.75,12.83535 L 7.691595,12.80519 7.2190752,13.689908 c -0.5697047,0.891421 -1.2801601,1.337131 -2.131366,1.337131 -1.2533505,0 -2.1347172,-0.700402 -2.6441003,-2.101205 L 2.3531273,12.19192 v -0.462466 c 0,-1.226541 0.6266752,-2.5201061 1.8800257,-3.8806951 C 5.5901372,5.997514 7.1926804,4.2483581 8.33,2.279054 Z m 0,0 h 1.0807635 v -0.06032 C 8.8410588,16.206662 8.91,14.745537 8.91,12.83535 l 0.058405,-0.03016 0.4725198,0.884718 c 0.5697052,0.891421 1.2801602,1.337131 2.1313662,1.337131 1.25335,0 2.134717,-0.700402 2.6441,-2.101205 l 0.09048,-0.733914 v -0.462466 c 0,-1.226541 -0.626675,-2.5201061 -1.880026,-3.8806951 C 11.069863,5.997514 9.4673196,4.2483581 8.33,2.279054 Z" />
  </g>
  <g
     style="font-style:normal;font-weight:normal;font-size:20.5898px;line-height:1.25;font-family:sans-serif;letter-spacing:0px;word-spacing:0px;fill:#000000;fill-opacity:1;stroke:none;stroke-width:0.514746"
     id="text1466-1-1-6-7-9-0"
     aria-label="♠"
     transform="translate(0,68.167614)">
    <path
       sodipodi:nodetypes="ccccccsccsccc"
       id="path2364-8"
       style="stroke-width:0.514746"
       d="M 8.33,17.279045 H 7.2492365 v -0.06032 C 7.8189412,16.206662 7.75,14.745537 7.75,12.83535 L 7.691595,12.80519 7.2190752,13.689908 c -0.5697047,0.891421 -1.2801601,1.337131 -2.131366,1.337131 -1.2533505,0 -2.1347172,-0.700402 -2.6441003,-2.101205 L 2.3531273,12.19192 v -0.462466 c 0,-1.226541 0.6266752,-2.5201061 1.8800257,-3.8806951 C 5.5901372,5.997514 7.1926804,4.2483581 8.33,2.279054 Z m 0,0 h 1.0807635 v -0.06032 C 8.8410588,16.206662 8.91,14.745537 8.91,12.83535 l 0.058405,-0.03016 0.4725198,0.884718 c 0.5697052,0.891421 1.2801602,1.337131 2.1313662,1.337131 1.25335,0 2.134717,-0.700402 2.6441,-2.101205 l 0.09048,-0.733914 v -0.462466 c 0,-1.226541 -0.626675,-2.5201061 -1.880026,-3.8806951 C 11.069863,5.997514 9.4673196,4.2483581 8.33,2.279054 Z" />
  </g>
  <g
     transform="translate(16.66,68.167614)"
     aria-label="♠"
     id="text1466-1-1-6-7-9-1-5"
     style="font-style:normal;font-weight:normal;font-size:20.5898px;line-height:1.25;font-family:sans-serif;letter-spacing:0px;word-spacing:0px;fill:#000000;fill-opacity:1;stroke:none;stroke-width:0.514746">
    <path
       d="M 8.33,17.279045 H 7.2492365 v -0.06032 C 7.8189412,16.206662 7.75,14.745537 7.75,12.83535 L 7.691595,12.80519 7.2190752,13.689908 c -0.5697047,0.891421 -1.2801601,1.337131 -2.131366,1.337131 -1.2533505,0 -2.1347172,-0.700402 -2.6441003,-2.101205 L 2.3531273,12.19192 v -0.462466 c 0,-1.226541 0.6266752,-2.5201061 1.8800257,-3.8806951 C 5.5901372,5.997514 7.1926804,4.2483581 8.33,2.279054 Z m 0,0 h 1.0807635 v -0.06032 C 8.8410588,16.206662 8.91,14.745537 8.91,12.83535 l 0.058405,-0.03016 0.4725198,0.884718 c 0.5697052,0.891421 1.2801602,1.337131 2.1313662,1.337131 1.25335,0 2.134717,-0.700402 2.6441,-2.101205 l 0.09048,-0.733914 v -0.462466 c 0,-1.226541 -0.626675,-2.5201061 -1.880026,-3.8806951 C 11.069863,5.997514 9.4673196,4.2483581 8.33,2.279054 Z"
       style="stroke-width:0.514746"
       id="path2364-7-0"
       sodipodi:nodetypes="ccccccsccsccc" />
  </g>
  <g
     style="font-style:normal;font-weight:normal;font-size:20.5898px;line-height:1.25;font-family:sans-serif;letter-spacing:0px;word-spacing:0px;fill:#000000;fill-opacity:1;stroke:none;stroke-width:0.514746"
     id="text1466-1-1-6-7-9-1-7-6"
     aria-label="♠"
     transform="translate(33.320003,68.167614)">
    <path
       sodipodi:nodetypes="ccccccsccsccc"
       id="path2364-7-4-4"
       style="stroke-width:0.514746"
       d="M 8.33,17.279045 H 7.2492365 v -0.06032 C 7.8189412,16.206662 7.75,14.745537 7.75,12.83535 L 7.691595,12.80519 7.2190752,13.689908 c -0.5697047,0.891421 -1.2801601,1.337131 -2.131366,1.337131 -1.2533505,0 -2.1347172,-0.700402 -2.6441003,-2.101205 L 2.3531273,12.19192 v -0.462466 c 0,-1.226541 0.6266752,-2.5201061 1.8800257,-3.8806951 C 5.5901372,5.997514 7.1926804,4.2483581 8.33,2.279054 Z m 0,0 h 1.0807635 v -0.06032 C 8.8410588,16.206662 8.91,14.745537 8.91,12.83535 l 0.058405,-0.03016 0.4725198,0.884718 c 0.5697052,0.891421 1.2801602,1.337131 2.1313662,1.337131 1.25335,0 2.134717,-0.700402 2.6441,-2.101205 l 0.09048,-0.733914 v -0.462466 c 0,-1.226541 -0.626675,-2.5201061 -1.880026,-3.8806951 C 11.069863,5.997514 9.4673196,4.2483581 8.33,2.279054 Z" />
  </g>
  <g
     transform="translate(49.979998,68.167614)"
     aria-label="♠"
     id="text1466-1-1-6-7-9-18-6"
     style="font-style:normal;font-weight:normal;font-size:20.5898px;line-height:1.25;font-family:sans-serif;letter-spacing:0px;word-spacing:0px;fill:#000000;fill-opacity:1;stroke:none;stroke-width:0.514746">
    <path
       d="M 8.33,17.279045 H 7.2492365 v -0.06032 C 7.8189412,16.206662 7.75,14.745537 7.75,12.83535 L 7.691595,12.80519 7.2190752,13.689908 c -0.5697047,0.891421 -1.2801601,1.337131 -2.131366,1.337131 -1.2533505,0 -2.1347172,-0.700402 -2.6441003,-2.101205 L 2.3531273,12.19192 v -0.462466 c 0,-1.226541 0.6266752,-2.5201061 1.8800257,-3.8806951 C 5.5901372,5.997514 7.1926804,4.2483581 8.33,2.279054 Z m 0,0 h 1.0807635 v -0.06032 C 8.8410588,16.206662 8.91,14.745537 8.91,12.83535 l 0.058405,-0.03016 0.4725198,0.884718 c 0.5697052,0.891421 1.2801602,1.337131 2.1313662,1.337131 1.25335,0 2.134717,-0.700402 2.6441,-2.101205 l 0.09048,-0.733914 v -0.462466 c 0,-1.226541 -0.626675,-2.5201061 -1.880026,-3.8806951 C 11.069863,5.997514 9.4673196,4.2483581 8.33,2.279054 Z"
       style="stroke-width:0.514746"
       id="path2364-5-2"
       sodipodi:nodetypes="ccccccsccsccc" />
  </g>
  <g
     style="font-style:normal;font-weight:normal;font-size:20.5898px;line-height:1.25;font-family:sans-serif;letter-spacing:0px;word-spacing:0px;fill:#000000;fill-opacity:1;stroke:none;stroke-width:0.514746"
     id="text1466-1-1-6-7-9-1-9-5"
     aria-label="♠"
     transform="translate(66.64,68.167614)">
    <path
       sodipodi:nodetypes="ccccccsccsccc"
       id="path2364-7-7-8"
       style="stroke-width:0.514746"
       d="M 8.33,17.279045 H 7.2492365 v -0.06032 C 7.8189412,16.206662 7.75,14.745537 7.75,12.83535 L 7.691595,12.80519 7.2190752,13.689908 c -0.5697047,0.891421 -1.2801601,1.337131 -2.131366,1.337131 -1.2533505,0 -2.1347172,-0.700402 -2.6441003,-2.101205 L 2.3531273,12.19192 v -0.462466 c 0,-1.226541 0.6266752,-2.5201061 1.8800257,-3.8806951 C 5.5901372,5.997514 7.1926804,4.2483581 8.33,2.279054 Z m 0,0 h 1.0807635 v -0.06032 C 8.8410588,16.206662 8.91,14.745537 8.91,12.83535 l 0.058405,-0.03016 0.4725198,0.884718 c 0.5697052,0.891421 1.2801602,1.337131 2.1313662,1.337131 1.25335,0 2.134717,-0.700402 2.6441,-2.101205 l 0.09048,-0.733914 v -0.462466 c 0,-1.226541 -0.626675,-2.5201061 -1.880026,-3.8806951 C 11.069863,5.997514 9.4673196,4.2483581 8.33,2.279054 Z" />
  </g>
  <g
     transform="translate(83.299995,68.167614)"
     aria-label="♠"
     id="text1466-1-1-6-7-9-1-7-9-6"
     style="font-style:normal;font-weight:normal;font-size:20.5898px;line-height:1.25;font-family:sans-serif;letter-spacing:0px;word-spacing:0px;fill:#000000;fill-opacity:1;stroke:none;stroke-width:0.514746">
    <path
       d="M 8.33,17.279045 H 7.2492365 v -0.06032 C 7.8189412,16.206662 7.75,14.745537 7.75,12.83535 L 7.691595,12.80519 7.2190752,13.689908 c -0.5697047,0.891421 -1.2801601,1.337131 -2.131366,1.337131 -1.2533505,0 -2.1347172,-0.700402 -2.6441003,-2.101205 L 2.3531273,12.19192 v -0.462466 c 0,-1.226541 0.6266752,-2.5201061 1.8800257,-3.8806951 C 5.5901372,5.997514 7.1926804,4.2483581 8.33,2.279054 Z m 0,0 h 1.0807635 v -0.06032 C 8.8410588,16.206662 8.91,14.745537 8.91,12.83535 l 0.058405,-0.03016 0.4725198,0.884718 c 0.5697052,0.891421 1.2801602,1.337131 2.1313662,1.337131 1.25335,0 2.134717,-0.700402 2.6441,-2.101205 l 0.09048,-0.733914 v -0.462466 c 0,-1.226541 -0.626675,-2.5201061 -1.880026,-3.8806951 C 11.069863,5.997514 9.4673196,4.2483581 8.33,2.279054 Z"
       style="stroke-width:0.514746"
       id="path2364-7-4-6-2"
       sodipodi:nodetypes="ccccccsccsccc" />
  </g>
  <g
     style="font-style:normal;font-weight:normal;font-size:20.5898px;line-height:1.25;font-family:sans-serif;letter-spacing:0px;word-spacing:0px;fill:#000000;fill-opacity:1;stroke:none;stroke-width:0.514746"
     id="text1466-1-1-6-7-9-5-8-8"
     aria-label="♠"
     transform="matrix(-1,0,0,1,108.28957,85.209515)">
    <path
       sodipodi:nodetypes="ccccccsccsccc"
       id="path2364-9-6-4"
       style="stroke-width:0.514746"
       d="M 8.33,17.279045 H 7.2492365 v -0.06032 C 7.8189412,16.206662 7.75,14.745537 7.75,12.83535 L 7.691595,12.80519 7.2190752,13.689908 c -0.5697047,0.891421 -1.2801601,1.337131 -2.131366,1.337131 -1.2533505,0 -2.1347172,-0.700402 -2.6441003,-2.101205 L 2.3531273,12.19192 v -0.462466 c 0,-1.226541 0.6266752,-2.5201061 1.8800257,-3.8806951 C 5.5901372,5.997514 7.1926804,4.2483581 8.33,2.279054 Z m 0,0 h 1.0807635 v -0.06032 C 8.8410588,16.206662 8.91,14.745537 8.91,12.83535 l 0.058405,-0.03016 0.4725198,0.884718 c 0.5697052,0.891421 1.2801602,1.337131 2.1313662,1.337131 1.25335,0 2.134717,-0.700402 2.6441,-2.101205 l 0.09048,-0.733914 v -0.462466 c 0,-1.226541 -0.626675,-2.5201061 -1.880026,-3.8806951 C 11.069863,5.997514 9.4673196,4.2483581 8.33,2.279054 Z" />
  </g>
  <g
     style="font-style:normal;font-weight:normal;font-size:20.5898px;line-height:1.25;font-family:sans-serif;letter-spacing:0px;word-spacing:0px;fill:#000000;fill-opacity:1;stroke:none;stroke-width:0.514746"
     id="text1466-1-1-6-7-9-5-88-7"
     aria-label="♠"
     transform="matrix(-1,0,0,1,91.629638,85.209515)">
    <path
       sodipodi:nodetypes="ccccccsccsccc"
       id="path2364-9-8-2"
       style="stroke-width:0.514746"
       d="M 8.33,17.279045 H 7.2492365 v -0.06032 C 7.8189412,16.206662 7.75,14.745537 7.75,12.83535 L 7.691595,12.80519 7.2190752,13.689908 c -0.5697047,0.891421 -1.2801601,1.337131 -2.131366,1.337131 -1.2533505,0 -2.1347172,-0.700402 -2.6441003,-2.101205 L 2.3531273,12.19192 v -0.462466 c 0,-1.226541 0.6266752,-2.5201061 1.8800257,-3.8806951 C 5.5901372,5.997514 7.1926804,4.2483581 8.33,2.279054 Z m 0,0 h 1.0807635 v -0.06032 C 8.8410588,16.206662 8.91,14.745537 8.91,12.83535 l 0.058405,-0.03016 0.4725198,0.884718 c 0.5697052,0.891421 1.2801602,1.337131 2.1313662,1.337131 1.25335,0 2.134717,-0.700402 2.6441,-2.101205 l 0.09048,-0.733914 v -0.462466 c 0,-1.226541 -0.626675,-2.5201061 -1.880026,-3.8806951 C 11.069863,5.997514 9.4673196,4.2483581 8.33,2.279054 Z" />
  </g>
  <g
     transform="matrix(-1,0,0,1,74.96971,85.209515)"
     aria-label="♠"
     id="text1466-1-1-6-7-9-5-8-7-40"
     style="font-style:normal;font-weight:normal;font-size:20.5898px;line-height:1.25;font-family:sans-serif;letter-spacing:0px;word-spacing:0px;fill:#000000;fill-opacity:1;stroke:none;stroke-width:0.514746">
    <path
       d="M 8.33,17.279045 H 7.2492365 v -0.06032 C 7.8189412,16.206662 7.75,14.745537 7.75,12.83535 L 7.691595,12.80519 7.2190752,13.689908 c -0.5697047,0.891421 -1.2801601,1.337131 -2.131366,1.337131 -1.2533505,0 -2.1347172,-0.700402 -2.6441003,-2.101205 L 2.3531273,12.19192 v -0.462466 c 0,-1.226541 0.6266752,-2.5201061 1.8800257,-3.8806951 C 5.5901372,5.997514 7.1926804,4.2483581 8.33,2.279054 Z m 0,0 h 1.0807635 v -0.06032 C 8.8410588,16.206662 8.91,14.745537 8.91,12.83535 l 0.058405,-0.03016 0.4725198,0.884718 c 0.5697052,0.891421 1.2801602,1.337131 2.1313662,1.337131 1.25335,0 2.134717,-0.700402 2.6441,-2.101205 l 0.09048,-0.733914 v -0.462466 c 0,-1.226541 -0.626675,-2.5201061 -1.880026,-3.8806951 C 11.069863,5.997514 9.4673196,4.2483581 8.33,2.279054 Z"
       style="stroke-width:0.514746"
       id="path2364-9-6-6-62"
       sodipodi:nodetypes="ccccccsccsccc" />
  </g>
  <g
     style="font-style:normal;font-weight:normal;font-size:20.5898px;line-height:1.25;font-family:sans-serif;letter-spacing:0px;word-spacing:0px;fill:#000000;fill-opacity:1;stroke:none;stroke-width:0.514746"
     id="text1466-1-1-6-7-9-5-4-9"
     aria-label="♠"
     transform="matrix(-1,0,0,1,58.309781,85.209515)">
    <path
       sodipodi:nodetypes="ccccccsccsccc"
       id="path2364-9-3-9"
       style="stroke-width:0.514746"
       d="M 8.33,17.279045 H 7.2492365 v -0.06032 C 7.8189412,16.206662 7.75,14.745537 7.75,12.83535 L 7.691595,12.80519 7.2190752,13.689908 c -0.5697047,0.891421 -1.2801601,1.337131 -2.131366,1.337131 -1.2533505,0 -2.1347172,-0.700402 -2.6441003,-2.101205 L 2.3531273,12.19192 v -0.462466 c 0,-1.226541 0.6266752,-2.5201061 1.8800257,-3.8806951 C 5.5901372,5.997514 7.1926804,4.2483581 8.33,2.279054 Z m 0,0 h 1.0807635 v -0.06032 C 8.8410588,16.206662 8.91,14.745537 8.91,12.83535 l 0.058405,-0.03016 0.4725198,0.884718 c 0.5697052,0.891421 1.2801602,1.337131 2.1313662,1.337131 1.25335,0 2.134717,-0.700402 2.6441,-2.101205 l 0.09048,-0.733914 v -0.462466 c 0,-1.226541 -0.626675,-2.5201061 -1.880026,-3.8806951 C 11.069863,5.997514 9.4673196,4.2483581 8.33,2.279054 Z" />
  </g>
  <g
     transform="matrix(-1,0,0,1,41.649853,85.209515)"
     aria-label="♠"
     id="text1466-1-1-6-7-9-5-8-0-0"
     style="font-style:normal;font-weight:normal;font-size:20.5898px;line-height:1.25;font-family:sans-serif;letter-spacing:0px;word-spacing:0px;fill:#000000;fill-opacity:1;stroke:none;stroke-width:0.514746">
    <path
       d="M 8.33,17.279045 H 7.2492365 v -0.06032 C 7.8189412,16.206662 7.75,14.745537 7.75,12.83535 L 7.691595,12.80519 7.2190752,13.689908 c -0.5697047,0.891421 -1.2801601,1.337131 -2.131366,1.337131 -1.2533505,0 -2.1347172,-0.700402 -2.6441003,-2.101205 L 2.3531273,12.19192 v -0.462466 c 0,-1.226541 0.6266752,-2.5201061 1.8800257,-3.8806951 C 5.5901372,5.997514 7.1926804,4.2483581 8.33,2.279054 Z m 0,0 h 1.0807635 v -0.06032 C 8.8410588,16.206662 8.91,14.745537 8.91,12.83535 l 0.058405,-0.03016 0.4725198,0.884718 c 0.5697052,0.891421 1.2801602,1.337131 2.1313662,1.337131 1.25335,0 2.134717,-0.700402 2.6441,-2.101205 l 0.09048,-0.733914 v -0.462466 c 0,-1.226541 -0.626675,-2.5201061 -1.880026,-3.8806951 C 11.069863,5.997514 9.4673196,4.2483581 8.33,2.279054 Z"
       style="stroke-width:0.514746"
       id="path2364-9-6-9-8"
       sodipodi:nodetypes="ccccccsccsccc" />
  </g>
  <g
     transform="matrix(-1,0,0,1,24.989929,85.209515)"
     aria-label="♠"
     id="text1466-1-1-6-7-9-5-88-2-1"
     style="font-style:normal;font-weight:normal;font-size:20.5898px;line-height:1.25;font-family:sans-serif;letter-spacing:0px;word-spacing:0px;fill:#000000;fill-opacity:1;stroke:none;stroke-width:0.514746">
    <path
       d="M 8.33,17.279045 H 7.2492365 v -0.06032 C 7.8189412,16.206662 7.75,14.745537 7.75,12.83535 L 7.691595,12.80519 7.2190752,13.689908 c -0.5697047,0.891421 -1.2801601,1.337131 -2.131366,1.337131 -1.2533505,0 -2.1347172,-0.700402 -2.6441003,-2.101205 L 2.3531273,12.19192 v -0.462466 c 0,-1.226541 0.6266752,-2.5201061 1.8800257,-3.8806951 C 5.5901372,5.997514 7.1926804,4.2483581 8.33,2.279054 Z m 0,0 h 1.0807635 v -0.06032 C 8.8410588,16.206662 8.91,14.745537 8.91,12.83535 l 0.058405,-0.03016 0.4725198,0.884718 c 0.5697052,0.891421 1.2801602,1.337131 2.1313662,1.337131 1.25335,0 2.134717,-0.700402 2.6441,-2.101205 l 0.09048,-0.733914 v -0.462466 c 0,-1.226541 -0.626675,-2.5201061 -1.880026,-3.8806951 C 11.069863,5.997514 9.4673196,4.2483581 8.33,2.279054 Z"
       style="stroke-width:0.514746"
       id="path2364-9-8-5-3"
       sodipodi:nodetypes="ccccccsccsccc" />
  </g>
  <g
     style="font-style:normal;font-weight:normal;font-size:20.5898px;line-height:1.25;font-family:sans-serif;letter-spacing:0px;word-spacing:0px;fill:#000000;fill-opacity:1;stroke:none;stroke-width:0.514746"
     id="text1466-1-1-6-7-9-5-8-7-4-11"
     aria-label="♠"
     transform="matrix(-1,0,0,1,8.3299992,85.209515)">
    <path
       sodipodi:nodetypes="ccccccsccsccc"
       id="path2364-9-6-6-0-0"
       style="stroke-width:0.514746"
       d="M 8.33,17.279045 H 7.2492365 v -0.06032 C 7.8189412,16.206662 7.75,14.745537 7.75,12.83535 L 7.691595,12.80519 7.2190752,13.689908 c -0.5697047,0.891421 -1.2801601,1.337131 -2.131366,1.337131 -1.2533505,0 -2.1347172,-0.700402 -2.6441003,-2.101205 L 2.3531273,12.19192 v -0.462466 c 0,-1.226541 0.6266752,-2.5201061 1.8800257,-3.8806951 C 5.5901372,5.997514 7.1926804,4.2483581 8.33,2.279054 Z m 0,0 h 1.0807635 v -0.06032 C 8.8410588,16.206662 8.91,14.745537 8.91,12.83535 l 0.058405,-0.03016 0.4725198,0.884718 c 0.5697052,0.891421 1.2801602,1.337131 2.1313662,1.337131 1.25335,0 2.134717,-0.700402 2.6441,-2.101205 l 0.09048,-0.733914 v -0.462466 c 0,-1.226541 -0.626675,-2.5201061 -1.880026,-3.8806951 C 11.069863,5.997514 9.4673196,4.2483581 8.33,2.279054 Z" />
  </g>
</svg>
