<?xml version="1.0" encoding="UTF-8"?>
<svg version="1.1" viewBox="0 0 100 110" xmlns="http://www.w3.org/2000/svg" xmlns:cc="http://creativecommons.org/ns#" xmlns:dc="http://purl.org/dc/elements/1.1/" xmlns:rdf="http://www.w3.org/1999/02/22-rdf-syntax-ns#" xmlns:xlink="http://www.w3.org/1999/xlink">
 <metadata>
  <rdf:RDF>
   <cc:Work rdf:about="">
    <dc:format>image/svg+xml</dc:format>
    <dc:type rdf:resource="http://purl.org/dc/dcmitype/StillImage"/>
    <dc:title/>
   </cc:Work>
  </rdf:RDF>
 </metadata>
 <defs>
  <pattern id="pattern1883" patternTransform="matrix(1.3 0 0 .9421 49.98 -.4994)" xlink:href="#pattern914"/>
  <pattern id="pattern914" width="16.660504" height="34.320312" patternTransform="translate(41.65)" patternUnits="userSpaceOnUse">
   <rect width="16.66" height="34.32" opacity="0" stroke-width="15.13" style="paint-order:stroke fill markers"/>
   <g transform="translate(-8.329)" aria-label="♠">
    <path d="m8.33 17.28v-15zm0 0h1.081v-0.06032c-0.5697-1.012-0.5008-2.473-0.5008-4.383l0.0584-0.03016 0.4725 0.8847c0.5697 0.8914 1.28 1.337 2.131 1.337 1.253 0 2.135-0.7004 2.644-2.101l0.09048-0.7339v-0.4625c0-1.227-0.6267-2.52-1.88-3.881-1.357-1.851-2.96-3.6-4.097-5.57z" stroke-width=".5147"/>
   </g>
   <g transform="translate(8.331)" aria-label="♠">
    <path d="m8.33 17.28h-1.081v-0.06032c0.5697-1.012 0.5008-2.473 0.5008-4.383l-0.0584-0.03016-0.4725 0.8847c-0.5697 0.8914-1.28 1.337-2.131 1.337-1.253 0-2.135-0.7004-2.644-2.101l-0.09048-0.7339v-0.4625c0-1.227 0.6267-2.52 1.88-3.881 1.357-1.851 2.96-3.6 4.097-5.57zm0 0v-15z" stroke-width=".5147"/>
   </g>
   <g transform="matrix(-1 0 0 1 16.66 17.04)" aria-label="♠">
    <path transform="matrix(-1 0 0 1 58.31 -17.04)" d="m49.98 19.32c-1.137 1.969-2.741 3.719-4.098 5.57-1.253 1.361-1.881 2.654-1.881 3.881v0.4629l0.0918 0.7324c0.5094 1.401 1.391 2.102 2.645 2.102 0.8512 0 1.561-0.4445 2.131-1.336l0.4727-0.8848 0.05859 0.0293c0 1.91 0.06775 3.371-0.502 4.383v0.06055h2.162v-0.06055c-0.5697-1.012-0.5-2.473-0.5-4.383l0.05859-0.0293 0.4707 0.8848c0.5697 0.8914 1.282 1.336 2.133 1.336 1.253 0 2.133-0.7008 2.643-2.102l0.0918-0.7324v-0.4629c0-1.227-0.6275-2.52-1.881-3.881-1.357-1.851-2.958-3.601-4.096-5.57z" stroke-width=".5147"/>
   </g>
  </pattern>
 </defs>
 <rect x="-2.5" width="105" height="115" fill="url(#pattern1883)"/>
</svg>
