<?xml version="1.0" encoding="UTF-8"?>
<svg version="1.1" viewBox="0 0 100 110" xmlns="http://www.w3.org/2000/svg" xmlns:cc="http://creativecommons.org/ns#" xmlns:dc="http://purl.org/dc/elements/1.1/" xmlns:rdf="http://www.w3.org/1999/02/22-rdf-syntax-ns#" xmlns:xlink="http://www.w3.org/1999/xlink">
 <metadata>
  <rdf:RDF>
   <cc:Work rdf:about="">
    <dc:format>image/svg+xml</dc:format>
    <dc:type rdf:resource="http://purl.org/dc/dcmitype/StillImage"/>
    <dc:title/>
   </cc:Work>
  </rdf:RDF>
 </metadata>
 <defs>
  <pattern id="pattern3107" patternTransform="matrix(1.008 0 0 -.7327 49.75 -24.19)" xlink:href="#pattern2962"/>
  <pattern id="pattern2962" width="16.660004" height="33.953873" patternTransform="translate(41.65)" patternUnits="userSpaceOnUse">
   <g transform="translate(-41.65)">
    <rect x="41.65" width="16.66" height="33.95" fill-opacity="0" stroke-width="9.31" style="paint-order:stroke fill markers"/>
    <path transform="scale(-1,1)" d="m-41.65 2.646-1e-6 11.83-4.635 2.437 0.8853-5.161-3.75-3.655 5.182-0.753z" style="paint-order:markers fill stroke"/>
    <path transform="scale(-1,1)" d="m-49.98 19.69 2.318 4.696 5.182 0.753-3.75 3.655 0.8853 5.161-4.635-2.437-4.635 2.437 0.8853-5.161-3.75-3.655 5.182-0.753z" style="paint-order:markers fill stroke"/>
    <path d="m58.31 2.646-1e-6 11.83-4.635 2.437 0.8853-5.161-3.75-3.655 5.182-0.753z" style="paint-order:markers fill stroke"/>
   </g>
  </pattern>
 </defs>
 <g>
  <text x="-52.679455" y="21.611652" fill="#000000" font-family="monospace" font-size="16px" letter-spacing="0px" word-spacing="0px" style="font-feature-settings:normal;font-variant-caps:normal;font-variant-ligatures:normal;font-variant-numeric:normal;line-height:20px" xml:space="preserve"/>
  <text x="-52.414291" y="15.998991" fill="#000000" font-family="monospace" font-size="16px" letter-spacing="0px" word-spacing="0px" style="font-feature-settings:normal;font-variant-caps:normal;font-variant-ligatures:normal;font-variant-numeric:normal;line-height:20px" xml:space="preserve"/>
  <rect transform="scale(1,-1)" x="-5" y="-115" width="110" height="115" fill="url(#pattern3107)" opacity=".9939" stroke-width="55.24" style="paint-order:stroke fill markers"/>
 </g>
</svg>
