<?xml version="1.0" encoding="UTF-8" standalone="no"?>
<svg
   xmlns:dc="http://purl.org/dc/elements/1.1/"
   xmlns:cc="http://creativecommons.org/ns#"
   xmlns:rdf="http://www.w3.org/1999/02/22-rdf-syntax-ns#"
   xmlns:svg="http://www.w3.org/2000/svg"
   xmlns="http://www.w3.org/2000/svg"
   xmlns:sodipodi="http://sodipodi.sourceforge.net/DTD/sodipodi-0.dtd"
   xmlns:inkscape="http://www.inkscape.org/namespaces/inkscape"
   viewBox="0 0 100 110"
   version="1.1"
   id="svg36"
   sodipodi:docname="semy.svg"
   inkscape:version="0.92.4 (5da689c313, 2019-01-14)">
  <metadata
     id="metadata42">
    <rdf:RDF>
      <cc:Work
         rdf:about="">
        <dc:format>image/svg+xml</dc:format>
        <dc:type
           rdf:resource="http://purl.org/dc/dcmitype/StillImage" />
        <dc:title></dc:title>
      </cc:Work>
    </rdf:RDF>
  </metadata>
  <defs
     id="defs40">
    <clipPath
       id="ordi2-0">
      <circle
         cx="204.90433"
         cy="21.921255"
         r="3.75"
         id="circle19-4" />
      <circle
         cx="204.90433"
         cy="81.921257"
         r="3.75"
         id="circle21-8" />
      <circle
         cx="174.90433"
         cy="51.921257"
         r="3.75"
         id="circle23-8" />
      <circle
         cx="234.90433"
         cy="51.921257"
         r="3.75"
         id="circle25-8" />
    </clipPath>
  </defs>
  <sodipodi:namedview
     pagecolor="#ffffff"
     bordercolor="#666666"
     borderopacity="1"
     objecttolerance="10"
     gridtolerance="10"
     guidetolerance="10"
     inkscape:pageopacity="0"
     inkscape:pageshadow="2"
     inkscape:window-width="1920"
     inkscape:window-height="1020"
     id="namedview38"
     showgrid="false"
     inkscape:zoom="4.2909091"
     inkscape:cx="29.617273"
     inkscape:cy="64.376395"
     inkscape:window-x="0"
     inkscape:window-y="0"
     inkscape:window-maximized="1"
     inkscape:current-layer="svg36"
     showguides="true"
     inkscape:guide-bbox="true" />
  <clipPath
     id="escu">
    <rect
       width="100"
       height="120"
       id="rect2" />
  </clipPath>
  <path
     style="fill:#000000;stroke:none;stroke-width:0.29325092px;stroke-linecap:butt;stroke-linejoin:round;stroke-opacity:1"
     d="m 28.378815,48.026779 c -0.8115,2.28e-4 -1.469204,0.658189 -1.469118,1.469688 4.1e-4,0.393278 0.158432,0.769986 0.438731,1.045853 v 2.166162 h -2.665034 v 2.049891 h 2.459986 c 0,2.770353 1.088905,8.451356 -1.503483,10.319913 -0.66533,0.349984 -1.52771,0.190499 -2.254939,0 -0.8091,-0.211945 -1.672309,-0.571272 -2.187354,-1.230278 -0.581957,-0.744623 -0.751456,-2.733764 -0.751456,-2.733764 l 1.640373,1.162121 v 0 l -2.460559,-4.920542 -1.230278,4.988699 v 0 l 1.16212,-1.093389 c 0,0 -0.03843,2.693401 0.478252,3.895312 0.466541,1.085281 1.25236,2.109917 2.255511,2.73376 1.768993,1.100114 3.999039,-0.785821 6.082094,-0.7858 2.083238,2.3e-5 4.313671,1.885914 6.082664,0.7858 1.003152,-0.623843 1.78897,-1.648479 2.255512,-2.73376 0.516679,-1.201911 0.478252,-3.895312 0.478252,-3.895312 l 1.161548,1.093389 v 0 l -1.230279,-4.988699 -2.459986,4.920542 v 0 l 1.640372,-1.162121 c 0,0 -0.170071,1.989141 -0.752028,2.733764 -0.515045,0.659007 -1.377681,1.018333 -2.186781,1.230278 -0.727229,0.190499 -1.590182,0.349984 -2.255513,0 -2.592388,-1.868557 -1.503483,-7.54956 -1.503483,-10.319913 h 2.460559 v -2.049891 h -2.665605 v -2.154133 c 0.287287,-0.276955 0.449591,-0.658836 0.449613,-1.057882 8.5e-5,-0.811725 -0.657968,-1.469776 -1.469691,-1.469688 z m -0.02863,0.646066 c 0.128687,-0.0046 0.257802,0.01851 0.375155,0.06988 0.117352,0.05137 0.222424,0.131177 0.301842,0.239413 0.115523,0.144814 0.180305,0.329115 0.179845,0.514333 0.0051,0.134189 -0.02819,0.262005 -0.0882,0.375156 -0.06002,0.113154 -0.1472,0.211712 -0.250867,0.288096 -0.103668,0.07638 -0.223532,0.130194 -0.349381,0.154071 -0.12585,0.02387 -0.257755,0.018 -0.384319,-0.02634 -0.129614,-0.03481 -0.241808,-0.103966 -0.332199,-0.194737 -0.09039,-0.09077 -0.158644,-0.203157 -0.201036,-0.324751 -0.04239,-0.121597 -0.05848,-0.252454 -0.0441,-0.37974 0.01439,-0.127282 0.05925,-0.251274 0.13918,-0.359117 0.07156,-0.113582 0.170661,-0.20049 0.284087,-0.260029 0.113424,-0.05955 0.241312,-0.09167 0.369999,-0.09623 z"
     id="path1204-5-7"
     inkscape:connector-curvature="0"
     sodipodi:nodetypes="ccccccccsccccccccssssscccccccsscccccccccscccscccccccsc" />
  <path
     style="fill:#000000;stroke:none;stroke-width:0.29325092px;stroke-linecap:butt;stroke-linejoin:round;stroke-opacity:1"
     d="m 73.108108,48.026779 c -0.8115,2.29e-4 -1.469204,0.658191 -1.469119,1.469689 4.11e-4,0.393279 0.158432,0.769986 0.438731,1.045853 v 2.166163 h -2.665033 v 2.049891 h 2.459986 c 0,2.770353 1.088905,8.451356 -1.503483,10.319912 -0.66533,0.349985 -1.52771,0.1905 -2.254939,0 -0.8091,-0.211943 -1.672309,-0.57127 -2.187354,-1.230278 -0.581957,-0.744622 -0.751456,-2.733764 -0.751456,-2.733764 l 1.640372,1.162121 v 0 l -2.460558,-4.920542 -1.230279,4.9887 v 0 l 1.162121,-1.09339 c 0,0 -0.03843,2.693401 0.478251,3.895311 0.466541,1.085282 1.252361,2.109918 2.255511,2.733768 1.768994,1.100106 3.99904,-0.785827 6.082094,-0.785805 2.083239,2.2e-5 4.313672,1.885911 6.082664,0.785805 1.003153,-0.623849 1.788972,-1.648486 2.25551,-2.733768 0.516679,-1.20191 0.478252,-3.895311 0.478252,-3.895311 l 1.161549,1.09339 v 0 l -1.230276,-4.9887 -2.459987,4.920542 v 0 l 1.640374,-1.162121 c 0,0 -0.170073,1.989142 -0.752029,2.733764 -0.515049,0.659009 -1.377682,1.018335 -2.186783,1.230278 -0.727229,0.1905 -1.590181,0.349985 -2.255512,0 -2.592388,-1.868556 -1.503483,-7.549559 -1.503483,-10.319912 h 2.460557 V 52.708484 H 74.128185 V 50.55435 c 0.287287,-0.276955 0.449591,-0.658835 0.449613,-1.057882 8.6e-5,-0.811724 -0.657968,-1.469777 -1.46969,-1.469689 z m -0.02863,0.646068 c 0.128688,-0.0046 0.257803,0.01851 0.375155,0.06987 0.117353,0.05137 0.222424,0.131177 0.301843,0.239413 0.115522,0.144813 0.180305,0.329115 0.179845,0.514332 0.0051,0.13419 -0.02819,0.262005 -0.08821,0.375156 -0.06002,0.113154 -0.147199,0.211713 -0.250867,0.288096 -0.103667,0.07638 -0.223531,0.130195 -0.349381,0.154071 -0.12585,0.02387 -0.257754,0.018 -0.384319,-0.02634 -0.129613,-0.03482 -0.241808,-0.103967 -0.332198,-0.194737 -0.09039,-0.09077 -0.158644,-0.203158 -0.201037,-0.324752 -0.04239,-0.121596 -0.05848,-0.252454 -0.0441,-0.379739 0.01439,-0.127282 0.05925,-0.251275 0.139181,-0.359118 0.07156,-0.113582 0.170661,-0.20049 0.284086,-0.260029 0.113424,-0.05955 0.241312,-0.09167 0.37,-0.09622 z"
     id="path1204-9-1-8"
     inkscape:connector-curvature="0"
     sodipodi:nodetypes="ccccccccsccccccccssssscccccccsscccccccccscccscccccccsc" />
  <path
     style="fill:#000000;stroke:none;stroke-width:0.29325092px;stroke-linecap:butt;stroke-linejoin:round;stroke-opacity:1"
     d="m 50.743462,50.397607 c -0.811501,2.28e-4 -1.469205,0.658189 -1.469119,1.469688 4.1e-4,0.393279 0.158432,0.769986 0.438731,1.045853 v 2.166162 h -2.665033 v 2.049892 h 2.459985 c 0,2.770352 1.088905,8.451356 -1.503482,10.319912 -0.66533,0.349985 -1.52771,0.190499 -2.254939,0 -0.809101,-0.211945 -1.672309,-0.571271 -2.187355,-1.230278 -0.581956,-0.744623 -0.751455,-2.733764 -0.751455,-2.733764 l 1.640372,1.162121 v 0 L 41.990609,59.726651 40.76033,64.71535 v 0 l 1.162121,-1.093388 c 0,0 -0.03843,2.6934 0.478251,3.895311 0.466541,1.085281 1.252361,2.109917 2.255511,2.733762 1.768994,1.100112 3.99904,-0.785823 6.082094,-0.785801 2.083239,2.2e-5 4.313672,1.885913 6.082664,0.785801 1.003153,-0.623845 1.788971,-1.648481 2.255512,-2.733762 0.516679,-1.201911 0.478252,-3.895311 0.478252,-3.895311 l 1.161548,1.093388 v 0 l -1.230279,-4.988699 -2.459986,4.920542 v 0 l 1.640373,-1.162121 c 0,0 -0.170072,1.989141 -0.752028,2.733764 -0.515046,0.659007 -1.377682,1.018333 -2.186782,1.230278 -0.727229,0.190499 -1.590182,0.349985 -2.255513,0 -2.592387,-1.868556 -1.503482,-7.54956 -1.503482,-10.319912 h 2.460557 V 55.07931 h -2.665604 v -2.154133 c 0.287287,-0.276955 0.449591,-0.658835 0.449613,-1.057882 8.6e-5,-0.811724 -0.657968,-1.469776 -1.46969,-1.469688 z m -0.02863,0.646067 c 0.128687,-0.0046 0.257802,0.01851 0.375155,0.06988 0.117352,0.05137 0.222424,0.131177 0.301842,0.239412 0.115522,0.144814 0.180306,0.329116 0.179845,0.514333 0.0051,0.134189 -0.02818,0.262005 -0.0882,0.375156 -0.06002,0.113154 -0.1472,0.211712 -0.250867,0.288096 -0.103668,0.07638 -0.223531,0.130195 -0.349381,0.154071 -0.12585,0.02387 -0.257754,0.018 -0.384319,-0.02634 -0.129614,-0.03482 -0.241808,-0.103966 -0.332199,-0.194736 -0.09039,-0.09077 -0.158644,-0.203158 -0.201036,-0.324752 -0.04239,-0.121596 -0.05848,-0.252454 -0.0441,-0.37974 0.01439,-0.127282 0.05925,-0.251274 0.13918,-0.359117 0.07156,-0.113582 0.170662,-0.20049 0.284087,-0.260029 0.113424,-0.05955 0.241312,-0.09167 0.37,-0.09622 z"
     id="path1204-5-7-8"
     inkscape:connector-curvature="0"
     sodipodi:nodetypes="ccccccccsccccccccssssscccccccsscccccccccscccscccccccsc" />
  <path
     style="fill:#000000;stroke:none;stroke-width:0.29325092px;stroke-linecap:butt;stroke-linejoin:round;stroke-opacity:1"
     d="m 37.075219,28.767748 c -0.8115,2.28e-4 -1.469204,0.65819 -1.469118,1.469688 4.1e-4,0.393279 0.158432,0.769987 0.438731,1.045854 v 2.166162 h -2.665034 v 2.049891 h 2.459986 c 0,2.770353 1.088905,8.451356 -1.503483,10.319913 -0.66533,0.349984 -1.52771,0.190499 -2.254939,0 -0.8091,-0.211945 -1.672309,-0.571272 -2.187354,-1.230278 -0.581957,-0.744623 -0.751456,-2.733764 -0.751456,-2.733764 l 1.640373,1.16212 v 0 l -2.460559,-4.920541 -1.230278,4.988699 v 0 l 1.16212,-1.093389 c 0,0 -0.03843,2.693401 0.478252,3.895311 0.466541,1.085281 1.25236,2.109918 2.255511,2.733763 1.768993,1.100112 3.999039,-0.785823 6.082094,-0.785802 2.083238,2.3e-5 4.313671,1.885914 6.082664,0.785802 1.003152,-0.623845 1.78897,-1.648482 2.255512,-2.733763 0.516679,-1.20191 0.478252,-3.895311 0.478252,-3.895311 l 1.161548,1.093389 v 0 l -1.230279,-4.988699 -2.459986,4.920541 v 0 l 1.640372,-1.16212 c 0,0 -0.170071,1.989141 -0.752028,2.733764 -0.515045,0.659007 -1.377681,1.018333 -2.186781,1.230278 -0.727229,0.190499 -1.590182,0.349984 -2.255513,0 -2.592388,-1.868557 -1.503483,-7.54956 -1.503483,-10.319913 h 2.460559 v -2.049891 h -2.665605 v -2.154133 c 0.287287,-0.276956 0.449591,-0.658836 0.449613,-1.057883 8.5e-5,-0.811724 -0.657968,-1.469776 -1.469691,-1.469688 z m -0.02863,0.646067 c 0.128687,-0.0046 0.257802,0.01851 0.375155,0.06987 0.117352,0.05137 0.222424,0.131177 0.301842,0.239413 0.115523,0.144813 0.180305,0.329115 0.179845,0.514332 0.0051,0.13419 -0.02819,0.262005 -0.0882,0.375156 -0.06002,0.113154 -0.1472,0.211713 -0.250867,0.288097 -0.103668,0.07638 -0.223532,0.130194 -0.349381,0.15407 -0.12585,0.02387 -0.257755,0.018 -0.384319,-0.02634 -0.129614,-0.03482 -0.241808,-0.103967 -0.332199,-0.194737 -0.09039,-0.09077 -0.158644,-0.203158 -0.201036,-0.324752 -0.04239,-0.121596 -0.05848,-0.252454 -0.0441,-0.379739 0.01439,-0.127282 0.05925,-0.251275 0.13918,-0.359118 0.07156,-0.113581 0.170661,-0.20049 0.284087,-0.260028 0.113424,-0.05955 0.241312,-0.09167 0.369999,-0.09622 z"
     id="path1204-5-7-4"
     inkscape:connector-curvature="0"
     sodipodi:nodetypes="ccccccccsccccccccssssscccccccsscccccccccscccscccccccsc" />
  <path
     style="fill:#000000;stroke:none;stroke-width:0.29325092px;stroke-linecap:butt;stroke-linejoin:round;stroke-opacity:1"
     d="m 64.412275,28.767748 c -0.8115,2.29e-4 -1.469204,0.65819 -1.469119,1.469689 4.11e-4,0.393279 0.158432,0.769985 0.438731,1.045853 v 2.166162 h -2.665033 v 2.049892 h 2.459986 c 0,2.770352 1.088905,8.451356 -1.503483,10.319912 -0.66533,0.349985 -1.52771,0.190499 -2.254939,0 -0.8091,-0.211944 -1.672309,-0.571271 -2.187354,-1.230278 -0.581957,-0.744623 -0.751456,-2.733765 -0.751456,-2.733765 l 1.640372,1.162122 v 0 l -2.460558,-4.920543 -1.230279,4.9887 v 0 l 1.162121,-1.093389 c 0,0 -0.03843,2.693401 0.478251,3.895311 0.466541,1.085282 1.252361,2.109918 2.255511,2.733764 1.768994,1.10011 3.99904,-0.785823 6.082094,-0.785801 2.083239,2.2e-5 4.313672,1.885911 6.082664,0.785801 1.003153,-0.623846 1.788972,-1.648482 2.25551,-2.733764 0.516679,-1.20191 0.478252,-3.895311 0.478252,-3.895311 l 1.161549,1.093389 v 0 l -1.230276,-4.9887 -2.459987,4.920543 v 0 l 1.640374,-1.162122 c 0,0 -0.170073,1.989142 -0.752029,2.733765 -0.515049,0.659008 -1.377682,1.018334 -2.186783,1.230278 -0.727229,0.190499 -1.590181,0.349985 -2.255512,0 -2.592388,-1.868556 -1.503483,-7.54956 -1.503483,-10.319912 h 2.460557 v -2.049892 h -2.665604 v -2.154133 c 0.287287,-0.276955 0.449591,-0.658835 0.449613,-1.057882 8.6e-5,-0.811724 -0.657968,-1.469777 -1.46969,-1.469689 z m -0.02863,0.646068 c 0.128688,-0.0046 0.257803,0.01851 0.375155,0.06988 0.117353,0.05137 0.222424,0.131177 0.301843,0.239412 0.115522,0.144813 0.180305,0.329116 0.179845,0.514333 0.0051,0.134189 -0.02819,0.262005 -0.08821,0.375156 -0.06002,0.113154 -0.147199,0.211712 -0.250867,0.288095 -0.103667,0.07638 -0.223531,0.130196 -0.349381,0.154072 -0.12585,0.02387 -0.257754,0.018 -0.384319,-0.02634 -0.129613,-0.03482 -0.241808,-0.103966 -0.332198,-0.194736 -0.09039,-0.09077 -0.158644,-0.203159 -0.201037,-0.324752 -0.04239,-0.121596 -0.05848,-0.252454 -0.0441,-0.37974 0.01439,-0.127282 0.05925,-0.251274 0.139181,-0.359117 0.07156,-0.113583 0.170661,-0.20049 0.284086,-0.260029 0.113424,-0.05955 0.241312,-0.09167 0.37,-0.09622 z"
     id="path1204-9-1-8-6"
     inkscape:connector-curvature="0"
     sodipodi:nodetypes="ccccccccsccccccccssssscccccccsscccccccccscccscccccccsc" />
  <path
     style="fill:#000000;stroke:none;stroke-width:0.29325092px;stroke-linecap:butt;stroke-linejoin:round;stroke-opacity:1"
     d="m 61.108109,68.02678 c -0.811501,2.28e-4 -1.469205,0.658189 -1.469119,1.469688 4.1e-4,0.393279 0.158432,0.769986 0.438731,1.045853 v 2.166162 h -2.665033 v 2.049892 h 2.459985 c 0,2.770352 1.088905,8.451356 -1.503482,10.319912 -0.66533,0.349985 -1.52771,0.190499 -2.254939,0 -0.809101,-0.211945 -1.672309,-0.571271 -2.187355,-1.230278 -0.581956,-0.744623 -0.751455,-2.733764 -0.751455,-2.733764 l 1.640372,1.162121 v 0 l -2.460558,-4.920542 -1.230279,4.988699 v 0 l 1.162121,-1.093388 c 0,0 -0.03843,2.6934 0.478251,3.895311 0.466541,1.085281 1.252361,2.109917 2.255511,2.733762 1.768994,1.100112 3.99904,-0.785823 6.082094,-0.785801 2.083239,2.2e-5 4.313672,1.885913 6.082664,0.785801 1.003153,-0.623845 1.788971,-1.648481 2.255512,-2.733762 0.516679,-1.201911 0.478252,-3.895311 0.478252,-3.895311 l 1.161548,1.093388 v 0 l -1.230279,-4.988699 -2.459986,4.920542 v 0 l 1.640373,-1.162121 c 0,0 -0.170072,1.989141 -0.752028,2.733764 -0.515046,0.659007 -1.377682,1.018333 -2.186782,1.230278 -0.727229,0.190499 -1.590182,0.349985 -2.255513,0 -2.592387,-1.868556 -1.503482,-7.54956 -1.503482,-10.319912 H 64.79379 V 72.708483 H 62.128186 V 70.55435 c 0.287287,-0.276955 0.449591,-0.658835 0.449613,-1.057882 8.6e-5,-0.811724 -0.657968,-1.469776 -1.46969,-1.469688 z m -0.02863,0.646067 c 0.128687,-0.0046 0.257802,0.01851 0.375155,0.06988 0.117352,0.05137 0.222424,0.131177 0.301842,0.239412 0.115522,0.144814 0.180306,0.329116 0.179845,0.514333 0.0051,0.134189 -0.02818,0.262005 -0.0882,0.375156 -0.06002,0.113154 -0.1472,0.211712 -0.250867,0.288096 -0.103668,0.07638 -0.223531,0.130195 -0.349381,0.154071 -0.12585,0.02387 -0.257754,0.018 -0.384319,-0.02634 -0.129614,-0.03481 -0.241808,-0.103966 -0.332199,-0.194736 -0.09039,-0.09077 -0.158644,-0.203158 -0.201036,-0.324752 -0.04239,-0.121596 -0.05848,-0.252454 -0.0441,-0.37974 0.01439,-0.127282 0.05925,-0.251274 0.13918,-0.359117 0.07156,-0.113582 0.170662,-0.20049 0.284087,-0.260029 0.113424,-0.05955 0.241312,-0.09167 0.37,-0.09622 z"
     id="path1204-5-7-8-7"
     inkscape:connector-curvature="0"
     sodipodi:nodetypes="ccccccccsccccccccssssscccccccsscccccccccscccscccccccsc" />
  <path
     style="fill:#000000;stroke:none;stroke-width:0.29325092px;stroke-linecap:butt;stroke-linejoin:round;stroke-opacity:1"
     d="m 17.862128,19.297486 c -0.8115,2.29e-4 -1.469204,0.658189 -1.469118,1.469688 4.1e-4,0.393279 0.158432,0.769986 0.438731,1.045853 v 2.166162 h -2.665033 v 2.049892 h 2.459985 c 0,2.770353 1.088905,8.451356 -1.503482,10.319912 -0.665331,0.349985 -1.527711,0.190499 -2.254939,0 -0.809101,-0.211944 -1.672309,-0.571271 -2.187355,-1.230278 -0.581956,-0.744622 -0.751455,-2.733764 -0.751455,-2.733764 l 1.640372,1.162121 v 0 L 9.109276,28.62653 7.878998,33.615229 v 0 l 1.162119,-1.093388 c 0,0 -0.03843,2.6934 0.478252,3.895311 0.466541,1.085281 1.252361,2.109918 2.255511,2.733762 1.768994,1.100112 3.99904,-0.785822 6.082094,-0.785801 2.083239,2.3e-5 4.313672,1.885913 6.082664,0.785801 1.003152,-0.623844 1.78897,-1.648481 2.255512,-2.733762 0.516679,-1.201911 0.478252,-3.895311 0.478252,-3.895311 l 1.161548,1.093388 v 0 l -1.230279,-4.988699 -2.459986,4.920542 v 0 l 1.640373,-1.162121 c 0,0 -0.170072,1.989142 -0.752029,2.733764 -0.515045,0.659008 -1.377681,1.018334 -2.186781,1.230278 -0.727229,0.190499 -1.590182,0.349985 -2.255513,0 -2.592387,-1.868556 -1.503483,-7.549559 -1.503483,-10.319912 h 2.460559 v -2.049892 h -2.665605 v -2.154133 c 0.287287,-0.276955 0.449591,-0.658834 0.449613,-1.057882 8.5e-5,-0.811724 -0.657968,-1.469776 -1.469691,-1.469688 z m -0.02863,0.646067 c 0.128687,-0.0046 0.257802,0.01851 0.375155,0.06987 0.117352,0.05137 0.222424,0.131177 0.301842,0.239413 0.115523,0.144813 0.180305,0.329116 0.179845,0.514333 0.0051,0.134188 -0.02818,0.262005 -0.0882,0.375156 -0.06002,0.113153 -0.1472,0.211712 -0.250867,0.288095 -0.103668,0.07638 -0.223531,0.130195 -0.349381,0.154071 -0.12585,0.02387 -0.257754,0.018 -0.384319,-0.02634 -0.129617,-0.03482 -0.241812,-0.103966 -0.332202,-0.194736 -0.09039,-0.09077 -0.158644,-0.203158 -0.201037,-0.324752 -0.04239,-0.121596 -0.05848,-0.252453 -0.0441,-0.379739 0.01438,-0.127283 0.05925,-0.251275 0.13918,-0.359118 0.07156,-0.113582 0.170661,-0.20049 0.284087,-0.260029 0.113423,-0.05955 0.241312,-0.09167 0.369999,-0.09622 z"
     id="path1204-5-7-4-6"
     inkscape:connector-curvature="0"
     sodipodi:nodetypes="ccccccccsccccccccssssscccccccsscccccccccscccscccccccsc" />
  <path
     style="fill:#000000;stroke:none;stroke-width:0.29325092px;stroke-linecap:butt;stroke-linejoin:round;stroke-opacity:1"
     d="m 83.624795,19.297487 c -0.811501,2.29e-4 -1.469205,0.65819 -1.469119,1.469689 4.11e-4,0.393278 0.158432,0.769986 0.438731,1.045853 v 2.166162 h -2.665033 v 2.049891 h 2.459986 c 0,2.770353 1.088904,8.451356 -1.503483,10.319913 -0.66533,0.349984 -1.52771,0.190499 -2.254939,0 -0.809101,-0.211944 -1.672309,-0.571271 -2.187355,-1.230278 -0.581956,-0.744623 -0.751455,-2.733765 -0.751455,-2.733765 l 1.640372,1.162122 v 0 l -2.460558,-4.920543 -1.230279,4.9887 v 0 l 1.162121,-1.093389 c 0,0 -0.03843,2.693401 0.478251,3.895311 0.466541,1.085282 1.252361,2.109917 2.255511,2.733764 1.768994,1.100109 3.99904,-0.785824 6.082094,-0.785802 2.083239,2.2e-5 4.313672,1.885911 6.082664,0.785802 1.003153,-0.623846 1.788971,-1.648482 2.25551,-2.733764 0.516679,-1.20191 0.478252,-3.895311 0.478252,-3.895311 l 1.161548,1.093389 v 0 l -1.230275,-4.9887 -2.459987,4.920543 v 0 l 1.640374,-1.162122 c 0,0 -0.170073,1.989142 -0.752029,2.733765 -0.515049,0.659008 -1.377682,1.018334 -2.186783,1.230278 -0.727229,0.190499 -1.590182,0.349984 -2.255513,0 -2.592387,-1.868557 -1.503482,-7.54956 -1.503482,-10.319913 h 2.460557 v -2.049891 h -2.665604 v -2.154133 c 0.287287,-0.276955 0.449591,-0.658836 0.449613,-1.057882 8.6e-5,-0.811725 -0.657968,-1.469776 -1.46969,-1.469689 z m -0.02863,0.646067 c 0.128687,-0.0046 0.257803,0.01851 0.375155,0.06987 0.117353,0.05137 0.222424,0.131177 0.301842,0.239413 0.115522,0.144814 0.180306,0.329115 0.179845,0.514333 0.0051,0.134189 -0.02819,0.262005 -0.0882,0.375156 -0.06002,0.113154 -0.147199,0.211712 -0.250867,0.288096 -0.103667,0.07638 -0.223531,0.130194 -0.349381,0.154071 -0.12585,0.02387 -0.257754,0.018 -0.384319,-0.02634 -0.129617,-0.03481 -0.241811,-0.103966 -0.332202,-0.194736 -0.09039,-0.09077 -0.158644,-0.203158 -0.201036,-0.324752 -0.04239,-0.121597 -0.05848,-0.252454 -0.0441,-0.37974 0.01439,-0.127282 0.05925,-0.251274 0.13918,-0.359117 0.07156,-0.113582 0.170662,-0.20049 0.284087,-0.260029 0.113424,-0.05955 0.241312,-0.09167 0.369999,-0.09623 z"
     id="path1204-9-1-8-6-0"
     inkscape:connector-curvature="0"
     sodipodi:nodetypes="ccccccccsccccccccssssscccccccsscccccccccscccscccccccsc" />
  <path
     style="fill:#000000;stroke:none;stroke-width:0.29325092px;stroke-linecap:butt;stroke-linejoin:round;stroke-opacity:1"
     d="m 50.743462,16.039143 c -0.811501,2.28e-4 -1.469205,0.658189 -1.469119,1.469688 4.1e-4,0.393278 0.158432,0.769986 0.438731,1.045853 v 2.166162 h -2.665033 v 2.049891 h 2.459985 c 0,2.770353 1.088905,8.451356 -1.503482,10.319913 -0.66533,0.349984 -1.52771,0.190499 -2.254939,0 -0.809101,-0.211945 -1.672309,-0.571272 -2.187355,-1.230278 -0.581956,-0.744623 -0.751455,-2.733764 -0.751455,-2.733764 l 1.640372,1.162121 v 0 l -2.460558,-4.920542 -1.230279,4.988699 v 0 l 1.162121,-1.093389 c 0,0 -0.03843,2.693401 0.478251,3.895312 0.466541,1.085281 1.252361,2.109917 2.255511,2.733762 1.768994,1.100112 3.99904,-0.785823 6.082094,-0.785802 2.083239,2.3e-5 4.313672,1.885914 6.082664,0.785802 1.003153,-0.623845 1.788971,-1.648481 2.255512,-2.733762 0.516679,-1.201911 0.478252,-3.895312 0.478252,-3.895312 l 1.161548,1.093389 v 0 l -1.230279,-4.988699 -2.459986,4.920542 v 0 l 1.640373,-1.162121 c 0,0 -0.170072,1.989141 -0.752028,2.733764 -0.515046,0.659007 -1.377682,1.018333 -2.186782,1.230278 -0.727229,0.190499 -1.590182,0.349984 -2.255513,0 -2.592387,-1.868557 -1.503482,-7.54956 -1.503482,-10.319913 h 2.460557 v -2.049891 h -2.665604 v -2.154133 c 0.287287,-0.276955 0.449591,-0.658835 0.449613,-1.057882 8.6e-5,-0.811725 -0.657968,-1.469776 -1.46969,-1.469688 z m -0.02863,0.646066 c 0.128687,-0.0046 0.257802,0.01851 0.375155,0.06987 0.117352,0.05137 0.222424,0.131177 0.301842,0.239414 0.115522,0.144813 0.180306,0.329115 0.179845,0.514333 0.0051,0.134188 -0.02818,0.262005 -0.0882,0.375155 -0.06002,0.113154 -0.1472,0.211713 -0.250867,0.288096 -0.103668,0.07638 -0.223531,0.130194 -0.349381,0.154071 -0.12585,0.02387 -0.257754,0.018 -0.384319,-0.02634 -0.129617,-0.03482 -0.241811,-0.103966 -0.332202,-0.194737 -0.09039,-0.09077 -0.158644,-0.203157 -0.201036,-0.324751 -0.04239,-0.121597 -0.05848,-0.252453 -0.0441,-0.379739 0.01438,-0.127283 0.05925,-0.251275 0.13918,-0.359118 0.07156,-0.113582 0.170661,-0.20049 0.284087,-0.260029 0.113424,-0.05955 0.241312,-0.09167 0.369999,-0.09622 z"
     id="path1204-5-7-8-7-9"
     inkscape:connector-curvature="0"
     sodipodi:nodetypes="ccccccccsccccccccssssscccccccsscccccccccscccscccccccsc" />
  <path
     style="fill:#000000;stroke:none;stroke-width:0.29325092px;stroke-linecap:butt;stroke-linejoin:round;stroke-opacity:1"
     d="m 36.895502,2.634938 c -0.8115,2.29e-4 -1.469204,0.65819 -1.469119,1.469689 4.11e-4,0.393279 0.158432,0.769986 0.438731,1.045852 v 2.166163 h -2.665033 v 2.049891 h 2.459986 c 0,2.770353 1.088905,8.451356 -1.503483,10.319912 -0.66533,0.349985 -1.52771,0.1905 -2.254939,0 -0.8091,-0.211944 -1.672309,-0.571271 -2.187354,-1.230278 -0.581957,-0.744622 -0.751456,-2.733763 -0.751456,-2.733763 l 1.640373,1.16212 v 0 l -2.460559,-4.920541 -1.230278,4.988698 v 0 l 1.16212,-1.093388 c 0,0 -0.03843,2.6934 0.478252,3.895311 0.466541,1.085281 1.25236,2.109918 2.25551,2.733763 1.768994,1.100112 3.99904,-0.785823 6.082094,-0.785802 2.083239,2.3e-5 4.313672,1.885914 6.082664,0.785802 1.003153,-0.623845 1.788971,-1.648482 2.255513,-2.733763 0.516679,-1.201911 0.478251,-3.895311 0.478251,-3.895311 l 1.161548,1.093388 v 0 l -1.230278,-4.988698 -2.459986,4.920541 v 0 l 1.640372,-1.16212 c 0,0 -0.170071,1.989141 -0.752028,2.733763 -0.515045,0.659008 -1.377681,1.018334 -2.186782,1.230278 -0.727229,0.1905 -1.590181,0.349985 -2.255512,0 -2.592388,-1.868556 -1.503483,-7.549559 -1.503483,-10.319912 h 2.460559 V 7.316642 H 37.915579 V 5.162508 C 38.202867,4.885554 38.36517,4.503674 38.365192,4.104627 38.365278,3.292902 37.707225,2.63485 36.895502,2.634938 Z m -0.02863,0.646067 c 0.128688,-0.0046 0.257803,0.01851 0.375155,0.06987 0.117353,0.05137 0.222425,0.131177 0.301843,0.239413 0.115523,0.144813 0.180305,0.329116 0.179845,0.514333 0.0051,0.134188 -0.02819,0.262005 -0.0882,0.375156 -0.06002,0.113153 -0.1472,0.211713 -0.250868,0.288095 -0.103667,0.07638 -0.223531,0.130195 -0.34938,0.154071 -0.125851,0.02387 -0.257755,0.018 -0.384319,-0.02633 -0.129617,-0.03482 -0.241812,-0.103966 -0.332202,-0.194736 -0.09039,-0.09077 -0.158644,-0.203159 -0.201037,-0.324752 -0.04239,-0.121596 -0.05848,-0.252454 -0.0441,-0.379739 0.01439,-0.127284 0.05925,-0.251276 0.139181,-0.359119 0.07156,-0.113581 0.170661,-0.20049 0.284086,-0.260028 0.113424,-0.05955 0.241312,-0.09167 0.37,-0.09622 z"
     id="path1204-5-7-4-6-5"
     inkscape:connector-curvature="0"
     sodipodi:nodetypes="ccccccccsccccccccssssscccccccsscccccccccscccscccccccsc" />
  <path
     style="fill:#000000;stroke:none;stroke-width:0.29325092px;stroke-linecap:butt;stroke-linejoin:round;stroke-opacity:1"
     d="m 64.591421,2.634938 c -0.8115,2.29e-4 -1.469204,0.65819 -1.469119,1.469689 4.11e-4,0.393279 0.158432,0.769986 0.438731,1.045852 V 7.316642 H 60.896 v 2.049891 h 2.459986 c 0,2.770353 1.088905,8.451356 -1.503483,10.319912 -0.66533,0.349985 -1.52771,0.1905 -2.254939,0 -0.8091,-0.211944 -1.672309,-0.571271 -2.187354,-1.230278 -0.581957,-0.744622 -0.751456,-2.733763 -0.751456,-2.733763 l 1.640373,1.16212 v 0 l -2.460559,-4.920541 -1.230278,4.988698 v 0 l 1.16212,-1.093388 c 0,0 -0.03843,2.6934 0.478252,3.895311 0.466541,1.085281 1.25236,2.109918 2.25551,2.733763 1.768994,1.100112 3.99904,-0.785823 6.082094,-0.785802 2.083239,2.3e-5 4.313672,1.885914 6.082664,0.785802 1.003153,-0.623845 1.788971,-1.648482 2.255513,-2.733763 0.516679,-1.201911 0.478251,-3.895311 0.478251,-3.895311 l 1.161548,1.093388 v 0 l -1.230278,-4.988698 -2.459986,4.920541 v 0 l 1.640372,-1.16212 c 0,0 -0.170071,1.989141 -0.752028,2.733763 -0.515045,0.659008 -1.377681,1.018334 -2.186782,1.230278 -0.727229,0.1905 -1.590181,0.349985 -2.255512,0 C 64.72764,17.817889 65.816545,12.136886 65.816545,9.366533 h 2.460558 V 7.316642 H 65.611498 V 5.162508 c 0.287288,-0.276954 0.449591,-0.658834 0.449613,-1.057881 8.6e-5,-0.811725 -0.657967,-1.469777 -1.46969,-1.469689 z m -0.02863,0.646067 c 0.128688,-0.0046 0.257803,0.01851 0.375155,0.06987 0.117353,0.05137 0.222425,0.131177 0.301843,0.239413 0.115523,0.144813 0.180305,0.329116 0.179845,0.514333 0.0051,0.134188 -0.02818,0.262005 -0.0882,0.375156 -0.06002,0.113153 -0.1472,0.211713 -0.250868,0.288095 -0.103667,0.07638 -0.223531,0.130195 -0.34938,0.154071 -0.125851,0.02387 -0.257755,0.018 -0.384319,-0.02633 -0.129617,-0.03482 -0.241812,-0.103966 -0.332202,-0.194736 -0.09039,-0.09077 -0.158644,-0.203159 -0.201037,-0.324752 -0.04239,-0.121596 -0.05848,-0.252454 -0.0441,-0.379739 0.01439,-0.127284 0.05925,-0.251276 0.13918,-0.359119 0.07156,-0.113581 0.170662,-0.20049 0.284087,-0.260028 0.113424,-0.05955 0.241312,-0.09167 0.37,-0.09622 z"
     id="path1204-5-7-4-6-5-7"
     inkscape:connector-curvature="0"
     sodipodi:nodetypes="ccccccccsccccccccssssscccccccsscccccccccscccscccccccsc" />
  <path
     style="fill:#000000;stroke:none;stroke-width:0.29325092px;stroke-linecap:butt;stroke-linejoin:round;stroke-opacity:1"
     d="m 40.378815,68.026776 c -0.811501,2.28e-4 -1.469205,0.65819 -1.469119,1.469688 4.1e-4,0.393279 0.158432,0.769987 0.438731,1.045854 v 2.166162 h -2.665033 v 2.049893 h 2.459985 c 0,2.770349 1.088905,8.451356 -1.503482,10.319916 -0.66533,0.34998 -1.52771,0.1905 -2.254939,0 -0.809101,-0.21195 -1.672309,-0.57128 -2.187355,-1.23029 -0.581956,-0.74462 -0.751455,-2.733755 -0.751455,-2.733755 l 1.640372,1.162125 v 0 l -2.460558,-4.920551 -1.230279,4.988701 v 0 l 1.162121,-1.093384 c 0,0 -0.03843,2.693394 0.478251,3.895314 0.466541,1.08528 1.252361,2.10991 2.255511,2.73375 1.768994,1.10012 3.99904,-0.78582 6.082094,-0.7858 2.083239,3e-5 4.313672,1.88592 6.082664,0.7858 1.003153,-0.62384 1.788971,-1.64847 2.255512,-2.73375 0.516679,-1.20192 0.478252,-3.895314 0.478252,-3.895314 l 1.161548,1.093384 v 0 l -1.230279,-4.988701 -2.459986,4.920551 v 0 l 1.640373,-1.162125 c 0,0 -0.170072,1.989135 -0.752028,2.733755 -0.515046,0.65901 -1.377682,1.01834 -2.186782,1.23029 -0.727229,0.1905 -1.590182,0.34998 -2.255513,0 -2.592387,-1.86856 -1.503482,-7.549567 -1.503482,-10.319916 h 2.460557 V 72.70848 h -2.665604 v -2.154133 c 0.287287,-0.276956 0.449591,-0.658836 0.449613,-1.057883 8.6e-5,-0.811724 -0.657968,-1.469776 -1.46969,-1.469688 z m -0.02863,0.646067 c 0.128687,-0.0046 0.257802,0.01851 0.375155,0.06987 0.117352,0.05137 0.222424,0.131177 0.301842,0.239413 0.115522,0.144814 0.180306,0.329115 0.179845,0.514332 0.0051,0.13419 -0.02818,0.262005 -0.0882,0.375156 -0.06002,0.113154 -0.1472,0.211713 -0.250867,0.288097 -0.103668,0.07638 -0.223531,0.130194 -0.349381,0.15407 -0.12585,0.02387 -0.257754,0.018 -0.384319,-0.02634 -0.129614,-0.03482 -0.241808,-0.103967 -0.332199,-0.194737 -0.09039,-0.09077 -0.158644,-0.203157 -0.201036,-0.324752 -0.04239,-0.121596 -0.05848,-0.252454 -0.0441,-0.379739 0.01439,-0.127282 0.05925,-0.251275 0.13918,-0.359118 0.07156,-0.113581 0.170662,-0.20049 0.284087,-0.260028 0.113424,-0.05955 0.241312,-0.09167 0.37,-0.09622 z"
     id="path1204-5-7-8-8"
     inkscape:connector-curvature="0"
     sodipodi:nodetypes="ccccccccsccccccccssssscccccccsscccccccccscccscccccccsc" />
</svg>
