<?xml version="1.0" encoding="UTF-8" standalone="no"?>
<svg
   xmlns:dc="http://purl.org/dc/elements/1.1/"
   xmlns:cc="http://creativecommons.org/ns#"
   xmlns:rdf="http://www.w3.org/1999/02/22-rdf-syntax-ns#"
   xmlns:svg="http://www.w3.org/2000/svg"
   xmlns="http://www.w3.org/2000/svg"
   xmlns:sodipodi="http://sodipodi.sourceforge.net/DTD/sodipodi-0.dtd"
   xmlns:inkscape="http://www.inkscape.org/namespaces/inkscape"
   viewBox="0 0 100 110"
   version="1.1"
   id="svg36"
   sodipodi:docname="seven.svg"
   inkscape:version="0.92.4 (5da689c313, 2019-01-14)">
  <metadata
     id="metadata42">
    <rdf:RDF>
      <cc:Work
         rdf:about="">
        <dc:format>image/svg+xml</dc:format>
        <dc:type
           rdf:resource="http://purl.org/dc/dcmitype/StillImage" />
        <dc:title></dc:title>
      </cc:Work>
    </rdf:RDF>
  </metadata>
  <defs
     id="defs40">
    <clipPath
       id="ordi2-0">
      <circle
         cx="204.90433"
         cy="21.921255"
         r="3.75"
         id="circle19-4" />
      <circle
         cx="204.90433"
         cy="81.921257"
         r="3.75"
         id="circle21-8" />
      <circle
         cx="174.90433"
         cy="51.921257"
         r="3.75"
         id="circle23-8" />
      <circle
         cx="234.90433"
         cy="51.921257"
         r="3.75"
         id="circle25-8" />
    </clipPath>
  </defs>
  <sodipodi:namedview
     pagecolor="#ffffff"
     bordercolor="#666666"
     borderopacity="1"
     objecttolerance="10"
     gridtolerance="10"
     guidetolerance="10"
     inkscape:pageopacity="0"
     inkscape:pageshadow="2"
     inkscape:window-width="1920"
     inkscape:window-height="1020"
     id="namedview38"
     showgrid="false"
     inkscape:zoom="4.2909091"
     inkscape:cx="29.617273"
     inkscape:cy="64.376395"
     inkscape:window-x="0"
     inkscape:window-y="0"
     inkscape:window-maximized="1"
     inkscape:current-layer="svg36"
     showguides="true"
     inkscape:guide-bbox="true">
    <sodipodi:guide
       position="50.755885,97.247788"
       orientation="1,0"
       id="guide826"
       inkscape:locked="false" />
  </sodipodi:namedview>
  <clipPath
     id="escu">
    <rect
       width="100"
       height="120"
       id="rect2" />
  </clipPath>
  <path
     style="fill:#000000;stroke:none;stroke-width:0.40000001px;stroke-linecap:butt;stroke-linejoin:round;stroke-opacity:1"
     d="m 36.345338,2.815067 c -1.106902,3.12e-4 -2.004023,0.897784 -2.003906,2.004684 5.6e-4,0.53644 0.216104,1.050276 0.598437,1.426563 v 2.954689 h -3.635157 v 2.796091 h 3.355469 c 0,3.778817 1.485287,11.527817 -2.050781,14.076565 -0.907523,0.477384 -2.083826,0.259844 -3.075781,0 -1.103629,-0.289097 -2.281062,-0.779226 -2.983594,-1.678124 -0.7938,-1.01568 -1.025,-3.728908 -1.025,-3.728908 l 2.2375,1.585156 v 0 l -3.35625,-6.711717 -1.678124,6.804685 v 0 l 1.585155,-1.491404 c 0,0 -0.05242,3.673852 0.652344,5.31328 0.636372,1.480345 1.708245,2.877969 3.076562,3.728907 2.412942,1.500572 5.454768,-1.071879 8.296095,-1.071849 2.841579,3e-5 5.883933,2.572421 8.296874,1.071849 1.368319,-0.850937 2.440191,-2.248562 3.076563,-3.728907 0.70476,-1.639428 0.652344,-5.31328 0.652344,-5.31328 l 1.584375,1.491404 v 0 l -1.678125,-6.804684 -3.355469,6.711716 v 0 l 2.2375,-1.585156 c 0,0 -0.231981,2.713228 -1.025781,3.728908 -0.702532,0.898899 -1.879184,1.389027 -2.982813,1.678124 -0.991955,0.259844 -2.169039,0.477384 -3.076563,0 -3.536068,-2.548748 -2.05078,-10.297749 -2.05078,-14.076565 h 3.356249 V 9.201003 H 37.736744 V 6.262722 C 38.128609,5.884951 38.349995,5.364059 38.350025,4.819751 38.350142,3.712543 37.452544,2.814947 36.345338,2.815067 Z m -0.03906,0.881248 c 0.175532,-0.0062 0.351648,0.02524 0.511719,0.09531 0.160071,0.07007 0.303391,0.178928 0.411719,0.326564 0.157575,0.197528 0.24594,0.44892 0.245312,0.70156 0.007,0.183036 -0.03845,0.35738 -0.120312,0.51172 -0.08187,0.154344 -0.200783,0.28878 -0.342188,0.392968 -0.141404,0.104187 -0.304901,0.177588 -0.476562,0.210155 -0.171662,0.03256 -0.351582,0.02456 -0.524219,-0.03592 C 35.834952,5.851182 35.681916,5.756861 35.558622,5.633049 35.435327,5.509236 35.342228,5.355937 35.284404,5.19008 c -0.05782,-0.165859 -0.07977,-0.344351 -0.06016,-0.517972 0.01962,-0.173615 0.08082,-0.342744 0.189844,-0.489843 0.09761,-0.154929 0.232786,-0.273473 0.3875,-0.354684 0.154713,-0.08122 0.329155,-0.125036 0.504687,-0.131252 z"
     id="path1204"
     inkscape:connector-curvature="0"
     sodipodi:nodetypes="ccccccccsccccccccssssscccccccsscccccccccscccscccccccsc" />
  <path
     style="fill:#000000;stroke:none;stroke-width:0.40000001px;stroke-linecap:butt;stroke-linejoin:round;stroke-opacity:1"
     d="m 65.145338,2.815069 c -1.106902,3.12e-4 -2.004023,0.897784 -2.003906,2.004684 5.6e-4,0.53644 0.216104,1.050276 0.598437,1.426564 v 2.954688 h -3.635157 v 2.796092 h 3.355469 c 0,3.778816 1.485287,11.527816 -2.050781,14.076564 -0.907523,0.477385 -2.083826,0.259844 -3.075781,0 -1.103629,-0.289097 -2.281062,-0.779226 -2.983594,-1.678124 -0.7938,-1.01568 -1.025,-3.728908 -1.025,-3.728908 l 2.2375,1.585156 v 0 l -3.35625,-6.711716 -1.678124,6.804684 v 0 l 1.585155,-1.491404 c 0,0 -0.05242,3.673852 0.652344,5.313281 0.636372,1.480345 1.708245,2.877969 3.076562,3.728906 2.412942,1.500572 5.454768,-1.071878 8.296095,-1.071849 2.841579,3.1e-5 5.883933,2.572421 8.296874,1.071849 1.36832,-0.850937 2.440192,-2.248561 3.07656,-3.728906 0.70476,-1.639429 0.652344,-5.313281 0.652344,-5.313281 l 1.584376,1.491404 v 0 l -1.67812,-6.804684 -3.355472,6.711716 v 0 l 2.237504,-1.585156 c 0,0 -0.231984,2.713228 -1.025784,3.728908 -0.702536,0.898899 -1.879184,1.389027 -2.982814,1.678124 -0.991955,0.259844 -2.169039,0.477385 -3.076563,0 -3.536068,-2.548748 -2.05078,-10.297748 -2.05078,-14.076564 h 3.356249 V 9.201005 H 66.536744 V 6.262725 C 66.928609,5.884953 67.149995,5.364061 67.150025,4.819753 67.150142,3.712545 66.252544,2.814949 65.145338,2.815069 Z m -0.03906,0.881248 c 0.175532,-0.0062 0.351648,0.02524 0.511719,0.09531 0.160071,0.07007 0.303391,0.178928 0.411719,0.326564 0.157575,0.197528 0.24594,0.44892 0.245312,0.70156 0.007,0.183036 -0.03845,0.35738 -0.120312,0.51172 -0.08187,0.154344 -0.200783,0.28878 -0.342188,0.392968 -0.141404,0.104188 -0.304901,0.177588 -0.476562,0.210156 -0.171662,0.03256 -0.351582,0.02456 -0.524219,-0.03592 C 64.634952,5.851185 64.481916,5.756863 64.358622,5.633051 64.235327,5.509239 64.142228,5.355939 64.084404,5.190083 c -0.05782,-0.16586 -0.07977,-0.344352 -0.06016,-0.517972 0.01962,-0.173616 0.08082,-0.342744 0.189844,-0.489844 0.09761,-0.154928 0.232786,-0.273472 0.3875,-0.354684 0.154713,-0.08122 0.329155,-0.125036 0.504687,-0.131252 z"
     id="path1204-9"
     inkscape:connector-curvature="0"
     sodipodi:nodetypes="ccccccccsccccccccssssscccccccsscccccccccscccscccccccsc" />
  <path
     style="fill:#000000;stroke:none;stroke-width:0.40000001px;stroke-linecap:butt;stroke-linejoin:round;stroke-opacity:1"
     d="m 34.745338,31.615069 c -1.106902,3.12e-4 -2.004023,0.897784 -2.003906,2.004684 5.6e-4,0.53644 0.216104,1.050276 0.598437,1.426564 v 2.954688 h -3.635157 v 2.796092 h 3.355469 c 0,3.778816 1.485287,11.527816 -2.050781,14.076564 -0.907523,0.477385 -2.083826,0.259844 -3.075781,0 -1.103629,-0.289097 -2.281062,-0.779226 -2.983594,-1.678124 -0.7938,-1.01568 -1.025,-3.728908 -1.025,-3.728908 l 2.2375,1.585156 v 0 l -3.35625,-6.711716 -1.678124,6.804684 v 0 l 1.585155,-1.491404 c 0,0 -0.05242,3.673852 0.652344,5.313281 0.636372,1.480345 1.708245,2.877969 3.076562,3.728906 2.412942,1.500572 5.454768,-1.071878 8.296095,-1.071849 2.841579,3.1e-5 5.883933,2.572421 8.296874,1.071849 1.368319,-0.850937 2.440191,-2.248561 3.076563,-3.728906 0.70476,-1.639429 0.652344,-5.313281 0.652344,-5.313281 l 1.584375,1.491404 v 0 l -1.678125,-6.804684 -3.355469,6.711716 v 0 l 2.2375,-1.585156 c 0,0 -0.231981,2.713228 -1.025781,3.728908 -0.702532,0.898899 -1.879184,1.389027 -2.982813,1.678124 -0.991955,0.259844 -2.169039,0.477385 -3.076563,0 -3.536068,-2.548748 -2.05078,-10.297748 -2.05078,-14.076564 h 3.356249 v -2.796092 h -3.635937 v -2.93828 c 0.391865,-0.377772 0.613251,-0.898664 0.613281,-1.442972 1.17e-4,-1.107208 -0.897481,-2.004804 -2.004687,-2.004684 z m -0.03906,0.881248 c 0.175532,-0.0062 0.351648,0.02524 0.511719,0.09531 0.160071,0.07007 0.303391,0.178928 0.411719,0.326564 0.157575,0.197528 0.24594,0.44892 0.245312,0.70156 0.007,0.183036 -0.03845,0.35738 -0.120312,0.51172 -0.08187,0.154344 -0.200783,0.28878 -0.342188,0.392968 -0.141404,0.104188 -0.304901,0.177588 -0.476562,0.210156 -0.171662,0.03256 -0.351582,0.02456 -0.524219,-0.03592 -0.176795,-0.04749 -0.329831,-0.141812 -0.453125,-0.265624 -0.123295,-0.123812 -0.216394,-0.277112 -0.274218,-0.442968 -0.05782,-0.16586 -0.07977,-0.344352 -0.06016,-0.517972 0.01962,-0.173616 0.08082,-0.342744 0.189844,-0.489844 0.09761,-0.154928 0.232786,-0.273472 0.3875,-0.354684 0.154713,-0.08122 0.329155,-0.125036 0.504687,-0.131252 z"
     id="path1204-5"
     inkscape:connector-curvature="0"
     sodipodi:nodetypes="ccccccccsccccccccssssscccccccsscccccccccscccscccccccsc" />
  <path
     style="fill:#000000;stroke:none;stroke-width:0.40000001px;stroke-linecap:butt;stroke-linejoin:round;stroke-opacity:1"
     d="m 66.745338,31.615071 c -1.106902,3.12e-4 -2.004023,0.897784 -2.003906,2.004684 5.6e-4,0.53644 0.216104,1.050276 0.598437,1.426564 v 2.954688 h -3.635157 v 2.796092 h 3.355469 c 0,3.778816 1.485287,11.527816 -2.050781,14.076564 -0.907523,0.477385 -2.083826,0.259844 -3.075781,0 -1.103629,-0.289096 -2.281062,-0.779225 -2.983594,-1.678124 -0.7938,-1.01568 -1.025,-3.728908 -1.025,-3.728908 l 2.2375,1.585156 v 0 l -3.35625,-6.711716 -1.678124,6.804684 v 0 l 1.585155,-1.491404 c 0,0 -0.05242,3.673852 0.652344,5.313281 0.636372,1.480345 1.708245,2.877969 3.076562,3.728907 2.412942,1.500572 5.454768,-1.071879 8.296095,-1.071849 2.841579,3e-5 5.883933,2.572421 8.296874,1.071849 1.36832,-0.850937 2.440192,-2.248562 3.07656,-3.728907 0.70476,-1.639429 0.652344,-5.313281 0.652344,-5.313281 l 1.584376,1.491404 v 0 l -1.67812,-6.804684 -3.355472,6.711716 v 0 l 2.237504,-1.585156 c 0,0 -0.231984,2.713228 -1.025784,3.728908 -0.702536,0.8989 -1.879184,1.389028 -2.982814,1.678124 -0.991955,0.259844 -2.169039,0.477385 -3.076563,0 -3.536068,-2.548748 -2.05078,-10.297748 -2.05078,-14.076564 h 3.356249 v -2.796092 h -3.635937 v -2.93828 c 0.391865,-0.377772 0.613251,-0.898664 0.613281,-1.442972 1.17e-4,-1.107208 -0.897481,-2.004804 -2.004687,-2.004684 z m -0.03906,0.881248 c 0.175532,-0.0062 0.351648,0.02524 0.511719,0.09531 0.160071,0.07007 0.303391,0.178928 0.411719,0.326564 0.157575,0.197528 0.24594,0.44892 0.245312,0.70156 0.007,0.183036 -0.03845,0.35738 -0.120312,0.51172 -0.08187,0.154344 -0.200783,0.28878 -0.342188,0.392968 -0.141404,0.104188 -0.304901,0.177588 -0.476562,0.210156 -0.171662,0.03256 -0.351582,0.02456 -0.524219,-0.03592 -0.176795,-0.04749 -0.329831,-0.141812 -0.453125,-0.265624 -0.123295,-0.123812 -0.216394,-0.277112 -0.274218,-0.442968 -0.05782,-0.16586 -0.07977,-0.344352 -0.06016,-0.517972 0.01962,-0.173616 0.08082,-0.342744 0.189844,-0.489844 0.09761,-0.154928 0.232786,-0.273472 0.3875,-0.354684 0.154713,-0.08122 0.329155,-0.125036 0.504687,-0.131252 z"
     id="path1204-9-1"
     inkscape:connector-curvature="0"
     sodipodi:nodetypes="ccccccccsccccccccssssscccccccsscccccccccscccscccccccsc" />
  <path
     style="fill:#000000;stroke:none;stroke-width:0.40000001px;stroke-linecap:butt;stroke-linejoin:round;stroke-opacity:1"
     d="m 20.745338,61.615069 c -1.106902,3.12e-4 -2.004023,0.897784 -2.003906,2.004684 5.6e-4,0.53644 0.216104,1.050276 0.598437,1.426564 v 2.954688 h -3.635157 v 2.796092 h 3.355469 c 0,3.778816 1.485287,11.527816 -2.050781,14.076564 -0.907523,0.477385 -2.083826,0.259844 -3.075781,0 -1.103629,-0.289097 -2.281062,-0.779226 -2.983594,-1.678124 -0.7938,-1.01568 -1.025,-3.728908 -1.025,-3.728908 l 2.2375,1.585156 v 0 l -3.35625,-6.711716 -1.678124,6.804684 v 0 l 1.585155,-1.491404 c 0,0 -0.05242,3.673852 0.652344,5.313281 0.636372,1.480345 1.708245,2.877969 3.076562,3.728906 2.412942,1.500574 5.454768,-1.071878 8.296095,-1.071849 2.841579,3.1e-5 5.883933,2.572423 8.296874,1.071849 1.368319,-0.850937 2.440191,-2.248561 3.076563,-3.728906 0.70476,-1.639429 0.652344,-5.313281 0.652344,-5.313281 l 1.584375,1.491404 v 0 l -1.678125,-6.804684 -3.355469,6.711716 v 0 l 2.2375,-1.585156 c 0,0 -0.231981,2.713228 -1.025781,3.728908 -0.702532,0.898899 -1.879184,1.389027 -2.982813,1.678124 -0.991955,0.259844 -2.169039,0.477385 -3.076563,0 -3.536068,-2.548748 -2.05078,-10.297748 -2.05078,-14.076564 h 3.356249 v -2.796092 h -3.635937 v -2.93828 c 0.391865,-0.377772 0.613251,-0.898664 0.613281,-1.442972 1.17e-4,-1.107208 -0.897481,-2.004804 -2.004687,-2.004684 z m -0.03906,0.881248 c 0.175532,-0.0062 0.351648,0.02524 0.511719,0.09531 0.160071,0.07007 0.303391,0.178928 0.411719,0.326564 0.157575,0.197528 0.24594,0.44892 0.245312,0.70156 0.007,0.183036 -0.03845,0.35738 -0.120312,0.51172 -0.08187,0.154344 -0.200783,0.28878 -0.342188,0.392968 -0.141404,0.104188 -0.304901,0.177588 -0.476562,0.210156 -0.171662,0.03256 -0.351582,0.02456 -0.524219,-0.03592 -0.176795,-0.04749 -0.329831,-0.141812 -0.453125,-0.265624 -0.123295,-0.123812 -0.216394,-0.277112 -0.274218,-0.442968 -0.05782,-0.16586 -0.07977,-0.344352 -0.06016,-0.517972 0.01962,-0.173616 0.08082,-0.342744 0.189844,-0.489844 0.09761,-0.154928 0.232786,-0.273472 0.3875,-0.354684 0.154713,-0.08122 0.329155,-0.125036 0.504687,-0.131252 z"
     id="path1204-5-7"
     inkscape:connector-curvature="0"
     sodipodi:nodetypes="ccccccccsccccccccssssscccccccsscccccccccscccscccccccsc" />
  <path
     style="fill:#000000;stroke:none;stroke-width:0.40000001px;stroke-linecap:butt;stroke-linejoin:round;stroke-opacity:1"
     d="m 80.745338,61.615071 c -1.106902,3.12e-4 -2.004023,0.897784 -2.003906,2.004684 5.6e-4,0.53644 0.216104,1.050276 0.598437,1.426564 v 2.954688 h -3.635157 v 2.796092 h 3.355469 c 0,3.778816 1.485287,11.527816 -2.050781,14.076564 -0.907523,0.477385 -2.083826,0.259844 -3.075781,0 -1.103629,-0.289096 -2.281062,-0.779225 -2.983594,-1.678124 -0.7938,-1.01568 -1.025,-3.728908 -1.025,-3.728908 l 2.2375,1.585156 v 0 l -3.35625,-6.711716 -1.678124,6.804684 v 0 l 1.585155,-1.491404 c 0,0 -0.05242,3.673852 0.652344,5.313281 0.636372,1.480345 1.708245,2.877969 3.076562,3.728907 2.412942,1.500571 5.454768,-1.071879 8.296095,-1.071849 2.841579,3e-5 5.883933,2.57242 8.296874,1.071849 1.36832,-0.850937 2.440192,-2.248562 3.07656,-3.728907 0.70476,-1.639429 0.652344,-5.313281 0.652344,-5.313281 l 1.584376,1.491404 v 0 l -1.67812,-6.804684 -3.355472,6.711716 v 0 l 2.237504,-1.585156 c 0,0 -0.231984,2.713228 -1.025784,3.728908 -0.702536,0.8989 -1.879184,1.389028 -2.982814,1.678124 -0.991955,0.259844 -2.169039,0.477385 -3.076563,0 -3.536068,-2.548748 -2.05078,-10.297748 -2.05078,-14.076564 h 3.356249 v -2.796092 h -3.635937 v -2.93828 c 0.391865,-0.377772 0.613251,-0.898664 0.613281,-1.442972 1.17e-4,-1.107208 -0.897481,-2.004804 -2.004687,-2.004684 z m -0.03906,0.881248 c 0.175532,-0.0062 0.351648,0.02524 0.511719,0.09531 0.160071,0.07007 0.303391,0.178928 0.411719,0.326564 0.157575,0.197528 0.24594,0.44892 0.245312,0.70156 0.007,0.183036 -0.03845,0.35738 -0.120312,0.51172 -0.08187,0.154344 -0.200783,0.28878 -0.342188,0.392968 -0.141404,0.104188 -0.304901,0.177588 -0.476562,0.210156 -0.171662,0.03256 -0.351582,0.02456 -0.524219,-0.03592 -0.176795,-0.04749 -0.329831,-0.141812 -0.453125,-0.265624 -0.123295,-0.123812 -0.216394,-0.277112 -0.274218,-0.442968 -0.05782,-0.16586 -0.07977,-0.344352 -0.06016,-0.517972 0.01962,-0.173616 0.08082,-0.342744 0.189844,-0.489844 0.09761,-0.154928 0.232786,-0.273472 0.3875,-0.354684 0.154713,-0.08122 0.329155,-0.125036 0.504687,-0.131252 z"
     id="path1204-9-1-8"
     inkscape:connector-curvature="0"
     sodipodi:nodetypes="ccccccccsccccccccssssscccccccsscccccccccscccscccccccsc" />
  <path
     style="fill:#000000;stroke:none;stroke-width:0.40000001px;stroke-linecap:butt;stroke-linejoin:round;stroke-opacity:1"
     d="m 50.745338,61.615069 c -1.106902,3.12e-4 -2.004023,0.897784 -2.003906,2.004684 5.6e-4,0.53644 0.216104,1.050276 0.598437,1.426564 v 2.954688 h -3.635157 v 2.796092 h 3.355469 c 0,3.778816 1.485287,11.527816 -2.050781,14.076564 -0.907523,0.477385 -2.083826,0.259844 -3.075781,0 -1.103629,-0.289097 -2.281062,-0.779226 -2.983594,-1.678124 -0.7938,-1.01568 -1.025,-3.728908 -1.025,-3.728908 l 2.2375,1.585156 v 0 l -3.35625,-6.711716 -1.678124,6.804684 v 0 l 1.585155,-1.491404 c 0,0 -0.05242,3.673852 0.652344,5.313281 0.636372,1.480345 1.708245,2.877969 3.076562,3.728906 2.412942,1.500574 5.454768,-1.071878 8.296095,-1.071849 2.841579,3.1e-5 5.883933,2.572423 8.296874,1.071849 1.368319,-0.850937 2.440191,-2.248561 3.076563,-3.728906 0.70476,-1.639429 0.652344,-5.313281 0.652344,-5.313281 l 1.584375,1.491404 v 0 l -1.678125,-6.804684 -3.355469,6.711716 v 0 l 2.2375,-1.585156 c 0,0 -0.231981,2.713228 -1.025781,3.728908 -0.702532,0.898899 -1.879184,1.389027 -2.982813,1.678124 -0.991955,0.259844 -2.169039,0.477385 -3.076563,0 -3.536068,-2.548748 -2.05078,-10.297748 -2.05078,-14.076564 h 3.356249 v -2.796092 h -3.635937 v -2.93828 c 0.391865,-0.377772 0.613251,-0.898664 0.613281,-1.442972 1.17e-4,-1.107208 -0.897481,-2.004804 -2.004687,-2.004684 z m -0.03906,0.881248 c 0.175532,-0.0062 0.351648,0.02524 0.511719,0.09531 0.160071,0.07007 0.303391,0.178928 0.411719,0.326564 0.157575,0.197528 0.24594,0.44892 0.245312,0.70156 0.007,0.183036 -0.03845,0.35738 -0.120312,0.51172 -0.08187,0.154344 -0.200783,0.28878 -0.342188,0.392968 -0.141404,0.104188 -0.304901,0.177588 -0.476562,0.210156 -0.171662,0.03256 -0.351582,0.02456 -0.524219,-0.03592 -0.176795,-0.04749 -0.329831,-0.141812 -0.453125,-0.265624 -0.123295,-0.123812 -0.216394,-0.277112 -0.274218,-0.442968 -0.05782,-0.16586 -0.07977,-0.344352 -0.06016,-0.517972 0.01962,-0.173616 0.08082,-0.342744 0.189844,-0.489844 0.09761,-0.154928 0.232786,-0.273472 0.3875,-0.354684 0.154713,-0.08122 0.329155,-0.125036 0.504687,-0.131252 z"
     id="path1204-5-7-8"
     inkscape:connector-curvature="0"
     sodipodi:nodetypes="ccccccccsccccccccssssscccccccsscccccccccscccscccccccsc" />
</svg>
