<?xml version="1.0" encoding="UTF-8" standalone="no"?>
<svg
   xmlns:dc="http://purl.org/dc/elements/1.1/"
   xmlns:cc="http://creativecommons.org/ns#"
   xmlns:rdf="http://www.w3.org/1999/02/22-rdf-syntax-ns#"
   xmlns:svg="http://www.w3.org/2000/svg"
   xmlns="http://www.w3.org/2000/svg"
   xmlns:sodipodi="http://sodipodi.sourceforge.net/DTD/sodipodi-0.dtd"
   xmlns:inkscape="http://www.inkscape.org/namespaces/inkscape"
   viewBox="0 0 100 110"
   version="1.1"
   id="svg36"
   sodipodi:docname="ten.svg"
   inkscape:version="0.92.4 (5da689c313, 2019-01-14)">
  <metadata
     id="metadata42">
    <rdf:RDF>
      <cc:Work
         rdf:about="">
        <dc:format>image/svg+xml</dc:format>
        <dc:type
           rdf:resource="http://purl.org/dc/dcmitype/StillImage" />
        <dc:title></dc:title>
      </cc:Work>
    </rdf:RDF>
  </metadata>
  <defs
     id="defs40">
    <clipPath
       id="ordi2-0">
      <circle
         cx="204.90433"
         cy="21.921255"
         r="3.75"
         id="circle19-4" />
      <circle
         cx="204.90433"
         cy="81.921257"
         r="3.75"
         id="circle21-8" />
      <circle
         cx="174.90433"
         cy="51.921257"
         r="3.75"
         id="circle23-8" />
      <circle
         cx="234.90433"
         cy="51.921257"
         r="3.75"
         id="circle25-8" />
    </clipPath>
  </defs>
  <sodipodi:namedview
     pagecolor="#ffffff"
     bordercolor="#666666"
     borderopacity="1"
     objecttolerance="10"
     gridtolerance="10"
     guidetolerance="10"
     inkscape:pageopacity="0"
     inkscape:pageshadow="2"
     inkscape:window-width="1920"
     inkscape:window-height="1020"
     id="namedview38"
     showgrid="false"
     inkscape:zoom="4.2909091"
     inkscape:cx="29.617273"
     inkscape:cy="64.376395"
     inkscape:window-x="0"
     inkscape:window-y="0"
     inkscape:window-maximized="1"
     inkscape:current-layer="svg36"
     showguides="true"
     inkscape:guide-bbox="true" />
  <clipPath
     id="escu">
    <rect
       width="100"
       height="120"
       id="rect2" />
  </clipPath>
  <path
     style="fill:#000000;stroke:none;stroke-width:0.36000001px;stroke-linecap:butt;stroke-linejoin:round;stroke-opacity:1"
     d="m 25.744635,69.992593 c -0.996212,2.8e-4 -1.803621,0.808005 -1.803516,1.804215 5.04e-4,0.482796 0.194494,0.945249 0.538594,1.283908 v 2.659219 h -3.271642 v 2.516483 h 3.019922 c 0,3.400934 1.336759,10.375034 -1.845702,12.668907 -0.816771,0.429647 -1.875444,0.23386 -2.768203,0 -0.993266,-0.260187 -2.052956,-0.701303 -2.685235,-1.510311 -0.71442,-0.914112 -0.9225,-3.356017 -0.9225,-3.356017 l 2.01375,1.42664 v 0 l -3.020625,-6.040544 -1.510311,6.124215 v 0 l 1.426639,-1.342263 c 0,0 -0.04718,3.306466 0.58711,4.781953 0.572734,1.33231 1.53742,2.590172 2.768905,3.356012 2.171648,1.35052 4.909292,-0.964687 7.466486,-0.964661 2.557421,2.8e-5 5.29554,2.315181 7.467186,0.964661 1.231488,-0.76584 2.196172,-2.023702 2.768907,-3.356012 0.634284,-1.475487 0.58711,-4.781953 0.58711,-4.781953 l 1.425937,1.342263 v 0 l -1.510312,-6.124215 -3.019922,6.040544 v 0 l 2.01375,-1.42664 c 0,0 -0.208783,2.441905 -0.923203,3.356017 -0.632279,0.809009 -1.691266,1.250124 -2.684532,1.510311 -0.892759,0.23386 -1.952135,0.429647 -2.768907,0 -3.182461,-2.293873 -1.845702,-9.267973 -1.845702,-12.668907 h 3.020625 V 75.739935 H 26.9969 v -2.644452 c 0.352679,-0.339995 0.551926,-0.808798 0.551953,-1.298675 1.05e-4,-0.996487 -0.807733,-1.804323 -1.804218,-1.804215 z m -0.03515,0.793123 c 0.157979,-0.0056 0.316483,0.02272 0.460547,0.08578 0.144064,0.06306 0.273052,0.161035 0.370547,0.293907 0.141818,0.177776 0.221346,0.404028 0.220781,0.631404 0.0063,0.164733 -0.0346,0.321642 -0.108281,0.460548 -0.07368,0.13891 -0.180705,0.259902 -0.307969,0.353672 -0.127264,0.09377 -0.274411,0.159829 -0.428906,0.18914 -0.154496,0.0293 -0.316424,0.0221 -0.471797,-0.03233 -0.159116,-0.04274 -0.296848,-0.127631 -0.407813,-0.239062 -0.110965,-0.11143 -0.194754,-0.2494 -0.246796,-0.398671 -0.05204,-0.149274 -0.07179,-0.309917 -0.05414,-0.466175 0.01766,-0.156254 0.07274,-0.308469 0.17086,-0.440859 0.08785,-0.139435 0.209507,-0.246125 0.34875,-0.319216 0.139241,-0.0731 0.296239,-0.112532 0.454218,-0.118127 z"
     id="path1204-5-7"
     inkscape:connector-curvature="0"
     sodipodi:nodetypes="ccccccccsccccccccssssscccccccsscccccccccscccscccccccsc" />
  <path
     style="fill:#000000;stroke:none;stroke-width:0.36000001px;stroke-linecap:butt;stroke-linejoin:round;stroke-opacity:1"
     d="m 75.744635,69.992594 c -0.996212,2.81e-4 -1.803621,0.808006 -1.803516,1.804216 5.04e-4,0.482796 0.194494,0.945248 0.538594,1.283908 v 2.659219 h -3.271642 v 2.516483 h 3.019922 c 0,3.400934 1.336759,10.375034 -1.845702,12.668907 -0.816771,0.429647 -1.875444,0.23386 -2.768203,0 -0.993266,-0.260186 -2.052956,-0.701302 -2.685235,-1.510311 -0.71442,-0.914112 -0.9225,-3.356018 -0.9225,-3.356018 l 2.01375,1.426641 v 0 l -3.020625,-6.040545 -1.510312,6.124216 v 0 l 1.42664,-1.342264 c 0,0 -0.04718,3.306467 0.58711,4.781953 0.572734,1.332311 1.53742,2.590172 2.768905,3.356021 2.171648,1.35051 4.909292,-0.964695 7.466486,-0.964668 2.557421,2.7e-5 5.29554,2.315178 7.467186,0.964668 1.231488,-0.765848 2.196173,-2.02371 2.768904,-3.356021 0.634284,-1.475486 0.58711,-4.781953 0.58711,-4.781953 l 1.425938,1.342264 v 0 l -1.510308,-6.124216 -3.019924,6.040545 v 0 l 2.013753,-1.426641 c 0,0 -0.208785,2.441906 -0.923205,3.356018 -0.632283,0.80901 -1.691266,1.250125 -2.684533,1.510311 -0.892759,0.23386 -1.952135,0.429647 -2.768907,0 C 75.91186,88.631454 77.248619,81.657354 77.248619,78.25642 h 3.020624 V 75.739937 H 76.9969 v -2.644452 c 0.352679,-0.339995 0.551926,-0.808798 0.551953,-1.298675 1.05e-4,-0.996487 -0.807733,-1.804324 -1.804218,-1.804216 z m -0.03515,0.793124 c 0.157979,-0.0056 0.316483,0.02272 0.460547,0.08578 0.144064,0.06306 0.273052,0.161035 0.370547,0.293907 0.141817,0.177775 0.221346,0.404028 0.220781,0.631404 0.0063,0.164733 -0.03461,0.321642 -0.108281,0.460548 -0.07368,0.13891 -0.180705,0.259902 -0.307969,0.353671 -0.127264,0.09377 -0.274411,0.15983 -0.428906,0.189141 -0.154496,0.0293 -0.316424,0.0221 -0.471797,-0.03233 -0.159116,-0.04274 -0.296848,-0.127631 -0.407813,-0.239062 -0.110965,-0.111431 -0.194754,-0.249401 -0.246796,-0.398671 -0.05204,-0.149274 -0.07179,-0.309917 -0.05414,-0.466175 0.01766,-0.156254 0.07274,-0.308469 0.17086,-0.440859 0.08785,-0.139436 0.209507,-0.246125 0.34875,-0.319216 0.139241,-0.0731 0.296239,-0.112532 0.454218,-0.118127 z"
     id="path1204-9-1-8"
     inkscape:connector-curvature="0"
     sodipodi:nodetypes="ccccccccsccccccccssssscccccccsscccccccccscccscccccccsc" />
  <path
     style="fill:#000000;stroke:none;stroke-width:0.36000001px;stroke-linecap:butt;stroke-linejoin:round;stroke-opacity:1"
     d="m 50.744635,67.992593 c -0.996212,2.8e-4 -1.803621,0.808005 -1.803516,1.804215 5.04e-4,0.482796 0.194494,0.945249 0.538594,1.283908 v 2.659219 h -3.271642 v 2.516483 h 3.019922 c 0,3.400934 1.336759,10.375034 -1.845702,12.668907 -0.816771,0.429647 -1.875444,0.23386 -2.768203,0 -0.993266,-0.260187 -2.052956,-0.701303 -2.685235,-1.510311 -0.71442,-0.914112 -0.9225,-3.356017 -0.9225,-3.356017 l 2.01375,1.42664 v 0 l -3.020625,-6.040544 -1.510312,6.124215 v 0 l 1.42664,-1.342263 c 0,0 -0.04718,3.306466 0.58711,4.781953 0.572734,1.33231 1.53742,2.590172 2.768905,3.356015 2.171648,1.350517 4.909292,-0.96469 7.466486,-0.964664 2.557421,2.8e-5 5.29554,2.315181 7.467186,0.964664 1.231488,-0.765843 2.196172,-2.023705 2.768907,-3.356015 0.634284,-1.475487 0.58711,-4.781953 0.58711,-4.781953 l 1.425937,1.342263 v 0 l -1.510312,-6.124215 -3.019922,6.040544 v 0 l 2.01375,-1.42664 c 0,0 -0.208783,2.441905 -0.923203,3.356017 -0.632279,0.809009 -1.691266,1.250124 -2.684532,1.510311 -0.892759,0.23386 -1.952135,0.429647 -2.768907,0 -3.182461,-2.293873 -1.845702,-9.267973 -1.845702,-12.668907 h 3.020624 V 73.739935 H 51.9969 v -2.644452 c 0.352679,-0.339995 0.551926,-0.808798 0.551953,-1.298675 1.05e-4,-0.996487 -0.807733,-1.804323 -1.804218,-1.804215 z m -0.03515,0.793123 c 0.157979,-0.0056 0.316483,0.02272 0.460547,0.08578 0.144064,0.06306 0.273052,0.161035 0.370547,0.293907 0.141817,0.177776 0.221346,0.404028 0.220781,0.631404 0.0063,0.164733 -0.0346,0.321642 -0.108281,0.460548 -0.07368,0.13891 -0.180705,0.259902 -0.307969,0.353672 -0.127264,0.09377 -0.274411,0.159829 -0.428906,0.18914 -0.154496,0.0293 -0.316424,0.0221 -0.471797,-0.03233 -0.159116,-0.04274 -0.296848,-0.127631 -0.407813,-0.239062 -0.110965,-0.11143 -0.194754,-0.2494 -0.246796,-0.398671 -0.05204,-0.149274 -0.07179,-0.309917 -0.05414,-0.466175 0.01766,-0.156254 0.07274,-0.308469 0.17086,-0.440859 0.08785,-0.139435 0.209507,-0.246125 0.34875,-0.319216 0.139241,-0.0731 0.296239,-0.112532 0.454218,-0.118127 z"
     id="path1204-5-7-8"
     inkscape:connector-curvature="0"
     sodipodi:nodetypes="ccccccccsccccccccssssscccccccsscccccccccscccscccccccsc" />
  <path
     style="fill:#000000;stroke:none;stroke-width:0.36000001px;stroke-linecap:butt;stroke-linejoin:round;stroke-opacity:1"
     d="m 25.744635,44.992593 c -0.996212,2.8e-4 -1.803621,0.808005 -1.803516,1.804215 5.04e-4,0.482796 0.194494,0.945249 0.538594,1.283908 v 2.659219 h -3.271642 v 2.516483 h 3.019922 c 0,3.400934 1.336759,10.375034 -1.845702,12.668907 -0.816771,0.429647 -1.875444,0.23386 -2.768203,0 -0.993266,-0.260187 -2.052956,-0.701303 -2.685235,-1.510311 -0.71442,-0.914112 -0.9225,-3.356017 -0.9225,-3.356017 l 2.01375,1.42664 v 0 l -3.020625,-6.040544 -1.510311,6.124215 v 0 l 1.426639,-1.342263 c 0,0 -0.04718,3.306466 0.58711,4.781953 0.572734,1.33231 1.53742,2.590172 2.768905,3.356015 2.171648,1.350517 4.909292,-0.96469 7.466486,-0.964664 2.557421,2.8e-5 5.29554,2.315181 7.467186,0.964664 1.231488,-0.765843 2.196172,-2.023705 2.768907,-3.356015 0.634284,-1.475487 0.58711,-4.781953 0.58711,-4.781953 l 1.425937,1.342263 v 0 l -1.510312,-6.124215 -3.019922,6.040544 v 0 l 2.01375,-1.42664 c 0,0 -0.208783,2.441905 -0.923203,3.356017 -0.632279,0.809009 -1.691266,1.250124 -2.684532,1.510311 -0.892759,0.23386 -1.952135,0.429647 -2.768907,0 -3.182461,-2.293873 -1.845702,-9.267973 -1.845702,-12.668907 h 3.020625 V 50.739935 H 26.9969 v -2.644452 c 0.352679,-0.339995 0.551926,-0.808798 0.551953,-1.298675 1.05e-4,-0.996487 -0.807733,-1.804323 -1.804218,-1.804215 z m -0.03515,0.793123 c 0.157979,-0.0056 0.316483,0.02272 0.460547,0.08578 0.144064,0.06306 0.273052,0.161035 0.370547,0.293907 0.141818,0.177776 0.221346,0.404028 0.220781,0.631404 0.0063,0.164733 -0.0346,0.321642 -0.108281,0.460548 -0.07368,0.13891 -0.180705,0.259902 -0.307969,0.353672 -0.127264,0.09377 -0.274411,0.159829 -0.428906,0.18914 -0.154496,0.0293 -0.316424,0.0221 -0.471797,-0.03233 -0.159116,-0.04274 -0.296848,-0.127631 -0.407813,-0.239062 -0.110965,-0.11143 -0.194754,-0.2494 -0.246796,-0.398671 -0.05204,-0.149274 -0.07179,-0.309917 -0.05414,-0.466175 0.01766,-0.156254 0.07274,-0.308469 0.17086,-0.440859 0.08785,-0.139435 0.209507,-0.246125 0.34875,-0.319216 0.139241,-0.0731 0.296239,-0.112532 0.454218,-0.118127 z"
     id="path1204-5-7-4"
     inkscape:connector-curvature="0"
     sodipodi:nodetypes="ccccccccsccccccccssssscccccccsscccccccccscccscccccccsc" />
  <path
     style="fill:#000000;stroke:none;stroke-width:0.36000001px;stroke-linecap:butt;stroke-linejoin:round;stroke-opacity:1"
     d="m 75.744635,44.992594 c -0.996212,2.81e-4 -1.803621,0.808006 -1.803516,1.804216 5.04e-4,0.482796 0.194494,0.945248 0.538594,1.283908 v 2.659219 h -3.271642 v 2.516483 h 3.019922 c 0,3.400934 1.336759,10.375034 -1.845702,12.668907 -0.816771,0.429647 -1.875444,0.23386 -2.768203,0 -0.993266,-0.260186 -2.052956,-0.701302 -2.685235,-1.510311 -0.71442,-0.914112 -0.9225,-3.356018 -0.9225,-3.356018 l 2.01375,1.426641 v 0 l -3.020625,-6.040545 -1.510312,6.124216 v 0 l 1.42664,-1.342264 c 0,0 -0.04718,3.306467 0.58711,4.781953 0.572734,1.332311 1.53742,2.590172 2.768905,3.356017 2.171648,1.350514 4.909292,-0.964691 7.466486,-0.964664 2.557421,2.7e-5 5.29554,2.315178 7.467186,0.964664 1.231488,-0.765844 2.196173,-2.023706 2.768904,-3.356017 0.634284,-1.475486 0.58711,-4.781953 0.58711,-4.781953 l 1.425938,1.342264 v 0 l -1.510308,-6.124216 -3.019924,6.040545 v 0 l 2.013753,-1.426641 c 0,0 -0.208785,2.441906 -0.923205,3.356018 -0.632283,0.80901 -1.691266,1.250125 -2.684533,1.510311 -0.892759,0.23386 -1.952135,0.429647 -2.768907,0 C 75.91186,63.631454 77.248619,56.657354 77.248619,53.25642 h 3.020624 V 50.739937 H 76.9969 v -2.644452 c 0.352679,-0.339995 0.551926,-0.808798 0.551953,-1.298675 1.05e-4,-0.996487 -0.807733,-1.804324 -1.804218,-1.804216 z m -0.03515,0.793124 c 0.157979,-0.0056 0.316483,0.02272 0.460547,0.08578 0.144064,0.06306 0.273052,0.161035 0.370547,0.293907 0.141817,0.177775 0.221346,0.404028 0.220781,0.631404 0.0063,0.164733 -0.03461,0.321642 -0.108281,0.460548 -0.07368,0.13891 -0.180705,0.259902 -0.307969,0.353671 -0.127264,0.09377 -0.274411,0.15983 -0.428906,0.189141 -0.154496,0.0293 -0.316424,0.0221 -0.471797,-0.03233 -0.159116,-0.04274 -0.296848,-0.127631 -0.407813,-0.239062 -0.110965,-0.111431 -0.194754,-0.249401 -0.246796,-0.398671 -0.05204,-0.149274 -0.07179,-0.309917 -0.05414,-0.466175 0.01766,-0.156254 0.07274,-0.308469 0.17086,-0.440859 0.08785,-0.139436 0.209507,-0.246125 0.34875,-0.319216 0.139241,-0.0731 0.296239,-0.112532 0.454218,-0.118127 z"
     id="path1204-9-1-8-6"
     inkscape:connector-curvature="0"
     sodipodi:nodetypes="ccccccccsccccccccssssscccccccsscccccccccscccscccccccsc" />
  <path
     style="fill:#000000;stroke:none;stroke-width:0.36000001px;stroke-linecap:butt;stroke-linejoin:round;stroke-opacity:1"
     d="m 50.744635,40.992593 c -0.996212,2.8e-4 -1.803621,0.808005 -1.803516,1.804215 5.04e-4,0.482796 0.194494,0.945249 0.538594,1.283908 v 2.659219 h -3.271642 v 2.516483 h 3.019922 c 0,3.400934 1.336759,10.375034 -1.845702,12.668907 -0.816771,0.429647 -1.875444,0.23386 -2.768203,0 -0.993266,-0.260187 -2.052956,-0.701303 -2.685235,-1.510311 -0.71442,-0.914112 -0.9225,-3.356017 -0.9225,-3.356017 l 2.01375,1.42664 v 0 l -3.020625,-6.040544 -1.510312,6.124215 v 0 l 1.42664,-1.342263 c 0,0 -0.04718,3.306466 0.58711,4.781953 0.572734,1.33231 1.53742,2.590172 2.768905,3.356015 2.171648,1.350517 4.909292,-0.96469 7.466486,-0.964664 2.557421,2.8e-5 5.29554,2.315181 7.467186,0.964664 1.231488,-0.765843 2.196172,-2.023705 2.768907,-3.356015 0.634284,-1.475487 0.58711,-4.781953 0.58711,-4.781953 l 1.425937,1.342263 v 0 l -1.510312,-6.124215 -3.019922,6.040544 v 0 l 2.01375,-1.42664 c 0,0 -0.208783,2.441905 -0.923203,3.356017 -0.632279,0.809009 -1.691266,1.250124 -2.684532,1.510311 -0.892759,0.23386 -1.952135,0.429647 -2.768907,0 -3.182461,-2.293873 -1.845702,-9.267973 -1.845702,-12.668907 h 3.020624 V 46.739935 H 51.9969 v -2.644452 c 0.352679,-0.339995 0.551926,-0.808798 0.551953,-1.298675 1.05e-4,-0.996487 -0.807733,-1.804323 -1.804218,-1.804215 z m -0.03515,0.793123 c 0.157979,-0.0056 0.316483,0.02272 0.460547,0.08578 0.144064,0.06306 0.273052,0.161035 0.370547,0.293907 0.141817,0.177776 0.221346,0.404028 0.220781,0.631404 0.0063,0.164733 -0.0346,0.321642 -0.108281,0.460548 -0.07368,0.13891 -0.180705,0.259902 -0.307969,0.353672 -0.127264,0.09377 -0.274411,0.159829 -0.428906,0.18914 -0.154496,0.0293 -0.316424,0.0221 -0.471797,-0.03233 -0.159116,-0.04274 -0.296848,-0.127631 -0.407813,-0.239062 -0.110965,-0.11143 -0.194754,-0.2494 -0.246796,-0.398671 -0.05204,-0.149274 -0.07179,-0.309917 -0.05414,-0.466175 0.01766,-0.156254 0.07274,-0.308469 0.17086,-0.440859 0.08785,-0.139435 0.209507,-0.246125 0.34875,-0.319216 0.139241,-0.0731 0.296239,-0.112532 0.454218,-0.118127 z"
     id="path1204-5-7-8-7"
     inkscape:connector-curvature="0"
     sodipodi:nodetypes="ccccccccsccccccccssssscccccccsscccccccccscccscccccccsc" />
  <path
     style="fill:#000000;stroke:none;stroke-width:0.36000001px;stroke-linecap:butt;stroke-linejoin:round;stroke-opacity:1"
     d="m 17.744635,19.992593 c -0.996212,2.81e-4 -1.803621,0.808005 -1.803516,1.804215 5.04e-4,0.482796 0.194494,0.945249 0.538594,1.283908 v 2.659219 h -3.271642 v 2.516483 h 3.019922 c 0,3.400934 1.336759,10.375034 -1.845702,12.668907 -0.816771,0.429647 -1.875444,0.23386 -2.768203,0 -0.993266,-0.260187 -2.052956,-0.701303 -2.685235,-1.510311 -0.71442,-0.914112 -0.9225,-3.356017 -0.9225,-3.356017 l 2.01375,1.42664 v 0 L 6.999478,31.445093 5.489167,37.569308 v 0 l 1.426639,-1.342263 c 0,0 -0.04718,3.306466 0.58711,4.781953 0.572734,1.33231 1.53742,2.590172 2.768905,3.356015 2.171648,1.350517 4.909292,-0.96469 7.466486,-0.964664 2.557421,2.8e-5 5.29554,2.315181 7.467186,0.964664 1.231488,-0.765843 2.196172,-2.023705 2.768907,-3.356015 0.634284,-1.475487 0.58711,-4.781953 0.58711,-4.781953 l 1.425937,1.342263 v 0 l -1.510312,-6.124215 -3.019922,6.040544 v 0 l 2.01375,-1.42664 c 0,0 -0.208783,2.441905 -0.923203,3.356017 -0.632279,0.809009 -1.691266,1.250124 -2.684532,1.510311 -0.892759,0.23386 -1.952135,0.429647 -2.768907,0 -3.182461,-2.293873 -1.845702,-9.267973 -1.845702,-12.668907 h 3.020625 V 25.739935 H 18.9969 v -2.644452 c 0.352679,-0.339995 0.551926,-0.808797 0.551953,-1.298675 1.05e-4,-0.996487 -0.807733,-1.804323 -1.804218,-1.804215 z m -0.03515,0.793123 c 0.157979,-0.0056 0.316483,0.02272 0.460547,0.08578 0.144064,0.06306 0.273052,0.161035 0.370547,0.293908 0.141818,0.177775 0.221346,0.404028 0.220781,0.631404 0.0063,0.164732 -0.0346,0.321642 -0.108281,0.460548 -0.07368,0.138909 -0.180705,0.259902 -0.307969,0.353671 -0.127264,0.09377 -0.274411,0.159829 -0.428906,0.18914 -0.154496,0.0293 -0.316424,0.0221 -0.471797,-0.03233 -0.15912,-0.04274 -0.296852,-0.127631 -0.407817,-0.239062 -0.110965,-0.11143 -0.194754,-0.2494 -0.246796,-0.398671 -0.05204,-0.149274 -0.07179,-0.309916 -0.05414,-0.466174 0.01766,-0.156255 0.07274,-0.30847 0.17086,-0.44086 0.08785,-0.139435 0.209507,-0.246125 0.34875,-0.319216 0.139241,-0.0731 0.296239,-0.112532 0.454218,-0.118126 z"
     id="path1204-5-7-4-6"
     inkscape:connector-curvature="0"
     sodipodi:nodetypes="ccccccccsccccccccssssscccccccsscccccccccscccscccccccsc" />
  <path
     style="fill:#000000;stroke:none;stroke-width:0.36000001px;stroke-linecap:butt;stroke-linejoin:round;stroke-opacity:1"
     d="m 83.744635,19.992594 c -0.996212,2.81e-4 -1.803621,0.808006 -1.803516,1.804216 5.04e-4,0.482796 0.194494,0.945249 0.538594,1.283908 v 2.659219 h -3.271642 v 2.516483 h 3.019922 c 0,3.400934 1.336759,10.375034 -1.845702,12.668907 -0.816771,0.429647 -1.875444,0.23386 -2.768203,0 -0.993266,-0.260186 -2.052956,-0.701302 -2.685235,-1.510311 -0.71442,-0.914112 -0.9225,-3.356018 -0.9225,-3.356018 l 2.01375,1.426641 v 0 l -3.020625,-6.040545 -1.510312,6.124216 v 0 l 1.42664,-1.342264 c 0,0 -0.04718,3.306467 0.58711,4.781953 0.572734,1.332311 1.53742,2.590172 2.768905,3.356017 2.171648,1.350514 4.909292,-0.964691 7.466486,-0.964664 2.557421,2.7e-5 5.29554,2.315178 7.467186,0.964664 1.231488,-0.765844 2.196173,-2.023706 2.768904,-3.356017 0.634284,-1.475486 0.58711,-4.781953 0.58711,-4.781953 l 1.425938,1.342264 v 0 l -1.510308,-6.124216 -3.019924,6.040545 v 0 l 2.013753,-1.426641 c 0,0 -0.208785,2.441906 -0.923205,3.356018 -0.632283,0.80901 -1.691266,1.250125 -2.684533,1.510311 -0.892759,0.23386 -1.952135,0.429647 -2.768907,0 C 83.91186,38.631454 85.248619,31.657354 85.248619,28.25642 h 3.020624 V 25.739937 H 84.9969 v -2.644452 c 0.352679,-0.339995 0.551926,-0.808798 0.551953,-1.298675 1.05e-4,-0.996487 -0.807733,-1.804323 -1.804218,-1.804216 z m -0.03515,0.793124 c 0.157979,-0.0056 0.316483,0.02272 0.460547,0.08578 0.144064,0.06306 0.273052,0.161035 0.370547,0.293907 0.141817,0.177776 0.221346,0.404028 0.220781,0.631404 0.0063,0.164733 -0.03461,0.321642 -0.108281,0.460548 -0.07368,0.13891 -0.180705,0.259902 -0.307969,0.353672 -0.127264,0.09377 -0.274411,0.159829 -0.428906,0.18914 -0.154496,0.0293 -0.316424,0.0221 -0.471797,-0.03233 -0.15912,-0.04274 -0.296852,-0.127631 -0.407817,-0.239062 -0.110965,-0.11143 -0.194754,-0.2494 -0.246796,-0.398671 -0.05204,-0.149274 -0.07179,-0.309917 -0.05414,-0.466175 0.01766,-0.156254 0.07274,-0.308469 0.17086,-0.440859 0.08785,-0.139435 0.209507,-0.246125 0.34875,-0.319216 0.139241,-0.0731 0.296239,-0.112532 0.454218,-0.118127 z"
     id="path1204-9-1-8-6-0"
     inkscape:connector-curvature="0"
     sodipodi:nodetypes="ccccccccsccccccccssssscccccccsscccccccccscccscccccccsc" />
  <path
     style="fill:#000000;stroke:none;stroke-width:0.36000001px;stroke-linecap:butt;stroke-linejoin:round;stroke-opacity:1"
     d="m 50.744635,15.992593 c -0.996212,2.81e-4 -1.803621,0.808005 -1.803516,1.804215 5.04e-4,0.482796 0.194494,0.945249 0.538594,1.283908 v 2.659219 h -3.271642 v 2.516483 h 3.019922 c 0,3.400934 1.336759,10.375034 -1.845702,12.668907 -0.816771,0.429647 -1.875444,0.23386 -2.768203,0 -0.993266,-0.260187 -2.052956,-0.701303 -2.685235,-1.510311 -0.71442,-0.914112 -0.9225,-3.356017 -0.9225,-3.356017 l 2.01375,1.42664 v 0 l -3.020625,-6.040544 -1.510312,6.124215 v 0 l 1.42664,-1.342263 c 0,0 -0.04718,3.306466 0.58711,4.781953 0.572734,1.33231 1.53742,2.590172 2.768905,3.356015 2.171648,1.350517 4.909292,-0.96469 7.466486,-0.964664 2.557421,2.8e-5 5.29554,2.315181 7.467186,0.964664 1.231488,-0.765843 2.196172,-2.023705 2.768907,-3.356015 0.634284,-1.475487 0.58711,-4.781953 0.58711,-4.781953 l 1.425937,1.342263 v 0 l -1.510312,-6.124215 -3.019922,6.040544 v 0 l 2.01375,-1.42664 c 0,0 -0.208783,2.441905 -0.923203,3.356017 -0.632279,0.809009 -1.691266,1.250124 -2.684532,1.510311 -0.892759,0.23386 -1.952135,0.429647 -2.768907,0 -3.182461,-2.293873 -1.845702,-9.267973 -1.845702,-12.668907 h 3.020624 V 21.739935 H 51.9969 v -2.644452 c 0.352679,-0.339995 0.551926,-0.808797 0.551953,-1.298675 1.05e-4,-0.996487 -0.807733,-1.804323 -1.804218,-1.804215 z m -0.03515,0.793123 c 0.157979,-0.0056 0.316483,0.02272 0.460547,0.08578 0.144064,0.06306 0.273052,0.161035 0.370547,0.293908 0.141817,0.177775 0.221346,0.404028 0.220781,0.631404 0.0063,0.164732 -0.0346,0.321642 -0.108281,0.460548 -0.07368,0.138909 -0.180705,0.259902 -0.307969,0.353671 -0.127264,0.09377 -0.274411,0.159829 -0.428906,0.18914 -0.154496,0.0293 -0.316424,0.0221 -0.471797,-0.03233 -0.15912,-0.04274 -0.296852,-0.127631 -0.407817,-0.239062 -0.110965,-0.11143 -0.194754,-0.2494 -0.246796,-0.398671 -0.05204,-0.149274 -0.07179,-0.309916 -0.05414,-0.466174 0.01766,-0.156255 0.07274,-0.30847 0.17086,-0.44086 0.08785,-0.139435 0.209507,-0.246125 0.34875,-0.319216 0.139241,-0.0731 0.296239,-0.112532 0.454218,-0.118126 z"
     id="path1204-5-7-8-7-9"
     inkscape:connector-curvature="0"
     sodipodi:nodetypes="ccccccccsccccccccssssscccccccsscccccccccscccscccccccsc" />
  <path
     style="fill:#000000;stroke:none;stroke-width:0.36000001px;stroke-linecap:butt;stroke-linejoin:round;stroke-opacity:1"
     d="m 33.744635,1.99259 c -0.996212,2.81e-4 -1.803621,0.808006 -1.803516,1.804216 5.04e-4,0.482796 0.194494,0.945248 0.538594,1.283907 v 2.659219 h -3.271642 v 2.516483 h 3.019922 c 0,3.400934 1.336759,10.375034 -1.845702,12.668907 -0.816771,0.429647 -1.875444,0.23386 -2.768203,0 -0.993266,-0.260187 -2.052956,-0.701303 -2.685235,-1.510311 -0.71442,-0.914112 -0.9225,-3.356017 -0.9225,-3.356017 l 2.01375,1.42664 v 0 l -3.020625,-6.040544 -1.510311,6.124215 v 0 l 1.426639,-1.342263 c 0,0 -0.04718,3.306466 0.58711,4.781953 0.572734,1.33231 1.53742,2.590172 2.768905,3.356015 2.171648,1.350517 4.909292,-0.96469 7.466486,-0.964664 2.557421,2.8e-5 5.29554,2.315181 7.467186,0.964664 1.231488,-0.765843 2.196172,-2.023705 2.768907,-3.356015 0.634284,-1.475487 0.58711,-4.781953 0.58711,-4.781953 l 1.425937,1.342263 v 0 l -1.510312,-6.124215 -3.019922,6.040544 v 0 l 2.01375,-1.42664 c 0,0 -0.208783,2.441905 -0.923203,3.356017 -0.632279,0.809009 -1.691266,1.250124 -2.684532,1.510311 -0.892759,0.23386 -1.952135,0.429647 -2.768907,0 -3.182461,-2.293873 -1.845702,-9.267973 -1.845702,-12.668907 h 3.020625 V 7.739932 H 34.9969 V 5.09548 C 35.349579,4.755486 35.548826,4.286683 35.548853,3.796806 35.548958,2.800318 34.74112,1.992482 33.744635,1.99259 Z m -0.03515,0.793123 c 0.157979,-0.0056 0.316483,0.02272 0.460547,0.08578 0.144064,0.06306 0.273052,0.161035 0.370547,0.293908 0.141818,0.177775 0.221346,0.404028 0.220781,0.631404 0.0063,0.164732 -0.0346,0.321642 -0.108281,0.460548 -0.07368,0.138909 -0.180705,0.259902 -0.307969,0.353671 -0.127264,0.09377 -0.274411,0.159829 -0.428906,0.18914 -0.154496,0.0293 -0.316424,0.0221 -0.471797,-0.03233 -0.15912,-0.04274 -0.296852,-0.12763 -0.407817,-0.239061 -0.110965,-0.111431 -0.194754,-0.249401 -0.246796,-0.398671 -0.05204,-0.149274 -0.07179,-0.309917 -0.05414,-0.466175 0.01766,-0.156255 0.07274,-0.30847 0.17086,-0.44086 0.08785,-0.139435 0.209507,-0.246125 0.34875,-0.319215 0.139241,-0.0731 0.296239,-0.112533 0.454218,-0.118127 z"
     id="path1204-5-7-4-6-5"
     inkscape:connector-curvature="0"
     sodipodi:nodetypes="ccccccccsccccccccssssscccccccsscccccccccscccscccccccsc" />
  <path
     style="fill:#000000;stroke:none;stroke-width:0.36000001px;stroke-linecap:butt;stroke-linejoin:round;stroke-opacity:1"
     d="m 67.744635,1.99259 c -0.996212,2.81e-4 -1.803621,0.808006 -1.803516,1.804216 5.04e-4,0.482796 0.194494,0.945248 0.538594,1.283907 v 2.659219 h -3.271642 v 2.516483 h 3.019922 c 0,3.400934 1.336759,10.375034 -1.845702,12.668907 -0.816771,0.429647 -1.875444,0.23386 -2.768203,0 -0.993266,-0.260187 -2.052956,-0.701303 -2.685235,-1.510311 -0.71442,-0.914112 -0.9225,-3.356017 -0.9225,-3.356017 l 2.01375,1.42664 v 0 l -3.020625,-6.040544 -1.510311,6.124215 v 0 l 1.426639,-1.342263 c 0,0 -0.04718,3.306466 0.58711,4.781953 0.572734,1.33231 1.53742,2.590172 2.768905,3.356015 2.171648,1.350517 4.909292,-0.96469 7.466486,-0.964664 2.557421,2.8e-5 5.29554,2.315181 7.467186,0.964664 1.231488,-0.765843 2.196172,-2.023705 2.768907,-3.356015 0.634284,-1.475487 0.58711,-4.781953 0.58711,-4.781953 l 1.425937,1.342263 v 0 l -1.510312,-6.124215 -3.019922,6.040544 v 0 l 2.01375,-1.42664 c 0,0 -0.208783,2.441905 -0.923203,3.356017 -0.632279,0.809009 -1.691266,1.250124 -2.684532,1.510311 -0.892759,0.23386 -1.952135,0.429647 -2.768907,0 -3.182461,-2.293873 -1.845702,-9.267973 -1.845702,-12.668907 h 3.020625 V 7.739932 H 68.9969 V 5.09548 C 69.349579,4.755486 69.548826,4.286683 69.548853,3.796806 69.548958,2.800318 68.74112,1.992482 67.744635,1.99259 Z m -0.03515,0.793123 c 0.157979,-0.0056 0.316483,0.02272 0.460547,0.08578 0.144064,0.06306 0.273052,0.161035 0.370547,0.293908 0.141818,0.177775 0.221346,0.404028 0.220781,0.631404 0.0063,0.164732 -0.0346,0.321642 -0.108281,0.460548 -0.07368,0.138909 -0.180705,0.259902 -0.307969,0.353671 -0.127264,0.09377 -0.274411,0.159829 -0.428906,0.18914 -0.154496,0.0293 -0.316424,0.0221 -0.471797,-0.03233 -0.15912,-0.04274 -0.296852,-0.12763 -0.407817,-0.239061 -0.110965,-0.111431 -0.194754,-0.249401 -0.246796,-0.398671 -0.05204,-0.149274 -0.07179,-0.309917 -0.05414,-0.466175 0.01766,-0.156255 0.07274,-0.30847 0.17086,-0.44086 0.08785,-0.139435 0.209507,-0.246125 0.34875,-0.319215 0.139241,-0.0731 0.296239,-0.112533 0.454218,-0.118127 z"
     id="path1204-5-7-4-6-5-7"
     inkscape:connector-curvature="0"
     sodipodi:nodetypes="ccccccccsccccccccssssscccccccsscccccccccscccscccccccsc" />
</svg>
