<?xml version="1.0" encoding="UTF-8" standalone="no"?>
<svg
   xmlns:dc="http://purl.org/dc/elements/1.1/"
   xmlns:cc="http://creativecommons.org/ns#"
   xmlns:rdf="http://www.w3.org/1999/02/22-rdf-syntax-ns#"
   xmlns:svg="http://www.w3.org/2000/svg"
   xmlns="http://www.w3.org/2000/svg"
   xmlns:sodipodi="http://sodipodi.sourceforge.net/DTD/sodipodi-0.dtd"
   xmlns:inkscape="http://www.inkscape.org/namespaces/inkscape"
   viewBox="0 0 100 110"
   version="1.1"
   id="svg36"
   sodipodi:docname="three.svg"
   inkscape:version="0.92.4 (5da689c313, 2019-01-14)">
  <metadata
     id="metadata42">
    <rdf:RDF>
      <cc:Work
         rdf:about="">
        <dc:format>image/svg+xml</dc:format>
        <dc:type
           rdf:resource="http://purl.org/dc/dcmitype/StillImage" />
        <dc:title></dc:title>
      </cc:Work>
    </rdf:RDF>
  </metadata>
  <defs
     id="defs40">
    <clipPath
       id="ordi2-0">
      <circle
         cx="204.90433"
         cy="21.921255"
         r="3.75"
         id="circle19-4" />
      <circle
         cx="204.90433"
         cy="81.921257"
         r="3.75"
         id="circle21-8" />
      <circle
         cx="174.90433"
         cy="51.921257"
         r="3.75"
         id="circle23-8" />
      <circle
         cx="234.90433"
         cy="51.921257"
         r="3.75"
         id="circle25-8" />
    </clipPath>
  </defs>
  <sodipodi:namedview
     pagecolor="#ffffff"
     bordercolor="#666666"
     borderopacity="1"
     objecttolerance="10"
     gridtolerance="10"
     guidetolerance="10"
     inkscape:pageopacity="0"
     inkscape:pageshadow="2"
     inkscape:window-width="1920"
     inkscape:window-height="1020"
     id="namedview38"
     showgrid="false"
     inkscape:zoom="6.0682618"
     inkscape:cx="16.931065"
     inkscape:cy="59.105159"
     inkscape:window-x="0"
     inkscape:window-y="0"
     inkscape:window-maximized="1"
     inkscape:current-layer="svg36"
     showguides="true"
     inkscape:guide-bbox="true" />
  <clipPath
     id="escu">
    <rect
       width="100"
       height="120"
       id="rect2" />
  </clipPath>
  <path
     style="fill:#000000;stroke:none;stroke-width:0.5px;stroke-linecap:butt;stroke-linejoin:round;stroke-opacity:1"
     d="m 30.747096,9.971257 c -1.383627,3.9e-4 -2.505029,1.12223 -2.504883,2.505855 7e-4,0.67055 0.27013,1.312845 0.748047,1.783205 v 3.69336 h -4.543946 v 3.495115 h 4.194336 c 0,4.72352 1.856608,14.40977 -2.563476,17.595705 -1.134404,0.596731 -2.604783,0.324805 -3.844727,0 -1.379536,-0.361371 -2.851327,-0.974032 -3.729492,-2.097655 -0.99225,-1.2696 -1.28125,-4.661135 -1.28125,-4.661135 l 2.796875,1.981445 v 0 l -4.195313,-8.389645 -2.097655,8.505855 v 0 l 1.981444,-1.864255 c 0,0 -0.06552,4.592315 0.81543,6.641601 0.795465,1.850431 2.135306,3.597461 3.845703,4.661133 3.016177,1.875715 6.81846,-1.339848 10.370118,-1.339811 3.551974,3.8e-5 7.354917,3.215526 10.371093,1.339811 1.710398,-1.063671 3.050238,-2.810702 3.845704,-4.661133 0.880949,-2.049286 0.815429,-6.641601 0.815429,-6.641601 l 1.980469,1.864255 v 0 l -2.097656,-8.505855 -4.194336,8.389645 v 0 l 2.796875,-1.981445 c 0,0 -0.289976,3.391535 -1.282227,4.661135 -0.878164,1.123624 -2.348979,1.736284 -3.728516,2.097655 -1.239944,0.324805 -2.711299,0.596731 -3.845703,0 -4.420085,-3.185935 -2.563476,-12.872185 -2.563476,-17.595705 h 4.195312 v -3.495115 h -4.544921 v -3.67285 c 0.489831,-0.472215 0.766563,-1.12333 0.766601,-1.803715 1.46e-4,-1.38401 -1.121851,-2.506005 -2.505859,-2.505855 z m -0.04883,1.10156 c 0.219415,-0.0078 0.43956,0.03155 0.639649,0.11914 0.200088,0.08759 0.379238,0.22366 0.514648,0.408205 0.196969,0.24691 0.307426,0.56115 0.306641,0.87695 0.0087,0.228795 -0.04806,0.446725 -0.150391,0.63965 -0.102334,0.19293 -0.250978,0.360975 -0.427734,0.49121 -0.176756,0.130235 -0.381127,0.221985 -0.595703,0.262695 -0.214577,0.0407 -0.439477,0.0307 -0.655274,-0.0449 -0.220994,-0.05936 -0.412288,-0.177265 -0.566406,-0.33203 -0.154119,-0.154765 -0.270492,-0.34639 -0.342773,-0.55371 -0.07228,-0.207325 -0.09971,-0.43044 -0.0752,-0.647465 0.02452,-0.21702 0.10103,-0.42843 0.237305,-0.612305 0.122017,-0.19366 0.290983,-0.34184 0.484375,-0.443355 0.193392,-0.10152 0.411444,-0.156295 0.630859,-0.164065 z"
     id="path1204"
     inkscape:connector-curvature="0"
     sodipodi:nodetypes="ccccccccsccccccccssssscccccccsscccccccccscccscccccccsc" />
  <path
     style="fill:#000000;stroke:none;stroke-width:0.5px;stroke-linecap:butt;stroke-linejoin:round;stroke-opacity:1"
     d="m 50.747096,49.97126 c -1.383627,3.9e-4 -2.505029,1.12223 -2.504883,2.505855 7e-4,0.67055 0.27013,1.312845 0.748047,1.783205 v 3.69336 h -4.543946 v 3.495115 h 4.194336 c 0,4.72352 1.856608,14.40977 -2.563476,17.595705 -1.134404,0.596731 -2.604783,0.324805 -3.844727,0 -1.379536,-0.361371 -2.851327,-0.974032 -3.729492,-2.097655 -0.99225,-1.2696 -1.28125,-4.661135 -1.28125,-4.661135 l 2.796875,1.981445 v 0 l -4.195313,-8.389645 -2.097655,8.505855 v 0 l 1.981444,-1.864255 c 0,0 -0.06552,4.592315 0.81543,6.641601 0.795465,1.850431 2.135306,3.597461 3.845703,4.661133 3.016177,1.875715 6.81846,-1.339848 10.370118,-1.339811 3.551974,3.8e-5 7.354917,3.215526 10.371093,1.339811 1.710398,-1.063671 3.050238,-2.810702 3.845704,-4.661133 0.880949,-2.049286 0.815429,-6.641601 0.815429,-6.641601 l 1.980469,1.864255 v 0 L 65.653346,65.87751 61.45901,74.267155 v 0 l 2.796875,-1.981445 c 0,0 -0.289976,3.391535 -1.282227,4.661135 -0.878164,1.123624 -2.348979,1.736284 -3.728516,2.097655 -1.239944,0.324805 -2.711299,0.596731 -3.845703,0 -4.420085,-3.185935 -2.563476,-12.872185 -2.563476,-17.595705 h 4.195312 V 57.95368 h -4.544921 v -3.67285 c 0.489831,-0.472215 0.766563,-1.12333 0.766601,-1.803715 1.46e-4,-1.38401 -1.121851,-2.506005 -2.505859,-2.505855 z m -0.04883,1.10156 c 0.219415,-0.0078 0.43956,0.03155 0.639649,0.11914 0.200088,0.08759 0.379238,0.22366 0.514648,0.408205 0.196969,0.24691 0.307426,0.56115 0.306641,0.87695 0.0087,0.228795 -0.04806,0.446725 -0.150391,0.63965 -0.102334,0.19293 -0.250978,0.360975 -0.427734,0.49121 -0.176756,0.130235 -0.381127,0.221985 -0.595703,0.262695 -0.214577,0.0407 -0.439477,0.0307 -0.655274,-0.0449 -0.220994,-0.05936 -0.412288,-0.177265 -0.566406,-0.33203 -0.154119,-0.154765 -0.270492,-0.34639 -0.342773,-0.55371 -0.07228,-0.207325 -0.09971,-0.43044 -0.0752,-0.647465 0.02452,-0.21702 0.10103,-0.42843 0.237305,-0.612305 0.122017,-0.19366 0.290983,-0.34184 0.484375,-0.443355 0.193392,-0.10152 0.411444,-0.156295 0.630859,-0.164065 z"
     id="path1204-0"
     inkscape:connector-curvature="0"
     sodipodi:nodetypes="ccccccccsccccccccssssscccccccsscccccccccscccscccccccsc" />
  <path
     style="fill:#000000;stroke:none;stroke-width:0.5px;stroke-linecap:butt;stroke-linejoin:round;stroke-opacity:1"
     d="m 70.747096,9.97126 c -1.383627,3.9e-4 -2.505029,1.12223 -2.504883,2.505855 7e-4,0.67055 0.27013,1.312845 0.748047,1.783205 v 3.69336 h -4.543946 v 3.495115 h 4.194336 c 0,4.72352 1.856608,14.40977 -2.563476,17.595705 -1.134404,0.596731 -2.604783,0.324805 -3.844727,0 -1.379536,-0.361371 -2.851327,-0.974032 -3.729492,-2.097655 -0.99225,-1.2696 -1.28125,-4.661135 -1.28125,-4.661135 l 2.796875,1.981445 v 0 l -4.195313,-8.389645 -2.097655,8.505855 v 0 l 1.981444,-1.864255 c 0,0 -0.06552,4.592315 0.81543,6.641601 0.795465,1.850431 2.135306,3.597461 3.845703,4.661133 3.016177,1.875715 6.81846,-1.339848 10.370118,-1.339811 3.551974,3.8e-5 7.354917,3.215526 10.371093,1.339811 1.7104,-1.063671 3.05024,-2.810702 3.8457,-4.661133 0.88095,-2.049286 0.81543,-6.641601 0.81543,-6.641601 l 1.98047,1.864255 v 0 l -2.09765,-8.505855 -4.19434,8.389645 v 0 l 2.79688,-1.981445 c 0,0 -0.28998,3.391535 -1.28223,4.661135 -0.87817,1.123624 -2.34898,1.736284 -3.728518,2.097655 -1.239944,0.324805 -2.711299,0.596731 -3.845703,0 -4.420085,-3.185935 -2.563476,-12.872185 -2.563476,-17.595705 h 4.195312 V 17.95368 h -4.544921 v -3.67285 c 0.489831,-0.472215 0.766563,-1.12333 0.766601,-1.803715 1.46e-4,-1.38401 -1.121851,-2.506005 -2.505859,-2.505855 z m -0.04883,1.10156 c 0.219415,-0.0078 0.43956,0.03155 0.639649,0.11914 0.200088,0.08759 0.379238,0.22366 0.514648,0.408205 0.196969,0.24691 0.307426,0.56115 0.306641,0.87695 0.0087,0.228795 -0.04806,0.446725 -0.150391,0.63965 -0.102334,0.19293 -0.250978,0.360975 -0.427734,0.49121 -0.176756,0.130235 -0.381127,0.221985 -0.595703,0.262695 -0.214577,0.0407 -0.439477,0.0307 -0.655274,-0.0449 -0.220994,-0.05936 -0.412288,-0.177265 -0.566406,-0.33203 -0.154119,-0.154765 -0.270492,-0.34639 -0.342773,-0.55371 -0.07228,-0.207325 -0.09971,-0.43044 -0.0752,-0.647465 0.02452,-0.21702 0.10103,-0.42843 0.237305,-0.612305 0.122017,-0.19366 0.290983,-0.34184 0.484375,-0.443355 0.193392,-0.10152 0.411444,-0.156295 0.630859,-0.164065 z"
     id="path1204-3"
     inkscape:connector-curvature="0"
     sodipodi:nodetypes="ccccccccsccccccccssssscccccccsscccccccccscccscccccccsc" />
</svg>
