<?xml version="1.0" encoding="UTF-8" standalone="no"?>
<svg
   xmlns:dc="http://purl.org/dc/elements/1.1/"
   xmlns:cc="http://creativecommons.org/ns#"
   xmlns:rdf="http://www.w3.org/1999/02/22-rdf-syntax-ns#"
   xmlns:svg="http://www.w3.org/2000/svg"
   xmlns="http://www.w3.org/2000/svg"
   xmlns:sodipodi="http://sodipodi.sourceforge.net/DTD/sodipodi-0.dtd"
   xmlns:inkscape="http://www.inkscape.org/namespaces/inkscape"
   viewBox="0 0 100 110"
   version="1.1"
   id="svg23"
   sodipodi:docname="crown_nine.svg"
   inkscape:version="0.92.4 (5da689c313, 2019-01-14)">
  <metadata
     id="metadata29">
    <rdf:RDF>
      <cc:Work
         rdf:about="">
        <dc:format>image/svg+xml</dc:format>
        <dc:type
           rdf:resource="http://purl.org/dc/dcmitype/StillImage" />
        <dc:title />
      </cc:Work>
    </rdf:RDF>
  </metadata>
  <defs
     id="defs27" />
  <sodipodi:namedview
     pagecolor="#ffffff"
     bordercolor="#666666"
     borderopacity="1"
     objecttolerance="10"
     gridtolerance="10"
     guidetolerance="10"
     inkscape:pageopacity="0"
     inkscape:pageshadow="2"
     inkscape:window-width="1920"
     inkscape:window-height="1020"
     id="namedview25"
     showgrid="false"
     inkscape:zoom="4"
     inkscape:cx="-22.932934"
     inkscape:cy="55.265914"
     inkscape:window-x="0"
     inkscape:window-y="0"
     inkscape:window-maximized="1"
     inkscape:current-layer="svg23"
     showguides="true"
     inkscape:guide-bbox="true"
     inkscape:lockguides="true" />
  <path
     inkscape:connector-curvature="0"
     style="fill:#000000;fill-opacity:1;stroke:none;stroke-width:0.55801296"
     id="e-23"
     d="m 17.158617,38.847795 7.971612,4.782969 3.985811,-4.782969 3.985811,4.782969 7.971611,-4.782969 -5.181552,15.146069 H 22.34017 Z" />
  <path
     inkscape:connector-curvature="0"
     style="fill:#000000;fill-opacity:1;stroke:none;stroke-width:0.55801296"
     id="e-1-7"
     d="m 58.926538,38.847795 7.971611,4.782969 3.985811,-4.782969 3.985811,4.782969 7.971612,-4.782969 -5.181555,15.146069 H 64.108091 Z" />
  <path
     inkscape:connector-curvature="0"
     style="fill:#000000;fill-opacity:1;stroke:none;stroke-width:0.55801296"
     id="e-1-8"
     d="M 38.042577,24.553095 46.014189,29.336064 50,24.553095 l 3.985811,4.782969 7.971611,-4.782969 -5.181554,15.146069 H 43.224131 Z" />
  <path
     inkscape:connector-curvature="0"
     style="fill:#000000;fill-opacity:1;stroke:none;stroke-width:0.55801296"
     id="e-23-2"
     d="m 20.758617,6.447795 7.971612,4.782969 3.985811,-4.782969 3.985811,4.782969 7.971612,-4.782969 -5.181553,15.146069 H 25.94017 Z" />
  <path
     inkscape:connector-curvature="0"
     style="fill:#000000;fill-opacity:1;stroke:none;stroke-width:0.55801296"
     id="e-1-7-2"
     d="m 55.326537,6.447795 7.971612,4.782969 3.985811,-4.782969 3.985811,4.782969 7.971611,-4.782969 -5.181554,15.146069 H 60.508091 Z" />
  <path
     inkscape:connector-curvature="0"
     style="fill:#000000;fill-opacity:1;stroke:none;stroke-width:0.55801296"
     id="e-23-8"
     d="m 18.958617,56.847795 7.971612,4.782969 3.985811,-4.782969 3.985811,4.782969 7.971611,-4.782969 -5.181552,15.146069 H 24.14017 Z" />
  <path
     inkscape:connector-curvature="0"
     style="fill:#000000;fill-opacity:1;stroke:none;stroke-width:0.55801296"
     id="e-1-7-9"
     d="m 57.126537,56.847795 7.971612,4.782969 3.985811,-4.782969 3.985811,4.782969 7.971612,-4.782969 -5.181555,15.146069 H 62.308091 Z" />
  <path
     inkscape:connector-curvature="0"
     style="fill:#000000;fill-opacity:1;stroke:none;stroke-width:0.55801296"
     id="e-23-8-7"
     d="m 20.758617,74.847795 7.971612,4.782969 3.985811,-4.782969 3.985811,4.782969 7.971612,-4.782969 -5.181553,15.146069 H 25.94017 Z" />
  <path
     inkscape:connector-curvature="0"
     style="fill:#000000;fill-opacity:1;stroke:none;stroke-width:0.55801296"
     id="e-1-7-9-3"
     d="m 55.326537,74.847795 7.971612,4.782969 3.985811,-4.782969 3.985811,4.782969 7.971612,-4.782969 -5.181555,15.146069 H 60.508091 Z" />
</svg>
