<?xml version="1.0" encoding="UTF-8" standalone="no"?>
<svg
   xmlns:dc="http://purl.org/dc/elements/1.1/"
   xmlns:cc="http://creativecommons.org/ns#"
   xmlns:rdf="http://www.w3.org/1999/02/22-rdf-syntax-ns#"
   xmlns:svg="http://www.w3.org/2000/svg"
   xmlns="http://www.w3.org/2000/svg"
   xmlns:sodipodi="http://sodipodi.sourceforge.net/DTD/sodipodi-0.dtd"
   xmlns:inkscape="http://www.inkscape.org/namespaces/inkscape"
   viewBox="0 0 100 110"
   version="1.1"
   id="svg23"
   sodipodi:docname="seven.svg"
   inkscape:version="0.92.4 (5da689c313, 2019-01-14)">
  <metadata
     id="metadata29">
    <rdf:RDF>
      <cc:Work
         rdf:about="">
        <dc:format>image/svg+xml</dc:format>
        <dc:type
           rdf:resource="http://purl.org/dc/dcmitype/StillImage" />
        <dc:title />
      </cc:Work>
    </rdf:RDF>
  </metadata>
  <defs
     id="defs27" />
  <sodipodi:namedview
     pagecolor="#ffffff"
     bordercolor="#666666"
     borderopacity="1"
     objecttolerance="10"
     gridtolerance="10"
     guidetolerance="10"
     inkscape:pageopacity="0"
     inkscape:pageshadow="2"
     inkscape:window-width="1920"
     inkscape:window-height="1020"
     id="namedview25"
     showgrid="false"
     inkscape:zoom="2.8284271"
     inkscape:cx="-104.19167"
     inkscape:cy="97.542"
     inkscape:window-x="0"
     inkscape:window-y="0"
     inkscape:window-maximized="1"
     inkscape:current-layer="svg23"
     showguides="true"
     inkscape:guide-bbox="true"
     inkscape:lockguides="true" />
  <path
     inkscape:connector-curvature="0"
     style="fill:#000000;fill-opacity:1;stroke:none;stroke-width:0.55801296"
     id="e-7"
     d="m 12.926577,72.970298 7.971612,4.782969 3.985811,-4.782969 3.985811,4.782969 7.971611,-4.782969 -5.181552,15.146067 H 18.10813 Z" />
  <path
     inkscape:connector-curvature="0"
     style="fill:#000000;fill-opacity:1;stroke:none;stroke-width:0.55801296"
     id="e-1-9"
     d="m 63.158577,72.970298 7.971612,4.782969 3.985811,-4.782969 3.985811,4.782969 7.971612,-4.782969 -5.181555,15.146067 H 68.340131 Z" />
  <path
     inkscape:connector-curvature="0"
     style="fill:#000000;fill-opacity:1;stroke:none;stroke-width:0.55801296"
     id="e"
     d="m 16.926577,51.100298 7.971612,4.782969 3.985811,-4.782969 3.985811,4.782969 7.971611,-4.782969 -5.181552,15.14607 H 22.10813 Z" />
  <path
     inkscape:connector-curvature="0"
     style="fill:#000000;fill-opacity:1;stroke:none;stroke-width:0.55801296"
     id="e-1"
     d="m 59.158577,51.100298 7.971612,4.782969 3.985811,-4.782969 3.985811,4.782969 7.971612,-4.782969 -5.181555,15.14607 H 64.340131 Z" />
  <path
     inkscape:connector-curvature="0"
     style="fill:#000000;fill-opacity:1;stroke:none;stroke-width:0.55801296"
     id="e-23"
     d="m 20.926577,28.420296 7.971612,4.782969 3.985811,-4.782969 3.985811,4.782969 7.971611,-4.782969 -5.181552,15.146069 H 26.10813 Z" />
  <path
     inkscape:connector-curvature="0"
     style="fill:#000000;fill-opacity:1;stroke:none;stroke-width:0.55801296"
     id="e-1-7"
     d="m 55.158577,28.420296 7.971612,4.782969 3.985811,-4.782969 3.985811,4.782969 7.971611,-4.782969 -5.181554,15.146069 H 60.340131 Z" />
  <path
     inkscape:connector-curvature="0"
     style="fill:#000000;fill-opacity:1;stroke:none;stroke-width:0.55801296"
     id="e-1-8"
     d="M 38.042577,6.5502958 46.014189,11.333265 50,6.5502958 53.985811,11.333265 61.957422,6.5502958 56.775868,21.696365 H 43.224131 Z" />
</svg>
