<?xml version="1.0" encoding="UTF-8"?>
<svg version="1.1" viewBox="0 0 100 110" xmlns="http://www.w3.org/2000/svg" xmlns:cc="http://creativecommons.org/ns#" xmlns:dc="http://purl.org/dc/elements/1.1/" xmlns:rdf="http://www.w3.org/1999/02/22-rdf-syntax-ns#" xmlns:xlink="http://www.w3.org/1999/xlink">
 <metadata>
  <rdf:RDF>
   <cc:Work rdf:about="">
    <dc:format>image/svg+xml</dc:format>
    <dc:type rdf:resource="http://purl.org/dc/dcmitype/StillImage"/>
    <dc:title/>
   </cc:Work>
  </rdf:RDF>
 </metadata>
 <g fill="#000000" font-family="monospace" font-size="16px" letter-spacing="0px" word-spacing="0px">
  <text x="-52.679455" y="21.611652" style="font-feature-settings:normal;font-variant-caps:normal;font-variant-ligatures:normal;font-variant-numeric:normal;line-height:20px" xml:space="preserve"/>
  <text x="-52.414291" y="15.998991" style="font-feature-settings:normal;font-variant-caps:normal;font-variant-ligatures:normal;font-variant-numeric:normal;line-height:20px" xml:space="preserve"/>
  <circle id="path828-7-3-2" transform="rotate(-90)" cx="-85.77" cy="49.99" r="7.939" fill="#000" stroke="#000" stroke-width="2"/>
 </g>
 <g fill="#000000">
  <use id="use839" transform="translate(3.051e-8 -24)" width="100%" height="100%" fill="#000000" xlink:href="#path828-7-3-2"/>
  <use id="use841" transform="translate(3.051e-8 -24)" width="100%" height="100%" fill="#000000" xlink:href="#use839"/>
  <use id="use843" transform="translate(3.051e-8 -24)" width="100%" height="100%" fill="#000000" xlink:href="#use841"/>
  <use id="use866" transform="translate(-26,10)" width="100%" height="100%" fill="#000000" xlink:href="#use839"/>
  <use id="use868" transform="translate(-32,10)" width="100%" height="100%" fill="#000000" xlink:href="#use841"/>
  <use id="use870" transform="translate(-26,10)" width="100%" height="100%" fill="#000000" xlink:href="#use843"/>
  <use transform="matrix(-1 0 0 1 99.86 -1.879e-8)" width="100%" height="100%" xlink:href="#use866"/>
  <use transform="matrix(-1 0 0 1 99.86 -1.879e-8)" width="100%" height="100%" xlink:href="#use868"/>
  <use transform="matrix(-1 0 0 1 99.86 -1.879e-8)" width="100%" height="100%" xlink:href="#use870"/>
 </g>
</svg>
