<?xml version="1.0" encoding="UTF-8"?>
<svg version="1.1" viewBox="0 0 100 110" xmlns="http://www.w3.org/2000/svg" xmlns:cc="http://creativecommons.org/ns#" xmlns:dc="http://purl.org/dc/elements/1.1/" xmlns:rdf="http://www.w3.org/1999/02/22-rdf-syntax-ns#" xmlns:xlink="http://www.w3.org/1999/xlink">
 <metadata>
  <rdf:RDF>
   <cc:Work rdf:about="">
    <dc:format>image/svg+xml</dc:format>
    <dc:type rdf:resource="http://purl.org/dc/dcmitype/StillImage"/>
    <dc:title/>
   </cc:Work>
  </rdf:RDF>
 </metadata>
 <rect id="rect1388-3-83-8-3-3-3" x="1.837" y="11.69" width="9.027" height="5.416" stroke-width=".7222" style="paint-order:markers stroke fill"/>
 <rect id="use863" x="32.89" y="11.69" width="9.027" height="5.416" stroke-width=".7222" style="paint-order:markers stroke fill"/>
 <rect id="use869" x="1.837" y="17.47" width="9.027" height="5.416" stroke-width=".7222" style="paint-order:markers stroke fill"/>
 <use id="use877" transform="translate(31.05)" width="100%" height="100%" xlink:href="#use869"/>
 <use id="use34" transform="translate(0 11.55)" width="100%" height="100%" xlink:href="#use869"/>
 <use id="use42" transform="translate(0 11.55)" width="100%" height="100%" xlink:href="#use877"/>
 <rect id="rect1388-3-83-8-3-3-3-3" x="37.22" y="23.24" width="4.694" height="5.416" stroke-width=".5207" style="paint-order:markers stroke fill"/>
 <use id="use1002" transform="translate(-35.39)" width="100%" height="100%" xlink:href="#rect1388-3-83-8-3-3-3-3"/>
 <use id="use1004" transform="matrix(1.538 0 0 1 4.066 -3.169e-7)" width="100%" height="100%" xlink:href="#use1002"/>
 <use id="use1010" transform="translate(22.75)" width="100%" height="100%" xlink:href="#use1004"/>
 <use id="use1012" transform="translate(7.583)" width="100%" height="100%" xlink:href="#use1004"/>
 <use id="use1014" transform="translate(7.583)" width="100%" height="100%" xlink:href="#use1012"/>
 <use id="use1033" transform="translate(0 11.55)" width="100%" height="100%" xlink:href="#use34"/>
 <use id="use1041" transform="translate(0 11.55)" width="100%" height="100%" xlink:href="#use42"/>
 <use id="use1043" transform="translate(0 11.55)" width="100%" height="100%" xlink:href="#rect1388-3-83-8-3-3-3-3"/>
 <use id="use1045" transform="translate(0 11.55)" width="100%" height="100%" xlink:href="#use1002"/>
 <use id="use1047" transform="translate(0 11.55)" width="100%" height="100%" xlink:href="#use1004"/>
 <use id="use1049" transform="translate(0 11.55)" width="100%" height="100%" xlink:href="#use1010"/>
 <use id="use1051" transform="translate(0 11.55)" width="100%" height="100%" xlink:href="#use1012"/>
 <use id="use1053" transform="translate(0 11.55)" width="100%" height="100%" xlink:href="#use1014"/>
 <use transform="translate(0 23.11)" width="100%" height="100%" xlink:href="#use34"/>
 <use transform="translate(0 23.11)" width="100%" height="100%" xlink:href="#use42"/>
 <use transform="translate(0 23.11)" width="100%" height="100%" xlink:href="#rect1388-3-83-8-3-3-3-3"/>
 <use transform="translate(0 23.11)" width="100%" height="100%" xlink:href="#use1002"/>
 <use transform="translate(0 23.11)" width="100%" height="100%" xlink:href="#use1004"/>
 <use transform="translate(0 23.11)" width="100%" height="100%" xlink:href="#use1010"/>
 <use transform="translate(0 23.11)" width="100%" height="100%" xlink:href="#use1012"/>
 <use transform="translate(0 23.11)" width="100%" height="100%" xlink:href="#use1014"/>
 <use id="use1081" transform="translate(0 23.11)" width="100%" height="100%" xlink:href="#use1033"/>
 <use transform="translate(0 23.11)" width="100%" height="100%" xlink:href="#use1041"/>
 <use transform="translate(0 23.11)" width="100%" height="100%" xlink:href="#use1043"/>
 <use transform="translate(0 23.11)" width="100%" height="100%" xlink:href="#use1045"/>
 <use transform="translate(0 23.11)" width="100%" height="100%" xlink:href="#use1047"/>
 <use transform="translate(0 23.11)" width="100%" height="100%" xlink:href="#use1049"/>
 <use transform="translate(0 23.11)" width="100%" height="100%" xlink:href="#use1051"/>
 <use transform="translate(0 23.11)" width="100%" height="100%" xlink:href="#use1053"/>
 <use id="use1004-7" transform="matrix(1.538 0 0 1 8.399 -5.777)" width="100%" height="100%" xlink:href="#use1002"/>
 <use id="use1146" transform="translate(14.08)" width="100%" height="100%" xlink:href="#use1004-7"/>
 <use id="use1004-7-3" transform="matrix(1.308 0 0 1 16.41 -5.777)" width="100%" height="100%" xlink:href="#use1002"/>
 <use id="use1165" transform="translate(0 11.55)" width="100%" height="100%" xlink:href="#use1004-7"/>
 <use id="use1167" transform="translate(0 11.55)" width="100%" height="100%" xlink:href="#use1146"/>
 <use id="use1169" transform="translate(0 11.55)" width="100%" height="100%" xlink:href="#use1004-7-3"/>
 <use transform="translate(0 23.11)" width="100%" height="100%" xlink:href="#use1004-7"/>
 <use transform="translate(0 23.11)" width="100%" height="100%" xlink:href="#use1146"/>
 <use transform="translate(0 23.11)" width="100%" height="100%" xlink:href="#use1004-7-3"/>
 <use id="use1177" transform="translate(0 23.11)" width="100%" height="100%" xlink:href="#use1165"/>
 <use id="use1179" transform="translate(0 23.11)" width="100%" height="100%" xlink:href="#use1167"/>
 <use id="use1181" transform="translate(0 23.11)" width="100%" height="100%" xlink:href="#use1169"/>
 <use id="use1183" transform="translate(-15.53)" width="100%" height="100%" xlink:href="#use863"/>
 <use id="use1187" transform="translate(0 11.55)" width="100%" height="100%" xlink:href="#use1177"/>
 <use transform="translate(0 11.55)" width="100%" height="100%" xlink:href="#use1179"/>
 <use transform="translate(0 11.55)" width="100%" height="100%" xlink:href="#use1181"/>
 <use id="use1450" transform="translate(-2.04 5.916)" width="100%" height="100%" xlink:href="#use1081"/>
 <use id="use1454" transform="matrix(1.731 0 0 1 -10.11 5.915)" width="100%" height="100%" xlink:href="#use1187"/>
 <use id="use1470" transform="translate(22.53)" width="100%" height="100%" xlink:href="#use1450"/>
 <use id="use1472" transform="translate(-6.25 5.916)" width="100%" height="100%" xlink:href="#use1450"/>
 <use id="use1474" transform="translate(-6.25 5.916)" width="100%" height="100%" xlink:href="#use1454"/>
 <use id="use1476" transform="translate(-6.25 5.916)" width="100%" height="100%" xlink:href="#use1470"/>
 <use id="use1490" transform="translate(22.53)" width="100%" height="100%" xlink:href="#use1454"/>
 <use id="use1492" transform="translate(22.53)" width="100%" height="100%" xlink:href="#use1470"/>
 <use id="use1494" transform="translate(22.53)" width="100%" height="100%" xlink:href="#use1474"/>
 <use id="use1496" transform="translate(22.53)" width="100%" height="100%" xlink:href="#use1476"/>
 <use id="use1498" transform="translate(45.05)" width="100%" height="100%" xlink:href="#use1454"/>
 <use id="use1500" transform="translate(45.05)" width="100%" height="100%" xlink:href="#use1470"/>
 <use id="use1502" transform="translate(45.05)" width="100%" height="100%" xlink:href="#use1474"/>
 <use id="use1504" transform="translate(45.05)" width="100%" height="100%" xlink:href="#use1476"/>
 <use id="use1506" transform="translate(45.05)" width="100%" height="100%" xlink:href="#use1490"/>
 <use id="use1508" transform="translate(45.05)" width="100%" height="100%" xlink:href="#use1492"/>
 <use id="use1510" transform="translate(45.05)" width="100%" height="100%" xlink:href="#use1494"/>
 <use id="use1512" transform="translate(45.05)" width="100%" height="100%" xlink:href="#use1496"/>
 <use id="use1514" transform="translate(22.53)" width="100%" height="100%" xlink:href="#use1506"/>
 <use id="use1518" transform="translate(22.53)" width="100%" height="100%" xlink:href="#use1510"/>
 <use id="use1522" transform="translate(0 11.83)" width="100%" height="100%" xlink:href="#use1450"/>
 <use id="use1524" transform="translate(0 11.83)" width="100%" height="100%" xlink:href="#use1454"/>
 <use id="use1526" transform="translate(0 11.83)" width="100%" height="100%" xlink:href="#use1470"/>
 <use id="use1528" transform="translate(0 11.83)" width="100%" height="100%" xlink:href="#use1472"/>
 <use id="use1530" transform="translate(0 11.83)" width="100%" height="100%" xlink:href="#use1474"/>
 <use id="use1532" transform="translate(0 11.83)" width="100%" height="100%" xlink:href="#use1476"/>
 <use id="use1534" transform="translate(0 11.83)" width="100%" height="100%" xlink:href="#use1490"/>
 <use id="use1536" transform="translate(0 11.83)" width="100%" height="100%" xlink:href="#use1492"/>
 <use id="use1538" transform="translate(0 11.83)" width="100%" height="100%" xlink:href="#use1494"/>
 <use id="use1540" transform="translate(0 11.83)" width="100%" height="100%" xlink:href="#use1496"/>
 <use id="use1542" transform="translate(0 11.83)" width="100%" height="100%" xlink:href="#use1498"/>
 <use id="use1544" transform="translate(0 11.83)" width="100%" height="100%" xlink:href="#use1500"/>
 <use id="use1546" transform="translate(0 11.83)" width="100%" height="100%" xlink:href="#use1502"/>
 <use id="use1548" transform="translate(0 11.83)" width="100%" height="100%" xlink:href="#use1504"/>
 <use id="use1550" transform="translate(0 11.83)" width="100%" height="100%" xlink:href="#use1506"/>
 <use id="use1552" transform="translate(0 11.83)" width="100%" height="100%" xlink:href="#use1508"/>
 <use id="use1554" transform="translate(0 11.83)" width="100%" height="100%" xlink:href="#use1510"/>
 <use id="use1556" transform="translate(0 11.83)" width="100%" height="100%" xlink:href="#use1512"/>
 <use id="use1558" transform="translate(0 11.83)" width="100%" height="100%" xlink:href="#use1514"/>
 <use id="use1560" transform="translate(0 11.83)" width="100%" height="100%" xlink:href="#use1518"/>
 <use id="use1582" transform="translate(0 11.83)" width="100%" height="100%" xlink:href="#use1522"/>
 <use id="use1584" transform="translate(0 11.83)" width="100%" height="100%" xlink:href="#use1524"/>
 <use id="use1586" transform="translate(0 11.83)" width="100%" height="100%" xlink:href="#use1526"/>
 <use transform="translate(0 11.83)" width="100%" height="100%" xlink:href="#use1528"/>
 <use transform="translate(0 11.83)" width="100%" height="100%" xlink:href="#use1530"/>
 <use transform="translate(0 11.83)" width="100%" height="100%" xlink:href="#use1532"/>
 <use id="use1594" transform="translate(0 11.83)" width="100%" height="100%" xlink:href="#use1534"/>
 <use id="use1596" transform="translate(0 11.83)" width="100%" height="100%" xlink:href="#use1536"/>
 <use transform="translate(0 11.83)" width="100%" height="100%" xlink:href="#use1538"/>
 <use transform="translate(0 11.83)" width="100%" height="100%" xlink:href="#use1540"/>
 <use id="use1602" transform="translate(0 11.83)" width="100%" height="100%" xlink:href="#use1542"/>
 <use id="use1604" transform="translate(0 11.83)" width="100%" height="100%" xlink:href="#use1544"/>
 <use transform="translate(0 11.83)" width="100%" height="100%" xlink:href="#use1546"/>
 <use transform="translate(0 11.83)" width="100%" height="100%" xlink:href="#use1548"/>
 <use id="use1610" transform="translate(0 11.83)" width="100%" height="100%" xlink:href="#use1550"/>
 <use id="use1612" transform="translate(0 11.83)" width="100%" height="100%" xlink:href="#use1552"/>
 <use transform="translate(0 11.83)" width="100%" height="100%" xlink:href="#use1554"/>
 <use transform="translate(0 11.83)" width="100%" height="100%" xlink:href="#use1556"/>
 <use id="use1618" transform="translate(0 11.83)" width="100%" height="100%" xlink:href="#use1558"/>
 <use transform="translate(0 11.83)" width="100%" height="100%" xlink:href="#use1560"/>
 <use transform="translate(0 11.83)" width="100%" height="100%" xlink:href="#use1582"/>
 <use transform="translate(0 11.83)" width="100%" height="100%" xlink:href="#use1584"/>
 <use transform="translate(0 11.83)" width="100%" height="100%" xlink:href="#use1586"/>
 <use transform="translate(0 11.83)" width="100%" height="100%" xlink:href="#use1594"/>
 <use transform="translate(0 11.83)" width="100%" height="100%" xlink:href="#use1596"/>
 <use transform="translate(0 11.83)" width="100%" height="100%" xlink:href="#use1602"/>
 <use transform="translate(0 11.83)" width="100%" height="100%" xlink:href="#use1604"/>
 <use transform="translate(0 11.83)" width="100%" height="100%" xlink:href="#use1610"/>
 <use transform="translate(0 11.83)" width="100%" height="100%" xlink:href="#use1612"/>
 <use transform="translate(0 11.83)" width="100%" height="100%" xlink:href="#use1618"/>
 <use transform="translate(62.07 34.66)" width="100%" height="100%" xlink:href="#rect1388-3-83-8-3-3-3"/>
 <use transform="translate(62.07 34.66)" width="100%" height="100%" xlink:href="#use863"/>
 <use transform="translate(62.07 34.66)" width="100%" height="100%" xlink:href="#use869"/>
 <use transform="translate(62.07 34.66)" width="100%" height="100%" xlink:href="#use877"/>
 <use transform="translate(62.07 34.66)" width="100%" height="100%" xlink:href="#use34"/>
 <use transform="translate(62.07 34.66)" width="100%" height="100%" xlink:href="#use42"/>
 <use transform="translate(62.07 34.66)" width="100%" height="100%" xlink:href="#rect1388-3-83-8-3-3-3-3"/>
 <use transform="translate(62.07 34.66)" width="100%" height="100%" xlink:href="#use1002"/>
 <use transform="translate(62.07 34.66)" width="100%" height="100%" xlink:href="#use1004"/>
 <use transform="translate(62.07 34.66)" width="100%" height="100%" xlink:href="#use1010"/>
 <use transform="translate(62.07 34.66)" width="100%" height="100%" xlink:href="#use1012"/>
 <use transform="translate(62.07 34.66)" width="100%" height="100%" xlink:href="#use1014"/>
 <use transform="translate(62.07 34.66)" width="100%" height="100%" xlink:href="#use1004-7"/>
 <use transform="translate(62.07 34.66)" width="100%" height="100%" xlink:href="#use1146"/>
 <use transform="translate(62.07 34.66)" width="100%" height="100%" xlink:href="#use1004-7-3"/>
 <use transform="translate(62.07 34.66)" width="100%" height="100%" xlink:href="#use1165"/>
 <use transform="translate(62.07 34.66)" width="100%" height="100%" xlink:href="#use1167"/>
 <use transform="translate(62.07 34.66)" width="100%" height="100%" xlink:href="#use1169"/>
 <use id="use1698" transform="translate(62.07 34.66)" width="100%" height="100%" xlink:href="#use1183"/>
 <use transform="translate(-30.07 17.33)" width="100%" height="100%" xlink:href="#use1698"/>
</svg>
