<?xml version="1.0" encoding="UTF-8"?>
<svg version="1.1" viewBox="0 0 100 110" xmlns="http://www.w3.org/2000/svg" xmlns:cc="http://creativecommons.org/ns#" xmlns:dc="http://purl.org/dc/elements/1.1/" xmlns:rdf="http://www.w3.org/1999/02/22-rdf-syntax-ns#" xmlns:xlink="http://www.w3.org/1999/xlink">
 <metadata>
  <rdf:RDF>
   <cc:Work rdf:about="">
    <dc:format>image/svg+xml</dc:format>
    <dc:type rdf:resource="http://purl.org/dc/dcmitype/StillImage"/>
    <dc:title/>
   </cc:Work>
  </rdf:RDF>
 </metadata>
 <rect id="rect1388-3-83-8-3-3-3" x="3.686" y="32" width="12.5" height="7.5" style="paint-order:markers stroke fill"/>
 <use id="use861" transform="translate(20)" width="100%" height="100%" xlink:href="#rect1388-3-83-8-3-3-3"/>
 <use id="use863" transform="translate(20)" width="100%" height="100%" xlink:href="#use861"/>
 <use id="use865" transform="translate(20)" width="100%" height="100%" xlink:href="#use863"/>
 <use id="use867" transform="translate(20)" width="100%" height="100%" xlink:href="#use865"/>
 <use id="use869" transform="translate(-85.5 8)" width="100%" height="100%" xlink:href="#use867"/>
 <use id="use871" transform="translate(7.5 8)" width="100%" height="100%" xlink:href="#rect1388-3-83-8-3-3-3"/>
 <use id="use873" transform="translate(26)" width="100%" height="100%" xlink:href="#use869"/>
 <use id="use875" transform="translate(26)" width="100%" height="100%" xlink:href="#use871"/>
 <use id="use877" transform="translate(52)" width="100%" height="100%" xlink:href="#use869"/>
 <use id="use879" transform="translate(52)" width="100%" height="100%" xlink:href="#use871"/>
 <use id="use881" transform="translate(52)" width="100%" height="100%" xlink:href="#use873"/>
 <use id="use883" transform="translate(52)" width="100%" height="100%" xlink:href="#use875"/>
 <use transform="translate(-7 8)" width="100%" height="100%" xlink:href="#use869"/>
 <use transform="translate(-7 8)" width="100%" height="100%" xlink:href="#use871"/>
 <use transform="translate(-7 8)" width="100%" height="100%" xlink:href="#use873"/>
 <use transform="translate(-7 8)" width="100%" height="100%" xlink:href="#use875"/>
 <use transform="translate(-7 8)" width="100%" height="100%" xlink:href="#use877"/>
 <use transform="translate(-7 8)" width="100%" height="100%" xlink:href="#use879"/>
 <use transform="translate(-7 8)" width="100%" height="100%" xlink:href="#use881"/>
 <use id="use899" transform="translate(-7 8)" width="100%" height="100%" xlink:href="#use883"/>
 <use transform="translate(13)" width="100%" height="100%" xlink:href="#use899"/>
 <use transform="translate(6.621e-7 16)" width="100%" height="100%" xlink:href="#use869"/>
 <use transform="translate(6.621e-7 16)" width="100%" height="100%" xlink:href="#use871"/>
 <use transform="translate(6.621e-7 16)" width="100%" height="100%" xlink:href="#use873"/>
 <use transform="translate(6.621e-7 16)" width="100%" height="100%" xlink:href="#use875"/>
 <use transform="translate(6.621e-7 16)" width="100%" height="100%" xlink:href="#use877"/>
 <use transform="translate(6.621e-7 16)" width="100%" height="100%" xlink:href="#use879"/>
 <use transform="translate(6.621e-7 16)" width="100%" height="100%" xlink:href="#use881"/>
 <use transform="translate(6.621e-7 16)" width="100%" height="100%" xlink:href="#use883"/>
</svg>
